%TF.GenerationSoftware,KiCad,Pcbnew,(5.1.10)-1*%
%TF.CreationDate,2022-09-23T13:33:22+09:00*%
%TF.ProjectId,(KiCad)DriveUnit_B-series(ver2.0),284b6943-6164-4294-9472-697665556e69,rev?*%
%TF.SameCoordinates,Original*%
%TF.FileFunction,Copper,L1,Top*%
%TF.FilePolarity,Positive*%
%FSLAX46Y46*%
G04 Gerber Fmt 4.6, Leading zero omitted, Abs format (unit mm)*
G04 Created by KiCad (PCBNEW (5.1.10)-1) date 2022-09-23 13:33:22*
%MOMM*%
%LPD*%
G01*
G04 APERTURE LIST*
%TA.AperFunction,SMDPad,CuDef*%
%ADD10R,12.700000X11.938000*%
%TD*%
%TA.AperFunction,ComponentPad*%
%ADD11O,1.308000X2.616000*%
%TD*%
%TA.AperFunction,SMDPad,CuDef*%
%ADD12R,1.220000X0.780000*%
%TD*%
%TA.AperFunction,SMDPad,CuDef*%
%ADD13R,2.000000X5.300000*%
%TD*%
%TA.AperFunction,SMDPad,CuDef*%
%ADD14R,0.800000X0.800000*%
%TD*%
%TA.AperFunction,SMDPad,CuDef*%
%ADD15R,1.650000X1.400000*%
%TD*%
%TA.AperFunction,SMDPad,CuDef*%
%ADD16R,1.400000X1.650000*%
%TD*%
%TA.AperFunction,SMDPad,CuDef*%
%ADD17R,1.600000X1.050000*%
%TD*%
%TA.AperFunction,SMDPad,CuDef*%
%ADD18R,0.900000X1.200000*%
%TD*%
%TA.AperFunction,ComponentPad*%
%ADD19C,1.308000*%
%TD*%
%TA.AperFunction,SMDPad,CuDef*%
%ADD20R,0.800000X1.000000*%
%TD*%
%TA.AperFunction,ViaPad*%
%ADD21C,0.856400*%
%TD*%
%TA.AperFunction,ViaPad*%
%ADD22C,0.756400*%
%TD*%
%TA.AperFunction,ViaPad*%
%ADD23C,0.800000*%
%TD*%
%TA.AperFunction,Conductor*%
%ADD24C,0.254000*%
%TD*%
%TA.AperFunction,Conductor*%
%ADD25C,0.250000*%
%TD*%
%TA.AperFunction,Conductor*%
%ADD26C,0.152400*%
%TD*%
%TA.AperFunction,Conductor*%
%ADD27C,0.076200*%
%TD*%
%TA.AperFunction,Conductor*%
%ADD28C,0.100000*%
%TD*%
G04 APERTURE END LIST*
D10*
%TO.P,HA,DRAIN*%
%TO.N,VCC*%
X126461100Y-86868200D03*
D11*
%TO.P,HA,SOURCE*%
%TO.N,/SA*%
X129001100Y-100863600D03*
%TO.P,HA,GATE*%
%TO.N,Net-(HA1-PadGATE)*%
X123921100Y-100863600D03*
%TD*%
D10*
%TO.P,HB,DRAIN*%
%TO.N,VCC*%
X141161100Y-86858200D03*
D11*
%TO.P,HB,SOURCE*%
%TO.N,/SB*%
X143701100Y-100853600D03*
%TO.P,HB,GATE*%
%TO.N,Net-(HB1-PadGATE)*%
X138621100Y-100853600D03*
%TD*%
D10*
%TO.P,LA,DRAIN*%
%TO.N,/SA*%
X123961100Y-114859000D03*
D11*
%TO.P,LA,SOURCE*%
%TO.N,GND*%
X121421100Y-100863600D03*
%TO.P,LA,GATE*%
%TO.N,Net-(LA1-PadGATE)*%
X126501100Y-100863600D03*
%TD*%
D10*
%TO.P,LB,DRAIN*%
%TO.N,/SB*%
X138661100Y-114859000D03*
D11*
%TO.P,LB,SOURCE*%
%TO.N,GND*%
X136121100Y-100863600D03*
%TO.P,LB,GATE*%
%TO.N,Net-(LB1-PadGATE)*%
X141201100Y-100863600D03*
%TD*%
%TO.P,C10,C*%
%TO.N,GND*%
X168221100Y-116463600D03*
%TO.P,C10,A*%
%TO.N,VCC*%
X163221100Y-116463600D03*
%TD*%
%TO.P,C11,C*%
%TO.N,GND*%
X156371100Y-116493600D03*
%TO.P,C11,A*%
%TO.N,VCC*%
X151371100Y-116493600D03*
%TD*%
D12*
%TO.P,D4,A*%
%TO.N,/LAP*%
X173391100Y-100423600D03*
%TO.P,D4,C*%
%TO.N,Net-(D2-PadC)*%
X173391100Y-96943600D03*
%TD*%
%TO.P,D5,A*%
%TO.N,/LAP*%
X175391100Y-100443600D03*
%TO.P,D5,C*%
%TO.N,Net-(D3-PadC)*%
X175391100Y-96963600D03*
%TD*%
D13*
%TO.P,EDGE1,P$25*%
%TO.N,/PWM_IN*%
X178981100Y-126153600D03*
%TO.P,EDGE1,P$24*%
%TO.N,/GND_IN*%
X176441100Y-126153600D03*
%TO.P,EDGE1,P$23*%
%TO.N,VCC*%
X173901100Y-126153600D03*
%TO.P,EDGE1,P$22*%
X171361100Y-126153600D03*
%TO.P,EDGE1,P$21*%
X168821100Y-126153600D03*
%TO.P,EDGE1,P$20*%
X166281100Y-126153600D03*
%TO.P,EDGE1,P$19*%
X163741100Y-126153600D03*
%TO.P,EDGE1,P$18*%
X161201100Y-126153600D03*
%TO.P,EDGE1,P$17*%
X158661100Y-126153600D03*
%TO.P,EDGE1,P$16*%
X156121100Y-126153600D03*
%TO.P,EDGE1,P$15*%
X153581100Y-126153600D03*
%TO.P,EDGE1,P$14*%
X151041100Y-126153600D03*
%TO.P,EDGE1,P$13*%
X148501100Y-126153600D03*
%TO.P,EDGE1,P$12*%
X145961100Y-126153600D03*
%TO.P,EDGE1,P$11*%
%TO.N,/SB*%
X143421100Y-126153600D03*
%TO.P,EDGE1,P$10*%
X140881100Y-126153600D03*
%TO.P,EDGE1,P$9*%
X138341100Y-126153600D03*
%TO.P,EDGE1,P$8*%
X135801100Y-126153600D03*
%TO.P,EDGE1,P$7*%
X133261100Y-126153600D03*
%TO.P,EDGE1,P$6*%
X130721100Y-126153600D03*
%TO.P,EDGE1,P$5*%
%TO.N,/SA*%
X128181100Y-126153600D03*
%TO.P,EDGE1,P$4*%
X125641100Y-126153600D03*
%TO.P,EDGE1,P$3*%
X123101100Y-126153600D03*
%TO.P,EDGE1,P$2*%
X120561100Y-126153600D03*
%TO.P,EDGE1,P$1*%
X118021100Y-126153600D03*
%TD*%
D14*
%TO.P,LED1,A*%
%TO.N,Net-(LED1-PadA)*%
X176911100Y-83633600D03*
%TO.P,LED1,K*%
%TO.N,/SB*%
X175261100Y-83633600D03*
%TD*%
%TO.P,LED2,A*%
%TO.N,/SB*%
X179851100Y-83633600D03*
%TO.P,LED2,K*%
%TO.N,Net-(LED1-PadA)*%
X178201100Y-83633600D03*
%TD*%
%TO.P,LED3,A*%
%TO.N,Net-(LED3-PadA)*%
X178231100Y-81373600D03*
%TO.P,LED3,K*%
%TO.N,GND*%
X179881100Y-81373600D03*
%TD*%
%TO.P,LED4,A*%
%TO.N,Net-(LED4-PadA)*%
X176911100Y-85853600D03*
%TO.P,LED4,K*%
%TO.N,Net-(LED4-PadK)*%
X175261100Y-85853600D03*
%TD*%
%TO.P,LED5,A*%
%TO.N,Net-(LED5-PadA)*%
X179851100Y-85853600D03*
%TO.P,LED5,K*%
%TO.N,Net-(LED5-PadK)*%
X178201100Y-85853600D03*
%TD*%
D15*
%TO.P,R11,RIGHT*%
%TO.N,VCC*%
X174060000Y-110383600D03*
%TO.P,R11,LEFT*%
%TO.N,/RESET*%
X174060000Y-112983600D03*
%TD*%
D16*
%TO.P,R22,RIGHT*%
%TO.N,Net-(LED3-PadA)*%
X173641100Y-81353600D03*
%TO.P,R22,LEFT*%
%TO.N,VCC*%
X171041100Y-81353600D03*
%TD*%
%TO.P,R3,RIGHT*%
%TO.N,Net-(LED1-PadA)*%
X173611100Y-83663600D03*
%TO.P,R3,LEFT*%
%TO.N,/SA*%
X171011100Y-83663600D03*
%TD*%
%TO.P,R4,RIGHT*%
%TO.N,/V5*%
X175321100Y-93953600D03*
%TO.P,R4,LEFT*%
%TO.N,/FF1*%
X172721100Y-93953600D03*
%TD*%
%TO.P,R5,RIGHT*%
%TO.N,/V5*%
X176951100Y-93953600D03*
%TO.P,R5,LEFT*%
%TO.N,/FF2*%
X179551100Y-93953600D03*
%TD*%
%TO.P,R7,RIGHT*%
%TO.N,Net-(LED4-PadA)*%
X172601100Y-87803600D03*
%TO.P,R7,LEFT*%
%TO.N,/V5*%
X175201100Y-87803600D03*
%TD*%
%TO.P,R8,RIGHT*%
%TO.N,Net-(LED5-PadA)*%
X179521100Y-87803600D03*
%TO.P,R8,LEFT*%
%TO.N,/V5*%
X176921100Y-87803600D03*
%TD*%
D17*
%TO.P,SA,RIGHT*%
%TO.N,Net-(D2-PadC)*%
X170901100Y-96463600D03*
%TO.P,SA,LEFT*%
%TO.N,GND*%
X170901100Y-100913600D03*
%TD*%
%TO.P,SB,RIGHT*%
%TO.N,GND*%
X177921100Y-100893600D03*
%TO.P,SB,LEFT*%
%TO.N,Net-(D3-PadC)*%
X177921100Y-96443600D03*
%TD*%
D18*
%TO.P,RESET,1*%
%TO.N,GND*%
X178301100Y-113683600D03*
%TO.P,RESET,2*%
%TO.N,Net-(SW3-Pad2)*%
X178301100Y-109683600D03*
%TO.P,RESET,4*%
%TO.N,Net-(SW3-Pad4)*%
X179801100Y-109683600D03*
%TO.P,RESET,3*%
%TO.N,/RESET*%
X179801100Y-113683600D03*
%TD*%
D19*
%TO.P,SW4,L*%
%TO.N,Net-(SW4-PadL)*%
X176901100Y-104413600D03*
%TO.P,SW4,R*%
%TO.N,GND*%
X171901100Y-104413600D03*
%TO.P,SW4,C*%
%TO.N,/LAP*%
X174401100Y-104413600D03*
%TD*%
D20*
%TO.P,TR1,C*%
%TO.N,Net-(LED4-PadK)*%
X173970000Y-89700000D03*
%TO.P,TR1,B*%
%TO.N,/FF1*%
X173020000Y-92100000D03*
%TO.P,TR1,E*%
%TO.N,GND*%
X174920000Y-92100000D03*
%TD*%
%TO.P,TR2,C*%
%TO.N,Net-(LED5-PadK)*%
X178211100Y-89700000D03*
%TO.P,TR2,B*%
%TO.N,/FF2*%
X177261100Y-92100000D03*
%TO.P,TR2,E*%
%TO.N,GND*%
X179161100Y-92100000D03*
%TD*%
D21*
%TO.N,VCC*%
X166831100Y-93883600D03*
X156601100Y-94753600D03*
D22*
X148361100Y-114503600D03*
X149271100Y-114503600D03*
X149271100Y-115413600D03*
X150181100Y-115423600D03*
X150181100Y-116333600D03*
X150181100Y-114503600D03*
X151091100Y-114503600D03*
X152001100Y-114503600D03*
D23*
%TO.N,GND*%
X168250000Y-80890000D03*
D21*
X177661100Y-115503600D03*
X163744006Y-82370641D03*
X160430000Y-82370641D03*
X166190000Y-100040000D03*
X168710000Y-100060000D03*
X176790000Y-90980000D03*
X172920500Y-89584850D03*
%TO.N,/SA*%
X147821100Y-97926800D03*
X150141100Y-100283600D03*
X158160500Y-102136797D03*
X170754300Y-93088550D03*
D22*
X130561100Y-121363600D03*
X129661100Y-121363600D03*
X128761100Y-121363600D03*
X127861100Y-121363600D03*
X126961100Y-121363600D03*
X126061100Y-121363600D03*
X125161100Y-121363600D03*
X124261100Y-121363600D03*
X123361100Y-121363600D03*
X122461100Y-121363600D03*
X121561100Y-121363600D03*
X117061100Y-115963600D03*
X120661100Y-121363600D03*
X119761100Y-121363600D03*
X117061100Y-116863600D03*
X117061100Y-117763600D03*
X118861100Y-121363600D03*
X117961100Y-121363600D03*
X117061100Y-118663600D03*
X117061100Y-119563600D03*
X117061100Y-121363600D03*
X117061100Y-120463600D03*
X117061100Y-122973600D03*
X117961100Y-122973600D03*
X118861100Y-122973600D03*
X119761100Y-122973600D03*
X120661100Y-122973600D03*
X121561100Y-122973600D03*
X122461100Y-122973600D03*
X123361100Y-122973600D03*
X124261100Y-122973600D03*
X125161100Y-122973600D03*
X126061100Y-122973600D03*
X126961100Y-122973600D03*
X127861100Y-122973600D03*
X128761100Y-122973600D03*
X129661100Y-122973600D03*
X130530000Y-122900000D03*
X117501100Y-122163600D03*
X118401100Y-122163600D03*
X119301100Y-122163600D03*
X120201100Y-122163600D03*
X121101100Y-122163600D03*
X122001100Y-122163600D03*
X122901100Y-122163600D03*
X123801100Y-122163600D03*
X124701100Y-122163600D03*
X125601100Y-122163600D03*
X126501100Y-122163600D03*
X127401100Y-122163600D03*
X128301100Y-122163600D03*
X129201100Y-122163600D03*
X130101100Y-122163600D03*
X131001100Y-122163600D03*
X130841100Y-120463600D03*
X130841100Y-119563600D03*
X130841100Y-118663600D03*
X130841100Y-117763600D03*
X130841100Y-116863600D03*
X130841100Y-115963600D03*
X117061100Y-115063600D03*
X117061100Y-114163600D03*
X117061100Y-113263600D03*
X130841100Y-115063600D03*
X130841100Y-113263600D03*
X130841100Y-114163600D03*
D21*
X158140000Y-105530000D03*
%TO.N,/SB*%
X165051100Y-95363600D03*
X167361100Y-95373600D03*
X155100000Y-104760000D03*
X153831100Y-102183600D03*
X170884300Y-87475782D03*
D22*
X132361100Y-121363600D03*
X131911100Y-122163600D03*
X134161100Y-121363600D03*
X133261100Y-121363600D03*
X135061100Y-121363600D03*
X135961100Y-121363600D03*
X136861100Y-121363600D03*
X137761100Y-121363600D03*
X133711100Y-122163600D03*
X132811100Y-122163600D03*
X134611100Y-122163600D03*
X135511100Y-122163600D03*
X136411100Y-122163600D03*
X137311100Y-122163600D03*
X138211100Y-122163600D03*
X138661100Y-121363600D03*
X139561100Y-121363600D03*
X139111100Y-122163600D03*
X140011100Y-122163600D03*
X140461100Y-121363600D03*
X142261100Y-121363600D03*
X141361100Y-121363600D03*
X140911100Y-122163600D03*
X141811100Y-122163600D03*
X142711100Y-122163600D03*
X143161100Y-121363600D03*
X144061100Y-121363600D03*
X143611100Y-122163600D03*
X144511100Y-122163600D03*
X144961100Y-121363600D03*
X145411100Y-122163600D03*
X131751100Y-120463600D03*
X131751100Y-119563600D03*
X131751100Y-118663600D03*
X131751100Y-117763600D03*
X131751100Y-116863600D03*
X131751100Y-115963600D03*
X145541100Y-120463600D03*
X145541100Y-119563600D03*
X145541100Y-118663600D03*
X145541100Y-117763600D03*
X145541100Y-116863600D03*
X145541100Y-115963600D03*
X132361100Y-122973600D03*
X133261100Y-122973600D03*
X134161100Y-122973600D03*
X135061100Y-122973600D03*
X135961100Y-122973600D03*
X137761100Y-122973600D03*
X136861100Y-122973600D03*
X138661100Y-122973600D03*
X139561100Y-122973600D03*
X140461100Y-122973600D03*
X141361100Y-122973600D03*
X142261100Y-122973600D03*
X144061100Y-122973600D03*
X143161100Y-122973600D03*
X144950000Y-122900000D03*
X145541100Y-115063600D03*
X145541100Y-114163600D03*
X145541100Y-113263600D03*
X131751100Y-114163600D03*
X131751100Y-113263600D03*
X131751100Y-115063600D03*
%TO.N,/FF1*%
X164834300Y-84937638D03*
%TO.N,/FF2*%
X165455500Y-84273600D03*
D21*
%TO.N,Net-(D2-PadC)*%
X173363790Y-98096291D03*
%TO.N,Net-(D3-PadC)*%
X177161100Y-98253613D03*
%TO.N,/RESET*%
X172070000Y-112880000D03*
%TO.N,/LAP*%
X174821100Y-99293600D03*
D22*
%TO.N,/V5*%
X177550000Y-84910000D03*
D21*
X179501100Y-107703600D03*
%TO.N,/GND_IN*%
X176521100Y-120313600D03*
%TO.N,/PWM_IN*%
X179051100Y-122453600D03*
%TO.N,/DIR*%
X172267950Y-85750000D03*
X172330000Y-81830000D03*
%TD*%
D24*
%TO.N,VCC*%
X166831100Y-93883600D02*
X167331100Y-93883600D01*
X167331100Y-93883600D02*
X167351100Y-93903600D01*
X156601100Y-94753600D02*
X155911100Y-94753600D01*
X155911100Y-94753600D02*
X155661100Y-94503600D01*
%TO.N,GND*%
X178301100Y-114863600D02*
X178301100Y-113683600D01*
X178301100Y-114863600D02*
X177661100Y-115503600D01*
X172920500Y-89863000D02*
X172920500Y-89584850D01*
X170901100Y-100913600D02*
X170231100Y-100913600D01*
X170901100Y-100913600D02*
X171141100Y-100913600D01*
X171141100Y-100913600D02*
X171451100Y-101223600D01*
X171451100Y-101223600D02*
X177591100Y-101223600D01*
X177591100Y-101223600D02*
X177921100Y-100893600D01*
D25*
X172920500Y-89584850D02*
X172920500Y-90100500D01*
X179161100Y-92100000D02*
X179161100Y-91803600D01*
X172920500Y-90100500D02*
X173575000Y-90755000D01*
X177060000Y-91250000D02*
X176790000Y-90980000D01*
X178311100Y-91250000D02*
X177060000Y-91250000D01*
X179161100Y-92100000D02*
X178311100Y-91250000D01*
X173800000Y-90980000D02*
X173710000Y-90890000D01*
X176790000Y-90980000D02*
X173800000Y-90980000D01*
X173710000Y-90890000D02*
X174920000Y-92100000D01*
X173575000Y-90755000D02*
X173710000Y-90890000D01*
X168888801Y-80251199D02*
X168250000Y-80890000D01*
X178758699Y-80251199D02*
X168888801Y-80251199D01*
X179881100Y-81373600D02*
X178758699Y-80251199D01*
X163744006Y-82370641D02*
X160430000Y-82370641D01*
X169483600Y-100913600D02*
X169503600Y-100913600D01*
X168690000Y-100040000D02*
X168710000Y-100060000D01*
X166190000Y-100040000D02*
X168690000Y-100040000D01*
X168710000Y-100060000D02*
X169870000Y-101220000D01*
X170594700Y-101220000D02*
X170901100Y-100913600D01*
X169870000Y-101220000D02*
X170594700Y-101220000D01*
D24*
%TO.N,/SA*%
X150141100Y-100283600D02*
X150141100Y-100246800D01*
X150141100Y-100246800D02*
X147821100Y-97926800D01*
D26*
X158160500Y-104473000D02*
X158171100Y-104483600D01*
D24*
X170754300Y-93088550D02*
X170754300Y-92665788D01*
X170754300Y-92665788D02*
X164087500Y-85998988D01*
X164087500Y-85998988D02*
X164087500Y-84543450D01*
X164087500Y-84543450D02*
X165044150Y-83586800D01*
X171011100Y-83663600D02*
X170934300Y-83586800D01*
X170934300Y-83586800D02*
X165044150Y-83586800D01*
D25*
X158160500Y-105509500D02*
X158140000Y-105530000D01*
X158160500Y-102136797D02*
X158160500Y-105509500D01*
D24*
%TO.N,/SB*%
X167361100Y-95373600D02*
X167351100Y-95363600D01*
X167351100Y-95363600D02*
X165051100Y-95363600D01*
D26*
X170884300Y-87475782D02*
X170884300Y-87412113D01*
D24*
X175261100Y-83953600D02*
X175261100Y-83633600D01*
X172811100Y-86403600D02*
X175261100Y-83953600D01*
D25*
X172811100Y-86403600D02*
X172811100Y-86414578D01*
X172811100Y-86414578D02*
X172585678Y-86640000D01*
X171720082Y-86640000D02*
X170884300Y-87475782D01*
X172585678Y-86640000D02*
X171720082Y-86640000D01*
X153831100Y-103491100D02*
X155100000Y-104760000D01*
X153831100Y-102183600D02*
X153831100Y-103491100D01*
D26*
X175261100Y-83633600D02*
X175293600Y-83633600D01*
X175261100Y-83633600D02*
X175263600Y-83633600D01*
X175261100Y-83633600D02*
X175261100Y-83791100D01*
X179222499Y-84262201D02*
X179851100Y-83633600D01*
X175732201Y-84262201D02*
X179222499Y-84262201D01*
X175261100Y-83791100D02*
X175732201Y-84262201D01*
%TO.N,Net-(LED4-PadK)*%
X175221100Y-85983600D02*
X175291100Y-85913600D01*
X175291100Y-85913600D02*
X175261100Y-85853600D01*
D24*
X175041100Y-85913600D02*
X175291100Y-85913600D01*
X173911100Y-87043600D02*
X175041100Y-85913600D01*
D25*
X173911100Y-89641100D02*
X173970000Y-89700000D01*
X173911100Y-87043600D02*
X173911100Y-89641100D01*
D26*
%TO.N,/FF1*%
X164834300Y-84937638D02*
X166645137Y-84937638D01*
X166645137Y-84937638D02*
X172961100Y-91253600D01*
D24*
X172721100Y-93953600D02*
X172961100Y-93713600D01*
D26*
X172961100Y-92041100D02*
X173020000Y-92100000D01*
X172961100Y-91253600D02*
X172961100Y-92041100D01*
X173020000Y-93654700D02*
X172721100Y-93953600D01*
X173020000Y-92100000D02*
X173020000Y-93654700D01*
D25*
%TO.N,Net-(LED5-PadK)*%
X178211100Y-85863600D02*
X178201100Y-85853600D01*
X178211100Y-89700000D02*
X178211100Y-85863600D01*
D24*
%TO.N,/FF2*%
X179411100Y-93953600D02*
X179551100Y-93953600D01*
D26*
X177404387Y-91803600D02*
X177261100Y-91803600D01*
X176481100Y-92880000D02*
X177261100Y-92100000D01*
X174388518Y-92880000D02*
X176481100Y-92880000D01*
X173700000Y-92191482D02*
X174388518Y-92880000D01*
X173700000Y-91468518D02*
X173700000Y-92191482D01*
X166505082Y-84273600D02*
X173700000Y-91468518D01*
X165455500Y-84273600D02*
X166505082Y-84273600D01*
X179551100Y-93801482D02*
X179551100Y-93953600D01*
D25*
X179114700Y-93953600D02*
X177261100Y-92100000D01*
X179551100Y-93953600D02*
X179114700Y-93953600D01*
D24*
%TO.N,Net-(D2-PadC)*%
X173391100Y-96943600D02*
X173261100Y-96943600D01*
X173401100Y-96943600D02*
X173391100Y-96943600D01*
X173261100Y-96943600D02*
X171381100Y-96943600D01*
X171381100Y-96943600D02*
X170901100Y-96463600D01*
X173363790Y-98096291D02*
X173401100Y-98058982D01*
X173401100Y-96943600D02*
X173401100Y-98058982D01*
D26*
%TO.N,Net-(D3-PadC)*%
X177921100Y-96443600D02*
X177921100Y-96073600D01*
D24*
X177921100Y-96443600D02*
X177971100Y-96493600D01*
X177921100Y-96443600D02*
X177761100Y-96603600D01*
X177921100Y-96443600D02*
X177921100Y-97493613D01*
X177921100Y-97493613D02*
X177161100Y-98253613D01*
X175391100Y-96963600D02*
X177401100Y-96963600D01*
X177401100Y-96963600D02*
X177921100Y-96443600D01*
D25*
%TO.N,/RESET*%
X173956400Y-112880000D02*
X174060000Y-112983600D01*
X172070000Y-112880000D02*
X173956400Y-112880000D01*
X179801100Y-113683600D02*
X179801100Y-113261100D01*
X174237401Y-112806199D02*
X174060000Y-112983600D01*
X179346199Y-112806199D02*
X174237401Y-112806199D01*
X179801100Y-113261100D02*
X179346199Y-112806199D01*
D24*
%TO.N,/LAP*%
X175391100Y-100443600D02*
X175371100Y-100423600D01*
X173391100Y-100423600D02*
X173391100Y-100263600D01*
X173391100Y-100423600D02*
X173391100Y-99633600D01*
X173731100Y-99293600D02*
X174821100Y-99293600D01*
X173391100Y-99633600D02*
X173731100Y-99293600D01*
X175391100Y-100443600D02*
X175391100Y-99593600D01*
X175391100Y-99593600D02*
X175091100Y-99293600D01*
X175091100Y-99293600D02*
X174821100Y-99293600D01*
D26*
%TO.N,Net-(LED1-PadA)*%
X177001100Y-83600313D02*
X176911100Y-83633600D01*
D24*
X176911100Y-83633600D02*
X178201100Y-83633600D01*
X173611100Y-83663600D02*
X173625968Y-83663600D01*
X173625968Y-83663600D02*
X174410368Y-82879200D01*
X176246700Y-82879200D02*
X176911100Y-83633600D01*
X174410368Y-82879200D02*
X176246700Y-82879200D01*
D26*
%TO.N,Net-(LED3-PadA)*%
X178231100Y-81373600D02*
X178211100Y-81353600D01*
D24*
X178211100Y-81353600D02*
X173641100Y-81353600D01*
D26*
%TO.N,Net-(LED4-PadA)*%
X172601100Y-87803600D02*
X172661100Y-87733600D01*
X172661100Y-87733600D02*
X172661100Y-87073600D01*
X177001100Y-85683600D02*
X177001100Y-85753600D01*
X177001100Y-85753600D02*
X176911100Y-85853600D01*
D24*
X172601100Y-87803600D02*
X173041100Y-87363600D01*
X173041100Y-87363600D02*
X173041100Y-86756500D01*
X176391100Y-85143600D02*
X177001100Y-85753600D01*
X173041100Y-86756500D02*
X174654000Y-85143600D01*
X174654000Y-85143600D02*
X176391100Y-85143600D01*
D26*
%TO.N,/V5*%
X176662803Y-87795054D02*
X176858706Y-87793910D01*
X176858706Y-87793910D02*
X177024918Y-87792938D01*
X176662803Y-87795054D02*
X176772293Y-87794413D01*
X176772293Y-87794413D02*
X176858703Y-87793907D01*
X176858703Y-87793907D02*
X176911100Y-87793600D01*
X176911100Y-87793600D02*
X176921100Y-87803600D01*
D24*
X176951100Y-93953600D02*
X175321100Y-93953600D01*
D26*
X177031100Y-94033600D02*
X176951100Y-93953600D01*
X175218325Y-87803600D02*
X175201100Y-87803600D01*
D24*
X176951100Y-94003732D02*
X176951100Y-93953600D01*
X176951100Y-93953600D02*
X176931100Y-93953600D01*
X175201100Y-87803600D02*
X176849015Y-87803600D01*
X176849015Y-87803600D02*
X176858706Y-87793910D01*
X176951100Y-93953600D02*
X178401100Y-95403600D01*
X178401100Y-95403600D02*
X178951100Y-95403600D01*
X178951100Y-95403600D02*
X179811100Y-96263600D01*
X179811100Y-107393600D02*
X179501100Y-107703600D01*
X179811100Y-96263600D02*
X179811100Y-107393600D01*
X176921100Y-87803600D02*
X176921100Y-89773600D01*
X179871100Y-90803600D02*
X179891100Y-90803600D01*
X177001100Y-93903600D02*
X176951100Y-93953600D01*
D25*
X176921100Y-89773600D02*
X176921100Y-89811100D01*
X177913600Y-90803600D02*
X179891100Y-90803600D01*
X176921100Y-89811100D02*
X177913600Y-90803600D01*
X176994700Y-93910000D02*
X176951100Y-93953600D01*
X180528501Y-95546199D02*
X179811100Y-96263600D01*
X180528501Y-91441001D02*
X180528501Y-95546199D01*
X179891100Y-90803600D02*
X180528501Y-91441001D01*
D26*
X176921100Y-87437400D02*
X176921100Y-87803600D01*
X177550000Y-87174700D02*
X176921100Y-87803600D01*
X177550000Y-84910000D02*
X177550000Y-87174700D01*
D24*
%TO.N,Net-(LED5-PadA)*%
X179521100Y-87803600D02*
X179851100Y-87473600D01*
X179851100Y-87473600D02*
X179851100Y-85853600D01*
%TO.N,/GND_IN*%
X176521100Y-120313600D02*
X176521100Y-126073600D01*
D26*
X176521100Y-126073600D02*
X176441100Y-126153600D01*
D24*
%TO.N,/PWM_IN*%
X179051100Y-122453600D02*
X179051100Y-126083600D01*
D26*
X179051100Y-126083600D02*
X178981100Y-126153600D01*
D25*
%TO.N,/DIR*%
X172267950Y-81892050D02*
X172330000Y-81830000D01*
X172267950Y-85750000D02*
X172267950Y-84532050D01*
X172267950Y-84532050D02*
X172267950Y-81892050D01*
%TD*%
D27*
%TO.N,VCC*%
X181277999Y-128977463D02*
X179814964Y-130440499D01*
X144927800Y-130440499D01*
X144927800Y-123770300D01*
X146007300Y-123770300D01*
X146044465Y-123766640D01*
X146080201Y-123755799D01*
X146113136Y-123738195D01*
X146142004Y-123714504D01*
X146165695Y-123685636D01*
X146183299Y-123652701D01*
X146194140Y-123616965D01*
X146197800Y-123579800D01*
X146197800Y-123503600D01*
X175249679Y-123503600D01*
X175249679Y-128803600D01*
X175253357Y-128840944D01*
X175264250Y-128876854D01*
X175281939Y-128909948D01*
X175305745Y-128938955D01*
X175334752Y-128962761D01*
X175367846Y-128980450D01*
X175403756Y-128991343D01*
X175441100Y-128995021D01*
X177441100Y-128995021D01*
X177478444Y-128991343D01*
X177514354Y-128980450D01*
X177547448Y-128962761D01*
X177576455Y-128938955D01*
X177600261Y-128909948D01*
X177617950Y-128876854D01*
X177628843Y-128840944D01*
X177632521Y-128803600D01*
X177632521Y-123503600D01*
X177789679Y-123503600D01*
X177789679Y-128803600D01*
X177793357Y-128840944D01*
X177804250Y-128876854D01*
X177821939Y-128909948D01*
X177845745Y-128938955D01*
X177874752Y-128962761D01*
X177907846Y-128980450D01*
X177943756Y-128991343D01*
X177981100Y-128995021D01*
X179981100Y-128995021D01*
X180018444Y-128991343D01*
X180054354Y-128980450D01*
X180087448Y-128962761D01*
X180116455Y-128938955D01*
X180140261Y-128909948D01*
X180157950Y-128876854D01*
X180168843Y-128840944D01*
X180172521Y-128803600D01*
X180172521Y-123503600D01*
X180168843Y-123466256D01*
X180157950Y-123430346D01*
X180140261Y-123397252D01*
X180116455Y-123368245D01*
X180087448Y-123344439D01*
X180054354Y-123326750D01*
X180018444Y-123315857D01*
X179981100Y-123312179D01*
X179368600Y-123312179D01*
X179368600Y-122985558D01*
X179445498Y-122934176D01*
X179531676Y-122847998D01*
X179599385Y-122746665D01*
X179646024Y-122634068D01*
X179669800Y-122514537D01*
X179669800Y-122392663D01*
X179646024Y-122273132D01*
X179599385Y-122160535D01*
X179531676Y-122059202D01*
X179445498Y-121973024D01*
X179344165Y-121905315D01*
X179231568Y-121858676D01*
X179112037Y-121834900D01*
X178990163Y-121834900D01*
X178870632Y-121858676D01*
X178758035Y-121905315D01*
X178656702Y-121973024D01*
X178570524Y-122059202D01*
X178502815Y-122160535D01*
X178456176Y-122273132D01*
X178432400Y-122392663D01*
X178432400Y-122514537D01*
X178456176Y-122634068D01*
X178502815Y-122746665D01*
X178570524Y-122847998D01*
X178656702Y-122934176D01*
X178733600Y-122985558D01*
X178733600Y-123312179D01*
X177981100Y-123312179D01*
X177943756Y-123315857D01*
X177907846Y-123326750D01*
X177874752Y-123344439D01*
X177845745Y-123368245D01*
X177821939Y-123397252D01*
X177804250Y-123430346D01*
X177793357Y-123466256D01*
X177789679Y-123503600D01*
X177632521Y-123503600D01*
X177628843Y-123466256D01*
X177617950Y-123430346D01*
X177600261Y-123397252D01*
X177576455Y-123368245D01*
X177547448Y-123344439D01*
X177514354Y-123326750D01*
X177478444Y-123315857D01*
X177441100Y-123312179D01*
X176838600Y-123312179D01*
X176838600Y-120845558D01*
X176915498Y-120794176D01*
X177001676Y-120707998D01*
X177069385Y-120606665D01*
X177116024Y-120494068D01*
X177139800Y-120374537D01*
X177139800Y-120252663D01*
X177116024Y-120133132D01*
X177069385Y-120020535D01*
X177001676Y-119919202D01*
X176915498Y-119833024D01*
X176814165Y-119765315D01*
X176701568Y-119718676D01*
X176582037Y-119694900D01*
X176460163Y-119694900D01*
X176340632Y-119718676D01*
X176228035Y-119765315D01*
X176126702Y-119833024D01*
X176040524Y-119919202D01*
X175972815Y-120020535D01*
X175926176Y-120133132D01*
X175902400Y-120252663D01*
X175902400Y-120374537D01*
X175926176Y-120494068D01*
X175972815Y-120606665D01*
X176040524Y-120707998D01*
X176126702Y-120794176D01*
X176203600Y-120845558D01*
X176203601Y-123312179D01*
X175441100Y-123312179D01*
X175403756Y-123315857D01*
X175367846Y-123326750D01*
X175334752Y-123344439D01*
X175305745Y-123368245D01*
X175281939Y-123397252D01*
X175264250Y-123430346D01*
X175253357Y-123466256D01*
X175249679Y-123503600D01*
X146197800Y-123503600D01*
X146197800Y-115798114D01*
X155526600Y-115798114D01*
X155526601Y-117189087D01*
X155538820Y-117313151D01*
X155587110Y-117472340D01*
X155665528Y-117619049D01*
X155771060Y-117747641D01*
X155899652Y-117853173D01*
X156046361Y-117931591D01*
X156205550Y-117979881D01*
X156371100Y-117996186D01*
X156536651Y-117979881D01*
X156695840Y-117931591D01*
X156842549Y-117853173D01*
X156971141Y-117747641D01*
X157076673Y-117619049D01*
X157155091Y-117472340D01*
X157203381Y-117313151D01*
X157215600Y-117189087D01*
X157215600Y-115798113D01*
X157212646Y-115768114D01*
X167376600Y-115768114D01*
X167376601Y-117159087D01*
X167388820Y-117283151D01*
X167437110Y-117442340D01*
X167515528Y-117589049D01*
X167621060Y-117717641D01*
X167749652Y-117823173D01*
X167896361Y-117901591D01*
X168055550Y-117949881D01*
X168221100Y-117966186D01*
X168386651Y-117949881D01*
X168545840Y-117901591D01*
X168692549Y-117823173D01*
X168821141Y-117717641D01*
X168926673Y-117589049D01*
X169005091Y-117442340D01*
X169053381Y-117283151D01*
X169065600Y-117159087D01*
X169065600Y-115768113D01*
X169053381Y-115644049D01*
X169005091Y-115484860D01*
X168926673Y-115338151D01*
X168821141Y-115209559D01*
X168692548Y-115104027D01*
X168545839Y-115025609D01*
X168386650Y-114977319D01*
X168221100Y-114961014D01*
X168055549Y-114977319D01*
X167896360Y-115025609D01*
X167749651Y-115104027D01*
X167621059Y-115209559D01*
X167515527Y-115338152D01*
X167437109Y-115484861D01*
X167388819Y-115644050D01*
X167376600Y-115768114D01*
X157212646Y-115768114D01*
X157203381Y-115674049D01*
X157155091Y-115514860D01*
X157076673Y-115368151D01*
X156971141Y-115239559D01*
X156842548Y-115134027D01*
X156695839Y-115055609D01*
X156536650Y-115007319D01*
X156371100Y-114991014D01*
X156205549Y-115007319D01*
X156046360Y-115055609D01*
X155899651Y-115134027D01*
X155771059Y-115239559D01*
X155665527Y-115368152D01*
X155587109Y-115514861D01*
X155538819Y-115674050D01*
X155526600Y-115798114D01*
X146197800Y-115798114D01*
X146197800Y-112819063D01*
X171451300Y-112819063D01*
X171451300Y-112940937D01*
X171475076Y-113060468D01*
X171521715Y-113173065D01*
X171589424Y-113274398D01*
X171675602Y-113360576D01*
X171776935Y-113428285D01*
X171889532Y-113474924D01*
X172009063Y-113498700D01*
X172130937Y-113498700D01*
X172250468Y-113474924D01*
X172363065Y-113428285D01*
X172464398Y-113360576D01*
X172550576Y-113274398D01*
X172603294Y-113195500D01*
X173043579Y-113195500D01*
X173043579Y-113683600D01*
X173047257Y-113720944D01*
X173058150Y-113756854D01*
X173075839Y-113789948D01*
X173099645Y-113818955D01*
X173128652Y-113842761D01*
X173161746Y-113860450D01*
X173197656Y-113871343D01*
X173235000Y-113875021D01*
X174885000Y-113875021D01*
X174922344Y-113871343D01*
X174958254Y-113860450D01*
X174991348Y-113842761D01*
X175020355Y-113818955D01*
X175044161Y-113789948D01*
X175061850Y-113756854D01*
X175072743Y-113720944D01*
X175076421Y-113683600D01*
X175076421Y-113121699D01*
X177659679Y-113121699D01*
X177659679Y-114283600D01*
X177663357Y-114320944D01*
X177674250Y-114356854D01*
X177691939Y-114389948D01*
X177715745Y-114418955D01*
X177744752Y-114442761D01*
X177777846Y-114460450D01*
X177813756Y-114471343D01*
X177851100Y-114475021D01*
X177983600Y-114475021D01*
X177983600Y-114732087D01*
X177812745Y-114902943D01*
X177722037Y-114884900D01*
X177600163Y-114884900D01*
X177480632Y-114908676D01*
X177368035Y-114955315D01*
X177266702Y-115023024D01*
X177180524Y-115109202D01*
X177112815Y-115210535D01*
X177066176Y-115323132D01*
X177042400Y-115442663D01*
X177042400Y-115564537D01*
X177066176Y-115684068D01*
X177112815Y-115796665D01*
X177180524Y-115897998D01*
X177266702Y-115984176D01*
X177368035Y-116051885D01*
X177480632Y-116098524D01*
X177600163Y-116122300D01*
X177722037Y-116122300D01*
X177841568Y-116098524D01*
X177954165Y-116051885D01*
X178055498Y-115984176D01*
X178141676Y-115897998D01*
X178209385Y-115796665D01*
X178256024Y-115684068D01*
X178279800Y-115564537D01*
X178279800Y-115442663D01*
X178261757Y-115351955D01*
X178514577Y-115099136D01*
X178526693Y-115089193D01*
X178566369Y-115040847D01*
X178595851Y-114985690D01*
X178614006Y-114925841D01*
X178618600Y-114879196D01*
X178618600Y-114879195D01*
X178620136Y-114863600D01*
X178618600Y-114848004D01*
X178618600Y-114475021D01*
X178751100Y-114475021D01*
X178788444Y-114471343D01*
X178824354Y-114460450D01*
X178857448Y-114442761D01*
X178886455Y-114418955D01*
X178910261Y-114389948D01*
X178927950Y-114356854D01*
X178938843Y-114320944D01*
X178942521Y-114283600D01*
X178942521Y-113121699D01*
X179159679Y-113121699D01*
X179159679Y-114283600D01*
X179163357Y-114320944D01*
X179174250Y-114356854D01*
X179191939Y-114389948D01*
X179215745Y-114418955D01*
X179244752Y-114442761D01*
X179277846Y-114460450D01*
X179313756Y-114471343D01*
X179351100Y-114475021D01*
X180251100Y-114475021D01*
X180288444Y-114471343D01*
X180324354Y-114460450D01*
X180357448Y-114442761D01*
X180386455Y-114418955D01*
X180410261Y-114389948D01*
X180427950Y-114356854D01*
X180438843Y-114320944D01*
X180442521Y-114283600D01*
X180442521Y-113083600D01*
X180438843Y-113046256D01*
X180427950Y-113010346D01*
X180410261Y-112977252D01*
X180386455Y-112948245D01*
X180357448Y-112924439D01*
X180324354Y-112906750D01*
X180288444Y-112895857D01*
X180251100Y-112892179D01*
X179878363Y-112892179D01*
X179580250Y-112594067D01*
X179570370Y-112582028D01*
X179522329Y-112542602D01*
X179467520Y-112513305D01*
X179408048Y-112495265D01*
X179361692Y-112490699D01*
X179361681Y-112490699D01*
X179346199Y-112489174D01*
X179330717Y-112490699D01*
X175076421Y-112490699D01*
X175076421Y-112283600D01*
X175072743Y-112246256D01*
X175061850Y-112210346D01*
X175044161Y-112177252D01*
X175020355Y-112148245D01*
X174991348Y-112124439D01*
X174958254Y-112106750D01*
X174922344Y-112095857D01*
X174885000Y-112092179D01*
X173235000Y-112092179D01*
X173197656Y-112095857D01*
X173161746Y-112106750D01*
X173128652Y-112124439D01*
X173099645Y-112148245D01*
X173075839Y-112177252D01*
X173058150Y-112210346D01*
X173047257Y-112246256D01*
X173043579Y-112283600D01*
X173043579Y-112564500D01*
X172603294Y-112564500D01*
X172550576Y-112485602D01*
X172464398Y-112399424D01*
X172363065Y-112331715D01*
X172250468Y-112285076D01*
X172130937Y-112261300D01*
X172009063Y-112261300D01*
X171889532Y-112285076D01*
X171776935Y-112331715D01*
X171675602Y-112399424D01*
X171589424Y-112485602D01*
X171521715Y-112586935D01*
X171475076Y-112699532D01*
X171451300Y-112819063D01*
X146197800Y-112819063D01*
X146197800Y-109083600D01*
X177659679Y-109083600D01*
X177659679Y-110283600D01*
X177663357Y-110320944D01*
X177674250Y-110356854D01*
X177691939Y-110389948D01*
X177715745Y-110418955D01*
X177744752Y-110442761D01*
X177777846Y-110460450D01*
X177813756Y-110471343D01*
X177851100Y-110475021D01*
X178751100Y-110475021D01*
X178788444Y-110471343D01*
X178824354Y-110460450D01*
X178857448Y-110442761D01*
X178886455Y-110418955D01*
X178910261Y-110389948D01*
X178927950Y-110356854D01*
X178938843Y-110320944D01*
X178942521Y-110283600D01*
X178942521Y-109083600D01*
X179159679Y-109083600D01*
X179159679Y-110283600D01*
X179163357Y-110320944D01*
X179174250Y-110356854D01*
X179191939Y-110389948D01*
X179215745Y-110418955D01*
X179244752Y-110442761D01*
X179277846Y-110460450D01*
X179313756Y-110471343D01*
X179351100Y-110475021D01*
X180251100Y-110475021D01*
X180288444Y-110471343D01*
X180324354Y-110460450D01*
X180357448Y-110442761D01*
X180386455Y-110418955D01*
X180410261Y-110389948D01*
X180427950Y-110356854D01*
X180438843Y-110320944D01*
X180442521Y-110283600D01*
X180442521Y-109083600D01*
X180438843Y-109046256D01*
X180427950Y-109010346D01*
X180410261Y-108977252D01*
X180386455Y-108948245D01*
X180357448Y-108924439D01*
X180324354Y-108906750D01*
X180288444Y-108895857D01*
X180251100Y-108892179D01*
X179351100Y-108892179D01*
X179313756Y-108895857D01*
X179277846Y-108906750D01*
X179244752Y-108924439D01*
X179215745Y-108948245D01*
X179191939Y-108977252D01*
X179174250Y-109010346D01*
X179163357Y-109046256D01*
X179159679Y-109083600D01*
X178942521Y-109083600D01*
X178938843Y-109046256D01*
X178927950Y-109010346D01*
X178910261Y-108977252D01*
X178886455Y-108948245D01*
X178857448Y-108924439D01*
X178824354Y-108906750D01*
X178788444Y-108895857D01*
X178751100Y-108892179D01*
X177851100Y-108892179D01*
X177813756Y-108895857D01*
X177777846Y-108906750D01*
X177744752Y-108924439D01*
X177715745Y-108948245D01*
X177691939Y-108977252D01*
X177674250Y-109010346D01*
X177663357Y-109046256D01*
X177659679Y-109083600D01*
X146197800Y-109083600D01*
X146197800Y-105469063D01*
X157521300Y-105469063D01*
X157521300Y-105590937D01*
X157545076Y-105710468D01*
X157591715Y-105823065D01*
X157659424Y-105924398D01*
X157745602Y-106010576D01*
X157846935Y-106078285D01*
X157959532Y-106124924D01*
X158079063Y-106148700D01*
X158200937Y-106148700D01*
X158320468Y-106124924D01*
X158433065Y-106078285D01*
X158534398Y-106010576D01*
X158620576Y-105924398D01*
X158688285Y-105823065D01*
X158734924Y-105710468D01*
X158758700Y-105590937D01*
X158758700Y-105469063D01*
X158734924Y-105349532D01*
X158688285Y-105236935D01*
X158620576Y-105135602D01*
X158534398Y-105049424D01*
X158476000Y-105010403D01*
X158476000Y-104330424D01*
X171056600Y-104330424D01*
X171056600Y-104496776D01*
X171089054Y-104659932D01*
X171152714Y-104813621D01*
X171245134Y-104951937D01*
X171362763Y-105069566D01*
X171501079Y-105161986D01*
X171654768Y-105225646D01*
X171817924Y-105258100D01*
X171984276Y-105258100D01*
X172147432Y-105225646D01*
X172301121Y-105161986D01*
X172439437Y-105069566D01*
X172557066Y-104951937D01*
X172649486Y-104813621D01*
X172713146Y-104659932D01*
X172745600Y-104496776D01*
X172745600Y-104330424D01*
X173556600Y-104330424D01*
X173556600Y-104496776D01*
X173589054Y-104659932D01*
X173652714Y-104813621D01*
X173745134Y-104951937D01*
X173862763Y-105069566D01*
X174001079Y-105161986D01*
X174154768Y-105225646D01*
X174317924Y-105258100D01*
X174484276Y-105258100D01*
X174647432Y-105225646D01*
X174801121Y-105161986D01*
X174939437Y-105069566D01*
X175057066Y-104951937D01*
X175149486Y-104813621D01*
X175213146Y-104659932D01*
X175245600Y-104496776D01*
X175245600Y-104330424D01*
X176056600Y-104330424D01*
X176056600Y-104496776D01*
X176089054Y-104659932D01*
X176152714Y-104813621D01*
X176245134Y-104951937D01*
X176362763Y-105069566D01*
X176501079Y-105161986D01*
X176654768Y-105225646D01*
X176817924Y-105258100D01*
X176984276Y-105258100D01*
X177147432Y-105225646D01*
X177301121Y-105161986D01*
X177439437Y-105069566D01*
X177557066Y-104951937D01*
X177649486Y-104813621D01*
X177713146Y-104659932D01*
X177745600Y-104496776D01*
X177745600Y-104330424D01*
X177713146Y-104167268D01*
X177649486Y-104013579D01*
X177557066Y-103875263D01*
X177439437Y-103757634D01*
X177301121Y-103665214D01*
X177147432Y-103601554D01*
X176984276Y-103569100D01*
X176817924Y-103569100D01*
X176654768Y-103601554D01*
X176501079Y-103665214D01*
X176362763Y-103757634D01*
X176245134Y-103875263D01*
X176152714Y-104013579D01*
X176089054Y-104167268D01*
X176056600Y-104330424D01*
X175245600Y-104330424D01*
X175213146Y-104167268D01*
X175149486Y-104013579D01*
X175057066Y-103875263D01*
X174939437Y-103757634D01*
X174801121Y-103665214D01*
X174647432Y-103601554D01*
X174484276Y-103569100D01*
X174317924Y-103569100D01*
X174154768Y-103601554D01*
X174001079Y-103665214D01*
X173862763Y-103757634D01*
X173745134Y-103875263D01*
X173652714Y-104013579D01*
X173589054Y-104167268D01*
X173556600Y-104330424D01*
X172745600Y-104330424D01*
X172713146Y-104167268D01*
X172649486Y-104013579D01*
X172557066Y-103875263D01*
X172439437Y-103757634D01*
X172301121Y-103665214D01*
X172147432Y-103601554D01*
X171984276Y-103569100D01*
X171817924Y-103569100D01*
X171654768Y-103601554D01*
X171501079Y-103665214D01*
X171362763Y-103757634D01*
X171245134Y-103875263D01*
X171152714Y-104013579D01*
X171089054Y-104167268D01*
X171056600Y-104330424D01*
X158476000Y-104330424D01*
X158476000Y-102670091D01*
X158554898Y-102617373D01*
X158641076Y-102531195D01*
X158708785Y-102429862D01*
X158755424Y-102317265D01*
X158779200Y-102197734D01*
X158779200Y-102075860D01*
X158755424Y-101956329D01*
X158708785Y-101843732D01*
X158641076Y-101742399D01*
X158554898Y-101656221D01*
X158453565Y-101588512D01*
X158340968Y-101541873D01*
X158221437Y-101518097D01*
X158099563Y-101518097D01*
X157980032Y-101541873D01*
X157867435Y-101588512D01*
X157766102Y-101656221D01*
X157679924Y-101742399D01*
X157612215Y-101843732D01*
X157565576Y-101956329D01*
X157541800Y-102075860D01*
X157541800Y-102197734D01*
X157565576Y-102317265D01*
X157612215Y-102429862D01*
X157679924Y-102531195D01*
X157766102Y-102617373D01*
X157845000Y-102670091D01*
X157845001Y-104983007D01*
X157745602Y-105049424D01*
X157659424Y-105135602D01*
X157591715Y-105236935D01*
X157545076Y-105349532D01*
X157521300Y-105469063D01*
X146197800Y-105469063D01*
X146197800Y-102122663D01*
X153212400Y-102122663D01*
X153212400Y-102244537D01*
X153236176Y-102364068D01*
X153282815Y-102476665D01*
X153350524Y-102577998D01*
X153436702Y-102664176D01*
X153515600Y-102716895D01*
X153515601Y-103475608D01*
X153514075Y-103491100D01*
X153520167Y-103552948D01*
X153538206Y-103612420D01*
X153538207Y-103612421D01*
X153567504Y-103667230D01*
X153606930Y-103715271D01*
X153618964Y-103725147D01*
X154499812Y-104605996D01*
X154481300Y-104699063D01*
X154481300Y-104820937D01*
X154505076Y-104940468D01*
X154551715Y-105053065D01*
X154619424Y-105154398D01*
X154705602Y-105240576D01*
X154806935Y-105308285D01*
X154919532Y-105354924D01*
X155039063Y-105378700D01*
X155160937Y-105378700D01*
X155280468Y-105354924D01*
X155393065Y-105308285D01*
X155494398Y-105240576D01*
X155580576Y-105154398D01*
X155648285Y-105053065D01*
X155694924Y-104940468D01*
X155718700Y-104820937D01*
X155718700Y-104699063D01*
X155694924Y-104579532D01*
X155648285Y-104466935D01*
X155580576Y-104365602D01*
X155494398Y-104279424D01*
X155393065Y-104211715D01*
X155280468Y-104165076D01*
X155160937Y-104141300D01*
X155039063Y-104141300D01*
X154945996Y-104159812D01*
X154146600Y-103360417D01*
X154146600Y-102716894D01*
X154225498Y-102664176D01*
X154311676Y-102577998D01*
X154379385Y-102476665D01*
X154426024Y-102364068D01*
X154449800Y-102244537D01*
X154449800Y-102122663D01*
X154426024Y-102003132D01*
X154379385Y-101890535D01*
X154311676Y-101789202D01*
X154225498Y-101703024D01*
X154124165Y-101635315D01*
X154011568Y-101588676D01*
X153892037Y-101564900D01*
X153770163Y-101564900D01*
X153650632Y-101588676D01*
X153538035Y-101635315D01*
X153436702Y-101703024D01*
X153350524Y-101789202D01*
X153282815Y-101890535D01*
X153236176Y-102003132D01*
X153212400Y-102122663D01*
X146197800Y-102122663D01*
X146197800Y-99227400D01*
X146194140Y-99190235D01*
X146183299Y-99154499D01*
X146165695Y-99121564D01*
X146142004Y-99092696D01*
X146113136Y-99069005D01*
X146080201Y-99051401D01*
X146044465Y-99040560D01*
X146007300Y-99036900D01*
X131474900Y-99036900D01*
X131437735Y-99040560D01*
X131401999Y-99051401D01*
X131391100Y-99057227D01*
X131380201Y-99051401D01*
X131344465Y-99040560D01*
X131307300Y-99036900D01*
X115724201Y-99036900D01*
X115724201Y-97865863D01*
X147202400Y-97865863D01*
X147202400Y-97987737D01*
X147226176Y-98107268D01*
X147272815Y-98219865D01*
X147340524Y-98321198D01*
X147426702Y-98407376D01*
X147528035Y-98475085D01*
X147640632Y-98521724D01*
X147760163Y-98545500D01*
X147882037Y-98545500D01*
X147972745Y-98527457D01*
X149546833Y-100101546D01*
X149546176Y-100103132D01*
X149522400Y-100222663D01*
X149522400Y-100344537D01*
X149546176Y-100464068D01*
X149592815Y-100576665D01*
X149660524Y-100677998D01*
X149746702Y-100764176D01*
X149848035Y-100831885D01*
X149960632Y-100878524D01*
X150080163Y-100902300D01*
X150202037Y-100902300D01*
X150321568Y-100878524D01*
X150434165Y-100831885D01*
X150535498Y-100764176D01*
X150621676Y-100677998D01*
X150689385Y-100576665D01*
X150736024Y-100464068D01*
X150759800Y-100344537D01*
X150759800Y-100222663D01*
X150736024Y-100103132D01*
X150689385Y-99990535D01*
X150681720Y-99979063D01*
X165571300Y-99979063D01*
X165571300Y-100100937D01*
X165595076Y-100220468D01*
X165641715Y-100333065D01*
X165709424Y-100434398D01*
X165795602Y-100520576D01*
X165896935Y-100588285D01*
X166009532Y-100634924D01*
X166129063Y-100658700D01*
X166250937Y-100658700D01*
X166370468Y-100634924D01*
X166483065Y-100588285D01*
X166584398Y-100520576D01*
X166670576Y-100434398D01*
X166723294Y-100355500D01*
X168163342Y-100355500D01*
X168229424Y-100454398D01*
X168315602Y-100540576D01*
X168416935Y-100608285D01*
X168529532Y-100654924D01*
X168649063Y-100678700D01*
X168770937Y-100678700D01*
X168864005Y-100660188D01*
X169171945Y-100968129D01*
X169172666Y-100975449D01*
X169190706Y-101034921D01*
X169220003Y-101089730D01*
X169259429Y-101137771D01*
X169307470Y-101177197D01*
X169362279Y-101206494D01*
X169421751Y-101224534D01*
X169429071Y-101225255D01*
X169635953Y-101432137D01*
X169645829Y-101444171D01*
X169693870Y-101483597D01*
X169748679Y-101512894D01*
X169808151Y-101530934D01*
X169854507Y-101535500D01*
X169854515Y-101535500D01*
X169870000Y-101537025D01*
X169885485Y-101535500D01*
X169936889Y-101535500D01*
X169941939Y-101544948D01*
X169965745Y-101573955D01*
X169994752Y-101597761D01*
X170027846Y-101615450D01*
X170063756Y-101626343D01*
X170101100Y-101630021D01*
X171701100Y-101630021D01*
X171738444Y-101626343D01*
X171774354Y-101615450D01*
X171807448Y-101597761D01*
X171836455Y-101573955D01*
X171860261Y-101544948D01*
X171862318Y-101541100D01*
X176975195Y-101541100D01*
X176985745Y-101553955D01*
X177014752Y-101577761D01*
X177047846Y-101595450D01*
X177083756Y-101606343D01*
X177121100Y-101610021D01*
X178721100Y-101610021D01*
X178758444Y-101606343D01*
X178794354Y-101595450D01*
X178827448Y-101577761D01*
X178856455Y-101553955D01*
X178880261Y-101524948D01*
X178897950Y-101491854D01*
X178908843Y-101455944D01*
X178912521Y-101418600D01*
X178912521Y-100368600D01*
X178908843Y-100331256D01*
X178897950Y-100295346D01*
X178880261Y-100262252D01*
X178856455Y-100233245D01*
X178827448Y-100209439D01*
X178794354Y-100191750D01*
X178758444Y-100180857D01*
X178721100Y-100177179D01*
X177121100Y-100177179D01*
X177083756Y-100180857D01*
X177047846Y-100191750D01*
X177014752Y-100209439D01*
X176985745Y-100233245D01*
X176961939Y-100262252D01*
X176944250Y-100295346D01*
X176933357Y-100331256D01*
X176929679Y-100368600D01*
X176929679Y-100906100D01*
X176178179Y-100906100D01*
X176188843Y-100870944D01*
X176192521Y-100833600D01*
X176192521Y-100053600D01*
X176188843Y-100016256D01*
X176177950Y-99980346D01*
X176160261Y-99947252D01*
X176136455Y-99918245D01*
X176107448Y-99894439D01*
X176074354Y-99876750D01*
X176038444Y-99865857D01*
X176001100Y-99862179D01*
X175708600Y-99862179D01*
X175708600Y-99609195D01*
X175710136Y-99593599D01*
X175704006Y-99531358D01*
X175685851Y-99471510D01*
X175677749Y-99456353D01*
X175656369Y-99416353D01*
X175616693Y-99368007D01*
X175604575Y-99358063D01*
X175430023Y-99183511D01*
X175416024Y-99113132D01*
X175369385Y-99000535D01*
X175301676Y-98899202D01*
X175215498Y-98813024D01*
X175114165Y-98745315D01*
X175001568Y-98698676D01*
X174882037Y-98674900D01*
X174760163Y-98674900D01*
X174640632Y-98698676D01*
X174528035Y-98745315D01*
X174426702Y-98813024D01*
X174340524Y-98899202D01*
X174289142Y-98976100D01*
X173746696Y-98976100D01*
X173731100Y-98974564D01*
X173715504Y-98976100D01*
X173668859Y-98980694D01*
X173609010Y-98998849D01*
X173553853Y-99028331D01*
X173505507Y-99068007D01*
X173495563Y-99080125D01*
X173177625Y-99398063D01*
X173165508Y-99408007D01*
X173125832Y-99456353D01*
X173116363Y-99474068D01*
X173096349Y-99511511D01*
X173078194Y-99571360D01*
X173072064Y-99633600D01*
X173073601Y-99649205D01*
X173073601Y-99842179D01*
X172781100Y-99842179D01*
X172743756Y-99845857D01*
X172707846Y-99856750D01*
X172674752Y-99874439D01*
X172645745Y-99898245D01*
X172621939Y-99927252D01*
X172604250Y-99960346D01*
X172593357Y-99996256D01*
X172589679Y-100033600D01*
X172589679Y-100813600D01*
X172593357Y-100850944D01*
X172604250Y-100886854D01*
X172614537Y-100906100D01*
X171892521Y-100906100D01*
X171892521Y-100388600D01*
X171888843Y-100351256D01*
X171877950Y-100315346D01*
X171860261Y-100282252D01*
X171836455Y-100253245D01*
X171807448Y-100229439D01*
X171774354Y-100211750D01*
X171738444Y-100200857D01*
X171701100Y-100197179D01*
X170101100Y-100197179D01*
X170063756Y-100200857D01*
X170027846Y-100211750D01*
X169994752Y-100229439D01*
X169965745Y-100253245D01*
X169941939Y-100282252D01*
X169924250Y-100315346D01*
X169913357Y-100351256D01*
X169909679Y-100388600D01*
X169909679Y-100813495D01*
X169310188Y-100214005D01*
X169328700Y-100120937D01*
X169328700Y-99999063D01*
X169304924Y-99879532D01*
X169258285Y-99766935D01*
X169190576Y-99665602D01*
X169104398Y-99579424D01*
X169003065Y-99511715D01*
X168890468Y-99465076D01*
X168770937Y-99441300D01*
X168649063Y-99441300D01*
X168529532Y-99465076D01*
X168416935Y-99511715D01*
X168315602Y-99579424D01*
X168229424Y-99665602D01*
X168190069Y-99724500D01*
X166723294Y-99724500D01*
X166670576Y-99645602D01*
X166584398Y-99559424D01*
X166483065Y-99491715D01*
X166370468Y-99445076D01*
X166250937Y-99421300D01*
X166129063Y-99421300D01*
X166009532Y-99445076D01*
X165896935Y-99491715D01*
X165795602Y-99559424D01*
X165709424Y-99645602D01*
X165641715Y-99746935D01*
X165595076Y-99859532D01*
X165571300Y-99979063D01*
X150681720Y-99979063D01*
X150621676Y-99889202D01*
X150535498Y-99803024D01*
X150434165Y-99735315D01*
X150321568Y-99688676D01*
X150202037Y-99664900D01*
X150080163Y-99664900D01*
X150020150Y-99676837D01*
X148421757Y-98078445D01*
X148439800Y-97987737D01*
X148439800Y-97865863D01*
X148416024Y-97746332D01*
X148369385Y-97633735D01*
X148301676Y-97532402D01*
X148215498Y-97446224D01*
X148114165Y-97378515D01*
X148001568Y-97331876D01*
X147882037Y-97308100D01*
X147760163Y-97308100D01*
X147640632Y-97331876D01*
X147528035Y-97378515D01*
X147426702Y-97446224D01*
X147340524Y-97532402D01*
X147272815Y-97633735D01*
X147226176Y-97746332D01*
X147202400Y-97865863D01*
X115724201Y-97865863D01*
X115724201Y-95302663D01*
X164432400Y-95302663D01*
X164432400Y-95424537D01*
X164456176Y-95544068D01*
X164502815Y-95656665D01*
X164570524Y-95757998D01*
X164656702Y-95844176D01*
X164758035Y-95911885D01*
X164870632Y-95958524D01*
X164990163Y-95982300D01*
X165112037Y-95982300D01*
X165231568Y-95958524D01*
X165344165Y-95911885D01*
X165445498Y-95844176D01*
X165531676Y-95757998D01*
X165583058Y-95681100D01*
X166822460Y-95681100D01*
X166880524Y-95767998D01*
X166966702Y-95854176D01*
X167068035Y-95921885D01*
X167180632Y-95968524D01*
X167300163Y-95992300D01*
X167422037Y-95992300D01*
X167541568Y-95968524D01*
X167613811Y-95938600D01*
X169909679Y-95938600D01*
X169909679Y-96988600D01*
X169913357Y-97025944D01*
X169924250Y-97061854D01*
X169941939Y-97094948D01*
X169965745Y-97123955D01*
X169994752Y-97147761D01*
X170027846Y-97165450D01*
X170063756Y-97176343D01*
X170101100Y-97180021D01*
X171168701Y-97180021D01*
X171191991Y-97199134D01*
X171203853Y-97208869D01*
X171259010Y-97238351D01*
X171318859Y-97256506D01*
X171381100Y-97262637D01*
X171396703Y-97261100D01*
X172589679Y-97261100D01*
X172589679Y-97333600D01*
X172593357Y-97370944D01*
X172604250Y-97406854D01*
X172621939Y-97439948D01*
X172645745Y-97468955D01*
X172674752Y-97492761D01*
X172707846Y-97510450D01*
X172743756Y-97521343D01*
X172781100Y-97525021D01*
X173083601Y-97525021D01*
X173083601Y-97542673D01*
X173070725Y-97548006D01*
X172969392Y-97615715D01*
X172883214Y-97701893D01*
X172815505Y-97803226D01*
X172768866Y-97915823D01*
X172745090Y-98035354D01*
X172745090Y-98157228D01*
X172768866Y-98276759D01*
X172815505Y-98389356D01*
X172883214Y-98490689D01*
X172969392Y-98576867D01*
X173070725Y-98644576D01*
X173183322Y-98691215D01*
X173302853Y-98714991D01*
X173424727Y-98714991D01*
X173544258Y-98691215D01*
X173656855Y-98644576D01*
X173758188Y-98576867D01*
X173844366Y-98490689D01*
X173912075Y-98389356D01*
X173958714Y-98276759D01*
X173982490Y-98157228D01*
X173982490Y-98035354D01*
X173958714Y-97915823D01*
X173912075Y-97803226D01*
X173844366Y-97701893D01*
X173758188Y-97615715D01*
X173718600Y-97589263D01*
X173718600Y-97525021D01*
X174001100Y-97525021D01*
X174038444Y-97521343D01*
X174074354Y-97510450D01*
X174107448Y-97492761D01*
X174136455Y-97468955D01*
X174160261Y-97439948D01*
X174177950Y-97406854D01*
X174188843Y-97370944D01*
X174192521Y-97333600D01*
X174192521Y-96573600D01*
X174589679Y-96573600D01*
X174589679Y-97353600D01*
X174593357Y-97390944D01*
X174604250Y-97426854D01*
X174621939Y-97459948D01*
X174645745Y-97488955D01*
X174674752Y-97512761D01*
X174707846Y-97530450D01*
X174743756Y-97541343D01*
X174781100Y-97545021D01*
X176001100Y-97545021D01*
X176038444Y-97541343D01*
X176074354Y-97530450D01*
X176107448Y-97512761D01*
X176136455Y-97488955D01*
X176160261Y-97459948D01*
X176177950Y-97426854D01*
X176188843Y-97390944D01*
X176192521Y-97353600D01*
X176192521Y-97281100D01*
X177385504Y-97281100D01*
X177401100Y-97282636D01*
X177416696Y-97281100D01*
X177463341Y-97276506D01*
X177523190Y-97258351D01*
X177578347Y-97228869D01*
X177603601Y-97208144D01*
X177603601Y-97362099D01*
X177312745Y-97652956D01*
X177222037Y-97634913D01*
X177100163Y-97634913D01*
X176980632Y-97658689D01*
X176868035Y-97705328D01*
X176766702Y-97773037D01*
X176680524Y-97859215D01*
X176612815Y-97960548D01*
X176566176Y-98073145D01*
X176542400Y-98192676D01*
X176542400Y-98314550D01*
X176566176Y-98434081D01*
X176612815Y-98546678D01*
X176680524Y-98648011D01*
X176766702Y-98734189D01*
X176868035Y-98801898D01*
X176980632Y-98848537D01*
X177100163Y-98872313D01*
X177222037Y-98872313D01*
X177341568Y-98848537D01*
X177454165Y-98801898D01*
X177555498Y-98734189D01*
X177641676Y-98648011D01*
X177709385Y-98546678D01*
X177756024Y-98434081D01*
X177779800Y-98314550D01*
X177779800Y-98192676D01*
X177761757Y-98101968D01*
X178134576Y-97729150D01*
X178146693Y-97719206D01*
X178186369Y-97670860D01*
X178215851Y-97615703D01*
X178234006Y-97555854D01*
X178238600Y-97509209D01*
X178238600Y-97509207D01*
X178240136Y-97493614D01*
X178238600Y-97478021D01*
X178238600Y-97160021D01*
X178721100Y-97160021D01*
X178758444Y-97156343D01*
X178794354Y-97145450D01*
X178827448Y-97127761D01*
X178856455Y-97103955D01*
X178880261Y-97074948D01*
X178897950Y-97041854D01*
X178908843Y-97005944D01*
X178912521Y-96968600D01*
X178912521Y-95918600D01*
X178908843Y-95881256D01*
X178897950Y-95845346D01*
X178880261Y-95812252D01*
X178856455Y-95783245D01*
X178827448Y-95759439D01*
X178794354Y-95741750D01*
X178758444Y-95730857D01*
X178721100Y-95727179D01*
X177121100Y-95727179D01*
X177083756Y-95730857D01*
X177047846Y-95741750D01*
X177014752Y-95759439D01*
X176985745Y-95783245D01*
X176961939Y-95812252D01*
X176944250Y-95845346D01*
X176933357Y-95881256D01*
X176929679Y-95918600D01*
X176929679Y-96646100D01*
X176192521Y-96646100D01*
X176192521Y-96573600D01*
X176188843Y-96536256D01*
X176177950Y-96500346D01*
X176160261Y-96467252D01*
X176136455Y-96438245D01*
X176107448Y-96414439D01*
X176074354Y-96396750D01*
X176038444Y-96385857D01*
X176001100Y-96382179D01*
X174781100Y-96382179D01*
X174743756Y-96385857D01*
X174707846Y-96396750D01*
X174674752Y-96414439D01*
X174645745Y-96438245D01*
X174621939Y-96467252D01*
X174604250Y-96500346D01*
X174593357Y-96536256D01*
X174589679Y-96573600D01*
X174192521Y-96573600D01*
X174192521Y-96553600D01*
X174188843Y-96516256D01*
X174177950Y-96480346D01*
X174160261Y-96447252D01*
X174136455Y-96418245D01*
X174107448Y-96394439D01*
X174074354Y-96376750D01*
X174038444Y-96365857D01*
X174001100Y-96362179D01*
X172781100Y-96362179D01*
X172743756Y-96365857D01*
X172707846Y-96376750D01*
X172674752Y-96394439D01*
X172645745Y-96418245D01*
X172621939Y-96447252D01*
X172604250Y-96480346D01*
X172593357Y-96516256D01*
X172589679Y-96553600D01*
X172589679Y-96626100D01*
X171892521Y-96626100D01*
X171892521Y-95938600D01*
X171888843Y-95901256D01*
X171877950Y-95865346D01*
X171860261Y-95832252D01*
X171836455Y-95803245D01*
X171807448Y-95779439D01*
X171774354Y-95761750D01*
X171738444Y-95750857D01*
X171701100Y-95747179D01*
X170101100Y-95747179D01*
X170063756Y-95750857D01*
X170027846Y-95761750D01*
X169994752Y-95779439D01*
X169965745Y-95803245D01*
X169941939Y-95832252D01*
X169924250Y-95865346D01*
X169913357Y-95901256D01*
X169909679Y-95938600D01*
X167613811Y-95938600D01*
X167654165Y-95921885D01*
X167755498Y-95854176D01*
X167841676Y-95767998D01*
X167909385Y-95666665D01*
X167956024Y-95554068D01*
X167979800Y-95434537D01*
X167979800Y-95312663D01*
X167956024Y-95193132D01*
X167909385Y-95080535D01*
X167841676Y-94979202D01*
X167755498Y-94893024D01*
X167654165Y-94825315D01*
X167541568Y-94778676D01*
X167422037Y-94754900D01*
X167300163Y-94754900D01*
X167180632Y-94778676D01*
X167068035Y-94825315D01*
X166966702Y-94893024D01*
X166880524Y-94979202D01*
X166835824Y-95046100D01*
X165583058Y-95046100D01*
X165531676Y-94969202D01*
X165445498Y-94883024D01*
X165344165Y-94815315D01*
X165231568Y-94768676D01*
X165112037Y-94744900D01*
X164990163Y-94744900D01*
X164870632Y-94768676D01*
X164758035Y-94815315D01*
X164656702Y-94883024D01*
X164570524Y-94969202D01*
X164502815Y-95070535D01*
X164456176Y-95183132D01*
X164432400Y-95302663D01*
X115724201Y-95302663D01*
X115724201Y-84543450D01*
X163768464Y-84543450D01*
X163770001Y-84559055D01*
X163770000Y-85983392D01*
X163768464Y-85998988D01*
X163770000Y-86014583D01*
X163774594Y-86061228D01*
X163792749Y-86121077D01*
X163822231Y-86176234D01*
X163861907Y-86224581D01*
X163874030Y-86234530D01*
X170303688Y-92664188D01*
X170273724Y-92694152D01*
X170206015Y-92795485D01*
X170159376Y-92908082D01*
X170135600Y-93027613D01*
X170135600Y-93149487D01*
X170159376Y-93269018D01*
X170206015Y-93381615D01*
X170273724Y-93482948D01*
X170359902Y-93569126D01*
X170461235Y-93636835D01*
X170573832Y-93683474D01*
X170693363Y-93707250D01*
X170815237Y-93707250D01*
X170934768Y-93683474D01*
X171047365Y-93636835D01*
X171148698Y-93569126D01*
X171234876Y-93482948D01*
X171302585Y-93381615D01*
X171349224Y-93269018D01*
X171373000Y-93149487D01*
X171373000Y-93027613D01*
X171349224Y-92908082D01*
X171302585Y-92795485D01*
X171234876Y-92694152D01*
X171148698Y-92607974D01*
X171047365Y-92540265D01*
X171047174Y-92540186D01*
X171019569Y-92488541D01*
X170991487Y-92454323D01*
X170979893Y-92440195D01*
X170967776Y-92430251D01*
X164405000Y-85867476D01*
X164405000Y-85312601D01*
X164471775Y-85379376D01*
X164564919Y-85441614D01*
X164668416Y-85484483D01*
X164778288Y-85506338D01*
X164890312Y-85506338D01*
X165000184Y-85484483D01*
X165103681Y-85441614D01*
X165196825Y-85379376D01*
X165276038Y-85300163D01*
X165338276Y-85207019D01*
X165339386Y-85204338D01*
X166534667Y-85204338D01*
X172694400Y-91364071D01*
X172694400Y-91408579D01*
X172620000Y-91408579D01*
X172582656Y-91412257D01*
X172546746Y-91423150D01*
X172513652Y-91440839D01*
X172484645Y-91464645D01*
X172460839Y-91493652D01*
X172443150Y-91526746D01*
X172432257Y-91562656D01*
X172428579Y-91600000D01*
X172428579Y-92600000D01*
X172432257Y-92637344D01*
X172443150Y-92673254D01*
X172460839Y-92706348D01*
X172484645Y-92735355D01*
X172513652Y-92759161D01*
X172546746Y-92776850D01*
X172582656Y-92787743D01*
X172620000Y-92791421D01*
X172753300Y-92791421D01*
X172753301Y-92937179D01*
X172021100Y-92937179D01*
X171983756Y-92940857D01*
X171947846Y-92951750D01*
X171914752Y-92969439D01*
X171885745Y-92993245D01*
X171861939Y-93022252D01*
X171844250Y-93055346D01*
X171833357Y-93091256D01*
X171829679Y-93128600D01*
X171829679Y-94778600D01*
X171833357Y-94815944D01*
X171844250Y-94851854D01*
X171861939Y-94884948D01*
X171885745Y-94913955D01*
X171914752Y-94937761D01*
X171947846Y-94955450D01*
X171983756Y-94966343D01*
X172021100Y-94970021D01*
X173421100Y-94970021D01*
X173458444Y-94966343D01*
X173494354Y-94955450D01*
X173527448Y-94937761D01*
X173556455Y-94913955D01*
X173580261Y-94884948D01*
X173597950Y-94851854D01*
X173608843Y-94815944D01*
X173612521Y-94778600D01*
X173612521Y-93128600D01*
X173608843Y-93091256D01*
X173597950Y-93055346D01*
X173580261Y-93022252D01*
X173556455Y-92993245D01*
X173527448Y-92969439D01*
X173494354Y-92951750D01*
X173458444Y-92940857D01*
X173421100Y-92937179D01*
X173286700Y-92937179D01*
X173286700Y-92791421D01*
X173420000Y-92791421D01*
X173457344Y-92787743D01*
X173493254Y-92776850D01*
X173526348Y-92759161D01*
X173555355Y-92735355D01*
X173579161Y-92706348D01*
X173596850Y-92673254D01*
X173607743Y-92637344D01*
X173611421Y-92600000D01*
X173611421Y-92480073D01*
X174190668Y-93059321D01*
X174199020Y-93069498D01*
X174224135Y-93090109D01*
X174239629Y-93102825D01*
X174239631Y-93102826D01*
X174285963Y-93127590D01*
X174336236Y-93142841D01*
X174375420Y-93146700D01*
X174375421Y-93146700D01*
X174388517Y-93147990D01*
X174401613Y-93146700D01*
X174429679Y-93146700D01*
X174429679Y-94778600D01*
X174433357Y-94815944D01*
X174444250Y-94851854D01*
X174461939Y-94884948D01*
X174485745Y-94913955D01*
X174514752Y-94937761D01*
X174547846Y-94955450D01*
X174583756Y-94966343D01*
X174621100Y-94970021D01*
X176021100Y-94970021D01*
X176058444Y-94966343D01*
X176094354Y-94955450D01*
X176127448Y-94937761D01*
X176136100Y-94930660D01*
X176144752Y-94937761D01*
X176177846Y-94955450D01*
X176213756Y-94966343D01*
X176251100Y-94970021D01*
X177518508Y-94970021D01*
X178165563Y-95617076D01*
X178175507Y-95629193D01*
X178208982Y-95656665D01*
X178223853Y-95668869D01*
X178279010Y-95698351D01*
X178338859Y-95716506D01*
X178401100Y-95722636D01*
X178416696Y-95721100D01*
X178819588Y-95721100D01*
X179493600Y-96395113D01*
X179493601Y-107084900D01*
X179440163Y-107084900D01*
X179320632Y-107108676D01*
X179208035Y-107155315D01*
X179106702Y-107223024D01*
X179020524Y-107309202D01*
X178952815Y-107410535D01*
X178906176Y-107523132D01*
X178882400Y-107642663D01*
X178882400Y-107764537D01*
X178906176Y-107884068D01*
X178952815Y-107996665D01*
X179020524Y-108097998D01*
X179106702Y-108184176D01*
X179208035Y-108251885D01*
X179320632Y-108298524D01*
X179440163Y-108322300D01*
X179562037Y-108322300D01*
X179681568Y-108298524D01*
X179794165Y-108251885D01*
X179895498Y-108184176D01*
X179981676Y-108097998D01*
X180049385Y-107996665D01*
X180096024Y-107884068D01*
X180119800Y-107764537D01*
X180119800Y-107642663D01*
X180097610Y-107531107D01*
X180105851Y-107515690D01*
X180124006Y-107455841D01*
X180128600Y-107409196D01*
X180128600Y-107409194D01*
X180130136Y-107393601D01*
X180128600Y-107378008D01*
X180128600Y-96392283D01*
X180740643Y-95780242D01*
X180752672Y-95770370D01*
X180762543Y-95758342D01*
X180762548Y-95758337D01*
X180792098Y-95722329D01*
X180821395Y-95667520D01*
X180830086Y-95638868D01*
X180839435Y-95608048D01*
X180844001Y-95561692D01*
X180844001Y-95561682D01*
X180845526Y-95546200D01*
X180844001Y-95530717D01*
X180844001Y-91456483D01*
X180845526Y-91441000D01*
X180844001Y-91425518D01*
X180844001Y-91425508D01*
X180839435Y-91379152D01*
X180821395Y-91319680D01*
X180792098Y-91264871D01*
X180779894Y-91250000D01*
X180762548Y-91228863D01*
X180762543Y-91228858D01*
X180752672Y-91216830D01*
X180740644Y-91206959D01*
X180139587Y-90605904D01*
X180116693Y-90578007D01*
X180068347Y-90538331D01*
X180013190Y-90508849D01*
X179953341Y-90490694D01*
X179906696Y-90486100D01*
X179855504Y-90486100D01*
X179835197Y-90488100D01*
X178044284Y-90488100D01*
X177947605Y-90391421D01*
X178611100Y-90391421D01*
X178648444Y-90387743D01*
X178684354Y-90376850D01*
X178717448Y-90359161D01*
X178746455Y-90335355D01*
X178770261Y-90306348D01*
X178787950Y-90273254D01*
X178798843Y-90237344D01*
X178802521Y-90200000D01*
X178802521Y-89200000D01*
X178798843Y-89162656D01*
X178787950Y-89126746D01*
X178770261Y-89093652D01*
X178746455Y-89064645D01*
X178717448Y-89040839D01*
X178684354Y-89023150D01*
X178648444Y-89012257D01*
X178611100Y-89008579D01*
X178526600Y-89008579D01*
X178526600Y-86978600D01*
X178629679Y-86978600D01*
X178629679Y-88628600D01*
X178633357Y-88665944D01*
X178644250Y-88701854D01*
X178661939Y-88734948D01*
X178685745Y-88763955D01*
X178714752Y-88787761D01*
X178747846Y-88805450D01*
X178783756Y-88816343D01*
X178821100Y-88820021D01*
X180221100Y-88820021D01*
X180258444Y-88816343D01*
X180294354Y-88805450D01*
X180327448Y-88787761D01*
X180356455Y-88763955D01*
X180380261Y-88734948D01*
X180397950Y-88701854D01*
X180408843Y-88665944D01*
X180412521Y-88628600D01*
X180412521Y-86978600D01*
X180408843Y-86941256D01*
X180397950Y-86905346D01*
X180380261Y-86872252D01*
X180356455Y-86843245D01*
X180327448Y-86819439D01*
X180294354Y-86801750D01*
X180258444Y-86790857D01*
X180221100Y-86787179D01*
X180168600Y-86787179D01*
X180168600Y-86445021D01*
X180251100Y-86445021D01*
X180288444Y-86441343D01*
X180324354Y-86430450D01*
X180357448Y-86412761D01*
X180386455Y-86388955D01*
X180410261Y-86359948D01*
X180427950Y-86326854D01*
X180438843Y-86290944D01*
X180442521Y-86253600D01*
X180442521Y-85453600D01*
X180438843Y-85416256D01*
X180427950Y-85380346D01*
X180410261Y-85347252D01*
X180386455Y-85318245D01*
X180357448Y-85294439D01*
X180324354Y-85276750D01*
X180288444Y-85265857D01*
X180251100Y-85262179D01*
X179451100Y-85262179D01*
X179413756Y-85265857D01*
X179377846Y-85276750D01*
X179344752Y-85294439D01*
X179315745Y-85318245D01*
X179291939Y-85347252D01*
X179274250Y-85380346D01*
X179263357Y-85416256D01*
X179259679Y-85453600D01*
X179259679Y-86253600D01*
X179263357Y-86290944D01*
X179274250Y-86326854D01*
X179291939Y-86359948D01*
X179315745Y-86388955D01*
X179344752Y-86412761D01*
X179377846Y-86430450D01*
X179413756Y-86441343D01*
X179451100Y-86445021D01*
X179533601Y-86445021D01*
X179533600Y-86787179D01*
X178821100Y-86787179D01*
X178783756Y-86790857D01*
X178747846Y-86801750D01*
X178714752Y-86819439D01*
X178685745Y-86843245D01*
X178661939Y-86872252D01*
X178644250Y-86905346D01*
X178633357Y-86941256D01*
X178629679Y-86978600D01*
X178526600Y-86978600D01*
X178526600Y-86445021D01*
X178601100Y-86445021D01*
X178638444Y-86441343D01*
X178674354Y-86430450D01*
X178707448Y-86412761D01*
X178736455Y-86388955D01*
X178760261Y-86359948D01*
X178777950Y-86326854D01*
X178788843Y-86290944D01*
X178792521Y-86253600D01*
X178792521Y-85453600D01*
X178788843Y-85416256D01*
X178777950Y-85380346D01*
X178760261Y-85347252D01*
X178736455Y-85318245D01*
X178707448Y-85294439D01*
X178674354Y-85276750D01*
X178638444Y-85265857D01*
X178601100Y-85262179D01*
X177998651Y-85262179D01*
X178053976Y-85179381D01*
X178096845Y-85075884D01*
X178118700Y-84966012D01*
X178118700Y-84853988D01*
X178096845Y-84744116D01*
X178053976Y-84640619D01*
X177991738Y-84547475D01*
X177973164Y-84528901D01*
X179209403Y-84528901D01*
X179222499Y-84530191D01*
X179235595Y-84528901D01*
X179235597Y-84528901D01*
X179274781Y-84525042D01*
X179325054Y-84509791D01*
X179371386Y-84485027D01*
X179411997Y-84451699D01*
X179420353Y-84441517D01*
X179636849Y-84225021D01*
X180251100Y-84225021D01*
X180288444Y-84221343D01*
X180324354Y-84210450D01*
X180357448Y-84192761D01*
X180386455Y-84168955D01*
X180410261Y-84139948D01*
X180427950Y-84106854D01*
X180438843Y-84070944D01*
X180442521Y-84033600D01*
X180442521Y-83233600D01*
X180438843Y-83196256D01*
X180427950Y-83160346D01*
X180410261Y-83127252D01*
X180386455Y-83098245D01*
X180357448Y-83074439D01*
X180324354Y-83056750D01*
X180288444Y-83045857D01*
X180251100Y-83042179D01*
X179451100Y-83042179D01*
X179413756Y-83045857D01*
X179377846Y-83056750D01*
X179344752Y-83074439D01*
X179315745Y-83098245D01*
X179291939Y-83127252D01*
X179274250Y-83160346D01*
X179263357Y-83196256D01*
X179259679Y-83233600D01*
X179259679Y-83847851D01*
X179112029Y-83995501D01*
X178792521Y-83995501D01*
X178792521Y-83233600D01*
X178788843Y-83196256D01*
X178777950Y-83160346D01*
X178760261Y-83127252D01*
X178736455Y-83098245D01*
X178707448Y-83074439D01*
X178674354Y-83056750D01*
X178638444Y-83045857D01*
X178601100Y-83042179D01*
X177801100Y-83042179D01*
X177763756Y-83045857D01*
X177727846Y-83056750D01*
X177694752Y-83074439D01*
X177665745Y-83098245D01*
X177641939Y-83127252D01*
X177624250Y-83160346D01*
X177613357Y-83196256D01*
X177609679Y-83233600D01*
X177609679Y-83316100D01*
X177502521Y-83316100D01*
X177502521Y-83233600D01*
X177498843Y-83196256D01*
X177487950Y-83160346D01*
X177470261Y-83127252D01*
X177446455Y-83098245D01*
X177417448Y-83074439D01*
X177384354Y-83056750D01*
X177348444Y-83045857D01*
X177311100Y-83042179D01*
X176813313Y-83042179D01*
X176488634Y-82673518D01*
X176472293Y-82653607D01*
X176455882Y-82640139D01*
X176440384Y-82625685D01*
X176431782Y-82620361D01*
X176423947Y-82613931D01*
X176405226Y-82603924D01*
X176387204Y-82592770D01*
X176377726Y-82589225D01*
X176368790Y-82584449D01*
X176348486Y-82578290D01*
X176328625Y-82570862D01*
X176318632Y-82569234D01*
X176308941Y-82566294D01*
X176287830Y-82564215D01*
X176266897Y-82560804D01*
X176241184Y-82561700D01*
X174425960Y-82561700D01*
X174410367Y-82560164D01*
X174394774Y-82561700D01*
X174394772Y-82561700D01*
X174348127Y-82566294D01*
X174288278Y-82584449D01*
X174233121Y-82613931D01*
X174192608Y-82647179D01*
X172911100Y-82647179D01*
X172873756Y-82650857D01*
X172837846Y-82661750D01*
X172804752Y-82679439D01*
X172775745Y-82703245D01*
X172751939Y-82732252D01*
X172734250Y-82765346D01*
X172723357Y-82801256D01*
X172719679Y-82838600D01*
X172719679Y-84488600D01*
X172723357Y-84525944D01*
X172734250Y-84561854D01*
X172751939Y-84594948D01*
X172775745Y-84623955D01*
X172804752Y-84647761D01*
X172837846Y-84665450D01*
X172873756Y-84676343D01*
X172911100Y-84680021D01*
X174085666Y-84680021D01*
X172869741Y-85895947D01*
X172886650Y-85810937D01*
X172886650Y-85689063D01*
X172862874Y-85569532D01*
X172816235Y-85456935D01*
X172748526Y-85355602D01*
X172662348Y-85269424D01*
X172583450Y-85216706D01*
X172583450Y-82394694D01*
X172623065Y-82378285D01*
X172724398Y-82310576D01*
X172770823Y-82264151D01*
X172781939Y-82284948D01*
X172805745Y-82313955D01*
X172834752Y-82337761D01*
X172867846Y-82355450D01*
X172903756Y-82366343D01*
X172941100Y-82370021D01*
X174341100Y-82370021D01*
X174378444Y-82366343D01*
X174414354Y-82355450D01*
X174447448Y-82337761D01*
X174476455Y-82313955D01*
X174500261Y-82284948D01*
X174517950Y-82251854D01*
X174528843Y-82215944D01*
X174532521Y-82178600D01*
X174532521Y-81671100D01*
X177639679Y-81671100D01*
X177639679Y-81773600D01*
X177643357Y-81810944D01*
X177654250Y-81846854D01*
X177671939Y-81879948D01*
X177695745Y-81908955D01*
X177724752Y-81932761D01*
X177757846Y-81950450D01*
X177793756Y-81961343D01*
X177831100Y-81965021D01*
X178631100Y-81965021D01*
X178668444Y-81961343D01*
X178704354Y-81950450D01*
X178737448Y-81932761D01*
X178766455Y-81908955D01*
X178790261Y-81879948D01*
X178807950Y-81846854D01*
X178818843Y-81810944D01*
X178822521Y-81773600D01*
X178822521Y-80973600D01*
X178818843Y-80936256D01*
X178807950Y-80900346D01*
X178790261Y-80867252D01*
X178766455Y-80838245D01*
X178737448Y-80814439D01*
X178704354Y-80796750D01*
X178668444Y-80785857D01*
X178631100Y-80782179D01*
X177831100Y-80782179D01*
X177793756Y-80785857D01*
X177757846Y-80796750D01*
X177724752Y-80814439D01*
X177695745Y-80838245D01*
X177671939Y-80867252D01*
X177654250Y-80900346D01*
X177643357Y-80936256D01*
X177639679Y-80973600D01*
X177639679Y-81036100D01*
X174532521Y-81036100D01*
X174532521Y-80566699D01*
X178628016Y-80566699D01*
X179289679Y-81228363D01*
X179289679Y-81773600D01*
X179293357Y-81810944D01*
X179304250Y-81846854D01*
X179321939Y-81879948D01*
X179345745Y-81908955D01*
X179374752Y-81932761D01*
X179407846Y-81950450D01*
X179443756Y-81961343D01*
X179481100Y-81965021D01*
X180281100Y-81965021D01*
X180318444Y-81961343D01*
X180354354Y-81950450D01*
X180387448Y-81932761D01*
X180416455Y-81908955D01*
X180440261Y-81879948D01*
X180457950Y-81846854D01*
X180468843Y-81810944D01*
X180472521Y-81773600D01*
X180472521Y-80973600D01*
X180468843Y-80936256D01*
X180457950Y-80900346D01*
X180440261Y-80867252D01*
X180416455Y-80838245D01*
X180387448Y-80814439D01*
X180354354Y-80796750D01*
X180318444Y-80785857D01*
X180281100Y-80782179D01*
X179735863Y-80782179D01*
X178992750Y-80039067D01*
X178982870Y-80027028D01*
X178934829Y-79987602D01*
X178880020Y-79958305D01*
X178820548Y-79940265D01*
X178774192Y-79935699D01*
X178774181Y-79935699D01*
X178758699Y-79934174D01*
X178743217Y-79935699D01*
X168904283Y-79935699D01*
X168888800Y-79934174D01*
X168873318Y-79935699D01*
X168873308Y-79935699D01*
X168826952Y-79940265D01*
X168767480Y-79958305D01*
X168712671Y-79987602D01*
X168676663Y-80017152D01*
X168676658Y-80017157D01*
X168664630Y-80027028D01*
X168654758Y-80039057D01*
X168380021Y-80313795D01*
X168308159Y-80299500D01*
X168191841Y-80299500D01*
X168077758Y-80322193D01*
X167970293Y-80366706D01*
X167873578Y-80431329D01*
X167791329Y-80513578D01*
X167726706Y-80610293D01*
X167682193Y-80717758D01*
X167659500Y-80831841D01*
X167659500Y-80948159D01*
X167682193Y-81062242D01*
X167726706Y-81169707D01*
X167791329Y-81266422D01*
X167873578Y-81348671D01*
X167970293Y-81413294D01*
X168077758Y-81457807D01*
X168191841Y-81480500D01*
X168308159Y-81480500D01*
X168422242Y-81457807D01*
X168529707Y-81413294D01*
X168626422Y-81348671D01*
X168708671Y-81266422D01*
X168773294Y-81169707D01*
X168817807Y-81062242D01*
X168840500Y-80948159D01*
X168840500Y-80831841D01*
X168826205Y-80759979D01*
X169019486Y-80566699D01*
X172749679Y-80566699D01*
X172749679Y-81374705D01*
X172724398Y-81349424D01*
X172623065Y-81281715D01*
X172510468Y-81235076D01*
X172390937Y-81211300D01*
X172269063Y-81211300D01*
X172149532Y-81235076D01*
X172036935Y-81281715D01*
X171935602Y-81349424D01*
X171849424Y-81435602D01*
X171781715Y-81536935D01*
X171735076Y-81649532D01*
X171711300Y-81769063D01*
X171711300Y-81890937D01*
X171735076Y-82010468D01*
X171781715Y-82123065D01*
X171849424Y-82224398D01*
X171935602Y-82310576D01*
X171952451Y-82321834D01*
X171952450Y-84547542D01*
X171952451Y-84547552D01*
X171952450Y-85216705D01*
X171873552Y-85269424D01*
X171787374Y-85355602D01*
X171719665Y-85456935D01*
X171673026Y-85569532D01*
X171649250Y-85689063D01*
X171649250Y-85810937D01*
X171673026Y-85930468D01*
X171719665Y-86043065D01*
X171787374Y-86144398D01*
X171873552Y-86230576D01*
X171974885Y-86298285D01*
X172038174Y-86324500D01*
X171735564Y-86324500D01*
X171720081Y-86322975D01*
X171704599Y-86324500D01*
X171704589Y-86324500D01*
X171658233Y-86329066D01*
X171598761Y-86347106D01*
X171543952Y-86376403D01*
X171507944Y-86405953D01*
X171507939Y-86405958D01*
X171495911Y-86415829D01*
X171486039Y-86427858D01*
X171038304Y-86875594D01*
X170945237Y-86857082D01*
X170823363Y-86857082D01*
X170703832Y-86880858D01*
X170591235Y-86927497D01*
X170489902Y-86995206D01*
X170403724Y-87081384D01*
X170336015Y-87182717D01*
X170289376Y-87295314D01*
X170265600Y-87414845D01*
X170265600Y-87536719D01*
X170289376Y-87656250D01*
X170306681Y-87698029D01*
X166702936Y-84094284D01*
X166694580Y-84084102D01*
X166653969Y-84050774D01*
X166607637Y-84026010D01*
X166557364Y-84010759D01*
X166518180Y-84006900D01*
X166518178Y-84006900D01*
X166505082Y-84005610D01*
X166491986Y-84006900D01*
X165960586Y-84006900D01*
X165959476Y-84004219D01*
X165897238Y-83911075D01*
X165890463Y-83904300D01*
X170119679Y-83904300D01*
X170119679Y-84488600D01*
X170123357Y-84525944D01*
X170134250Y-84561854D01*
X170151939Y-84594948D01*
X170175745Y-84623955D01*
X170204752Y-84647761D01*
X170237846Y-84665450D01*
X170273756Y-84676343D01*
X170311100Y-84680021D01*
X171711100Y-84680021D01*
X171748444Y-84676343D01*
X171784354Y-84665450D01*
X171817448Y-84647761D01*
X171846455Y-84623955D01*
X171870261Y-84594948D01*
X171887950Y-84561854D01*
X171898843Y-84525944D01*
X171902521Y-84488600D01*
X171902521Y-82838600D01*
X171898843Y-82801256D01*
X171887950Y-82765346D01*
X171870261Y-82732252D01*
X171846455Y-82703245D01*
X171817448Y-82679439D01*
X171784354Y-82661750D01*
X171748444Y-82650857D01*
X171711100Y-82647179D01*
X170311100Y-82647179D01*
X170273756Y-82650857D01*
X170237846Y-82661750D01*
X170204752Y-82679439D01*
X170175745Y-82703245D01*
X170151939Y-82732252D01*
X170134250Y-82765346D01*
X170123357Y-82801256D01*
X170119679Y-82838600D01*
X170119679Y-83269300D01*
X165059742Y-83269300D01*
X165044149Y-83267764D01*
X165028556Y-83269300D01*
X165028554Y-83269300D01*
X164981909Y-83273894D01*
X164922060Y-83292049D01*
X164866903Y-83321531D01*
X164818557Y-83361207D01*
X164808613Y-83373324D01*
X163874025Y-84307913D01*
X163861908Y-84317857D01*
X163822232Y-84366203D01*
X163816913Y-84376155D01*
X163792749Y-84421361D01*
X163774594Y-84481210D01*
X163768464Y-84543450D01*
X115724201Y-84543450D01*
X115724201Y-82309704D01*
X159811300Y-82309704D01*
X159811300Y-82431578D01*
X159835076Y-82551109D01*
X159881715Y-82663706D01*
X159949424Y-82765039D01*
X160035602Y-82851217D01*
X160136935Y-82918926D01*
X160249532Y-82965565D01*
X160369063Y-82989341D01*
X160490937Y-82989341D01*
X160610468Y-82965565D01*
X160723065Y-82918926D01*
X160824398Y-82851217D01*
X160910576Y-82765039D01*
X160963294Y-82686141D01*
X163210712Y-82686141D01*
X163263430Y-82765039D01*
X163349608Y-82851217D01*
X163450941Y-82918926D01*
X163563538Y-82965565D01*
X163683069Y-82989341D01*
X163804943Y-82989341D01*
X163924474Y-82965565D01*
X164037071Y-82918926D01*
X164138404Y-82851217D01*
X164224582Y-82765039D01*
X164292291Y-82663706D01*
X164338930Y-82551109D01*
X164362706Y-82431578D01*
X164362706Y-82309704D01*
X164338930Y-82190173D01*
X164292291Y-82077576D01*
X164224582Y-81976243D01*
X164138404Y-81890065D01*
X164037071Y-81822356D01*
X163924474Y-81775717D01*
X163804943Y-81751941D01*
X163683069Y-81751941D01*
X163563538Y-81775717D01*
X163450941Y-81822356D01*
X163349608Y-81890065D01*
X163263430Y-81976243D01*
X163210712Y-82055141D01*
X160963294Y-82055141D01*
X160910576Y-81976243D01*
X160824398Y-81890065D01*
X160723065Y-81822356D01*
X160610468Y-81775717D01*
X160490937Y-81751941D01*
X160369063Y-81751941D01*
X160249532Y-81775717D01*
X160136935Y-81822356D01*
X160035602Y-81890065D01*
X159949424Y-81976243D01*
X159881715Y-82077576D01*
X159835076Y-82190173D01*
X159811300Y-82309704D01*
X115724201Y-82309704D01*
X115724201Y-79566701D01*
X181278000Y-79566701D01*
X181277999Y-128977463D01*
%TA.AperFunction,Conductor*%
D28*
G36*
X181277999Y-128977463D02*
G01*
X179814964Y-130440499D01*
X144927800Y-130440499D01*
X144927800Y-123770300D01*
X146007300Y-123770300D01*
X146044465Y-123766640D01*
X146080201Y-123755799D01*
X146113136Y-123738195D01*
X146142004Y-123714504D01*
X146165695Y-123685636D01*
X146183299Y-123652701D01*
X146194140Y-123616965D01*
X146197800Y-123579800D01*
X146197800Y-123503600D01*
X175249679Y-123503600D01*
X175249679Y-128803600D01*
X175253357Y-128840944D01*
X175264250Y-128876854D01*
X175281939Y-128909948D01*
X175305745Y-128938955D01*
X175334752Y-128962761D01*
X175367846Y-128980450D01*
X175403756Y-128991343D01*
X175441100Y-128995021D01*
X177441100Y-128995021D01*
X177478444Y-128991343D01*
X177514354Y-128980450D01*
X177547448Y-128962761D01*
X177576455Y-128938955D01*
X177600261Y-128909948D01*
X177617950Y-128876854D01*
X177628843Y-128840944D01*
X177632521Y-128803600D01*
X177632521Y-123503600D01*
X177789679Y-123503600D01*
X177789679Y-128803600D01*
X177793357Y-128840944D01*
X177804250Y-128876854D01*
X177821939Y-128909948D01*
X177845745Y-128938955D01*
X177874752Y-128962761D01*
X177907846Y-128980450D01*
X177943756Y-128991343D01*
X177981100Y-128995021D01*
X179981100Y-128995021D01*
X180018444Y-128991343D01*
X180054354Y-128980450D01*
X180087448Y-128962761D01*
X180116455Y-128938955D01*
X180140261Y-128909948D01*
X180157950Y-128876854D01*
X180168843Y-128840944D01*
X180172521Y-128803600D01*
X180172521Y-123503600D01*
X180168843Y-123466256D01*
X180157950Y-123430346D01*
X180140261Y-123397252D01*
X180116455Y-123368245D01*
X180087448Y-123344439D01*
X180054354Y-123326750D01*
X180018444Y-123315857D01*
X179981100Y-123312179D01*
X179368600Y-123312179D01*
X179368600Y-122985558D01*
X179445498Y-122934176D01*
X179531676Y-122847998D01*
X179599385Y-122746665D01*
X179646024Y-122634068D01*
X179669800Y-122514537D01*
X179669800Y-122392663D01*
X179646024Y-122273132D01*
X179599385Y-122160535D01*
X179531676Y-122059202D01*
X179445498Y-121973024D01*
X179344165Y-121905315D01*
X179231568Y-121858676D01*
X179112037Y-121834900D01*
X178990163Y-121834900D01*
X178870632Y-121858676D01*
X178758035Y-121905315D01*
X178656702Y-121973024D01*
X178570524Y-122059202D01*
X178502815Y-122160535D01*
X178456176Y-122273132D01*
X178432400Y-122392663D01*
X178432400Y-122514537D01*
X178456176Y-122634068D01*
X178502815Y-122746665D01*
X178570524Y-122847998D01*
X178656702Y-122934176D01*
X178733600Y-122985558D01*
X178733600Y-123312179D01*
X177981100Y-123312179D01*
X177943756Y-123315857D01*
X177907846Y-123326750D01*
X177874752Y-123344439D01*
X177845745Y-123368245D01*
X177821939Y-123397252D01*
X177804250Y-123430346D01*
X177793357Y-123466256D01*
X177789679Y-123503600D01*
X177632521Y-123503600D01*
X177628843Y-123466256D01*
X177617950Y-123430346D01*
X177600261Y-123397252D01*
X177576455Y-123368245D01*
X177547448Y-123344439D01*
X177514354Y-123326750D01*
X177478444Y-123315857D01*
X177441100Y-123312179D01*
X176838600Y-123312179D01*
X176838600Y-120845558D01*
X176915498Y-120794176D01*
X177001676Y-120707998D01*
X177069385Y-120606665D01*
X177116024Y-120494068D01*
X177139800Y-120374537D01*
X177139800Y-120252663D01*
X177116024Y-120133132D01*
X177069385Y-120020535D01*
X177001676Y-119919202D01*
X176915498Y-119833024D01*
X176814165Y-119765315D01*
X176701568Y-119718676D01*
X176582037Y-119694900D01*
X176460163Y-119694900D01*
X176340632Y-119718676D01*
X176228035Y-119765315D01*
X176126702Y-119833024D01*
X176040524Y-119919202D01*
X175972815Y-120020535D01*
X175926176Y-120133132D01*
X175902400Y-120252663D01*
X175902400Y-120374537D01*
X175926176Y-120494068D01*
X175972815Y-120606665D01*
X176040524Y-120707998D01*
X176126702Y-120794176D01*
X176203600Y-120845558D01*
X176203601Y-123312179D01*
X175441100Y-123312179D01*
X175403756Y-123315857D01*
X175367846Y-123326750D01*
X175334752Y-123344439D01*
X175305745Y-123368245D01*
X175281939Y-123397252D01*
X175264250Y-123430346D01*
X175253357Y-123466256D01*
X175249679Y-123503600D01*
X146197800Y-123503600D01*
X146197800Y-115798114D01*
X155526600Y-115798114D01*
X155526601Y-117189087D01*
X155538820Y-117313151D01*
X155587110Y-117472340D01*
X155665528Y-117619049D01*
X155771060Y-117747641D01*
X155899652Y-117853173D01*
X156046361Y-117931591D01*
X156205550Y-117979881D01*
X156371100Y-117996186D01*
X156536651Y-117979881D01*
X156695840Y-117931591D01*
X156842549Y-117853173D01*
X156971141Y-117747641D01*
X157076673Y-117619049D01*
X157155091Y-117472340D01*
X157203381Y-117313151D01*
X157215600Y-117189087D01*
X157215600Y-115798113D01*
X157212646Y-115768114D01*
X167376600Y-115768114D01*
X167376601Y-117159087D01*
X167388820Y-117283151D01*
X167437110Y-117442340D01*
X167515528Y-117589049D01*
X167621060Y-117717641D01*
X167749652Y-117823173D01*
X167896361Y-117901591D01*
X168055550Y-117949881D01*
X168221100Y-117966186D01*
X168386651Y-117949881D01*
X168545840Y-117901591D01*
X168692549Y-117823173D01*
X168821141Y-117717641D01*
X168926673Y-117589049D01*
X169005091Y-117442340D01*
X169053381Y-117283151D01*
X169065600Y-117159087D01*
X169065600Y-115768113D01*
X169053381Y-115644049D01*
X169005091Y-115484860D01*
X168926673Y-115338151D01*
X168821141Y-115209559D01*
X168692548Y-115104027D01*
X168545839Y-115025609D01*
X168386650Y-114977319D01*
X168221100Y-114961014D01*
X168055549Y-114977319D01*
X167896360Y-115025609D01*
X167749651Y-115104027D01*
X167621059Y-115209559D01*
X167515527Y-115338152D01*
X167437109Y-115484861D01*
X167388819Y-115644050D01*
X167376600Y-115768114D01*
X157212646Y-115768114D01*
X157203381Y-115674049D01*
X157155091Y-115514860D01*
X157076673Y-115368151D01*
X156971141Y-115239559D01*
X156842548Y-115134027D01*
X156695839Y-115055609D01*
X156536650Y-115007319D01*
X156371100Y-114991014D01*
X156205549Y-115007319D01*
X156046360Y-115055609D01*
X155899651Y-115134027D01*
X155771059Y-115239559D01*
X155665527Y-115368152D01*
X155587109Y-115514861D01*
X155538819Y-115674050D01*
X155526600Y-115798114D01*
X146197800Y-115798114D01*
X146197800Y-112819063D01*
X171451300Y-112819063D01*
X171451300Y-112940937D01*
X171475076Y-113060468D01*
X171521715Y-113173065D01*
X171589424Y-113274398D01*
X171675602Y-113360576D01*
X171776935Y-113428285D01*
X171889532Y-113474924D01*
X172009063Y-113498700D01*
X172130937Y-113498700D01*
X172250468Y-113474924D01*
X172363065Y-113428285D01*
X172464398Y-113360576D01*
X172550576Y-113274398D01*
X172603294Y-113195500D01*
X173043579Y-113195500D01*
X173043579Y-113683600D01*
X173047257Y-113720944D01*
X173058150Y-113756854D01*
X173075839Y-113789948D01*
X173099645Y-113818955D01*
X173128652Y-113842761D01*
X173161746Y-113860450D01*
X173197656Y-113871343D01*
X173235000Y-113875021D01*
X174885000Y-113875021D01*
X174922344Y-113871343D01*
X174958254Y-113860450D01*
X174991348Y-113842761D01*
X175020355Y-113818955D01*
X175044161Y-113789948D01*
X175061850Y-113756854D01*
X175072743Y-113720944D01*
X175076421Y-113683600D01*
X175076421Y-113121699D01*
X177659679Y-113121699D01*
X177659679Y-114283600D01*
X177663357Y-114320944D01*
X177674250Y-114356854D01*
X177691939Y-114389948D01*
X177715745Y-114418955D01*
X177744752Y-114442761D01*
X177777846Y-114460450D01*
X177813756Y-114471343D01*
X177851100Y-114475021D01*
X177983600Y-114475021D01*
X177983600Y-114732087D01*
X177812745Y-114902943D01*
X177722037Y-114884900D01*
X177600163Y-114884900D01*
X177480632Y-114908676D01*
X177368035Y-114955315D01*
X177266702Y-115023024D01*
X177180524Y-115109202D01*
X177112815Y-115210535D01*
X177066176Y-115323132D01*
X177042400Y-115442663D01*
X177042400Y-115564537D01*
X177066176Y-115684068D01*
X177112815Y-115796665D01*
X177180524Y-115897998D01*
X177266702Y-115984176D01*
X177368035Y-116051885D01*
X177480632Y-116098524D01*
X177600163Y-116122300D01*
X177722037Y-116122300D01*
X177841568Y-116098524D01*
X177954165Y-116051885D01*
X178055498Y-115984176D01*
X178141676Y-115897998D01*
X178209385Y-115796665D01*
X178256024Y-115684068D01*
X178279800Y-115564537D01*
X178279800Y-115442663D01*
X178261757Y-115351955D01*
X178514577Y-115099136D01*
X178526693Y-115089193D01*
X178566369Y-115040847D01*
X178595851Y-114985690D01*
X178614006Y-114925841D01*
X178618600Y-114879196D01*
X178618600Y-114879195D01*
X178620136Y-114863600D01*
X178618600Y-114848004D01*
X178618600Y-114475021D01*
X178751100Y-114475021D01*
X178788444Y-114471343D01*
X178824354Y-114460450D01*
X178857448Y-114442761D01*
X178886455Y-114418955D01*
X178910261Y-114389948D01*
X178927950Y-114356854D01*
X178938843Y-114320944D01*
X178942521Y-114283600D01*
X178942521Y-113121699D01*
X179159679Y-113121699D01*
X179159679Y-114283600D01*
X179163357Y-114320944D01*
X179174250Y-114356854D01*
X179191939Y-114389948D01*
X179215745Y-114418955D01*
X179244752Y-114442761D01*
X179277846Y-114460450D01*
X179313756Y-114471343D01*
X179351100Y-114475021D01*
X180251100Y-114475021D01*
X180288444Y-114471343D01*
X180324354Y-114460450D01*
X180357448Y-114442761D01*
X180386455Y-114418955D01*
X180410261Y-114389948D01*
X180427950Y-114356854D01*
X180438843Y-114320944D01*
X180442521Y-114283600D01*
X180442521Y-113083600D01*
X180438843Y-113046256D01*
X180427950Y-113010346D01*
X180410261Y-112977252D01*
X180386455Y-112948245D01*
X180357448Y-112924439D01*
X180324354Y-112906750D01*
X180288444Y-112895857D01*
X180251100Y-112892179D01*
X179878363Y-112892179D01*
X179580250Y-112594067D01*
X179570370Y-112582028D01*
X179522329Y-112542602D01*
X179467520Y-112513305D01*
X179408048Y-112495265D01*
X179361692Y-112490699D01*
X179361681Y-112490699D01*
X179346199Y-112489174D01*
X179330717Y-112490699D01*
X175076421Y-112490699D01*
X175076421Y-112283600D01*
X175072743Y-112246256D01*
X175061850Y-112210346D01*
X175044161Y-112177252D01*
X175020355Y-112148245D01*
X174991348Y-112124439D01*
X174958254Y-112106750D01*
X174922344Y-112095857D01*
X174885000Y-112092179D01*
X173235000Y-112092179D01*
X173197656Y-112095857D01*
X173161746Y-112106750D01*
X173128652Y-112124439D01*
X173099645Y-112148245D01*
X173075839Y-112177252D01*
X173058150Y-112210346D01*
X173047257Y-112246256D01*
X173043579Y-112283600D01*
X173043579Y-112564500D01*
X172603294Y-112564500D01*
X172550576Y-112485602D01*
X172464398Y-112399424D01*
X172363065Y-112331715D01*
X172250468Y-112285076D01*
X172130937Y-112261300D01*
X172009063Y-112261300D01*
X171889532Y-112285076D01*
X171776935Y-112331715D01*
X171675602Y-112399424D01*
X171589424Y-112485602D01*
X171521715Y-112586935D01*
X171475076Y-112699532D01*
X171451300Y-112819063D01*
X146197800Y-112819063D01*
X146197800Y-109083600D01*
X177659679Y-109083600D01*
X177659679Y-110283600D01*
X177663357Y-110320944D01*
X177674250Y-110356854D01*
X177691939Y-110389948D01*
X177715745Y-110418955D01*
X177744752Y-110442761D01*
X177777846Y-110460450D01*
X177813756Y-110471343D01*
X177851100Y-110475021D01*
X178751100Y-110475021D01*
X178788444Y-110471343D01*
X178824354Y-110460450D01*
X178857448Y-110442761D01*
X178886455Y-110418955D01*
X178910261Y-110389948D01*
X178927950Y-110356854D01*
X178938843Y-110320944D01*
X178942521Y-110283600D01*
X178942521Y-109083600D01*
X179159679Y-109083600D01*
X179159679Y-110283600D01*
X179163357Y-110320944D01*
X179174250Y-110356854D01*
X179191939Y-110389948D01*
X179215745Y-110418955D01*
X179244752Y-110442761D01*
X179277846Y-110460450D01*
X179313756Y-110471343D01*
X179351100Y-110475021D01*
X180251100Y-110475021D01*
X180288444Y-110471343D01*
X180324354Y-110460450D01*
X180357448Y-110442761D01*
X180386455Y-110418955D01*
X180410261Y-110389948D01*
X180427950Y-110356854D01*
X180438843Y-110320944D01*
X180442521Y-110283600D01*
X180442521Y-109083600D01*
X180438843Y-109046256D01*
X180427950Y-109010346D01*
X180410261Y-108977252D01*
X180386455Y-108948245D01*
X180357448Y-108924439D01*
X180324354Y-108906750D01*
X180288444Y-108895857D01*
X180251100Y-108892179D01*
X179351100Y-108892179D01*
X179313756Y-108895857D01*
X179277846Y-108906750D01*
X179244752Y-108924439D01*
X179215745Y-108948245D01*
X179191939Y-108977252D01*
X179174250Y-109010346D01*
X179163357Y-109046256D01*
X179159679Y-109083600D01*
X178942521Y-109083600D01*
X178938843Y-109046256D01*
X178927950Y-109010346D01*
X178910261Y-108977252D01*
X178886455Y-108948245D01*
X178857448Y-108924439D01*
X178824354Y-108906750D01*
X178788444Y-108895857D01*
X178751100Y-108892179D01*
X177851100Y-108892179D01*
X177813756Y-108895857D01*
X177777846Y-108906750D01*
X177744752Y-108924439D01*
X177715745Y-108948245D01*
X177691939Y-108977252D01*
X177674250Y-109010346D01*
X177663357Y-109046256D01*
X177659679Y-109083600D01*
X146197800Y-109083600D01*
X146197800Y-105469063D01*
X157521300Y-105469063D01*
X157521300Y-105590937D01*
X157545076Y-105710468D01*
X157591715Y-105823065D01*
X157659424Y-105924398D01*
X157745602Y-106010576D01*
X157846935Y-106078285D01*
X157959532Y-106124924D01*
X158079063Y-106148700D01*
X158200937Y-106148700D01*
X158320468Y-106124924D01*
X158433065Y-106078285D01*
X158534398Y-106010576D01*
X158620576Y-105924398D01*
X158688285Y-105823065D01*
X158734924Y-105710468D01*
X158758700Y-105590937D01*
X158758700Y-105469063D01*
X158734924Y-105349532D01*
X158688285Y-105236935D01*
X158620576Y-105135602D01*
X158534398Y-105049424D01*
X158476000Y-105010403D01*
X158476000Y-104330424D01*
X171056600Y-104330424D01*
X171056600Y-104496776D01*
X171089054Y-104659932D01*
X171152714Y-104813621D01*
X171245134Y-104951937D01*
X171362763Y-105069566D01*
X171501079Y-105161986D01*
X171654768Y-105225646D01*
X171817924Y-105258100D01*
X171984276Y-105258100D01*
X172147432Y-105225646D01*
X172301121Y-105161986D01*
X172439437Y-105069566D01*
X172557066Y-104951937D01*
X172649486Y-104813621D01*
X172713146Y-104659932D01*
X172745600Y-104496776D01*
X172745600Y-104330424D01*
X173556600Y-104330424D01*
X173556600Y-104496776D01*
X173589054Y-104659932D01*
X173652714Y-104813621D01*
X173745134Y-104951937D01*
X173862763Y-105069566D01*
X174001079Y-105161986D01*
X174154768Y-105225646D01*
X174317924Y-105258100D01*
X174484276Y-105258100D01*
X174647432Y-105225646D01*
X174801121Y-105161986D01*
X174939437Y-105069566D01*
X175057066Y-104951937D01*
X175149486Y-104813621D01*
X175213146Y-104659932D01*
X175245600Y-104496776D01*
X175245600Y-104330424D01*
X176056600Y-104330424D01*
X176056600Y-104496776D01*
X176089054Y-104659932D01*
X176152714Y-104813621D01*
X176245134Y-104951937D01*
X176362763Y-105069566D01*
X176501079Y-105161986D01*
X176654768Y-105225646D01*
X176817924Y-105258100D01*
X176984276Y-105258100D01*
X177147432Y-105225646D01*
X177301121Y-105161986D01*
X177439437Y-105069566D01*
X177557066Y-104951937D01*
X177649486Y-104813621D01*
X177713146Y-104659932D01*
X177745600Y-104496776D01*
X177745600Y-104330424D01*
X177713146Y-104167268D01*
X177649486Y-104013579D01*
X177557066Y-103875263D01*
X177439437Y-103757634D01*
X177301121Y-103665214D01*
X177147432Y-103601554D01*
X176984276Y-103569100D01*
X176817924Y-103569100D01*
X176654768Y-103601554D01*
X176501079Y-103665214D01*
X176362763Y-103757634D01*
X176245134Y-103875263D01*
X176152714Y-104013579D01*
X176089054Y-104167268D01*
X176056600Y-104330424D01*
X175245600Y-104330424D01*
X175213146Y-104167268D01*
X175149486Y-104013579D01*
X175057066Y-103875263D01*
X174939437Y-103757634D01*
X174801121Y-103665214D01*
X174647432Y-103601554D01*
X174484276Y-103569100D01*
X174317924Y-103569100D01*
X174154768Y-103601554D01*
X174001079Y-103665214D01*
X173862763Y-103757634D01*
X173745134Y-103875263D01*
X173652714Y-104013579D01*
X173589054Y-104167268D01*
X173556600Y-104330424D01*
X172745600Y-104330424D01*
X172713146Y-104167268D01*
X172649486Y-104013579D01*
X172557066Y-103875263D01*
X172439437Y-103757634D01*
X172301121Y-103665214D01*
X172147432Y-103601554D01*
X171984276Y-103569100D01*
X171817924Y-103569100D01*
X171654768Y-103601554D01*
X171501079Y-103665214D01*
X171362763Y-103757634D01*
X171245134Y-103875263D01*
X171152714Y-104013579D01*
X171089054Y-104167268D01*
X171056600Y-104330424D01*
X158476000Y-104330424D01*
X158476000Y-102670091D01*
X158554898Y-102617373D01*
X158641076Y-102531195D01*
X158708785Y-102429862D01*
X158755424Y-102317265D01*
X158779200Y-102197734D01*
X158779200Y-102075860D01*
X158755424Y-101956329D01*
X158708785Y-101843732D01*
X158641076Y-101742399D01*
X158554898Y-101656221D01*
X158453565Y-101588512D01*
X158340968Y-101541873D01*
X158221437Y-101518097D01*
X158099563Y-101518097D01*
X157980032Y-101541873D01*
X157867435Y-101588512D01*
X157766102Y-101656221D01*
X157679924Y-101742399D01*
X157612215Y-101843732D01*
X157565576Y-101956329D01*
X157541800Y-102075860D01*
X157541800Y-102197734D01*
X157565576Y-102317265D01*
X157612215Y-102429862D01*
X157679924Y-102531195D01*
X157766102Y-102617373D01*
X157845000Y-102670091D01*
X157845001Y-104983007D01*
X157745602Y-105049424D01*
X157659424Y-105135602D01*
X157591715Y-105236935D01*
X157545076Y-105349532D01*
X157521300Y-105469063D01*
X146197800Y-105469063D01*
X146197800Y-102122663D01*
X153212400Y-102122663D01*
X153212400Y-102244537D01*
X153236176Y-102364068D01*
X153282815Y-102476665D01*
X153350524Y-102577998D01*
X153436702Y-102664176D01*
X153515600Y-102716895D01*
X153515601Y-103475608D01*
X153514075Y-103491100D01*
X153520167Y-103552948D01*
X153538206Y-103612420D01*
X153538207Y-103612421D01*
X153567504Y-103667230D01*
X153606930Y-103715271D01*
X153618964Y-103725147D01*
X154499812Y-104605996D01*
X154481300Y-104699063D01*
X154481300Y-104820937D01*
X154505076Y-104940468D01*
X154551715Y-105053065D01*
X154619424Y-105154398D01*
X154705602Y-105240576D01*
X154806935Y-105308285D01*
X154919532Y-105354924D01*
X155039063Y-105378700D01*
X155160937Y-105378700D01*
X155280468Y-105354924D01*
X155393065Y-105308285D01*
X155494398Y-105240576D01*
X155580576Y-105154398D01*
X155648285Y-105053065D01*
X155694924Y-104940468D01*
X155718700Y-104820937D01*
X155718700Y-104699063D01*
X155694924Y-104579532D01*
X155648285Y-104466935D01*
X155580576Y-104365602D01*
X155494398Y-104279424D01*
X155393065Y-104211715D01*
X155280468Y-104165076D01*
X155160937Y-104141300D01*
X155039063Y-104141300D01*
X154945996Y-104159812D01*
X154146600Y-103360417D01*
X154146600Y-102716894D01*
X154225498Y-102664176D01*
X154311676Y-102577998D01*
X154379385Y-102476665D01*
X154426024Y-102364068D01*
X154449800Y-102244537D01*
X154449800Y-102122663D01*
X154426024Y-102003132D01*
X154379385Y-101890535D01*
X154311676Y-101789202D01*
X154225498Y-101703024D01*
X154124165Y-101635315D01*
X154011568Y-101588676D01*
X153892037Y-101564900D01*
X153770163Y-101564900D01*
X153650632Y-101588676D01*
X153538035Y-101635315D01*
X153436702Y-101703024D01*
X153350524Y-101789202D01*
X153282815Y-101890535D01*
X153236176Y-102003132D01*
X153212400Y-102122663D01*
X146197800Y-102122663D01*
X146197800Y-99227400D01*
X146194140Y-99190235D01*
X146183299Y-99154499D01*
X146165695Y-99121564D01*
X146142004Y-99092696D01*
X146113136Y-99069005D01*
X146080201Y-99051401D01*
X146044465Y-99040560D01*
X146007300Y-99036900D01*
X131474900Y-99036900D01*
X131437735Y-99040560D01*
X131401999Y-99051401D01*
X131391100Y-99057227D01*
X131380201Y-99051401D01*
X131344465Y-99040560D01*
X131307300Y-99036900D01*
X115724201Y-99036900D01*
X115724201Y-97865863D01*
X147202400Y-97865863D01*
X147202400Y-97987737D01*
X147226176Y-98107268D01*
X147272815Y-98219865D01*
X147340524Y-98321198D01*
X147426702Y-98407376D01*
X147528035Y-98475085D01*
X147640632Y-98521724D01*
X147760163Y-98545500D01*
X147882037Y-98545500D01*
X147972745Y-98527457D01*
X149546833Y-100101546D01*
X149546176Y-100103132D01*
X149522400Y-100222663D01*
X149522400Y-100344537D01*
X149546176Y-100464068D01*
X149592815Y-100576665D01*
X149660524Y-100677998D01*
X149746702Y-100764176D01*
X149848035Y-100831885D01*
X149960632Y-100878524D01*
X150080163Y-100902300D01*
X150202037Y-100902300D01*
X150321568Y-100878524D01*
X150434165Y-100831885D01*
X150535498Y-100764176D01*
X150621676Y-100677998D01*
X150689385Y-100576665D01*
X150736024Y-100464068D01*
X150759800Y-100344537D01*
X150759800Y-100222663D01*
X150736024Y-100103132D01*
X150689385Y-99990535D01*
X150681720Y-99979063D01*
X165571300Y-99979063D01*
X165571300Y-100100937D01*
X165595076Y-100220468D01*
X165641715Y-100333065D01*
X165709424Y-100434398D01*
X165795602Y-100520576D01*
X165896935Y-100588285D01*
X166009532Y-100634924D01*
X166129063Y-100658700D01*
X166250937Y-100658700D01*
X166370468Y-100634924D01*
X166483065Y-100588285D01*
X166584398Y-100520576D01*
X166670576Y-100434398D01*
X166723294Y-100355500D01*
X168163342Y-100355500D01*
X168229424Y-100454398D01*
X168315602Y-100540576D01*
X168416935Y-100608285D01*
X168529532Y-100654924D01*
X168649063Y-100678700D01*
X168770937Y-100678700D01*
X168864005Y-100660188D01*
X169171945Y-100968129D01*
X169172666Y-100975449D01*
X169190706Y-101034921D01*
X169220003Y-101089730D01*
X169259429Y-101137771D01*
X169307470Y-101177197D01*
X169362279Y-101206494D01*
X169421751Y-101224534D01*
X169429071Y-101225255D01*
X169635953Y-101432137D01*
X169645829Y-101444171D01*
X169693870Y-101483597D01*
X169748679Y-101512894D01*
X169808151Y-101530934D01*
X169854507Y-101535500D01*
X169854515Y-101535500D01*
X169870000Y-101537025D01*
X169885485Y-101535500D01*
X169936889Y-101535500D01*
X169941939Y-101544948D01*
X169965745Y-101573955D01*
X169994752Y-101597761D01*
X170027846Y-101615450D01*
X170063756Y-101626343D01*
X170101100Y-101630021D01*
X171701100Y-101630021D01*
X171738444Y-101626343D01*
X171774354Y-101615450D01*
X171807448Y-101597761D01*
X171836455Y-101573955D01*
X171860261Y-101544948D01*
X171862318Y-101541100D01*
X176975195Y-101541100D01*
X176985745Y-101553955D01*
X177014752Y-101577761D01*
X177047846Y-101595450D01*
X177083756Y-101606343D01*
X177121100Y-101610021D01*
X178721100Y-101610021D01*
X178758444Y-101606343D01*
X178794354Y-101595450D01*
X178827448Y-101577761D01*
X178856455Y-101553955D01*
X178880261Y-101524948D01*
X178897950Y-101491854D01*
X178908843Y-101455944D01*
X178912521Y-101418600D01*
X178912521Y-100368600D01*
X178908843Y-100331256D01*
X178897950Y-100295346D01*
X178880261Y-100262252D01*
X178856455Y-100233245D01*
X178827448Y-100209439D01*
X178794354Y-100191750D01*
X178758444Y-100180857D01*
X178721100Y-100177179D01*
X177121100Y-100177179D01*
X177083756Y-100180857D01*
X177047846Y-100191750D01*
X177014752Y-100209439D01*
X176985745Y-100233245D01*
X176961939Y-100262252D01*
X176944250Y-100295346D01*
X176933357Y-100331256D01*
X176929679Y-100368600D01*
X176929679Y-100906100D01*
X176178179Y-100906100D01*
X176188843Y-100870944D01*
X176192521Y-100833600D01*
X176192521Y-100053600D01*
X176188843Y-100016256D01*
X176177950Y-99980346D01*
X176160261Y-99947252D01*
X176136455Y-99918245D01*
X176107448Y-99894439D01*
X176074354Y-99876750D01*
X176038444Y-99865857D01*
X176001100Y-99862179D01*
X175708600Y-99862179D01*
X175708600Y-99609195D01*
X175710136Y-99593599D01*
X175704006Y-99531358D01*
X175685851Y-99471510D01*
X175677749Y-99456353D01*
X175656369Y-99416353D01*
X175616693Y-99368007D01*
X175604575Y-99358063D01*
X175430023Y-99183511D01*
X175416024Y-99113132D01*
X175369385Y-99000535D01*
X175301676Y-98899202D01*
X175215498Y-98813024D01*
X175114165Y-98745315D01*
X175001568Y-98698676D01*
X174882037Y-98674900D01*
X174760163Y-98674900D01*
X174640632Y-98698676D01*
X174528035Y-98745315D01*
X174426702Y-98813024D01*
X174340524Y-98899202D01*
X174289142Y-98976100D01*
X173746696Y-98976100D01*
X173731100Y-98974564D01*
X173715504Y-98976100D01*
X173668859Y-98980694D01*
X173609010Y-98998849D01*
X173553853Y-99028331D01*
X173505507Y-99068007D01*
X173495563Y-99080125D01*
X173177625Y-99398063D01*
X173165508Y-99408007D01*
X173125832Y-99456353D01*
X173116363Y-99474068D01*
X173096349Y-99511511D01*
X173078194Y-99571360D01*
X173072064Y-99633600D01*
X173073601Y-99649205D01*
X173073601Y-99842179D01*
X172781100Y-99842179D01*
X172743756Y-99845857D01*
X172707846Y-99856750D01*
X172674752Y-99874439D01*
X172645745Y-99898245D01*
X172621939Y-99927252D01*
X172604250Y-99960346D01*
X172593357Y-99996256D01*
X172589679Y-100033600D01*
X172589679Y-100813600D01*
X172593357Y-100850944D01*
X172604250Y-100886854D01*
X172614537Y-100906100D01*
X171892521Y-100906100D01*
X171892521Y-100388600D01*
X171888843Y-100351256D01*
X171877950Y-100315346D01*
X171860261Y-100282252D01*
X171836455Y-100253245D01*
X171807448Y-100229439D01*
X171774354Y-100211750D01*
X171738444Y-100200857D01*
X171701100Y-100197179D01*
X170101100Y-100197179D01*
X170063756Y-100200857D01*
X170027846Y-100211750D01*
X169994752Y-100229439D01*
X169965745Y-100253245D01*
X169941939Y-100282252D01*
X169924250Y-100315346D01*
X169913357Y-100351256D01*
X169909679Y-100388600D01*
X169909679Y-100813495D01*
X169310188Y-100214005D01*
X169328700Y-100120937D01*
X169328700Y-99999063D01*
X169304924Y-99879532D01*
X169258285Y-99766935D01*
X169190576Y-99665602D01*
X169104398Y-99579424D01*
X169003065Y-99511715D01*
X168890468Y-99465076D01*
X168770937Y-99441300D01*
X168649063Y-99441300D01*
X168529532Y-99465076D01*
X168416935Y-99511715D01*
X168315602Y-99579424D01*
X168229424Y-99665602D01*
X168190069Y-99724500D01*
X166723294Y-99724500D01*
X166670576Y-99645602D01*
X166584398Y-99559424D01*
X166483065Y-99491715D01*
X166370468Y-99445076D01*
X166250937Y-99421300D01*
X166129063Y-99421300D01*
X166009532Y-99445076D01*
X165896935Y-99491715D01*
X165795602Y-99559424D01*
X165709424Y-99645602D01*
X165641715Y-99746935D01*
X165595076Y-99859532D01*
X165571300Y-99979063D01*
X150681720Y-99979063D01*
X150621676Y-99889202D01*
X150535498Y-99803024D01*
X150434165Y-99735315D01*
X150321568Y-99688676D01*
X150202037Y-99664900D01*
X150080163Y-99664900D01*
X150020150Y-99676837D01*
X148421757Y-98078445D01*
X148439800Y-97987737D01*
X148439800Y-97865863D01*
X148416024Y-97746332D01*
X148369385Y-97633735D01*
X148301676Y-97532402D01*
X148215498Y-97446224D01*
X148114165Y-97378515D01*
X148001568Y-97331876D01*
X147882037Y-97308100D01*
X147760163Y-97308100D01*
X147640632Y-97331876D01*
X147528035Y-97378515D01*
X147426702Y-97446224D01*
X147340524Y-97532402D01*
X147272815Y-97633735D01*
X147226176Y-97746332D01*
X147202400Y-97865863D01*
X115724201Y-97865863D01*
X115724201Y-95302663D01*
X164432400Y-95302663D01*
X164432400Y-95424537D01*
X164456176Y-95544068D01*
X164502815Y-95656665D01*
X164570524Y-95757998D01*
X164656702Y-95844176D01*
X164758035Y-95911885D01*
X164870632Y-95958524D01*
X164990163Y-95982300D01*
X165112037Y-95982300D01*
X165231568Y-95958524D01*
X165344165Y-95911885D01*
X165445498Y-95844176D01*
X165531676Y-95757998D01*
X165583058Y-95681100D01*
X166822460Y-95681100D01*
X166880524Y-95767998D01*
X166966702Y-95854176D01*
X167068035Y-95921885D01*
X167180632Y-95968524D01*
X167300163Y-95992300D01*
X167422037Y-95992300D01*
X167541568Y-95968524D01*
X167613811Y-95938600D01*
X169909679Y-95938600D01*
X169909679Y-96988600D01*
X169913357Y-97025944D01*
X169924250Y-97061854D01*
X169941939Y-97094948D01*
X169965745Y-97123955D01*
X169994752Y-97147761D01*
X170027846Y-97165450D01*
X170063756Y-97176343D01*
X170101100Y-97180021D01*
X171168701Y-97180021D01*
X171191991Y-97199134D01*
X171203853Y-97208869D01*
X171259010Y-97238351D01*
X171318859Y-97256506D01*
X171381100Y-97262637D01*
X171396703Y-97261100D01*
X172589679Y-97261100D01*
X172589679Y-97333600D01*
X172593357Y-97370944D01*
X172604250Y-97406854D01*
X172621939Y-97439948D01*
X172645745Y-97468955D01*
X172674752Y-97492761D01*
X172707846Y-97510450D01*
X172743756Y-97521343D01*
X172781100Y-97525021D01*
X173083601Y-97525021D01*
X173083601Y-97542673D01*
X173070725Y-97548006D01*
X172969392Y-97615715D01*
X172883214Y-97701893D01*
X172815505Y-97803226D01*
X172768866Y-97915823D01*
X172745090Y-98035354D01*
X172745090Y-98157228D01*
X172768866Y-98276759D01*
X172815505Y-98389356D01*
X172883214Y-98490689D01*
X172969392Y-98576867D01*
X173070725Y-98644576D01*
X173183322Y-98691215D01*
X173302853Y-98714991D01*
X173424727Y-98714991D01*
X173544258Y-98691215D01*
X173656855Y-98644576D01*
X173758188Y-98576867D01*
X173844366Y-98490689D01*
X173912075Y-98389356D01*
X173958714Y-98276759D01*
X173982490Y-98157228D01*
X173982490Y-98035354D01*
X173958714Y-97915823D01*
X173912075Y-97803226D01*
X173844366Y-97701893D01*
X173758188Y-97615715D01*
X173718600Y-97589263D01*
X173718600Y-97525021D01*
X174001100Y-97525021D01*
X174038444Y-97521343D01*
X174074354Y-97510450D01*
X174107448Y-97492761D01*
X174136455Y-97468955D01*
X174160261Y-97439948D01*
X174177950Y-97406854D01*
X174188843Y-97370944D01*
X174192521Y-97333600D01*
X174192521Y-96573600D01*
X174589679Y-96573600D01*
X174589679Y-97353600D01*
X174593357Y-97390944D01*
X174604250Y-97426854D01*
X174621939Y-97459948D01*
X174645745Y-97488955D01*
X174674752Y-97512761D01*
X174707846Y-97530450D01*
X174743756Y-97541343D01*
X174781100Y-97545021D01*
X176001100Y-97545021D01*
X176038444Y-97541343D01*
X176074354Y-97530450D01*
X176107448Y-97512761D01*
X176136455Y-97488955D01*
X176160261Y-97459948D01*
X176177950Y-97426854D01*
X176188843Y-97390944D01*
X176192521Y-97353600D01*
X176192521Y-97281100D01*
X177385504Y-97281100D01*
X177401100Y-97282636D01*
X177416696Y-97281100D01*
X177463341Y-97276506D01*
X177523190Y-97258351D01*
X177578347Y-97228869D01*
X177603601Y-97208144D01*
X177603601Y-97362099D01*
X177312745Y-97652956D01*
X177222037Y-97634913D01*
X177100163Y-97634913D01*
X176980632Y-97658689D01*
X176868035Y-97705328D01*
X176766702Y-97773037D01*
X176680524Y-97859215D01*
X176612815Y-97960548D01*
X176566176Y-98073145D01*
X176542400Y-98192676D01*
X176542400Y-98314550D01*
X176566176Y-98434081D01*
X176612815Y-98546678D01*
X176680524Y-98648011D01*
X176766702Y-98734189D01*
X176868035Y-98801898D01*
X176980632Y-98848537D01*
X177100163Y-98872313D01*
X177222037Y-98872313D01*
X177341568Y-98848537D01*
X177454165Y-98801898D01*
X177555498Y-98734189D01*
X177641676Y-98648011D01*
X177709385Y-98546678D01*
X177756024Y-98434081D01*
X177779800Y-98314550D01*
X177779800Y-98192676D01*
X177761757Y-98101968D01*
X178134576Y-97729150D01*
X178146693Y-97719206D01*
X178186369Y-97670860D01*
X178215851Y-97615703D01*
X178234006Y-97555854D01*
X178238600Y-97509209D01*
X178238600Y-97509207D01*
X178240136Y-97493614D01*
X178238600Y-97478021D01*
X178238600Y-97160021D01*
X178721100Y-97160021D01*
X178758444Y-97156343D01*
X178794354Y-97145450D01*
X178827448Y-97127761D01*
X178856455Y-97103955D01*
X178880261Y-97074948D01*
X178897950Y-97041854D01*
X178908843Y-97005944D01*
X178912521Y-96968600D01*
X178912521Y-95918600D01*
X178908843Y-95881256D01*
X178897950Y-95845346D01*
X178880261Y-95812252D01*
X178856455Y-95783245D01*
X178827448Y-95759439D01*
X178794354Y-95741750D01*
X178758444Y-95730857D01*
X178721100Y-95727179D01*
X177121100Y-95727179D01*
X177083756Y-95730857D01*
X177047846Y-95741750D01*
X177014752Y-95759439D01*
X176985745Y-95783245D01*
X176961939Y-95812252D01*
X176944250Y-95845346D01*
X176933357Y-95881256D01*
X176929679Y-95918600D01*
X176929679Y-96646100D01*
X176192521Y-96646100D01*
X176192521Y-96573600D01*
X176188843Y-96536256D01*
X176177950Y-96500346D01*
X176160261Y-96467252D01*
X176136455Y-96438245D01*
X176107448Y-96414439D01*
X176074354Y-96396750D01*
X176038444Y-96385857D01*
X176001100Y-96382179D01*
X174781100Y-96382179D01*
X174743756Y-96385857D01*
X174707846Y-96396750D01*
X174674752Y-96414439D01*
X174645745Y-96438245D01*
X174621939Y-96467252D01*
X174604250Y-96500346D01*
X174593357Y-96536256D01*
X174589679Y-96573600D01*
X174192521Y-96573600D01*
X174192521Y-96553600D01*
X174188843Y-96516256D01*
X174177950Y-96480346D01*
X174160261Y-96447252D01*
X174136455Y-96418245D01*
X174107448Y-96394439D01*
X174074354Y-96376750D01*
X174038444Y-96365857D01*
X174001100Y-96362179D01*
X172781100Y-96362179D01*
X172743756Y-96365857D01*
X172707846Y-96376750D01*
X172674752Y-96394439D01*
X172645745Y-96418245D01*
X172621939Y-96447252D01*
X172604250Y-96480346D01*
X172593357Y-96516256D01*
X172589679Y-96553600D01*
X172589679Y-96626100D01*
X171892521Y-96626100D01*
X171892521Y-95938600D01*
X171888843Y-95901256D01*
X171877950Y-95865346D01*
X171860261Y-95832252D01*
X171836455Y-95803245D01*
X171807448Y-95779439D01*
X171774354Y-95761750D01*
X171738444Y-95750857D01*
X171701100Y-95747179D01*
X170101100Y-95747179D01*
X170063756Y-95750857D01*
X170027846Y-95761750D01*
X169994752Y-95779439D01*
X169965745Y-95803245D01*
X169941939Y-95832252D01*
X169924250Y-95865346D01*
X169913357Y-95901256D01*
X169909679Y-95938600D01*
X167613811Y-95938600D01*
X167654165Y-95921885D01*
X167755498Y-95854176D01*
X167841676Y-95767998D01*
X167909385Y-95666665D01*
X167956024Y-95554068D01*
X167979800Y-95434537D01*
X167979800Y-95312663D01*
X167956024Y-95193132D01*
X167909385Y-95080535D01*
X167841676Y-94979202D01*
X167755498Y-94893024D01*
X167654165Y-94825315D01*
X167541568Y-94778676D01*
X167422037Y-94754900D01*
X167300163Y-94754900D01*
X167180632Y-94778676D01*
X167068035Y-94825315D01*
X166966702Y-94893024D01*
X166880524Y-94979202D01*
X166835824Y-95046100D01*
X165583058Y-95046100D01*
X165531676Y-94969202D01*
X165445498Y-94883024D01*
X165344165Y-94815315D01*
X165231568Y-94768676D01*
X165112037Y-94744900D01*
X164990163Y-94744900D01*
X164870632Y-94768676D01*
X164758035Y-94815315D01*
X164656702Y-94883024D01*
X164570524Y-94969202D01*
X164502815Y-95070535D01*
X164456176Y-95183132D01*
X164432400Y-95302663D01*
X115724201Y-95302663D01*
X115724201Y-84543450D01*
X163768464Y-84543450D01*
X163770001Y-84559055D01*
X163770000Y-85983392D01*
X163768464Y-85998988D01*
X163770000Y-86014583D01*
X163774594Y-86061228D01*
X163792749Y-86121077D01*
X163822231Y-86176234D01*
X163861907Y-86224581D01*
X163874030Y-86234530D01*
X170303688Y-92664188D01*
X170273724Y-92694152D01*
X170206015Y-92795485D01*
X170159376Y-92908082D01*
X170135600Y-93027613D01*
X170135600Y-93149487D01*
X170159376Y-93269018D01*
X170206015Y-93381615D01*
X170273724Y-93482948D01*
X170359902Y-93569126D01*
X170461235Y-93636835D01*
X170573832Y-93683474D01*
X170693363Y-93707250D01*
X170815237Y-93707250D01*
X170934768Y-93683474D01*
X171047365Y-93636835D01*
X171148698Y-93569126D01*
X171234876Y-93482948D01*
X171302585Y-93381615D01*
X171349224Y-93269018D01*
X171373000Y-93149487D01*
X171373000Y-93027613D01*
X171349224Y-92908082D01*
X171302585Y-92795485D01*
X171234876Y-92694152D01*
X171148698Y-92607974D01*
X171047365Y-92540265D01*
X171047174Y-92540186D01*
X171019569Y-92488541D01*
X170991487Y-92454323D01*
X170979893Y-92440195D01*
X170967776Y-92430251D01*
X164405000Y-85867476D01*
X164405000Y-85312601D01*
X164471775Y-85379376D01*
X164564919Y-85441614D01*
X164668416Y-85484483D01*
X164778288Y-85506338D01*
X164890312Y-85506338D01*
X165000184Y-85484483D01*
X165103681Y-85441614D01*
X165196825Y-85379376D01*
X165276038Y-85300163D01*
X165338276Y-85207019D01*
X165339386Y-85204338D01*
X166534667Y-85204338D01*
X172694400Y-91364071D01*
X172694400Y-91408579D01*
X172620000Y-91408579D01*
X172582656Y-91412257D01*
X172546746Y-91423150D01*
X172513652Y-91440839D01*
X172484645Y-91464645D01*
X172460839Y-91493652D01*
X172443150Y-91526746D01*
X172432257Y-91562656D01*
X172428579Y-91600000D01*
X172428579Y-92600000D01*
X172432257Y-92637344D01*
X172443150Y-92673254D01*
X172460839Y-92706348D01*
X172484645Y-92735355D01*
X172513652Y-92759161D01*
X172546746Y-92776850D01*
X172582656Y-92787743D01*
X172620000Y-92791421D01*
X172753300Y-92791421D01*
X172753301Y-92937179D01*
X172021100Y-92937179D01*
X171983756Y-92940857D01*
X171947846Y-92951750D01*
X171914752Y-92969439D01*
X171885745Y-92993245D01*
X171861939Y-93022252D01*
X171844250Y-93055346D01*
X171833357Y-93091256D01*
X171829679Y-93128600D01*
X171829679Y-94778600D01*
X171833357Y-94815944D01*
X171844250Y-94851854D01*
X171861939Y-94884948D01*
X171885745Y-94913955D01*
X171914752Y-94937761D01*
X171947846Y-94955450D01*
X171983756Y-94966343D01*
X172021100Y-94970021D01*
X173421100Y-94970021D01*
X173458444Y-94966343D01*
X173494354Y-94955450D01*
X173527448Y-94937761D01*
X173556455Y-94913955D01*
X173580261Y-94884948D01*
X173597950Y-94851854D01*
X173608843Y-94815944D01*
X173612521Y-94778600D01*
X173612521Y-93128600D01*
X173608843Y-93091256D01*
X173597950Y-93055346D01*
X173580261Y-93022252D01*
X173556455Y-92993245D01*
X173527448Y-92969439D01*
X173494354Y-92951750D01*
X173458444Y-92940857D01*
X173421100Y-92937179D01*
X173286700Y-92937179D01*
X173286700Y-92791421D01*
X173420000Y-92791421D01*
X173457344Y-92787743D01*
X173493254Y-92776850D01*
X173526348Y-92759161D01*
X173555355Y-92735355D01*
X173579161Y-92706348D01*
X173596850Y-92673254D01*
X173607743Y-92637344D01*
X173611421Y-92600000D01*
X173611421Y-92480073D01*
X174190668Y-93059321D01*
X174199020Y-93069498D01*
X174224135Y-93090109D01*
X174239629Y-93102825D01*
X174239631Y-93102826D01*
X174285963Y-93127590D01*
X174336236Y-93142841D01*
X174375420Y-93146700D01*
X174375421Y-93146700D01*
X174388517Y-93147990D01*
X174401613Y-93146700D01*
X174429679Y-93146700D01*
X174429679Y-94778600D01*
X174433357Y-94815944D01*
X174444250Y-94851854D01*
X174461939Y-94884948D01*
X174485745Y-94913955D01*
X174514752Y-94937761D01*
X174547846Y-94955450D01*
X174583756Y-94966343D01*
X174621100Y-94970021D01*
X176021100Y-94970021D01*
X176058444Y-94966343D01*
X176094354Y-94955450D01*
X176127448Y-94937761D01*
X176136100Y-94930660D01*
X176144752Y-94937761D01*
X176177846Y-94955450D01*
X176213756Y-94966343D01*
X176251100Y-94970021D01*
X177518508Y-94970021D01*
X178165563Y-95617076D01*
X178175507Y-95629193D01*
X178208982Y-95656665D01*
X178223853Y-95668869D01*
X178279010Y-95698351D01*
X178338859Y-95716506D01*
X178401100Y-95722636D01*
X178416696Y-95721100D01*
X178819588Y-95721100D01*
X179493600Y-96395113D01*
X179493601Y-107084900D01*
X179440163Y-107084900D01*
X179320632Y-107108676D01*
X179208035Y-107155315D01*
X179106702Y-107223024D01*
X179020524Y-107309202D01*
X178952815Y-107410535D01*
X178906176Y-107523132D01*
X178882400Y-107642663D01*
X178882400Y-107764537D01*
X178906176Y-107884068D01*
X178952815Y-107996665D01*
X179020524Y-108097998D01*
X179106702Y-108184176D01*
X179208035Y-108251885D01*
X179320632Y-108298524D01*
X179440163Y-108322300D01*
X179562037Y-108322300D01*
X179681568Y-108298524D01*
X179794165Y-108251885D01*
X179895498Y-108184176D01*
X179981676Y-108097998D01*
X180049385Y-107996665D01*
X180096024Y-107884068D01*
X180119800Y-107764537D01*
X180119800Y-107642663D01*
X180097610Y-107531107D01*
X180105851Y-107515690D01*
X180124006Y-107455841D01*
X180128600Y-107409196D01*
X180128600Y-107409194D01*
X180130136Y-107393601D01*
X180128600Y-107378008D01*
X180128600Y-96392283D01*
X180740643Y-95780242D01*
X180752672Y-95770370D01*
X180762543Y-95758342D01*
X180762548Y-95758337D01*
X180792098Y-95722329D01*
X180821395Y-95667520D01*
X180830086Y-95638868D01*
X180839435Y-95608048D01*
X180844001Y-95561692D01*
X180844001Y-95561682D01*
X180845526Y-95546200D01*
X180844001Y-95530717D01*
X180844001Y-91456483D01*
X180845526Y-91441000D01*
X180844001Y-91425518D01*
X180844001Y-91425508D01*
X180839435Y-91379152D01*
X180821395Y-91319680D01*
X180792098Y-91264871D01*
X180779894Y-91250000D01*
X180762548Y-91228863D01*
X180762543Y-91228858D01*
X180752672Y-91216830D01*
X180740644Y-91206959D01*
X180139587Y-90605904D01*
X180116693Y-90578007D01*
X180068347Y-90538331D01*
X180013190Y-90508849D01*
X179953341Y-90490694D01*
X179906696Y-90486100D01*
X179855504Y-90486100D01*
X179835197Y-90488100D01*
X178044284Y-90488100D01*
X177947605Y-90391421D01*
X178611100Y-90391421D01*
X178648444Y-90387743D01*
X178684354Y-90376850D01*
X178717448Y-90359161D01*
X178746455Y-90335355D01*
X178770261Y-90306348D01*
X178787950Y-90273254D01*
X178798843Y-90237344D01*
X178802521Y-90200000D01*
X178802521Y-89200000D01*
X178798843Y-89162656D01*
X178787950Y-89126746D01*
X178770261Y-89093652D01*
X178746455Y-89064645D01*
X178717448Y-89040839D01*
X178684354Y-89023150D01*
X178648444Y-89012257D01*
X178611100Y-89008579D01*
X178526600Y-89008579D01*
X178526600Y-86978600D01*
X178629679Y-86978600D01*
X178629679Y-88628600D01*
X178633357Y-88665944D01*
X178644250Y-88701854D01*
X178661939Y-88734948D01*
X178685745Y-88763955D01*
X178714752Y-88787761D01*
X178747846Y-88805450D01*
X178783756Y-88816343D01*
X178821100Y-88820021D01*
X180221100Y-88820021D01*
X180258444Y-88816343D01*
X180294354Y-88805450D01*
X180327448Y-88787761D01*
X180356455Y-88763955D01*
X180380261Y-88734948D01*
X180397950Y-88701854D01*
X180408843Y-88665944D01*
X180412521Y-88628600D01*
X180412521Y-86978600D01*
X180408843Y-86941256D01*
X180397950Y-86905346D01*
X180380261Y-86872252D01*
X180356455Y-86843245D01*
X180327448Y-86819439D01*
X180294354Y-86801750D01*
X180258444Y-86790857D01*
X180221100Y-86787179D01*
X180168600Y-86787179D01*
X180168600Y-86445021D01*
X180251100Y-86445021D01*
X180288444Y-86441343D01*
X180324354Y-86430450D01*
X180357448Y-86412761D01*
X180386455Y-86388955D01*
X180410261Y-86359948D01*
X180427950Y-86326854D01*
X180438843Y-86290944D01*
X180442521Y-86253600D01*
X180442521Y-85453600D01*
X180438843Y-85416256D01*
X180427950Y-85380346D01*
X180410261Y-85347252D01*
X180386455Y-85318245D01*
X180357448Y-85294439D01*
X180324354Y-85276750D01*
X180288444Y-85265857D01*
X180251100Y-85262179D01*
X179451100Y-85262179D01*
X179413756Y-85265857D01*
X179377846Y-85276750D01*
X179344752Y-85294439D01*
X179315745Y-85318245D01*
X179291939Y-85347252D01*
X179274250Y-85380346D01*
X179263357Y-85416256D01*
X179259679Y-85453600D01*
X179259679Y-86253600D01*
X179263357Y-86290944D01*
X179274250Y-86326854D01*
X179291939Y-86359948D01*
X179315745Y-86388955D01*
X179344752Y-86412761D01*
X179377846Y-86430450D01*
X179413756Y-86441343D01*
X179451100Y-86445021D01*
X179533601Y-86445021D01*
X179533600Y-86787179D01*
X178821100Y-86787179D01*
X178783756Y-86790857D01*
X178747846Y-86801750D01*
X178714752Y-86819439D01*
X178685745Y-86843245D01*
X178661939Y-86872252D01*
X178644250Y-86905346D01*
X178633357Y-86941256D01*
X178629679Y-86978600D01*
X178526600Y-86978600D01*
X178526600Y-86445021D01*
X178601100Y-86445021D01*
X178638444Y-86441343D01*
X178674354Y-86430450D01*
X178707448Y-86412761D01*
X178736455Y-86388955D01*
X178760261Y-86359948D01*
X178777950Y-86326854D01*
X178788843Y-86290944D01*
X178792521Y-86253600D01*
X178792521Y-85453600D01*
X178788843Y-85416256D01*
X178777950Y-85380346D01*
X178760261Y-85347252D01*
X178736455Y-85318245D01*
X178707448Y-85294439D01*
X178674354Y-85276750D01*
X178638444Y-85265857D01*
X178601100Y-85262179D01*
X177998651Y-85262179D01*
X178053976Y-85179381D01*
X178096845Y-85075884D01*
X178118700Y-84966012D01*
X178118700Y-84853988D01*
X178096845Y-84744116D01*
X178053976Y-84640619D01*
X177991738Y-84547475D01*
X177973164Y-84528901D01*
X179209403Y-84528901D01*
X179222499Y-84530191D01*
X179235595Y-84528901D01*
X179235597Y-84528901D01*
X179274781Y-84525042D01*
X179325054Y-84509791D01*
X179371386Y-84485027D01*
X179411997Y-84451699D01*
X179420353Y-84441517D01*
X179636849Y-84225021D01*
X180251100Y-84225021D01*
X180288444Y-84221343D01*
X180324354Y-84210450D01*
X180357448Y-84192761D01*
X180386455Y-84168955D01*
X180410261Y-84139948D01*
X180427950Y-84106854D01*
X180438843Y-84070944D01*
X180442521Y-84033600D01*
X180442521Y-83233600D01*
X180438843Y-83196256D01*
X180427950Y-83160346D01*
X180410261Y-83127252D01*
X180386455Y-83098245D01*
X180357448Y-83074439D01*
X180324354Y-83056750D01*
X180288444Y-83045857D01*
X180251100Y-83042179D01*
X179451100Y-83042179D01*
X179413756Y-83045857D01*
X179377846Y-83056750D01*
X179344752Y-83074439D01*
X179315745Y-83098245D01*
X179291939Y-83127252D01*
X179274250Y-83160346D01*
X179263357Y-83196256D01*
X179259679Y-83233600D01*
X179259679Y-83847851D01*
X179112029Y-83995501D01*
X178792521Y-83995501D01*
X178792521Y-83233600D01*
X178788843Y-83196256D01*
X178777950Y-83160346D01*
X178760261Y-83127252D01*
X178736455Y-83098245D01*
X178707448Y-83074439D01*
X178674354Y-83056750D01*
X178638444Y-83045857D01*
X178601100Y-83042179D01*
X177801100Y-83042179D01*
X177763756Y-83045857D01*
X177727846Y-83056750D01*
X177694752Y-83074439D01*
X177665745Y-83098245D01*
X177641939Y-83127252D01*
X177624250Y-83160346D01*
X177613357Y-83196256D01*
X177609679Y-83233600D01*
X177609679Y-83316100D01*
X177502521Y-83316100D01*
X177502521Y-83233600D01*
X177498843Y-83196256D01*
X177487950Y-83160346D01*
X177470261Y-83127252D01*
X177446455Y-83098245D01*
X177417448Y-83074439D01*
X177384354Y-83056750D01*
X177348444Y-83045857D01*
X177311100Y-83042179D01*
X176813313Y-83042179D01*
X176488634Y-82673518D01*
X176472293Y-82653607D01*
X176455882Y-82640139D01*
X176440384Y-82625685D01*
X176431782Y-82620361D01*
X176423947Y-82613931D01*
X176405226Y-82603924D01*
X176387204Y-82592770D01*
X176377726Y-82589225D01*
X176368790Y-82584449D01*
X176348486Y-82578290D01*
X176328625Y-82570862D01*
X176318632Y-82569234D01*
X176308941Y-82566294D01*
X176287830Y-82564215D01*
X176266897Y-82560804D01*
X176241184Y-82561700D01*
X174425960Y-82561700D01*
X174410367Y-82560164D01*
X174394774Y-82561700D01*
X174394772Y-82561700D01*
X174348127Y-82566294D01*
X174288278Y-82584449D01*
X174233121Y-82613931D01*
X174192608Y-82647179D01*
X172911100Y-82647179D01*
X172873756Y-82650857D01*
X172837846Y-82661750D01*
X172804752Y-82679439D01*
X172775745Y-82703245D01*
X172751939Y-82732252D01*
X172734250Y-82765346D01*
X172723357Y-82801256D01*
X172719679Y-82838600D01*
X172719679Y-84488600D01*
X172723357Y-84525944D01*
X172734250Y-84561854D01*
X172751939Y-84594948D01*
X172775745Y-84623955D01*
X172804752Y-84647761D01*
X172837846Y-84665450D01*
X172873756Y-84676343D01*
X172911100Y-84680021D01*
X174085666Y-84680021D01*
X172869741Y-85895947D01*
X172886650Y-85810937D01*
X172886650Y-85689063D01*
X172862874Y-85569532D01*
X172816235Y-85456935D01*
X172748526Y-85355602D01*
X172662348Y-85269424D01*
X172583450Y-85216706D01*
X172583450Y-82394694D01*
X172623065Y-82378285D01*
X172724398Y-82310576D01*
X172770823Y-82264151D01*
X172781939Y-82284948D01*
X172805745Y-82313955D01*
X172834752Y-82337761D01*
X172867846Y-82355450D01*
X172903756Y-82366343D01*
X172941100Y-82370021D01*
X174341100Y-82370021D01*
X174378444Y-82366343D01*
X174414354Y-82355450D01*
X174447448Y-82337761D01*
X174476455Y-82313955D01*
X174500261Y-82284948D01*
X174517950Y-82251854D01*
X174528843Y-82215944D01*
X174532521Y-82178600D01*
X174532521Y-81671100D01*
X177639679Y-81671100D01*
X177639679Y-81773600D01*
X177643357Y-81810944D01*
X177654250Y-81846854D01*
X177671939Y-81879948D01*
X177695745Y-81908955D01*
X177724752Y-81932761D01*
X177757846Y-81950450D01*
X177793756Y-81961343D01*
X177831100Y-81965021D01*
X178631100Y-81965021D01*
X178668444Y-81961343D01*
X178704354Y-81950450D01*
X178737448Y-81932761D01*
X178766455Y-81908955D01*
X178790261Y-81879948D01*
X178807950Y-81846854D01*
X178818843Y-81810944D01*
X178822521Y-81773600D01*
X178822521Y-80973600D01*
X178818843Y-80936256D01*
X178807950Y-80900346D01*
X178790261Y-80867252D01*
X178766455Y-80838245D01*
X178737448Y-80814439D01*
X178704354Y-80796750D01*
X178668444Y-80785857D01*
X178631100Y-80782179D01*
X177831100Y-80782179D01*
X177793756Y-80785857D01*
X177757846Y-80796750D01*
X177724752Y-80814439D01*
X177695745Y-80838245D01*
X177671939Y-80867252D01*
X177654250Y-80900346D01*
X177643357Y-80936256D01*
X177639679Y-80973600D01*
X177639679Y-81036100D01*
X174532521Y-81036100D01*
X174532521Y-80566699D01*
X178628016Y-80566699D01*
X179289679Y-81228363D01*
X179289679Y-81773600D01*
X179293357Y-81810944D01*
X179304250Y-81846854D01*
X179321939Y-81879948D01*
X179345745Y-81908955D01*
X179374752Y-81932761D01*
X179407846Y-81950450D01*
X179443756Y-81961343D01*
X179481100Y-81965021D01*
X180281100Y-81965021D01*
X180318444Y-81961343D01*
X180354354Y-81950450D01*
X180387448Y-81932761D01*
X180416455Y-81908955D01*
X180440261Y-81879948D01*
X180457950Y-81846854D01*
X180468843Y-81810944D01*
X180472521Y-81773600D01*
X180472521Y-80973600D01*
X180468843Y-80936256D01*
X180457950Y-80900346D01*
X180440261Y-80867252D01*
X180416455Y-80838245D01*
X180387448Y-80814439D01*
X180354354Y-80796750D01*
X180318444Y-80785857D01*
X180281100Y-80782179D01*
X179735863Y-80782179D01*
X178992750Y-80039067D01*
X178982870Y-80027028D01*
X178934829Y-79987602D01*
X178880020Y-79958305D01*
X178820548Y-79940265D01*
X178774192Y-79935699D01*
X178774181Y-79935699D01*
X178758699Y-79934174D01*
X178743217Y-79935699D01*
X168904283Y-79935699D01*
X168888800Y-79934174D01*
X168873318Y-79935699D01*
X168873308Y-79935699D01*
X168826952Y-79940265D01*
X168767480Y-79958305D01*
X168712671Y-79987602D01*
X168676663Y-80017152D01*
X168676658Y-80017157D01*
X168664630Y-80027028D01*
X168654758Y-80039057D01*
X168380021Y-80313795D01*
X168308159Y-80299500D01*
X168191841Y-80299500D01*
X168077758Y-80322193D01*
X167970293Y-80366706D01*
X167873578Y-80431329D01*
X167791329Y-80513578D01*
X167726706Y-80610293D01*
X167682193Y-80717758D01*
X167659500Y-80831841D01*
X167659500Y-80948159D01*
X167682193Y-81062242D01*
X167726706Y-81169707D01*
X167791329Y-81266422D01*
X167873578Y-81348671D01*
X167970293Y-81413294D01*
X168077758Y-81457807D01*
X168191841Y-81480500D01*
X168308159Y-81480500D01*
X168422242Y-81457807D01*
X168529707Y-81413294D01*
X168626422Y-81348671D01*
X168708671Y-81266422D01*
X168773294Y-81169707D01*
X168817807Y-81062242D01*
X168840500Y-80948159D01*
X168840500Y-80831841D01*
X168826205Y-80759979D01*
X169019486Y-80566699D01*
X172749679Y-80566699D01*
X172749679Y-81374705D01*
X172724398Y-81349424D01*
X172623065Y-81281715D01*
X172510468Y-81235076D01*
X172390937Y-81211300D01*
X172269063Y-81211300D01*
X172149532Y-81235076D01*
X172036935Y-81281715D01*
X171935602Y-81349424D01*
X171849424Y-81435602D01*
X171781715Y-81536935D01*
X171735076Y-81649532D01*
X171711300Y-81769063D01*
X171711300Y-81890937D01*
X171735076Y-82010468D01*
X171781715Y-82123065D01*
X171849424Y-82224398D01*
X171935602Y-82310576D01*
X171952451Y-82321834D01*
X171952450Y-84547542D01*
X171952451Y-84547552D01*
X171952450Y-85216705D01*
X171873552Y-85269424D01*
X171787374Y-85355602D01*
X171719665Y-85456935D01*
X171673026Y-85569532D01*
X171649250Y-85689063D01*
X171649250Y-85810937D01*
X171673026Y-85930468D01*
X171719665Y-86043065D01*
X171787374Y-86144398D01*
X171873552Y-86230576D01*
X171974885Y-86298285D01*
X172038174Y-86324500D01*
X171735564Y-86324500D01*
X171720081Y-86322975D01*
X171704599Y-86324500D01*
X171704589Y-86324500D01*
X171658233Y-86329066D01*
X171598761Y-86347106D01*
X171543952Y-86376403D01*
X171507944Y-86405953D01*
X171507939Y-86405958D01*
X171495911Y-86415829D01*
X171486039Y-86427858D01*
X171038304Y-86875594D01*
X170945237Y-86857082D01*
X170823363Y-86857082D01*
X170703832Y-86880858D01*
X170591235Y-86927497D01*
X170489902Y-86995206D01*
X170403724Y-87081384D01*
X170336015Y-87182717D01*
X170289376Y-87295314D01*
X170265600Y-87414845D01*
X170265600Y-87536719D01*
X170289376Y-87656250D01*
X170306681Y-87698029D01*
X166702936Y-84094284D01*
X166694580Y-84084102D01*
X166653969Y-84050774D01*
X166607637Y-84026010D01*
X166557364Y-84010759D01*
X166518180Y-84006900D01*
X166518178Y-84006900D01*
X166505082Y-84005610D01*
X166491986Y-84006900D01*
X165960586Y-84006900D01*
X165959476Y-84004219D01*
X165897238Y-83911075D01*
X165890463Y-83904300D01*
X170119679Y-83904300D01*
X170119679Y-84488600D01*
X170123357Y-84525944D01*
X170134250Y-84561854D01*
X170151939Y-84594948D01*
X170175745Y-84623955D01*
X170204752Y-84647761D01*
X170237846Y-84665450D01*
X170273756Y-84676343D01*
X170311100Y-84680021D01*
X171711100Y-84680021D01*
X171748444Y-84676343D01*
X171784354Y-84665450D01*
X171817448Y-84647761D01*
X171846455Y-84623955D01*
X171870261Y-84594948D01*
X171887950Y-84561854D01*
X171898843Y-84525944D01*
X171902521Y-84488600D01*
X171902521Y-82838600D01*
X171898843Y-82801256D01*
X171887950Y-82765346D01*
X171870261Y-82732252D01*
X171846455Y-82703245D01*
X171817448Y-82679439D01*
X171784354Y-82661750D01*
X171748444Y-82650857D01*
X171711100Y-82647179D01*
X170311100Y-82647179D01*
X170273756Y-82650857D01*
X170237846Y-82661750D01*
X170204752Y-82679439D01*
X170175745Y-82703245D01*
X170151939Y-82732252D01*
X170134250Y-82765346D01*
X170123357Y-82801256D01*
X170119679Y-82838600D01*
X170119679Y-83269300D01*
X165059742Y-83269300D01*
X165044149Y-83267764D01*
X165028556Y-83269300D01*
X165028554Y-83269300D01*
X164981909Y-83273894D01*
X164922060Y-83292049D01*
X164866903Y-83321531D01*
X164818557Y-83361207D01*
X164808613Y-83373324D01*
X163874025Y-84307913D01*
X163861908Y-84317857D01*
X163822232Y-84366203D01*
X163816913Y-84376155D01*
X163792749Y-84421361D01*
X163774594Y-84481210D01*
X163768464Y-84543450D01*
X115724201Y-84543450D01*
X115724201Y-82309704D01*
X159811300Y-82309704D01*
X159811300Y-82431578D01*
X159835076Y-82551109D01*
X159881715Y-82663706D01*
X159949424Y-82765039D01*
X160035602Y-82851217D01*
X160136935Y-82918926D01*
X160249532Y-82965565D01*
X160369063Y-82989341D01*
X160490937Y-82989341D01*
X160610468Y-82965565D01*
X160723065Y-82918926D01*
X160824398Y-82851217D01*
X160910576Y-82765039D01*
X160963294Y-82686141D01*
X163210712Y-82686141D01*
X163263430Y-82765039D01*
X163349608Y-82851217D01*
X163450941Y-82918926D01*
X163563538Y-82965565D01*
X163683069Y-82989341D01*
X163804943Y-82989341D01*
X163924474Y-82965565D01*
X164037071Y-82918926D01*
X164138404Y-82851217D01*
X164224582Y-82765039D01*
X164292291Y-82663706D01*
X164338930Y-82551109D01*
X164362706Y-82431578D01*
X164362706Y-82309704D01*
X164338930Y-82190173D01*
X164292291Y-82077576D01*
X164224582Y-81976243D01*
X164138404Y-81890065D01*
X164037071Y-81822356D01*
X163924474Y-81775717D01*
X163804943Y-81751941D01*
X163683069Y-81751941D01*
X163563538Y-81775717D01*
X163450941Y-81822356D01*
X163349608Y-81890065D01*
X163263430Y-81976243D01*
X163210712Y-82055141D01*
X160963294Y-82055141D01*
X160910576Y-81976243D01*
X160824398Y-81890065D01*
X160723065Y-81822356D01*
X160610468Y-81775717D01*
X160490937Y-81751941D01*
X160369063Y-81751941D01*
X160249532Y-81775717D01*
X160136935Y-81822356D01*
X160035602Y-81890065D01*
X159949424Y-81976243D01*
X159881715Y-82077576D01*
X159835076Y-82190173D01*
X159811300Y-82309704D01*
X115724201Y-82309704D01*
X115724201Y-79566701D01*
X181278000Y-79566701D01*
X181277999Y-128977463D01*
G37*
%TD.AperFunction*%
%TD*%
D27*
%TO.N,/SB*%
X145969200Y-123312179D02*
X144961100Y-123312179D01*
X144923756Y-123315857D01*
X144887846Y-123326750D01*
X144854752Y-123344439D01*
X144825745Y-123368245D01*
X144801939Y-123397252D01*
X144784250Y-123430346D01*
X144773357Y-123466256D01*
X144769679Y-123503600D01*
X144769679Y-123541700D01*
X144737300Y-123541700D01*
X144729867Y-123542432D01*
X144722720Y-123544600D01*
X144716133Y-123548121D01*
X144710359Y-123552859D01*
X144705621Y-123558633D01*
X144702100Y-123565220D01*
X144699932Y-123572367D01*
X144699200Y-123579800D01*
X144699200Y-130440499D01*
X129593000Y-130440499D01*
X129593000Y-123555500D01*
X131474900Y-123555500D01*
X131482333Y-123554768D01*
X131489480Y-123552600D01*
X131496067Y-123549079D01*
X131501841Y-123544341D01*
X131506579Y-123538567D01*
X131510100Y-123531980D01*
X131512268Y-123524833D01*
X131513000Y-123517400D01*
X131513000Y-122413850D01*
X131547945Y-122329484D01*
X131569800Y-122219612D01*
X131569800Y-122107588D01*
X131547945Y-121997716D01*
X131513000Y-121913350D01*
X131513000Y-101559086D01*
X135276600Y-101559086D01*
X135288819Y-101683150D01*
X135337109Y-101842339D01*
X135415527Y-101989048D01*
X135521059Y-102117641D01*
X135649651Y-102223173D01*
X135796360Y-102301591D01*
X135955549Y-102349881D01*
X136121100Y-102366186D01*
X136286650Y-102349881D01*
X136445839Y-102301591D01*
X136592548Y-102223173D01*
X136721141Y-102117641D01*
X136826673Y-101989049D01*
X136905091Y-101842340D01*
X136953381Y-101683151D01*
X136965600Y-101559087D01*
X136965600Y-100168113D01*
X136964616Y-100158114D01*
X137776600Y-100158114D01*
X137776601Y-101549087D01*
X137788820Y-101673151D01*
X137837110Y-101832340D01*
X137915528Y-101979049D01*
X138021060Y-102107641D01*
X138149652Y-102213173D01*
X138296361Y-102291591D01*
X138455550Y-102339881D01*
X138621100Y-102356186D01*
X138786651Y-102339881D01*
X138945840Y-102291591D01*
X139092549Y-102213173D01*
X139221141Y-102107641D01*
X139326673Y-101979049D01*
X139405091Y-101832340D01*
X139453381Y-101673151D01*
X139464615Y-101559086D01*
X140356600Y-101559086D01*
X140368819Y-101683150D01*
X140417109Y-101842339D01*
X140495527Y-101989048D01*
X140601059Y-102117641D01*
X140729651Y-102223173D01*
X140876360Y-102301591D01*
X141035549Y-102349881D01*
X141201100Y-102366186D01*
X141366650Y-102349881D01*
X141525839Y-102301591D01*
X141672548Y-102223173D01*
X141801141Y-102117641D01*
X141906673Y-101989049D01*
X141985091Y-101842340D01*
X142033381Y-101683151D01*
X142045600Y-101559087D01*
X142045600Y-100168113D01*
X142033381Y-100044049D01*
X141985091Y-99884860D01*
X141906673Y-99738151D01*
X141801141Y-99609559D01*
X141672549Y-99504027D01*
X141525840Y-99425609D01*
X141366651Y-99377319D01*
X141201100Y-99361014D01*
X141035550Y-99377319D01*
X140876361Y-99425609D01*
X140729652Y-99504027D01*
X140601060Y-99609559D01*
X140495528Y-99738151D01*
X140417110Y-99884860D01*
X140368820Y-100044049D01*
X140356601Y-100168113D01*
X140356600Y-101559086D01*
X139464615Y-101559086D01*
X139465600Y-101549087D01*
X139465600Y-100158113D01*
X139453381Y-100034049D01*
X139405091Y-99874860D01*
X139326673Y-99728151D01*
X139221141Y-99599559D01*
X139092548Y-99494027D01*
X138945839Y-99415609D01*
X138786650Y-99367319D01*
X138621100Y-99351014D01*
X138455549Y-99367319D01*
X138296360Y-99415609D01*
X138149651Y-99494027D01*
X138021059Y-99599559D01*
X137915527Y-99728152D01*
X137837109Y-99874861D01*
X137788819Y-100034050D01*
X137776600Y-100158114D01*
X136964616Y-100158114D01*
X136953381Y-100044049D01*
X136905091Y-99884860D01*
X136826673Y-99738151D01*
X136721141Y-99609559D01*
X136592549Y-99504027D01*
X136445840Y-99425609D01*
X136286651Y-99377319D01*
X136121100Y-99361014D01*
X135955550Y-99377319D01*
X135796361Y-99425609D01*
X135649652Y-99504027D01*
X135521060Y-99609559D01*
X135415528Y-99738151D01*
X135337110Y-99884860D01*
X135288820Y-100044049D01*
X135276601Y-100168113D01*
X135276600Y-101559086D01*
X131513000Y-101559086D01*
X131513000Y-99265500D01*
X145969200Y-99265500D01*
X145969200Y-123312179D01*
%TA.AperFunction,Conductor*%
D28*
G36*
X145969200Y-123312179D02*
G01*
X144961100Y-123312179D01*
X144923756Y-123315857D01*
X144887846Y-123326750D01*
X144854752Y-123344439D01*
X144825745Y-123368245D01*
X144801939Y-123397252D01*
X144784250Y-123430346D01*
X144773357Y-123466256D01*
X144769679Y-123503600D01*
X144769679Y-123541700D01*
X144737300Y-123541700D01*
X144729867Y-123542432D01*
X144722720Y-123544600D01*
X144716133Y-123548121D01*
X144710359Y-123552859D01*
X144705621Y-123558633D01*
X144702100Y-123565220D01*
X144699932Y-123572367D01*
X144699200Y-123579800D01*
X144699200Y-130440499D01*
X129593000Y-130440499D01*
X129593000Y-123555500D01*
X131474900Y-123555500D01*
X131482333Y-123554768D01*
X131489480Y-123552600D01*
X131496067Y-123549079D01*
X131501841Y-123544341D01*
X131506579Y-123538567D01*
X131510100Y-123531980D01*
X131512268Y-123524833D01*
X131513000Y-123517400D01*
X131513000Y-122413850D01*
X131547945Y-122329484D01*
X131569800Y-122219612D01*
X131569800Y-122107588D01*
X131547945Y-121997716D01*
X131513000Y-121913350D01*
X131513000Y-101559086D01*
X135276600Y-101559086D01*
X135288819Y-101683150D01*
X135337109Y-101842339D01*
X135415527Y-101989048D01*
X135521059Y-102117641D01*
X135649651Y-102223173D01*
X135796360Y-102301591D01*
X135955549Y-102349881D01*
X136121100Y-102366186D01*
X136286650Y-102349881D01*
X136445839Y-102301591D01*
X136592548Y-102223173D01*
X136721141Y-102117641D01*
X136826673Y-101989049D01*
X136905091Y-101842340D01*
X136953381Y-101683151D01*
X136965600Y-101559087D01*
X136965600Y-100168113D01*
X136964616Y-100158114D01*
X137776600Y-100158114D01*
X137776601Y-101549087D01*
X137788820Y-101673151D01*
X137837110Y-101832340D01*
X137915528Y-101979049D01*
X138021060Y-102107641D01*
X138149652Y-102213173D01*
X138296361Y-102291591D01*
X138455550Y-102339881D01*
X138621100Y-102356186D01*
X138786651Y-102339881D01*
X138945840Y-102291591D01*
X139092549Y-102213173D01*
X139221141Y-102107641D01*
X139326673Y-101979049D01*
X139405091Y-101832340D01*
X139453381Y-101673151D01*
X139464615Y-101559086D01*
X140356600Y-101559086D01*
X140368819Y-101683150D01*
X140417109Y-101842339D01*
X140495527Y-101989048D01*
X140601059Y-102117641D01*
X140729651Y-102223173D01*
X140876360Y-102301591D01*
X141035549Y-102349881D01*
X141201100Y-102366186D01*
X141366650Y-102349881D01*
X141525839Y-102301591D01*
X141672548Y-102223173D01*
X141801141Y-102117641D01*
X141906673Y-101989049D01*
X141985091Y-101842340D01*
X142033381Y-101683151D01*
X142045600Y-101559087D01*
X142045600Y-100168113D01*
X142033381Y-100044049D01*
X141985091Y-99884860D01*
X141906673Y-99738151D01*
X141801141Y-99609559D01*
X141672549Y-99504027D01*
X141525840Y-99425609D01*
X141366651Y-99377319D01*
X141201100Y-99361014D01*
X141035550Y-99377319D01*
X140876361Y-99425609D01*
X140729652Y-99504027D01*
X140601060Y-99609559D01*
X140495528Y-99738151D01*
X140417110Y-99884860D01*
X140368820Y-100044049D01*
X140356601Y-100168113D01*
X140356600Y-101559086D01*
X139464615Y-101559086D01*
X139465600Y-101549087D01*
X139465600Y-100158113D01*
X139453381Y-100034049D01*
X139405091Y-99874860D01*
X139326673Y-99728151D01*
X139221141Y-99599559D01*
X139092548Y-99494027D01*
X138945839Y-99415609D01*
X138786650Y-99367319D01*
X138621100Y-99351014D01*
X138455549Y-99367319D01*
X138296360Y-99415609D01*
X138149651Y-99494027D01*
X138021059Y-99599559D01*
X137915527Y-99728152D01*
X137837109Y-99874861D01*
X137788819Y-100034050D01*
X137776600Y-100158114D01*
X136964616Y-100158114D01*
X136953381Y-100044049D01*
X136905091Y-99884860D01*
X136826673Y-99738151D01*
X136721141Y-99609559D01*
X136592549Y-99504027D01*
X136445840Y-99425609D01*
X136286651Y-99377319D01*
X136121100Y-99361014D01*
X135955550Y-99377319D01*
X135796361Y-99425609D01*
X135649652Y-99504027D01*
X135521060Y-99609559D01*
X135415528Y-99738151D01*
X135337110Y-99884860D01*
X135288820Y-100044049D01*
X135276601Y-100168113D01*
X135276600Y-101559086D01*
X131513000Y-101559086D01*
X131513000Y-99265500D01*
X145969200Y-99265500D01*
X145969200Y-123312179D01*
G37*
%TD.AperFunction*%
%TD*%
D27*
%TO.N,/SA*%
X131269200Y-112961181D02*
X131247124Y-112994219D01*
X131204255Y-113097716D01*
X131182400Y-113207588D01*
X131182400Y-113319612D01*
X131204255Y-113429484D01*
X131247124Y-113532981D01*
X131269200Y-113566019D01*
X131269200Y-113861181D01*
X131247124Y-113894219D01*
X131204255Y-113997716D01*
X131182400Y-114107588D01*
X131182400Y-114219612D01*
X131204255Y-114329484D01*
X131247124Y-114432981D01*
X131269200Y-114466019D01*
X131269200Y-114761181D01*
X131247124Y-114794219D01*
X131204255Y-114897716D01*
X131182400Y-115007588D01*
X131182400Y-115119612D01*
X131204255Y-115229484D01*
X131247124Y-115332981D01*
X131269200Y-115366019D01*
X131269200Y-115661181D01*
X131247124Y-115694219D01*
X131204255Y-115797716D01*
X131182400Y-115907588D01*
X131182400Y-116019612D01*
X131204255Y-116129484D01*
X131247124Y-116232981D01*
X131269200Y-116266019D01*
X131269200Y-116561181D01*
X131247124Y-116594219D01*
X131204255Y-116697716D01*
X131182400Y-116807588D01*
X131182400Y-116919612D01*
X131204255Y-117029484D01*
X131247124Y-117132981D01*
X131269200Y-117166019D01*
X131269200Y-117461181D01*
X131247124Y-117494219D01*
X131204255Y-117597716D01*
X131182400Y-117707588D01*
X131182400Y-117819612D01*
X131204255Y-117929484D01*
X131247124Y-118032981D01*
X131269200Y-118066019D01*
X131269200Y-118361181D01*
X131247124Y-118394219D01*
X131204255Y-118497716D01*
X131182400Y-118607588D01*
X131182400Y-118719612D01*
X131204255Y-118829484D01*
X131247124Y-118932981D01*
X131269200Y-118966019D01*
X131269200Y-119261181D01*
X131247124Y-119294219D01*
X131204255Y-119397716D01*
X131182400Y-119507588D01*
X131182400Y-119619612D01*
X131204255Y-119729484D01*
X131247124Y-119832981D01*
X131269200Y-119866019D01*
X131269200Y-120161181D01*
X131247124Y-120194219D01*
X131204255Y-120297716D01*
X131182400Y-120407588D01*
X131182400Y-120519612D01*
X131204255Y-120629484D01*
X131247124Y-120732981D01*
X131269200Y-120766019D01*
X131269200Y-123312179D01*
X129721100Y-123312179D01*
X129683756Y-123315857D01*
X129664494Y-123321700D01*
X129397300Y-123321700D01*
X129389867Y-123322432D01*
X129382720Y-123324600D01*
X129376133Y-123328121D01*
X129370359Y-123332859D01*
X129365621Y-123338633D01*
X129362100Y-123345220D01*
X129359932Y-123352367D01*
X129359200Y-123359800D01*
X129359200Y-130440499D01*
X117187237Y-130440499D01*
X115724201Y-128977464D01*
X115724201Y-101559086D01*
X120576600Y-101559086D01*
X120588819Y-101683150D01*
X120637109Y-101842339D01*
X120715527Y-101989048D01*
X120821059Y-102117641D01*
X120949651Y-102223173D01*
X121096360Y-102301591D01*
X121255549Y-102349881D01*
X121421100Y-102366186D01*
X121586650Y-102349881D01*
X121745839Y-102301591D01*
X121892548Y-102223173D01*
X122021141Y-102117641D01*
X122126673Y-101989049D01*
X122205091Y-101842340D01*
X122253381Y-101683151D01*
X122265600Y-101559087D01*
X122265600Y-100168114D01*
X123076600Y-100168114D01*
X123076601Y-101559087D01*
X123088820Y-101683151D01*
X123137110Y-101842340D01*
X123215528Y-101989049D01*
X123321060Y-102117641D01*
X123449652Y-102223173D01*
X123596361Y-102301591D01*
X123755550Y-102349881D01*
X123921100Y-102366186D01*
X124086651Y-102349881D01*
X124245840Y-102301591D01*
X124392549Y-102223173D01*
X124521141Y-102117641D01*
X124626673Y-101989049D01*
X124705091Y-101842340D01*
X124753381Y-101683151D01*
X124765600Y-101559087D01*
X124765600Y-101559086D01*
X125656600Y-101559086D01*
X125668819Y-101683150D01*
X125717109Y-101842339D01*
X125795527Y-101989048D01*
X125901059Y-102117641D01*
X126029651Y-102223173D01*
X126176360Y-102301591D01*
X126335549Y-102349881D01*
X126501100Y-102366186D01*
X126666650Y-102349881D01*
X126825839Y-102301591D01*
X126972548Y-102223173D01*
X127101141Y-102117641D01*
X127206673Y-101989049D01*
X127285091Y-101842340D01*
X127333381Y-101683151D01*
X127345600Y-101559087D01*
X127345600Y-100168113D01*
X127333381Y-100044049D01*
X127285091Y-99884860D01*
X127206673Y-99738151D01*
X127101141Y-99609559D01*
X126972549Y-99504027D01*
X126825840Y-99425609D01*
X126666651Y-99377319D01*
X126501100Y-99361014D01*
X126335550Y-99377319D01*
X126176361Y-99425609D01*
X126029652Y-99504027D01*
X125901060Y-99609559D01*
X125795528Y-99738151D01*
X125717110Y-99884860D01*
X125668820Y-100044049D01*
X125656601Y-100168113D01*
X125656600Y-101559086D01*
X124765600Y-101559086D01*
X124765600Y-100168113D01*
X124753381Y-100044049D01*
X124705091Y-99884860D01*
X124626673Y-99738151D01*
X124521141Y-99609559D01*
X124392548Y-99504027D01*
X124245839Y-99425609D01*
X124086650Y-99377319D01*
X123921100Y-99361014D01*
X123755549Y-99377319D01*
X123596360Y-99425609D01*
X123449651Y-99504027D01*
X123321059Y-99609559D01*
X123215527Y-99738152D01*
X123137109Y-99884861D01*
X123088819Y-100044050D01*
X123076600Y-100168114D01*
X122265600Y-100168114D01*
X122265600Y-100168113D01*
X122253381Y-100044049D01*
X122205091Y-99884860D01*
X122126673Y-99738151D01*
X122021141Y-99609559D01*
X121892549Y-99504027D01*
X121745840Y-99425609D01*
X121586651Y-99377319D01*
X121421100Y-99361014D01*
X121255550Y-99377319D01*
X121096361Y-99425609D01*
X120949652Y-99504027D01*
X120821060Y-99609559D01*
X120715528Y-99738151D01*
X120637110Y-99884860D01*
X120588820Y-100044049D01*
X120576601Y-100168113D01*
X120576600Y-101559086D01*
X115724201Y-101559086D01*
X115724201Y-99265500D01*
X131269200Y-99265500D01*
X131269200Y-112961181D01*
%TA.AperFunction,Conductor*%
D28*
G36*
X131269200Y-112961181D02*
G01*
X131247124Y-112994219D01*
X131204255Y-113097716D01*
X131182400Y-113207588D01*
X131182400Y-113319612D01*
X131204255Y-113429484D01*
X131247124Y-113532981D01*
X131269200Y-113566019D01*
X131269200Y-113861181D01*
X131247124Y-113894219D01*
X131204255Y-113997716D01*
X131182400Y-114107588D01*
X131182400Y-114219612D01*
X131204255Y-114329484D01*
X131247124Y-114432981D01*
X131269200Y-114466019D01*
X131269200Y-114761181D01*
X131247124Y-114794219D01*
X131204255Y-114897716D01*
X131182400Y-115007588D01*
X131182400Y-115119612D01*
X131204255Y-115229484D01*
X131247124Y-115332981D01*
X131269200Y-115366019D01*
X131269200Y-115661181D01*
X131247124Y-115694219D01*
X131204255Y-115797716D01*
X131182400Y-115907588D01*
X131182400Y-116019612D01*
X131204255Y-116129484D01*
X131247124Y-116232981D01*
X131269200Y-116266019D01*
X131269200Y-116561181D01*
X131247124Y-116594219D01*
X131204255Y-116697716D01*
X131182400Y-116807588D01*
X131182400Y-116919612D01*
X131204255Y-117029484D01*
X131247124Y-117132981D01*
X131269200Y-117166019D01*
X131269200Y-117461181D01*
X131247124Y-117494219D01*
X131204255Y-117597716D01*
X131182400Y-117707588D01*
X131182400Y-117819612D01*
X131204255Y-117929484D01*
X131247124Y-118032981D01*
X131269200Y-118066019D01*
X131269200Y-118361181D01*
X131247124Y-118394219D01*
X131204255Y-118497716D01*
X131182400Y-118607588D01*
X131182400Y-118719612D01*
X131204255Y-118829484D01*
X131247124Y-118932981D01*
X131269200Y-118966019D01*
X131269200Y-119261181D01*
X131247124Y-119294219D01*
X131204255Y-119397716D01*
X131182400Y-119507588D01*
X131182400Y-119619612D01*
X131204255Y-119729484D01*
X131247124Y-119832981D01*
X131269200Y-119866019D01*
X131269200Y-120161181D01*
X131247124Y-120194219D01*
X131204255Y-120297716D01*
X131182400Y-120407588D01*
X131182400Y-120519612D01*
X131204255Y-120629484D01*
X131247124Y-120732981D01*
X131269200Y-120766019D01*
X131269200Y-123312179D01*
X129721100Y-123312179D01*
X129683756Y-123315857D01*
X129664494Y-123321700D01*
X129397300Y-123321700D01*
X129389867Y-123322432D01*
X129382720Y-123324600D01*
X129376133Y-123328121D01*
X129370359Y-123332859D01*
X129365621Y-123338633D01*
X129362100Y-123345220D01*
X129359932Y-123352367D01*
X129359200Y-123359800D01*
X129359200Y-130440499D01*
X117187237Y-130440499D01*
X115724201Y-128977464D01*
X115724201Y-101559086D01*
X120576600Y-101559086D01*
X120588819Y-101683150D01*
X120637109Y-101842339D01*
X120715527Y-101989048D01*
X120821059Y-102117641D01*
X120949651Y-102223173D01*
X121096360Y-102301591D01*
X121255549Y-102349881D01*
X121421100Y-102366186D01*
X121586650Y-102349881D01*
X121745839Y-102301591D01*
X121892548Y-102223173D01*
X122021141Y-102117641D01*
X122126673Y-101989049D01*
X122205091Y-101842340D01*
X122253381Y-101683151D01*
X122265600Y-101559087D01*
X122265600Y-100168114D01*
X123076600Y-100168114D01*
X123076601Y-101559087D01*
X123088820Y-101683151D01*
X123137110Y-101842340D01*
X123215528Y-101989049D01*
X123321060Y-102117641D01*
X123449652Y-102223173D01*
X123596361Y-102301591D01*
X123755550Y-102349881D01*
X123921100Y-102366186D01*
X124086651Y-102349881D01*
X124245840Y-102301591D01*
X124392549Y-102223173D01*
X124521141Y-102117641D01*
X124626673Y-101989049D01*
X124705091Y-101842340D01*
X124753381Y-101683151D01*
X124765600Y-101559087D01*
X124765600Y-101559086D01*
X125656600Y-101559086D01*
X125668819Y-101683150D01*
X125717109Y-101842339D01*
X125795527Y-101989048D01*
X125901059Y-102117641D01*
X126029651Y-102223173D01*
X126176360Y-102301591D01*
X126335549Y-102349881D01*
X126501100Y-102366186D01*
X126666650Y-102349881D01*
X126825839Y-102301591D01*
X126972548Y-102223173D01*
X127101141Y-102117641D01*
X127206673Y-101989049D01*
X127285091Y-101842340D01*
X127333381Y-101683151D01*
X127345600Y-101559087D01*
X127345600Y-100168113D01*
X127333381Y-100044049D01*
X127285091Y-99884860D01*
X127206673Y-99738151D01*
X127101141Y-99609559D01*
X126972549Y-99504027D01*
X126825840Y-99425609D01*
X126666651Y-99377319D01*
X126501100Y-99361014D01*
X126335550Y-99377319D01*
X126176361Y-99425609D01*
X126029652Y-99504027D01*
X125901060Y-99609559D01*
X125795528Y-99738151D01*
X125717110Y-99884860D01*
X125668820Y-100044049D01*
X125656601Y-100168113D01*
X125656600Y-101559086D01*
X124765600Y-101559086D01*
X124765600Y-100168113D01*
X124753381Y-100044049D01*
X124705091Y-99884860D01*
X124626673Y-99738151D01*
X124521141Y-99609559D01*
X124392548Y-99504027D01*
X124245839Y-99425609D01*
X124086650Y-99377319D01*
X123921100Y-99361014D01*
X123755549Y-99377319D01*
X123596360Y-99425609D01*
X123449651Y-99504027D01*
X123321059Y-99609559D01*
X123215527Y-99738152D01*
X123137109Y-99884861D01*
X123088819Y-100044050D01*
X123076600Y-100168114D01*
X122265600Y-100168114D01*
X122265600Y-100168113D01*
X122253381Y-100044049D01*
X122205091Y-99884860D01*
X122126673Y-99738151D01*
X122021141Y-99609559D01*
X121892549Y-99504027D01*
X121745840Y-99425609D01*
X121586651Y-99377319D01*
X121421100Y-99361014D01*
X121255550Y-99377319D01*
X121096361Y-99425609D01*
X120949652Y-99504027D01*
X120821060Y-99609559D01*
X120715528Y-99738151D01*
X120637110Y-99884860D01*
X120588820Y-100044049D01*
X120576601Y-100168113D01*
X120576600Y-101559086D01*
X115724201Y-101559086D01*
X115724201Y-99265500D01*
X131269200Y-99265500D01*
X131269200Y-112961181D01*
G37*
%TD.AperFunction*%
%TD*%
M02*
