%TF.GenerationSoftware,KiCad,Pcbnew,(5.1.10)-1*%
%TF.CreationDate,2022-09-23T11:43:28+09:00*%
%TF.ProjectId,(KiCad)DriveUnit_B-series(ver2.0),284b6943-6164-4294-9472-697665556e69,rev?*%
%TF.SameCoordinates,Original*%
%TF.FileFunction,Paste,Top*%
%TF.FilePolarity,Positive*%
%FSLAX46Y46*%
G04 Gerber Fmt 4.6, Leading zero omitted, Abs format (unit mm)*
G04 Created by KiCad (PCBNEW (5.1.10)-1) date 2022-09-23 11:43:28*
%MOMM*%
%LPD*%
G01*
G04 APERTURE LIST*
%ADD10R,12.700000X11.938000*%
%ADD11R,1.220000X0.780000*%
%ADD12R,2.000000X5.300000*%
%ADD13R,0.800000X0.800000*%
%ADD14R,1.650000X1.400000*%
%ADD15R,1.400000X1.650000*%
%ADD16R,1.600000X1.050000*%
%ADD17R,0.900000X1.200000*%
%ADD18R,0.800000X1.000000*%
G04 APERTURE END LIST*
D10*
%TO.C,HA*%
X126461100Y-86868200D03*
%TD*%
%TO.C,HB*%
X141161100Y-86858200D03*
%TD*%
%TO.C,LA*%
X123961100Y-114859000D03*
%TD*%
%TO.C,LB*%
X138661100Y-114859000D03*
%TD*%
D11*
%TO.C,D4*%
X173391100Y-100423600D03*
X173391100Y-96943600D03*
%TD*%
%TO.C,D5*%
X175391100Y-100443600D03*
X175391100Y-96963600D03*
%TD*%
D12*
%TO.C,EDGE1*%
X178981100Y-126153600D03*
X176441100Y-126153600D03*
X173901100Y-126153600D03*
X171361100Y-126153600D03*
X168821100Y-126153600D03*
X166281100Y-126153600D03*
X163741100Y-126153600D03*
X161201100Y-126153600D03*
X158661100Y-126153600D03*
X156121100Y-126153600D03*
X153581100Y-126153600D03*
X151041100Y-126153600D03*
X148501100Y-126153600D03*
X145961100Y-126153600D03*
X143421100Y-126153600D03*
X140881100Y-126153600D03*
X138341100Y-126153600D03*
X135801100Y-126153600D03*
X133261100Y-126153600D03*
X130721100Y-126153600D03*
X128181100Y-126153600D03*
X125641100Y-126153600D03*
X123101100Y-126153600D03*
X120561100Y-126153600D03*
X118021100Y-126153600D03*
%TD*%
D13*
%TO.C,LED1*%
X176911100Y-83633600D03*
X175261100Y-83633600D03*
%TD*%
%TO.C,LED2*%
X179851100Y-83633600D03*
X178201100Y-83633600D03*
%TD*%
%TO.C,LED3*%
X178231100Y-81373600D03*
X179881100Y-81373600D03*
%TD*%
%TO.C,LED4*%
X176911100Y-85853600D03*
X175261100Y-85853600D03*
%TD*%
%TO.C,LED5*%
X179851100Y-85853600D03*
X178201100Y-85853600D03*
%TD*%
D14*
%TO.C,R11*%
X174060000Y-110383600D03*
X174060000Y-112983600D03*
%TD*%
D15*
%TO.C,R22*%
X173641100Y-81353600D03*
X171041100Y-81353600D03*
%TD*%
%TO.C,R3*%
X173611100Y-83663600D03*
X171011100Y-83663600D03*
%TD*%
%TO.C,R4*%
X175321100Y-93953600D03*
X172721100Y-93953600D03*
%TD*%
%TO.C,R5*%
X176951100Y-93953600D03*
X179551100Y-93953600D03*
%TD*%
%TO.C,R7*%
X172601100Y-87803600D03*
X175201100Y-87803600D03*
%TD*%
%TO.C,R8*%
X179521100Y-87803600D03*
X176921100Y-87803600D03*
%TD*%
D16*
%TO.C,SA*%
X170901100Y-96463600D03*
X170901100Y-100913600D03*
%TD*%
%TO.C,SB*%
X177921100Y-100893600D03*
X177921100Y-96443600D03*
%TD*%
D17*
%TO.C,RESET*%
X178301100Y-113683600D03*
X178301100Y-109683600D03*
X179801100Y-109683600D03*
X179801100Y-113683600D03*
%TD*%
D18*
%TO.C,TR1*%
X173970000Y-89700000D03*
X173020000Y-92100000D03*
X174920000Y-92100000D03*
%TD*%
%TO.C,TR2*%
X178211100Y-89700000D03*
X177261100Y-92100000D03*
X179161100Y-92100000D03*
%TD*%
M02*
