M48
; DRILL file {KiCad (5.1.10)-1} date 09/21/22 12:49:37
; FORMAT={-:-/ absolute / inch / decimal}
; #@! TF.CreationDate,2022-09-21T12:49:37+09:00
; #@! TF.GenerationSoftware,Kicad,Pcbnew,(5.1.10)-1
FMAT,2
INCH
T1C0.0138
T2C0.0157
T3C0.0177
T4C0.0315
%
G90
G05
T1
X4.6087Y-4.4592
X4.6087Y-4.4946
X4.6087Y-4.5301
X4.6087Y-4.5655
X4.6087Y-4.6009
X4.6087Y-4.6364
X4.6087Y-4.6718
X4.6087Y-4.7072
X4.6087Y-4.7427
X4.6087Y-4.7781
X4.6087Y-4.8415
X4.626Y-4.8096
X4.6441Y-4.7781
X4.6441Y-4.8415
X4.6615Y-4.8096
X4.6796Y-4.7781
X4.6796Y-4.8415
X4.6969Y-4.8096
X4.715Y-4.7781
X4.715Y-4.8415
X4.7323Y-4.8096
X4.7504Y-4.7781
X4.7504Y-4.8415
X4.7678Y-4.8096
X4.7859Y-4.7781
X4.7859Y-4.8415
X4.8032Y-4.8096
X4.8213Y-4.7781
X4.8213Y-4.8415
X4.8386Y-4.8096
X4.8567Y-4.7781
X4.8567Y-4.8415
X4.8741Y-4.8096
X4.8922Y-4.7781
X4.8922Y-4.8415
X4.9095Y-4.8096
X4.9276Y-4.7781
X4.9276Y-4.8415
X4.9449Y-4.8096
X4.963Y-4.7781
X4.963Y-4.8415
X4.9804Y-4.8096
X4.9985Y-4.7781
X4.9985Y-4.8415
X5.0158Y-4.8096
X5.0339Y-4.7781
X5.0339Y-4.8415
X5.0512Y-4.8096
X5.0693Y-4.7781
X5.0693Y-4.8415
X5.0867Y-4.8096
X5.1048Y-4.7781
X5.1048Y-4.8415
X5.1221Y-4.8096
X5.1402Y-4.7781
X5.1402Y-4.8386
X5.1512Y-4.4592
X5.1512Y-4.4946
X5.1512Y-4.5301
X5.1512Y-4.5655
X5.1512Y-4.6009
X5.1512Y-4.6364
X5.1512Y-4.6718
X5.1512Y-4.7072
X5.1512Y-4.7427
X5.1575Y-4.8096
X5.1871Y-4.4592
X5.1871Y-4.4946
X5.1871Y-4.5301
X5.1871Y-4.5655
X5.1871Y-4.6009
X5.1871Y-4.6364
X5.1871Y-4.6718
X5.1871Y-4.7072
X5.1871Y-4.7427
X5.1934Y-4.8096
X5.2111Y-4.7781
X5.2111Y-4.8415
X5.2288Y-4.8096
X5.2465Y-4.7781
X5.2465Y-4.8415
X5.2642Y-4.8096
X5.2819Y-4.7781
X5.2819Y-4.8415
X5.2996Y-4.8096
X5.3174Y-4.7781
X5.3174Y-4.8415
X5.3351Y-4.8096
X5.3528Y-4.7781
X5.3528Y-4.8415
X5.3705Y-4.8096
X5.3882Y-4.7781
X5.3882Y-4.8415
X5.4059Y-4.8096
X5.4237Y-4.7781
X5.4237Y-4.8415
X5.4414Y-4.8096
X5.4591Y-4.7781
X5.4591Y-4.8415
X5.4768Y-4.8096
X5.4945Y-4.7781
X5.4945Y-4.8415
X5.5122Y-4.8096
X5.53Y-4.7781
X5.53Y-4.8415
X5.5477Y-4.8096
X5.5654Y-4.7781
X5.5654Y-4.8415
X5.5831Y-4.8096
X5.6008Y-4.7781
X5.6008Y-4.8415
X5.6185Y-4.8096
X5.6363Y-4.7781
X5.6363Y-4.8415
X5.654Y-4.8096
X5.6717Y-4.7781
X5.6717Y-4.8415
X5.6894Y-4.8096
X5.7071Y-4.7781
X5.7071Y-4.8386
X5.7248Y-4.8096
X5.73Y-4.4592
X5.73Y-4.4946
X5.73Y-4.5301
X5.73Y-4.5655
X5.73Y-4.6009
X5.73Y-4.6364
X5.73Y-4.6718
X5.73Y-4.7072
X5.73Y-4.7427
X6.2992Y-3.2431
X6.4431Y-3.2429
X6.4895Y-3.344
X6.514Y-3.3179
X6.6413Y-3.9421
X6.7277Y-3.442
X6.7827Y-3.273
X6.7858Y-3.5122
X6.9337Y-3.5625
X6.9504Y-3.8512
X6.9919Y-3.345
X7.0165Y-3.5894
X7.0185Y-3.7531
T2
X5.8996Y-4.515
X5.9386Y-4.513
X5.9677Y-4.6299
X5.9709Y-4.5232
X5.9724Y-4.5598
X5.9736Y-4.5957
T3
X5.8197Y-3.8554
X5.9111Y-3.9482
X6.0563Y-4.023
X6.1004Y-4.098
X6.1654Y-3.7305
X6.2268Y-4.0211
X6.2272Y-4.1135
X6.4981Y-3.7545
X6.5445Y-3.9421
X6.5682Y-3.6962
X6.589Y-3.7549
X6.6246Y-3.2247
X6.7226Y-3.6649
X6.783Y-3.3885
X6.785Y-4.4512
X6.8476Y-3.7732
X6.8855Y-3.9112
X6.9291Y-4.5181
X6.9496Y-4.7368
X6.9985Y-3.8474
X7.0493Y-4.821
X7.0823Y-3.8419
T4
X4.7804Y-3.971
X4.8788Y-3.971
X4.9804Y-3.971
X5.0788Y-3.971
X5.3591Y-3.971
X5.4575Y-3.9706
X5.5591Y-3.971
X5.6575Y-3.9706
X5.9217Y-4.5852
X6.1185Y-4.5852
X6.3906Y-4.5852
X6.5874Y-4.5852
X6.7678Y-4.1108
X6.8662Y-4.1108
X6.9646Y-4.1108
T0
M30
