%TF.GenerationSoftware,KiCad,Pcbnew,(5.1.10)-1*%
%TF.CreationDate,2022-09-21T12:49:22+09:00*%
%TF.ProjectId,(KiCad)DriveUnit_B-series(ver2.0),284b6943-6164-4294-9472-697665556e69,rev?*%
%TF.SameCoordinates,Original*%
%TF.FileFunction,Soldermask,Bot*%
%TF.FilePolarity,Negative*%
%FSLAX46Y46*%
G04 Gerber Fmt 4.6, Leading zero omitted, Abs format (unit mm)*
G04 Created by KiCad (PCBNEW (5.1.10)-1) date 2022-09-21 12:49:22*
%MOMM*%
%LPD*%
G01*
G04 APERTURE LIST*
%ADD10O,1.511200X2.819200*%
%ADD11C,1.511200*%
G04 APERTURE END LIST*
D10*
%TO.C,HA*%
X129001100Y-100863600D03*
X123921100Y-100863600D03*
%TD*%
%TO.C,HB*%
X143701100Y-100853600D03*
X138621100Y-100853600D03*
%TD*%
%TO.C,LA*%
X121421100Y-100863600D03*
X126501100Y-100863600D03*
%TD*%
%TO.C,LB*%
X136121100Y-100863600D03*
X141201100Y-100863600D03*
%TD*%
%TO.C,C1*%
G36*
G01*
X173749500Y-109133600D02*
X173749500Y-108333600D01*
G75*
G02*
X173851100Y-108232000I101600J0D01*
G01*
X174551100Y-108232000D01*
G75*
G02*
X174652700Y-108333600I0J-101600D01*
G01*
X174652700Y-109133600D01*
G75*
G02*
X174551100Y-109235200I-101600J0D01*
G01*
X173851100Y-109235200D01*
G75*
G02*
X173749500Y-109133600I0J101600D01*
G01*
G37*
G36*
G01*
X172349500Y-109133600D02*
X172349500Y-108333600D01*
G75*
G02*
X172451100Y-108232000I101600J0D01*
G01*
X173151100Y-108232000D01*
G75*
G02*
X173252700Y-108333600I0J-101600D01*
G01*
X173252700Y-109133600D01*
G75*
G02*
X173151100Y-109235200I-101600J0D01*
G01*
X172451100Y-109235200D01*
G75*
G02*
X172349500Y-109133600I0J101600D01*
G01*
G37*
%TD*%
%TO.C,C10*%
X167321100Y-116463600D03*
X162321100Y-116463600D03*
%TD*%
%TO.C,C11*%
X155410000Y-116463600D03*
X150410000Y-116463600D03*
%TD*%
%TO.C,C12*%
G36*
G01*
X151640000Y-110791600D02*
X149340000Y-110791600D01*
G75*
G02*
X149238400Y-110690000I0J101600D01*
G01*
X149238400Y-109490000D01*
G75*
G02*
X149340000Y-109388400I101600J0D01*
G01*
X151640000Y-109388400D01*
G75*
G02*
X151741600Y-109490000I0J-101600D01*
G01*
X151741600Y-110690000D01*
G75*
G02*
X151640000Y-110791600I-101600J0D01*
G01*
G37*
G36*
G01*
X151640000Y-114191600D02*
X149340000Y-114191600D01*
G75*
G02*
X149238400Y-114090000I0J101600D01*
G01*
X149238400Y-112890000D01*
G75*
G02*
X149340000Y-112788400I101600J0D01*
G01*
X151640000Y-112788400D01*
G75*
G02*
X151741600Y-112890000I0J-101600D01*
G01*
X151741600Y-114090000D01*
G75*
G02*
X151640000Y-114191600I-101600J0D01*
G01*
G37*
%TD*%
%TO.C,C13*%
G36*
G01*
X148710000Y-111781600D02*
X147310000Y-111781600D01*
G75*
G02*
X147208400Y-111680000I0J101600D01*
G01*
X147208400Y-110880000D01*
G75*
G02*
X147310000Y-110778400I101600J0D01*
G01*
X148710000Y-110778400D01*
G75*
G02*
X148811600Y-110880000I0J-101600D01*
G01*
X148811600Y-111680000D01*
G75*
G02*
X148710000Y-111781600I-101600J0D01*
G01*
G37*
G36*
G01*
X148710000Y-113781600D02*
X147310000Y-113781600D01*
G75*
G02*
X147208400Y-113680000I0J101600D01*
G01*
X147208400Y-112880000D01*
G75*
G02*
X147310000Y-112778400I101600J0D01*
G01*
X148710000Y-112778400D01*
G75*
G02*
X148811600Y-112880000I0J-101600D01*
G01*
X148811600Y-113680000D01*
G75*
G02*
X148710000Y-113781600I-101600J0D01*
G01*
G37*
%TD*%
%TO.C,C2*%
G36*
G01*
X178009500Y-109133600D02*
X178009500Y-108333600D01*
G75*
G02*
X178111100Y-108232000I101600J0D01*
G01*
X178811100Y-108232000D01*
G75*
G02*
X178912700Y-108333600I0J-101600D01*
G01*
X178912700Y-109133600D01*
G75*
G02*
X178811100Y-109235200I-101600J0D01*
G01*
X178111100Y-109235200D01*
G75*
G02*
X178009500Y-109133600I0J101600D01*
G01*
G37*
G36*
G01*
X176609500Y-109133600D02*
X176609500Y-108333600D01*
G75*
G02*
X176711100Y-108232000I101600J0D01*
G01*
X177411100Y-108232000D01*
G75*
G02*
X177512700Y-108333600I0J-101600D01*
G01*
X177512700Y-109133600D01*
G75*
G02*
X177411100Y-109235200I-101600J0D01*
G01*
X176711100Y-109235200D01*
G75*
G02*
X176609500Y-109133600I0J101600D01*
G01*
G37*
%TD*%
%TO.C,C3*%
G36*
G01*
X161269500Y-83833600D02*
X161269500Y-83033600D01*
G75*
G02*
X161371100Y-82932000I101600J0D01*
G01*
X162071100Y-82932000D01*
G75*
G02*
X162172700Y-83033600I0J-101600D01*
G01*
X162172700Y-83833600D01*
G75*
G02*
X162071100Y-83935200I-101600J0D01*
G01*
X161371100Y-83935200D01*
G75*
G02*
X161269500Y-83833600I0J101600D01*
G01*
G37*
G36*
G01*
X159869500Y-83833600D02*
X159869500Y-83033600D01*
G75*
G02*
X159971100Y-82932000I101600J0D01*
G01*
X160671100Y-82932000D01*
G75*
G02*
X160772700Y-83033600I0J-101600D01*
G01*
X160772700Y-83833600D01*
G75*
G02*
X160671100Y-83935200I-101600J0D01*
G01*
X159971100Y-83935200D01*
G75*
G02*
X159869500Y-83833600I0J101600D01*
G01*
G37*
%TD*%
%TO.C,C4*%
G36*
G01*
X162702700Y-95213600D02*
X162702700Y-96013600D01*
G75*
G02*
X162601100Y-96115200I-101600J0D01*
G01*
X161901100Y-96115200D01*
G75*
G02*
X161799500Y-96013600I0J101600D01*
G01*
X161799500Y-95213600D01*
G75*
G02*
X161901100Y-95112000I101600J0D01*
G01*
X162601100Y-95112000D01*
G75*
G02*
X162702700Y-95213600I0J-101600D01*
G01*
G37*
G36*
G01*
X164102700Y-95213600D02*
X164102700Y-96013600D01*
G75*
G02*
X164001100Y-96115200I-101600J0D01*
G01*
X163301100Y-96115200D01*
G75*
G02*
X163199500Y-96013600I0J101600D01*
G01*
X163199500Y-95213600D01*
G75*
G02*
X163301100Y-95112000I101600J0D01*
G01*
X164001100Y-95112000D01*
G75*
G02*
X164102700Y-95213600I0J-101600D01*
G01*
G37*
%TD*%
%TO.C,C5*%
G36*
G01*
X158569500Y-97223600D02*
X158569500Y-96423600D01*
G75*
G02*
X158671100Y-96322000I101600J0D01*
G01*
X159371100Y-96322000D01*
G75*
G02*
X159472700Y-96423600I0J-101600D01*
G01*
X159472700Y-97223600D01*
G75*
G02*
X159371100Y-97325200I-101600J0D01*
G01*
X158671100Y-97325200D01*
G75*
G02*
X158569500Y-97223600I0J101600D01*
G01*
G37*
G36*
G01*
X157169500Y-97223600D02*
X157169500Y-96423600D01*
G75*
G02*
X157271100Y-96322000I101600J0D01*
G01*
X157971100Y-96322000D01*
G75*
G02*
X158072700Y-96423600I0J-101600D01*
G01*
X158072700Y-97223600D01*
G75*
G02*
X157971100Y-97325200I-101600J0D01*
G01*
X157271100Y-97325200D01*
G75*
G02*
X157169500Y-97223600I0J101600D01*
G01*
G37*
%TD*%
%TO.C,C6*%
G36*
G01*
X158539500Y-84343600D02*
X158539500Y-82943600D01*
G75*
G02*
X158641100Y-82842000I101600J0D01*
G01*
X159441100Y-82842000D01*
G75*
G02*
X159542700Y-82943600I0J-101600D01*
G01*
X159542700Y-84343600D01*
G75*
G02*
X159441100Y-84445200I-101600J0D01*
G01*
X158641100Y-84445200D01*
G75*
G02*
X158539500Y-84343600I0J101600D01*
G01*
G37*
G36*
G01*
X156539500Y-84343600D02*
X156539500Y-82943600D01*
G75*
G02*
X156641100Y-82842000I101600J0D01*
G01*
X157441100Y-82842000D01*
G75*
G02*
X157542700Y-82943600I0J-101600D01*
G01*
X157542700Y-84343600D01*
G75*
G02*
X157441100Y-84445200I-101600J0D01*
G01*
X156641100Y-84445200D01*
G75*
G02*
X156539500Y-84343600I0J101600D01*
G01*
G37*
%TD*%
%TO.C,C7*%
G36*
G01*
X164469500Y-94743600D02*
X164469500Y-93943600D01*
G75*
G02*
X164571100Y-93842000I101600J0D01*
G01*
X165271100Y-93842000D01*
G75*
G02*
X165372700Y-93943600I0J-101600D01*
G01*
X165372700Y-94743600D01*
G75*
G02*
X165271100Y-94845200I-101600J0D01*
G01*
X164571100Y-94845200D01*
G75*
G02*
X164469500Y-94743600I0J101600D01*
G01*
G37*
G36*
G01*
X163069500Y-94743600D02*
X163069500Y-93943600D01*
G75*
G02*
X163171100Y-93842000I101600J0D01*
G01*
X163871100Y-93842000D01*
G75*
G02*
X163972700Y-93943600I0J-101600D01*
G01*
X163972700Y-94743600D01*
G75*
G02*
X163871100Y-94845200I-101600J0D01*
G01*
X163171100Y-94845200D01*
G75*
G02*
X163069500Y-94743600I0J101600D01*
G01*
G37*
%TD*%
%TO.C,C8*%
G36*
G01*
X160742700Y-93943600D02*
X160742700Y-94743600D01*
G75*
G02*
X160641100Y-94845200I-101600J0D01*
G01*
X159941100Y-94845200D01*
G75*
G02*
X159839500Y-94743600I0J101600D01*
G01*
X159839500Y-93943600D01*
G75*
G02*
X159941100Y-93842000I101600J0D01*
G01*
X160641100Y-93842000D01*
G75*
G02*
X160742700Y-93943600I0J-101600D01*
G01*
G37*
G36*
G01*
X162142700Y-93943600D02*
X162142700Y-94743600D01*
G75*
G02*
X162041100Y-94845200I-101600J0D01*
G01*
X161341100Y-94845200D01*
G75*
G02*
X161239500Y-94743600I0J101600D01*
G01*
X161239500Y-93943600D01*
G75*
G02*
X161341100Y-93842000I101600J0D01*
G01*
X162041100Y-93842000D01*
G75*
G02*
X162142700Y-93943600I0J-101600D01*
G01*
G37*
%TD*%
%TO.C,C9*%
G36*
G01*
X164679500Y-98173600D02*
X164679500Y-96473600D01*
G75*
G02*
X164781100Y-96372000I101600J0D01*
G01*
X165981100Y-96372000D01*
G75*
G02*
X166082700Y-96473600I0J-101600D01*
G01*
X166082700Y-98173600D01*
G75*
G02*
X165981100Y-98275200I-101600J0D01*
G01*
X164781100Y-98275200D01*
G75*
G02*
X164679500Y-98173600I0J101600D01*
G01*
G37*
G36*
G01*
X161579500Y-98173600D02*
X161579500Y-96473600D01*
G75*
G02*
X161681100Y-96372000I101600J0D01*
G01*
X162881100Y-96372000D01*
G75*
G02*
X162982700Y-96473600I0J-101600D01*
G01*
X162982700Y-98173600D01*
G75*
G02*
X162881100Y-98275200I-101600J0D01*
G01*
X161681100Y-98275200D01*
G75*
G02*
X161579500Y-98173600I0J101600D01*
G01*
G37*
%TD*%
%TO.C,D1*%
G36*
G01*
X155992700Y-94163600D02*
X155992700Y-95383600D01*
G75*
G02*
X155891100Y-95485200I-101600J0D01*
G01*
X155111100Y-95485200D01*
G75*
G02*
X155009500Y-95383600I0J101600D01*
G01*
X155009500Y-94163600D01*
G75*
G02*
X155111100Y-94062000I101600J0D01*
G01*
X155891100Y-94062000D01*
G75*
G02*
X155992700Y-94163600I0J-101600D01*
G01*
G37*
G36*
G01*
X159472700Y-94163600D02*
X159472700Y-95383600D01*
G75*
G02*
X159371100Y-95485200I-101600J0D01*
G01*
X158591100Y-95485200D01*
G75*
G02*
X158489500Y-95383600I0J101600D01*
G01*
X158489500Y-94163600D01*
G75*
G02*
X158591100Y-94062000I101600J0D01*
G01*
X159371100Y-94062000D01*
G75*
G02*
X159472700Y-94163600I0J-101600D01*
G01*
G37*
%TD*%
%TO.C,D2*%
G36*
G01*
X173672700Y-98890000D02*
X173672700Y-100110000D01*
G75*
G02*
X173571100Y-100211600I-101600J0D01*
G01*
X172791100Y-100211600D01*
G75*
G02*
X172689500Y-100110000I0J101600D01*
G01*
X172689500Y-98890000D01*
G75*
G02*
X172791100Y-98788400I101600J0D01*
G01*
X173571100Y-98788400D01*
G75*
G02*
X173672700Y-98890000I0J-101600D01*
G01*
G37*
G36*
G01*
X177152700Y-98890000D02*
X177152700Y-100110000D01*
G75*
G02*
X177051100Y-100211600I-101600J0D01*
G01*
X176271100Y-100211600D01*
G75*
G02*
X176169500Y-100110000I0J101600D01*
G01*
X176169500Y-98890000D01*
G75*
G02*
X176271100Y-98788400I101600J0D01*
G01*
X177051100Y-98788400D01*
G75*
G02*
X177152700Y-98890000I0J-101600D01*
G01*
G37*
%TD*%
%TO.C,D3*%
G36*
G01*
X178569500Y-87110000D02*
X178569500Y-85890000D01*
G75*
G02*
X178671100Y-85788400I101600J0D01*
G01*
X179451100Y-85788400D01*
G75*
G02*
X179552700Y-85890000I0J-101600D01*
G01*
X179552700Y-87110000D01*
G75*
G02*
X179451100Y-87211600I-101600J0D01*
G01*
X178671100Y-87211600D01*
G75*
G02*
X178569500Y-87110000I0J101600D01*
G01*
G37*
G36*
G01*
X175089500Y-87110000D02*
X175089500Y-85890000D01*
G75*
G02*
X175191100Y-85788400I101600J0D01*
G01*
X175971100Y-85788400D01*
G75*
G02*
X176072700Y-85890000I0J-101600D01*
G01*
X176072700Y-87110000D01*
G75*
G02*
X175971100Y-87211600I-101600J0D01*
G01*
X175191100Y-87211600D01*
G75*
G02*
X175089500Y-87110000I0J101600D01*
G01*
G37*
%TD*%
%TO.C,D6*%
G36*
G01*
X177152700Y-101390000D02*
X177152700Y-102610000D01*
G75*
G02*
X177051100Y-102711600I-101600J0D01*
G01*
X176271100Y-102711600D01*
G75*
G02*
X176169500Y-102610000I0J101600D01*
G01*
X176169500Y-101390000D01*
G75*
G02*
X176271100Y-101288400I101600J0D01*
G01*
X177051100Y-101288400D01*
G75*
G02*
X177152700Y-101390000I0J-101600D01*
G01*
G37*
G36*
G01*
X173672700Y-101390000D02*
X173672700Y-102610000D01*
G75*
G02*
X173571100Y-102711600I-101600J0D01*
G01*
X172791100Y-102711600D01*
G75*
G02*
X172689500Y-102610000I0J101600D01*
G01*
X172689500Y-101390000D01*
G75*
G02*
X172791100Y-101288400I101600J0D01*
G01*
X173571100Y-101288400D01*
G75*
G02*
X173672700Y-101390000I0J-101600D01*
G01*
G37*
%TD*%
%TO.C,EDGE1*%
G36*
G01*
X116919500Y-128803600D02*
X116919500Y-123503600D01*
G75*
G02*
X117021100Y-123402000I101600J0D01*
G01*
X119021100Y-123402000D01*
G75*
G02*
X119122700Y-123503600I0J-101600D01*
G01*
X119122700Y-128803600D01*
G75*
G02*
X119021100Y-128905200I-101600J0D01*
G01*
X117021100Y-128905200D01*
G75*
G02*
X116919500Y-128803600I0J101600D01*
G01*
G37*
G36*
G01*
X119459500Y-128803600D02*
X119459500Y-123503600D01*
G75*
G02*
X119561100Y-123402000I101600J0D01*
G01*
X121561100Y-123402000D01*
G75*
G02*
X121662700Y-123503600I0J-101600D01*
G01*
X121662700Y-128803600D01*
G75*
G02*
X121561100Y-128905200I-101600J0D01*
G01*
X119561100Y-128905200D01*
G75*
G02*
X119459500Y-128803600I0J101600D01*
G01*
G37*
G36*
G01*
X121999500Y-128803600D02*
X121999500Y-123503600D01*
G75*
G02*
X122101100Y-123402000I101600J0D01*
G01*
X124101100Y-123402000D01*
G75*
G02*
X124202700Y-123503600I0J-101600D01*
G01*
X124202700Y-128803600D01*
G75*
G02*
X124101100Y-128905200I-101600J0D01*
G01*
X122101100Y-128905200D01*
G75*
G02*
X121999500Y-128803600I0J101600D01*
G01*
G37*
G36*
G01*
X124539500Y-128803600D02*
X124539500Y-123503600D01*
G75*
G02*
X124641100Y-123402000I101600J0D01*
G01*
X126641100Y-123402000D01*
G75*
G02*
X126742700Y-123503600I0J-101600D01*
G01*
X126742700Y-128803600D01*
G75*
G02*
X126641100Y-128905200I-101600J0D01*
G01*
X124641100Y-128905200D01*
G75*
G02*
X124539500Y-128803600I0J101600D01*
G01*
G37*
G36*
G01*
X127079500Y-128803600D02*
X127079500Y-123503600D01*
G75*
G02*
X127181100Y-123402000I101600J0D01*
G01*
X129181100Y-123402000D01*
G75*
G02*
X129282700Y-123503600I0J-101600D01*
G01*
X129282700Y-128803600D01*
G75*
G02*
X129181100Y-128905200I-101600J0D01*
G01*
X127181100Y-128905200D01*
G75*
G02*
X127079500Y-128803600I0J101600D01*
G01*
G37*
G36*
G01*
X129619500Y-128803600D02*
X129619500Y-123503600D01*
G75*
G02*
X129721100Y-123402000I101600J0D01*
G01*
X131721100Y-123402000D01*
G75*
G02*
X131822700Y-123503600I0J-101600D01*
G01*
X131822700Y-128803600D01*
G75*
G02*
X131721100Y-128905200I-101600J0D01*
G01*
X129721100Y-128905200D01*
G75*
G02*
X129619500Y-128803600I0J101600D01*
G01*
G37*
G36*
G01*
X132159500Y-128803600D02*
X132159500Y-123503600D01*
G75*
G02*
X132261100Y-123402000I101600J0D01*
G01*
X134261100Y-123402000D01*
G75*
G02*
X134362700Y-123503600I0J-101600D01*
G01*
X134362700Y-128803600D01*
G75*
G02*
X134261100Y-128905200I-101600J0D01*
G01*
X132261100Y-128905200D01*
G75*
G02*
X132159500Y-128803600I0J101600D01*
G01*
G37*
G36*
G01*
X134699500Y-128803600D02*
X134699500Y-123503600D01*
G75*
G02*
X134801100Y-123402000I101600J0D01*
G01*
X136801100Y-123402000D01*
G75*
G02*
X136902700Y-123503600I0J-101600D01*
G01*
X136902700Y-128803600D01*
G75*
G02*
X136801100Y-128905200I-101600J0D01*
G01*
X134801100Y-128905200D01*
G75*
G02*
X134699500Y-128803600I0J101600D01*
G01*
G37*
G36*
G01*
X137239500Y-128803600D02*
X137239500Y-123503600D01*
G75*
G02*
X137341100Y-123402000I101600J0D01*
G01*
X139341100Y-123402000D01*
G75*
G02*
X139442700Y-123503600I0J-101600D01*
G01*
X139442700Y-128803600D01*
G75*
G02*
X139341100Y-128905200I-101600J0D01*
G01*
X137341100Y-128905200D01*
G75*
G02*
X137239500Y-128803600I0J101600D01*
G01*
G37*
G36*
G01*
X139779500Y-128803600D02*
X139779500Y-123503600D01*
G75*
G02*
X139881100Y-123402000I101600J0D01*
G01*
X141881100Y-123402000D01*
G75*
G02*
X141982700Y-123503600I0J-101600D01*
G01*
X141982700Y-128803600D01*
G75*
G02*
X141881100Y-128905200I-101600J0D01*
G01*
X139881100Y-128905200D01*
G75*
G02*
X139779500Y-128803600I0J101600D01*
G01*
G37*
G36*
G01*
X142319500Y-128803600D02*
X142319500Y-123503600D01*
G75*
G02*
X142421100Y-123402000I101600J0D01*
G01*
X144421100Y-123402000D01*
G75*
G02*
X144522700Y-123503600I0J-101600D01*
G01*
X144522700Y-128803600D01*
G75*
G02*
X144421100Y-128905200I-101600J0D01*
G01*
X142421100Y-128905200D01*
G75*
G02*
X142319500Y-128803600I0J101600D01*
G01*
G37*
G36*
G01*
X144859500Y-128803600D02*
X144859500Y-123503600D01*
G75*
G02*
X144961100Y-123402000I101600J0D01*
G01*
X146961100Y-123402000D01*
G75*
G02*
X147062700Y-123503600I0J-101600D01*
G01*
X147062700Y-128803600D01*
G75*
G02*
X146961100Y-128905200I-101600J0D01*
G01*
X144961100Y-128905200D01*
G75*
G02*
X144859500Y-128803600I0J101600D01*
G01*
G37*
G36*
G01*
X147399500Y-128803600D02*
X147399500Y-123503600D01*
G75*
G02*
X147501100Y-123402000I101600J0D01*
G01*
X149501100Y-123402000D01*
G75*
G02*
X149602700Y-123503600I0J-101600D01*
G01*
X149602700Y-128803600D01*
G75*
G02*
X149501100Y-128905200I-101600J0D01*
G01*
X147501100Y-128905200D01*
G75*
G02*
X147399500Y-128803600I0J101600D01*
G01*
G37*
G36*
G01*
X149939500Y-128803600D02*
X149939500Y-123503600D01*
G75*
G02*
X150041100Y-123402000I101600J0D01*
G01*
X152041100Y-123402000D01*
G75*
G02*
X152142700Y-123503600I0J-101600D01*
G01*
X152142700Y-128803600D01*
G75*
G02*
X152041100Y-128905200I-101600J0D01*
G01*
X150041100Y-128905200D01*
G75*
G02*
X149939500Y-128803600I0J101600D01*
G01*
G37*
G36*
G01*
X152479500Y-128803600D02*
X152479500Y-123503600D01*
G75*
G02*
X152581100Y-123402000I101600J0D01*
G01*
X154581100Y-123402000D01*
G75*
G02*
X154682700Y-123503600I0J-101600D01*
G01*
X154682700Y-128803600D01*
G75*
G02*
X154581100Y-128905200I-101600J0D01*
G01*
X152581100Y-128905200D01*
G75*
G02*
X152479500Y-128803600I0J101600D01*
G01*
G37*
G36*
G01*
X155019500Y-128803600D02*
X155019500Y-123503600D01*
G75*
G02*
X155121100Y-123402000I101600J0D01*
G01*
X157121100Y-123402000D01*
G75*
G02*
X157222700Y-123503600I0J-101600D01*
G01*
X157222700Y-128803600D01*
G75*
G02*
X157121100Y-128905200I-101600J0D01*
G01*
X155121100Y-128905200D01*
G75*
G02*
X155019500Y-128803600I0J101600D01*
G01*
G37*
G36*
G01*
X157559500Y-128803600D02*
X157559500Y-123503600D01*
G75*
G02*
X157661100Y-123402000I101600J0D01*
G01*
X159661100Y-123402000D01*
G75*
G02*
X159762700Y-123503600I0J-101600D01*
G01*
X159762700Y-128803600D01*
G75*
G02*
X159661100Y-128905200I-101600J0D01*
G01*
X157661100Y-128905200D01*
G75*
G02*
X157559500Y-128803600I0J101600D01*
G01*
G37*
G36*
G01*
X160099500Y-128803600D02*
X160099500Y-123503600D01*
G75*
G02*
X160201100Y-123402000I101600J0D01*
G01*
X162201100Y-123402000D01*
G75*
G02*
X162302700Y-123503600I0J-101600D01*
G01*
X162302700Y-128803600D01*
G75*
G02*
X162201100Y-128905200I-101600J0D01*
G01*
X160201100Y-128905200D01*
G75*
G02*
X160099500Y-128803600I0J101600D01*
G01*
G37*
G36*
G01*
X162639500Y-128803600D02*
X162639500Y-123503600D01*
G75*
G02*
X162741100Y-123402000I101600J0D01*
G01*
X164741100Y-123402000D01*
G75*
G02*
X164842700Y-123503600I0J-101600D01*
G01*
X164842700Y-128803600D01*
G75*
G02*
X164741100Y-128905200I-101600J0D01*
G01*
X162741100Y-128905200D01*
G75*
G02*
X162639500Y-128803600I0J101600D01*
G01*
G37*
G36*
G01*
X165179500Y-128803600D02*
X165179500Y-123503600D01*
G75*
G02*
X165281100Y-123402000I101600J0D01*
G01*
X167281100Y-123402000D01*
G75*
G02*
X167382700Y-123503600I0J-101600D01*
G01*
X167382700Y-128803600D01*
G75*
G02*
X167281100Y-128905200I-101600J0D01*
G01*
X165281100Y-128905200D01*
G75*
G02*
X165179500Y-128803600I0J101600D01*
G01*
G37*
G36*
G01*
X167719500Y-128803600D02*
X167719500Y-123503600D01*
G75*
G02*
X167821100Y-123402000I101600J0D01*
G01*
X169821100Y-123402000D01*
G75*
G02*
X169922700Y-123503600I0J-101600D01*
G01*
X169922700Y-128803600D01*
G75*
G02*
X169821100Y-128905200I-101600J0D01*
G01*
X167821100Y-128905200D01*
G75*
G02*
X167719500Y-128803600I0J101600D01*
G01*
G37*
G36*
G01*
X170259500Y-128803600D02*
X170259500Y-123503600D01*
G75*
G02*
X170361100Y-123402000I101600J0D01*
G01*
X172361100Y-123402000D01*
G75*
G02*
X172462700Y-123503600I0J-101600D01*
G01*
X172462700Y-128803600D01*
G75*
G02*
X172361100Y-128905200I-101600J0D01*
G01*
X170361100Y-128905200D01*
G75*
G02*
X170259500Y-128803600I0J101600D01*
G01*
G37*
G36*
G01*
X172799500Y-128803600D02*
X172799500Y-123503600D01*
G75*
G02*
X172901100Y-123402000I101600J0D01*
G01*
X174901100Y-123402000D01*
G75*
G02*
X175002700Y-123503600I0J-101600D01*
G01*
X175002700Y-128803600D01*
G75*
G02*
X174901100Y-128905200I-101600J0D01*
G01*
X172901100Y-128905200D01*
G75*
G02*
X172799500Y-128803600I0J101600D01*
G01*
G37*
G36*
G01*
X175339500Y-128803600D02*
X175339500Y-123503600D01*
G75*
G02*
X175441100Y-123402000I101600J0D01*
G01*
X177441100Y-123402000D01*
G75*
G02*
X177542700Y-123503600I0J-101600D01*
G01*
X177542700Y-128803600D01*
G75*
G02*
X177441100Y-128905200I-101600J0D01*
G01*
X175441100Y-128905200D01*
G75*
G02*
X175339500Y-128803600I0J101600D01*
G01*
G37*
G36*
G01*
X177879500Y-128803600D02*
X177879500Y-123503600D01*
G75*
G02*
X177981100Y-123402000I101600J0D01*
G01*
X179981100Y-123402000D01*
G75*
G02*
X180082700Y-123503600I0J-101600D01*
G01*
X180082700Y-128803600D01*
G75*
G02*
X179981100Y-128905200I-101600J0D01*
G01*
X177981100Y-128905200D01*
G75*
G02*
X177879500Y-128803600I0J101600D01*
G01*
G37*
%TD*%
%TO.C,A3921*%
G36*
G01*
X165207700Y-87863600D02*
X165207700Y-90863600D01*
G75*
G02*
X165106100Y-90965200I-101600J0D01*
G01*
X160106100Y-90965200D01*
G75*
G02*
X160004500Y-90863600I0J101600D01*
G01*
X160004500Y-87863600D01*
G75*
G02*
X160106100Y-87762000I101600J0D01*
G01*
X165106100Y-87762000D01*
G75*
G02*
X165207700Y-87863600I0J-101600D01*
G01*
G37*
G36*
G01*
X167157700Y-85488600D02*
X167157700Y-87138600D01*
G75*
G02*
X167056100Y-87240200I-101600J0D01*
G01*
X166606100Y-87240200D01*
G75*
G02*
X166504500Y-87138600I0J101600D01*
G01*
X166504500Y-85488600D01*
G75*
G02*
X166606100Y-85387000I101600J0D01*
G01*
X167056100Y-85387000D01*
G75*
G02*
X167157700Y-85488600I0J-101600D01*
G01*
G37*
G36*
G01*
X166507700Y-85488600D02*
X166507700Y-87138600D01*
G75*
G02*
X166406100Y-87240200I-101600J0D01*
G01*
X165956100Y-87240200D01*
G75*
G02*
X165854500Y-87138600I0J101600D01*
G01*
X165854500Y-85488600D01*
G75*
G02*
X165956100Y-85387000I101600J0D01*
G01*
X166406100Y-85387000D01*
G75*
G02*
X166507700Y-85488600I0J-101600D01*
G01*
G37*
G36*
G01*
X165857700Y-85488600D02*
X165857700Y-87138600D01*
G75*
G02*
X165756100Y-87240200I-101600J0D01*
G01*
X165306100Y-87240200D01*
G75*
G02*
X165204500Y-87138600I0J101600D01*
G01*
X165204500Y-85488600D01*
G75*
G02*
X165306100Y-85387000I101600J0D01*
G01*
X165756100Y-85387000D01*
G75*
G02*
X165857700Y-85488600I0J-101600D01*
G01*
G37*
G36*
G01*
X165207700Y-85488600D02*
X165207700Y-87138600D01*
G75*
G02*
X165106100Y-87240200I-101600J0D01*
G01*
X164656100Y-87240200D01*
G75*
G02*
X164554500Y-87138600I0J101600D01*
G01*
X164554500Y-85488600D01*
G75*
G02*
X164656100Y-85387000I101600J0D01*
G01*
X165106100Y-85387000D01*
G75*
G02*
X165207700Y-85488600I0J-101600D01*
G01*
G37*
G36*
G01*
X164557700Y-85488600D02*
X164557700Y-87138600D01*
G75*
G02*
X164456100Y-87240200I-101600J0D01*
G01*
X164006100Y-87240200D01*
G75*
G02*
X163904500Y-87138600I0J101600D01*
G01*
X163904500Y-85488600D01*
G75*
G02*
X164006100Y-85387000I101600J0D01*
G01*
X164456100Y-85387000D01*
G75*
G02*
X164557700Y-85488600I0J-101600D01*
G01*
G37*
G36*
G01*
X163907700Y-85488600D02*
X163907700Y-87138600D01*
G75*
G02*
X163806100Y-87240200I-101600J0D01*
G01*
X163356100Y-87240200D01*
G75*
G02*
X163254500Y-87138600I0J101600D01*
G01*
X163254500Y-85488600D01*
G75*
G02*
X163356100Y-85387000I101600J0D01*
G01*
X163806100Y-85387000D01*
G75*
G02*
X163907700Y-85488600I0J-101600D01*
G01*
G37*
G36*
G01*
X163257700Y-85488600D02*
X163257700Y-87138600D01*
G75*
G02*
X163156100Y-87240200I-101600J0D01*
G01*
X162706100Y-87240200D01*
G75*
G02*
X162604500Y-87138600I0J101600D01*
G01*
X162604500Y-85488600D01*
G75*
G02*
X162706100Y-85387000I101600J0D01*
G01*
X163156100Y-85387000D01*
G75*
G02*
X163257700Y-85488600I0J-101600D01*
G01*
G37*
G36*
G01*
X162607700Y-85488600D02*
X162607700Y-87138600D01*
G75*
G02*
X162506100Y-87240200I-101600J0D01*
G01*
X162056100Y-87240200D01*
G75*
G02*
X161954500Y-87138600I0J101600D01*
G01*
X161954500Y-85488600D01*
G75*
G02*
X162056100Y-85387000I101600J0D01*
G01*
X162506100Y-85387000D01*
G75*
G02*
X162607700Y-85488600I0J-101600D01*
G01*
G37*
G36*
G01*
X161957700Y-85488600D02*
X161957700Y-87138600D01*
G75*
G02*
X161856100Y-87240200I-101600J0D01*
G01*
X161406100Y-87240200D01*
G75*
G02*
X161304500Y-87138600I0J101600D01*
G01*
X161304500Y-85488600D01*
G75*
G02*
X161406100Y-85387000I101600J0D01*
G01*
X161856100Y-85387000D01*
G75*
G02*
X161957700Y-85488600I0J-101600D01*
G01*
G37*
G36*
G01*
X161307700Y-85488600D02*
X161307700Y-87138600D01*
G75*
G02*
X161206100Y-87240200I-101600J0D01*
G01*
X160756100Y-87240200D01*
G75*
G02*
X160654500Y-87138600I0J101600D01*
G01*
X160654500Y-85488600D01*
G75*
G02*
X160756100Y-85387000I101600J0D01*
G01*
X161206100Y-85387000D01*
G75*
G02*
X161307700Y-85488600I0J-101600D01*
G01*
G37*
G36*
G01*
X160657700Y-85488600D02*
X160657700Y-87138600D01*
G75*
G02*
X160556100Y-87240200I-101600J0D01*
G01*
X160106100Y-87240200D01*
G75*
G02*
X160004500Y-87138600I0J101600D01*
G01*
X160004500Y-85488600D01*
G75*
G02*
X160106100Y-85387000I101600J0D01*
G01*
X160556100Y-85387000D01*
G75*
G02*
X160657700Y-85488600I0J-101600D01*
G01*
G37*
G36*
G01*
X160007700Y-85488600D02*
X160007700Y-87138600D01*
G75*
G02*
X159906100Y-87240200I-101600J0D01*
G01*
X159456100Y-87240200D01*
G75*
G02*
X159354500Y-87138600I0J101600D01*
G01*
X159354500Y-85488600D01*
G75*
G02*
X159456100Y-85387000I101600J0D01*
G01*
X159906100Y-85387000D01*
G75*
G02*
X160007700Y-85488600I0J-101600D01*
G01*
G37*
G36*
G01*
X159357700Y-85488600D02*
X159357700Y-87138600D01*
G75*
G02*
X159256100Y-87240200I-101600J0D01*
G01*
X158806100Y-87240200D01*
G75*
G02*
X158704500Y-87138600I0J101600D01*
G01*
X158704500Y-85488600D01*
G75*
G02*
X158806100Y-85387000I101600J0D01*
G01*
X159256100Y-85387000D01*
G75*
G02*
X159357700Y-85488600I0J-101600D01*
G01*
G37*
G36*
G01*
X158707700Y-85488600D02*
X158707700Y-87138600D01*
G75*
G02*
X158606100Y-87240200I-101600J0D01*
G01*
X158156100Y-87240200D01*
G75*
G02*
X158054500Y-87138600I0J101600D01*
G01*
X158054500Y-85488600D01*
G75*
G02*
X158156100Y-85387000I101600J0D01*
G01*
X158606100Y-85387000D01*
G75*
G02*
X158707700Y-85488600I0J-101600D01*
G01*
G37*
G36*
G01*
X158707700Y-91588600D02*
X158707700Y-93238600D01*
G75*
G02*
X158606100Y-93340200I-101600J0D01*
G01*
X158156100Y-93340200D01*
G75*
G02*
X158054500Y-93238600I0J101600D01*
G01*
X158054500Y-91588600D01*
G75*
G02*
X158156100Y-91487000I101600J0D01*
G01*
X158606100Y-91487000D01*
G75*
G02*
X158707700Y-91588600I0J-101600D01*
G01*
G37*
G36*
G01*
X159357700Y-91588600D02*
X159357700Y-93238600D01*
G75*
G02*
X159256100Y-93340200I-101600J0D01*
G01*
X158806100Y-93340200D01*
G75*
G02*
X158704500Y-93238600I0J101600D01*
G01*
X158704500Y-91588600D01*
G75*
G02*
X158806100Y-91487000I101600J0D01*
G01*
X159256100Y-91487000D01*
G75*
G02*
X159357700Y-91588600I0J-101600D01*
G01*
G37*
G36*
G01*
X160007700Y-91588600D02*
X160007700Y-93238600D01*
G75*
G02*
X159906100Y-93340200I-101600J0D01*
G01*
X159456100Y-93340200D01*
G75*
G02*
X159354500Y-93238600I0J101600D01*
G01*
X159354500Y-91588600D01*
G75*
G02*
X159456100Y-91487000I101600J0D01*
G01*
X159906100Y-91487000D01*
G75*
G02*
X160007700Y-91588600I0J-101600D01*
G01*
G37*
G36*
G01*
X160657700Y-91588600D02*
X160657700Y-93238600D01*
G75*
G02*
X160556100Y-93340200I-101600J0D01*
G01*
X160106100Y-93340200D01*
G75*
G02*
X160004500Y-93238600I0J101600D01*
G01*
X160004500Y-91588600D01*
G75*
G02*
X160106100Y-91487000I101600J0D01*
G01*
X160556100Y-91487000D01*
G75*
G02*
X160657700Y-91588600I0J-101600D01*
G01*
G37*
G36*
G01*
X161307700Y-91588600D02*
X161307700Y-93238600D01*
G75*
G02*
X161206100Y-93340200I-101600J0D01*
G01*
X160756100Y-93340200D01*
G75*
G02*
X160654500Y-93238600I0J101600D01*
G01*
X160654500Y-91588600D01*
G75*
G02*
X160756100Y-91487000I101600J0D01*
G01*
X161206100Y-91487000D01*
G75*
G02*
X161307700Y-91588600I0J-101600D01*
G01*
G37*
G36*
G01*
X161957700Y-91588600D02*
X161957700Y-93238600D01*
G75*
G02*
X161856100Y-93340200I-101600J0D01*
G01*
X161406100Y-93340200D01*
G75*
G02*
X161304500Y-93238600I0J101600D01*
G01*
X161304500Y-91588600D01*
G75*
G02*
X161406100Y-91487000I101600J0D01*
G01*
X161856100Y-91487000D01*
G75*
G02*
X161957700Y-91588600I0J-101600D01*
G01*
G37*
G36*
G01*
X162607700Y-91588600D02*
X162607700Y-93238600D01*
G75*
G02*
X162506100Y-93340200I-101600J0D01*
G01*
X162056100Y-93340200D01*
G75*
G02*
X161954500Y-93238600I0J101600D01*
G01*
X161954500Y-91588600D01*
G75*
G02*
X162056100Y-91487000I101600J0D01*
G01*
X162506100Y-91487000D01*
G75*
G02*
X162607700Y-91588600I0J-101600D01*
G01*
G37*
G36*
G01*
X163257700Y-91588600D02*
X163257700Y-93238600D01*
G75*
G02*
X163156100Y-93340200I-101600J0D01*
G01*
X162706100Y-93340200D01*
G75*
G02*
X162604500Y-93238600I0J101600D01*
G01*
X162604500Y-91588600D01*
G75*
G02*
X162706100Y-91487000I101600J0D01*
G01*
X163156100Y-91487000D01*
G75*
G02*
X163257700Y-91588600I0J-101600D01*
G01*
G37*
G36*
G01*
X163907700Y-91588600D02*
X163907700Y-93238600D01*
G75*
G02*
X163806100Y-93340200I-101600J0D01*
G01*
X163356100Y-93340200D01*
G75*
G02*
X163254500Y-93238600I0J101600D01*
G01*
X163254500Y-91588600D01*
G75*
G02*
X163356100Y-91487000I101600J0D01*
G01*
X163806100Y-91487000D01*
G75*
G02*
X163907700Y-91588600I0J-101600D01*
G01*
G37*
G36*
G01*
X164557700Y-91588600D02*
X164557700Y-93238600D01*
G75*
G02*
X164456100Y-93340200I-101600J0D01*
G01*
X164006100Y-93340200D01*
G75*
G02*
X163904500Y-93238600I0J101600D01*
G01*
X163904500Y-91588600D01*
G75*
G02*
X164006100Y-91487000I101600J0D01*
G01*
X164456100Y-91487000D01*
G75*
G02*
X164557700Y-91588600I0J-101600D01*
G01*
G37*
G36*
G01*
X165207700Y-91588600D02*
X165207700Y-93238600D01*
G75*
G02*
X165106100Y-93340200I-101600J0D01*
G01*
X164656100Y-93340200D01*
G75*
G02*
X164554500Y-93238600I0J101600D01*
G01*
X164554500Y-91588600D01*
G75*
G02*
X164656100Y-91487000I101600J0D01*
G01*
X165106100Y-91487000D01*
G75*
G02*
X165207700Y-91588600I0J-101600D01*
G01*
G37*
G36*
G01*
X165857700Y-91588600D02*
X165857700Y-93238600D01*
G75*
G02*
X165756100Y-93340200I-101600J0D01*
G01*
X165306100Y-93340200D01*
G75*
G02*
X165204500Y-93238600I0J101600D01*
G01*
X165204500Y-91588600D01*
G75*
G02*
X165306100Y-91487000I101600J0D01*
G01*
X165756100Y-91487000D01*
G75*
G02*
X165857700Y-91588600I0J-101600D01*
G01*
G37*
G36*
G01*
X167157700Y-91588600D02*
X167157700Y-93238600D01*
G75*
G02*
X167056100Y-93340200I-101600J0D01*
G01*
X166606100Y-93340200D01*
G75*
G02*
X166504500Y-93238600I0J101600D01*
G01*
X166504500Y-91588600D01*
G75*
G02*
X166606100Y-91487000I101600J0D01*
G01*
X167056100Y-91487000D01*
G75*
G02*
X167157700Y-91588600I0J-101600D01*
G01*
G37*
G36*
G01*
X166507700Y-91588600D02*
X166507700Y-93238600D01*
G75*
G02*
X166406100Y-93340200I-101600J0D01*
G01*
X165956100Y-93340200D01*
G75*
G02*
X165854500Y-93238600I0J101600D01*
G01*
X165854500Y-91588600D01*
G75*
G02*
X165956100Y-91487000I101600J0D01*
G01*
X166406100Y-91487000D01*
G75*
G02*
X166507700Y-91588600I0J-101600D01*
G01*
G37*
%TD*%
%TO.C,R1*%
G36*
G01*
X172449500Y-107458601D02*
X172449500Y-105808599D01*
G75*
G02*
X172551099Y-105707000I101599J0D01*
G01*
X173951101Y-105707000D01*
G75*
G02*
X174052700Y-105808599I0J-101599D01*
G01*
X174052700Y-107458601D01*
G75*
G02*
X173951101Y-107560200I-101599J0D01*
G01*
X172551099Y-107560200D01*
G75*
G02*
X172449500Y-107458601I0J101599D01*
G01*
G37*
G36*
G01*
X169849500Y-107458601D02*
X169849500Y-105808599D01*
G75*
G02*
X169951099Y-105707000I101599J0D01*
G01*
X171351101Y-105707000D01*
G75*
G02*
X171452700Y-105808599I0J-101599D01*
G01*
X171452700Y-107458601D01*
G75*
G02*
X171351101Y-107560200I-101599J0D01*
G01*
X169951099Y-107560200D01*
G75*
G02*
X169849500Y-107458601I0J101599D01*
G01*
G37*
%TD*%
%TO.C,R10*%
G36*
G01*
X163062700Y-100928599D02*
X163062700Y-102578601D01*
G75*
G02*
X162961101Y-102680200I-101599J0D01*
G01*
X161561099Y-102680200D01*
G75*
G02*
X161459500Y-102578601I0J101599D01*
G01*
X161459500Y-100928599D01*
G75*
G02*
X161561099Y-100827000I101599J0D01*
G01*
X162961101Y-100827000D01*
G75*
G02*
X163062700Y-100928599I0J-101599D01*
G01*
G37*
G36*
G01*
X165662700Y-100928599D02*
X165662700Y-102578601D01*
G75*
G02*
X165561101Y-102680200I-101599J0D01*
G01*
X164161099Y-102680200D01*
G75*
G02*
X164059500Y-102578601I0J101599D01*
G01*
X164059500Y-100928599D01*
G75*
G02*
X164161099Y-100827000I101599J0D01*
G01*
X165561101Y-100827000D01*
G75*
G02*
X165662700Y-100928599I0J-101599D01*
G01*
G37*
%TD*%
%TO.C,R12*%
G36*
G01*
X163062700Y-98678599D02*
X163062700Y-100328601D01*
G75*
G02*
X162961101Y-100430200I-101599J0D01*
G01*
X161561099Y-100430200D01*
G75*
G02*
X161459500Y-100328601I0J101599D01*
G01*
X161459500Y-98678599D01*
G75*
G02*
X161561099Y-98577000I101599J0D01*
G01*
X162961101Y-98577000D01*
G75*
G02*
X163062700Y-98678599I0J-101599D01*
G01*
G37*
G36*
G01*
X165662700Y-98678599D02*
X165662700Y-100328601D01*
G75*
G02*
X165561101Y-100430200I-101599J0D01*
G01*
X164161099Y-100430200D01*
G75*
G02*
X164059500Y-100328601I0J101599D01*
G01*
X164059500Y-98678599D01*
G75*
G02*
X164161099Y-98577000I101599J0D01*
G01*
X165561101Y-98577000D01*
G75*
G02*
X165662700Y-98678599I0J-101599D01*
G01*
G37*
%TD*%
%TO.C,R13*%
G36*
G01*
X167646101Y-82645200D02*
X165996099Y-82645200D01*
G75*
G02*
X165894500Y-82543601I0J101599D01*
G01*
X165894500Y-81143599D01*
G75*
G02*
X165996099Y-81042000I101599J0D01*
G01*
X167646101Y-81042000D01*
G75*
G02*
X167747700Y-81143599I0J-101599D01*
G01*
X167747700Y-82543601D01*
G75*
G02*
X167646101Y-82645200I-101599J0D01*
G01*
G37*
G36*
G01*
X167646101Y-85245200D02*
X165996099Y-85245200D01*
G75*
G02*
X165894500Y-85143601I0J101599D01*
G01*
X165894500Y-83743599D01*
G75*
G02*
X165996099Y-83642000I101599J0D01*
G01*
X167646101Y-83642000D01*
G75*
G02*
X167747700Y-83743599I0J-101599D01*
G01*
X167747700Y-85143601D01*
G75*
G02*
X167646101Y-85245200I-101599J0D01*
G01*
G37*
%TD*%
%TO.C,R14]*%
G36*
G01*
X168846099Y-83732000D02*
X170496101Y-83732000D01*
G75*
G02*
X170597700Y-83833599I0J-101599D01*
G01*
X170597700Y-85233601D01*
G75*
G02*
X170496101Y-85335200I-101599J0D01*
G01*
X168846099Y-85335200D01*
G75*
G02*
X168744500Y-85233601I0J101599D01*
G01*
X168744500Y-83833599D01*
G75*
G02*
X168846099Y-83732000I101599J0D01*
G01*
G37*
G36*
G01*
X168846099Y-81132000D02*
X170496101Y-81132000D01*
G75*
G02*
X170597700Y-81233599I0J-101599D01*
G01*
X170597700Y-82633601D01*
G75*
G02*
X170496101Y-82735200I-101599J0D01*
G01*
X168846099Y-82735200D01*
G75*
G02*
X168744500Y-82633601I0J101599D01*
G01*
X168744500Y-81233599D01*
G75*
G02*
X168846099Y-81132000I101599J0D01*
G01*
G37*
%TD*%
%TO.C,R15*%
G36*
G01*
X125740500Y-97018601D02*
X125740500Y-95368599D01*
G75*
G02*
X125842099Y-95267000I101599J0D01*
G01*
X127242101Y-95267000D01*
G75*
G02*
X127343700Y-95368599I0J-101599D01*
G01*
X127343700Y-97018601D01*
G75*
G02*
X127242101Y-97120200I-101599J0D01*
G01*
X125842099Y-97120200D01*
G75*
G02*
X125740500Y-97018601I0J101599D01*
G01*
G37*
G36*
G01*
X123140500Y-97018601D02*
X123140500Y-95368599D01*
G75*
G02*
X123242099Y-95267000I101599J0D01*
G01*
X124642101Y-95267000D01*
G75*
G02*
X124743700Y-95368599I0J-101599D01*
G01*
X124743700Y-97018601D01*
G75*
G02*
X124642101Y-97120200I-101599J0D01*
G01*
X123242099Y-97120200D01*
G75*
G02*
X123140500Y-97018601I0J101599D01*
G01*
G37*
%TD*%
%TO.C,R16*%
G36*
G01*
X124742700Y-97298599D02*
X124742700Y-98948601D01*
G75*
G02*
X124641101Y-99050200I-101599J0D01*
G01*
X123241099Y-99050200D01*
G75*
G02*
X123139500Y-98948601I0J101599D01*
G01*
X123139500Y-97298599D01*
G75*
G02*
X123241099Y-97197000I101599J0D01*
G01*
X124641101Y-97197000D01*
G75*
G02*
X124742700Y-97298599I0J-101599D01*
G01*
G37*
G36*
G01*
X127342700Y-97298599D02*
X127342700Y-98948601D01*
G75*
G02*
X127241101Y-99050200I-101599J0D01*
G01*
X125841099Y-99050200D01*
G75*
G02*
X125739500Y-98948601I0J101599D01*
G01*
X125739500Y-97298599D01*
G75*
G02*
X125841099Y-97197000I101599J0D01*
G01*
X127241101Y-97197000D01*
G75*
G02*
X127342700Y-97298599I0J-101599D01*
G01*
G37*
%TD*%
%TO.C,R17*%
G36*
G01*
X177752700Y-95174999D02*
X177752700Y-96825001D01*
G75*
G02*
X177651101Y-96926600I-101599J0D01*
G01*
X176251099Y-96926600D01*
G75*
G02*
X176149500Y-96825001I0J101599D01*
G01*
X176149500Y-95174999D01*
G75*
G02*
X176251099Y-95073400I101599J0D01*
G01*
X177651101Y-95073400D01*
G75*
G02*
X177752700Y-95174999I0J-101599D01*
G01*
G37*
G36*
G01*
X180352700Y-95174999D02*
X180352700Y-96825001D01*
G75*
G02*
X180251101Y-96926600I-101599J0D01*
G01*
X178851099Y-96926600D01*
G75*
G02*
X178749500Y-96825001I0J101599D01*
G01*
X178749500Y-95174999D01*
G75*
G02*
X178851099Y-95073400I101599J0D01*
G01*
X180251101Y-95073400D01*
G75*
G02*
X180352700Y-95174999I0J-101599D01*
G01*
G37*
%TD*%
%TO.C,R18*%
G36*
G01*
X140379500Y-97018601D02*
X140379500Y-95368599D01*
G75*
G02*
X140481099Y-95267000I101599J0D01*
G01*
X141881101Y-95267000D01*
G75*
G02*
X141982700Y-95368599I0J-101599D01*
G01*
X141982700Y-97018601D01*
G75*
G02*
X141881101Y-97120200I-101599J0D01*
G01*
X140481099Y-97120200D01*
G75*
G02*
X140379500Y-97018601I0J101599D01*
G01*
G37*
G36*
G01*
X137779500Y-97018601D02*
X137779500Y-95368599D01*
G75*
G02*
X137881099Y-95267000I101599J0D01*
G01*
X139281101Y-95267000D01*
G75*
G02*
X139382700Y-95368599I0J-101599D01*
G01*
X139382700Y-97018601D01*
G75*
G02*
X139281101Y-97120200I-101599J0D01*
G01*
X137881099Y-97120200D01*
G75*
G02*
X137779500Y-97018601I0J101599D01*
G01*
G37*
%TD*%
%TO.C,R19*%
G36*
G01*
X139382700Y-97298599D02*
X139382700Y-98948601D01*
G75*
G02*
X139281101Y-99050200I-101599J0D01*
G01*
X137881099Y-99050200D01*
G75*
G02*
X137779500Y-98948601I0J101599D01*
G01*
X137779500Y-97298599D01*
G75*
G02*
X137881099Y-97197000I101599J0D01*
G01*
X139281101Y-97197000D01*
G75*
G02*
X139382700Y-97298599I0J-101599D01*
G01*
G37*
G36*
G01*
X141982700Y-97298599D02*
X141982700Y-98948601D01*
G75*
G02*
X141881101Y-99050200I-101599J0D01*
G01*
X140481099Y-99050200D01*
G75*
G02*
X140379500Y-98948601I0J101599D01*
G01*
X140379500Y-97298599D01*
G75*
G02*
X140481099Y-97197000I101599J0D01*
G01*
X141881101Y-97197000D01*
G75*
G02*
X141982700Y-97298599I0J-101599D01*
G01*
G37*
%TD*%
%TO.C,R2*%
G36*
G01*
X168826099Y-88152000D02*
X170476101Y-88152000D01*
G75*
G02*
X170577700Y-88253599I0J-101599D01*
G01*
X170577700Y-89653601D01*
G75*
G02*
X170476101Y-89755200I-101599J0D01*
G01*
X168826099Y-89755200D01*
G75*
G02*
X168724500Y-89653601I0J101599D01*
G01*
X168724500Y-88253599D01*
G75*
G02*
X168826099Y-88152000I101599J0D01*
G01*
G37*
G36*
G01*
X168826099Y-85552000D02*
X170476101Y-85552000D01*
G75*
G02*
X170577700Y-85653599I0J-101599D01*
G01*
X170577700Y-87053601D01*
G75*
G02*
X170476101Y-87155200I-101599J0D01*
G01*
X168826099Y-87155200D01*
G75*
G02*
X168724500Y-87053601I0J101599D01*
G01*
X168724500Y-85653599D01*
G75*
G02*
X168826099Y-85552000I101599J0D01*
G01*
G37*
%TD*%
%TO.C,R20*%
G36*
G01*
X158659500Y-100328601D02*
X158659500Y-98678599D01*
G75*
G02*
X158761099Y-98577000I101599J0D01*
G01*
X160161101Y-98577000D01*
G75*
G02*
X160262700Y-98678599I0J-101599D01*
G01*
X160262700Y-100328601D01*
G75*
G02*
X160161101Y-100430200I-101599J0D01*
G01*
X158761099Y-100430200D01*
G75*
G02*
X158659500Y-100328601I0J101599D01*
G01*
G37*
G36*
G01*
X156059500Y-100328601D02*
X156059500Y-98678599D01*
G75*
G02*
X156161099Y-98577000I101599J0D01*
G01*
X157561101Y-98577000D01*
G75*
G02*
X157662700Y-98678599I0J-101599D01*
G01*
X157662700Y-100328601D01*
G75*
G02*
X157561101Y-100430200I-101599J0D01*
G01*
X156161099Y-100430200D01*
G75*
G02*
X156059500Y-100328601I0J101599D01*
G01*
G37*
%TD*%
%TO.C,R21*%
G36*
G01*
X158659500Y-102578601D02*
X158659500Y-100928599D01*
G75*
G02*
X158761099Y-100827000I101599J0D01*
G01*
X160161101Y-100827000D01*
G75*
G02*
X160262700Y-100928599I0J-101599D01*
G01*
X160262700Y-102578601D01*
G75*
G02*
X160161101Y-102680200I-101599J0D01*
G01*
X158761099Y-102680200D01*
G75*
G02*
X158659500Y-102578601I0J101599D01*
G01*
G37*
G36*
G01*
X156059500Y-102578601D02*
X156059500Y-100928599D01*
G75*
G02*
X156161099Y-100827000I101599J0D01*
G01*
X157561101Y-100827000D01*
G75*
G02*
X157662700Y-100928599I0J-101599D01*
G01*
X157662700Y-102578601D01*
G75*
G02*
X157561101Y-102680200I-101599J0D01*
G01*
X156161099Y-102680200D01*
G75*
G02*
X156059500Y-102578601I0J101599D01*
G01*
G37*
%TD*%
%TO.C,R23*%
G36*
G01*
X177122700Y-82988599D02*
X177122700Y-84638601D01*
G75*
G02*
X177021101Y-84740200I-101599J0D01*
G01*
X175621099Y-84740200D01*
G75*
G02*
X175519500Y-84638601I0J101599D01*
G01*
X175519500Y-82988599D01*
G75*
G02*
X175621099Y-82887000I101599J0D01*
G01*
X177021101Y-82887000D01*
G75*
G02*
X177122700Y-82988599I0J-101599D01*
G01*
G37*
G36*
G01*
X179722700Y-82988599D02*
X179722700Y-84638601D01*
G75*
G02*
X179621101Y-84740200I-101599J0D01*
G01*
X178221099Y-84740200D01*
G75*
G02*
X178119500Y-84638601I0J101599D01*
G01*
X178119500Y-82988599D01*
G75*
G02*
X178221099Y-82887000I101599J0D01*
G01*
X179621101Y-82887000D01*
G75*
G02*
X179722700Y-82988599I0J-101599D01*
G01*
G37*
%TD*%
%TO.C,R24*%
G36*
G01*
X177742700Y-92674999D02*
X177742700Y-94325001D01*
G75*
G02*
X177641101Y-94426600I-101599J0D01*
G01*
X176241099Y-94426600D01*
G75*
G02*
X176139500Y-94325001I0J101599D01*
G01*
X176139500Y-92674999D01*
G75*
G02*
X176241099Y-92573400I101599J0D01*
G01*
X177641101Y-92573400D01*
G75*
G02*
X177742700Y-92674999I0J-101599D01*
G01*
G37*
G36*
G01*
X180342700Y-92674999D02*
X180342700Y-94325001D01*
G75*
G02*
X180241101Y-94426600I-101599J0D01*
G01*
X178841099Y-94426600D01*
G75*
G02*
X178739500Y-94325001I0J101599D01*
G01*
X178739500Y-92674999D01*
G75*
G02*
X178841099Y-92573400I101599J0D01*
G01*
X180241101Y-92573400D01*
G75*
G02*
X180342700Y-92674999I0J-101599D01*
G01*
G37*
%TD*%
%TO.C,R25*%
G36*
G01*
X173401600Y-92674999D02*
X173401600Y-94325001D01*
G75*
G02*
X173300001Y-94426600I-101599J0D01*
G01*
X171899999Y-94426600D01*
G75*
G02*
X171798400Y-94325001I0J101599D01*
G01*
X171798400Y-92674999D01*
G75*
G02*
X171899999Y-92573400I101599J0D01*
G01*
X173300001Y-92573400D01*
G75*
G02*
X173401600Y-92674999I0J-101599D01*
G01*
G37*
G36*
G01*
X176001600Y-92674999D02*
X176001600Y-94325001D01*
G75*
G02*
X175900001Y-94426600I-101599J0D01*
G01*
X174499999Y-94426600D01*
G75*
G02*
X174398400Y-94325001I0J101599D01*
G01*
X174398400Y-92674999D01*
G75*
G02*
X174499999Y-92573400I101599J0D01*
G01*
X175900001Y-92573400D01*
G75*
G02*
X176001600Y-92674999I0J-101599D01*
G01*
G37*
%TD*%
%TO.C,R26*%
G36*
G01*
X173946099Y-120372000D02*
X175596101Y-120372000D01*
G75*
G02*
X175697700Y-120473599I0J-101599D01*
G01*
X175697700Y-121873601D01*
G75*
G02*
X175596101Y-121975200I-101599J0D01*
G01*
X173946099Y-121975200D01*
G75*
G02*
X173844500Y-121873601I0J101599D01*
G01*
X173844500Y-120473599D01*
G75*
G02*
X173946099Y-120372000I101599J0D01*
G01*
G37*
G36*
G01*
X173946099Y-117772000D02*
X175596101Y-117772000D01*
G75*
G02*
X175697700Y-117873599I0J-101599D01*
G01*
X175697700Y-119273601D01*
G75*
G02*
X175596101Y-119375200I-101599J0D01*
G01*
X173946099Y-119375200D01*
G75*
G02*
X173844500Y-119273601I0J101599D01*
G01*
X173844500Y-117873599D01*
G75*
G02*
X173946099Y-117772000I101599J0D01*
G01*
G37*
%TD*%
%TO.C,R27*%
G36*
G01*
X178236099Y-120372000D02*
X179886101Y-120372000D01*
G75*
G02*
X179987700Y-120473599I0J-101599D01*
G01*
X179987700Y-121873601D01*
G75*
G02*
X179886101Y-121975200I-101599J0D01*
G01*
X178236099Y-121975200D01*
G75*
G02*
X178134500Y-121873601I0J101599D01*
G01*
X178134500Y-120473599D01*
G75*
G02*
X178236099Y-120372000I101599J0D01*
G01*
G37*
G36*
G01*
X178236099Y-117772000D02*
X179886101Y-117772000D01*
G75*
G02*
X179987700Y-117873599I0J-101599D01*
G01*
X179987700Y-119273601D01*
G75*
G02*
X179886101Y-119375200I-101599J0D01*
G01*
X178236099Y-119375200D01*
G75*
G02*
X178134500Y-119273601I0J101599D01*
G01*
X178134500Y-117873599D01*
G75*
G02*
X178236099Y-117772000I101599J0D01*
G01*
G37*
%TD*%
%TO.C,R6*%
G36*
G01*
X178119500Y-82668601D02*
X178119500Y-81018599D01*
G75*
G02*
X178221099Y-80917000I101599J0D01*
G01*
X179621101Y-80917000D01*
G75*
G02*
X179722700Y-81018599I0J-101599D01*
G01*
X179722700Y-82668601D01*
G75*
G02*
X179621101Y-82770200I-101599J0D01*
G01*
X178221099Y-82770200D01*
G75*
G02*
X178119500Y-82668601I0J101599D01*
G01*
G37*
G36*
G01*
X175519500Y-82668601D02*
X175519500Y-81018599D01*
G75*
G02*
X175621099Y-80917000I101599J0D01*
G01*
X177021101Y-80917000D01*
G75*
G02*
X177122700Y-81018599I0J-101599D01*
G01*
X177122700Y-82668601D01*
G75*
G02*
X177021101Y-82770200I-101599J0D01*
G01*
X175621099Y-82770200D01*
G75*
G02*
X175519500Y-82668601I0J101599D01*
G01*
G37*
%TD*%
%TO.C,R9*%
G36*
G01*
X177209500Y-107458601D02*
X177209500Y-105808599D01*
G75*
G02*
X177311099Y-105707000I101599J0D01*
G01*
X178711101Y-105707000D01*
G75*
G02*
X178812700Y-105808599I0J-101599D01*
G01*
X178812700Y-107458601D01*
G75*
G02*
X178711101Y-107560200I-101599J0D01*
G01*
X177311099Y-107560200D01*
G75*
G02*
X177209500Y-107458601I0J101599D01*
G01*
G37*
G36*
G01*
X174609500Y-107458601D02*
X174609500Y-105808599D01*
G75*
G02*
X174711099Y-105707000I101599J0D01*
G01*
X176111101Y-105707000D01*
G75*
G02*
X176212700Y-105808599I0J-101599D01*
G01*
X176212700Y-107458601D01*
G75*
G02*
X176111101Y-107560200I-101599J0D01*
G01*
X174711099Y-107560200D01*
G75*
G02*
X174609500Y-107458601I0J101599D01*
G01*
G37*
%TD*%
D11*
%TO.C,SW4*%
X176901100Y-104413600D03*
X171901100Y-104413600D03*
X174401100Y-104413600D03*
%TD*%
%TO.C,TLP1*%
G36*
G01*
X173942700Y-109883600D02*
X173942700Y-111083600D01*
G75*
G02*
X173841100Y-111185200I-101600J0D01*
G01*
X173041100Y-111185200D01*
G75*
G02*
X172939500Y-111083600I0J101600D01*
G01*
X172939500Y-109883600D01*
G75*
G02*
X173041100Y-109782000I101600J0D01*
G01*
X173841100Y-109782000D01*
G75*
G02*
X173942700Y-109883600I0J-101600D01*
G01*
G37*
G36*
G01*
X172672700Y-109883600D02*
X172672700Y-111083600D01*
G75*
G02*
X172571100Y-111185200I-101600J0D01*
G01*
X171771100Y-111185200D01*
G75*
G02*
X171669500Y-111083600I0J101600D01*
G01*
X171669500Y-109883600D01*
G75*
G02*
X171771100Y-109782000I101600J0D01*
G01*
X172571100Y-109782000D01*
G75*
G02*
X172672700Y-109883600I0J-101600D01*
G01*
G37*
G36*
G01*
X172672700Y-116183600D02*
X172672700Y-117383600D01*
G75*
G02*
X172571100Y-117485200I-101600J0D01*
G01*
X171771100Y-117485200D01*
G75*
G02*
X171669500Y-117383600I0J101600D01*
G01*
X171669500Y-116183600D01*
G75*
G02*
X171771100Y-116082000I101600J0D01*
G01*
X172571100Y-116082000D01*
G75*
G02*
X172672700Y-116183600I0J-101600D01*
G01*
G37*
G36*
G01*
X175212700Y-109883600D02*
X175212700Y-111083600D01*
G75*
G02*
X175111100Y-111185200I-101600J0D01*
G01*
X174311100Y-111185200D01*
G75*
G02*
X174209500Y-111083600I0J101600D01*
G01*
X174209500Y-109883600D01*
G75*
G02*
X174311100Y-109782000I101600J0D01*
G01*
X175111100Y-109782000D01*
G75*
G02*
X175212700Y-109883600I0J-101600D01*
G01*
G37*
G36*
G01*
X175212700Y-116183600D02*
X175212700Y-117383600D01*
G75*
G02*
X175111100Y-117485200I-101600J0D01*
G01*
X174311100Y-117485200D01*
G75*
G02*
X174209500Y-117383600I0J101600D01*
G01*
X174209500Y-116183600D01*
G75*
G02*
X174311100Y-116082000I101600J0D01*
G01*
X175111100Y-116082000D01*
G75*
G02*
X175212700Y-116183600I0J-101600D01*
G01*
G37*
%TD*%
%TO.C,TLP2*%
G36*
G01*
X178292700Y-109883600D02*
X178292700Y-111083600D01*
G75*
G02*
X178191100Y-111185200I-101600J0D01*
G01*
X177391100Y-111185200D01*
G75*
G02*
X177289500Y-111083600I0J101600D01*
G01*
X177289500Y-109883600D01*
G75*
G02*
X177391100Y-109782000I101600J0D01*
G01*
X178191100Y-109782000D01*
G75*
G02*
X178292700Y-109883600I0J-101600D01*
G01*
G37*
G36*
G01*
X177022700Y-109883600D02*
X177022700Y-111083600D01*
G75*
G02*
X176921100Y-111185200I-101600J0D01*
G01*
X176121100Y-111185200D01*
G75*
G02*
X176019500Y-111083600I0J101600D01*
G01*
X176019500Y-109883600D01*
G75*
G02*
X176121100Y-109782000I101600J0D01*
G01*
X176921100Y-109782000D01*
G75*
G02*
X177022700Y-109883600I0J-101600D01*
G01*
G37*
G36*
G01*
X177022700Y-116183600D02*
X177022700Y-117383600D01*
G75*
G02*
X176921100Y-117485200I-101600J0D01*
G01*
X176121100Y-117485200D01*
G75*
G02*
X176019500Y-117383600I0J101600D01*
G01*
X176019500Y-116183600D01*
G75*
G02*
X176121100Y-116082000I101600J0D01*
G01*
X176921100Y-116082000D01*
G75*
G02*
X177022700Y-116183600I0J-101600D01*
G01*
G37*
G36*
G01*
X179562700Y-109883600D02*
X179562700Y-111083600D01*
G75*
G02*
X179461100Y-111185200I-101600J0D01*
G01*
X178661100Y-111185200D01*
G75*
G02*
X178559500Y-111083600I0J101600D01*
G01*
X178559500Y-109883600D01*
G75*
G02*
X178661100Y-109782000I101600J0D01*
G01*
X179461100Y-109782000D01*
G75*
G02*
X179562700Y-109883600I0J-101600D01*
G01*
G37*
G36*
G01*
X179562700Y-116183600D02*
X179562700Y-117383600D01*
G75*
G02*
X179461100Y-117485200I-101600J0D01*
G01*
X178661100Y-117485200D01*
G75*
G02*
X178559500Y-117383600I0J101600D01*
G01*
X178559500Y-116183600D01*
G75*
G02*
X178661100Y-116082000I101600J0D01*
G01*
X179461100Y-116082000D01*
G75*
G02*
X179562700Y-116183600I0J-101600D01*
G01*
G37*
%TD*%
%TO.C,TR3*%
G36*
G01*
X174311100Y-89201600D02*
X173511100Y-89201600D01*
G75*
G02*
X173409500Y-89100000I0J101600D01*
G01*
X173409500Y-88100000D01*
G75*
G02*
X173511100Y-87998400I101600J0D01*
G01*
X174311100Y-87998400D01*
G75*
G02*
X174412700Y-88100000I0J-101600D01*
G01*
X174412700Y-89100000D01*
G75*
G02*
X174311100Y-89201600I-101600J0D01*
G01*
G37*
G36*
G01*
X175261100Y-91601600D02*
X174461100Y-91601600D01*
G75*
G02*
X174359500Y-91500000I0J101600D01*
G01*
X174359500Y-90500000D01*
G75*
G02*
X174461100Y-90398400I101600J0D01*
G01*
X175261100Y-90398400D01*
G75*
G02*
X175362700Y-90500000I0J-101600D01*
G01*
X175362700Y-91500000D01*
G75*
G02*
X175261100Y-91601600I-101600J0D01*
G01*
G37*
G36*
G01*
X173361100Y-91601600D02*
X172561100Y-91601600D01*
G75*
G02*
X172459500Y-91500000I0J101600D01*
G01*
X172459500Y-90500000D01*
G75*
G02*
X172561100Y-90398400I101600J0D01*
G01*
X173361100Y-90398400D01*
G75*
G02*
X173462700Y-90500000I0J-101600D01*
G01*
X173462700Y-91500000D01*
G75*
G02*
X173361100Y-91601600I-101600J0D01*
G01*
G37*
%TD*%
%TO.C,TR4*%
G36*
G01*
X178611100Y-89201600D02*
X177811100Y-89201600D01*
G75*
G02*
X177709500Y-89100000I0J101600D01*
G01*
X177709500Y-88100000D01*
G75*
G02*
X177811100Y-87998400I101600J0D01*
G01*
X178611100Y-87998400D01*
G75*
G02*
X178712700Y-88100000I0J-101600D01*
G01*
X178712700Y-89100000D01*
G75*
G02*
X178611100Y-89201600I-101600J0D01*
G01*
G37*
G36*
G01*
X179561100Y-91601600D02*
X178761100Y-91601600D01*
G75*
G02*
X178659500Y-91500000I0J101600D01*
G01*
X178659500Y-90500000D01*
G75*
G02*
X178761100Y-90398400I101600J0D01*
G01*
X179561100Y-90398400D01*
G75*
G02*
X179662700Y-90500000I0J-101600D01*
G01*
X179662700Y-91500000D01*
G75*
G02*
X179561100Y-91601600I-101600J0D01*
G01*
G37*
G36*
G01*
X177661100Y-91601600D02*
X176861100Y-91601600D01*
G75*
G02*
X176759500Y-91500000I0J101600D01*
G01*
X176759500Y-90500000D01*
G75*
G02*
X176861100Y-90398400I101600J0D01*
G01*
X177661100Y-90398400D01*
G75*
G02*
X177762700Y-90500000I0J-101600D01*
G01*
X177762700Y-91500000D01*
G75*
G02*
X177661100Y-91601600I-101600J0D01*
G01*
G37*
%TD*%
M02*
