%TF.GenerationSoftware,KiCad,Pcbnew,(5.1.10)-1*%
%TF.CreationDate,2022-09-23T11:43:28+09:00*%
%TF.ProjectId,(KiCad)DriveUnit_B-series(ver2.0),284b6943-6164-4294-9472-697665556e69,rev?*%
%TF.SameCoordinates,Original*%
%TF.FileFunction,Legend,Top*%
%TF.FilePolarity,Positive*%
%FSLAX46Y46*%
G04 Gerber Fmt 4.6, Leading zero omitted, Abs format (unit mm)*
G04 Created by KiCad (PCBNEW (5.1.10)-1) date 2022-09-23 11:43:28*
%MOMM*%
%LPD*%
G01*
G04 APERTURE LIST*
%ADD10C,0.200000*%
%ADD11C,0.300000*%
%ADD12C,0.070000*%
%ADD13C,0.150000*%
%ADD14C,0.050000*%
%ADD15C,0.100000*%
%ADD16C,0.127000*%
%ADD17C,0.152400*%
%ADD18C,0.020320*%
%ADD19C,0.032000*%
G04 APERTURE END LIST*
D10*
X153991488Y-93367142D02*
X154265297Y-93462380D01*
X154348630Y-93557619D01*
X154420059Y-93748095D01*
X154384345Y-94033809D01*
X154265297Y-94224285D01*
X154158154Y-94319523D01*
X153955773Y-94414761D01*
X153193869Y-94414761D01*
X153443869Y-92414761D01*
X154110535Y-92414761D01*
X154289107Y-92510000D01*
X154372440Y-92605238D01*
X154443869Y-92795714D01*
X154420059Y-92986190D01*
X154301011Y-93176666D01*
X154193869Y-93271904D01*
X153991488Y-93367142D01*
X153324821Y-93367142D01*
X156634345Y-94319523D02*
X156812916Y-94414761D01*
X157193869Y-94414761D01*
X157396250Y-94319523D01*
X157515297Y-94129047D01*
X157527202Y-94033809D01*
X157455773Y-93843333D01*
X157277202Y-93748095D01*
X156991488Y-93748095D01*
X156812916Y-93652857D01*
X156741488Y-93462380D01*
X156753392Y-93367142D01*
X156872440Y-93176666D01*
X157074821Y-93081428D01*
X157360535Y-93081428D01*
X157539107Y-93176666D01*
X159110535Y-94319523D02*
X158908154Y-94414761D01*
X158527202Y-94414761D01*
X158348630Y-94319523D01*
X158277202Y-94129047D01*
X158372440Y-93367142D01*
X158491488Y-93176666D01*
X158693869Y-93081428D01*
X159074821Y-93081428D01*
X159253392Y-93176666D01*
X159324821Y-93367142D01*
X159301011Y-93557619D01*
X158324821Y-93748095D01*
X160051011Y-94414761D02*
X160217678Y-93081428D01*
X160170059Y-93462380D02*
X160289107Y-93271904D01*
X160396250Y-93176666D01*
X160598630Y-93081428D01*
X160789107Y-93081428D01*
X161289107Y-94414761D02*
X161455773Y-93081428D01*
X161539107Y-92414761D02*
X161431964Y-92510000D01*
X161515297Y-92605238D01*
X161622440Y-92510000D01*
X161539107Y-92414761D01*
X161515297Y-92605238D01*
X163015297Y-94319523D02*
X162812916Y-94414761D01*
X162431964Y-94414761D01*
X162253392Y-94319523D01*
X162181964Y-94129047D01*
X162277202Y-93367142D01*
X162396250Y-93176666D01*
X162598630Y-93081428D01*
X162979583Y-93081428D01*
X163158154Y-93176666D01*
X163229583Y-93367142D01*
X163205773Y-93557619D01*
X162229583Y-93748095D01*
X163872440Y-94319523D02*
X164051011Y-94414761D01*
X164431964Y-94414761D01*
X164634345Y-94319523D01*
X164753392Y-94129047D01*
X164765297Y-94033809D01*
X164693869Y-93843333D01*
X164515297Y-93748095D01*
X164229583Y-93748095D01*
X164051011Y-93652857D01*
X163979583Y-93462380D01*
X163991488Y-93367142D01*
X164110535Y-93176666D01*
X164312916Y-93081428D01*
X164598630Y-93081428D01*
X164777202Y-93176666D01*
D11*
X149895089Y-90947142D02*
X150270089Y-87947142D01*
X150984375Y-87947142D01*
X151395089Y-88090000D01*
X151645089Y-88375714D01*
X151752232Y-88661428D01*
X151823660Y-89232857D01*
X151770089Y-89661428D01*
X151555803Y-90232857D01*
X151377232Y-90518571D01*
X151055803Y-90804285D01*
X150609375Y-90947142D01*
X149895089Y-90947142D01*
X152895089Y-90947142D02*
X153145089Y-88947142D01*
X153073660Y-89518571D02*
X153252232Y-89232857D01*
X153412946Y-89090000D01*
X153716517Y-88947142D01*
X154002232Y-88947142D01*
X154752232Y-90947142D02*
X155002232Y-88947142D01*
X155127232Y-87947142D02*
X154966517Y-88090000D01*
X155091517Y-88232857D01*
X155252232Y-88090000D01*
X155127232Y-87947142D01*
X155091517Y-88232857D01*
X156145089Y-88947142D02*
X156609375Y-90947142D01*
X157573660Y-88947142D01*
X159627232Y-90804285D02*
X159323660Y-90947142D01*
X158752232Y-90947142D01*
X158484375Y-90804285D01*
X158377232Y-90518571D01*
X158520089Y-89375714D01*
X158698660Y-89090000D01*
X159002232Y-88947142D01*
X159573660Y-88947142D01*
X159841517Y-89090000D01*
X159948660Y-89375714D01*
X159912946Y-89661428D01*
X158448660Y-89947142D01*
X161412946Y-87947142D02*
X161109375Y-90375714D01*
X161216517Y-90661428D01*
X161341517Y-90804285D01*
X161609375Y-90947142D01*
X162180803Y-90947142D01*
X162484375Y-90804285D01*
X162645089Y-90661428D01*
X162823660Y-90375714D01*
X163127232Y-87947142D01*
X164430803Y-88947142D02*
X164180803Y-90947142D01*
X164395089Y-89232857D02*
X164555803Y-89090000D01*
X164859375Y-88947142D01*
X165287946Y-88947142D01*
X165555803Y-89090000D01*
X165662946Y-89375714D01*
X165466517Y-90947142D01*
X166895089Y-90947142D02*
X167145089Y-88947142D01*
X167270089Y-87947142D02*
X167109375Y-88090000D01*
X167234375Y-88232857D01*
X167395089Y-88090000D01*
X167270089Y-87947142D01*
X167234375Y-88232857D01*
X168145089Y-88947142D02*
X169287946Y-88947142D01*
X168698660Y-87947142D02*
X168377232Y-90518571D01*
X168484375Y-90804285D01*
X168752232Y-90947142D01*
X169037946Y-90947142D01*
D12*
X174947142Y-101691428D02*
X174947142Y-101091428D01*
X175090000Y-101091428D01*
X175175714Y-101120000D01*
X175232857Y-101177142D01*
X175261428Y-101234285D01*
X175290000Y-101348571D01*
X175290000Y-101434285D01*
X175261428Y-101548571D01*
X175232857Y-101605714D01*
X175175714Y-101662857D01*
X175090000Y-101691428D01*
X174947142Y-101691428D01*
X175832857Y-101091428D02*
X175547142Y-101091428D01*
X175518571Y-101377142D01*
X175547142Y-101348571D01*
X175604285Y-101320000D01*
X175747142Y-101320000D01*
X175804285Y-101348571D01*
X175832857Y-101377142D01*
X175861428Y-101434285D01*
X175861428Y-101577142D01*
X175832857Y-101634285D01*
X175804285Y-101662857D01*
X175747142Y-101691428D01*
X175604285Y-101691428D01*
X175547142Y-101662857D01*
X175518571Y-101634285D01*
X172937142Y-101691428D02*
X172937142Y-101091428D01*
X173080000Y-101091428D01*
X173165714Y-101120000D01*
X173222857Y-101177142D01*
X173251428Y-101234285D01*
X173280000Y-101348571D01*
X173280000Y-101434285D01*
X173251428Y-101548571D01*
X173222857Y-101605714D01*
X173165714Y-101662857D01*
X173080000Y-101691428D01*
X172937142Y-101691428D01*
X173794285Y-101291428D02*
X173794285Y-101691428D01*
X173651428Y-101062857D02*
X173508571Y-101491428D01*
X173880000Y-101491428D01*
D13*
X176232857Y-107624761D02*
X176375714Y-107672380D01*
X176613809Y-107672380D01*
X176709047Y-107624761D01*
X176756666Y-107577142D01*
X176804285Y-107481904D01*
X176804285Y-107386666D01*
X176756666Y-107291428D01*
X176709047Y-107243809D01*
X176613809Y-107196190D01*
X176423333Y-107148571D01*
X176328095Y-107100952D01*
X176280476Y-107053333D01*
X176232857Y-106958095D01*
X176232857Y-106862857D01*
X176280476Y-106767619D01*
X176328095Y-106720000D01*
X176423333Y-106672380D01*
X176661428Y-106672380D01*
X176804285Y-106720000D01*
X177232857Y-107672380D02*
X177232857Y-106672380D01*
X177566190Y-107386666D01*
X177899523Y-106672380D01*
X177899523Y-107672380D01*
X171360952Y-107672380D02*
X170884761Y-107672380D01*
X170884761Y-106672380D01*
X171646666Y-107386666D02*
X172122857Y-107386666D01*
X171551428Y-107672380D02*
X171884761Y-106672380D01*
X172218095Y-107672380D01*
X172551428Y-107672380D02*
X172551428Y-106672380D01*
X172932380Y-106672380D01*
X173027619Y-106720000D01*
X173075238Y-106767619D01*
X173122857Y-106862857D01*
X173122857Y-107005714D01*
X173075238Y-107100952D01*
X173027619Y-107148571D01*
X172932380Y-107196190D01*
X172551428Y-107196190D01*
D10*
G36*
X117270000Y-122630000D02*
G01*
X116190000Y-121260000D01*
X118330000Y-121260000D01*
X117270000Y-122630000D01*
G37*
X117270000Y-122630000D02*
X116190000Y-121260000D01*
X118330000Y-121260000D01*
X117270000Y-122630000D01*
D14*
X115661100Y-123003600D02*
X181341100Y-123003600D01*
D13*
X177684790Y-80758361D02*
X177684790Y-79808361D01*
X178046695Y-79808361D01*
X178137171Y-79853600D01*
X178182409Y-79898838D01*
X178227647Y-79989314D01*
X178227647Y-80125028D01*
X178182409Y-80215504D01*
X178137171Y-80260742D01*
X178046695Y-80305980D01*
X177684790Y-80305980D01*
X178815742Y-79808361D02*
X178996695Y-79808361D01*
X179087171Y-79853600D01*
X179177647Y-79944076D01*
X179222885Y-80125028D01*
X179222885Y-80441695D01*
X179177647Y-80622647D01*
X179087171Y-80713123D01*
X178996695Y-80758361D01*
X178815742Y-80758361D01*
X178725266Y-80713123D01*
X178634790Y-80622647D01*
X178589552Y-80441695D01*
X178589552Y-80125028D01*
X178634790Y-79944076D01*
X178725266Y-79853600D01*
X178815742Y-79808361D01*
X179539552Y-79808361D02*
X179765742Y-80758361D01*
X179946695Y-80079790D01*
X180127647Y-80758361D01*
X180353838Y-79808361D01*
X175349552Y-82913123D02*
X175485266Y-82958361D01*
X175711457Y-82958361D01*
X175801933Y-82913123D01*
X175847171Y-82867885D01*
X175892409Y-82777409D01*
X175892409Y-82686933D01*
X175847171Y-82596457D01*
X175801933Y-82551219D01*
X175711457Y-82505980D01*
X175530504Y-82460742D01*
X175440028Y-82415504D01*
X175394790Y-82370266D01*
X175349552Y-82279790D01*
X175349552Y-82189314D01*
X175394790Y-82098838D01*
X175440028Y-82053600D01*
X175530504Y-82008361D01*
X175756695Y-82008361D01*
X175892409Y-82053600D01*
X176254314Y-82686933D02*
X176706695Y-82686933D01*
X176163838Y-82958361D02*
X176480504Y-82008361D01*
X176797171Y-82958361D01*
X178339552Y-82913123D02*
X178475266Y-82958361D01*
X178701457Y-82958361D01*
X178791933Y-82913123D01*
X178837171Y-82867885D01*
X178882409Y-82777409D01*
X178882409Y-82686933D01*
X178837171Y-82596457D01*
X178791933Y-82551219D01*
X178701457Y-82505980D01*
X178520504Y-82460742D01*
X178430028Y-82415504D01*
X178384790Y-82370266D01*
X178339552Y-82279790D01*
X178339552Y-82189314D01*
X178384790Y-82098838D01*
X178430028Y-82053600D01*
X178520504Y-82008361D01*
X178746695Y-82008361D01*
X178882409Y-82053600D01*
X179606219Y-82460742D02*
X179741933Y-82505980D01*
X179787171Y-82551219D01*
X179832409Y-82641695D01*
X179832409Y-82777409D01*
X179787171Y-82867885D01*
X179741933Y-82913123D01*
X179651457Y-82958361D01*
X179289552Y-82958361D01*
X179289552Y-82008361D01*
X179606219Y-82008361D01*
X179696695Y-82053600D01*
X179741933Y-82098838D01*
X179787171Y-82189314D01*
X179787171Y-82279790D01*
X179741933Y-82370266D01*
X179696695Y-82415504D01*
X179606219Y-82460742D01*
X179289552Y-82460742D01*
X175471457Y-84760742D02*
X175154790Y-84760742D01*
X175154790Y-85258361D02*
X175154790Y-84308361D01*
X175607171Y-84308361D01*
X176285742Y-84760742D02*
X175969076Y-84760742D01*
X175969076Y-85258361D02*
X175969076Y-84308361D01*
X176421457Y-84308361D01*
X177280980Y-85258361D02*
X176738123Y-85258361D01*
X177009552Y-85258361D02*
X177009552Y-84308361D01*
X176919076Y-84444076D01*
X176828600Y-84534552D01*
X176738123Y-84579790D01*
X178401457Y-84760742D02*
X178084790Y-84760742D01*
X178084790Y-85258361D02*
X178084790Y-84308361D01*
X178537171Y-84308361D01*
X179215742Y-84760742D02*
X178899076Y-84760742D01*
X178899076Y-85258361D02*
X178899076Y-84308361D01*
X179351457Y-84308361D01*
X179668123Y-84398838D02*
X179713361Y-84353600D01*
X179803838Y-84308361D01*
X180030028Y-84308361D01*
X180120504Y-84353600D01*
X180165742Y-84398838D01*
X180210980Y-84489314D01*
X180210980Y-84579790D01*
X180165742Y-84715504D01*
X179622885Y-85258361D01*
X180210980Y-85258361D01*
D15*
%TO.C,HA*%
G36*
X123540100Y-101117600D02*
G01*
X124302100Y-101117600D01*
X124302100Y-96799600D01*
X123540100Y-96799600D01*
X123540100Y-101117600D01*
G37*
G36*
X128620100Y-101117600D02*
G01*
X129382100Y-101117600D01*
X129382100Y-96799600D01*
X128620100Y-96799600D01*
X128620100Y-101117600D01*
G37*
D16*
X121317600Y-96799600D02*
X131604600Y-96799600D01*
X131604600Y-96799600D02*
X131604600Y-87833400D01*
X131604600Y-87833400D02*
X121317600Y-87833400D01*
X121317600Y-87833400D02*
X121317600Y-96799600D01*
X122079600Y-88595400D02*
X122079600Y-96037600D01*
X122079600Y-96037600D02*
X130842600Y-96037600D01*
X130842600Y-96037600D02*
X130842600Y-88595400D01*
X130842600Y-88595400D02*
X122079600Y-88595400D01*
X121317600Y-87833400D02*
X122079600Y-88595400D01*
X121317600Y-96799600D02*
X122079600Y-96037600D01*
X131604600Y-87833400D02*
X130842600Y-88595400D01*
X131604600Y-96799600D02*
X130842600Y-96037600D01*
X121317600Y-87833400D02*
X121317600Y-81559600D01*
X121317600Y-81559600D02*
X131604600Y-81559600D01*
X131604600Y-81559600D02*
X131604600Y-87833400D01*
X128061100Y-84353600D02*
G75*
G03*
X128061100Y-84353600I-1600000J0D01*
G01*
D15*
%TO.C,HB*%
G36*
X138240100Y-101107600D02*
G01*
X139002100Y-101107600D01*
X139002100Y-96789600D01*
X138240100Y-96789600D01*
X138240100Y-101107600D01*
G37*
G36*
X143320100Y-101107600D02*
G01*
X144082100Y-101107600D01*
X144082100Y-96789600D01*
X143320100Y-96789600D01*
X143320100Y-101107600D01*
G37*
D16*
X136017600Y-96789600D02*
X146304600Y-96789600D01*
X146304600Y-96789600D02*
X146304600Y-87823400D01*
X146304600Y-87823400D02*
X136017600Y-87823400D01*
X136017600Y-87823400D02*
X136017600Y-96789600D01*
X136779600Y-88585400D02*
X136779600Y-96027600D01*
X136779600Y-96027600D02*
X145542600Y-96027600D01*
X145542600Y-96027600D02*
X145542600Y-88585400D01*
X145542600Y-88585400D02*
X136779600Y-88585400D01*
X136017600Y-87823400D02*
X136779600Y-88585400D01*
X136017600Y-96789600D02*
X136779600Y-96027600D01*
X146304600Y-87823400D02*
X145542600Y-88585400D01*
X146304600Y-96789600D02*
X145542600Y-96027600D01*
X136017600Y-87823400D02*
X136017600Y-81549600D01*
X136017600Y-81549600D02*
X146304600Y-81549600D01*
X146304600Y-81549600D02*
X146304600Y-87823400D01*
X142761100Y-84343600D02*
G75*
G03*
X142761100Y-84343600I-1600000J0D01*
G01*
D15*
%TO.C,LA*%
G36*
X126882100Y-100609600D02*
G01*
X126120100Y-100609600D01*
X126120100Y-104927600D01*
X126882100Y-104927600D01*
X126882100Y-100609600D01*
G37*
G36*
X121802100Y-100609600D02*
G01*
X121040100Y-100609600D01*
X121040100Y-104927600D01*
X121802100Y-104927600D01*
X121802100Y-100609600D01*
G37*
D16*
X129104600Y-104927600D02*
X118817600Y-104927600D01*
X118817600Y-104927600D02*
X118817600Y-113893800D01*
X118817600Y-113893800D02*
X129104600Y-113893800D01*
X129104600Y-113893800D02*
X129104600Y-104927600D01*
X128342600Y-113131800D02*
X128342600Y-105689600D01*
X128342600Y-105689600D02*
X119579600Y-105689600D01*
X119579600Y-105689600D02*
X119579600Y-113131800D01*
X119579600Y-113131800D02*
X128342600Y-113131800D01*
X129104600Y-113893800D02*
X128342600Y-113131800D01*
X129104600Y-104927600D02*
X128342600Y-105689600D01*
X118817600Y-113893800D02*
X119579600Y-113131800D01*
X118817600Y-104927600D02*
X119579600Y-105689600D01*
X129104600Y-113893800D02*
X129104600Y-120167600D01*
X129104600Y-120167600D02*
X118817600Y-120167600D01*
X118817600Y-120167600D02*
X118817600Y-113893800D01*
X125561100Y-117373600D02*
G75*
G03*
X125561100Y-117373600I-1600000J0D01*
G01*
D15*
%TO.C,LB*%
G36*
X141582100Y-100609600D02*
G01*
X140820100Y-100609600D01*
X140820100Y-104927600D01*
X141582100Y-104927600D01*
X141582100Y-100609600D01*
G37*
G36*
X136502100Y-100609600D02*
G01*
X135740100Y-100609600D01*
X135740100Y-104927600D01*
X136502100Y-104927600D01*
X136502100Y-100609600D01*
G37*
D16*
X143804600Y-104927600D02*
X133517600Y-104927600D01*
X133517600Y-104927600D02*
X133517600Y-113893800D01*
X133517600Y-113893800D02*
X143804600Y-113893800D01*
X143804600Y-113893800D02*
X143804600Y-104927600D01*
X143042600Y-113131800D02*
X143042600Y-105689600D01*
X143042600Y-105689600D02*
X134279600Y-105689600D01*
X134279600Y-105689600D02*
X134279600Y-113131800D01*
X134279600Y-113131800D02*
X143042600Y-113131800D01*
X143804600Y-113893800D02*
X143042600Y-113131800D01*
X143804600Y-104927600D02*
X143042600Y-105689600D01*
X133517600Y-113893800D02*
X134279600Y-113131800D01*
X133517600Y-104927600D02*
X134279600Y-105689600D01*
X143804600Y-113893800D02*
X143804600Y-120167600D01*
X143804600Y-120167600D02*
X133517600Y-120167600D01*
X133517600Y-120167600D02*
X133517600Y-113893800D01*
X140261100Y-117373600D02*
G75*
G03*
X140261100Y-117373600I-1600000J0D01*
G01*
D10*
%TO.C,C10*%
X170971100Y-116463600D02*
G75*
G03*
X170971100Y-116463600I-5250000J0D01*
G01*
D17*
X165721100Y-121713600D02*
X165721100Y-111213600D01*
D15*
G36*
X165721100Y-111213600D02*
G01*
X165721100Y-121713600D01*
X166205509Y-121691204D01*
X166685785Y-121624209D01*
X167157831Y-121513185D01*
X167617619Y-121359079D01*
X168061226Y-121163207D01*
X168484869Y-120927240D01*
X168884932Y-120653190D01*
X169258002Y-120343397D01*
X169600897Y-120000502D01*
X169910690Y-119627432D01*
X170184740Y-119227369D01*
X170420707Y-118803726D01*
X170616579Y-118360119D01*
X170770685Y-117900331D01*
X170881709Y-117428285D01*
X170971100Y-116463600D01*
X170948704Y-115979191D01*
X170881709Y-115498915D01*
X170770685Y-115026869D01*
X170616579Y-114567081D01*
X170420707Y-114123474D01*
X170184740Y-113699831D01*
X169910690Y-113299768D01*
X169600897Y-112926698D01*
X169258002Y-112583803D01*
X168884932Y-112274010D01*
X168484869Y-111999960D01*
X168061226Y-111763993D01*
X167617619Y-111568121D01*
X167157831Y-111414015D01*
X166685785Y-111302991D01*
X166205509Y-111235996D01*
X165721100Y-111213600D01*
G37*
D10*
%TO.C,C11*%
X159121100Y-116493600D02*
G75*
G03*
X159121100Y-116493600I-5250000J0D01*
G01*
D17*
X153871100Y-121743600D02*
X153871100Y-111243600D01*
D15*
G36*
X153871100Y-111243600D02*
G01*
X153871100Y-121743600D01*
X154355509Y-121721204D01*
X154835785Y-121654209D01*
X155307831Y-121543185D01*
X155767619Y-121389079D01*
X156211226Y-121193207D01*
X156634869Y-120957240D01*
X157034932Y-120683190D01*
X157408002Y-120373397D01*
X157750897Y-120030502D01*
X158060690Y-119657432D01*
X158334740Y-119257369D01*
X158570707Y-118833726D01*
X158766579Y-118390119D01*
X158920685Y-117930331D01*
X159031709Y-117458285D01*
X159121100Y-116493600D01*
X159098704Y-116009191D01*
X159031709Y-115528915D01*
X158920685Y-115056869D01*
X158766579Y-114597081D01*
X158570707Y-114153474D01*
X158334740Y-113729831D01*
X158060690Y-113329768D01*
X157750897Y-112956698D01*
X157408002Y-112613803D01*
X157034932Y-112304010D01*
X156634869Y-112029960D01*
X156211226Y-111793993D01*
X155767619Y-111598121D01*
X155307831Y-111444015D01*
X154835785Y-111332991D01*
X154355509Y-111265996D01*
X153871100Y-111243600D01*
G37*
D14*
%TO.C,D4*%
X174341100Y-97233600D02*
X174341100Y-100133600D01*
X174341100Y-100133600D02*
X173941100Y-100133600D01*
X172841100Y-100133600D02*
X172441100Y-100133600D01*
X172441100Y-100133600D02*
X172441100Y-97233600D01*
X173941100Y-96883600D02*
X173941100Y-97233600D01*
X172841100Y-97233600D02*
X172841100Y-96883600D01*
X172841100Y-96883600D02*
X173941100Y-96883600D01*
X173941100Y-100133600D02*
X172841100Y-100133600D01*
X172841100Y-100133600D02*
X172841100Y-100533600D01*
X172841100Y-100533600D02*
X173941100Y-100533600D01*
X173941100Y-100533600D02*
X173941100Y-100133600D01*
X174341100Y-97233600D02*
X173941100Y-97233600D01*
X173941100Y-97233600D02*
X172841100Y-97233600D01*
X172841100Y-97233600D02*
X172441100Y-97233600D01*
D17*
X174291100Y-97596100D02*
X172491100Y-97596100D01*
D14*
%TO.C,D5*%
X176341100Y-97253600D02*
X176341100Y-100153600D01*
X176341100Y-100153600D02*
X175941100Y-100153600D01*
X174841100Y-100153600D02*
X174441100Y-100153600D01*
X174441100Y-100153600D02*
X174441100Y-97253600D01*
X175941100Y-96903600D02*
X175941100Y-97253600D01*
X174841100Y-97253600D02*
X174841100Y-96903600D01*
X174841100Y-96903600D02*
X175941100Y-96903600D01*
X175941100Y-100153600D02*
X174841100Y-100153600D01*
X174841100Y-100153600D02*
X174841100Y-100553600D01*
X174841100Y-100553600D02*
X175941100Y-100553600D01*
X175941100Y-100553600D02*
X175941100Y-100153600D01*
X176341100Y-97253600D02*
X175941100Y-97253600D01*
X175941100Y-97253600D02*
X174841100Y-97253600D01*
X174841100Y-97253600D02*
X174441100Y-97253600D01*
D17*
X176291100Y-97616100D02*
X174491100Y-97616100D01*
%TO.C,LED1*%
X176886100Y-83233600D02*
X176486100Y-83233600D01*
X176486100Y-83233600D02*
X175686100Y-83233600D01*
X175686100Y-83233600D02*
X175286100Y-83233600D01*
X175286100Y-83233600D02*
X175286100Y-84033600D01*
X175286100Y-84033600D02*
X175686100Y-84033600D01*
X175686100Y-84033600D02*
X176486100Y-84033600D01*
X176486100Y-84033600D02*
X176886100Y-84033600D01*
X176886100Y-84033600D02*
X176886100Y-83233600D01*
X175686100Y-83233600D02*
X175686100Y-84033600D01*
X176486100Y-83233600D02*
X176486100Y-84033600D01*
D15*
G36*
X176213600Y-83506600D02*
G01*
X176213600Y-83760600D01*
X175959600Y-83633600D01*
X176213600Y-83506600D01*
G37*
D17*
%TO.C,LED2*%
X179826100Y-83233600D02*
X179426100Y-83233600D01*
X179426100Y-83233600D02*
X178626100Y-83233600D01*
X178626100Y-83233600D02*
X178226100Y-83233600D01*
X178226100Y-83233600D02*
X178226100Y-84033600D01*
X178226100Y-84033600D02*
X178626100Y-84033600D01*
X178626100Y-84033600D02*
X179426100Y-84033600D01*
X179426100Y-84033600D02*
X179826100Y-84033600D01*
X179826100Y-84033600D02*
X179826100Y-83233600D01*
X178626100Y-83233600D02*
X178626100Y-84033600D01*
X179426100Y-83233600D02*
X179426100Y-84033600D01*
D15*
G36*
X179153600Y-83506600D02*
G01*
X179153600Y-83760600D01*
X178899600Y-83633600D01*
X179153600Y-83506600D01*
G37*
D17*
%TO.C,LED3*%
X178256100Y-81773600D02*
X178656100Y-81773600D01*
X178656100Y-81773600D02*
X179456100Y-81773600D01*
X179456100Y-81773600D02*
X179856100Y-81773600D01*
X179856100Y-81773600D02*
X179856100Y-80973600D01*
X179856100Y-80973600D02*
X179456100Y-80973600D01*
X179456100Y-80973600D02*
X178656100Y-80973600D01*
X178656100Y-80973600D02*
X178256100Y-80973600D01*
X178256100Y-80973600D02*
X178256100Y-81773600D01*
X179456100Y-81773600D02*
X179456100Y-80973600D01*
X178656100Y-81773600D02*
X178656100Y-80973600D01*
D15*
G36*
X178928600Y-81500600D02*
G01*
X178928600Y-81246600D01*
X179182600Y-81373600D01*
X178928600Y-81500600D01*
G37*
D17*
%TO.C,LED4*%
X176886100Y-85453600D02*
X176486100Y-85453600D01*
X176486100Y-85453600D02*
X175686100Y-85453600D01*
X175686100Y-85453600D02*
X175286100Y-85453600D01*
X175286100Y-85453600D02*
X175286100Y-86253600D01*
X175286100Y-86253600D02*
X175686100Y-86253600D01*
X175686100Y-86253600D02*
X176486100Y-86253600D01*
X176486100Y-86253600D02*
X176886100Y-86253600D01*
X176886100Y-86253600D02*
X176886100Y-85453600D01*
X175686100Y-85453600D02*
X175686100Y-86253600D01*
X176486100Y-85453600D02*
X176486100Y-86253600D01*
D15*
G36*
X176213600Y-85726600D02*
G01*
X176213600Y-85980600D01*
X175959600Y-85853600D01*
X176213600Y-85726600D01*
G37*
D17*
%TO.C,LED5*%
X179826100Y-85453600D02*
X179426100Y-85453600D01*
X179426100Y-85453600D02*
X178626100Y-85453600D01*
X178626100Y-85453600D02*
X178226100Y-85453600D01*
X178226100Y-85453600D02*
X178226100Y-86253600D01*
X178226100Y-86253600D02*
X178626100Y-86253600D01*
X178626100Y-86253600D02*
X179426100Y-86253600D01*
X179426100Y-86253600D02*
X179826100Y-86253600D01*
X179826100Y-86253600D02*
X179826100Y-85453600D01*
X178626100Y-85453600D02*
X178626100Y-86253600D01*
X179426100Y-85453600D02*
X179426100Y-86253600D01*
D15*
G36*
X179153600Y-85726600D02*
G01*
X179153600Y-85980600D01*
X178899600Y-85853600D01*
X179153600Y-85726600D01*
G37*
D16*
%TO.C,R11*%
X174685000Y-112683600D02*
X174685000Y-112283600D01*
X174685000Y-112283600D02*
X174685000Y-111083600D01*
X174685000Y-111083600D02*
X174685000Y-110683600D01*
X174685000Y-110683600D02*
X173435000Y-110683600D01*
X173435000Y-110683600D02*
X173435000Y-111083600D01*
X173435000Y-111083600D02*
X173435000Y-112283600D01*
X173435000Y-112283600D02*
X173435000Y-112683600D01*
X173435000Y-112683600D02*
X174685000Y-112683600D01*
X173435000Y-112283600D02*
X174685000Y-112283600D01*
X173435000Y-111083600D02*
X174685000Y-111083600D01*
%TO.C,R22*%
X171341100Y-81978600D02*
X171741100Y-81978600D01*
X171741100Y-81978600D02*
X172941100Y-81978600D01*
X172941100Y-81978600D02*
X173341100Y-81978600D01*
X173341100Y-81978600D02*
X173341100Y-80728600D01*
X173341100Y-80728600D02*
X172941100Y-80728600D01*
X172941100Y-80728600D02*
X171741100Y-80728600D01*
X171741100Y-80728600D02*
X171341100Y-80728600D01*
X171341100Y-80728600D02*
X171341100Y-81978600D01*
X171741100Y-80728600D02*
X171741100Y-81978600D01*
X172941100Y-80728600D02*
X172941100Y-81978600D01*
%TO.C,R3*%
X171311100Y-84288600D02*
X171711100Y-84288600D01*
X171711100Y-84288600D02*
X172911100Y-84288600D01*
X172911100Y-84288600D02*
X173311100Y-84288600D01*
X173311100Y-84288600D02*
X173311100Y-83038600D01*
X173311100Y-83038600D02*
X172911100Y-83038600D01*
X172911100Y-83038600D02*
X171711100Y-83038600D01*
X171711100Y-83038600D02*
X171311100Y-83038600D01*
X171311100Y-83038600D02*
X171311100Y-84288600D01*
X171711100Y-83038600D02*
X171711100Y-84288600D01*
X172911100Y-83038600D02*
X172911100Y-84288600D01*
%TO.C,R4*%
X173021100Y-94578600D02*
X173421100Y-94578600D01*
X173421100Y-94578600D02*
X174621100Y-94578600D01*
X174621100Y-94578600D02*
X175021100Y-94578600D01*
X175021100Y-94578600D02*
X175021100Y-93328600D01*
X175021100Y-93328600D02*
X174621100Y-93328600D01*
X174621100Y-93328600D02*
X173421100Y-93328600D01*
X173421100Y-93328600D02*
X173021100Y-93328600D01*
X173021100Y-93328600D02*
X173021100Y-94578600D01*
X173421100Y-93328600D02*
X173421100Y-94578600D01*
X174621100Y-93328600D02*
X174621100Y-94578600D01*
%TO.C,R5*%
X179251100Y-93328600D02*
X178851100Y-93328600D01*
X178851100Y-93328600D02*
X177651100Y-93328600D01*
X177651100Y-93328600D02*
X177251100Y-93328600D01*
X177251100Y-93328600D02*
X177251100Y-94578600D01*
X177251100Y-94578600D02*
X177651100Y-94578600D01*
X177651100Y-94578600D02*
X178851100Y-94578600D01*
X178851100Y-94578600D02*
X179251100Y-94578600D01*
X179251100Y-94578600D02*
X179251100Y-93328600D01*
X178851100Y-94578600D02*
X178851100Y-93328600D01*
X177651100Y-94578600D02*
X177651100Y-93328600D01*
%TO.C,R7*%
X174901100Y-87178600D02*
X174501100Y-87178600D01*
X174501100Y-87178600D02*
X173301100Y-87178600D01*
X173301100Y-87178600D02*
X172901100Y-87178600D01*
X172901100Y-87178600D02*
X172901100Y-88428600D01*
X172901100Y-88428600D02*
X173301100Y-88428600D01*
X173301100Y-88428600D02*
X174501100Y-88428600D01*
X174501100Y-88428600D02*
X174901100Y-88428600D01*
X174901100Y-88428600D02*
X174901100Y-87178600D01*
X174501100Y-88428600D02*
X174501100Y-87178600D01*
X173301100Y-88428600D02*
X173301100Y-87178600D01*
%TO.C,R8*%
X177221100Y-88428600D02*
X177621100Y-88428600D01*
X177621100Y-88428600D02*
X178821100Y-88428600D01*
X178821100Y-88428600D02*
X179221100Y-88428600D01*
X179221100Y-88428600D02*
X179221100Y-87178600D01*
X179221100Y-87178600D02*
X178821100Y-87178600D01*
X178821100Y-87178600D02*
X177621100Y-87178600D01*
X177621100Y-87178600D02*
X177221100Y-87178600D01*
X177221100Y-87178600D02*
X177221100Y-88428600D01*
X177621100Y-87178600D02*
X177621100Y-88428600D01*
X178821100Y-87178600D02*
X178821100Y-88428600D01*
D14*
%TO.C,SA*%
X170251100Y-100638600D02*
X171551100Y-100638600D01*
X171551100Y-100638600D02*
X171551100Y-100088600D01*
X171551100Y-100088600D02*
X170251100Y-100088600D01*
X170251100Y-100088600D02*
X170251100Y-100638600D01*
X170251100Y-97288600D02*
X171551100Y-97288600D01*
X171551100Y-97288600D02*
X171551100Y-96738600D01*
X171551100Y-96738600D02*
X170251100Y-96738600D01*
X170251100Y-96738600D02*
X170251100Y-97288600D01*
X169451100Y-100088600D02*
X172351100Y-100088600D01*
X169451100Y-97288600D02*
X172351100Y-97288600D01*
X169451100Y-100088600D02*
X169451100Y-97288600D01*
X172351100Y-100088600D02*
X172351100Y-97288600D01*
X171801100Y-98688600D02*
G75*
G03*
X171801100Y-98688600I-900000J0D01*
G01*
%TO.C,SB*%
X178571100Y-96718600D02*
X177271100Y-96718600D01*
X177271100Y-96718600D02*
X177271100Y-97268600D01*
X177271100Y-97268600D02*
X178571100Y-97268600D01*
X178571100Y-97268600D02*
X178571100Y-96718600D01*
X178571100Y-100068600D02*
X177271100Y-100068600D01*
X177271100Y-100068600D02*
X177271100Y-100618600D01*
X177271100Y-100618600D02*
X178571100Y-100618600D01*
X178571100Y-100618600D02*
X178571100Y-100068600D01*
X179371100Y-97268600D02*
X176471100Y-97268600D01*
X179371100Y-100068600D02*
X176471100Y-100068600D01*
X179371100Y-97268600D02*
X179371100Y-100068600D01*
X176471100Y-97268600D02*
X176471100Y-100068600D01*
X178821100Y-98668600D02*
G75*
G03*
X178821100Y-98668600I-900000J0D01*
G01*
%TO.C,RESET*%
X177501100Y-113533600D02*
X177501100Y-109833600D01*
X177501100Y-109833600D02*
X178076100Y-109833600D01*
X178751100Y-109833600D02*
X179351100Y-109833600D01*
X180026100Y-109833600D02*
X180601100Y-109833600D01*
X177501100Y-113533600D02*
X178076100Y-113533600D01*
X178751100Y-113533600D02*
X179351100Y-113533600D01*
X180026100Y-113533600D02*
X180601100Y-113533600D01*
X179351100Y-114208600D02*
X180026100Y-114208600D01*
X180026100Y-114208600D02*
X180026100Y-113533600D01*
X180026100Y-113533600D02*
X179351100Y-113533600D01*
X179351100Y-113533600D02*
X179351100Y-114208600D01*
X178076100Y-114208600D02*
X178751100Y-114208600D01*
X178751100Y-114208600D02*
X178751100Y-113533600D01*
X178751100Y-113533600D02*
X178076100Y-113533600D01*
X178076100Y-113533600D02*
X178076100Y-114208600D01*
X179351100Y-109833600D02*
X180026100Y-109833600D01*
X180026100Y-109833600D02*
X180026100Y-109158600D01*
X180026100Y-109158600D02*
X179351100Y-109158600D01*
X179351100Y-109158600D02*
X179351100Y-109833600D01*
X178076100Y-109833600D02*
X178751100Y-109833600D01*
X178751100Y-109833600D02*
X178751100Y-109158600D01*
X178751100Y-109158600D02*
X178076100Y-109158600D01*
X178076100Y-109158600D02*
X178076100Y-109833600D01*
X180313600Y-110883600D02*
X181001100Y-110883600D01*
X181001100Y-110883600D02*
X181401100Y-110883600D01*
X181401100Y-110883600D02*
X181401100Y-112483600D01*
X180313600Y-110883600D02*
X180313600Y-112483600D01*
X180313600Y-112483600D02*
X181001100Y-112483600D01*
X181001100Y-112483600D02*
X181401100Y-112483600D01*
X180601100Y-113533600D02*
X180601100Y-112771100D01*
X180601100Y-109833600D02*
X180601100Y-110596100D01*
X180313600Y-110783600D02*
X180313600Y-110883600D01*
X181001100Y-112483600D02*
X181001100Y-110883600D01*
X178176100Y-112683600D02*
X179926100Y-112683600D01*
X180026100Y-112583600D02*
X180026100Y-110783600D01*
X179926100Y-110683600D02*
X178176100Y-110683600D01*
X178076100Y-110783600D02*
X178076100Y-112583600D01*
X178176100Y-112683600D02*
G75*
G02*
X178076100Y-112583600I0J100000D01*
G01*
X178076100Y-110783600D02*
G75*
G02*
X178176100Y-110683600I100000J0D01*
G01*
X179926099Y-110683599D02*
G75*
G02*
X180026100Y-110783600I0J-100001D01*
G01*
X180026099Y-112583599D02*
G75*
G02*
X179926100Y-112683600I-100000J-1D01*
G01*
X180313600Y-110783600D02*
G75*
G02*
X180601100Y-110596100I237500J-50000D01*
G01*
X180313600Y-112483600D02*
G75*
G03*
X180601100Y-112771100I287500J0D01*
G01*
%TO.C,SW4*%
X178651100Y-106263600D02*
X178651100Y-102563600D01*
X178651100Y-102563600D02*
X170151100Y-102563600D01*
X170151100Y-102563600D02*
X170151100Y-106263600D01*
X170151100Y-106263600D02*
X178651100Y-106263600D01*
X176151100Y-105263600D02*
X176151100Y-103563600D01*
X176151100Y-103563600D02*
X172651100Y-103563600D01*
X172651100Y-103563600D02*
X172651100Y-105263600D01*
X172651100Y-105263600D02*
X176151100Y-105263600D01*
X175901100Y-103663600D02*
X174401100Y-103663600D01*
X174401100Y-103663600D02*
X174401100Y-105163600D01*
X174401100Y-105163600D02*
X175901100Y-105163600D01*
X175901100Y-105163600D02*
X175901100Y-103663600D01*
X175701100Y-104963600D02*
X175701100Y-103863600D01*
X175701100Y-103863600D02*
X174601100Y-103863600D01*
X174601100Y-103863600D02*
X174601100Y-104963600D01*
X174601100Y-104963600D02*
X175701100Y-104963600D01*
X175701100Y-104963600D02*
X175901100Y-105163600D01*
X175701100Y-103863600D02*
X175901100Y-103663600D01*
X174601100Y-104963600D02*
X174401100Y-105163600D01*
X174601100Y-103863600D02*
X174401100Y-103663600D01*
D16*
%TO.C,TR1*%
X172420000Y-91775000D02*
X172820000Y-91775000D01*
X173220000Y-91775000D02*
X174720000Y-91775000D01*
X175120000Y-91775000D02*
X175520000Y-91775000D01*
X175520000Y-91775000D02*
X175520000Y-90025000D01*
X175520000Y-90025000D02*
X174170000Y-90025000D01*
X173770000Y-90025000D02*
X172420000Y-90025000D01*
X172420000Y-90025000D02*
X172420000Y-91775000D01*
X174720000Y-91775000D02*
X174720000Y-92275000D01*
X174720000Y-92275000D02*
X175120000Y-92275000D01*
X175120000Y-92275000D02*
X175120000Y-91775000D01*
X175120000Y-91775000D02*
X174720000Y-91775000D01*
X172820000Y-91775000D02*
X172820000Y-92275000D01*
X172820000Y-92275000D02*
X173220000Y-92275000D01*
X173220000Y-92275000D02*
X173220000Y-91775000D01*
X173220000Y-91775000D02*
X172820000Y-91775000D01*
X173770000Y-90025000D02*
X174170000Y-90025000D01*
X174170000Y-90025000D02*
X174170000Y-89525000D01*
X174170000Y-89525000D02*
X173770000Y-89525000D01*
X173770000Y-89525000D02*
X173770000Y-90025000D01*
%TO.C,TR2*%
X176661100Y-91775000D02*
X177061100Y-91775000D01*
X177461100Y-91775000D02*
X178961100Y-91775000D01*
X179361100Y-91775000D02*
X179761100Y-91775000D01*
X179761100Y-91775000D02*
X179761100Y-90025000D01*
X179761100Y-90025000D02*
X178411100Y-90025000D01*
X178011100Y-90025000D02*
X176661100Y-90025000D01*
X176661100Y-90025000D02*
X176661100Y-91775000D01*
X178961100Y-91775000D02*
X178961100Y-92275000D01*
X178961100Y-92275000D02*
X179361100Y-92275000D01*
X179361100Y-92275000D02*
X179361100Y-91775000D01*
X179361100Y-91775000D02*
X178961100Y-91775000D01*
X177061100Y-91775000D02*
X177061100Y-92275000D01*
X177061100Y-92275000D02*
X177461100Y-92275000D01*
X177461100Y-92275000D02*
X177461100Y-91775000D01*
X177461100Y-91775000D02*
X177061100Y-91775000D01*
X178011100Y-90025000D02*
X178411100Y-90025000D01*
X178411100Y-90025000D02*
X178411100Y-89525000D01*
X178411100Y-89525000D02*
X178011100Y-89525000D01*
X178011100Y-89525000D02*
X178011100Y-90025000D01*
%TO.C,HA*%
D15*
X125582261Y-98462547D02*
X125582261Y-97256047D01*
X125582261Y-97830571D02*
X126271690Y-97830571D01*
X126271690Y-98462547D02*
X126271690Y-97256047D01*
X126788761Y-98117833D02*
X127363285Y-98117833D01*
X126673857Y-98462547D02*
X127076023Y-97256047D01*
X127478190Y-98462547D01*
%TO.C,HB*%
X140242261Y-98462547D02*
X140242261Y-97256047D01*
X140242261Y-97830571D02*
X140931690Y-97830571D01*
X140931690Y-98462547D02*
X140931690Y-97256047D01*
X141908380Y-97830571D02*
X142080738Y-97888023D01*
X142138190Y-97945476D01*
X142195642Y-98060380D01*
X142195642Y-98232738D01*
X142138190Y-98347642D01*
X142080738Y-98405095D01*
X141965833Y-98462547D01*
X141506214Y-98462547D01*
X141506214Y-97256047D01*
X141908380Y-97256047D01*
X142023285Y-97313500D01*
X142080738Y-97370952D01*
X142138190Y-97485857D01*
X142138190Y-97600761D01*
X142080738Y-97715666D01*
X142023285Y-97773119D01*
X141908380Y-97830571D01*
X141506214Y-97830571D01*
%TO.C,LA*%
X123746785Y-104282547D02*
X123172261Y-104282547D01*
X123172261Y-103076047D01*
X124091500Y-103937833D02*
X124666023Y-103937833D01*
X123976595Y-104282547D02*
X124378761Y-103076047D01*
X124780928Y-104282547D01*
%TO.C,LB*%
X138486785Y-104282547D02*
X137912261Y-104282547D01*
X137912261Y-103076047D01*
X139291119Y-103650571D02*
X139463476Y-103708023D01*
X139520928Y-103765476D01*
X139578380Y-103880380D01*
X139578380Y-104052738D01*
X139520928Y-104167642D01*
X139463476Y-104225095D01*
X139348571Y-104282547D01*
X138888952Y-104282547D01*
X138888952Y-103076047D01*
X139291119Y-103076047D01*
X139406023Y-103133500D01*
X139463476Y-103190952D01*
X139520928Y-103305857D01*
X139520928Y-103420761D01*
X139463476Y-103535666D01*
X139406023Y-103593119D01*
X139291119Y-103650571D01*
X138888952Y-103650571D01*
%TO.C,C10*%
D13*
X169866547Y-112074285D02*
X169821309Y-112119523D01*
X169685595Y-112164761D01*
X169595119Y-112164761D01*
X169459404Y-112119523D01*
X169368928Y-112029047D01*
X169323690Y-111938571D01*
X169278452Y-111757619D01*
X169278452Y-111621904D01*
X169323690Y-111440952D01*
X169368928Y-111350476D01*
X169459404Y-111260000D01*
X169595119Y-111214761D01*
X169685595Y-111214761D01*
X169821309Y-111260000D01*
X169866547Y-111305238D01*
X170771309Y-112164761D02*
X170228452Y-112164761D01*
X170499880Y-112164761D02*
X170499880Y-111214761D01*
X170409404Y-111350476D01*
X170318928Y-111440952D01*
X170228452Y-111486190D01*
X171359404Y-111214761D02*
X171449880Y-111214761D01*
X171540357Y-111260000D01*
X171585595Y-111305238D01*
X171630833Y-111395714D01*
X171676071Y-111576666D01*
X171676071Y-111802857D01*
X171630833Y-111983809D01*
X171585595Y-112074285D01*
X171540357Y-112119523D01*
X171449880Y-112164761D01*
X171359404Y-112164761D01*
X171268928Y-112119523D01*
X171223690Y-112074285D01*
X171178452Y-111983809D01*
X171133214Y-111802857D01*
X171133214Y-111576666D01*
X171178452Y-111395714D01*
X171223690Y-111305238D01*
X171268928Y-111260000D01*
X171359404Y-111214761D01*
%TO.C,C11*%
X157906547Y-112074285D02*
X157861309Y-112119523D01*
X157725595Y-112164761D01*
X157635119Y-112164761D01*
X157499404Y-112119523D01*
X157408928Y-112029047D01*
X157363690Y-111938571D01*
X157318452Y-111757619D01*
X157318452Y-111621904D01*
X157363690Y-111440952D01*
X157408928Y-111350476D01*
X157499404Y-111260000D01*
X157635119Y-111214761D01*
X157725595Y-111214761D01*
X157861309Y-111260000D01*
X157906547Y-111305238D01*
X158811309Y-112164761D02*
X158268452Y-112164761D01*
X158539880Y-112164761D02*
X158539880Y-111214761D01*
X158449404Y-111350476D01*
X158358928Y-111440952D01*
X158268452Y-111486190D01*
X159716071Y-112164761D02*
X159173214Y-112164761D01*
X159444642Y-112164761D02*
X159444642Y-111214761D01*
X159354166Y-111350476D01*
X159263690Y-111440952D01*
X159173214Y-111486190D01*
%TO.C,R11*%
D12*
X172801428Y-112148785D02*
X172515714Y-112348785D01*
X172801428Y-112491642D02*
X172201428Y-112491642D01*
X172201428Y-112263071D01*
X172230000Y-112205928D01*
X172258571Y-112177357D01*
X172315714Y-112148785D01*
X172401428Y-112148785D01*
X172458571Y-112177357D01*
X172487142Y-112205928D01*
X172515714Y-112263071D01*
X172515714Y-112491642D01*
X172801428Y-111577357D02*
X172801428Y-111920214D01*
X172801428Y-111748785D02*
X172201428Y-111748785D01*
X172287142Y-111805928D01*
X172344285Y-111863071D01*
X172372857Y-111920214D01*
X172801428Y-111005928D02*
X172801428Y-111348785D01*
X172801428Y-111177357D02*
X172201428Y-111177357D01*
X172287142Y-111234500D01*
X172344285Y-111291642D01*
X172372857Y-111348785D01*
D18*
X174148509Y-111786544D02*
X174148509Y-111924430D01*
X174148509Y-111855487D02*
X173907209Y-111855487D01*
X173941680Y-111878468D01*
X173964661Y-111901449D01*
X173976152Y-111924430D01*
X173907209Y-111637168D02*
X173907209Y-111614187D01*
X173918700Y-111591206D01*
X173930190Y-111579715D01*
X173953171Y-111568225D01*
X173999133Y-111556734D01*
X174056585Y-111556734D01*
X174102547Y-111568225D01*
X174125528Y-111579715D01*
X174137019Y-111591206D01*
X174148509Y-111614187D01*
X174148509Y-111637168D01*
X174137019Y-111660149D01*
X174125528Y-111671639D01*
X174102547Y-111683130D01*
X174056585Y-111694620D01*
X173999133Y-111694620D01*
X173953171Y-111683130D01*
X173930190Y-111671639D01*
X173918700Y-111660149D01*
X173907209Y-111637168D01*
X173907209Y-111476301D02*
X173907209Y-111326925D01*
X173999133Y-111407358D01*
X173999133Y-111372887D01*
X174010623Y-111349906D01*
X174022114Y-111338415D01*
X174045095Y-111326925D01*
X174102547Y-111326925D01*
X174125528Y-111338415D01*
X174137019Y-111349906D01*
X174148509Y-111372887D01*
X174148509Y-111441830D01*
X174137019Y-111464811D01*
X174125528Y-111476301D01*
%TO.C,R22*%
D12*
X171901214Y-80281428D02*
X171701214Y-79995714D01*
X171558357Y-80281428D02*
X171558357Y-79681428D01*
X171786928Y-79681428D01*
X171844071Y-79710000D01*
X171872642Y-79738571D01*
X171901214Y-79795714D01*
X171901214Y-79881428D01*
X171872642Y-79938571D01*
X171844071Y-79967142D01*
X171786928Y-79995714D01*
X171558357Y-79995714D01*
X172129785Y-79738571D02*
X172158357Y-79710000D01*
X172215500Y-79681428D01*
X172358357Y-79681428D01*
X172415500Y-79710000D01*
X172444071Y-79738571D01*
X172472642Y-79795714D01*
X172472642Y-79852857D01*
X172444071Y-79938571D01*
X172101214Y-80281428D01*
X172472642Y-80281428D01*
X172701214Y-79738571D02*
X172729785Y-79710000D01*
X172786928Y-79681428D01*
X172929785Y-79681428D01*
X172986928Y-79710000D01*
X173015500Y-79738571D01*
X173044071Y-79795714D01*
X173044071Y-79852857D01*
X173015500Y-79938571D01*
X172672642Y-80281428D01*
X173044071Y-80281428D01*
D18*
X172215174Y-81200809D02*
X172169212Y-81200809D01*
X172146231Y-81212300D01*
X172134741Y-81223790D01*
X172111760Y-81258261D01*
X172100269Y-81304223D01*
X172100269Y-81396147D01*
X172111760Y-81419128D01*
X172123250Y-81430619D01*
X172146231Y-81442109D01*
X172192193Y-81442109D01*
X172215174Y-81430619D01*
X172226665Y-81419128D01*
X172238155Y-81396147D01*
X172238155Y-81338695D01*
X172226665Y-81315714D01*
X172215174Y-81304223D01*
X172192193Y-81292733D01*
X172146231Y-81292733D01*
X172123250Y-81304223D01*
X172111760Y-81315714D01*
X172100269Y-81338695D01*
X172376041Y-81304223D02*
X172353060Y-81292733D01*
X172341569Y-81281242D01*
X172330079Y-81258261D01*
X172330079Y-81246771D01*
X172341569Y-81223790D01*
X172353060Y-81212300D01*
X172376041Y-81200809D01*
X172422003Y-81200809D01*
X172444984Y-81212300D01*
X172456474Y-81223790D01*
X172467965Y-81246771D01*
X172467965Y-81258261D01*
X172456474Y-81281242D01*
X172444984Y-81292733D01*
X172422003Y-81304223D01*
X172376041Y-81304223D01*
X172353060Y-81315714D01*
X172341569Y-81327204D01*
X172330079Y-81350185D01*
X172330079Y-81396147D01*
X172341569Y-81419128D01*
X172353060Y-81430619D01*
X172376041Y-81442109D01*
X172422003Y-81442109D01*
X172444984Y-81430619D01*
X172456474Y-81419128D01*
X172467965Y-81396147D01*
X172467965Y-81350185D01*
X172456474Y-81327204D01*
X172444984Y-81315714D01*
X172422003Y-81304223D01*
X172697774Y-81442109D02*
X172559888Y-81442109D01*
X172628831Y-81442109D02*
X172628831Y-81200809D01*
X172605850Y-81235280D01*
X172582869Y-81258261D01*
X172559888Y-81269752D01*
%TO.C,R3*%
D12*
X172181214Y-85371428D02*
X171981214Y-85085714D01*
X171838357Y-85371428D02*
X171838357Y-84771428D01*
X172066928Y-84771428D01*
X172124071Y-84800000D01*
X172152642Y-84828571D01*
X172181214Y-84885714D01*
X172181214Y-84971428D01*
X172152642Y-85028571D01*
X172124071Y-85057142D01*
X172066928Y-85085714D01*
X171838357Y-85085714D01*
X172381214Y-84771428D02*
X172752642Y-84771428D01*
X172552642Y-85000000D01*
X172638357Y-85000000D01*
X172695500Y-85028571D01*
X172724071Y-85057142D01*
X172752642Y-85114285D01*
X172752642Y-85257142D01*
X172724071Y-85314285D01*
X172695500Y-85342857D01*
X172638357Y-85371428D01*
X172466928Y-85371428D01*
X172409785Y-85342857D01*
X172381214Y-85314285D01*
D18*
X172185174Y-83510809D02*
X172139212Y-83510809D01*
X172116231Y-83522300D01*
X172104741Y-83533790D01*
X172081760Y-83568261D01*
X172070269Y-83614223D01*
X172070269Y-83706147D01*
X172081760Y-83729128D01*
X172093250Y-83740619D01*
X172116231Y-83752109D01*
X172162193Y-83752109D01*
X172185174Y-83740619D01*
X172196665Y-83729128D01*
X172208155Y-83706147D01*
X172208155Y-83648695D01*
X172196665Y-83625714D01*
X172185174Y-83614223D01*
X172162193Y-83602733D01*
X172116231Y-83602733D01*
X172093250Y-83614223D01*
X172081760Y-83625714D01*
X172070269Y-83648695D01*
X172346041Y-83614223D02*
X172323060Y-83602733D01*
X172311569Y-83591242D01*
X172300079Y-83568261D01*
X172300079Y-83556771D01*
X172311569Y-83533790D01*
X172323060Y-83522300D01*
X172346041Y-83510809D01*
X172392003Y-83510809D01*
X172414984Y-83522300D01*
X172426474Y-83533790D01*
X172437965Y-83556771D01*
X172437965Y-83568261D01*
X172426474Y-83591242D01*
X172414984Y-83602733D01*
X172392003Y-83614223D01*
X172346041Y-83614223D01*
X172323060Y-83625714D01*
X172311569Y-83637204D01*
X172300079Y-83660185D01*
X172300079Y-83706147D01*
X172311569Y-83729128D01*
X172323060Y-83740619D01*
X172346041Y-83752109D01*
X172392003Y-83752109D01*
X172414984Y-83740619D01*
X172426474Y-83729128D01*
X172437965Y-83706147D01*
X172437965Y-83660185D01*
X172426474Y-83637204D01*
X172414984Y-83625714D01*
X172392003Y-83614223D01*
X172667774Y-83752109D02*
X172529888Y-83752109D01*
X172598831Y-83752109D02*
X172598831Y-83510809D01*
X172575850Y-83545280D01*
X172552869Y-83568261D01*
X172529888Y-83579752D01*
%TO.C,R4*%
D12*
X175311214Y-95601428D02*
X175111214Y-95315714D01*
X174968357Y-95601428D02*
X174968357Y-95001428D01*
X175196928Y-95001428D01*
X175254071Y-95030000D01*
X175282642Y-95058571D01*
X175311214Y-95115714D01*
X175311214Y-95201428D01*
X175282642Y-95258571D01*
X175254071Y-95287142D01*
X175196928Y-95315714D01*
X174968357Y-95315714D01*
X175825500Y-95201428D02*
X175825500Y-95601428D01*
X175682642Y-94972857D02*
X175539785Y-95401428D01*
X175911214Y-95401428D01*
D18*
X173918155Y-94042109D02*
X173780269Y-94042109D01*
X173849212Y-94042109D02*
X173849212Y-93800809D01*
X173826231Y-93835280D01*
X173803250Y-93858261D01*
X173780269Y-93869752D01*
X174067531Y-93800809D02*
X174090512Y-93800809D01*
X174113493Y-93812300D01*
X174124984Y-93823790D01*
X174136474Y-93846771D01*
X174147965Y-93892733D01*
X174147965Y-93950185D01*
X174136474Y-93996147D01*
X174124984Y-94019128D01*
X174113493Y-94030619D01*
X174090512Y-94042109D01*
X174067531Y-94042109D01*
X174044550Y-94030619D01*
X174033060Y-94019128D01*
X174021569Y-93996147D01*
X174010079Y-93950185D01*
X174010079Y-93892733D01*
X174021569Y-93846771D01*
X174033060Y-93823790D01*
X174044550Y-93812300D01*
X174067531Y-93800809D01*
X174228398Y-93800809D02*
X174377774Y-93800809D01*
X174297341Y-93892733D01*
X174331812Y-93892733D01*
X174354793Y-93904223D01*
X174366284Y-93915714D01*
X174377774Y-93938695D01*
X174377774Y-93996147D01*
X174366284Y-94019128D01*
X174354793Y-94030619D01*
X174331812Y-94042109D01*
X174262869Y-94042109D01*
X174239888Y-94030619D01*
X174228398Y-94019128D01*
%TO.C,R5*%
D12*
X179481214Y-95601428D02*
X179281214Y-95315714D01*
X179138357Y-95601428D02*
X179138357Y-95001428D01*
X179366928Y-95001428D01*
X179424071Y-95030000D01*
X179452642Y-95058571D01*
X179481214Y-95115714D01*
X179481214Y-95201428D01*
X179452642Y-95258571D01*
X179424071Y-95287142D01*
X179366928Y-95315714D01*
X179138357Y-95315714D01*
X180024071Y-95001428D02*
X179738357Y-95001428D01*
X179709785Y-95287142D01*
X179738357Y-95258571D01*
X179795500Y-95230000D01*
X179938357Y-95230000D01*
X179995500Y-95258571D01*
X180024071Y-95287142D01*
X180052642Y-95344285D01*
X180052642Y-95487142D01*
X180024071Y-95544285D01*
X179995500Y-95572857D01*
X179938357Y-95601428D01*
X179795500Y-95601428D01*
X179738357Y-95572857D01*
X179709785Y-95544285D01*
D18*
X178097055Y-94038509D02*
X177959169Y-94038509D01*
X178028112Y-94038509D02*
X178028112Y-93797209D01*
X178005131Y-93831680D01*
X177982150Y-93854661D01*
X177959169Y-93866152D01*
X178246431Y-93797209D02*
X178269412Y-93797209D01*
X178292393Y-93808700D01*
X178303884Y-93820190D01*
X178315374Y-93843171D01*
X178326865Y-93889133D01*
X178326865Y-93946585D01*
X178315374Y-93992547D01*
X178303884Y-94015528D01*
X178292393Y-94027019D01*
X178269412Y-94038509D01*
X178246431Y-94038509D01*
X178223450Y-94027019D01*
X178211960Y-94015528D01*
X178200469Y-93992547D01*
X178188979Y-93946585D01*
X178188979Y-93889133D01*
X178200469Y-93843171D01*
X178211960Y-93820190D01*
X178223450Y-93808700D01*
X178246431Y-93797209D01*
X178407298Y-93797209D02*
X178556674Y-93797209D01*
X178476241Y-93889133D01*
X178510712Y-93889133D01*
X178533693Y-93900623D01*
X178545184Y-93912114D01*
X178556674Y-93935095D01*
X178556674Y-93992547D01*
X178545184Y-94015528D01*
X178533693Y-94027019D01*
X178510712Y-94038509D01*
X178441769Y-94038509D01*
X178418788Y-94027019D01*
X178407298Y-94015528D01*
%TO.C,R7*%
D12*
X175271214Y-89561428D02*
X175071214Y-89275714D01*
X174928357Y-89561428D02*
X174928357Y-88961428D01*
X175156928Y-88961428D01*
X175214071Y-88990000D01*
X175242642Y-89018571D01*
X175271214Y-89075714D01*
X175271214Y-89161428D01*
X175242642Y-89218571D01*
X175214071Y-89247142D01*
X175156928Y-89275714D01*
X174928357Y-89275714D01*
X175471214Y-88961428D02*
X175871214Y-88961428D01*
X175614071Y-89561428D01*
D18*
X173639169Y-87710190D02*
X173650660Y-87698700D01*
X173673641Y-87687209D01*
X173731093Y-87687209D01*
X173754074Y-87698700D01*
X173765565Y-87710190D01*
X173777055Y-87733171D01*
X173777055Y-87756152D01*
X173765565Y-87790623D01*
X173627679Y-87928509D01*
X173777055Y-87928509D01*
X173926431Y-87687209D02*
X173949412Y-87687209D01*
X173972393Y-87698700D01*
X173983884Y-87710190D01*
X173995374Y-87733171D01*
X174006865Y-87779133D01*
X174006865Y-87836585D01*
X173995374Y-87882547D01*
X173983884Y-87905528D01*
X173972393Y-87917019D01*
X173949412Y-87928509D01*
X173926431Y-87928509D01*
X173903450Y-87917019D01*
X173891960Y-87905528D01*
X173880469Y-87882547D01*
X173868979Y-87836585D01*
X173868979Y-87779133D01*
X173880469Y-87733171D01*
X173891960Y-87710190D01*
X173903450Y-87698700D01*
X173926431Y-87687209D01*
X174236674Y-87928509D02*
X174098788Y-87928509D01*
X174167731Y-87928509D02*
X174167731Y-87687209D01*
X174144750Y-87721680D01*
X174121769Y-87744661D01*
X174098788Y-87756152D01*
%TO.C,R8*%
D12*
X179481214Y-89561428D02*
X179281214Y-89275714D01*
X179138357Y-89561428D02*
X179138357Y-88961428D01*
X179366928Y-88961428D01*
X179424071Y-88990000D01*
X179452642Y-89018571D01*
X179481214Y-89075714D01*
X179481214Y-89161428D01*
X179452642Y-89218571D01*
X179424071Y-89247142D01*
X179366928Y-89275714D01*
X179138357Y-89275714D01*
X179824071Y-89218571D02*
X179766928Y-89190000D01*
X179738357Y-89161428D01*
X179709785Y-89104285D01*
X179709785Y-89075714D01*
X179738357Y-89018571D01*
X179766928Y-88990000D01*
X179824071Y-88961428D01*
X179938357Y-88961428D01*
X179995500Y-88990000D01*
X180024071Y-89018571D01*
X180052642Y-89075714D01*
X180052642Y-89104285D01*
X180024071Y-89161428D01*
X179995500Y-89190000D01*
X179938357Y-89218571D01*
X179824071Y-89218571D01*
X179766928Y-89247142D01*
X179738357Y-89275714D01*
X179709785Y-89332857D01*
X179709785Y-89447142D01*
X179738357Y-89504285D01*
X179766928Y-89532857D01*
X179824071Y-89561428D01*
X179938357Y-89561428D01*
X179995500Y-89532857D01*
X180024071Y-89504285D01*
X180052642Y-89447142D01*
X180052642Y-89332857D01*
X180024071Y-89275714D01*
X179995500Y-89247142D01*
X179938357Y-89218571D01*
D18*
X177989169Y-87730190D02*
X178000660Y-87718700D01*
X178023641Y-87707209D01*
X178081093Y-87707209D01*
X178104074Y-87718700D01*
X178115565Y-87730190D01*
X178127055Y-87753171D01*
X178127055Y-87776152D01*
X178115565Y-87810623D01*
X177977679Y-87948509D01*
X178127055Y-87948509D01*
X178276431Y-87707209D02*
X178299412Y-87707209D01*
X178322393Y-87718700D01*
X178333884Y-87730190D01*
X178345374Y-87753171D01*
X178356865Y-87799133D01*
X178356865Y-87856585D01*
X178345374Y-87902547D01*
X178333884Y-87925528D01*
X178322393Y-87937019D01*
X178299412Y-87948509D01*
X178276431Y-87948509D01*
X178253450Y-87937019D01*
X178241960Y-87925528D01*
X178230469Y-87902547D01*
X178218979Y-87856585D01*
X178218979Y-87799133D01*
X178230469Y-87753171D01*
X178241960Y-87730190D01*
X178253450Y-87718700D01*
X178276431Y-87707209D01*
X178586674Y-87948509D02*
X178448788Y-87948509D01*
X178517731Y-87948509D02*
X178517731Y-87707209D01*
X178494750Y-87741680D01*
X178471769Y-87764661D01*
X178448788Y-87776152D01*
%TO.C,SA*%
D13*
X169054761Y-99352023D02*
X169102380Y-99209166D01*
X169102380Y-98971071D01*
X169054761Y-98875833D01*
X169007142Y-98828214D01*
X168911904Y-98780595D01*
X168816666Y-98780595D01*
X168721428Y-98828214D01*
X168673809Y-98875833D01*
X168626190Y-98971071D01*
X168578571Y-99161547D01*
X168530952Y-99256785D01*
X168483333Y-99304404D01*
X168388095Y-99352023D01*
X168292857Y-99352023D01*
X168197619Y-99304404D01*
X168150000Y-99256785D01*
X168102380Y-99161547D01*
X168102380Y-98923452D01*
X168150000Y-98780595D01*
X168816666Y-98399642D02*
X168816666Y-97923452D01*
X169102380Y-98494880D02*
X168102380Y-98161547D01*
X169102380Y-97828214D01*
%TO.C,SB*%
X180634761Y-99352023D02*
X180682380Y-99209166D01*
X180682380Y-98971071D01*
X180634761Y-98875833D01*
X180587142Y-98828214D01*
X180491904Y-98780595D01*
X180396666Y-98780595D01*
X180301428Y-98828214D01*
X180253809Y-98875833D01*
X180206190Y-98971071D01*
X180158571Y-99161547D01*
X180110952Y-99256785D01*
X180063333Y-99304404D01*
X179968095Y-99352023D01*
X179872857Y-99352023D01*
X179777619Y-99304404D01*
X179730000Y-99256785D01*
X179682380Y-99161547D01*
X179682380Y-98923452D01*
X179730000Y-98780595D01*
X180158571Y-98018690D02*
X180206190Y-97875833D01*
X180253809Y-97828214D01*
X180349047Y-97780595D01*
X180491904Y-97780595D01*
X180587142Y-97828214D01*
X180634761Y-97875833D01*
X180682380Y-97971071D01*
X180682380Y-98352023D01*
X179682380Y-98352023D01*
X179682380Y-98018690D01*
X179730000Y-97923452D01*
X179777619Y-97875833D01*
X179872857Y-97828214D01*
X179968095Y-97828214D01*
X180063333Y-97875833D01*
X180110952Y-97923452D01*
X180158571Y-98018690D01*
X180158571Y-98352023D01*
%TO.C,RESET*%
X177012380Y-113122380D02*
X176536190Y-113455714D01*
X177012380Y-113693809D02*
X176012380Y-113693809D01*
X176012380Y-113312857D01*
X176060000Y-113217619D01*
X176107619Y-113170000D01*
X176202857Y-113122380D01*
X176345714Y-113122380D01*
X176440952Y-113170000D01*
X176488571Y-113217619D01*
X176536190Y-113312857D01*
X176536190Y-113693809D01*
X176488571Y-112693809D02*
X176488571Y-112360476D01*
X177012380Y-112217619D02*
X177012380Y-112693809D01*
X176012380Y-112693809D01*
X176012380Y-112217619D01*
X176964761Y-111836666D02*
X177012380Y-111693809D01*
X177012380Y-111455714D01*
X176964761Y-111360476D01*
X176917142Y-111312857D01*
X176821904Y-111265238D01*
X176726666Y-111265238D01*
X176631428Y-111312857D01*
X176583809Y-111360476D01*
X176536190Y-111455714D01*
X176488571Y-111646190D01*
X176440952Y-111741428D01*
X176393333Y-111789047D01*
X176298095Y-111836666D01*
X176202857Y-111836666D01*
X176107619Y-111789047D01*
X176060000Y-111741428D01*
X176012380Y-111646190D01*
X176012380Y-111408095D01*
X176060000Y-111265238D01*
X176488571Y-110836666D02*
X176488571Y-110503333D01*
X177012380Y-110360476D02*
X177012380Y-110836666D01*
X176012380Y-110836666D01*
X176012380Y-110360476D01*
X176012380Y-110074761D02*
X176012380Y-109503333D01*
X177012380Y-109789047D02*
X176012380Y-109789047D01*
%TO.C,TR1*%
D12*
X171391428Y-91627357D02*
X171391428Y-91284500D01*
X171991428Y-91455928D02*
X171391428Y-91455928D01*
X171991428Y-90741642D02*
X171705714Y-90941642D01*
X171991428Y-91084500D02*
X171391428Y-91084500D01*
X171391428Y-90855928D01*
X171420000Y-90798785D01*
X171448571Y-90770214D01*
X171505714Y-90741642D01*
X171591428Y-90741642D01*
X171648571Y-90770214D01*
X171677142Y-90798785D01*
X171705714Y-90855928D01*
X171705714Y-91084500D01*
X171991428Y-90170214D02*
X171991428Y-90513071D01*
X171991428Y-90341642D02*
X171391428Y-90341642D01*
X171477142Y-90398785D01*
X171534285Y-90455928D01*
X171562857Y-90513071D01*
D19*
X174077319Y-90802114D02*
X174059223Y-90820209D01*
X174004938Y-90838304D01*
X173968747Y-90838304D01*
X173914461Y-90820209D01*
X173878271Y-90784019D01*
X173860176Y-90747828D01*
X173842080Y-90675447D01*
X173842080Y-90621161D01*
X173860176Y-90548780D01*
X173878271Y-90512590D01*
X173914461Y-90476400D01*
X173968747Y-90458304D01*
X174004938Y-90458304D01*
X174059223Y-90476400D01*
X174077319Y-90494495D01*
X174830176Y-91169257D02*
X174956842Y-91169257D01*
X175011128Y-91368304D02*
X174830176Y-91368304D01*
X174830176Y-90988304D01*
X175011128Y-90988304D01*
X173066842Y-91149257D02*
X173121128Y-91167352D01*
X173139223Y-91185447D01*
X173157319Y-91221638D01*
X173157319Y-91275923D01*
X173139223Y-91312114D01*
X173121128Y-91330209D01*
X173084938Y-91348304D01*
X172940176Y-91348304D01*
X172940176Y-90968304D01*
X173066842Y-90968304D01*
X173103033Y-90986400D01*
X173121128Y-91004495D01*
X173139223Y-91040685D01*
X173139223Y-91076876D01*
X173121128Y-91113066D01*
X173103033Y-91131161D01*
X173066842Y-91149257D01*
X172940176Y-91149257D01*
%TO.C,TR2*%
D12*
X180101428Y-91627357D02*
X180101428Y-91284500D01*
X180701428Y-91455928D02*
X180101428Y-91455928D01*
X180701428Y-90741642D02*
X180415714Y-90941642D01*
X180701428Y-91084500D02*
X180101428Y-91084500D01*
X180101428Y-90855928D01*
X180130000Y-90798785D01*
X180158571Y-90770214D01*
X180215714Y-90741642D01*
X180301428Y-90741642D01*
X180358571Y-90770214D01*
X180387142Y-90798785D01*
X180415714Y-90855928D01*
X180415714Y-91084500D01*
X180158571Y-90513071D02*
X180130000Y-90484500D01*
X180101428Y-90427357D01*
X180101428Y-90284500D01*
X180130000Y-90227357D01*
X180158571Y-90198785D01*
X180215714Y-90170214D01*
X180272857Y-90170214D01*
X180358571Y-90198785D01*
X180701428Y-90541642D01*
X180701428Y-90170214D01*
D19*
X178328419Y-90812114D02*
X178310323Y-90830209D01*
X178256038Y-90848304D01*
X178219847Y-90848304D01*
X178165561Y-90830209D01*
X178129371Y-90794019D01*
X178111276Y-90757828D01*
X178093180Y-90685447D01*
X178093180Y-90631161D01*
X178111276Y-90558780D01*
X178129371Y-90522590D01*
X178165561Y-90486400D01*
X178219847Y-90468304D01*
X178256038Y-90468304D01*
X178310323Y-90486400D01*
X178328419Y-90504495D01*
X179051276Y-91179257D02*
X179177942Y-91179257D01*
X179232228Y-91378304D02*
X179051276Y-91378304D01*
X179051276Y-90998304D01*
X179232228Y-90998304D01*
X177307942Y-91149257D02*
X177362228Y-91167352D01*
X177380323Y-91185447D01*
X177398419Y-91221638D01*
X177398419Y-91275923D01*
X177380323Y-91312114D01*
X177362228Y-91330209D01*
X177326038Y-91348304D01*
X177181276Y-91348304D01*
X177181276Y-90968304D01*
X177307942Y-90968304D01*
X177344133Y-90986400D01*
X177362228Y-91004495D01*
X177380323Y-91040685D01*
X177380323Y-91076876D01*
X177362228Y-91113066D01*
X177344133Y-91131161D01*
X177307942Y-91149257D01*
X177181276Y-91149257D01*
%TD*%
M02*
