%TF.GenerationSoftware,KiCad,Pcbnew,(5.1.10)-1*%
%TF.CreationDate,2022-09-21T12:49:21+09:00*%
%TF.ProjectId,(KiCad)DriveUnit_B-series(ver2.0),284b6943-6164-4294-9472-697665556e69,rev?*%
%TF.SameCoordinates,Original*%
%TF.FileFunction,Copper,L1,Top*%
%TF.FilePolarity,Positive*%
%FSLAX46Y46*%
G04 Gerber Fmt 4.6, Leading zero omitted, Abs format (unit mm)*
G04 Created by KiCad (PCBNEW (5.1.10)-1) date 2022-09-21 12:49:21*
%MOMM*%
%LPD*%
G01*
G04 APERTURE LIST*
%TA.AperFunction,SMDPad,CuDef*%
%ADD10R,0.800000X0.800000*%
%TD*%
%TA.AperFunction,SMDPad,CuDef*%
%ADD11R,12.700000X11.938000*%
%TD*%
%TA.AperFunction,ComponentPad*%
%ADD12O,1.308000X2.616000*%
%TD*%
%TA.AperFunction,SMDPad,CuDef*%
%ADD13R,1.220000X0.780000*%
%TD*%
%TA.AperFunction,SMDPad,CuDef*%
%ADD14R,2.000000X5.300000*%
%TD*%
%TA.AperFunction,SMDPad,CuDef*%
%ADD15R,1.650000X1.400000*%
%TD*%
%TA.AperFunction,SMDPad,CuDef*%
%ADD16R,1.400000X1.650000*%
%TD*%
%TA.AperFunction,SMDPad,CuDef*%
%ADD17R,1.600000X1.050000*%
%TD*%
%TA.AperFunction,SMDPad,CuDef*%
%ADD18R,0.900000X1.200000*%
%TD*%
%TA.AperFunction,ComponentPad*%
%ADD19C,1.308000*%
%TD*%
%TA.AperFunction,SMDPad,CuDef*%
%ADD20R,0.800000X1.000000*%
%TD*%
%TA.AperFunction,ViaPad*%
%ADD21C,0.856400*%
%TD*%
%TA.AperFunction,ViaPad*%
%ADD22C,0.800000*%
%TD*%
%TA.AperFunction,ViaPad*%
%ADD23C,0.756400*%
%TD*%
%TA.AperFunction,Conductor*%
%ADD24C,0.254000*%
%TD*%
%TA.AperFunction,Conductor*%
%ADD25C,0.152400*%
%TD*%
%TA.AperFunction,Conductor*%
%ADD26C,0.250000*%
%TD*%
%TA.AperFunction,Conductor*%
%ADD27C,0.076200*%
%TD*%
%TA.AperFunction,Conductor*%
%ADD28C,0.100000*%
%TD*%
G04 APERTURE END LIST*
D10*
%TO.P,LED5,A*%
%TO.N,Net-(LED5-PadA)*%
X179851100Y-85853600D03*
%TO.P,LED5,K*%
%TO.N,Net-(LED5-PadK)*%
X178201100Y-85853600D03*
%TD*%
D11*
%TO.P,HA,DRAIN*%
%TO.N,VCC*%
X126461100Y-86868200D03*
D12*
%TO.P,HA,SOURCE*%
%TO.N,/SA*%
X129001100Y-100863600D03*
%TO.P,HA,GATE*%
%TO.N,Net-(HA1-PadGATE)*%
X123921100Y-100863600D03*
%TD*%
D11*
%TO.P,HB,DRAIN*%
%TO.N,VCC*%
X141161100Y-86858200D03*
D12*
%TO.P,HB,SOURCE*%
%TO.N,/SB*%
X143701100Y-100853600D03*
%TO.P,HB,GATE*%
%TO.N,Net-(HB1-PadGATE)*%
X138621100Y-100853600D03*
%TD*%
D11*
%TO.P,LA,DRAIN*%
%TO.N,/SA*%
X123961100Y-114859000D03*
D12*
%TO.P,LA,SOURCE*%
%TO.N,GND*%
X121421100Y-100863600D03*
%TO.P,LA,GATE*%
%TO.N,Net-(LA1-PadGATE)*%
X126501100Y-100863600D03*
%TD*%
D11*
%TO.P,LB,DRAIN*%
%TO.N,/SB*%
X138661100Y-114859000D03*
D12*
%TO.P,LB,SOURCE*%
%TO.N,GND*%
X136121100Y-100863600D03*
%TO.P,LB,GATE*%
%TO.N,Net-(LB1-PadGATE)*%
X141201100Y-100863600D03*
%TD*%
%TO.P,C10,C*%
%TO.N,GND*%
X167321100Y-116463600D03*
%TO.P,C10,A*%
%TO.N,VCC*%
X162321100Y-116463600D03*
%TD*%
%TO.P,C11,C*%
%TO.N,GND*%
X155410000Y-116463600D03*
%TO.P,C11,A*%
%TO.N,VCC*%
X150410000Y-116463600D03*
%TD*%
D13*
%TO.P,D4,A*%
%TO.N,/LAP*%
X173391100Y-100423600D03*
%TO.P,D4,C*%
%TO.N,Net-(D4-PadC)*%
X173391100Y-96943600D03*
%TD*%
%TO.P,D5,A*%
%TO.N,/LAP*%
X175391100Y-100443600D03*
%TO.P,D5,C*%
%TO.N,Net-(D5-PadC)*%
X175391100Y-96963600D03*
%TD*%
D14*
%TO.P,EDGE1,P$25*%
%TO.N,/PWM_IN*%
X178981100Y-126153600D03*
%TO.P,EDGE1,P$24*%
%TO.N,/GND_IN*%
X176441100Y-126153600D03*
%TO.P,EDGE1,P$23*%
%TO.N,VCC*%
X173901100Y-126153600D03*
%TO.P,EDGE1,P$22*%
X171361100Y-126153600D03*
%TO.P,EDGE1,P$21*%
X168821100Y-126153600D03*
%TO.P,EDGE1,P$20*%
X166281100Y-126153600D03*
%TO.P,EDGE1,P$19*%
X163741100Y-126153600D03*
%TO.P,EDGE1,P$18*%
X161201100Y-126153600D03*
%TO.P,EDGE1,P$17*%
X158661100Y-126153600D03*
%TO.P,EDGE1,P$16*%
X156121100Y-126153600D03*
%TO.P,EDGE1,P$15*%
X153581100Y-126153600D03*
%TO.P,EDGE1,P$14*%
X151041100Y-126153600D03*
%TO.P,EDGE1,P$13*%
X148501100Y-126153600D03*
%TO.P,EDGE1,P$12*%
X145961100Y-126153600D03*
%TO.P,EDGE1,P$11*%
%TO.N,/SB*%
X143421100Y-126153600D03*
%TO.P,EDGE1,P$10*%
X140881100Y-126153600D03*
%TO.P,EDGE1,P$9*%
X138341100Y-126153600D03*
%TO.P,EDGE1,P$8*%
X135801100Y-126153600D03*
%TO.P,EDGE1,P$7*%
X133261100Y-126153600D03*
%TO.P,EDGE1,P$6*%
X130721100Y-126153600D03*
%TO.P,EDGE1,P$5*%
%TO.N,/SA*%
X128181100Y-126153600D03*
%TO.P,EDGE1,P$4*%
X125641100Y-126153600D03*
%TO.P,EDGE1,P$3*%
X123101100Y-126153600D03*
%TO.P,EDGE1,P$2*%
X120561100Y-126153600D03*
%TO.P,EDGE1,P$1*%
X118021100Y-126153600D03*
%TD*%
D10*
%TO.P,LED1,A*%
%TO.N,Net-(LED1-PadA)*%
X176911100Y-83633600D03*
%TO.P,LED1,K*%
%TO.N,/SB*%
X175261100Y-83633600D03*
%TD*%
%TO.P,LED2,A*%
%TO.N,/SB*%
X179851100Y-83633600D03*
%TO.P,LED2,K*%
%TO.N,Net-(LED1-PadA)*%
X178201100Y-83633600D03*
%TD*%
%TO.P,LED3,A*%
%TO.N,Net-(LED3-PadA)*%
X178231100Y-81373600D03*
%TO.P,LED3,K*%
%TO.N,GND*%
X179881100Y-81373600D03*
%TD*%
%TO.P,LED4,A*%
%TO.N,Net-(LED4-PadA)*%
X176911100Y-85853600D03*
%TO.P,LED4,K*%
%TO.N,Net-(LED4-PadK)*%
X175261100Y-85853600D03*
%TD*%
D15*
%TO.P,R11,RIGHT*%
%TO.N,VCC*%
X174060000Y-110370000D03*
%TO.P,R11,LEFT*%
%TO.N,/RESET*%
X174060000Y-112970000D03*
%TD*%
D16*
%TO.P,R22,RIGHT*%
%TO.N,Net-(LED3-PadA)*%
X173641100Y-81353600D03*
%TO.P,R22,LEFT*%
%TO.N,VCC*%
X171041100Y-81353600D03*
%TD*%
%TO.P,R3,RIGHT*%
%TO.N,Net-(LED1-PadA)*%
X173611100Y-83663600D03*
%TO.P,R3,LEFT*%
%TO.N,/SA*%
X171011100Y-83663600D03*
%TD*%
%TO.P,R4,RIGHT*%
%TO.N,/V5*%
X175321100Y-94200000D03*
%TO.P,R4,LEFT*%
%TO.N,/FF1*%
X172721100Y-94200000D03*
%TD*%
%TO.P,R5,RIGHT*%
%TO.N,/V5*%
X176951100Y-94200000D03*
%TO.P,R5,LEFT*%
%TO.N,/FF2*%
X179551100Y-94200000D03*
%TD*%
%TO.P,R7,RIGHT*%
%TO.N,Net-(LED4-PadA)*%
X172601100Y-87803600D03*
%TO.P,R7,LEFT*%
%TO.N,/V5*%
X175201100Y-87803600D03*
%TD*%
%TO.P,R8,RIGHT*%
%TO.N,Net-(LED5-PadA)*%
X179521100Y-87803600D03*
%TO.P,R8,LEFT*%
%TO.N,/V5*%
X176921100Y-87803600D03*
%TD*%
D17*
%TO.P,SA,RIGHT*%
%TO.N,Net-(D4-PadC)*%
X170901100Y-96463600D03*
%TO.P,SA,LEFT*%
%TO.N,GND*%
X170901100Y-100913600D03*
%TD*%
%TO.P,SB,RIGHT*%
%TO.N,GND*%
X177921100Y-100893600D03*
%TO.P,SB,LEFT*%
%TO.N,Net-(D5-PadC)*%
X177921100Y-96443600D03*
%TD*%
D18*
%TO.P,SW3,1*%
%TO.N,GND*%
X178301100Y-113683600D03*
%TO.P,SW3,2*%
%TO.N,Net-(SW3-Pad2)*%
X178301100Y-109683600D03*
%TO.P,SW3,4*%
%TO.N,Net-(SW3-Pad4)*%
X179801100Y-109683600D03*
%TO.P,SW3,3*%
%TO.N,/RESET*%
X179801100Y-113683600D03*
%TD*%
D19*
%TO.P,SW4,L*%
%TO.N,Net-(SW4-PadL)*%
X176901100Y-104413600D03*
%TO.P,SW4,R*%
%TO.N,GND*%
X171901100Y-104413600D03*
%TO.P,SW4,C*%
%TO.N,/LAP*%
X174401100Y-104413600D03*
%TD*%
D20*
%TO.P,TR1,C*%
%TO.N,Net-(LED4-PadK)*%
X173911100Y-89700000D03*
%TO.P,TR1,B*%
%TO.N,/FF1*%
X172961100Y-92100000D03*
%TO.P,TR1,E*%
%TO.N,GND*%
X174861100Y-92100000D03*
%TD*%
%TO.P,TR2,C*%
%TO.N,Net-(LED5-PadK)*%
X178211100Y-89700000D03*
%TO.P,TR2,B*%
%TO.N,/FF2*%
X177261100Y-92100000D03*
%TO.P,TR2,E*%
%TO.N,GND*%
X179161100Y-92100000D03*
%TD*%
D21*
%TO.N,VCC*%
X166831100Y-93883600D03*
X156601100Y-94753600D03*
D22*
X151730000Y-116730000D03*
X151700000Y-115820000D03*
X151660000Y-114890000D03*
X150840000Y-114630000D03*
X149850000Y-114680000D03*
X151580000Y-117600000D03*
D21*
%TO.N,GND*%
X176000000Y-114760000D03*
X168265500Y-81906800D03*
D23*
X163654006Y-82370641D03*
X160000000Y-82373600D03*
D21*
X166230000Y-100130000D03*
D23*
X168690000Y-100130000D03*
X178220000Y-91170000D03*
X172360000Y-89210000D03*
D21*
%TO.N,/SA*%
X147821100Y-97926800D03*
X150141100Y-100283600D03*
X158160500Y-102136797D03*
X158171100Y-104483600D03*
X170754300Y-93088550D03*
D23*
X130561100Y-121363600D03*
X129661100Y-121363600D03*
X128761100Y-121363600D03*
X127861100Y-121363600D03*
X126961100Y-121363600D03*
X126061100Y-121363600D03*
X125161100Y-121363600D03*
X124261100Y-121363600D03*
X123361100Y-121363600D03*
X122461100Y-121363600D03*
X121561100Y-121363600D03*
X117061100Y-115963600D03*
X120661100Y-121363600D03*
X119761100Y-121363600D03*
X117061100Y-116863600D03*
X117061100Y-117763600D03*
X118861100Y-121363600D03*
X117961100Y-121363600D03*
X117061100Y-118663600D03*
X117061100Y-119563600D03*
X117061100Y-121363600D03*
X117061100Y-120463600D03*
X117061100Y-122973600D03*
X117961100Y-122973600D03*
X118861100Y-122973600D03*
X119761100Y-122973600D03*
X120661100Y-122973600D03*
X121561100Y-122973600D03*
X122461100Y-122973600D03*
X123361100Y-122973600D03*
X124261100Y-122973600D03*
X125161100Y-122973600D03*
X126061100Y-122973600D03*
X126961100Y-122973600D03*
X127861100Y-122973600D03*
X128761100Y-122973600D03*
X129661100Y-122973600D03*
X130561100Y-122900000D03*
X117501100Y-122163600D03*
X118401100Y-122163600D03*
X119301100Y-122163600D03*
X120201100Y-122163600D03*
X121101100Y-122163600D03*
X122001100Y-122163600D03*
X122901100Y-122163600D03*
X123801100Y-122163600D03*
X124701100Y-122163600D03*
X125601100Y-122163600D03*
X126501100Y-122163600D03*
X127401100Y-122163600D03*
X128301100Y-122163600D03*
X129201100Y-122163600D03*
X130101100Y-122163600D03*
X131001100Y-122163600D03*
X130841100Y-120463600D03*
X130841100Y-119563600D03*
X130841100Y-118663600D03*
X130841100Y-117763600D03*
X130841100Y-116863600D03*
X130841100Y-115963600D03*
X117061100Y-115063600D03*
X117061100Y-114163600D03*
X117061100Y-113263600D03*
X130841100Y-115063600D03*
X130841100Y-113263600D03*
X130841100Y-114163600D03*
D21*
%TO.N,/SB*%
X165051100Y-95363600D03*
X167361100Y-95373600D03*
X154951100Y-104090400D03*
X153831100Y-102183600D03*
D23*
X170884300Y-87425782D03*
X132361100Y-121363600D03*
X131911100Y-122163600D03*
X134161100Y-121363600D03*
X133261100Y-121363600D03*
X135061100Y-121363600D03*
X135961100Y-121363600D03*
X136861100Y-121363600D03*
X137761100Y-121363600D03*
X133711100Y-122163600D03*
X132811100Y-122163600D03*
X134611100Y-122163600D03*
X135511100Y-122163600D03*
X136411100Y-122163600D03*
X137311100Y-122163600D03*
X138211100Y-122163600D03*
X138661100Y-121363600D03*
X139561100Y-121363600D03*
X139111100Y-122163600D03*
X140011100Y-122163600D03*
X140461100Y-121363600D03*
X142261100Y-121363600D03*
X141361100Y-121363600D03*
X140911100Y-122163600D03*
X141811100Y-122163600D03*
X142711100Y-122163600D03*
X143161100Y-121363600D03*
X144061100Y-121363600D03*
X143611100Y-122163600D03*
X144511100Y-122163600D03*
X144961100Y-121363600D03*
X145411100Y-122163600D03*
X131751100Y-120463600D03*
X131751100Y-119563600D03*
X131751100Y-118663600D03*
X131751100Y-117763600D03*
X131751100Y-116863600D03*
X131751100Y-115963600D03*
X145541100Y-120463600D03*
X145541100Y-119563600D03*
X145541100Y-118663600D03*
X145541100Y-117763600D03*
X145541100Y-116863600D03*
X145541100Y-115963600D03*
X132361100Y-122973600D03*
X133261100Y-122973600D03*
X134161100Y-122973600D03*
X135061100Y-122973600D03*
X135961100Y-122973600D03*
X137761100Y-122973600D03*
X136861100Y-122973600D03*
X138661100Y-122973600D03*
X139561100Y-122973600D03*
X140461100Y-122973600D03*
X141361100Y-122973600D03*
X142261100Y-122973600D03*
X144061100Y-122973600D03*
X143161100Y-122973600D03*
X144961100Y-122900000D03*
X145541100Y-115063600D03*
X145541100Y-114163600D03*
X145541100Y-113263600D03*
X131751100Y-114163600D03*
X131751100Y-113263600D03*
X131751100Y-115063600D03*
%TO.N,/FF1*%
X164834300Y-84937638D03*
%TO.N,/FF2*%
X165455500Y-84273600D03*
D21*
%TO.N,Net-(D4-PadC)*%
X179891100Y-97583600D03*
%TO.N,Net-(D5-PadC)*%
X177761100Y-97723600D03*
%TO.N,/RESET*%
X172340000Y-113060000D03*
%TO.N,/LAP*%
X174891100Y-99343600D03*
D23*
%TO.N,/V5*%
X176116290Y-90488410D03*
X177594300Y-84964200D03*
X178270000Y-95330000D03*
D21*
%TO.N,/GND_IN*%
X176521100Y-120313600D03*
%TO.N,/PWM_IN*%
X179051100Y-122453600D03*
D23*
%TO.N,/DIR*%
X176540000Y-97820000D03*
D21*
X173930000Y-95840000D03*
X172287950Y-86068600D03*
D23*
X172280500Y-83133600D03*
%TD*%
D24*
%TO.N,VCC*%
X166831100Y-93883600D02*
X167331100Y-93883600D01*
X167331100Y-93883600D02*
X167351100Y-93903600D01*
X156601100Y-94753600D02*
X155911100Y-94753600D01*
X155911100Y-94753600D02*
X155661100Y-94503600D01*
%TO.N,GND*%
X171901100Y-104413600D02*
X170901100Y-103413600D01*
X170901100Y-103413600D02*
X170901100Y-100913600D01*
D25*
X177561100Y-101253600D02*
X177921100Y-100893600D01*
D24*
X177561100Y-101253600D02*
X171241100Y-101253600D01*
X170901100Y-100913600D02*
X171241100Y-101253600D01*
X179881100Y-81373600D02*
X178791100Y-82463600D01*
X168822300Y-82463600D02*
X168265500Y-81906800D01*
X178791100Y-82463600D02*
X168822300Y-82463600D01*
D26*
X177224700Y-114760000D02*
X178301100Y-113683600D01*
X176000000Y-114760000D02*
X177224700Y-114760000D01*
X166230000Y-100130000D02*
X168690000Y-100130000D01*
D25*
X179445096Y-91647597D02*
X179161100Y-91803600D01*
D26*
X174861100Y-91803600D02*
X174861100Y-91711100D01*
X172360000Y-89598900D02*
X174861100Y-92100000D01*
X172360000Y-89210000D02*
X172360000Y-89598900D01*
X174861100Y-92100000D02*
X175565378Y-92100000D01*
X179150000Y-92100000D02*
X178220000Y-91170000D01*
X179161100Y-92100000D02*
X179150000Y-92100000D01*
X176495378Y-91170000D02*
X175565378Y-92100000D01*
X178220000Y-91170000D02*
X176495378Y-91170000D01*
X160002959Y-82370641D02*
X160000000Y-82373600D01*
X163654006Y-82370641D02*
X160002959Y-82370641D01*
D24*
%TO.N,/SA*%
X150141100Y-100283600D02*
X150141100Y-100246800D01*
X150141100Y-100246800D02*
X147821100Y-97926800D01*
X158160500Y-102136797D02*
X158160500Y-104473000D01*
D25*
X158160500Y-104473000D02*
X158171100Y-104483600D01*
D24*
X170754300Y-93088550D02*
X170754300Y-92665788D01*
X170754300Y-92665788D02*
X164087500Y-85998988D01*
X164087500Y-85998988D02*
X164087500Y-84543450D01*
X164087500Y-84543450D02*
X165044150Y-83586800D01*
X171011100Y-83663600D02*
X170934300Y-83586800D01*
X170934300Y-83586800D02*
X165044150Y-83586800D01*
D25*
%TO.N,/SB*%
X175981100Y-84263600D02*
X175261100Y-83633600D01*
X179221100Y-84263600D02*
X179851100Y-83633600D01*
X175981100Y-84263600D02*
X179221100Y-84263600D01*
D24*
X167361100Y-95373600D02*
X167351100Y-95363600D01*
X167351100Y-95363600D02*
X165051100Y-95363600D01*
X154951100Y-104090400D02*
X154901100Y-104090400D01*
X154901100Y-104090400D02*
X153831100Y-103020400D01*
X153831100Y-102183600D02*
X153831100Y-103020400D01*
D25*
X170884300Y-87425782D02*
X170884300Y-87412113D01*
X171546412Y-86750000D02*
X170884300Y-87412113D01*
X171546412Y-86750000D02*
X172535406Y-86750000D01*
X172535406Y-86750000D02*
X175261100Y-84024307D01*
X175261100Y-84024307D02*
X175261100Y-83633600D01*
%TO.N,Net-(LED4-PadK)*%
X175221100Y-85983600D02*
X175291100Y-85913600D01*
X175291100Y-85913600D02*
X175261100Y-85853600D01*
D24*
X173911100Y-89403600D02*
X173911100Y-87043600D01*
X175041100Y-85913600D02*
X175291100Y-85913600D01*
X173911100Y-87043600D02*
X175041100Y-85913600D01*
D26*
%TO.N,/FF1*%
X172961100Y-93960000D02*
X172721100Y-94200000D01*
X172961100Y-92100000D02*
X172961100Y-93960000D01*
D25*
X172961100Y-92100000D02*
X172910000Y-92100000D01*
X165747638Y-84937638D02*
X164834300Y-84937638D01*
X172910000Y-92100000D02*
X165747638Y-84937638D01*
D24*
%TO.N,Net-(LED5-PadK)*%
X178211100Y-89403600D02*
X178211100Y-85863600D01*
X178211100Y-85863600D02*
X178201100Y-85853600D01*
D25*
%TO.N,/FF2*%
X177261100Y-91803600D02*
X177404387Y-91803600D01*
D26*
X177261100Y-92100000D02*
X177190000Y-92100000D01*
X179361100Y-94200000D02*
X177261100Y-92100000D01*
X179551100Y-94200000D02*
X179361100Y-94200000D01*
D25*
X177261100Y-92100000D02*
X177261100Y-92148900D01*
X177261100Y-92148900D02*
X176420000Y-92990000D01*
X166446182Y-84273600D02*
X165455500Y-84273600D01*
X173589701Y-91417119D02*
X166446182Y-84273600D01*
X173589701Y-92249701D02*
X173589701Y-91417119D01*
X174330000Y-92990000D02*
X173589701Y-92249701D01*
X176420000Y-92990000D02*
X174330000Y-92990000D01*
D24*
%TO.N,Net-(D4-PadC)*%
X173391100Y-96943600D02*
X172911100Y-96463600D01*
X172911100Y-96463600D02*
X170901100Y-96463600D01*
X174851100Y-98533600D02*
X173391100Y-97073600D01*
X173391100Y-96943600D02*
X173391100Y-97073600D01*
X178941100Y-98533600D02*
X179891100Y-97583600D01*
X178941100Y-98533600D02*
X174851100Y-98533600D01*
D25*
%TO.N,Net-(D5-PadC)*%
X177921100Y-96443600D02*
X177781100Y-96583600D01*
D24*
X177781100Y-96583600D02*
X177781100Y-97703613D01*
X177781100Y-97703613D02*
X177761100Y-97723600D01*
D26*
X175391100Y-96963600D02*
X175926400Y-96963600D01*
X176446400Y-96443600D02*
X177921100Y-96443600D01*
X175926400Y-96963600D02*
X176446400Y-96443600D01*
D24*
%TO.N,/RESET*%
X178701100Y-112583600D02*
X179801100Y-113683600D01*
D26*
X174570000Y-113060000D02*
X174730000Y-112900000D01*
X173970000Y-113060000D02*
X174060000Y-112970000D01*
X172340000Y-113060000D02*
X173970000Y-113060000D01*
X174446400Y-112583600D02*
X178701100Y-112583600D01*
X174060000Y-112970000D02*
X174446400Y-112583600D01*
D24*
%TO.N,/LAP*%
X175391100Y-100443600D02*
X175371100Y-100423600D01*
X175371100Y-100423600D02*
X173391100Y-100423600D01*
X175391100Y-100443600D02*
X175391100Y-99623600D01*
X175391100Y-99623600D02*
X175111100Y-99343600D01*
X174891100Y-99343600D02*
X175111100Y-99343600D01*
D25*
%TO.N,Net-(LED1-PadA)*%
X177001100Y-83600313D02*
X176911100Y-83633600D01*
D24*
X176911100Y-83633600D02*
X178201100Y-83633600D01*
X173611100Y-83663600D02*
X173625968Y-83663600D01*
X173625968Y-83663600D02*
X174410368Y-82879200D01*
X176246700Y-82879200D02*
X176911100Y-83633600D01*
X174410368Y-82879200D02*
X176246700Y-82879200D01*
D25*
%TO.N,Net-(LED3-PadA)*%
X178231100Y-81373600D02*
X178211100Y-81353600D01*
D24*
X178211100Y-81353600D02*
X173641100Y-81353600D01*
D25*
%TO.N,Net-(LED4-PadA)*%
X172601100Y-87803600D02*
X172661100Y-87733600D01*
X172661100Y-87733600D02*
X172661100Y-87073600D01*
X177001100Y-85683600D02*
X177001100Y-85753600D01*
X177001100Y-85753600D02*
X176911100Y-85853600D01*
D24*
X172601100Y-87803600D02*
X173041100Y-87363600D01*
X173041100Y-87363600D02*
X173041100Y-86756500D01*
X176391100Y-85143600D02*
X177001100Y-85753600D01*
X173041100Y-86756500D02*
X174654000Y-85143600D01*
X174654000Y-85143600D02*
X176391100Y-85143600D01*
D25*
%TO.N,/V5*%
X176662803Y-87795054D02*
X177024918Y-87792938D01*
X176662803Y-87795054D02*
X176772293Y-87794413D01*
X176772293Y-87794413D02*
X176858703Y-87793907D01*
X176858703Y-87793907D02*
X176911100Y-87793600D01*
X176911100Y-87793600D02*
X176921100Y-87803600D01*
X176921100Y-87803600D02*
X176921100Y-87437400D01*
X177544300Y-86814200D02*
X176921100Y-87437400D01*
X177544300Y-85014200D02*
X177544300Y-86814200D01*
X177544300Y-85014200D02*
X177594300Y-84964200D01*
X176951100Y-93953600D02*
X177031100Y-94033600D01*
X175218325Y-87803600D02*
X175201100Y-87803600D01*
D24*
X175201100Y-87803600D02*
X176116290Y-88718791D01*
X176116290Y-88718791D02*
X176116290Y-90488410D01*
X176116290Y-88718791D02*
X176858703Y-87976379D01*
X176858703Y-87976379D02*
X176858703Y-87793907D01*
D26*
X176951100Y-93953600D02*
X177383600Y-93953600D01*
X178270000Y-95272500D02*
X176951100Y-93953600D01*
X178270000Y-95330000D02*
X178270000Y-95272500D01*
X176951100Y-94200000D02*
X175321100Y-94200000D01*
D24*
%TO.N,Net-(LED5-PadA)*%
X179521100Y-87803600D02*
X179851100Y-87473600D01*
X179851100Y-87473600D02*
X179851100Y-85853600D01*
%TO.N,/GND_IN*%
X176521100Y-120313600D02*
X176521100Y-126073600D01*
D25*
X176521100Y-126073600D02*
X176441100Y-126153600D01*
D24*
%TO.N,/PWM_IN*%
X179051100Y-122453600D02*
X179051100Y-126083600D01*
D25*
X179051100Y-126083600D02*
X178981100Y-126153600D01*
D24*
%TO.N,/DIR*%
X174981100Y-98013600D02*
X174461100Y-97493600D01*
D25*
X172280500Y-83133600D02*
X172287950Y-83141050D01*
D24*
X172287950Y-83141050D02*
X172287950Y-86068600D01*
D26*
X176346400Y-98013600D02*
X176540000Y-97820000D01*
X174981100Y-98013600D02*
X176346400Y-98013600D01*
X174461100Y-96371100D02*
X173930000Y-95840000D01*
X174461100Y-97493600D02*
X174461100Y-96371100D01*
%TD*%
D27*
%TO.N,VCC*%
X181277999Y-128977463D02*
X179814964Y-130440499D01*
X144927800Y-130440499D01*
X144927800Y-123770300D01*
X146007300Y-123770300D01*
X146044465Y-123766640D01*
X146080201Y-123755799D01*
X146113136Y-123738195D01*
X146142004Y-123714504D01*
X146165695Y-123685636D01*
X146183299Y-123652701D01*
X146194140Y-123616965D01*
X146197800Y-123579800D01*
X146197800Y-123503600D01*
X175249679Y-123503600D01*
X175249679Y-128803600D01*
X175253357Y-128840944D01*
X175264250Y-128876854D01*
X175281939Y-128909948D01*
X175305745Y-128938955D01*
X175334752Y-128962761D01*
X175367846Y-128980450D01*
X175403756Y-128991343D01*
X175441100Y-128995021D01*
X177441100Y-128995021D01*
X177478444Y-128991343D01*
X177514354Y-128980450D01*
X177547448Y-128962761D01*
X177576455Y-128938955D01*
X177600261Y-128909948D01*
X177617950Y-128876854D01*
X177628843Y-128840944D01*
X177632521Y-128803600D01*
X177632521Y-123503600D01*
X177789679Y-123503600D01*
X177789679Y-128803600D01*
X177793357Y-128840944D01*
X177804250Y-128876854D01*
X177821939Y-128909948D01*
X177845745Y-128938955D01*
X177874752Y-128962761D01*
X177907846Y-128980450D01*
X177943756Y-128991343D01*
X177981100Y-128995021D01*
X179981100Y-128995021D01*
X180018444Y-128991343D01*
X180054354Y-128980450D01*
X180087448Y-128962761D01*
X180116455Y-128938955D01*
X180140261Y-128909948D01*
X180157950Y-128876854D01*
X180168843Y-128840944D01*
X180172521Y-128803600D01*
X180172521Y-123503600D01*
X180168843Y-123466256D01*
X180157950Y-123430346D01*
X180140261Y-123397252D01*
X180116455Y-123368245D01*
X180087448Y-123344439D01*
X180054354Y-123326750D01*
X180018444Y-123315857D01*
X179981100Y-123312179D01*
X179368600Y-123312179D01*
X179368600Y-122985558D01*
X179445498Y-122934176D01*
X179531676Y-122847998D01*
X179599385Y-122746665D01*
X179646024Y-122634068D01*
X179669800Y-122514537D01*
X179669800Y-122392663D01*
X179646024Y-122273132D01*
X179599385Y-122160535D01*
X179531676Y-122059202D01*
X179445498Y-121973024D01*
X179344165Y-121905315D01*
X179231568Y-121858676D01*
X179112037Y-121834900D01*
X178990163Y-121834900D01*
X178870632Y-121858676D01*
X178758035Y-121905315D01*
X178656702Y-121973024D01*
X178570524Y-122059202D01*
X178502815Y-122160535D01*
X178456176Y-122273132D01*
X178432400Y-122392663D01*
X178432400Y-122514537D01*
X178456176Y-122634068D01*
X178502815Y-122746665D01*
X178570524Y-122847998D01*
X178656702Y-122934176D01*
X178733600Y-122985558D01*
X178733600Y-123312179D01*
X177981100Y-123312179D01*
X177943756Y-123315857D01*
X177907846Y-123326750D01*
X177874752Y-123344439D01*
X177845745Y-123368245D01*
X177821939Y-123397252D01*
X177804250Y-123430346D01*
X177793357Y-123466256D01*
X177789679Y-123503600D01*
X177632521Y-123503600D01*
X177628843Y-123466256D01*
X177617950Y-123430346D01*
X177600261Y-123397252D01*
X177576455Y-123368245D01*
X177547448Y-123344439D01*
X177514354Y-123326750D01*
X177478444Y-123315857D01*
X177441100Y-123312179D01*
X176838600Y-123312179D01*
X176838600Y-120845558D01*
X176915498Y-120794176D01*
X177001676Y-120707998D01*
X177069385Y-120606665D01*
X177116024Y-120494068D01*
X177139800Y-120374537D01*
X177139800Y-120252663D01*
X177116024Y-120133132D01*
X177069385Y-120020535D01*
X177001676Y-119919202D01*
X176915498Y-119833024D01*
X176814165Y-119765315D01*
X176701568Y-119718676D01*
X176582037Y-119694900D01*
X176460163Y-119694900D01*
X176340632Y-119718676D01*
X176228035Y-119765315D01*
X176126702Y-119833024D01*
X176040524Y-119919202D01*
X175972815Y-120020535D01*
X175926176Y-120133132D01*
X175902400Y-120252663D01*
X175902400Y-120374537D01*
X175926176Y-120494068D01*
X175972815Y-120606665D01*
X176040524Y-120707998D01*
X176126702Y-120794176D01*
X176203600Y-120845558D01*
X176203601Y-123312179D01*
X175441100Y-123312179D01*
X175403756Y-123315857D01*
X175367846Y-123326750D01*
X175334752Y-123344439D01*
X175305745Y-123368245D01*
X175281939Y-123397252D01*
X175264250Y-123430346D01*
X175253357Y-123466256D01*
X175249679Y-123503600D01*
X146197800Y-123503600D01*
X146197800Y-115768114D01*
X154565500Y-115768114D01*
X154565501Y-117159087D01*
X154577720Y-117283151D01*
X154626010Y-117442340D01*
X154704428Y-117589049D01*
X154809960Y-117717641D01*
X154938552Y-117823173D01*
X155085261Y-117901591D01*
X155244450Y-117949881D01*
X155410000Y-117966186D01*
X155575551Y-117949881D01*
X155734740Y-117901591D01*
X155881449Y-117823173D01*
X156010041Y-117717641D01*
X156115573Y-117589049D01*
X156193991Y-117442340D01*
X156242281Y-117283151D01*
X156254500Y-117159087D01*
X156254500Y-115768114D01*
X166476600Y-115768114D01*
X166476601Y-117159087D01*
X166488820Y-117283151D01*
X166537110Y-117442340D01*
X166615528Y-117589049D01*
X166721060Y-117717641D01*
X166849652Y-117823173D01*
X166996361Y-117901591D01*
X167155550Y-117949881D01*
X167321100Y-117966186D01*
X167486651Y-117949881D01*
X167645840Y-117901591D01*
X167792549Y-117823173D01*
X167921141Y-117717641D01*
X168026673Y-117589049D01*
X168105091Y-117442340D01*
X168153381Y-117283151D01*
X168165600Y-117159087D01*
X168165600Y-115768113D01*
X168153381Y-115644049D01*
X168105091Y-115484860D01*
X168026673Y-115338151D01*
X167921141Y-115209559D01*
X167792548Y-115104027D01*
X167645839Y-115025609D01*
X167486650Y-114977319D01*
X167321100Y-114961014D01*
X167155549Y-114977319D01*
X166996360Y-115025609D01*
X166849651Y-115104027D01*
X166721059Y-115209559D01*
X166615527Y-115338152D01*
X166537109Y-115484861D01*
X166488819Y-115644050D01*
X166476600Y-115768114D01*
X156254500Y-115768114D01*
X156254500Y-115768113D01*
X156242281Y-115644049D01*
X156193991Y-115484860D01*
X156115573Y-115338151D01*
X156010041Y-115209559D01*
X155881448Y-115104027D01*
X155734739Y-115025609D01*
X155575550Y-114977319D01*
X155410000Y-114961014D01*
X155244449Y-114977319D01*
X155085260Y-115025609D01*
X154938551Y-115104027D01*
X154809959Y-115209559D01*
X154704427Y-115338152D01*
X154626009Y-115484861D01*
X154577719Y-115644050D01*
X154565500Y-115768114D01*
X146197800Y-115768114D01*
X146197800Y-112999063D01*
X171721300Y-112999063D01*
X171721300Y-113120937D01*
X171745076Y-113240468D01*
X171791715Y-113353065D01*
X171859424Y-113454398D01*
X171945602Y-113540576D01*
X172046935Y-113608285D01*
X172159532Y-113654924D01*
X172279063Y-113678700D01*
X172400937Y-113678700D01*
X172520468Y-113654924D01*
X172633065Y-113608285D01*
X172734398Y-113540576D01*
X172820576Y-113454398D01*
X172873294Y-113375500D01*
X173043579Y-113375500D01*
X173043579Y-113670000D01*
X173047257Y-113707344D01*
X173058150Y-113743254D01*
X173075839Y-113776348D01*
X173099645Y-113805355D01*
X173128652Y-113829161D01*
X173161746Y-113846850D01*
X173197656Y-113857743D01*
X173235000Y-113861421D01*
X174885000Y-113861421D01*
X174922344Y-113857743D01*
X174958254Y-113846850D01*
X174991348Y-113829161D01*
X175020355Y-113805355D01*
X175044161Y-113776348D01*
X175061850Y-113743254D01*
X175072743Y-113707344D01*
X175076421Y-113670000D01*
X175076421Y-112899100D01*
X177803065Y-112899100D01*
X177777846Y-112906750D01*
X177744752Y-112924439D01*
X177715745Y-112948245D01*
X177691939Y-112977252D01*
X177674250Y-113010346D01*
X177663357Y-113046256D01*
X177659679Y-113083600D01*
X177659679Y-113878837D01*
X177094017Y-114444500D01*
X176533294Y-114444500D01*
X176480576Y-114365602D01*
X176394398Y-114279424D01*
X176293065Y-114211715D01*
X176180468Y-114165076D01*
X176060937Y-114141300D01*
X175939063Y-114141300D01*
X175819532Y-114165076D01*
X175706935Y-114211715D01*
X175605602Y-114279424D01*
X175519424Y-114365602D01*
X175451715Y-114466935D01*
X175405076Y-114579532D01*
X175381300Y-114699063D01*
X175381300Y-114820937D01*
X175405076Y-114940468D01*
X175451715Y-115053065D01*
X175519424Y-115154398D01*
X175605602Y-115240576D01*
X175706935Y-115308285D01*
X175819532Y-115354924D01*
X175939063Y-115378700D01*
X176060937Y-115378700D01*
X176180468Y-115354924D01*
X176293065Y-115308285D01*
X176394398Y-115240576D01*
X176480576Y-115154398D01*
X176533294Y-115075500D01*
X177209218Y-115075500D01*
X177224700Y-115077025D01*
X177240182Y-115075500D01*
X177240193Y-115075500D01*
X177286549Y-115070934D01*
X177346021Y-115052894D01*
X177400830Y-115023597D01*
X177448871Y-114984171D01*
X177458751Y-114972132D01*
X177955863Y-114475021D01*
X178751100Y-114475021D01*
X178788444Y-114471343D01*
X178824354Y-114460450D01*
X178857448Y-114442761D01*
X178886455Y-114418955D01*
X178910261Y-114389948D01*
X178927950Y-114356854D01*
X178938843Y-114320944D01*
X178942521Y-114283600D01*
X178942521Y-113274033D01*
X179159679Y-113491192D01*
X179159679Y-114283600D01*
X179163357Y-114320944D01*
X179174250Y-114356854D01*
X179191939Y-114389948D01*
X179215745Y-114418955D01*
X179244752Y-114442761D01*
X179277846Y-114460450D01*
X179313756Y-114471343D01*
X179351100Y-114475021D01*
X180251100Y-114475021D01*
X180288444Y-114471343D01*
X180324354Y-114460450D01*
X180357448Y-114442761D01*
X180386455Y-114418955D01*
X180410261Y-114389948D01*
X180427950Y-114356854D01*
X180438843Y-114320944D01*
X180442521Y-114283600D01*
X180442521Y-113083600D01*
X180438843Y-113046256D01*
X180427950Y-113010346D01*
X180410261Y-112977252D01*
X180386455Y-112948245D01*
X180357448Y-112924439D01*
X180324354Y-112906750D01*
X180288444Y-112895857D01*
X180251100Y-112892179D01*
X179458691Y-112892179D01*
X178914578Y-112348066D01*
X178878346Y-112318332D01*
X178823189Y-112288849D01*
X178763340Y-112270694D01*
X178701100Y-112264564D01*
X178665198Y-112268100D01*
X175076234Y-112268100D01*
X175072743Y-112232656D01*
X175061850Y-112196746D01*
X175044161Y-112163652D01*
X175020355Y-112134645D01*
X174991348Y-112110839D01*
X174958254Y-112093150D01*
X174922344Y-112082257D01*
X174885000Y-112078579D01*
X173235000Y-112078579D01*
X173197656Y-112082257D01*
X173161746Y-112093150D01*
X173128652Y-112110839D01*
X173099645Y-112134645D01*
X173075839Y-112163652D01*
X173058150Y-112196746D01*
X173047257Y-112232656D01*
X173043579Y-112270000D01*
X173043579Y-112744500D01*
X172873294Y-112744500D01*
X172820576Y-112665602D01*
X172734398Y-112579424D01*
X172633065Y-112511715D01*
X172520468Y-112465076D01*
X172400937Y-112441300D01*
X172279063Y-112441300D01*
X172159532Y-112465076D01*
X172046935Y-112511715D01*
X171945602Y-112579424D01*
X171859424Y-112665602D01*
X171791715Y-112766935D01*
X171745076Y-112879532D01*
X171721300Y-112999063D01*
X146197800Y-112999063D01*
X146197800Y-109083600D01*
X177659679Y-109083600D01*
X177659679Y-110283600D01*
X177663357Y-110320944D01*
X177674250Y-110356854D01*
X177691939Y-110389948D01*
X177715745Y-110418955D01*
X177744752Y-110442761D01*
X177777846Y-110460450D01*
X177813756Y-110471343D01*
X177851100Y-110475021D01*
X178751100Y-110475021D01*
X178788444Y-110471343D01*
X178824354Y-110460450D01*
X178857448Y-110442761D01*
X178886455Y-110418955D01*
X178910261Y-110389948D01*
X178927950Y-110356854D01*
X178938843Y-110320944D01*
X178942521Y-110283600D01*
X178942521Y-109083600D01*
X179159679Y-109083600D01*
X179159679Y-110283600D01*
X179163357Y-110320944D01*
X179174250Y-110356854D01*
X179191939Y-110389948D01*
X179215745Y-110418955D01*
X179244752Y-110442761D01*
X179277846Y-110460450D01*
X179313756Y-110471343D01*
X179351100Y-110475021D01*
X180251100Y-110475021D01*
X180288444Y-110471343D01*
X180324354Y-110460450D01*
X180357448Y-110442761D01*
X180386455Y-110418955D01*
X180410261Y-110389948D01*
X180427950Y-110356854D01*
X180438843Y-110320944D01*
X180442521Y-110283600D01*
X180442521Y-109083600D01*
X180438843Y-109046256D01*
X180427950Y-109010346D01*
X180410261Y-108977252D01*
X180386455Y-108948245D01*
X180357448Y-108924439D01*
X180324354Y-108906750D01*
X180288444Y-108895857D01*
X180251100Y-108892179D01*
X179351100Y-108892179D01*
X179313756Y-108895857D01*
X179277846Y-108906750D01*
X179244752Y-108924439D01*
X179215745Y-108948245D01*
X179191939Y-108977252D01*
X179174250Y-109010346D01*
X179163357Y-109046256D01*
X179159679Y-109083600D01*
X178942521Y-109083600D01*
X178938843Y-109046256D01*
X178927950Y-109010346D01*
X178910261Y-108977252D01*
X178886455Y-108948245D01*
X178857448Y-108924439D01*
X178824354Y-108906750D01*
X178788444Y-108895857D01*
X178751100Y-108892179D01*
X177851100Y-108892179D01*
X177813756Y-108895857D01*
X177777846Y-108906750D01*
X177744752Y-108924439D01*
X177715745Y-108948245D01*
X177691939Y-108977252D01*
X177674250Y-109010346D01*
X177663357Y-109046256D01*
X177659679Y-109083600D01*
X146197800Y-109083600D01*
X146197800Y-102122663D01*
X153212400Y-102122663D01*
X153212400Y-102244537D01*
X153236176Y-102364068D01*
X153282815Y-102476665D01*
X153350524Y-102577998D01*
X153436702Y-102664176D01*
X153513601Y-102715558D01*
X153513601Y-103004795D01*
X153512064Y-103020400D01*
X153518194Y-103082640D01*
X153536349Y-103142489D01*
X153550073Y-103168164D01*
X153565832Y-103197647D01*
X153605508Y-103245993D01*
X153617625Y-103255937D01*
X154342147Y-103980460D01*
X154332400Y-104029463D01*
X154332400Y-104151337D01*
X154356176Y-104270868D01*
X154402815Y-104383465D01*
X154470524Y-104484798D01*
X154556702Y-104570976D01*
X154658035Y-104638685D01*
X154770632Y-104685324D01*
X154890163Y-104709100D01*
X155012037Y-104709100D01*
X155131568Y-104685324D01*
X155244165Y-104638685D01*
X155345498Y-104570976D01*
X155431676Y-104484798D01*
X155499385Y-104383465D01*
X155546024Y-104270868D01*
X155569800Y-104151337D01*
X155569800Y-104029463D01*
X155546024Y-103909932D01*
X155499385Y-103797335D01*
X155431676Y-103696002D01*
X155345498Y-103609824D01*
X155244165Y-103542115D01*
X155131568Y-103495476D01*
X155012037Y-103471700D01*
X154890163Y-103471700D01*
X154770632Y-103495476D01*
X154759712Y-103499999D01*
X154148600Y-102888888D01*
X154148600Y-102715558D01*
X154225498Y-102664176D01*
X154311676Y-102577998D01*
X154379385Y-102476665D01*
X154426024Y-102364068D01*
X154449800Y-102244537D01*
X154449800Y-102122663D01*
X154440491Y-102075860D01*
X157541800Y-102075860D01*
X157541800Y-102197734D01*
X157565576Y-102317265D01*
X157612215Y-102429862D01*
X157679924Y-102531195D01*
X157766102Y-102617373D01*
X157843000Y-102668755D01*
X157843001Y-103958724D01*
X157776702Y-104003024D01*
X157690524Y-104089202D01*
X157622815Y-104190535D01*
X157576176Y-104303132D01*
X157552400Y-104422663D01*
X157552400Y-104544537D01*
X157576176Y-104664068D01*
X157622815Y-104776665D01*
X157690524Y-104877998D01*
X157776702Y-104964176D01*
X157878035Y-105031885D01*
X157990632Y-105078524D01*
X158110163Y-105102300D01*
X158232037Y-105102300D01*
X158351568Y-105078524D01*
X158464165Y-105031885D01*
X158565498Y-104964176D01*
X158651676Y-104877998D01*
X158719385Y-104776665D01*
X158766024Y-104664068D01*
X158789800Y-104544537D01*
X158789800Y-104422663D01*
X158766024Y-104303132D01*
X158719385Y-104190535D01*
X158651676Y-104089202D01*
X158565498Y-104003024D01*
X158478000Y-103944559D01*
X158478000Y-102668755D01*
X158554898Y-102617373D01*
X158641076Y-102531195D01*
X158708785Y-102429862D01*
X158755424Y-102317265D01*
X158779200Y-102197734D01*
X158779200Y-102075860D01*
X158755424Y-101956329D01*
X158708785Y-101843732D01*
X158641076Y-101742399D01*
X158554898Y-101656221D01*
X158453565Y-101588512D01*
X158340968Y-101541873D01*
X158221437Y-101518097D01*
X158099563Y-101518097D01*
X157980032Y-101541873D01*
X157867435Y-101588512D01*
X157766102Y-101656221D01*
X157679924Y-101742399D01*
X157612215Y-101843732D01*
X157565576Y-101956329D01*
X157541800Y-102075860D01*
X154440491Y-102075860D01*
X154426024Y-102003132D01*
X154379385Y-101890535D01*
X154311676Y-101789202D01*
X154225498Y-101703024D01*
X154124165Y-101635315D01*
X154011568Y-101588676D01*
X153892037Y-101564900D01*
X153770163Y-101564900D01*
X153650632Y-101588676D01*
X153538035Y-101635315D01*
X153436702Y-101703024D01*
X153350524Y-101789202D01*
X153282815Y-101890535D01*
X153236176Y-102003132D01*
X153212400Y-102122663D01*
X146197800Y-102122663D01*
X146197800Y-99227400D01*
X146194140Y-99190235D01*
X146183299Y-99154499D01*
X146165695Y-99121564D01*
X146142004Y-99092696D01*
X146113136Y-99069005D01*
X146080201Y-99051401D01*
X146044465Y-99040560D01*
X146007300Y-99036900D01*
X131474900Y-99036900D01*
X131437735Y-99040560D01*
X131401999Y-99051401D01*
X131391100Y-99057227D01*
X131380201Y-99051401D01*
X131344465Y-99040560D01*
X131307300Y-99036900D01*
X115724201Y-99036900D01*
X115724201Y-97865863D01*
X147202400Y-97865863D01*
X147202400Y-97987737D01*
X147226176Y-98107268D01*
X147272815Y-98219865D01*
X147340524Y-98321198D01*
X147426702Y-98407376D01*
X147528035Y-98475085D01*
X147640632Y-98521724D01*
X147760163Y-98545500D01*
X147882037Y-98545500D01*
X147972745Y-98527457D01*
X149546833Y-100101546D01*
X149546176Y-100103132D01*
X149522400Y-100222663D01*
X149522400Y-100344537D01*
X149546176Y-100464068D01*
X149592815Y-100576665D01*
X149660524Y-100677998D01*
X149746702Y-100764176D01*
X149848035Y-100831885D01*
X149960632Y-100878524D01*
X150080163Y-100902300D01*
X150202037Y-100902300D01*
X150321568Y-100878524D01*
X150434165Y-100831885D01*
X150535498Y-100764176D01*
X150621676Y-100677998D01*
X150689385Y-100576665D01*
X150736024Y-100464068D01*
X150759800Y-100344537D01*
X150759800Y-100222663D01*
X150736024Y-100103132D01*
X150721913Y-100069063D01*
X165611300Y-100069063D01*
X165611300Y-100190937D01*
X165635076Y-100310468D01*
X165681715Y-100423065D01*
X165749424Y-100524398D01*
X165835602Y-100610576D01*
X165936935Y-100678285D01*
X166049532Y-100724924D01*
X166169063Y-100748700D01*
X166290937Y-100748700D01*
X166410468Y-100724924D01*
X166523065Y-100678285D01*
X166624398Y-100610576D01*
X166710576Y-100524398D01*
X166763294Y-100445500D01*
X168216840Y-100445500D01*
X168248262Y-100492525D01*
X168327475Y-100571738D01*
X168420619Y-100633976D01*
X168524116Y-100676845D01*
X168633988Y-100698700D01*
X168746012Y-100698700D01*
X168855884Y-100676845D01*
X168959381Y-100633976D01*
X169052525Y-100571738D01*
X169131738Y-100492525D01*
X169193976Y-100399381D01*
X169236845Y-100295884D01*
X169258700Y-100186012D01*
X169258700Y-100073988D01*
X169236845Y-99964116D01*
X169193976Y-99860619D01*
X169131738Y-99767475D01*
X169052525Y-99688262D01*
X168959381Y-99626024D01*
X168855884Y-99583155D01*
X168746012Y-99561300D01*
X168633988Y-99561300D01*
X168524116Y-99583155D01*
X168420619Y-99626024D01*
X168327475Y-99688262D01*
X168248262Y-99767475D01*
X168216840Y-99814500D01*
X166763294Y-99814500D01*
X166710576Y-99735602D01*
X166624398Y-99649424D01*
X166523065Y-99581715D01*
X166410468Y-99535076D01*
X166290937Y-99511300D01*
X166169063Y-99511300D01*
X166049532Y-99535076D01*
X165936935Y-99581715D01*
X165835602Y-99649424D01*
X165749424Y-99735602D01*
X165681715Y-99836935D01*
X165635076Y-99949532D01*
X165611300Y-100069063D01*
X150721913Y-100069063D01*
X150689385Y-99990535D01*
X150621676Y-99889202D01*
X150535498Y-99803024D01*
X150434165Y-99735315D01*
X150321568Y-99688676D01*
X150202037Y-99664900D01*
X150080163Y-99664900D01*
X150020150Y-99676837D01*
X148421757Y-98078445D01*
X148439800Y-97987737D01*
X148439800Y-97865863D01*
X148416024Y-97746332D01*
X148369385Y-97633735D01*
X148301676Y-97532402D01*
X148215498Y-97446224D01*
X148114165Y-97378515D01*
X148001568Y-97331876D01*
X147882037Y-97308100D01*
X147760163Y-97308100D01*
X147640632Y-97331876D01*
X147528035Y-97378515D01*
X147426702Y-97446224D01*
X147340524Y-97532402D01*
X147272815Y-97633735D01*
X147226176Y-97746332D01*
X147202400Y-97865863D01*
X115724201Y-97865863D01*
X115724201Y-95302663D01*
X164432400Y-95302663D01*
X164432400Y-95424537D01*
X164456176Y-95544068D01*
X164502815Y-95656665D01*
X164570524Y-95757998D01*
X164656702Y-95844176D01*
X164758035Y-95911885D01*
X164870632Y-95958524D01*
X164990163Y-95982300D01*
X165112037Y-95982300D01*
X165231568Y-95958524D01*
X165344165Y-95911885D01*
X165445498Y-95844176D01*
X165531676Y-95757998D01*
X165583058Y-95681100D01*
X166822460Y-95681100D01*
X166880524Y-95767998D01*
X166966702Y-95854176D01*
X167068035Y-95921885D01*
X167180632Y-95968524D01*
X167300163Y-95992300D01*
X167422037Y-95992300D01*
X167541568Y-95968524D01*
X167654165Y-95921885D01*
X167755498Y-95854176D01*
X167841676Y-95767998D01*
X167909385Y-95666665D01*
X167956024Y-95554068D01*
X167979800Y-95434537D01*
X167979800Y-95312663D01*
X167956024Y-95193132D01*
X167909385Y-95080535D01*
X167841676Y-94979202D01*
X167755498Y-94893024D01*
X167654165Y-94825315D01*
X167541568Y-94778676D01*
X167422037Y-94754900D01*
X167300163Y-94754900D01*
X167180632Y-94778676D01*
X167068035Y-94825315D01*
X166966702Y-94893024D01*
X166880524Y-94979202D01*
X166835824Y-95046100D01*
X165583058Y-95046100D01*
X165531676Y-94969202D01*
X165445498Y-94883024D01*
X165344165Y-94815315D01*
X165231568Y-94768676D01*
X165112037Y-94744900D01*
X164990163Y-94744900D01*
X164870632Y-94768676D01*
X164758035Y-94815315D01*
X164656702Y-94883024D01*
X164570524Y-94969202D01*
X164502815Y-95070535D01*
X164456176Y-95183132D01*
X164432400Y-95302663D01*
X115724201Y-95302663D01*
X115724201Y-84543450D01*
X163768464Y-84543450D01*
X163770001Y-84559055D01*
X163770000Y-85983392D01*
X163768464Y-85998988D01*
X163770000Y-86014583D01*
X163774594Y-86061228D01*
X163792749Y-86121077D01*
X163822231Y-86176234D01*
X163861907Y-86224581D01*
X163874030Y-86234530D01*
X170303688Y-92664188D01*
X170273724Y-92694152D01*
X170206015Y-92795485D01*
X170159376Y-92908082D01*
X170135600Y-93027613D01*
X170135600Y-93149487D01*
X170159376Y-93269018D01*
X170206015Y-93381615D01*
X170273724Y-93482948D01*
X170359902Y-93569126D01*
X170461235Y-93636835D01*
X170573832Y-93683474D01*
X170693363Y-93707250D01*
X170815237Y-93707250D01*
X170934768Y-93683474D01*
X171047365Y-93636835D01*
X171148698Y-93569126D01*
X171234876Y-93482948D01*
X171302585Y-93381615D01*
X171349224Y-93269018D01*
X171373000Y-93149487D01*
X171373000Y-93027613D01*
X171349224Y-92908082D01*
X171302585Y-92795485D01*
X171234876Y-92694152D01*
X171148698Y-92607974D01*
X171047365Y-92540265D01*
X171047174Y-92540186D01*
X171019569Y-92488541D01*
X171004230Y-92469850D01*
X170979893Y-92440195D01*
X170967776Y-92430251D01*
X164405000Y-85867476D01*
X164405000Y-85312601D01*
X164471775Y-85379376D01*
X164564919Y-85441614D01*
X164668416Y-85484483D01*
X164778288Y-85506338D01*
X164890312Y-85506338D01*
X165000184Y-85484483D01*
X165103681Y-85441614D01*
X165196825Y-85379376D01*
X165276038Y-85300163D01*
X165338276Y-85207019D01*
X165339386Y-85204338D01*
X165637168Y-85204338D01*
X172369679Y-91936850D01*
X172369679Y-92600000D01*
X172373357Y-92637344D01*
X172384250Y-92673254D01*
X172401939Y-92706348D01*
X172425745Y-92735355D01*
X172454752Y-92759161D01*
X172487846Y-92776850D01*
X172523756Y-92787743D01*
X172561100Y-92791421D01*
X172645600Y-92791421D01*
X172645601Y-93183579D01*
X172021100Y-93183579D01*
X171983756Y-93187257D01*
X171947846Y-93198150D01*
X171914752Y-93215839D01*
X171885745Y-93239645D01*
X171861939Y-93268652D01*
X171844250Y-93301746D01*
X171833357Y-93337656D01*
X171829679Y-93375000D01*
X171829679Y-95025000D01*
X171833357Y-95062344D01*
X171844250Y-95098254D01*
X171861939Y-95131348D01*
X171885745Y-95160355D01*
X171914752Y-95184161D01*
X171947846Y-95201850D01*
X171983756Y-95212743D01*
X172021100Y-95216421D01*
X173421100Y-95216421D01*
X173458444Y-95212743D01*
X173494354Y-95201850D01*
X173527448Y-95184161D01*
X173556455Y-95160355D01*
X173580261Y-95131348D01*
X173597950Y-95098254D01*
X173608843Y-95062344D01*
X173612521Y-95025000D01*
X173612521Y-93375000D01*
X173608843Y-93337656D01*
X173597950Y-93301746D01*
X173580261Y-93268652D01*
X173556455Y-93239645D01*
X173527448Y-93215839D01*
X173494354Y-93198150D01*
X173458444Y-93187257D01*
X173421100Y-93183579D01*
X173276600Y-93183579D01*
X173276600Y-92791421D01*
X173361100Y-92791421D01*
X173398444Y-92787743D01*
X173434354Y-92776850D01*
X173467448Y-92759161D01*
X173496455Y-92735355D01*
X173520261Y-92706348D01*
X173537950Y-92673254D01*
X173548843Y-92637344D01*
X173552521Y-92600000D01*
X173552521Y-92589691D01*
X174132150Y-93169321D01*
X174140502Y-93179498D01*
X174181113Y-93212826D01*
X174227445Y-93237590D01*
X174277718Y-93252841D01*
X174316902Y-93256700D01*
X174316904Y-93256700D01*
X174330000Y-93257990D01*
X174343096Y-93256700D01*
X174471748Y-93256700D01*
X174461939Y-93268652D01*
X174444250Y-93301746D01*
X174433357Y-93337656D01*
X174429679Y-93375000D01*
X174429679Y-95025000D01*
X174433357Y-95062344D01*
X174444250Y-95098254D01*
X174461939Y-95131348D01*
X174485745Y-95160355D01*
X174514752Y-95184161D01*
X174547846Y-95201850D01*
X174583756Y-95212743D01*
X174621100Y-95216421D01*
X176021100Y-95216421D01*
X176058444Y-95212743D01*
X176094354Y-95201850D01*
X176127448Y-95184161D01*
X176136100Y-95177060D01*
X176144752Y-95184161D01*
X176177846Y-95201850D01*
X176213756Y-95212743D01*
X176251100Y-95216421D01*
X177651100Y-95216421D01*
X177688444Y-95212743D01*
X177715090Y-95204660D01*
X177701300Y-95273988D01*
X177701300Y-95386012D01*
X177723155Y-95495884D01*
X177766024Y-95599381D01*
X177828262Y-95692525D01*
X177862916Y-95727179D01*
X177121100Y-95727179D01*
X177083756Y-95730857D01*
X177047846Y-95741750D01*
X177014752Y-95759439D01*
X176985745Y-95783245D01*
X176961939Y-95812252D01*
X176944250Y-95845346D01*
X176933357Y-95881256D01*
X176929679Y-95918600D01*
X176929679Y-96128100D01*
X176461882Y-96128100D01*
X176446399Y-96126575D01*
X176430917Y-96128100D01*
X176430907Y-96128100D01*
X176384551Y-96132666D01*
X176337531Y-96146929D01*
X176325079Y-96150706D01*
X176270270Y-96180003D01*
X176234262Y-96209553D01*
X176234257Y-96209558D01*
X176222229Y-96219429D01*
X176212357Y-96231458D01*
X176053417Y-96390399D01*
X176038444Y-96385857D01*
X176001100Y-96382179D01*
X174781100Y-96382179D01*
X174776994Y-96382583D01*
X174778125Y-96371100D01*
X174776600Y-96355615D01*
X174776600Y-96355607D01*
X174772034Y-96309251D01*
X174753994Y-96249779D01*
X174724697Y-96194970D01*
X174685271Y-96146929D01*
X174673237Y-96137053D01*
X174530188Y-95994004D01*
X174548700Y-95900937D01*
X174548700Y-95779063D01*
X174524924Y-95659532D01*
X174478285Y-95546935D01*
X174410576Y-95445602D01*
X174324398Y-95359424D01*
X174223065Y-95291715D01*
X174110468Y-95245076D01*
X173990937Y-95221300D01*
X173869063Y-95221300D01*
X173749532Y-95245076D01*
X173636935Y-95291715D01*
X173535602Y-95359424D01*
X173449424Y-95445602D01*
X173381715Y-95546935D01*
X173335076Y-95659532D01*
X173311300Y-95779063D01*
X173311300Y-95900937D01*
X173335076Y-96020468D01*
X173381715Y-96133065D01*
X173449424Y-96234398D01*
X173535602Y-96320576D01*
X173597865Y-96362179D01*
X173258691Y-96362179D01*
X173146642Y-96250130D01*
X173136693Y-96238007D01*
X173088347Y-96198331D01*
X173033190Y-96168849D01*
X172973341Y-96150694D01*
X172926696Y-96146100D01*
X172911100Y-96144564D01*
X172895504Y-96146100D01*
X171892521Y-96146100D01*
X171892521Y-95938600D01*
X171888843Y-95901256D01*
X171877950Y-95865346D01*
X171860261Y-95832252D01*
X171836455Y-95803245D01*
X171807448Y-95779439D01*
X171774354Y-95761750D01*
X171738444Y-95750857D01*
X171701100Y-95747179D01*
X170101100Y-95747179D01*
X170063756Y-95750857D01*
X170027846Y-95761750D01*
X169994752Y-95779439D01*
X169965745Y-95803245D01*
X169941939Y-95832252D01*
X169924250Y-95865346D01*
X169913357Y-95901256D01*
X169909679Y-95938600D01*
X169909679Y-96988600D01*
X169913357Y-97025944D01*
X169924250Y-97061854D01*
X169941939Y-97094948D01*
X169965745Y-97123955D01*
X169994752Y-97147761D01*
X170027846Y-97165450D01*
X170063756Y-97176343D01*
X170101100Y-97180021D01*
X171701100Y-97180021D01*
X171738444Y-97176343D01*
X171774354Y-97165450D01*
X171807448Y-97147761D01*
X171836455Y-97123955D01*
X171860261Y-97094948D01*
X171877950Y-97061854D01*
X171888843Y-97025944D01*
X171892521Y-96988600D01*
X171892521Y-96781100D01*
X172589679Y-96781100D01*
X172589679Y-97333600D01*
X172593357Y-97370944D01*
X172604250Y-97406854D01*
X172621939Y-97439948D01*
X172645745Y-97468955D01*
X172674752Y-97492761D01*
X172707846Y-97510450D01*
X172743756Y-97521343D01*
X172781100Y-97525021D01*
X173393509Y-97525021D01*
X174615563Y-98747076D01*
X174625507Y-98759193D01*
X174645544Y-98775636D01*
X174598035Y-98795315D01*
X174496702Y-98863024D01*
X174410524Y-98949202D01*
X174342815Y-99050535D01*
X174296176Y-99163132D01*
X174272400Y-99282663D01*
X174272400Y-99404537D01*
X174296176Y-99524068D01*
X174342815Y-99636665D01*
X174410524Y-99737998D01*
X174496702Y-99824176D01*
X174598035Y-99891885D01*
X174651088Y-99913860D01*
X174645745Y-99918245D01*
X174621939Y-99947252D01*
X174604250Y-99980346D01*
X174593357Y-100016256D01*
X174589679Y-100053600D01*
X174589679Y-100106100D01*
X174192521Y-100106100D01*
X174192521Y-100033600D01*
X174188843Y-99996256D01*
X174177950Y-99960346D01*
X174160261Y-99927252D01*
X174136455Y-99898245D01*
X174107448Y-99874439D01*
X174074354Y-99856750D01*
X174038444Y-99845857D01*
X174001100Y-99842179D01*
X172781100Y-99842179D01*
X172743756Y-99845857D01*
X172707846Y-99856750D01*
X172674752Y-99874439D01*
X172645745Y-99898245D01*
X172621939Y-99927252D01*
X172604250Y-99960346D01*
X172593357Y-99996256D01*
X172589679Y-100033600D01*
X172589679Y-100813600D01*
X172593357Y-100850944D01*
X172604250Y-100886854D01*
X172621939Y-100919948D01*
X172635195Y-100936100D01*
X171892521Y-100936100D01*
X171892521Y-100388600D01*
X171888843Y-100351256D01*
X171877950Y-100315346D01*
X171860261Y-100282252D01*
X171836455Y-100253245D01*
X171807448Y-100229439D01*
X171774354Y-100211750D01*
X171738444Y-100200857D01*
X171701100Y-100197179D01*
X170101100Y-100197179D01*
X170063756Y-100200857D01*
X170027846Y-100211750D01*
X169994752Y-100229439D01*
X169965745Y-100253245D01*
X169941939Y-100282252D01*
X169924250Y-100315346D01*
X169913357Y-100351256D01*
X169909679Y-100388600D01*
X169909679Y-101438600D01*
X169913357Y-101475944D01*
X169924250Y-101511854D01*
X169941939Y-101544948D01*
X169965745Y-101573955D01*
X169994752Y-101597761D01*
X170027846Y-101615450D01*
X170063756Y-101626343D01*
X170101100Y-101630021D01*
X170583601Y-101630021D01*
X170583600Y-103398004D01*
X170582064Y-103413600D01*
X170583600Y-103429195D01*
X170588194Y-103475840D01*
X170606349Y-103535689D01*
X170635831Y-103590846D01*
X170675507Y-103639193D01*
X170687630Y-103649142D01*
X171123235Y-104084748D01*
X171089054Y-104167268D01*
X171056600Y-104330424D01*
X171056600Y-104496776D01*
X171089054Y-104659932D01*
X171152714Y-104813621D01*
X171245134Y-104951937D01*
X171362763Y-105069566D01*
X171501079Y-105161986D01*
X171654768Y-105225646D01*
X171817924Y-105258100D01*
X171984276Y-105258100D01*
X172147432Y-105225646D01*
X172301121Y-105161986D01*
X172439437Y-105069566D01*
X172557066Y-104951937D01*
X172649486Y-104813621D01*
X172713146Y-104659932D01*
X172745600Y-104496776D01*
X172745600Y-104330424D01*
X173556600Y-104330424D01*
X173556600Y-104496776D01*
X173589054Y-104659932D01*
X173652714Y-104813621D01*
X173745134Y-104951937D01*
X173862763Y-105069566D01*
X174001079Y-105161986D01*
X174154768Y-105225646D01*
X174317924Y-105258100D01*
X174484276Y-105258100D01*
X174647432Y-105225646D01*
X174801121Y-105161986D01*
X174939437Y-105069566D01*
X175057066Y-104951937D01*
X175149486Y-104813621D01*
X175213146Y-104659932D01*
X175245600Y-104496776D01*
X175245600Y-104330424D01*
X176056600Y-104330424D01*
X176056600Y-104496776D01*
X176089054Y-104659932D01*
X176152714Y-104813621D01*
X176245134Y-104951937D01*
X176362763Y-105069566D01*
X176501079Y-105161986D01*
X176654768Y-105225646D01*
X176817924Y-105258100D01*
X176984276Y-105258100D01*
X177147432Y-105225646D01*
X177301121Y-105161986D01*
X177439437Y-105069566D01*
X177557066Y-104951937D01*
X177649486Y-104813621D01*
X177713146Y-104659932D01*
X177745600Y-104496776D01*
X177745600Y-104330424D01*
X177713146Y-104167268D01*
X177649486Y-104013579D01*
X177557066Y-103875263D01*
X177439437Y-103757634D01*
X177301121Y-103665214D01*
X177147432Y-103601554D01*
X176984276Y-103569100D01*
X176817924Y-103569100D01*
X176654768Y-103601554D01*
X176501079Y-103665214D01*
X176362763Y-103757634D01*
X176245134Y-103875263D01*
X176152714Y-104013579D01*
X176089054Y-104167268D01*
X176056600Y-104330424D01*
X175245600Y-104330424D01*
X175213146Y-104167268D01*
X175149486Y-104013579D01*
X175057066Y-103875263D01*
X174939437Y-103757634D01*
X174801121Y-103665214D01*
X174647432Y-103601554D01*
X174484276Y-103569100D01*
X174317924Y-103569100D01*
X174154768Y-103601554D01*
X174001079Y-103665214D01*
X173862763Y-103757634D01*
X173745134Y-103875263D01*
X173652714Y-104013579D01*
X173589054Y-104167268D01*
X173556600Y-104330424D01*
X172745600Y-104330424D01*
X172713146Y-104167268D01*
X172649486Y-104013579D01*
X172557066Y-103875263D01*
X172439437Y-103757634D01*
X172301121Y-103665214D01*
X172147432Y-103601554D01*
X171984276Y-103569100D01*
X171817924Y-103569100D01*
X171654768Y-103601554D01*
X171572248Y-103635735D01*
X171218600Y-103282088D01*
X171218600Y-101630021D01*
X171701100Y-101630021D01*
X171738444Y-101626343D01*
X171774354Y-101615450D01*
X171807448Y-101597761D01*
X171836455Y-101573955D01*
X171838798Y-101571100D01*
X177006636Y-101571100D01*
X177014752Y-101577761D01*
X177047846Y-101595450D01*
X177083756Y-101606343D01*
X177121100Y-101610021D01*
X178721100Y-101610021D01*
X178758444Y-101606343D01*
X178794354Y-101595450D01*
X178827448Y-101577761D01*
X178856455Y-101553955D01*
X178880261Y-101524948D01*
X178897950Y-101491854D01*
X178908843Y-101455944D01*
X178912521Y-101418600D01*
X178912521Y-100368600D01*
X178908843Y-100331256D01*
X178897950Y-100295346D01*
X178880261Y-100262252D01*
X178856455Y-100233245D01*
X178827448Y-100209439D01*
X178794354Y-100191750D01*
X178758444Y-100180857D01*
X178721100Y-100177179D01*
X177121100Y-100177179D01*
X177083756Y-100180857D01*
X177047846Y-100191750D01*
X177014752Y-100209439D01*
X176985745Y-100233245D01*
X176961939Y-100262252D01*
X176944250Y-100295346D01*
X176933357Y-100331256D01*
X176929679Y-100368600D01*
X176929679Y-100936100D01*
X176162318Y-100936100D01*
X176177950Y-100906854D01*
X176188843Y-100870944D01*
X176192521Y-100833600D01*
X176192521Y-100053600D01*
X176188843Y-100016256D01*
X176177950Y-99980346D01*
X176160261Y-99947252D01*
X176136455Y-99918245D01*
X176107448Y-99894439D01*
X176074354Y-99876750D01*
X176038444Y-99865857D01*
X176001100Y-99862179D01*
X175708600Y-99862179D01*
X175708600Y-99639196D01*
X175710136Y-99623600D01*
X175704006Y-99561359D01*
X175685851Y-99501510D01*
X175656369Y-99446353D01*
X175631138Y-99415609D01*
X175616693Y-99398007D01*
X175604575Y-99388062D01*
X175509800Y-99293287D01*
X175509800Y-99282663D01*
X175486024Y-99163132D01*
X175439385Y-99050535D01*
X175371676Y-98949202D01*
X175285498Y-98863024D01*
X175267653Y-98851100D01*
X178925504Y-98851100D01*
X178941100Y-98852636D01*
X178956696Y-98851100D01*
X179003341Y-98846506D01*
X179063190Y-98828351D01*
X179118347Y-98798869D01*
X179166693Y-98759193D01*
X179176642Y-98747070D01*
X179739455Y-98184257D01*
X179830163Y-98202300D01*
X179952037Y-98202300D01*
X180071568Y-98178524D01*
X180184165Y-98131885D01*
X180285498Y-98064176D01*
X180371676Y-97977998D01*
X180439385Y-97876665D01*
X180486024Y-97764068D01*
X180509800Y-97644537D01*
X180509800Y-97522663D01*
X180486024Y-97403132D01*
X180439385Y-97290535D01*
X180371676Y-97189202D01*
X180285498Y-97103024D01*
X180184165Y-97035315D01*
X180071568Y-96988676D01*
X179952037Y-96964900D01*
X179830163Y-96964900D01*
X179710632Y-96988676D01*
X179598035Y-97035315D01*
X179496702Y-97103024D01*
X179410524Y-97189202D01*
X179342815Y-97290535D01*
X179296176Y-97403132D01*
X179272400Y-97522663D01*
X179272400Y-97644537D01*
X179290443Y-97735245D01*
X178809588Y-98216100D01*
X178137653Y-98216100D01*
X178155498Y-98204176D01*
X178241676Y-98117998D01*
X178309385Y-98016665D01*
X178356024Y-97904068D01*
X178379800Y-97784537D01*
X178379800Y-97662663D01*
X178356024Y-97543132D01*
X178309385Y-97430535D01*
X178241676Y-97329202D01*
X178155498Y-97243024D01*
X178098600Y-97205006D01*
X178098600Y-97160021D01*
X178721100Y-97160021D01*
X178758444Y-97156343D01*
X178794354Y-97145450D01*
X178827448Y-97127761D01*
X178856455Y-97103955D01*
X178880261Y-97074948D01*
X178897950Y-97041854D01*
X178908843Y-97005944D01*
X178912521Y-96968600D01*
X178912521Y-95918600D01*
X178908843Y-95881256D01*
X178897950Y-95845346D01*
X178880261Y-95812252D01*
X178856455Y-95783245D01*
X178827448Y-95759439D01*
X178794354Y-95741750D01*
X178758444Y-95730857D01*
X178721100Y-95727179D01*
X178677084Y-95727179D01*
X178711738Y-95692525D01*
X178773976Y-95599381D01*
X178816845Y-95495884D01*
X178838700Y-95386012D01*
X178838700Y-95273988D01*
X178826773Y-95214025D01*
X178851100Y-95216421D01*
X180251100Y-95216421D01*
X180288444Y-95212743D01*
X180324354Y-95201850D01*
X180357448Y-95184161D01*
X180386455Y-95160355D01*
X180410261Y-95131348D01*
X180427950Y-95098254D01*
X180438843Y-95062344D01*
X180442521Y-95025000D01*
X180442521Y-93375000D01*
X180438843Y-93337656D01*
X180427950Y-93301746D01*
X180410261Y-93268652D01*
X180386455Y-93239645D01*
X180357448Y-93215839D01*
X180324354Y-93198150D01*
X180288444Y-93187257D01*
X180251100Y-93183579D01*
X178851100Y-93183579D01*
X178813756Y-93187257D01*
X178799013Y-93191729D01*
X177852521Y-92245238D01*
X177852521Y-91606784D01*
X177857475Y-91611738D01*
X177950619Y-91673976D01*
X178054116Y-91716845D01*
X178163988Y-91738700D01*
X178276012Y-91738700D01*
X178331483Y-91727666D01*
X178569679Y-91965863D01*
X178569679Y-92600000D01*
X178573357Y-92637344D01*
X178584250Y-92673254D01*
X178601939Y-92706348D01*
X178625745Y-92735355D01*
X178654752Y-92759161D01*
X178687846Y-92776850D01*
X178723756Y-92787743D01*
X178761100Y-92791421D01*
X179561100Y-92791421D01*
X179598444Y-92787743D01*
X179634354Y-92776850D01*
X179667448Y-92759161D01*
X179696455Y-92735355D01*
X179720261Y-92706348D01*
X179737950Y-92673254D01*
X179748843Y-92637344D01*
X179752521Y-92600000D01*
X179752521Y-91600000D01*
X179748843Y-91562656D01*
X179737950Y-91526746D01*
X179720261Y-91493652D01*
X179696455Y-91464645D01*
X179667448Y-91440839D01*
X179634354Y-91423150D01*
X179598444Y-91412257D01*
X179567085Y-91409168D01*
X179519950Y-91390273D01*
X179468310Y-91380614D01*
X179415778Y-91381216D01*
X179364373Y-91392054D01*
X179328171Y-91407537D01*
X179326274Y-91408579D01*
X178904762Y-91408579D01*
X178777666Y-91281483D01*
X178788700Y-91226012D01*
X178788700Y-91113988D01*
X178766845Y-91004116D01*
X178723976Y-90900619D01*
X178661738Y-90807475D01*
X178582525Y-90728262D01*
X178489381Y-90666024D01*
X178385884Y-90623155D01*
X178276012Y-90601300D01*
X178163988Y-90601300D01*
X178054116Y-90623155D01*
X177950619Y-90666024D01*
X177857475Y-90728262D01*
X177778262Y-90807475D01*
X177746840Y-90854500D01*
X176554463Y-90854500D01*
X176558028Y-90850935D01*
X176620266Y-90757791D01*
X176663135Y-90654294D01*
X176684990Y-90544422D01*
X176684990Y-90432398D01*
X176663135Y-90322526D01*
X176620266Y-90219029D01*
X176558028Y-90125885D01*
X176478815Y-90046672D01*
X176433790Y-90016587D01*
X176433790Y-88850303D01*
X176464072Y-88820021D01*
X177621100Y-88820021D01*
X177658444Y-88816343D01*
X177694354Y-88805450D01*
X177727448Y-88787761D01*
X177756455Y-88763955D01*
X177780261Y-88734948D01*
X177797950Y-88701854D01*
X177808843Y-88665944D01*
X177812521Y-88628600D01*
X177812521Y-86978600D01*
X177808843Y-86941256D01*
X177797950Y-86905346D01*
X177796292Y-86902244D01*
X177807141Y-86866482D01*
X177811000Y-86827298D01*
X177811000Y-86827296D01*
X177812290Y-86814200D01*
X177811000Y-86801104D01*
X177811000Y-86445021D01*
X177893601Y-86445021D01*
X177893600Y-89008579D01*
X177811100Y-89008579D01*
X177773756Y-89012257D01*
X177737846Y-89023150D01*
X177704752Y-89040839D01*
X177675745Y-89064645D01*
X177651939Y-89093652D01*
X177634250Y-89126746D01*
X177623357Y-89162656D01*
X177619679Y-89200000D01*
X177619679Y-90200000D01*
X177623357Y-90237344D01*
X177634250Y-90273254D01*
X177651939Y-90306348D01*
X177675745Y-90335355D01*
X177704752Y-90359161D01*
X177737846Y-90376850D01*
X177773756Y-90387743D01*
X177811100Y-90391421D01*
X178611100Y-90391421D01*
X178648444Y-90387743D01*
X178684354Y-90376850D01*
X178717448Y-90359161D01*
X178746455Y-90335355D01*
X178770261Y-90306348D01*
X178787950Y-90273254D01*
X178798843Y-90237344D01*
X178802521Y-90200000D01*
X178802521Y-89200000D01*
X178798843Y-89162656D01*
X178787950Y-89126746D01*
X178770261Y-89093652D01*
X178746455Y-89064645D01*
X178717448Y-89040839D01*
X178684354Y-89023150D01*
X178648444Y-89012257D01*
X178611100Y-89008579D01*
X178528600Y-89008579D01*
X178528600Y-86978600D01*
X178629679Y-86978600D01*
X178629679Y-88628600D01*
X178633357Y-88665944D01*
X178644250Y-88701854D01*
X178661939Y-88734948D01*
X178685745Y-88763955D01*
X178714752Y-88787761D01*
X178747846Y-88805450D01*
X178783756Y-88816343D01*
X178821100Y-88820021D01*
X180221100Y-88820021D01*
X180258444Y-88816343D01*
X180294354Y-88805450D01*
X180327448Y-88787761D01*
X180356455Y-88763955D01*
X180380261Y-88734948D01*
X180397950Y-88701854D01*
X180408843Y-88665944D01*
X180412521Y-88628600D01*
X180412521Y-86978600D01*
X180408843Y-86941256D01*
X180397950Y-86905346D01*
X180380261Y-86872252D01*
X180356455Y-86843245D01*
X180327448Y-86819439D01*
X180294354Y-86801750D01*
X180258444Y-86790857D01*
X180221100Y-86787179D01*
X180168600Y-86787179D01*
X180168600Y-86445021D01*
X180251100Y-86445021D01*
X180288444Y-86441343D01*
X180324354Y-86430450D01*
X180357448Y-86412761D01*
X180386455Y-86388955D01*
X180410261Y-86359948D01*
X180427950Y-86326854D01*
X180438843Y-86290944D01*
X180442521Y-86253600D01*
X180442521Y-85453600D01*
X180438843Y-85416256D01*
X180427950Y-85380346D01*
X180410261Y-85347252D01*
X180386455Y-85318245D01*
X180357448Y-85294439D01*
X180324354Y-85276750D01*
X180288444Y-85265857D01*
X180251100Y-85262179D01*
X179451100Y-85262179D01*
X179413756Y-85265857D01*
X179377846Y-85276750D01*
X179344752Y-85294439D01*
X179315745Y-85318245D01*
X179291939Y-85347252D01*
X179274250Y-85380346D01*
X179263357Y-85416256D01*
X179259679Y-85453600D01*
X179259679Y-86253600D01*
X179263357Y-86290944D01*
X179274250Y-86326854D01*
X179291939Y-86359948D01*
X179315745Y-86388955D01*
X179344752Y-86412761D01*
X179377846Y-86430450D01*
X179413756Y-86441343D01*
X179451100Y-86445021D01*
X179533601Y-86445021D01*
X179533600Y-86787179D01*
X178821100Y-86787179D01*
X178783756Y-86790857D01*
X178747846Y-86801750D01*
X178714752Y-86819439D01*
X178685745Y-86843245D01*
X178661939Y-86872252D01*
X178644250Y-86905346D01*
X178633357Y-86941256D01*
X178629679Y-86978600D01*
X178528600Y-86978600D01*
X178528600Y-86445021D01*
X178601100Y-86445021D01*
X178638444Y-86441343D01*
X178674354Y-86430450D01*
X178707448Y-86412761D01*
X178736455Y-86388955D01*
X178760261Y-86359948D01*
X178777950Y-86326854D01*
X178788843Y-86290944D01*
X178792521Y-86253600D01*
X178792521Y-85453600D01*
X178788843Y-85416256D01*
X178777950Y-85380346D01*
X178760261Y-85347252D01*
X178736455Y-85318245D01*
X178707448Y-85294439D01*
X178674354Y-85276750D01*
X178638444Y-85265857D01*
X178601100Y-85262179D01*
X178079167Y-85262179D01*
X178098276Y-85233581D01*
X178141145Y-85130084D01*
X178163000Y-85020212D01*
X178163000Y-84908188D01*
X178141145Y-84798316D01*
X178098276Y-84694819D01*
X178036038Y-84601675D01*
X177964663Y-84530300D01*
X179208004Y-84530300D01*
X179221100Y-84531590D01*
X179234196Y-84530300D01*
X179234198Y-84530300D01*
X179273382Y-84526441D01*
X179323655Y-84511190D01*
X179369987Y-84486426D01*
X179410598Y-84453098D01*
X179418954Y-84442916D01*
X179636849Y-84225021D01*
X180251100Y-84225021D01*
X180288444Y-84221343D01*
X180324354Y-84210450D01*
X180357448Y-84192761D01*
X180386455Y-84168955D01*
X180410261Y-84139948D01*
X180427950Y-84106854D01*
X180438843Y-84070944D01*
X180442521Y-84033600D01*
X180442521Y-83233600D01*
X180438843Y-83196256D01*
X180427950Y-83160346D01*
X180410261Y-83127252D01*
X180386455Y-83098245D01*
X180357448Y-83074439D01*
X180324354Y-83056750D01*
X180288444Y-83045857D01*
X180251100Y-83042179D01*
X179451100Y-83042179D01*
X179413756Y-83045857D01*
X179377846Y-83056750D01*
X179344752Y-83074439D01*
X179315745Y-83098245D01*
X179291939Y-83127252D01*
X179274250Y-83160346D01*
X179263357Y-83196256D01*
X179259679Y-83233600D01*
X179259679Y-83847851D01*
X179110630Y-83996900D01*
X178792521Y-83996900D01*
X178792521Y-83233600D01*
X178788843Y-83196256D01*
X178777950Y-83160346D01*
X178760261Y-83127252D01*
X178736455Y-83098245D01*
X178707448Y-83074439D01*
X178674354Y-83056750D01*
X178638444Y-83045857D01*
X178601100Y-83042179D01*
X177801100Y-83042179D01*
X177763756Y-83045857D01*
X177727846Y-83056750D01*
X177694752Y-83074439D01*
X177665745Y-83098245D01*
X177641939Y-83127252D01*
X177624250Y-83160346D01*
X177613357Y-83196256D01*
X177609679Y-83233600D01*
X177609679Y-83316100D01*
X177502521Y-83316100D01*
X177502521Y-83233600D01*
X177498843Y-83196256D01*
X177487950Y-83160346D01*
X177470261Y-83127252D01*
X177446455Y-83098245D01*
X177417448Y-83074439D01*
X177384354Y-83056750D01*
X177348444Y-83045857D01*
X177311100Y-83042179D01*
X176813313Y-83042179D01*
X176583381Y-82781100D01*
X178775504Y-82781100D01*
X178791100Y-82782636D01*
X178806696Y-82781100D01*
X178853341Y-82776506D01*
X178913190Y-82758351D01*
X178968347Y-82728869D01*
X179016693Y-82689193D01*
X179026642Y-82677070D01*
X179738692Y-81965021D01*
X180281100Y-81965021D01*
X180318444Y-81961343D01*
X180354354Y-81950450D01*
X180387448Y-81932761D01*
X180416455Y-81908955D01*
X180440261Y-81879948D01*
X180457950Y-81846854D01*
X180468843Y-81810944D01*
X180472521Y-81773600D01*
X180472521Y-80973600D01*
X180468843Y-80936256D01*
X180457950Y-80900346D01*
X180440261Y-80867252D01*
X180416455Y-80838245D01*
X180387448Y-80814439D01*
X180354354Y-80796750D01*
X180318444Y-80785857D01*
X180281100Y-80782179D01*
X179481100Y-80782179D01*
X179443756Y-80785857D01*
X179407846Y-80796750D01*
X179374752Y-80814439D01*
X179345745Y-80838245D01*
X179321939Y-80867252D01*
X179304250Y-80900346D01*
X179293357Y-80936256D01*
X179289679Y-80973600D01*
X179289679Y-81516008D01*
X178659588Y-82146100D01*
X174532521Y-82146100D01*
X174532521Y-81671100D01*
X177639679Y-81671100D01*
X177639679Y-81773600D01*
X177643357Y-81810944D01*
X177654250Y-81846854D01*
X177671939Y-81879948D01*
X177695745Y-81908955D01*
X177724752Y-81932761D01*
X177757846Y-81950450D01*
X177793756Y-81961343D01*
X177831100Y-81965021D01*
X178631100Y-81965021D01*
X178668444Y-81961343D01*
X178704354Y-81950450D01*
X178737448Y-81932761D01*
X178766455Y-81908955D01*
X178790261Y-81879948D01*
X178807950Y-81846854D01*
X178818843Y-81810944D01*
X178822521Y-81773600D01*
X178822521Y-80973600D01*
X178818843Y-80936256D01*
X178807950Y-80900346D01*
X178790261Y-80867252D01*
X178766455Y-80838245D01*
X178737448Y-80814439D01*
X178704354Y-80796750D01*
X178668444Y-80785857D01*
X178631100Y-80782179D01*
X177831100Y-80782179D01*
X177793756Y-80785857D01*
X177757846Y-80796750D01*
X177724752Y-80814439D01*
X177695745Y-80838245D01*
X177671939Y-80867252D01*
X177654250Y-80900346D01*
X177643357Y-80936256D01*
X177639679Y-80973600D01*
X177639679Y-81036100D01*
X174532521Y-81036100D01*
X174532521Y-80528600D01*
X174528843Y-80491256D01*
X174517950Y-80455346D01*
X174500261Y-80422252D01*
X174476455Y-80393245D01*
X174447448Y-80369439D01*
X174414354Y-80351750D01*
X174378444Y-80340857D01*
X174341100Y-80337179D01*
X172941100Y-80337179D01*
X172903756Y-80340857D01*
X172867846Y-80351750D01*
X172834752Y-80369439D01*
X172805745Y-80393245D01*
X172781939Y-80422252D01*
X172764250Y-80455346D01*
X172753357Y-80491256D01*
X172749679Y-80528600D01*
X172749679Y-82146100D01*
X168953813Y-82146100D01*
X168866157Y-82058445D01*
X168884200Y-81967737D01*
X168884200Y-81845863D01*
X168860424Y-81726332D01*
X168813785Y-81613735D01*
X168746076Y-81512402D01*
X168659898Y-81426224D01*
X168558565Y-81358515D01*
X168445968Y-81311876D01*
X168326437Y-81288100D01*
X168204563Y-81288100D01*
X168085032Y-81311876D01*
X167972435Y-81358515D01*
X167871102Y-81426224D01*
X167784924Y-81512402D01*
X167717215Y-81613735D01*
X167670576Y-81726332D01*
X167646800Y-81845863D01*
X167646800Y-81967737D01*
X167670576Y-82087268D01*
X167717215Y-82199865D01*
X167784924Y-82301198D01*
X167871102Y-82387376D01*
X167972435Y-82455085D01*
X168085032Y-82501724D01*
X168204563Y-82525500D01*
X168326437Y-82525500D01*
X168417145Y-82507457D01*
X168586763Y-82677076D01*
X168596707Y-82689193D01*
X168645053Y-82728869D01*
X168700210Y-82758351D01*
X168760059Y-82776506D01*
X168806704Y-82781100D01*
X168806706Y-82781100D01*
X168822299Y-82782636D01*
X168837892Y-82781100D01*
X170129471Y-82781100D01*
X170123357Y-82801256D01*
X170119679Y-82838600D01*
X170119679Y-83269300D01*
X165059742Y-83269300D01*
X165044149Y-83267764D01*
X165028556Y-83269300D01*
X165028554Y-83269300D01*
X164981909Y-83273894D01*
X164922060Y-83292049D01*
X164866903Y-83321531D01*
X164818557Y-83361207D01*
X164808613Y-83373324D01*
X163874025Y-84307913D01*
X163861908Y-84317857D01*
X163822232Y-84366203D01*
X163816913Y-84376155D01*
X163792749Y-84421361D01*
X163774594Y-84481210D01*
X163768464Y-84543450D01*
X115724201Y-84543450D01*
X115724201Y-82317588D01*
X159431300Y-82317588D01*
X159431300Y-82429612D01*
X159453155Y-82539484D01*
X159496024Y-82642981D01*
X159558262Y-82736125D01*
X159637475Y-82815338D01*
X159730619Y-82877576D01*
X159834116Y-82920445D01*
X159943988Y-82942300D01*
X160056012Y-82942300D01*
X160165884Y-82920445D01*
X160269381Y-82877576D01*
X160362525Y-82815338D01*
X160441738Y-82736125D01*
X160475137Y-82686141D01*
X163180846Y-82686141D01*
X163212268Y-82733166D01*
X163291481Y-82812379D01*
X163384625Y-82874617D01*
X163488122Y-82917486D01*
X163597994Y-82939341D01*
X163710018Y-82939341D01*
X163819890Y-82917486D01*
X163923387Y-82874617D01*
X164016531Y-82812379D01*
X164095744Y-82733166D01*
X164157982Y-82640022D01*
X164200851Y-82536525D01*
X164222706Y-82426653D01*
X164222706Y-82314629D01*
X164200851Y-82204757D01*
X164157982Y-82101260D01*
X164095744Y-82008116D01*
X164016531Y-81928903D01*
X163923387Y-81866665D01*
X163819890Y-81823796D01*
X163710018Y-81801941D01*
X163597994Y-81801941D01*
X163488122Y-81823796D01*
X163384625Y-81866665D01*
X163291481Y-81928903D01*
X163212268Y-82008116D01*
X163180846Y-82055141D01*
X160471183Y-82055141D01*
X160441738Y-82011075D01*
X160362525Y-81931862D01*
X160269381Y-81869624D01*
X160165884Y-81826755D01*
X160056012Y-81804900D01*
X159943988Y-81804900D01*
X159834116Y-81826755D01*
X159730619Y-81869624D01*
X159637475Y-81931862D01*
X159558262Y-82011075D01*
X159496024Y-82104219D01*
X159453155Y-82207716D01*
X159431300Y-82317588D01*
X115724201Y-82317588D01*
X115724201Y-79566701D01*
X181278000Y-79566701D01*
X181277999Y-128977463D01*
%TA.AperFunction,Conductor*%
D28*
G36*
X181277999Y-128977463D02*
G01*
X179814964Y-130440499D01*
X144927800Y-130440499D01*
X144927800Y-123770300D01*
X146007300Y-123770300D01*
X146044465Y-123766640D01*
X146080201Y-123755799D01*
X146113136Y-123738195D01*
X146142004Y-123714504D01*
X146165695Y-123685636D01*
X146183299Y-123652701D01*
X146194140Y-123616965D01*
X146197800Y-123579800D01*
X146197800Y-123503600D01*
X175249679Y-123503600D01*
X175249679Y-128803600D01*
X175253357Y-128840944D01*
X175264250Y-128876854D01*
X175281939Y-128909948D01*
X175305745Y-128938955D01*
X175334752Y-128962761D01*
X175367846Y-128980450D01*
X175403756Y-128991343D01*
X175441100Y-128995021D01*
X177441100Y-128995021D01*
X177478444Y-128991343D01*
X177514354Y-128980450D01*
X177547448Y-128962761D01*
X177576455Y-128938955D01*
X177600261Y-128909948D01*
X177617950Y-128876854D01*
X177628843Y-128840944D01*
X177632521Y-128803600D01*
X177632521Y-123503600D01*
X177789679Y-123503600D01*
X177789679Y-128803600D01*
X177793357Y-128840944D01*
X177804250Y-128876854D01*
X177821939Y-128909948D01*
X177845745Y-128938955D01*
X177874752Y-128962761D01*
X177907846Y-128980450D01*
X177943756Y-128991343D01*
X177981100Y-128995021D01*
X179981100Y-128995021D01*
X180018444Y-128991343D01*
X180054354Y-128980450D01*
X180087448Y-128962761D01*
X180116455Y-128938955D01*
X180140261Y-128909948D01*
X180157950Y-128876854D01*
X180168843Y-128840944D01*
X180172521Y-128803600D01*
X180172521Y-123503600D01*
X180168843Y-123466256D01*
X180157950Y-123430346D01*
X180140261Y-123397252D01*
X180116455Y-123368245D01*
X180087448Y-123344439D01*
X180054354Y-123326750D01*
X180018444Y-123315857D01*
X179981100Y-123312179D01*
X179368600Y-123312179D01*
X179368600Y-122985558D01*
X179445498Y-122934176D01*
X179531676Y-122847998D01*
X179599385Y-122746665D01*
X179646024Y-122634068D01*
X179669800Y-122514537D01*
X179669800Y-122392663D01*
X179646024Y-122273132D01*
X179599385Y-122160535D01*
X179531676Y-122059202D01*
X179445498Y-121973024D01*
X179344165Y-121905315D01*
X179231568Y-121858676D01*
X179112037Y-121834900D01*
X178990163Y-121834900D01*
X178870632Y-121858676D01*
X178758035Y-121905315D01*
X178656702Y-121973024D01*
X178570524Y-122059202D01*
X178502815Y-122160535D01*
X178456176Y-122273132D01*
X178432400Y-122392663D01*
X178432400Y-122514537D01*
X178456176Y-122634068D01*
X178502815Y-122746665D01*
X178570524Y-122847998D01*
X178656702Y-122934176D01*
X178733600Y-122985558D01*
X178733600Y-123312179D01*
X177981100Y-123312179D01*
X177943756Y-123315857D01*
X177907846Y-123326750D01*
X177874752Y-123344439D01*
X177845745Y-123368245D01*
X177821939Y-123397252D01*
X177804250Y-123430346D01*
X177793357Y-123466256D01*
X177789679Y-123503600D01*
X177632521Y-123503600D01*
X177628843Y-123466256D01*
X177617950Y-123430346D01*
X177600261Y-123397252D01*
X177576455Y-123368245D01*
X177547448Y-123344439D01*
X177514354Y-123326750D01*
X177478444Y-123315857D01*
X177441100Y-123312179D01*
X176838600Y-123312179D01*
X176838600Y-120845558D01*
X176915498Y-120794176D01*
X177001676Y-120707998D01*
X177069385Y-120606665D01*
X177116024Y-120494068D01*
X177139800Y-120374537D01*
X177139800Y-120252663D01*
X177116024Y-120133132D01*
X177069385Y-120020535D01*
X177001676Y-119919202D01*
X176915498Y-119833024D01*
X176814165Y-119765315D01*
X176701568Y-119718676D01*
X176582037Y-119694900D01*
X176460163Y-119694900D01*
X176340632Y-119718676D01*
X176228035Y-119765315D01*
X176126702Y-119833024D01*
X176040524Y-119919202D01*
X175972815Y-120020535D01*
X175926176Y-120133132D01*
X175902400Y-120252663D01*
X175902400Y-120374537D01*
X175926176Y-120494068D01*
X175972815Y-120606665D01*
X176040524Y-120707998D01*
X176126702Y-120794176D01*
X176203600Y-120845558D01*
X176203601Y-123312179D01*
X175441100Y-123312179D01*
X175403756Y-123315857D01*
X175367846Y-123326750D01*
X175334752Y-123344439D01*
X175305745Y-123368245D01*
X175281939Y-123397252D01*
X175264250Y-123430346D01*
X175253357Y-123466256D01*
X175249679Y-123503600D01*
X146197800Y-123503600D01*
X146197800Y-115768114D01*
X154565500Y-115768114D01*
X154565501Y-117159087D01*
X154577720Y-117283151D01*
X154626010Y-117442340D01*
X154704428Y-117589049D01*
X154809960Y-117717641D01*
X154938552Y-117823173D01*
X155085261Y-117901591D01*
X155244450Y-117949881D01*
X155410000Y-117966186D01*
X155575551Y-117949881D01*
X155734740Y-117901591D01*
X155881449Y-117823173D01*
X156010041Y-117717641D01*
X156115573Y-117589049D01*
X156193991Y-117442340D01*
X156242281Y-117283151D01*
X156254500Y-117159087D01*
X156254500Y-115768114D01*
X166476600Y-115768114D01*
X166476601Y-117159087D01*
X166488820Y-117283151D01*
X166537110Y-117442340D01*
X166615528Y-117589049D01*
X166721060Y-117717641D01*
X166849652Y-117823173D01*
X166996361Y-117901591D01*
X167155550Y-117949881D01*
X167321100Y-117966186D01*
X167486651Y-117949881D01*
X167645840Y-117901591D01*
X167792549Y-117823173D01*
X167921141Y-117717641D01*
X168026673Y-117589049D01*
X168105091Y-117442340D01*
X168153381Y-117283151D01*
X168165600Y-117159087D01*
X168165600Y-115768113D01*
X168153381Y-115644049D01*
X168105091Y-115484860D01*
X168026673Y-115338151D01*
X167921141Y-115209559D01*
X167792548Y-115104027D01*
X167645839Y-115025609D01*
X167486650Y-114977319D01*
X167321100Y-114961014D01*
X167155549Y-114977319D01*
X166996360Y-115025609D01*
X166849651Y-115104027D01*
X166721059Y-115209559D01*
X166615527Y-115338152D01*
X166537109Y-115484861D01*
X166488819Y-115644050D01*
X166476600Y-115768114D01*
X156254500Y-115768114D01*
X156254500Y-115768113D01*
X156242281Y-115644049D01*
X156193991Y-115484860D01*
X156115573Y-115338151D01*
X156010041Y-115209559D01*
X155881448Y-115104027D01*
X155734739Y-115025609D01*
X155575550Y-114977319D01*
X155410000Y-114961014D01*
X155244449Y-114977319D01*
X155085260Y-115025609D01*
X154938551Y-115104027D01*
X154809959Y-115209559D01*
X154704427Y-115338152D01*
X154626009Y-115484861D01*
X154577719Y-115644050D01*
X154565500Y-115768114D01*
X146197800Y-115768114D01*
X146197800Y-112999063D01*
X171721300Y-112999063D01*
X171721300Y-113120937D01*
X171745076Y-113240468D01*
X171791715Y-113353065D01*
X171859424Y-113454398D01*
X171945602Y-113540576D01*
X172046935Y-113608285D01*
X172159532Y-113654924D01*
X172279063Y-113678700D01*
X172400937Y-113678700D01*
X172520468Y-113654924D01*
X172633065Y-113608285D01*
X172734398Y-113540576D01*
X172820576Y-113454398D01*
X172873294Y-113375500D01*
X173043579Y-113375500D01*
X173043579Y-113670000D01*
X173047257Y-113707344D01*
X173058150Y-113743254D01*
X173075839Y-113776348D01*
X173099645Y-113805355D01*
X173128652Y-113829161D01*
X173161746Y-113846850D01*
X173197656Y-113857743D01*
X173235000Y-113861421D01*
X174885000Y-113861421D01*
X174922344Y-113857743D01*
X174958254Y-113846850D01*
X174991348Y-113829161D01*
X175020355Y-113805355D01*
X175044161Y-113776348D01*
X175061850Y-113743254D01*
X175072743Y-113707344D01*
X175076421Y-113670000D01*
X175076421Y-112899100D01*
X177803065Y-112899100D01*
X177777846Y-112906750D01*
X177744752Y-112924439D01*
X177715745Y-112948245D01*
X177691939Y-112977252D01*
X177674250Y-113010346D01*
X177663357Y-113046256D01*
X177659679Y-113083600D01*
X177659679Y-113878837D01*
X177094017Y-114444500D01*
X176533294Y-114444500D01*
X176480576Y-114365602D01*
X176394398Y-114279424D01*
X176293065Y-114211715D01*
X176180468Y-114165076D01*
X176060937Y-114141300D01*
X175939063Y-114141300D01*
X175819532Y-114165076D01*
X175706935Y-114211715D01*
X175605602Y-114279424D01*
X175519424Y-114365602D01*
X175451715Y-114466935D01*
X175405076Y-114579532D01*
X175381300Y-114699063D01*
X175381300Y-114820937D01*
X175405076Y-114940468D01*
X175451715Y-115053065D01*
X175519424Y-115154398D01*
X175605602Y-115240576D01*
X175706935Y-115308285D01*
X175819532Y-115354924D01*
X175939063Y-115378700D01*
X176060937Y-115378700D01*
X176180468Y-115354924D01*
X176293065Y-115308285D01*
X176394398Y-115240576D01*
X176480576Y-115154398D01*
X176533294Y-115075500D01*
X177209218Y-115075500D01*
X177224700Y-115077025D01*
X177240182Y-115075500D01*
X177240193Y-115075500D01*
X177286549Y-115070934D01*
X177346021Y-115052894D01*
X177400830Y-115023597D01*
X177448871Y-114984171D01*
X177458751Y-114972132D01*
X177955863Y-114475021D01*
X178751100Y-114475021D01*
X178788444Y-114471343D01*
X178824354Y-114460450D01*
X178857448Y-114442761D01*
X178886455Y-114418955D01*
X178910261Y-114389948D01*
X178927950Y-114356854D01*
X178938843Y-114320944D01*
X178942521Y-114283600D01*
X178942521Y-113274033D01*
X179159679Y-113491192D01*
X179159679Y-114283600D01*
X179163357Y-114320944D01*
X179174250Y-114356854D01*
X179191939Y-114389948D01*
X179215745Y-114418955D01*
X179244752Y-114442761D01*
X179277846Y-114460450D01*
X179313756Y-114471343D01*
X179351100Y-114475021D01*
X180251100Y-114475021D01*
X180288444Y-114471343D01*
X180324354Y-114460450D01*
X180357448Y-114442761D01*
X180386455Y-114418955D01*
X180410261Y-114389948D01*
X180427950Y-114356854D01*
X180438843Y-114320944D01*
X180442521Y-114283600D01*
X180442521Y-113083600D01*
X180438843Y-113046256D01*
X180427950Y-113010346D01*
X180410261Y-112977252D01*
X180386455Y-112948245D01*
X180357448Y-112924439D01*
X180324354Y-112906750D01*
X180288444Y-112895857D01*
X180251100Y-112892179D01*
X179458691Y-112892179D01*
X178914578Y-112348066D01*
X178878346Y-112318332D01*
X178823189Y-112288849D01*
X178763340Y-112270694D01*
X178701100Y-112264564D01*
X178665198Y-112268100D01*
X175076234Y-112268100D01*
X175072743Y-112232656D01*
X175061850Y-112196746D01*
X175044161Y-112163652D01*
X175020355Y-112134645D01*
X174991348Y-112110839D01*
X174958254Y-112093150D01*
X174922344Y-112082257D01*
X174885000Y-112078579D01*
X173235000Y-112078579D01*
X173197656Y-112082257D01*
X173161746Y-112093150D01*
X173128652Y-112110839D01*
X173099645Y-112134645D01*
X173075839Y-112163652D01*
X173058150Y-112196746D01*
X173047257Y-112232656D01*
X173043579Y-112270000D01*
X173043579Y-112744500D01*
X172873294Y-112744500D01*
X172820576Y-112665602D01*
X172734398Y-112579424D01*
X172633065Y-112511715D01*
X172520468Y-112465076D01*
X172400937Y-112441300D01*
X172279063Y-112441300D01*
X172159532Y-112465076D01*
X172046935Y-112511715D01*
X171945602Y-112579424D01*
X171859424Y-112665602D01*
X171791715Y-112766935D01*
X171745076Y-112879532D01*
X171721300Y-112999063D01*
X146197800Y-112999063D01*
X146197800Y-109083600D01*
X177659679Y-109083600D01*
X177659679Y-110283600D01*
X177663357Y-110320944D01*
X177674250Y-110356854D01*
X177691939Y-110389948D01*
X177715745Y-110418955D01*
X177744752Y-110442761D01*
X177777846Y-110460450D01*
X177813756Y-110471343D01*
X177851100Y-110475021D01*
X178751100Y-110475021D01*
X178788444Y-110471343D01*
X178824354Y-110460450D01*
X178857448Y-110442761D01*
X178886455Y-110418955D01*
X178910261Y-110389948D01*
X178927950Y-110356854D01*
X178938843Y-110320944D01*
X178942521Y-110283600D01*
X178942521Y-109083600D01*
X179159679Y-109083600D01*
X179159679Y-110283600D01*
X179163357Y-110320944D01*
X179174250Y-110356854D01*
X179191939Y-110389948D01*
X179215745Y-110418955D01*
X179244752Y-110442761D01*
X179277846Y-110460450D01*
X179313756Y-110471343D01*
X179351100Y-110475021D01*
X180251100Y-110475021D01*
X180288444Y-110471343D01*
X180324354Y-110460450D01*
X180357448Y-110442761D01*
X180386455Y-110418955D01*
X180410261Y-110389948D01*
X180427950Y-110356854D01*
X180438843Y-110320944D01*
X180442521Y-110283600D01*
X180442521Y-109083600D01*
X180438843Y-109046256D01*
X180427950Y-109010346D01*
X180410261Y-108977252D01*
X180386455Y-108948245D01*
X180357448Y-108924439D01*
X180324354Y-108906750D01*
X180288444Y-108895857D01*
X180251100Y-108892179D01*
X179351100Y-108892179D01*
X179313756Y-108895857D01*
X179277846Y-108906750D01*
X179244752Y-108924439D01*
X179215745Y-108948245D01*
X179191939Y-108977252D01*
X179174250Y-109010346D01*
X179163357Y-109046256D01*
X179159679Y-109083600D01*
X178942521Y-109083600D01*
X178938843Y-109046256D01*
X178927950Y-109010346D01*
X178910261Y-108977252D01*
X178886455Y-108948245D01*
X178857448Y-108924439D01*
X178824354Y-108906750D01*
X178788444Y-108895857D01*
X178751100Y-108892179D01*
X177851100Y-108892179D01*
X177813756Y-108895857D01*
X177777846Y-108906750D01*
X177744752Y-108924439D01*
X177715745Y-108948245D01*
X177691939Y-108977252D01*
X177674250Y-109010346D01*
X177663357Y-109046256D01*
X177659679Y-109083600D01*
X146197800Y-109083600D01*
X146197800Y-102122663D01*
X153212400Y-102122663D01*
X153212400Y-102244537D01*
X153236176Y-102364068D01*
X153282815Y-102476665D01*
X153350524Y-102577998D01*
X153436702Y-102664176D01*
X153513601Y-102715558D01*
X153513601Y-103004795D01*
X153512064Y-103020400D01*
X153518194Y-103082640D01*
X153536349Y-103142489D01*
X153550073Y-103168164D01*
X153565832Y-103197647D01*
X153605508Y-103245993D01*
X153617625Y-103255937D01*
X154342147Y-103980460D01*
X154332400Y-104029463D01*
X154332400Y-104151337D01*
X154356176Y-104270868D01*
X154402815Y-104383465D01*
X154470524Y-104484798D01*
X154556702Y-104570976D01*
X154658035Y-104638685D01*
X154770632Y-104685324D01*
X154890163Y-104709100D01*
X155012037Y-104709100D01*
X155131568Y-104685324D01*
X155244165Y-104638685D01*
X155345498Y-104570976D01*
X155431676Y-104484798D01*
X155499385Y-104383465D01*
X155546024Y-104270868D01*
X155569800Y-104151337D01*
X155569800Y-104029463D01*
X155546024Y-103909932D01*
X155499385Y-103797335D01*
X155431676Y-103696002D01*
X155345498Y-103609824D01*
X155244165Y-103542115D01*
X155131568Y-103495476D01*
X155012037Y-103471700D01*
X154890163Y-103471700D01*
X154770632Y-103495476D01*
X154759712Y-103499999D01*
X154148600Y-102888888D01*
X154148600Y-102715558D01*
X154225498Y-102664176D01*
X154311676Y-102577998D01*
X154379385Y-102476665D01*
X154426024Y-102364068D01*
X154449800Y-102244537D01*
X154449800Y-102122663D01*
X154440491Y-102075860D01*
X157541800Y-102075860D01*
X157541800Y-102197734D01*
X157565576Y-102317265D01*
X157612215Y-102429862D01*
X157679924Y-102531195D01*
X157766102Y-102617373D01*
X157843000Y-102668755D01*
X157843001Y-103958724D01*
X157776702Y-104003024D01*
X157690524Y-104089202D01*
X157622815Y-104190535D01*
X157576176Y-104303132D01*
X157552400Y-104422663D01*
X157552400Y-104544537D01*
X157576176Y-104664068D01*
X157622815Y-104776665D01*
X157690524Y-104877998D01*
X157776702Y-104964176D01*
X157878035Y-105031885D01*
X157990632Y-105078524D01*
X158110163Y-105102300D01*
X158232037Y-105102300D01*
X158351568Y-105078524D01*
X158464165Y-105031885D01*
X158565498Y-104964176D01*
X158651676Y-104877998D01*
X158719385Y-104776665D01*
X158766024Y-104664068D01*
X158789800Y-104544537D01*
X158789800Y-104422663D01*
X158766024Y-104303132D01*
X158719385Y-104190535D01*
X158651676Y-104089202D01*
X158565498Y-104003024D01*
X158478000Y-103944559D01*
X158478000Y-102668755D01*
X158554898Y-102617373D01*
X158641076Y-102531195D01*
X158708785Y-102429862D01*
X158755424Y-102317265D01*
X158779200Y-102197734D01*
X158779200Y-102075860D01*
X158755424Y-101956329D01*
X158708785Y-101843732D01*
X158641076Y-101742399D01*
X158554898Y-101656221D01*
X158453565Y-101588512D01*
X158340968Y-101541873D01*
X158221437Y-101518097D01*
X158099563Y-101518097D01*
X157980032Y-101541873D01*
X157867435Y-101588512D01*
X157766102Y-101656221D01*
X157679924Y-101742399D01*
X157612215Y-101843732D01*
X157565576Y-101956329D01*
X157541800Y-102075860D01*
X154440491Y-102075860D01*
X154426024Y-102003132D01*
X154379385Y-101890535D01*
X154311676Y-101789202D01*
X154225498Y-101703024D01*
X154124165Y-101635315D01*
X154011568Y-101588676D01*
X153892037Y-101564900D01*
X153770163Y-101564900D01*
X153650632Y-101588676D01*
X153538035Y-101635315D01*
X153436702Y-101703024D01*
X153350524Y-101789202D01*
X153282815Y-101890535D01*
X153236176Y-102003132D01*
X153212400Y-102122663D01*
X146197800Y-102122663D01*
X146197800Y-99227400D01*
X146194140Y-99190235D01*
X146183299Y-99154499D01*
X146165695Y-99121564D01*
X146142004Y-99092696D01*
X146113136Y-99069005D01*
X146080201Y-99051401D01*
X146044465Y-99040560D01*
X146007300Y-99036900D01*
X131474900Y-99036900D01*
X131437735Y-99040560D01*
X131401999Y-99051401D01*
X131391100Y-99057227D01*
X131380201Y-99051401D01*
X131344465Y-99040560D01*
X131307300Y-99036900D01*
X115724201Y-99036900D01*
X115724201Y-97865863D01*
X147202400Y-97865863D01*
X147202400Y-97987737D01*
X147226176Y-98107268D01*
X147272815Y-98219865D01*
X147340524Y-98321198D01*
X147426702Y-98407376D01*
X147528035Y-98475085D01*
X147640632Y-98521724D01*
X147760163Y-98545500D01*
X147882037Y-98545500D01*
X147972745Y-98527457D01*
X149546833Y-100101546D01*
X149546176Y-100103132D01*
X149522400Y-100222663D01*
X149522400Y-100344537D01*
X149546176Y-100464068D01*
X149592815Y-100576665D01*
X149660524Y-100677998D01*
X149746702Y-100764176D01*
X149848035Y-100831885D01*
X149960632Y-100878524D01*
X150080163Y-100902300D01*
X150202037Y-100902300D01*
X150321568Y-100878524D01*
X150434165Y-100831885D01*
X150535498Y-100764176D01*
X150621676Y-100677998D01*
X150689385Y-100576665D01*
X150736024Y-100464068D01*
X150759800Y-100344537D01*
X150759800Y-100222663D01*
X150736024Y-100103132D01*
X150721913Y-100069063D01*
X165611300Y-100069063D01*
X165611300Y-100190937D01*
X165635076Y-100310468D01*
X165681715Y-100423065D01*
X165749424Y-100524398D01*
X165835602Y-100610576D01*
X165936935Y-100678285D01*
X166049532Y-100724924D01*
X166169063Y-100748700D01*
X166290937Y-100748700D01*
X166410468Y-100724924D01*
X166523065Y-100678285D01*
X166624398Y-100610576D01*
X166710576Y-100524398D01*
X166763294Y-100445500D01*
X168216840Y-100445500D01*
X168248262Y-100492525D01*
X168327475Y-100571738D01*
X168420619Y-100633976D01*
X168524116Y-100676845D01*
X168633988Y-100698700D01*
X168746012Y-100698700D01*
X168855884Y-100676845D01*
X168959381Y-100633976D01*
X169052525Y-100571738D01*
X169131738Y-100492525D01*
X169193976Y-100399381D01*
X169236845Y-100295884D01*
X169258700Y-100186012D01*
X169258700Y-100073988D01*
X169236845Y-99964116D01*
X169193976Y-99860619D01*
X169131738Y-99767475D01*
X169052525Y-99688262D01*
X168959381Y-99626024D01*
X168855884Y-99583155D01*
X168746012Y-99561300D01*
X168633988Y-99561300D01*
X168524116Y-99583155D01*
X168420619Y-99626024D01*
X168327475Y-99688262D01*
X168248262Y-99767475D01*
X168216840Y-99814500D01*
X166763294Y-99814500D01*
X166710576Y-99735602D01*
X166624398Y-99649424D01*
X166523065Y-99581715D01*
X166410468Y-99535076D01*
X166290937Y-99511300D01*
X166169063Y-99511300D01*
X166049532Y-99535076D01*
X165936935Y-99581715D01*
X165835602Y-99649424D01*
X165749424Y-99735602D01*
X165681715Y-99836935D01*
X165635076Y-99949532D01*
X165611300Y-100069063D01*
X150721913Y-100069063D01*
X150689385Y-99990535D01*
X150621676Y-99889202D01*
X150535498Y-99803024D01*
X150434165Y-99735315D01*
X150321568Y-99688676D01*
X150202037Y-99664900D01*
X150080163Y-99664900D01*
X150020150Y-99676837D01*
X148421757Y-98078445D01*
X148439800Y-97987737D01*
X148439800Y-97865863D01*
X148416024Y-97746332D01*
X148369385Y-97633735D01*
X148301676Y-97532402D01*
X148215498Y-97446224D01*
X148114165Y-97378515D01*
X148001568Y-97331876D01*
X147882037Y-97308100D01*
X147760163Y-97308100D01*
X147640632Y-97331876D01*
X147528035Y-97378515D01*
X147426702Y-97446224D01*
X147340524Y-97532402D01*
X147272815Y-97633735D01*
X147226176Y-97746332D01*
X147202400Y-97865863D01*
X115724201Y-97865863D01*
X115724201Y-95302663D01*
X164432400Y-95302663D01*
X164432400Y-95424537D01*
X164456176Y-95544068D01*
X164502815Y-95656665D01*
X164570524Y-95757998D01*
X164656702Y-95844176D01*
X164758035Y-95911885D01*
X164870632Y-95958524D01*
X164990163Y-95982300D01*
X165112037Y-95982300D01*
X165231568Y-95958524D01*
X165344165Y-95911885D01*
X165445498Y-95844176D01*
X165531676Y-95757998D01*
X165583058Y-95681100D01*
X166822460Y-95681100D01*
X166880524Y-95767998D01*
X166966702Y-95854176D01*
X167068035Y-95921885D01*
X167180632Y-95968524D01*
X167300163Y-95992300D01*
X167422037Y-95992300D01*
X167541568Y-95968524D01*
X167654165Y-95921885D01*
X167755498Y-95854176D01*
X167841676Y-95767998D01*
X167909385Y-95666665D01*
X167956024Y-95554068D01*
X167979800Y-95434537D01*
X167979800Y-95312663D01*
X167956024Y-95193132D01*
X167909385Y-95080535D01*
X167841676Y-94979202D01*
X167755498Y-94893024D01*
X167654165Y-94825315D01*
X167541568Y-94778676D01*
X167422037Y-94754900D01*
X167300163Y-94754900D01*
X167180632Y-94778676D01*
X167068035Y-94825315D01*
X166966702Y-94893024D01*
X166880524Y-94979202D01*
X166835824Y-95046100D01*
X165583058Y-95046100D01*
X165531676Y-94969202D01*
X165445498Y-94883024D01*
X165344165Y-94815315D01*
X165231568Y-94768676D01*
X165112037Y-94744900D01*
X164990163Y-94744900D01*
X164870632Y-94768676D01*
X164758035Y-94815315D01*
X164656702Y-94883024D01*
X164570524Y-94969202D01*
X164502815Y-95070535D01*
X164456176Y-95183132D01*
X164432400Y-95302663D01*
X115724201Y-95302663D01*
X115724201Y-84543450D01*
X163768464Y-84543450D01*
X163770001Y-84559055D01*
X163770000Y-85983392D01*
X163768464Y-85998988D01*
X163770000Y-86014583D01*
X163774594Y-86061228D01*
X163792749Y-86121077D01*
X163822231Y-86176234D01*
X163861907Y-86224581D01*
X163874030Y-86234530D01*
X170303688Y-92664188D01*
X170273724Y-92694152D01*
X170206015Y-92795485D01*
X170159376Y-92908082D01*
X170135600Y-93027613D01*
X170135600Y-93149487D01*
X170159376Y-93269018D01*
X170206015Y-93381615D01*
X170273724Y-93482948D01*
X170359902Y-93569126D01*
X170461235Y-93636835D01*
X170573832Y-93683474D01*
X170693363Y-93707250D01*
X170815237Y-93707250D01*
X170934768Y-93683474D01*
X171047365Y-93636835D01*
X171148698Y-93569126D01*
X171234876Y-93482948D01*
X171302585Y-93381615D01*
X171349224Y-93269018D01*
X171373000Y-93149487D01*
X171373000Y-93027613D01*
X171349224Y-92908082D01*
X171302585Y-92795485D01*
X171234876Y-92694152D01*
X171148698Y-92607974D01*
X171047365Y-92540265D01*
X171047174Y-92540186D01*
X171019569Y-92488541D01*
X171004230Y-92469850D01*
X170979893Y-92440195D01*
X170967776Y-92430251D01*
X164405000Y-85867476D01*
X164405000Y-85312601D01*
X164471775Y-85379376D01*
X164564919Y-85441614D01*
X164668416Y-85484483D01*
X164778288Y-85506338D01*
X164890312Y-85506338D01*
X165000184Y-85484483D01*
X165103681Y-85441614D01*
X165196825Y-85379376D01*
X165276038Y-85300163D01*
X165338276Y-85207019D01*
X165339386Y-85204338D01*
X165637168Y-85204338D01*
X172369679Y-91936850D01*
X172369679Y-92600000D01*
X172373357Y-92637344D01*
X172384250Y-92673254D01*
X172401939Y-92706348D01*
X172425745Y-92735355D01*
X172454752Y-92759161D01*
X172487846Y-92776850D01*
X172523756Y-92787743D01*
X172561100Y-92791421D01*
X172645600Y-92791421D01*
X172645601Y-93183579D01*
X172021100Y-93183579D01*
X171983756Y-93187257D01*
X171947846Y-93198150D01*
X171914752Y-93215839D01*
X171885745Y-93239645D01*
X171861939Y-93268652D01*
X171844250Y-93301746D01*
X171833357Y-93337656D01*
X171829679Y-93375000D01*
X171829679Y-95025000D01*
X171833357Y-95062344D01*
X171844250Y-95098254D01*
X171861939Y-95131348D01*
X171885745Y-95160355D01*
X171914752Y-95184161D01*
X171947846Y-95201850D01*
X171983756Y-95212743D01*
X172021100Y-95216421D01*
X173421100Y-95216421D01*
X173458444Y-95212743D01*
X173494354Y-95201850D01*
X173527448Y-95184161D01*
X173556455Y-95160355D01*
X173580261Y-95131348D01*
X173597950Y-95098254D01*
X173608843Y-95062344D01*
X173612521Y-95025000D01*
X173612521Y-93375000D01*
X173608843Y-93337656D01*
X173597950Y-93301746D01*
X173580261Y-93268652D01*
X173556455Y-93239645D01*
X173527448Y-93215839D01*
X173494354Y-93198150D01*
X173458444Y-93187257D01*
X173421100Y-93183579D01*
X173276600Y-93183579D01*
X173276600Y-92791421D01*
X173361100Y-92791421D01*
X173398444Y-92787743D01*
X173434354Y-92776850D01*
X173467448Y-92759161D01*
X173496455Y-92735355D01*
X173520261Y-92706348D01*
X173537950Y-92673254D01*
X173548843Y-92637344D01*
X173552521Y-92600000D01*
X173552521Y-92589691D01*
X174132150Y-93169321D01*
X174140502Y-93179498D01*
X174181113Y-93212826D01*
X174227445Y-93237590D01*
X174277718Y-93252841D01*
X174316902Y-93256700D01*
X174316904Y-93256700D01*
X174330000Y-93257990D01*
X174343096Y-93256700D01*
X174471748Y-93256700D01*
X174461939Y-93268652D01*
X174444250Y-93301746D01*
X174433357Y-93337656D01*
X174429679Y-93375000D01*
X174429679Y-95025000D01*
X174433357Y-95062344D01*
X174444250Y-95098254D01*
X174461939Y-95131348D01*
X174485745Y-95160355D01*
X174514752Y-95184161D01*
X174547846Y-95201850D01*
X174583756Y-95212743D01*
X174621100Y-95216421D01*
X176021100Y-95216421D01*
X176058444Y-95212743D01*
X176094354Y-95201850D01*
X176127448Y-95184161D01*
X176136100Y-95177060D01*
X176144752Y-95184161D01*
X176177846Y-95201850D01*
X176213756Y-95212743D01*
X176251100Y-95216421D01*
X177651100Y-95216421D01*
X177688444Y-95212743D01*
X177715090Y-95204660D01*
X177701300Y-95273988D01*
X177701300Y-95386012D01*
X177723155Y-95495884D01*
X177766024Y-95599381D01*
X177828262Y-95692525D01*
X177862916Y-95727179D01*
X177121100Y-95727179D01*
X177083756Y-95730857D01*
X177047846Y-95741750D01*
X177014752Y-95759439D01*
X176985745Y-95783245D01*
X176961939Y-95812252D01*
X176944250Y-95845346D01*
X176933357Y-95881256D01*
X176929679Y-95918600D01*
X176929679Y-96128100D01*
X176461882Y-96128100D01*
X176446399Y-96126575D01*
X176430917Y-96128100D01*
X176430907Y-96128100D01*
X176384551Y-96132666D01*
X176337531Y-96146929D01*
X176325079Y-96150706D01*
X176270270Y-96180003D01*
X176234262Y-96209553D01*
X176234257Y-96209558D01*
X176222229Y-96219429D01*
X176212357Y-96231458D01*
X176053417Y-96390399D01*
X176038444Y-96385857D01*
X176001100Y-96382179D01*
X174781100Y-96382179D01*
X174776994Y-96382583D01*
X174778125Y-96371100D01*
X174776600Y-96355615D01*
X174776600Y-96355607D01*
X174772034Y-96309251D01*
X174753994Y-96249779D01*
X174724697Y-96194970D01*
X174685271Y-96146929D01*
X174673237Y-96137053D01*
X174530188Y-95994004D01*
X174548700Y-95900937D01*
X174548700Y-95779063D01*
X174524924Y-95659532D01*
X174478285Y-95546935D01*
X174410576Y-95445602D01*
X174324398Y-95359424D01*
X174223065Y-95291715D01*
X174110468Y-95245076D01*
X173990937Y-95221300D01*
X173869063Y-95221300D01*
X173749532Y-95245076D01*
X173636935Y-95291715D01*
X173535602Y-95359424D01*
X173449424Y-95445602D01*
X173381715Y-95546935D01*
X173335076Y-95659532D01*
X173311300Y-95779063D01*
X173311300Y-95900937D01*
X173335076Y-96020468D01*
X173381715Y-96133065D01*
X173449424Y-96234398D01*
X173535602Y-96320576D01*
X173597865Y-96362179D01*
X173258691Y-96362179D01*
X173146642Y-96250130D01*
X173136693Y-96238007D01*
X173088347Y-96198331D01*
X173033190Y-96168849D01*
X172973341Y-96150694D01*
X172926696Y-96146100D01*
X172911100Y-96144564D01*
X172895504Y-96146100D01*
X171892521Y-96146100D01*
X171892521Y-95938600D01*
X171888843Y-95901256D01*
X171877950Y-95865346D01*
X171860261Y-95832252D01*
X171836455Y-95803245D01*
X171807448Y-95779439D01*
X171774354Y-95761750D01*
X171738444Y-95750857D01*
X171701100Y-95747179D01*
X170101100Y-95747179D01*
X170063756Y-95750857D01*
X170027846Y-95761750D01*
X169994752Y-95779439D01*
X169965745Y-95803245D01*
X169941939Y-95832252D01*
X169924250Y-95865346D01*
X169913357Y-95901256D01*
X169909679Y-95938600D01*
X169909679Y-96988600D01*
X169913357Y-97025944D01*
X169924250Y-97061854D01*
X169941939Y-97094948D01*
X169965745Y-97123955D01*
X169994752Y-97147761D01*
X170027846Y-97165450D01*
X170063756Y-97176343D01*
X170101100Y-97180021D01*
X171701100Y-97180021D01*
X171738444Y-97176343D01*
X171774354Y-97165450D01*
X171807448Y-97147761D01*
X171836455Y-97123955D01*
X171860261Y-97094948D01*
X171877950Y-97061854D01*
X171888843Y-97025944D01*
X171892521Y-96988600D01*
X171892521Y-96781100D01*
X172589679Y-96781100D01*
X172589679Y-97333600D01*
X172593357Y-97370944D01*
X172604250Y-97406854D01*
X172621939Y-97439948D01*
X172645745Y-97468955D01*
X172674752Y-97492761D01*
X172707846Y-97510450D01*
X172743756Y-97521343D01*
X172781100Y-97525021D01*
X173393509Y-97525021D01*
X174615563Y-98747076D01*
X174625507Y-98759193D01*
X174645544Y-98775636D01*
X174598035Y-98795315D01*
X174496702Y-98863024D01*
X174410524Y-98949202D01*
X174342815Y-99050535D01*
X174296176Y-99163132D01*
X174272400Y-99282663D01*
X174272400Y-99404537D01*
X174296176Y-99524068D01*
X174342815Y-99636665D01*
X174410524Y-99737998D01*
X174496702Y-99824176D01*
X174598035Y-99891885D01*
X174651088Y-99913860D01*
X174645745Y-99918245D01*
X174621939Y-99947252D01*
X174604250Y-99980346D01*
X174593357Y-100016256D01*
X174589679Y-100053600D01*
X174589679Y-100106100D01*
X174192521Y-100106100D01*
X174192521Y-100033600D01*
X174188843Y-99996256D01*
X174177950Y-99960346D01*
X174160261Y-99927252D01*
X174136455Y-99898245D01*
X174107448Y-99874439D01*
X174074354Y-99856750D01*
X174038444Y-99845857D01*
X174001100Y-99842179D01*
X172781100Y-99842179D01*
X172743756Y-99845857D01*
X172707846Y-99856750D01*
X172674752Y-99874439D01*
X172645745Y-99898245D01*
X172621939Y-99927252D01*
X172604250Y-99960346D01*
X172593357Y-99996256D01*
X172589679Y-100033600D01*
X172589679Y-100813600D01*
X172593357Y-100850944D01*
X172604250Y-100886854D01*
X172621939Y-100919948D01*
X172635195Y-100936100D01*
X171892521Y-100936100D01*
X171892521Y-100388600D01*
X171888843Y-100351256D01*
X171877950Y-100315346D01*
X171860261Y-100282252D01*
X171836455Y-100253245D01*
X171807448Y-100229439D01*
X171774354Y-100211750D01*
X171738444Y-100200857D01*
X171701100Y-100197179D01*
X170101100Y-100197179D01*
X170063756Y-100200857D01*
X170027846Y-100211750D01*
X169994752Y-100229439D01*
X169965745Y-100253245D01*
X169941939Y-100282252D01*
X169924250Y-100315346D01*
X169913357Y-100351256D01*
X169909679Y-100388600D01*
X169909679Y-101438600D01*
X169913357Y-101475944D01*
X169924250Y-101511854D01*
X169941939Y-101544948D01*
X169965745Y-101573955D01*
X169994752Y-101597761D01*
X170027846Y-101615450D01*
X170063756Y-101626343D01*
X170101100Y-101630021D01*
X170583601Y-101630021D01*
X170583600Y-103398004D01*
X170582064Y-103413600D01*
X170583600Y-103429195D01*
X170588194Y-103475840D01*
X170606349Y-103535689D01*
X170635831Y-103590846D01*
X170675507Y-103639193D01*
X170687630Y-103649142D01*
X171123235Y-104084748D01*
X171089054Y-104167268D01*
X171056600Y-104330424D01*
X171056600Y-104496776D01*
X171089054Y-104659932D01*
X171152714Y-104813621D01*
X171245134Y-104951937D01*
X171362763Y-105069566D01*
X171501079Y-105161986D01*
X171654768Y-105225646D01*
X171817924Y-105258100D01*
X171984276Y-105258100D01*
X172147432Y-105225646D01*
X172301121Y-105161986D01*
X172439437Y-105069566D01*
X172557066Y-104951937D01*
X172649486Y-104813621D01*
X172713146Y-104659932D01*
X172745600Y-104496776D01*
X172745600Y-104330424D01*
X173556600Y-104330424D01*
X173556600Y-104496776D01*
X173589054Y-104659932D01*
X173652714Y-104813621D01*
X173745134Y-104951937D01*
X173862763Y-105069566D01*
X174001079Y-105161986D01*
X174154768Y-105225646D01*
X174317924Y-105258100D01*
X174484276Y-105258100D01*
X174647432Y-105225646D01*
X174801121Y-105161986D01*
X174939437Y-105069566D01*
X175057066Y-104951937D01*
X175149486Y-104813621D01*
X175213146Y-104659932D01*
X175245600Y-104496776D01*
X175245600Y-104330424D01*
X176056600Y-104330424D01*
X176056600Y-104496776D01*
X176089054Y-104659932D01*
X176152714Y-104813621D01*
X176245134Y-104951937D01*
X176362763Y-105069566D01*
X176501079Y-105161986D01*
X176654768Y-105225646D01*
X176817924Y-105258100D01*
X176984276Y-105258100D01*
X177147432Y-105225646D01*
X177301121Y-105161986D01*
X177439437Y-105069566D01*
X177557066Y-104951937D01*
X177649486Y-104813621D01*
X177713146Y-104659932D01*
X177745600Y-104496776D01*
X177745600Y-104330424D01*
X177713146Y-104167268D01*
X177649486Y-104013579D01*
X177557066Y-103875263D01*
X177439437Y-103757634D01*
X177301121Y-103665214D01*
X177147432Y-103601554D01*
X176984276Y-103569100D01*
X176817924Y-103569100D01*
X176654768Y-103601554D01*
X176501079Y-103665214D01*
X176362763Y-103757634D01*
X176245134Y-103875263D01*
X176152714Y-104013579D01*
X176089054Y-104167268D01*
X176056600Y-104330424D01*
X175245600Y-104330424D01*
X175213146Y-104167268D01*
X175149486Y-104013579D01*
X175057066Y-103875263D01*
X174939437Y-103757634D01*
X174801121Y-103665214D01*
X174647432Y-103601554D01*
X174484276Y-103569100D01*
X174317924Y-103569100D01*
X174154768Y-103601554D01*
X174001079Y-103665214D01*
X173862763Y-103757634D01*
X173745134Y-103875263D01*
X173652714Y-104013579D01*
X173589054Y-104167268D01*
X173556600Y-104330424D01*
X172745600Y-104330424D01*
X172713146Y-104167268D01*
X172649486Y-104013579D01*
X172557066Y-103875263D01*
X172439437Y-103757634D01*
X172301121Y-103665214D01*
X172147432Y-103601554D01*
X171984276Y-103569100D01*
X171817924Y-103569100D01*
X171654768Y-103601554D01*
X171572248Y-103635735D01*
X171218600Y-103282088D01*
X171218600Y-101630021D01*
X171701100Y-101630021D01*
X171738444Y-101626343D01*
X171774354Y-101615450D01*
X171807448Y-101597761D01*
X171836455Y-101573955D01*
X171838798Y-101571100D01*
X177006636Y-101571100D01*
X177014752Y-101577761D01*
X177047846Y-101595450D01*
X177083756Y-101606343D01*
X177121100Y-101610021D01*
X178721100Y-101610021D01*
X178758444Y-101606343D01*
X178794354Y-101595450D01*
X178827448Y-101577761D01*
X178856455Y-101553955D01*
X178880261Y-101524948D01*
X178897950Y-101491854D01*
X178908843Y-101455944D01*
X178912521Y-101418600D01*
X178912521Y-100368600D01*
X178908843Y-100331256D01*
X178897950Y-100295346D01*
X178880261Y-100262252D01*
X178856455Y-100233245D01*
X178827448Y-100209439D01*
X178794354Y-100191750D01*
X178758444Y-100180857D01*
X178721100Y-100177179D01*
X177121100Y-100177179D01*
X177083756Y-100180857D01*
X177047846Y-100191750D01*
X177014752Y-100209439D01*
X176985745Y-100233245D01*
X176961939Y-100262252D01*
X176944250Y-100295346D01*
X176933357Y-100331256D01*
X176929679Y-100368600D01*
X176929679Y-100936100D01*
X176162318Y-100936100D01*
X176177950Y-100906854D01*
X176188843Y-100870944D01*
X176192521Y-100833600D01*
X176192521Y-100053600D01*
X176188843Y-100016256D01*
X176177950Y-99980346D01*
X176160261Y-99947252D01*
X176136455Y-99918245D01*
X176107448Y-99894439D01*
X176074354Y-99876750D01*
X176038444Y-99865857D01*
X176001100Y-99862179D01*
X175708600Y-99862179D01*
X175708600Y-99639196D01*
X175710136Y-99623600D01*
X175704006Y-99561359D01*
X175685851Y-99501510D01*
X175656369Y-99446353D01*
X175631138Y-99415609D01*
X175616693Y-99398007D01*
X175604575Y-99388062D01*
X175509800Y-99293287D01*
X175509800Y-99282663D01*
X175486024Y-99163132D01*
X175439385Y-99050535D01*
X175371676Y-98949202D01*
X175285498Y-98863024D01*
X175267653Y-98851100D01*
X178925504Y-98851100D01*
X178941100Y-98852636D01*
X178956696Y-98851100D01*
X179003341Y-98846506D01*
X179063190Y-98828351D01*
X179118347Y-98798869D01*
X179166693Y-98759193D01*
X179176642Y-98747070D01*
X179739455Y-98184257D01*
X179830163Y-98202300D01*
X179952037Y-98202300D01*
X180071568Y-98178524D01*
X180184165Y-98131885D01*
X180285498Y-98064176D01*
X180371676Y-97977998D01*
X180439385Y-97876665D01*
X180486024Y-97764068D01*
X180509800Y-97644537D01*
X180509800Y-97522663D01*
X180486024Y-97403132D01*
X180439385Y-97290535D01*
X180371676Y-97189202D01*
X180285498Y-97103024D01*
X180184165Y-97035315D01*
X180071568Y-96988676D01*
X179952037Y-96964900D01*
X179830163Y-96964900D01*
X179710632Y-96988676D01*
X179598035Y-97035315D01*
X179496702Y-97103024D01*
X179410524Y-97189202D01*
X179342815Y-97290535D01*
X179296176Y-97403132D01*
X179272400Y-97522663D01*
X179272400Y-97644537D01*
X179290443Y-97735245D01*
X178809588Y-98216100D01*
X178137653Y-98216100D01*
X178155498Y-98204176D01*
X178241676Y-98117998D01*
X178309385Y-98016665D01*
X178356024Y-97904068D01*
X178379800Y-97784537D01*
X178379800Y-97662663D01*
X178356024Y-97543132D01*
X178309385Y-97430535D01*
X178241676Y-97329202D01*
X178155498Y-97243024D01*
X178098600Y-97205006D01*
X178098600Y-97160021D01*
X178721100Y-97160021D01*
X178758444Y-97156343D01*
X178794354Y-97145450D01*
X178827448Y-97127761D01*
X178856455Y-97103955D01*
X178880261Y-97074948D01*
X178897950Y-97041854D01*
X178908843Y-97005944D01*
X178912521Y-96968600D01*
X178912521Y-95918600D01*
X178908843Y-95881256D01*
X178897950Y-95845346D01*
X178880261Y-95812252D01*
X178856455Y-95783245D01*
X178827448Y-95759439D01*
X178794354Y-95741750D01*
X178758444Y-95730857D01*
X178721100Y-95727179D01*
X178677084Y-95727179D01*
X178711738Y-95692525D01*
X178773976Y-95599381D01*
X178816845Y-95495884D01*
X178838700Y-95386012D01*
X178838700Y-95273988D01*
X178826773Y-95214025D01*
X178851100Y-95216421D01*
X180251100Y-95216421D01*
X180288444Y-95212743D01*
X180324354Y-95201850D01*
X180357448Y-95184161D01*
X180386455Y-95160355D01*
X180410261Y-95131348D01*
X180427950Y-95098254D01*
X180438843Y-95062344D01*
X180442521Y-95025000D01*
X180442521Y-93375000D01*
X180438843Y-93337656D01*
X180427950Y-93301746D01*
X180410261Y-93268652D01*
X180386455Y-93239645D01*
X180357448Y-93215839D01*
X180324354Y-93198150D01*
X180288444Y-93187257D01*
X180251100Y-93183579D01*
X178851100Y-93183579D01*
X178813756Y-93187257D01*
X178799013Y-93191729D01*
X177852521Y-92245238D01*
X177852521Y-91606784D01*
X177857475Y-91611738D01*
X177950619Y-91673976D01*
X178054116Y-91716845D01*
X178163988Y-91738700D01*
X178276012Y-91738700D01*
X178331483Y-91727666D01*
X178569679Y-91965863D01*
X178569679Y-92600000D01*
X178573357Y-92637344D01*
X178584250Y-92673254D01*
X178601939Y-92706348D01*
X178625745Y-92735355D01*
X178654752Y-92759161D01*
X178687846Y-92776850D01*
X178723756Y-92787743D01*
X178761100Y-92791421D01*
X179561100Y-92791421D01*
X179598444Y-92787743D01*
X179634354Y-92776850D01*
X179667448Y-92759161D01*
X179696455Y-92735355D01*
X179720261Y-92706348D01*
X179737950Y-92673254D01*
X179748843Y-92637344D01*
X179752521Y-92600000D01*
X179752521Y-91600000D01*
X179748843Y-91562656D01*
X179737950Y-91526746D01*
X179720261Y-91493652D01*
X179696455Y-91464645D01*
X179667448Y-91440839D01*
X179634354Y-91423150D01*
X179598444Y-91412257D01*
X179567085Y-91409168D01*
X179519950Y-91390273D01*
X179468310Y-91380614D01*
X179415778Y-91381216D01*
X179364373Y-91392054D01*
X179328171Y-91407537D01*
X179326274Y-91408579D01*
X178904762Y-91408579D01*
X178777666Y-91281483D01*
X178788700Y-91226012D01*
X178788700Y-91113988D01*
X178766845Y-91004116D01*
X178723976Y-90900619D01*
X178661738Y-90807475D01*
X178582525Y-90728262D01*
X178489381Y-90666024D01*
X178385884Y-90623155D01*
X178276012Y-90601300D01*
X178163988Y-90601300D01*
X178054116Y-90623155D01*
X177950619Y-90666024D01*
X177857475Y-90728262D01*
X177778262Y-90807475D01*
X177746840Y-90854500D01*
X176554463Y-90854500D01*
X176558028Y-90850935D01*
X176620266Y-90757791D01*
X176663135Y-90654294D01*
X176684990Y-90544422D01*
X176684990Y-90432398D01*
X176663135Y-90322526D01*
X176620266Y-90219029D01*
X176558028Y-90125885D01*
X176478815Y-90046672D01*
X176433790Y-90016587D01*
X176433790Y-88850303D01*
X176464072Y-88820021D01*
X177621100Y-88820021D01*
X177658444Y-88816343D01*
X177694354Y-88805450D01*
X177727448Y-88787761D01*
X177756455Y-88763955D01*
X177780261Y-88734948D01*
X177797950Y-88701854D01*
X177808843Y-88665944D01*
X177812521Y-88628600D01*
X177812521Y-86978600D01*
X177808843Y-86941256D01*
X177797950Y-86905346D01*
X177796292Y-86902244D01*
X177807141Y-86866482D01*
X177811000Y-86827298D01*
X177811000Y-86827296D01*
X177812290Y-86814200D01*
X177811000Y-86801104D01*
X177811000Y-86445021D01*
X177893601Y-86445021D01*
X177893600Y-89008579D01*
X177811100Y-89008579D01*
X177773756Y-89012257D01*
X177737846Y-89023150D01*
X177704752Y-89040839D01*
X177675745Y-89064645D01*
X177651939Y-89093652D01*
X177634250Y-89126746D01*
X177623357Y-89162656D01*
X177619679Y-89200000D01*
X177619679Y-90200000D01*
X177623357Y-90237344D01*
X177634250Y-90273254D01*
X177651939Y-90306348D01*
X177675745Y-90335355D01*
X177704752Y-90359161D01*
X177737846Y-90376850D01*
X177773756Y-90387743D01*
X177811100Y-90391421D01*
X178611100Y-90391421D01*
X178648444Y-90387743D01*
X178684354Y-90376850D01*
X178717448Y-90359161D01*
X178746455Y-90335355D01*
X178770261Y-90306348D01*
X178787950Y-90273254D01*
X178798843Y-90237344D01*
X178802521Y-90200000D01*
X178802521Y-89200000D01*
X178798843Y-89162656D01*
X178787950Y-89126746D01*
X178770261Y-89093652D01*
X178746455Y-89064645D01*
X178717448Y-89040839D01*
X178684354Y-89023150D01*
X178648444Y-89012257D01*
X178611100Y-89008579D01*
X178528600Y-89008579D01*
X178528600Y-86978600D01*
X178629679Y-86978600D01*
X178629679Y-88628600D01*
X178633357Y-88665944D01*
X178644250Y-88701854D01*
X178661939Y-88734948D01*
X178685745Y-88763955D01*
X178714752Y-88787761D01*
X178747846Y-88805450D01*
X178783756Y-88816343D01*
X178821100Y-88820021D01*
X180221100Y-88820021D01*
X180258444Y-88816343D01*
X180294354Y-88805450D01*
X180327448Y-88787761D01*
X180356455Y-88763955D01*
X180380261Y-88734948D01*
X180397950Y-88701854D01*
X180408843Y-88665944D01*
X180412521Y-88628600D01*
X180412521Y-86978600D01*
X180408843Y-86941256D01*
X180397950Y-86905346D01*
X180380261Y-86872252D01*
X180356455Y-86843245D01*
X180327448Y-86819439D01*
X180294354Y-86801750D01*
X180258444Y-86790857D01*
X180221100Y-86787179D01*
X180168600Y-86787179D01*
X180168600Y-86445021D01*
X180251100Y-86445021D01*
X180288444Y-86441343D01*
X180324354Y-86430450D01*
X180357448Y-86412761D01*
X180386455Y-86388955D01*
X180410261Y-86359948D01*
X180427950Y-86326854D01*
X180438843Y-86290944D01*
X180442521Y-86253600D01*
X180442521Y-85453600D01*
X180438843Y-85416256D01*
X180427950Y-85380346D01*
X180410261Y-85347252D01*
X180386455Y-85318245D01*
X180357448Y-85294439D01*
X180324354Y-85276750D01*
X180288444Y-85265857D01*
X180251100Y-85262179D01*
X179451100Y-85262179D01*
X179413756Y-85265857D01*
X179377846Y-85276750D01*
X179344752Y-85294439D01*
X179315745Y-85318245D01*
X179291939Y-85347252D01*
X179274250Y-85380346D01*
X179263357Y-85416256D01*
X179259679Y-85453600D01*
X179259679Y-86253600D01*
X179263357Y-86290944D01*
X179274250Y-86326854D01*
X179291939Y-86359948D01*
X179315745Y-86388955D01*
X179344752Y-86412761D01*
X179377846Y-86430450D01*
X179413756Y-86441343D01*
X179451100Y-86445021D01*
X179533601Y-86445021D01*
X179533600Y-86787179D01*
X178821100Y-86787179D01*
X178783756Y-86790857D01*
X178747846Y-86801750D01*
X178714752Y-86819439D01*
X178685745Y-86843245D01*
X178661939Y-86872252D01*
X178644250Y-86905346D01*
X178633357Y-86941256D01*
X178629679Y-86978600D01*
X178528600Y-86978600D01*
X178528600Y-86445021D01*
X178601100Y-86445021D01*
X178638444Y-86441343D01*
X178674354Y-86430450D01*
X178707448Y-86412761D01*
X178736455Y-86388955D01*
X178760261Y-86359948D01*
X178777950Y-86326854D01*
X178788843Y-86290944D01*
X178792521Y-86253600D01*
X178792521Y-85453600D01*
X178788843Y-85416256D01*
X178777950Y-85380346D01*
X178760261Y-85347252D01*
X178736455Y-85318245D01*
X178707448Y-85294439D01*
X178674354Y-85276750D01*
X178638444Y-85265857D01*
X178601100Y-85262179D01*
X178079167Y-85262179D01*
X178098276Y-85233581D01*
X178141145Y-85130084D01*
X178163000Y-85020212D01*
X178163000Y-84908188D01*
X178141145Y-84798316D01*
X178098276Y-84694819D01*
X178036038Y-84601675D01*
X177964663Y-84530300D01*
X179208004Y-84530300D01*
X179221100Y-84531590D01*
X179234196Y-84530300D01*
X179234198Y-84530300D01*
X179273382Y-84526441D01*
X179323655Y-84511190D01*
X179369987Y-84486426D01*
X179410598Y-84453098D01*
X179418954Y-84442916D01*
X179636849Y-84225021D01*
X180251100Y-84225021D01*
X180288444Y-84221343D01*
X180324354Y-84210450D01*
X180357448Y-84192761D01*
X180386455Y-84168955D01*
X180410261Y-84139948D01*
X180427950Y-84106854D01*
X180438843Y-84070944D01*
X180442521Y-84033600D01*
X180442521Y-83233600D01*
X180438843Y-83196256D01*
X180427950Y-83160346D01*
X180410261Y-83127252D01*
X180386455Y-83098245D01*
X180357448Y-83074439D01*
X180324354Y-83056750D01*
X180288444Y-83045857D01*
X180251100Y-83042179D01*
X179451100Y-83042179D01*
X179413756Y-83045857D01*
X179377846Y-83056750D01*
X179344752Y-83074439D01*
X179315745Y-83098245D01*
X179291939Y-83127252D01*
X179274250Y-83160346D01*
X179263357Y-83196256D01*
X179259679Y-83233600D01*
X179259679Y-83847851D01*
X179110630Y-83996900D01*
X178792521Y-83996900D01*
X178792521Y-83233600D01*
X178788843Y-83196256D01*
X178777950Y-83160346D01*
X178760261Y-83127252D01*
X178736455Y-83098245D01*
X178707448Y-83074439D01*
X178674354Y-83056750D01*
X178638444Y-83045857D01*
X178601100Y-83042179D01*
X177801100Y-83042179D01*
X177763756Y-83045857D01*
X177727846Y-83056750D01*
X177694752Y-83074439D01*
X177665745Y-83098245D01*
X177641939Y-83127252D01*
X177624250Y-83160346D01*
X177613357Y-83196256D01*
X177609679Y-83233600D01*
X177609679Y-83316100D01*
X177502521Y-83316100D01*
X177502521Y-83233600D01*
X177498843Y-83196256D01*
X177487950Y-83160346D01*
X177470261Y-83127252D01*
X177446455Y-83098245D01*
X177417448Y-83074439D01*
X177384354Y-83056750D01*
X177348444Y-83045857D01*
X177311100Y-83042179D01*
X176813313Y-83042179D01*
X176583381Y-82781100D01*
X178775504Y-82781100D01*
X178791100Y-82782636D01*
X178806696Y-82781100D01*
X178853341Y-82776506D01*
X178913190Y-82758351D01*
X178968347Y-82728869D01*
X179016693Y-82689193D01*
X179026642Y-82677070D01*
X179738692Y-81965021D01*
X180281100Y-81965021D01*
X180318444Y-81961343D01*
X180354354Y-81950450D01*
X180387448Y-81932761D01*
X180416455Y-81908955D01*
X180440261Y-81879948D01*
X180457950Y-81846854D01*
X180468843Y-81810944D01*
X180472521Y-81773600D01*
X180472521Y-80973600D01*
X180468843Y-80936256D01*
X180457950Y-80900346D01*
X180440261Y-80867252D01*
X180416455Y-80838245D01*
X180387448Y-80814439D01*
X180354354Y-80796750D01*
X180318444Y-80785857D01*
X180281100Y-80782179D01*
X179481100Y-80782179D01*
X179443756Y-80785857D01*
X179407846Y-80796750D01*
X179374752Y-80814439D01*
X179345745Y-80838245D01*
X179321939Y-80867252D01*
X179304250Y-80900346D01*
X179293357Y-80936256D01*
X179289679Y-80973600D01*
X179289679Y-81516008D01*
X178659588Y-82146100D01*
X174532521Y-82146100D01*
X174532521Y-81671100D01*
X177639679Y-81671100D01*
X177639679Y-81773600D01*
X177643357Y-81810944D01*
X177654250Y-81846854D01*
X177671939Y-81879948D01*
X177695745Y-81908955D01*
X177724752Y-81932761D01*
X177757846Y-81950450D01*
X177793756Y-81961343D01*
X177831100Y-81965021D01*
X178631100Y-81965021D01*
X178668444Y-81961343D01*
X178704354Y-81950450D01*
X178737448Y-81932761D01*
X178766455Y-81908955D01*
X178790261Y-81879948D01*
X178807950Y-81846854D01*
X178818843Y-81810944D01*
X178822521Y-81773600D01*
X178822521Y-80973600D01*
X178818843Y-80936256D01*
X178807950Y-80900346D01*
X178790261Y-80867252D01*
X178766455Y-80838245D01*
X178737448Y-80814439D01*
X178704354Y-80796750D01*
X178668444Y-80785857D01*
X178631100Y-80782179D01*
X177831100Y-80782179D01*
X177793756Y-80785857D01*
X177757846Y-80796750D01*
X177724752Y-80814439D01*
X177695745Y-80838245D01*
X177671939Y-80867252D01*
X177654250Y-80900346D01*
X177643357Y-80936256D01*
X177639679Y-80973600D01*
X177639679Y-81036100D01*
X174532521Y-81036100D01*
X174532521Y-80528600D01*
X174528843Y-80491256D01*
X174517950Y-80455346D01*
X174500261Y-80422252D01*
X174476455Y-80393245D01*
X174447448Y-80369439D01*
X174414354Y-80351750D01*
X174378444Y-80340857D01*
X174341100Y-80337179D01*
X172941100Y-80337179D01*
X172903756Y-80340857D01*
X172867846Y-80351750D01*
X172834752Y-80369439D01*
X172805745Y-80393245D01*
X172781939Y-80422252D01*
X172764250Y-80455346D01*
X172753357Y-80491256D01*
X172749679Y-80528600D01*
X172749679Y-82146100D01*
X168953813Y-82146100D01*
X168866157Y-82058445D01*
X168884200Y-81967737D01*
X168884200Y-81845863D01*
X168860424Y-81726332D01*
X168813785Y-81613735D01*
X168746076Y-81512402D01*
X168659898Y-81426224D01*
X168558565Y-81358515D01*
X168445968Y-81311876D01*
X168326437Y-81288100D01*
X168204563Y-81288100D01*
X168085032Y-81311876D01*
X167972435Y-81358515D01*
X167871102Y-81426224D01*
X167784924Y-81512402D01*
X167717215Y-81613735D01*
X167670576Y-81726332D01*
X167646800Y-81845863D01*
X167646800Y-81967737D01*
X167670576Y-82087268D01*
X167717215Y-82199865D01*
X167784924Y-82301198D01*
X167871102Y-82387376D01*
X167972435Y-82455085D01*
X168085032Y-82501724D01*
X168204563Y-82525500D01*
X168326437Y-82525500D01*
X168417145Y-82507457D01*
X168586763Y-82677076D01*
X168596707Y-82689193D01*
X168645053Y-82728869D01*
X168700210Y-82758351D01*
X168760059Y-82776506D01*
X168806704Y-82781100D01*
X168806706Y-82781100D01*
X168822299Y-82782636D01*
X168837892Y-82781100D01*
X170129471Y-82781100D01*
X170123357Y-82801256D01*
X170119679Y-82838600D01*
X170119679Y-83269300D01*
X165059742Y-83269300D01*
X165044149Y-83267764D01*
X165028556Y-83269300D01*
X165028554Y-83269300D01*
X164981909Y-83273894D01*
X164922060Y-83292049D01*
X164866903Y-83321531D01*
X164818557Y-83361207D01*
X164808613Y-83373324D01*
X163874025Y-84307913D01*
X163861908Y-84317857D01*
X163822232Y-84366203D01*
X163816913Y-84376155D01*
X163792749Y-84421361D01*
X163774594Y-84481210D01*
X163768464Y-84543450D01*
X115724201Y-84543450D01*
X115724201Y-82317588D01*
X159431300Y-82317588D01*
X159431300Y-82429612D01*
X159453155Y-82539484D01*
X159496024Y-82642981D01*
X159558262Y-82736125D01*
X159637475Y-82815338D01*
X159730619Y-82877576D01*
X159834116Y-82920445D01*
X159943988Y-82942300D01*
X160056012Y-82942300D01*
X160165884Y-82920445D01*
X160269381Y-82877576D01*
X160362525Y-82815338D01*
X160441738Y-82736125D01*
X160475137Y-82686141D01*
X163180846Y-82686141D01*
X163212268Y-82733166D01*
X163291481Y-82812379D01*
X163384625Y-82874617D01*
X163488122Y-82917486D01*
X163597994Y-82939341D01*
X163710018Y-82939341D01*
X163819890Y-82917486D01*
X163923387Y-82874617D01*
X164016531Y-82812379D01*
X164095744Y-82733166D01*
X164157982Y-82640022D01*
X164200851Y-82536525D01*
X164222706Y-82426653D01*
X164222706Y-82314629D01*
X164200851Y-82204757D01*
X164157982Y-82101260D01*
X164095744Y-82008116D01*
X164016531Y-81928903D01*
X163923387Y-81866665D01*
X163819890Y-81823796D01*
X163710018Y-81801941D01*
X163597994Y-81801941D01*
X163488122Y-81823796D01*
X163384625Y-81866665D01*
X163291481Y-81928903D01*
X163212268Y-82008116D01*
X163180846Y-82055141D01*
X160471183Y-82055141D01*
X160441738Y-82011075D01*
X160362525Y-81931862D01*
X160269381Y-81869624D01*
X160165884Y-81826755D01*
X160056012Y-81804900D01*
X159943988Y-81804900D01*
X159834116Y-81826755D01*
X159730619Y-81869624D01*
X159637475Y-81931862D01*
X159558262Y-82011075D01*
X159496024Y-82104219D01*
X159453155Y-82207716D01*
X159431300Y-82317588D01*
X115724201Y-82317588D01*
X115724201Y-79566701D01*
X181278000Y-79566701D01*
X181277999Y-128977463D01*
G37*
%TD.AperFunction*%
%TD*%
D27*
%TO.N,/SB*%
X145969200Y-123312179D02*
X144961100Y-123312179D01*
X144923756Y-123315857D01*
X144887846Y-123326750D01*
X144854752Y-123344439D01*
X144825745Y-123368245D01*
X144801939Y-123397252D01*
X144784250Y-123430346D01*
X144773357Y-123466256D01*
X144769679Y-123503600D01*
X144769679Y-123541700D01*
X144737300Y-123541700D01*
X144729867Y-123542432D01*
X144722720Y-123544600D01*
X144716133Y-123548121D01*
X144710359Y-123552859D01*
X144705621Y-123558633D01*
X144702100Y-123565220D01*
X144699932Y-123572367D01*
X144699200Y-123579800D01*
X144699200Y-130440499D01*
X129600831Y-130440499D01*
X129618005Y-123555500D01*
X131474900Y-123555500D01*
X131482333Y-123554768D01*
X131489480Y-123552600D01*
X131496067Y-123549079D01*
X131501841Y-123544341D01*
X131506579Y-123538567D01*
X131510100Y-123531980D01*
X131512268Y-123524833D01*
X131513000Y-123517400D01*
X131513000Y-122413850D01*
X131547945Y-122329484D01*
X131569800Y-122219612D01*
X131569800Y-122107588D01*
X131547945Y-121997716D01*
X131513000Y-121913350D01*
X131513000Y-101559086D01*
X135276600Y-101559086D01*
X135288819Y-101683150D01*
X135337109Y-101842339D01*
X135415527Y-101989048D01*
X135521059Y-102117641D01*
X135649651Y-102223173D01*
X135796360Y-102301591D01*
X135955549Y-102349881D01*
X136121100Y-102366186D01*
X136286650Y-102349881D01*
X136445839Y-102301591D01*
X136592548Y-102223173D01*
X136721141Y-102117641D01*
X136826673Y-101989049D01*
X136905091Y-101842340D01*
X136953381Y-101683151D01*
X136965600Y-101559087D01*
X136965600Y-100168113D01*
X136964616Y-100158114D01*
X137776600Y-100158114D01*
X137776601Y-101549087D01*
X137788820Y-101673151D01*
X137837110Y-101832340D01*
X137915528Y-101979049D01*
X138021060Y-102107641D01*
X138149652Y-102213173D01*
X138296361Y-102291591D01*
X138455550Y-102339881D01*
X138621100Y-102356186D01*
X138786651Y-102339881D01*
X138945840Y-102291591D01*
X139092549Y-102213173D01*
X139221141Y-102107641D01*
X139326673Y-101979049D01*
X139405091Y-101832340D01*
X139453381Y-101673151D01*
X139464615Y-101559086D01*
X140356600Y-101559086D01*
X140368819Y-101683150D01*
X140417109Y-101842339D01*
X140495527Y-101989048D01*
X140601059Y-102117641D01*
X140729651Y-102223173D01*
X140876360Y-102301591D01*
X141035549Y-102349881D01*
X141201100Y-102366186D01*
X141366650Y-102349881D01*
X141525839Y-102301591D01*
X141672548Y-102223173D01*
X141801141Y-102117641D01*
X141906673Y-101989049D01*
X141985091Y-101842340D01*
X142033381Y-101683151D01*
X142045600Y-101559087D01*
X142045600Y-100168113D01*
X142033381Y-100044049D01*
X141985091Y-99884860D01*
X141906673Y-99738151D01*
X141801141Y-99609559D01*
X141672549Y-99504027D01*
X141525840Y-99425609D01*
X141366651Y-99377319D01*
X141201100Y-99361014D01*
X141035550Y-99377319D01*
X140876361Y-99425609D01*
X140729652Y-99504027D01*
X140601060Y-99609559D01*
X140495528Y-99738151D01*
X140417110Y-99884860D01*
X140368820Y-100044049D01*
X140356601Y-100168113D01*
X140356600Y-101559086D01*
X139464615Y-101559086D01*
X139465600Y-101549087D01*
X139465600Y-100158113D01*
X139453381Y-100034049D01*
X139405091Y-99874860D01*
X139326673Y-99728151D01*
X139221141Y-99599559D01*
X139092548Y-99494027D01*
X138945839Y-99415609D01*
X138786650Y-99367319D01*
X138621100Y-99351014D01*
X138455549Y-99367319D01*
X138296360Y-99415609D01*
X138149651Y-99494027D01*
X138021059Y-99599559D01*
X137915527Y-99728152D01*
X137837109Y-99874861D01*
X137788819Y-100034050D01*
X137776600Y-100158114D01*
X136964616Y-100158114D01*
X136953381Y-100044049D01*
X136905091Y-99884860D01*
X136826673Y-99738151D01*
X136721141Y-99609559D01*
X136592549Y-99504027D01*
X136445840Y-99425609D01*
X136286651Y-99377319D01*
X136121100Y-99361014D01*
X135955550Y-99377319D01*
X135796361Y-99425609D01*
X135649652Y-99504027D01*
X135521060Y-99609559D01*
X135415528Y-99738151D01*
X135337110Y-99884860D01*
X135288820Y-100044049D01*
X135276601Y-100168113D01*
X135276600Y-101559086D01*
X131513000Y-101559086D01*
X131513000Y-99265500D01*
X145969200Y-99265500D01*
X145969200Y-123312179D01*
%TA.AperFunction,Conductor*%
D28*
G36*
X145969200Y-123312179D02*
G01*
X144961100Y-123312179D01*
X144923756Y-123315857D01*
X144887846Y-123326750D01*
X144854752Y-123344439D01*
X144825745Y-123368245D01*
X144801939Y-123397252D01*
X144784250Y-123430346D01*
X144773357Y-123466256D01*
X144769679Y-123503600D01*
X144769679Y-123541700D01*
X144737300Y-123541700D01*
X144729867Y-123542432D01*
X144722720Y-123544600D01*
X144716133Y-123548121D01*
X144710359Y-123552859D01*
X144705621Y-123558633D01*
X144702100Y-123565220D01*
X144699932Y-123572367D01*
X144699200Y-123579800D01*
X144699200Y-130440499D01*
X129600831Y-130440499D01*
X129618005Y-123555500D01*
X131474900Y-123555500D01*
X131482333Y-123554768D01*
X131489480Y-123552600D01*
X131496067Y-123549079D01*
X131501841Y-123544341D01*
X131506579Y-123538567D01*
X131510100Y-123531980D01*
X131512268Y-123524833D01*
X131513000Y-123517400D01*
X131513000Y-122413850D01*
X131547945Y-122329484D01*
X131569800Y-122219612D01*
X131569800Y-122107588D01*
X131547945Y-121997716D01*
X131513000Y-121913350D01*
X131513000Y-101559086D01*
X135276600Y-101559086D01*
X135288819Y-101683150D01*
X135337109Y-101842339D01*
X135415527Y-101989048D01*
X135521059Y-102117641D01*
X135649651Y-102223173D01*
X135796360Y-102301591D01*
X135955549Y-102349881D01*
X136121100Y-102366186D01*
X136286650Y-102349881D01*
X136445839Y-102301591D01*
X136592548Y-102223173D01*
X136721141Y-102117641D01*
X136826673Y-101989049D01*
X136905091Y-101842340D01*
X136953381Y-101683151D01*
X136965600Y-101559087D01*
X136965600Y-100168113D01*
X136964616Y-100158114D01*
X137776600Y-100158114D01*
X137776601Y-101549087D01*
X137788820Y-101673151D01*
X137837110Y-101832340D01*
X137915528Y-101979049D01*
X138021060Y-102107641D01*
X138149652Y-102213173D01*
X138296361Y-102291591D01*
X138455550Y-102339881D01*
X138621100Y-102356186D01*
X138786651Y-102339881D01*
X138945840Y-102291591D01*
X139092549Y-102213173D01*
X139221141Y-102107641D01*
X139326673Y-101979049D01*
X139405091Y-101832340D01*
X139453381Y-101673151D01*
X139464615Y-101559086D01*
X140356600Y-101559086D01*
X140368819Y-101683150D01*
X140417109Y-101842339D01*
X140495527Y-101989048D01*
X140601059Y-102117641D01*
X140729651Y-102223173D01*
X140876360Y-102301591D01*
X141035549Y-102349881D01*
X141201100Y-102366186D01*
X141366650Y-102349881D01*
X141525839Y-102301591D01*
X141672548Y-102223173D01*
X141801141Y-102117641D01*
X141906673Y-101989049D01*
X141985091Y-101842340D01*
X142033381Y-101683151D01*
X142045600Y-101559087D01*
X142045600Y-100168113D01*
X142033381Y-100044049D01*
X141985091Y-99884860D01*
X141906673Y-99738151D01*
X141801141Y-99609559D01*
X141672549Y-99504027D01*
X141525840Y-99425609D01*
X141366651Y-99377319D01*
X141201100Y-99361014D01*
X141035550Y-99377319D01*
X140876361Y-99425609D01*
X140729652Y-99504027D01*
X140601060Y-99609559D01*
X140495528Y-99738151D01*
X140417110Y-99884860D01*
X140368820Y-100044049D01*
X140356601Y-100168113D01*
X140356600Y-101559086D01*
X139464615Y-101559086D01*
X139465600Y-101549087D01*
X139465600Y-100158113D01*
X139453381Y-100034049D01*
X139405091Y-99874860D01*
X139326673Y-99728151D01*
X139221141Y-99599559D01*
X139092548Y-99494027D01*
X138945839Y-99415609D01*
X138786650Y-99367319D01*
X138621100Y-99351014D01*
X138455549Y-99367319D01*
X138296360Y-99415609D01*
X138149651Y-99494027D01*
X138021059Y-99599559D01*
X137915527Y-99728152D01*
X137837109Y-99874861D01*
X137788819Y-100034050D01*
X137776600Y-100158114D01*
X136964616Y-100158114D01*
X136953381Y-100044049D01*
X136905091Y-99884860D01*
X136826673Y-99738151D01*
X136721141Y-99609559D01*
X136592549Y-99504027D01*
X136445840Y-99425609D01*
X136286651Y-99377319D01*
X136121100Y-99361014D01*
X135955550Y-99377319D01*
X135796361Y-99425609D01*
X135649652Y-99504027D01*
X135521060Y-99609559D01*
X135415528Y-99738151D01*
X135337110Y-99884860D01*
X135288820Y-100044049D01*
X135276601Y-100168113D01*
X135276600Y-101559086D01*
X131513000Y-101559086D01*
X131513000Y-99265500D01*
X145969200Y-99265500D01*
X145969200Y-123312179D01*
G37*
%TD.AperFunction*%
%TD*%
D27*
%TO.N,/SA*%
X131269200Y-112961181D02*
X131247124Y-112994219D01*
X131204255Y-113097716D01*
X131182400Y-113207588D01*
X131182400Y-113319612D01*
X131204255Y-113429484D01*
X131247124Y-113532981D01*
X131269200Y-113566019D01*
X131269200Y-113861181D01*
X131247124Y-113894219D01*
X131204255Y-113997716D01*
X131182400Y-114107588D01*
X131182400Y-114219612D01*
X131204255Y-114329484D01*
X131247124Y-114432981D01*
X131269200Y-114466019D01*
X131269200Y-114761181D01*
X131247124Y-114794219D01*
X131204255Y-114897716D01*
X131182400Y-115007588D01*
X131182400Y-115119612D01*
X131204255Y-115229484D01*
X131247124Y-115332981D01*
X131269200Y-115366019D01*
X131269200Y-115661181D01*
X131247124Y-115694219D01*
X131204255Y-115797716D01*
X131182400Y-115907588D01*
X131182400Y-116019612D01*
X131204255Y-116129484D01*
X131247124Y-116232981D01*
X131269200Y-116266019D01*
X131269200Y-116561181D01*
X131247124Y-116594219D01*
X131204255Y-116697716D01*
X131182400Y-116807588D01*
X131182400Y-116919612D01*
X131204255Y-117029484D01*
X131247124Y-117132981D01*
X131269200Y-117166019D01*
X131269200Y-117461181D01*
X131247124Y-117494219D01*
X131204255Y-117597716D01*
X131182400Y-117707588D01*
X131182400Y-117819612D01*
X131204255Y-117929484D01*
X131247124Y-118032981D01*
X131269200Y-118066019D01*
X131269200Y-118361181D01*
X131247124Y-118394219D01*
X131204255Y-118497716D01*
X131182400Y-118607588D01*
X131182400Y-118719612D01*
X131204255Y-118829484D01*
X131247124Y-118932981D01*
X131269200Y-118966019D01*
X131269200Y-119261181D01*
X131247124Y-119294219D01*
X131204255Y-119397716D01*
X131182400Y-119507588D01*
X131182400Y-119619612D01*
X131204255Y-119729484D01*
X131247124Y-119832981D01*
X131269200Y-119866019D01*
X131269200Y-120161181D01*
X131247124Y-120194219D01*
X131204255Y-120297716D01*
X131182400Y-120407588D01*
X131182400Y-120519612D01*
X131204255Y-120629484D01*
X131247124Y-120732981D01*
X131269200Y-120766019D01*
X131269200Y-123312179D01*
X129721100Y-123312179D01*
X129683756Y-123315857D01*
X129664494Y-123321700D01*
X129397300Y-123321700D01*
X129389867Y-123322432D01*
X129382720Y-123324600D01*
X129376133Y-123328121D01*
X129370359Y-123332859D01*
X129365621Y-123338633D01*
X129362100Y-123345220D01*
X129359932Y-123352367D01*
X129359200Y-123359800D01*
X129359200Y-130440499D01*
X117187237Y-130440499D01*
X115724201Y-128977464D01*
X115724201Y-101559086D01*
X120576600Y-101559086D01*
X120588819Y-101683150D01*
X120637109Y-101842339D01*
X120715527Y-101989048D01*
X120821059Y-102117641D01*
X120949651Y-102223173D01*
X121096360Y-102301591D01*
X121255549Y-102349881D01*
X121421100Y-102366186D01*
X121586650Y-102349881D01*
X121745839Y-102301591D01*
X121892548Y-102223173D01*
X122021141Y-102117641D01*
X122126673Y-101989049D01*
X122205091Y-101842340D01*
X122253381Y-101683151D01*
X122265600Y-101559087D01*
X122265600Y-100168114D01*
X123076600Y-100168114D01*
X123076601Y-101559087D01*
X123088820Y-101683151D01*
X123137110Y-101842340D01*
X123215528Y-101989049D01*
X123321060Y-102117641D01*
X123449652Y-102223173D01*
X123596361Y-102301591D01*
X123755550Y-102349881D01*
X123921100Y-102366186D01*
X124086651Y-102349881D01*
X124245840Y-102301591D01*
X124392549Y-102223173D01*
X124521141Y-102117641D01*
X124626673Y-101989049D01*
X124705091Y-101842340D01*
X124753381Y-101683151D01*
X124765600Y-101559087D01*
X124765600Y-101559086D01*
X125656600Y-101559086D01*
X125668819Y-101683150D01*
X125717109Y-101842339D01*
X125795527Y-101989048D01*
X125901059Y-102117641D01*
X126029651Y-102223173D01*
X126176360Y-102301591D01*
X126335549Y-102349881D01*
X126501100Y-102366186D01*
X126666650Y-102349881D01*
X126825839Y-102301591D01*
X126972548Y-102223173D01*
X127101141Y-102117641D01*
X127206673Y-101989049D01*
X127285091Y-101842340D01*
X127333381Y-101683151D01*
X127345600Y-101559087D01*
X127345600Y-100168113D01*
X127333381Y-100044049D01*
X127285091Y-99884860D01*
X127206673Y-99738151D01*
X127101141Y-99609559D01*
X126972549Y-99504027D01*
X126825840Y-99425609D01*
X126666651Y-99377319D01*
X126501100Y-99361014D01*
X126335550Y-99377319D01*
X126176361Y-99425609D01*
X126029652Y-99504027D01*
X125901060Y-99609559D01*
X125795528Y-99738151D01*
X125717110Y-99884860D01*
X125668820Y-100044049D01*
X125656601Y-100168113D01*
X125656600Y-101559086D01*
X124765600Y-101559086D01*
X124765600Y-100168113D01*
X124753381Y-100044049D01*
X124705091Y-99884860D01*
X124626673Y-99738151D01*
X124521141Y-99609559D01*
X124392548Y-99504027D01*
X124245839Y-99425609D01*
X124086650Y-99377319D01*
X123921100Y-99361014D01*
X123755549Y-99377319D01*
X123596360Y-99425609D01*
X123449651Y-99504027D01*
X123321059Y-99609559D01*
X123215527Y-99738152D01*
X123137109Y-99884861D01*
X123088819Y-100044050D01*
X123076600Y-100168114D01*
X122265600Y-100168114D01*
X122265600Y-100168113D01*
X122253381Y-100044049D01*
X122205091Y-99884860D01*
X122126673Y-99738151D01*
X122021141Y-99609559D01*
X121892549Y-99504027D01*
X121745840Y-99425609D01*
X121586651Y-99377319D01*
X121421100Y-99361014D01*
X121255550Y-99377319D01*
X121096361Y-99425609D01*
X120949652Y-99504027D01*
X120821060Y-99609559D01*
X120715528Y-99738151D01*
X120637110Y-99884860D01*
X120588820Y-100044049D01*
X120576601Y-100168113D01*
X120576600Y-101559086D01*
X115724201Y-101559086D01*
X115724201Y-99265500D01*
X131269200Y-99265500D01*
X131269200Y-112961181D01*
%TA.AperFunction,Conductor*%
D28*
G36*
X131269200Y-112961181D02*
G01*
X131247124Y-112994219D01*
X131204255Y-113097716D01*
X131182400Y-113207588D01*
X131182400Y-113319612D01*
X131204255Y-113429484D01*
X131247124Y-113532981D01*
X131269200Y-113566019D01*
X131269200Y-113861181D01*
X131247124Y-113894219D01*
X131204255Y-113997716D01*
X131182400Y-114107588D01*
X131182400Y-114219612D01*
X131204255Y-114329484D01*
X131247124Y-114432981D01*
X131269200Y-114466019D01*
X131269200Y-114761181D01*
X131247124Y-114794219D01*
X131204255Y-114897716D01*
X131182400Y-115007588D01*
X131182400Y-115119612D01*
X131204255Y-115229484D01*
X131247124Y-115332981D01*
X131269200Y-115366019D01*
X131269200Y-115661181D01*
X131247124Y-115694219D01*
X131204255Y-115797716D01*
X131182400Y-115907588D01*
X131182400Y-116019612D01*
X131204255Y-116129484D01*
X131247124Y-116232981D01*
X131269200Y-116266019D01*
X131269200Y-116561181D01*
X131247124Y-116594219D01*
X131204255Y-116697716D01*
X131182400Y-116807588D01*
X131182400Y-116919612D01*
X131204255Y-117029484D01*
X131247124Y-117132981D01*
X131269200Y-117166019D01*
X131269200Y-117461181D01*
X131247124Y-117494219D01*
X131204255Y-117597716D01*
X131182400Y-117707588D01*
X131182400Y-117819612D01*
X131204255Y-117929484D01*
X131247124Y-118032981D01*
X131269200Y-118066019D01*
X131269200Y-118361181D01*
X131247124Y-118394219D01*
X131204255Y-118497716D01*
X131182400Y-118607588D01*
X131182400Y-118719612D01*
X131204255Y-118829484D01*
X131247124Y-118932981D01*
X131269200Y-118966019D01*
X131269200Y-119261181D01*
X131247124Y-119294219D01*
X131204255Y-119397716D01*
X131182400Y-119507588D01*
X131182400Y-119619612D01*
X131204255Y-119729484D01*
X131247124Y-119832981D01*
X131269200Y-119866019D01*
X131269200Y-120161181D01*
X131247124Y-120194219D01*
X131204255Y-120297716D01*
X131182400Y-120407588D01*
X131182400Y-120519612D01*
X131204255Y-120629484D01*
X131247124Y-120732981D01*
X131269200Y-120766019D01*
X131269200Y-123312179D01*
X129721100Y-123312179D01*
X129683756Y-123315857D01*
X129664494Y-123321700D01*
X129397300Y-123321700D01*
X129389867Y-123322432D01*
X129382720Y-123324600D01*
X129376133Y-123328121D01*
X129370359Y-123332859D01*
X129365621Y-123338633D01*
X129362100Y-123345220D01*
X129359932Y-123352367D01*
X129359200Y-123359800D01*
X129359200Y-130440499D01*
X117187237Y-130440499D01*
X115724201Y-128977464D01*
X115724201Y-101559086D01*
X120576600Y-101559086D01*
X120588819Y-101683150D01*
X120637109Y-101842339D01*
X120715527Y-101989048D01*
X120821059Y-102117641D01*
X120949651Y-102223173D01*
X121096360Y-102301591D01*
X121255549Y-102349881D01*
X121421100Y-102366186D01*
X121586650Y-102349881D01*
X121745839Y-102301591D01*
X121892548Y-102223173D01*
X122021141Y-102117641D01*
X122126673Y-101989049D01*
X122205091Y-101842340D01*
X122253381Y-101683151D01*
X122265600Y-101559087D01*
X122265600Y-100168114D01*
X123076600Y-100168114D01*
X123076601Y-101559087D01*
X123088820Y-101683151D01*
X123137110Y-101842340D01*
X123215528Y-101989049D01*
X123321060Y-102117641D01*
X123449652Y-102223173D01*
X123596361Y-102301591D01*
X123755550Y-102349881D01*
X123921100Y-102366186D01*
X124086651Y-102349881D01*
X124245840Y-102301591D01*
X124392549Y-102223173D01*
X124521141Y-102117641D01*
X124626673Y-101989049D01*
X124705091Y-101842340D01*
X124753381Y-101683151D01*
X124765600Y-101559087D01*
X124765600Y-101559086D01*
X125656600Y-101559086D01*
X125668819Y-101683150D01*
X125717109Y-101842339D01*
X125795527Y-101989048D01*
X125901059Y-102117641D01*
X126029651Y-102223173D01*
X126176360Y-102301591D01*
X126335549Y-102349881D01*
X126501100Y-102366186D01*
X126666650Y-102349881D01*
X126825839Y-102301591D01*
X126972548Y-102223173D01*
X127101141Y-102117641D01*
X127206673Y-101989049D01*
X127285091Y-101842340D01*
X127333381Y-101683151D01*
X127345600Y-101559087D01*
X127345600Y-100168113D01*
X127333381Y-100044049D01*
X127285091Y-99884860D01*
X127206673Y-99738151D01*
X127101141Y-99609559D01*
X126972549Y-99504027D01*
X126825840Y-99425609D01*
X126666651Y-99377319D01*
X126501100Y-99361014D01*
X126335550Y-99377319D01*
X126176361Y-99425609D01*
X126029652Y-99504027D01*
X125901060Y-99609559D01*
X125795528Y-99738151D01*
X125717110Y-99884860D01*
X125668820Y-100044049D01*
X125656601Y-100168113D01*
X125656600Y-101559086D01*
X124765600Y-101559086D01*
X124765600Y-100168113D01*
X124753381Y-100044049D01*
X124705091Y-99884860D01*
X124626673Y-99738151D01*
X124521141Y-99609559D01*
X124392548Y-99504027D01*
X124245839Y-99425609D01*
X124086650Y-99377319D01*
X123921100Y-99361014D01*
X123755549Y-99377319D01*
X123596360Y-99425609D01*
X123449651Y-99504027D01*
X123321059Y-99609559D01*
X123215527Y-99738152D01*
X123137109Y-99884861D01*
X123088819Y-100044050D01*
X123076600Y-100168114D01*
X122265600Y-100168114D01*
X122265600Y-100168113D01*
X122253381Y-100044049D01*
X122205091Y-99884860D01*
X122126673Y-99738151D01*
X122021141Y-99609559D01*
X121892549Y-99504027D01*
X121745840Y-99425609D01*
X121586651Y-99377319D01*
X121421100Y-99361014D01*
X121255550Y-99377319D01*
X121096361Y-99425609D01*
X120949652Y-99504027D01*
X120821060Y-99609559D01*
X120715528Y-99738151D01*
X120637110Y-99884860D01*
X120588820Y-100044049D01*
X120576601Y-100168113D01*
X120576600Y-101559086D01*
X115724201Y-101559086D01*
X115724201Y-99265500D01*
X131269200Y-99265500D01*
X131269200Y-112961181D01*
G37*
%TD.AperFunction*%
%TD*%
M02*
