%TF.GenerationSoftware,KiCad,Pcbnew,(5.1.10)-1*%
%TF.CreationDate,2022-09-23T13:33:22+09:00*%
%TF.ProjectId,(KiCad)DriveUnit_B-series(ver2.0),284b6943-6164-4294-9472-697665556e69,rev?*%
%TF.SameCoordinates,Original*%
%TF.FileFunction,Paste,Bot*%
%TF.FilePolarity,Positive*%
%FSLAX46Y46*%
G04 Gerber Fmt 4.6, Leading zero omitted, Abs format (unit mm)*
G04 Created by KiCad (PCBNEW (5.1.10)-1) date 2022-09-23 13:33:22*
%MOMM*%
%LPD*%
G01*
G04 APERTURE LIST*
%ADD10R,0.700000X0.800000*%
%ADD11R,2.300000X1.200000*%
%ADD12R,1.400000X0.800000*%
%ADD13R,0.800000X1.400000*%
%ADD14R,1.200000X1.700000*%
%ADD15R,0.780000X1.220000*%
%ADD16R,2.000000X5.300000*%
%ADD17R,5.000000X3.000000*%
%ADD18R,0.450000X1.650000*%
%ADD19R,1.400000X1.650000*%
%ADD20R,1.650000X1.400000*%
%ADD21R,0.800000X1.200000*%
%ADD22R,0.800000X1.000000*%
%ADD23R,1.220000X0.780000*%
G04 APERTURE END LIST*
D10*
%TO.C,C1*%
X174201100Y-108733600D03*
X172801100Y-108733600D03*
%TD*%
D11*
%TO.C,C12*%
X151391100Y-109903600D03*
X151391100Y-113303600D03*
%TD*%
D12*
%TO.C,C13*%
X148631100Y-111003600D03*
X148631100Y-113003600D03*
%TD*%
D10*
%TO.C,C2*%
X178461100Y-108733600D03*
X177061100Y-108733600D03*
%TD*%
%TO.C,C3*%
X161721100Y-83433600D03*
X160321100Y-83433600D03*
%TD*%
%TO.C,C4*%
X162251100Y-96000000D03*
X163651100Y-96000000D03*
%TD*%
%TO.C,C5*%
X159021100Y-96823600D03*
X157621100Y-96823600D03*
%TD*%
D13*
%TO.C,C6*%
X159041100Y-83643600D03*
X157041100Y-83643600D03*
%TD*%
D10*
%TO.C,C7*%
X164921100Y-94343600D03*
X163521100Y-94343600D03*
%TD*%
%TO.C,C8*%
X160291100Y-94343600D03*
X161691100Y-94343600D03*
%TD*%
D14*
%TO.C,C9*%
X165381100Y-98000000D03*
X162281100Y-98000000D03*
%TD*%
D15*
%TO.C,D1*%
X155501100Y-94773600D03*
X158981100Y-94773600D03*
%TD*%
D16*
%TO.C,EDGE1*%
X118021100Y-126153600D03*
X120561100Y-126153600D03*
X123101100Y-126153600D03*
X125641100Y-126153600D03*
X128181100Y-126153600D03*
X130721100Y-126153600D03*
X133261100Y-126153600D03*
X135801100Y-126153600D03*
X138341100Y-126153600D03*
X140881100Y-126153600D03*
X143421100Y-126153600D03*
X145961100Y-126153600D03*
X148501100Y-126153600D03*
X151041100Y-126153600D03*
X153581100Y-126153600D03*
X156121100Y-126153600D03*
X158661100Y-126153600D03*
X161201100Y-126153600D03*
X163741100Y-126153600D03*
X166281100Y-126153600D03*
X168821100Y-126153600D03*
X171361100Y-126153600D03*
X173901100Y-126153600D03*
X176441100Y-126153600D03*
X178981100Y-126153600D03*
%TD*%
D17*
%TO.C,A3921*%
X162606100Y-89363600D03*
D18*
X166831100Y-86313600D03*
X166181100Y-86313600D03*
X165531100Y-86313600D03*
X164881100Y-86313600D03*
X164231100Y-86313600D03*
X163581100Y-86313600D03*
X162931100Y-86313600D03*
X162281100Y-86313600D03*
X161631100Y-86313600D03*
X160981100Y-86313600D03*
X160331100Y-86313600D03*
X159681100Y-86313600D03*
X159031100Y-86313600D03*
X158381100Y-86313600D03*
X158381100Y-92413600D03*
X159031100Y-92413600D03*
X159681100Y-92413600D03*
X160331100Y-92413600D03*
X160981100Y-92413600D03*
X161631100Y-92413600D03*
X162281100Y-92413600D03*
X162931100Y-92413600D03*
X163581100Y-92413600D03*
X164231100Y-92413600D03*
X164881100Y-92413600D03*
X165531100Y-92413600D03*
X166831100Y-92413600D03*
X166181100Y-92413600D03*
%TD*%
D19*
%TO.C,R1*%
X173251100Y-106633600D03*
X170651100Y-106633600D03*
%TD*%
%TO.C,R10*%
X162261100Y-102500000D03*
X164861100Y-102500000D03*
%TD*%
%TO.C,R12*%
X162261100Y-100200000D03*
X164861100Y-100200000D03*
%TD*%
D20*
%TO.C,R13*%
X166860000Y-81200000D03*
X166860000Y-83800000D03*
%TD*%
%TO.C,R14*%
X169651100Y-83800000D03*
X169651100Y-81200000D03*
%TD*%
D19*
%TO.C,R15*%
X126542100Y-96193600D03*
X123942100Y-96193600D03*
%TD*%
%TO.C,R16*%
X123941100Y-98123600D03*
X126541100Y-98123600D03*
%TD*%
%TO.C,R18*%
X141181100Y-96193600D03*
X138581100Y-96193600D03*
%TD*%
%TO.C,R19*%
X138581100Y-98123600D03*
X141181100Y-98123600D03*
%TD*%
D20*
%TO.C,R2*%
X169651100Y-88953600D03*
X169651100Y-86353600D03*
%TD*%
D19*
%TO.C,R20*%
X159461100Y-100200000D03*
X156861100Y-100200000D03*
%TD*%
%TO.C,R21*%
X159461100Y-102500000D03*
X156861100Y-102500000D03*
%TD*%
%TO.C,R24*%
X172271100Y-96823600D03*
X174871100Y-96823600D03*
%TD*%
%TO.C,R25*%
X176931100Y-96823600D03*
X179531100Y-96823600D03*
%TD*%
D20*
%TO.C,R26*%
X174771100Y-121173600D03*
X174771100Y-118573600D03*
%TD*%
%TO.C,R27*%
X179061100Y-121173600D03*
X179061100Y-118573600D03*
%TD*%
%TO.C,R6*%
X176071100Y-88753600D03*
X176071100Y-86153600D03*
%TD*%
D19*
%TO.C,R9*%
X178011100Y-106633600D03*
X175411100Y-106633600D03*
%TD*%
D21*
%TO.C,TLP1*%
X173441100Y-110483600D03*
X172171100Y-110483600D03*
X172171100Y-116783600D03*
X174711100Y-110483600D03*
X174711100Y-116783600D03*
%TD*%
%TO.C,TLP2*%
X177791100Y-110483600D03*
X176521100Y-110483600D03*
X176521100Y-116783600D03*
X179061100Y-110483600D03*
X179061100Y-116783600D03*
%TD*%
D22*
%TO.C,TR3*%
X178091100Y-91600000D03*
X179041100Y-94000000D03*
X177141100Y-94000000D03*
%TD*%
%TO.C,TR4*%
X173931100Y-91600000D03*
X174881100Y-94000000D03*
X172981100Y-94000000D03*
%TD*%
D20*
%TO.C,R17*%
X179081100Y-88753600D03*
X179081100Y-86153600D03*
%TD*%
D23*
%TO.C,D2*%
X172821100Y-102553600D03*
X172821100Y-99073600D03*
%TD*%
%TO.C,D3*%
X176161100Y-102553600D03*
X176161100Y-99073600D03*
%TD*%
M02*
