%TF.GenerationSoftware,KiCad,Pcbnew,(5.1.10)-1*%
%TF.CreationDate,2022-09-21T12:49:22+09:00*%
%TF.ProjectId,(KiCad)DriveUnit_B-series(ver2.0),284b6943-6164-4294-9472-697665556e69,rev?*%
%TF.SameCoordinates,Original*%
%TF.FileFunction,Soldermask,Top*%
%TF.FilePolarity,Negative*%
%FSLAX46Y46*%
G04 Gerber Fmt 4.6, Leading zero omitted, Abs format (unit mm)*
G04 Created by KiCad (PCBNEW (5.1.10)-1) date 2022-09-21 12:49:22*
%MOMM*%
%LPD*%
G01*
G04 APERTURE LIST*
%ADD10O,1.511200X2.819200*%
%ADD11C,1.511200*%
G04 APERTURE END LIST*
%TO.C,LED5*%
G36*
G01*
X179451100Y-85352000D02*
X180251100Y-85352000D01*
G75*
G02*
X180352700Y-85453600I0J-101600D01*
G01*
X180352700Y-86253600D01*
G75*
G02*
X180251100Y-86355200I-101600J0D01*
G01*
X179451100Y-86355200D01*
G75*
G02*
X179349500Y-86253600I0J101600D01*
G01*
X179349500Y-85453600D01*
G75*
G02*
X179451100Y-85352000I101600J0D01*
G01*
G37*
G36*
G01*
X177801100Y-85352000D02*
X178601100Y-85352000D01*
G75*
G02*
X178702700Y-85453600I0J-101600D01*
G01*
X178702700Y-86253600D01*
G75*
G02*
X178601100Y-86355200I-101600J0D01*
G01*
X177801100Y-86355200D01*
G75*
G02*
X177699500Y-86253600I0J101600D01*
G01*
X177699500Y-85453600D01*
G75*
G02*
X177801100Y-85352000I101600J0D01*
G01*
G37*
%TD*%
%TO.C,HA*%
G36*
G01*
X120009500Y-92837201D02*
X120009500Y-80899199D01*
G75*
G02*
X120111099Y-80797600I101599J0D01*
G01*
X132811101Y-80797600D01*
G75*
G02*
X132912700Y-80899199I0J-101599D01*
G01*
X132912700Y-92837201D01*
G75*
G02*
X132811101Y-92938800I-101599J0D01*
G01*
X120111099Y-92938800D01*
G75*
G02*
X120009500Y-92837201I0J101599D01*
G01*
G37*
D10*
X129001100Y-100863600D03*
X123921100Y-100863600D03*
%TD*%
%TO.C,HB*%
G36*
G01*
X134709500Y-92827201D02*
X134709500Y-80889199D01*
G75*
G02*
X134811099Y-80787600I101599J0D01*
G01*
X147511101Y-80787600D01*
G75*
G02*
X147612700Y-80889199I0J-101599D01*
G01*
X147612700Y-92827201D01*
G75*
G02*
X147511101Y-92928800I-101599J0D01*
G01*
X134811099Y-92928800D01*
G75*
G02*
X134709500Y-92827201I0J101599D01*
G01*
G37*
X143701100Y-100853600D03*
X138621100Y-100853600D03*
%TD*%
%TO.C,LA*%
G36*
G01*
X130412700Y-108889999D02*
X130412700Y-120828001D01*
G75*
G02*
X130311101Y-120929600I-101599J0D01*
G01*
X117611099Y-120929600D01*
G75*
G02*
X117509500Y-120828001I0J101599D01*
G01*
X117509500Y-108889999D01*
G75*
G02*
X117611099Y-108788400I101599J0D01*
G01*
X130311101Y-108788400D01*
G75*
G02*
X130412700Y-108889999I0J-101599D01*
G01*
G37*
X121421100Y-100863600D03*
X126501100Y-100863600D03*
%TD*%
%TO.C,LB*%
G36*
G01*
X145112700Y-108889999D02*
X145112700Y-120828001D01*
G75*
G02*
X145011101Y-120929600I-101599J0D01*
G01*
X132311099Y-120929600D01*
G75*
G02*
X132209500Y-120828001I0J101599D01*
G01*
X132209500Y-108889999D01*
G75*
G02*
X132311099Y-108788400I101599J0D01*
G01*
X145011101Y-108788400D01*
G75*
G02*
X145112700Y-108889999I0J-101599D01*
G01*
G37*
X136121100Y-100863600D03*
X141201100Y-100863600D03*
%TD*%
%TO.C,C10*%
X167321100Y-116463600D03*
X162321100Y-116463600D03*
%TD*%
%TO.C,C11*%
X155410000Y-116463600D03*
X150410000Y-116463600D03*
%TD*%
%TO.C,D4*%
G36*
G01*
X172781100Y-99932000D02*
X174001100Y-99932000D01*
G75*
G02*
X174102700Y-100033600I0J-101600D01*
G01*
X174102700Y-100813600D01*
G75*
G02*
X174001100Y-100915200I-101600J0D01*
G01*
X172781100Y-100915200D01*
G75*
G02*
X172679500Y-100813600I0J101600D01*
G01*
X172679500Y-100033600D01*
G75*
G02*
X172781100Y-99932000I101600J0D01*
G01*
G37*
G36*
G01*
X172781100Y-96452000D02*
X174001100Y-96452000D01*
G75*
G02*
X174102700Y-96553600I0J-101600D01*
G01*
X174102700Y-97333600D01*
G75*
G02*
X174001100Y-97435200I-101600J0D01*
G01*
X172781100Y-97435200D01*
G75*
G02*
X172679500Y-97333600I0J101600D01*
G01*
X172679500Y-96553600D01*
G75*
G02*
X172781100Y-96452000I101600J0D01*
G01*
G37*
%TD*%
%TO.C,D5*%
G36*
G01*
X174781100Y-99952000D02*
X176001100Y-99952000D01*
G75*
G02*
X176102700Y-100053600I0J-101600D01*
G01*
X176102700Y-100833600D01*
G75*
G02*
X176001100Y-100935200I-101600J0D01*
G01*
X174781100Y-100935200D01*
G75*
G02*
X174679500Y-100833600I0J101600D01*
G01*
X174679500Y-100053600D01*
G75*
G02*
X174781100Y-99952000I101600J0D01*
G01*
G37*
G36*
G01*
X174781100Y-96472000D02*
X176001100Y-96472000D01*
G75*
G02*
X176102700Y-96573600I0J-101600D01*
G01*
X176102700Y-97353600D01*
G75*
G02*
X176001100Y-97455200I-101600J0D01*
G01*
X174781100Y-97455200D01*
G75*
G02*
X174679500Y-97353600I0J101600D01*
G01*
X174679500Y-96573600D01*
G75*
G02*
X174781100Y-96472000I101600J0D01*
G01*
G37*
%TD*%
%TO.C,EDGE1*%
G36*
G01*
X177879500Y-128803600D02*
X177879500Y-123503600D01*
G75*
G02*
X177981100Y-123402000I101600J0D01*
G01*
X179981100Y-123402000D01*
G75*
G02*
X180082700Y-123503600I0J-101600D01*
G01*
X180082700Y-128803600D01*
G75*
G02*
X179981100Y-128905200I-101600J0D01*
G01*
X177981100Y-128905200D01*
G75*
G02*
X177879500Y-128803600I0J101600D01*
G01*
G37*
G36*
G01*
X175339500Y-128803600D02*
X175339500Y-123503600D01*
G75*
G02*
X175441100Y-123402000I101600J0D01*
G01*
X177441100Y-123402000D01*
G75*
G02*
X177542700Y-123503600I0J-101600D01*
G01*
X177542700Y-128803600D01*
G75*
G02*
X177441100Y-128905200I-101600J0D01*
G01*
X175441100Y-128905200D01*
G75*
G02*
X175339500Y-128803600I0J101600D01*
G01*
G37*
G36*
G01*
X172799500Y-128803600D02*
X172799500Y-123503600D01*
G75*
G02*
X172901100Y-123402000I101600J0D01*
G01*
X174901100Y-123402000D01*
G75*
G02*
X175002700Y-123503600I0J-101600D01*
G01*
X175002700Y-128803600D01*
G75*
G02*
X174901100Y-128905200I-101600J0D01*
G01*
X172901100Y-128905200D01*
G75*
G02*
X172799500Y-128803600I0J101600D01*
G01*
G37*
G36*
G01*
X170259500Y-128803600D02*
X170259500Y-123503600D01*
G75*
G02*
X170361100Y-123402000I101600J0D01*
G01*
X172361100Y-123402000D01*
G75*
G02*
X172462700Y-123503600I0J-101600D01*
G01*
X172462700Y-128803600D01*
G75*
G02*
X172361100Y-128905200I-101600J0D01*
G01*
X170361100Y-128905200D01*
G75*
G02*
X170259500Y-128803600I0J101600D01*
G01*
G37*
G36*
G01*
X167719500Y-128803600D02*
X167719500Y-123503600D01*
G75*
G02*
X167821100Y-123402000I101600J0D01*
G01*
X169821100Y-123402000D01*
G75*
G02*
X169922700Y-123503600I0J-101600D01*
G01*
X169922700Y-128803600D01*
G75*
G02*
X169821100Y-128905200I-101600J0D01*
G01*
X167821100Y-128905200D01*
G75*
G02*
X167719500Y-128803600I0J101600D01*
G01*
G37*
G36*
G01*
X165179500Y-128803600D02*
X165179500Y-123503600D01*
G75*
G02*
X165281100Y-123402000I101600J0D01*
G01*
X167281100Y-123402000D01*
G75*
G02*
X167382700Y-123503600I0J-101600D01*
G01*
X167382700Y-128803600D01*
G75*
G02*
X167281100Y-128905200I-101600J0D01*
G01*
X165281100Y-128905200D01*
G75*
G02*
X165179500Y-128803600I0J101600D01*
G01*
G37*
G36*
G01*
X162639500Y-128803600D02*
X162639500Y-123503600D01*
G75*
G02*
X162741100Y-123402000I101600J0D01*
G01*
X164741100Y-123402000D01*
G75*
G02*
X164842700Y-123503600I0J-101600D01*
G01*
X164842700Y-128803600D01*
G75*
G02*
X164741100Y-128905200I-101600J0D01*
G01*
X162741100Y-128905200D01*
G75*
G02*
X162639500Y-128803600I0J101600D01*
G01*
G37*
G36*
G01*
X160099500Y-128803600D02*
X160099500Y-123503600D01*
G75*
G02*
X160201100Y-123402000I101600J0D01*
G01*
X162201100Y-123402000D01*
G75*
G02*
X162302700Y-123503600I0J-101600D01*
G01*
X162302700Y-128803600D01*
G75*
G02*
X162201100Y-128905200I-101600J0D01*
G01*
X160201100Y-128905200D01*
G75*
G02*
X160099500Y-128803600I0J101600D01*
G01*
G37*
G36*
G01*
X157559500Y-128803600D02*
X157559500Y-123503600D01*
G75*
G02*
X157661100Y-123402000I101600J0D01*
G01*
X159661100Y-123402000D01*
G75*
G02*
X159762700Y-123503600I0J-101600D01*
G01*
X159762700Y-128803600D01*
G75*
G02*
X159661100Y-128905200I-101600J0D01*
G01*
X157661100Y-128905200D01*
G75*
G02*
X157559500Y-128803600I0J101600D01*
G01*
G37*
G36*
G01*
X155019500Y-128803600D02*
X155019500Y-123503600D01*
G75*
G02*
X155121100Y-123402000I101600J0D01*
G01*
X157121100Y-123402000D01*
G75*
G02*
X157222700Y-123503600I0J-101600D01*
G01*
X157222700Y-128803600D01*
G75*
G02*
X157121100Y-128905200I-101600J0D01*
G01*
X155121100Y-128905200D01*
G75*
G02*
X155019500Y-128803600I0J101600D01*
G01*
G37*
G36*
G01*
X152479500Y-128803600D02*
X152479500Y-123503600D01*
G75*
G02*
X152581100Y-123402000I101600J0D01*
G01*
X154581100Y-123402000D01*
G75*
G02*
X154682700Y-123503600I0J-101600D01*
G01*
X154682700Y-128803600D01*
G75*
G02*
X154581100Y-128905200I-101600J0D01*
G01*
X152581100Y-128905200D01*
G75*
G02*
X152479500Y-128803600I0J101600D01*
G01*
G37*
G36*
G01*
X149939500Y-128803600D02*
X149939500Y-123503600D01*
G75*
G02*
X150041100Y-123402000I101600J0D01*
G01*
X152041100Y-123402000D01*
G75*
G02*
X152142700Y-123503600I0J-101600D01*
G01*
X152142700Y-128803600D01*
G75*
G02*
X152041100Y-128905200I-101600J0D01*
G01*
X150041100Y-128905200D01*
G75*
G02*
X149939500Y-128803600I0J101600D01*
G01*
G37*
G36*
G01*
X147399500Y-128803600D02*
X147399500Y-123503600D01*
G75*
G02*
X147501100Y-123402000I101600J0D01*
G01*
X149501100Y-123402000D01*
G75*
G02*
X149602700Y-123503600I0J-101600D01*
G01*
X149602700Y-128803600D01*
G75*
G02*
X149501100Y-128905200I-101600J0D01*
G01*
X147501100Y-128905200D01*
G75*
G02*
X147399500Y-128803600I0J101600D01*
G01*
G37*
G36*
G01*
X144859500Y-128803600D02*
X144859500Y-123503600D01*
G75*
G02*
X144961100Y-123402000I101600J0D01*
G01*
X146961100Y-123402000D01*
G75*
G02*
X147062700Y-123503600I0J-101600D01*
G01*
X147062700Y-128803600D01*
G75*
G02*
X146961100Y-128905200I-101600J0D01*
G01*
X144961100Y-128905200D01*
G75*
G02*
X144859500Y-128803600I0J101600D01*
G01*
G37*
G36*
G01*
X142319500Y-128803600D02*
X142319500Y-123503600D01*
G75*
G02*
X142421100Y-123402000I101600J0D01*
G01*
X144421100Y-123402000D01*
G75*
G02*
X144522700Y-123503600I0J-101600D01*
G01*
X144522700Y-128803600D01*
G75*
G02*
X144421100Y-128905200I-101600J0D01*
G01*
X142421100Y-128905200D01*
G75*
G02*
X142319500Y-128803600I0J101600D01*
G01*
G37*
G36*
G01*
X139779500Y-128803600D02*
X139779500Y-123503600D01*
G75*
G02*
X139881100Y-123402000I101600J0D01*
G01*
X141881100Y-123402000D01*
G75*
G02*
X141982700Y-123503600I0J-101600D01*
G01*
X141982700Y-128803600D01*
G75*
G02*
X141881100Y-128905200I-101600J0D01*
G01*
X139881100Y-128905200D01*
G75*
G02*
X139779500Y-128803600I0J101600D01*
G01*
G37*
G36*
G01*
X137239500Y-128803600D02*
X137239500Y-123503600D01*
G75*
G02*
X137341100Y-123402000I101600J0D01*
G01*
X139341100Y-123402000D01*
G75*
G02*
X139442700Y-123503600I0J-101600D01*
G01*
X139442700Y-128803600D01*
G75*
G02*
X139341100Y-128905200I-101600J0D01*
G01*
X137341100Y-128905200D01*
G75*
G02*
X137239500Y-128803600I0J101600D01*
G01*
G37*
G36*
G01*
X134699500Y-128803600D02*
X134699500Y-123503600D01*
G75*
G02*
X134801100Y-123402000I101600J0D01*
G01*
X136801100Y-123402000D01*
G75*
G02*
X136902700Y-123503600I0J-101600D01*
G01*
X136902700Y-128803600D01*
G75*
G02*
X136801100Y-128905200I-101600J0D01*
G01*
X134801100Y-128905200D01*
G75*
G02*
X134699500Y-128803600I0J101600D01*
G01*
G37*
G36*
G01*
X132159500Y-128803600D02*
X132159500Y-123503600D01*
G75*
G02*
X132261100Y-123402000I101600J0D01*
G01*
X134261100Y-123402000D01*
G75*
G02*
X134362700Y-123503600I0J-101600D01*
G01*
X134362700Y-128803600D01*
G75*
G02*
X134261100Y-128905200I-101600J0D01*
G01*
X132261100Y-128905200D01*
G75*
G02*
X132159500Y-128803600I0J101600D01*
G01*
G37*
G36*
G01*
X129619500Y-128803600D02*
X129619500Y-123503600D01*
G75*
G02*
X129721100Y-123402000I101600J0D01*
G01*
X131721100Y-123402000D01*
G75*
G02*
X131822700Y-123503600I0J-101600D01*
G01*
X131822700Y-128803600D01*
G75*
G02*
X131721100Y-128905200I-101600J0D01*
G01*
X129721100Y-128905200D01*
G75*
G02*
X129619500Y-128803600I0J101600D01*
G01*
G37*
G36*
G01*
X127079500Y-128803600D02*
X127079500Y-123503600D01*
G75*
G02*
X127181100Y-123402000I101600J0D01*
G01*
X129181100Y-123402000D01*
G75*
G02*
X129282700Y-123503600I0J-101600D01*
G01*
X129282700Y-128803600D01*
G75*
G02*
X129181100Y-128905200I-101600J0D01*
G01*
X127181100Y-128905200D01*
G75*
G02*
X127079500Y-128803600I0J101600D01*
G01*
G37*
G36*
G01*
X124539500Y-128803600D02*
X124539500Y-123503600D01*
G75*
G02*
X124641100Y-123402000I101600J0D01*
G01*
X126641100Y-123402000D01*
G75*
G02*
X126742700Y-123503600I0J-101600D01*
G01*
X126742700Y-128803600D01*
G75*
G02*
X126641100Y-128905200I-101600J0D01*
G01*
X124641100Y-128905200D01*
G75*
G02*
X124539500Y-128803600I0J101600D01*
G01*
G37*
G36*
G01*
X121999500Y-128803600D02*
X121999500Y-123503600D01*
G75*
G02*
X122101100Y-123402000I101600J0D01*
G01*
X124101100Y-123402000D01*
G75*
G02*
X124202700Y-123503600I0J-101600D01*
G01*
X124202700Y-128803600D01*
G75*
G02*
X124101100Y-128905200I-101600J0D01*
G01*
X122101100Y-128905200D01*
G75*
G02*
X121999500Y-128803600I0J101600D01*
G01*
G37*
G36*
G01*
X119459500Y-128803600D02*
X119459500Y-123503600D01*
G75*
G02*
X119561100Y-123402000I101600J0D01*
G01*
X121561100Y-123402000D01*
G75*
G02*
X121662700Y-123503600I0J-101600D01*
G01*
X121662700Y-128803600D01*
G75*
G02*
X121561100Y-128905200I-101600J0D01*
G01*
X119561100Y-128905200D01*
G75*
G02*
X119459500Y-128803600I0J101600D01*
G01*
G37*
G36*
G01*
X116919500Y-128803600D02*
X116919500Y-123503600D01*
G75*
G02*
X117021100Y-123402000I101600J0D01*
G01*
X119021100Y-123402000D01*
G75*
G02*
X119122700Y-123503600I0J-101600D01*
G01*
X119122700Y-128803600D01*
G75*
G02*
X119021100Y-128905200I-101600J0D01*
G01*
X117021100Y-128905200D01*
G75*
G02*
X116919500Y-128803600I0J101600D01*
G01*
G37*
%TD*%
%TO.C,LED1*%
G36*
G01*
X176511100Y-83132000D02*
X177311100Y-83132000D01*
G75*
G02*
X177412700Y-83233600I0J-101600D01*
G01*
X177412700Y-84033600D01*
G75*
G02*
X177311100Y-84135200I-101600J0D01*
G01*
X176511100Y-84135200D01*
G75*
G02*
X176409500Y-84033600I0J101600D01*
G01*
X176409500Y-83233600D01*
G75*
G02*
X176511100Y-83132000I101600J0D01*
G01*
G37*
G36*
G01*
X174861100Y-83132000D02*
X175661100Y-83132000D01*
G75*
G02*
X175762700Y-83233600I0J-101600D01*
G01*
X175762700Y-84033600D01*
G75*
G02*
X175661100Y-84135200I-101600J0D01*
G01*
X174861100Y-84135200D01*
G75*
G02*
X174759500Y-84033600I0J101600D01*
G01*
X174759500Y-83233600D01*
G75*
G02*
X174861100Y-83132000I101600J0D01*
G01*
G37*
%TD*%
%TO.C,LED2*%
G36*
G01*
X179451100Y-83132000D02*
X180251100Y-83132000D01*
G75*
G02*
X180352700Y-83233600I0J-101600D01*
G01*
X180352700Y-84033600D01*
G75*
G02*
X180251100Y-84135200I-101600J0D01*
G01*
X179451100Y-84135200D01*
G75*
G02*
X179349500Y-84033600I0J101600D01*
G01*
X179349500Y-83233600D01*
G75*
G02*
X179451100Y-83132000I101600J0D01*
G01*
G37*
G36*
G01*
X177801100Y-83132000D02*
X178601100Y-83132000D01*
G75*
G02*
X178702700Y-83233600I0J-101600D01*
G01*
X178702700Y-84033600D01*
G75*
G02*
X178601100Y-84135200I-101600J0D01*
G01*
X177801100Y-84135200D01*
G75*
G02*
X177699500Y-84033600I0J101600D01*
G01*
X177699500Y-83233600D01*
G75*
G02*
X177801100Y-83132000I101600J0D01*
G01*
G37*
%TD*%
%TO.C,LED3*%
G36*
G01*
X178631100Y-81875200D02*
X177831100Y-81875200D01*
G75*
G02*
X177729500Y-81773600I0J101600D01*
G01*
X177729500Y-80973600D01*
G75*
G02*
X177831100Y-80872000I101600J0D01*
G01*
X178631100Y-80872000D01*
G75*
G02*
X178732700Y-80973600I0J-101600D01*
G01*
X178732700Y-81773600D01*
G75*
G02*
X178631100Y-81875200I-101600J0D01*
G01*
G37*
G36*
G01*
X180281100Y-81875200D02*
X179481100Y-81875200D01*
G75*
G02*
X179379500Y-81773600I0J101600D01*
G01*
X179379500Y-80973600D01*
G75*
G02*
X179481100Y-80872000I101600J0D01*
G01*
X180281100Y-80872000D01*
G75*
G02*
X180382700Y-80973600I0J-101600D01*
G01*
X180382700Y-81773600D01*
G75*
G02*
X180281100Y-81875200I-101600J0D01*
G01*
G37*
%TD*%
%TO.C,LED4*%
G36*
G01*
X176511100Y-85352000D02*
X177311100Y-85352000D01*
G75*
G02*
X177412700Y-85453600I0J-101600D01*
G01*
X177412700Y-86253600D01*
G75*
G02*
X177311100Y-86355200I-101600J0D01*
G01*
X176511100Y-86355200D01*
G75*
G02*
X176409500Y-86253600I0J101600D01*
G01*
X176409500Y-85453600D01*
G75*
G02*
X176511100Y-85352000I101600J0D01*
G01*
G37*
G36*
G01*
X174861100Y-85352000D02*
X175661100Y-85352000D01*
G75*
G02*
X175762700Y-85453600I0J-101600D01*
G01*
X175762700Y-86253600D01*
G75*
G02*
X175661100Y-86355200I-101600J0D01*
G01*
X174861100Y-86355200D01*
G75*
G02*
X174759500Y-86253600I0J101600D01*
G01*
X174759500Y-85453600D01*
G75*
G02*
X174861100Y-85352000I101600J0D01*
G01*
G37*
%TD*%
%TO.C,R11*%
G36*
G01*
X174885001Y-111171600D02*
X173234999Y-111171600D01*
G75*
G02*
X173133400Y-111070001I0J101599D01*
G01*
X173133400Y-109669999D01*
G75*
G02*
X173234999Y-109568400I101599J0D01*
G01*
X174885001Y-109568400D01*
G75*
G02*
X174986600Y-109669999I0J-101599D01*
G01*
X174986600Y-111070001D01*
G75*
G02*
X174885001Y-111171600I-101599J0D01*
G01*
G37*
G36*
G01*
X174885001Y-113771600D02*
X173234999Y-113771600D01*
G75*
G02*
X173133400Y-113670001I0J101599D01*
G01*
X173133400Y-112269999D01*
G75*
G02*
X173234999Y-112168400I101599J0D01*
G01*
X174885001Y-112168400D01*
G75*
G02*
X174986600Y-112269999I0J-101599D01*
G01*
X174986600Y-113670001D01*
G75*
G02*
X174885001Y-113771600I-101599J0D01*
G01*
G37*
%TD*%
%TO.C,R22*%
G36*
G01*
X172839500Y-82178601D02*
X172839500Y-80528599D01*
G75*
G02*
X172941099Y-80427000I101599J0D01*
G01*
X174341101Y-80427000D01*
G75*
G02*
X174442700Y-80528599I0J-101599D01*
G01*
X174442700Y-82178601D01*
G75*
G02*
X174341101Y-82280200I-101599J0D01*
G01*
X172941099Y-82280200D01*
G75*
G02*
X172839500Y-82178601I0J101599D01*
G01*
G37*
G36*
G01*
X170239500Y-82178601D02*
X170239500Y-80528599D01*
G75*
G02*
X170341099Y-80427000I101599J0D01*
G01*
X171741101Y-80427000D01*
G75*
G02*
X171842700Y-80528599I0J-101599D01*
G01*
X171842700Y-82178601D01*
G75*
G02*
X171741101Y-82280200I-101599J0D01*
G01*
X170341099Y-82280200D01*
G75*
G02*
X170239500Y-82178601I0J101599D01*
G01*
G37*
%TD*%
%TO.C,R3*%
G36*
G01*
X172809500Y-84488601D02*
X172809500Y-82838599D01*
G75*
G02*
X172911099Y-82737000I101599J0D01*
G01*
X174311101Y-82737000D01*
G75*
G02*
X174412700Y-82838599I0J-101599D01*
G01*
X174412700Y-84488601D01*
G75*
G02*
X174311101Y-84590200I-101599J0D01*
G01*
X172911099Y-84590200D01*
G75*
G02*
X172809500Y-84488601I0J101599D01*
G01*
G37*
G36*
G01*
X170209500Y-84488601D02*
X170209500Y-82838599D01*
G75*
G02*
X170311099Y-82737000I101599J0D01*
G01*
X171711101Y-82737000D01*
G75*
G02*
X171812700Y-82838599I0J-101599D01*
G01*
X171812700Y-84488601D01*
G75*
G02*
X171711101Y-84590200I-101599J0D01*
G01*
X170311099Y-84590200D01*
G75*
G02*
X170209500Y-84488601I0J101599D01*
G01*
G37*
%TD*%
%TO.C,R4*%
G36*
G01*
X174519500Y-95025001D02*
X174519500Y-93374999D01*
G75*
G02*
X174621099Y-93273400I101599J0D01*
G01*
X176021101Y-93273400D01*
G75*
G02*
X176122700Y-93374999I0J-101599D01*
G01*
X176122700Y-95025001D01*
G75*
G02*
X176021101Y-95126600I-101599J0D01*
G01*
X174621099Y-95126600D01*
G75*
G02*
X174519500Y-95025001I0J101599D01*
G01*
G37*
G36*
G01*
X171919500Y-95025001D02*
X171919500Y-93374999D01*
G75*
G02*
X172021099Y-93273400I101599J0D01*
G01*
X173421101Y-93273400D01*
G75*
G02*
X173522700Y-93374999I0J-101599D01*
G01*
X173522700Y-95025001D01*
G75*
G02*
X173421101Y-95126600I-101599J0D01*
G01*
X172021099Y-95126600D01*
G75*
G02*
X171919500Y-95025001I0J101599D01*
G01*
G37*
%TD*%
%TO.C,R5*%
G36*
G01*
X177752700Y-93374999D02*
X177752700Y-95025001D01*
G75*
G02*
X177651101Y-95126600I-101599J0D01*
G01*
X176251099Y-95126600D01*
G75*
G02*
X176149500Y-95025001I0J101599D01*
G01*
X176149500Y-93374999D01*
G75*
G02*
X176251099Y-93273400I101599J0D01*
G01*
X177651101Y-93273400D01*
G75*
G02*
X177752700Y-93374999I0J-101599D01*
G01*
G37*
G36*
G01*
X180352700Y-93374999D02*
X180352700Y-95025001D01*
G75*
G02*
X180251101Y-95126600I-101599J0D01*
G01*
X178851099Y-95126600D01*
G75*
G02*
X178749500Y-95025001I0J101599D01*
G01*
X178749500Y-93374999D01*
G75*
G02*
X178851099Y-93273400I101599J0D01*
G01*
X180251101Y-93273400D01*
G75*
G02*
X180352700Y-93374999I0J-101599D01*
G01*
G37*
%TD*%
%TO.C,R7*%
G36*
G01*
X173402700Y-86978599D02*
X173402700Y-88628601D01*
G75*
G02*
X173301101Y-88730200I-101599J0D01*
G01*
X171901099Y-88730200D01*
G75*
G02*
X171799500Y-88628601I0J101599D01*
G01*
X171799500Y-86978599D01*
G75*
G02*
X171901099Y-86877000I101599J0D01*
G01*
X173301101Y-86877000D01*
G75*
G02*
X173402700Y-86978599I0J-101599D01*
G01*
G37*
G36*
G01*
X176002700Y-86978599D02*
X176002700Y-88628601D01*
G75*
G02*
X175901101Y-88730200I-101599J0D01*
G01*
X174501099Y-88730200D01*
G75*
G02*
X174399500Y-88628601I0J101599D01*
G01*
X174399500Y-86978599D01*
G75*
G02*
X174501099Y-86877000I101599J0D01*
G01*
X175901101Y-86877000D01*
G75*
G02*
X176002700Y-86978599I0J-101599D01*
G01*
G37*
%TD*%
%TO.C,R8*%
G36*
G01*
X178719500Y-88628601D02*
X178719500Y-86978599D01*
G75*
G02*
X178821099Y-86877000I101599J0D01*
G01*
X180221101Y-86877000D01*
G75*
G02*
X180322700Y-86978599I0J-101599D01*
G01*
X180322700Y-88628601D01*
G75*
G02*
X180221101Y-88730200I-101599J0D01*
G01*
X178821099Y-88730200D01*
G75*
G02*
X178719500Y-88628601I0J101599D01*
G01*
G37*
G36*
G01*
X176119500Y-88628601D02*
X176119500Y-86978599D01*
G75*
G02*
X176221099Y-86877000I101599J0D01*
G01*
X177621101Y-86877000D01*
G75*
G02*
X177722700Y-86978599I0J-101599D01*
G01*
X177722700Y-88628601D01*
G75*
G02*
X177621101Y-88730200I-101599J0D01*
G01*
X176221099Y-88730200D01*
G75*
G02*
X176119500Y-88628601I0J101599D01*
G01*
G37*
%TD*%
%TO.C,SA*%
G36*
G01*
X171701100Y-97090200D02*
X170101100Y-97090200D01*
G75*
G02*
X169999500Y-96988600I0J101600D01*
G01*
X169999500Y-95938600D01*
G75*
G02*
X170101100Y-95837000I101600J0D01*
G01*
X171701100Y-95837000D01*
G75*
G02*
X171802700Y-95938600I0J-101600D01*
G01*
X171802700Y-96988600D01*
G75*
G02*
X171701100Y-97090200I-101600J0D01*
G01*
G37*
G36*
G01*
X171701100Y-101540200D02*
X170101100Y-101540200D01*
G75*
G02*
X169999500Y-101438600I0J101600D01*
G01*
X169999500Y-100388600D01*
G75*
G02*
X170101100Y-100287000I101600J0D01*
G01*
X171701100Y-100287000D01*
G75*
G02*
X171802700Y-100388600I0J-101600D01*
G01*
X171802700Y-101438600D01*
G75*
G02*
X171701100Y-101540200I-101600J0D01*
G01*
G37*
%TD*%
%TO.C,SB*%
G36*
G01*
X177121100Y-100267000D02*
X178721100Y-100267000D01*
G75*
G02*
X178822700Y-100368600I0J-101600D01*
G01*
X178822700Y-101418600D01*
G75*
G02*
X178721100Y-101520200I-101600J0D01*
G01*
X177121100Y-101520200D01*
G75*
G02*
X177019500Y-101418600I0J101600D01*
G01*
X177019500Y-100368600D01*
G75*
G02*
X177121100Y-100267000I101600J0D01*
G01*
G37*
G36*
G01*
X177121100Y-95817000D02*
X178721100Y-95817000D01*
G75*
G02*
X178822700Y-95918600I0J-101600D01*
G01*
X178822700Y-96968600D01*
G75*
G02*
X178721100Y-97070200I-101600J0D01*
G01*
X177121100Y-97070200D01*
G75*
G02*
X177019500Y-96968600I0J101600D01*
G01*
X177019500Y-95918600D01*
G75*
G02*
X177121100Y-95817000I101600J0D01*
G01*
G37*
%TD*%
%TO.C,SW3*%
G36*
G01*
X178751100Y-114385200D02*
X177851100Y-114385200D01*
G75*
G02*
X177749500Y-114283600I0J101600D01*
G01*
X177749500Y-113083600D01*
G75*
G02*
X177851100Y-112982000I101600J0D01*
G01*
X178751100Y-112982000D01*
G75*
G02*
X178852700Y-113083600I0J-101600D01*
G01*
X178852700Y-114283600D01*
G75*
G02*
X178751100Y-114385200I-101600J0D01*
G01*
G37*
G36*
G01*
X178751100Y-110385200D02*
X177851100Y-110385200D01*
G75*
G02*
X177749500Y-110283600I0J101600D01*
G01*
X177749500Y-109083600D01*
G75*
G02*
X177851100Y-108982000I101600J0D01*
G01*
X178751100Y-108982000D01*
G75*
G02*
X178852700Y-109083600I0J-101600D01*
G01*
X178852700Y-110283600D01*
G75*
G02*
X178751100Y-110385200I-101600J0D01*
G01*
G37*
G36*
G01*
X180251100Y-110385200D02*
X179351100Y-110385200D01*
G75*
G02*
X179249500Y-110283600I0J101600D01*
G01*
X179249500Y-109083600D01*
G75*
G02*
X179351100Y-108982000I101600J0D01*
G01*
X180251100Y-108982000D01*
G75*
G02*
X180352700Y-109083600I0J-101600D01*
G01*
X180352700Y-110283600D01*
G75*
G02*
X180251100Y-110385200I-101600J0D01*
G01*
G37*
G36*
G01*
X180251100Y-114385200D02*
X179351100Y-114385200D01*
G75*
G02*
X179249500Y-114283600I0J101600D01*
G01*
X179249500Y-113083600D01*
G75*
G02*
X179351100Y-112982000I101600J0D01*
G01*
X180251100Y-112982000D01*
G75*
G02*
X180352700Y-113083600I0J-101600D01*
G01*
X180352700Y-114283600D01*
G75*
G02*
X180251100Y-114385200I-101600J0D01*
G01*
G37*
%TD*%
D11*
%TO.C,SW4*%
X176901100Y-104413600D03*
X171901100Y-104413600D03*
X174401100Y-104413600D03*
%TD*%
%TO.C,TR1*%
G36*
G01*
X174311100Y-90301600D02*
X173511100Y-90301600D01*
G75*
G02*
X173409500Y-90200000I0J101600D01*
G01*
X173409500Y-89200000D01*
G75*
G02*
X173511100Y-89098400I101600J0D01*
G01*
X174311100Y-89098400D01*
G75*
G02*
X174412700Y-89200000I0J-101600D01*
G01*
X174412700Y-90200000D01*
G75*
G02*
X174311100Y-90301600I-101600J0D01*
G01*
G37*
G36*
G01*
X173361100Y-92701600D02*
X172561100Y-92701600D01*
G75*
G02*
X172459500Y-92600000I0J101600D01*
G01*
X172459500Y-91600000D01*
G75*
G02*
X172561100Y-91498400I101600J0D01*
G01*
X173361100Y-91498400D01*
G75*
G02*
X173462700Y-91600000I0J-101600D01*
G01*
X173462700Y-92600000D01*
G75*
G02*
X173361100Y-92701600I-101600J0D01*
G01*
G37*
G36*
G01*
X175261100Y-92701600D02*
X174461100Y-92701600D01*
G75*
G02*
X174359500Y-92600000I0J101600D01*
G01*
X174359500Y-91600000D01*
G75*
G02*
X174461100Y-91498400I101600J0D01*
G01*
X175261100Y-91498400D01*
G75*
G02*
X175362700Y-91600000I0J-101600D01*
G01*
X175362700Y-92600000D01*
G75*
G02*
X175261100Y-92701600I-101600J0D01*
G01*
G37*
%TD*%
%TO.C,TR2*%
G36*
G01*
X178611100Y-90301600D02*
X177811100Y-90301600D01*
G75*
G02*
X177709500Y-90200000I0J101600D01*
G01*
X177709500Y-89200000D01*
G75*
G02*
X177811100Y-89098400I101600J0D01*
G01*
X178611100Y-89098400D01*
G75*
G02*
X178712700Y-89200000I0J-101600D01*
G01*
X178712700Y-90200000D01*
G75*
G02*
X178611100Y-90301600I-101600J0D01*
G01*
G37*
G36*
G01*
X177661100Y-92701600D02*
X176861100Y-92701600D01*
G75*
G02*
X176759500Y-92600000I0J101600D01*
G01*
X176759500Y-91600000D01*
G75*
G02*
X176861100Y-91498400I101600J0D01*
G01*
X177661100Y-91498400D01*
G75*
G02*
X177762700Y-91600000I0J-101600D01*
G01*
X177762700Y-92600000D01*
G75*
G02*
X177661100Y-92701600I-101600J0D01*
G01*
G37*
G36*
G01*
X179561100Y-92701600D02*
X178761100Y-92701600D01*
G75*
G02*
X178659500Y-92600000I0J101600D01*
G01*
X178659500Y-91600000D01*
G75*
G02*
X178761100Y-91498400I101600J0D01*
G01*
X179561100Y-91498400D01*
G75*
G02*
X179662700Y-91600000I0J-101600D01*
G01*
X179662700Y-92600000D01*
G75*
G02*
X179561100Y-92701600I-101600J0D01*
G01*
G37*
%TD*%
M02*
