%TF.GenerationSoftware,KiCad,Pcbnew,(5.1.10)-1*%
%TF.CreationDate,2022-07-02T10:42:47+09:00*%
%TF.ProjectId,DriveUnit_B-series(ver1.0),44726976-6555-46e6-9974-5f422d736572,rev?*%
%TF.SameCoordinates,Original*%
%TF.FileFunction,Paste,Top*%
%TF.FilePolarity,Positive*%
%FSLAX46Y46*%
G04 Gerber Fmt 4.6, Leading zero omitted, Abs format (unit mm)*
G04 Created by KiCad (PCBNEW (5.1.10)-1) date 2022-07-02 10:42:47*
%MOMM*%
%LPD*%
G01*
G04 APERTURE LIST*
%ADD10R,12.700000X11.938000*%
%ADD11R,0.800000X1.000000*%
%ADD12R,1.600000X1.050000*%
%ADD13R,1.650000X1.400000*%
%ADD14R,1.400000X1.650000*%
%ADD15R,0.800000X0.800000*%
%ADD16R,1.220000X0.780000*%
%ADD17R,0.900000X1.200000*%
%ADD18R,2.000000X5.300000*%
G04 APERTURE END LIST*
D10*
%TO.C,3813-HA1*%
X126831100Y-86788200D03*
%TD*%
%TO.C,3813-HB1*%
X140951100Y-86788200D03*
%TD*%
%TO.C,3813-LA1*%
X124251100Y-114859000D03*
%TD*%
%TO.C,3813-LB1*%
X138641100Y-114859000D03*
%TD*%
D11*
%TO.C,TR1*%
X177591100Y-89663600D03*
X176641100Y-92063600D03*
X178541100Y-92063600D03*
%TD*%
%TO.C,TR2*%
X170861100Y-89853600D03*
X169911100Y-92253600D03*
X171811100Y-92253600D03*
%TD*%
D12*
%TO.C,SW1*%
X171251100Y-107943600D03*
X171251100Y-103493600D03*
%TD*%
%TO.C,SW2*%
X178541100Y-107943600D03*
X178541100Y-103493600D03*
%TD*%
D13*
%TO.C,R11*%
X175851100Y-111823600D03*
X175851100Y-114423600D03*
%TD*%
D14*
%TO.C,R3*%
X172191100Y-84083600D03*
X169591100Y-84083600D03*
%TD*%
%TO.C,R22*%
X176306100Y-81853600D03*
X173706100Y-81853600D03*
%TD*%
%TO.C,R5*%
X178671100Y-94863600D03*
X176071100Y-94863600D03*
%TD*%
%TO.C,R6*%
X169951100Y-94903600D03*
X172551100Y-94903600D03*
%TD*%
%TO.C,R7*%
X178841100Y-87703600D03*
X176241100Y-87703600D03*
%TD*%
%TO.C,R8*%
X169581100Y-87703600D03*
X172181100Y-87703600D03*
%TD*%
D15*
%TO.C,LED4*%
X179361100Y-85903600D03*
X177711100Y-85903600D03*
%TD*%
%TO.C,LED5*%
X176131100Y-85903600D03*
X174481100Y-85903600D03*
%TD*%
D16*
%TO.C,D8*%
X173931100Y-107473600D03*
X173931100Y-103993600D03*
%TD*%
%TO.C,D9*%
X175971100Y-107473600D03*
X175971100Y-103993600D03*
%TD*%
D17*
%TO.C,SW3*%
X178311100Y-115013600D03*
X178311100Y-111013600D03*
X179811100Y-111013600D03*
X179811100Y-115013600D03*
%TD*%
D18*
%TO.C,EDGE1*%
X178981100Y-126153600D03*
X176441100Y-126153600D03*
X173901100Y-126153600D03*
X171361100Y-126153600D03*
X168821100Y-126153600D03*
X166281100Y-126153600D03*
X163741100Y-126153600D03*
X161201100Y-126153600D03*
X158661100Y-126153600D03*
X156121100Y-126153600D03*
X153581100Y-126153600D03*
X151041100Y-126153600D03*
X148501100Y-126153600D03*
X145961100Y-126153600D03*
X143421100Y-126153600D03*
X140881100Y-126153600D03*
X138341100Y-126153600D03*
X135801100Y-126153600D03*
X133261100Y-126153600D03*
X130721100Y-126153600D03*
X128181100Y-126153600D03*
X125641100Y-126153600D03*
X123101100Y-126153600D03*
X120561100Y-126153600D03*
X118021100Y-126153600D03*
%TD*%
D15*
%TO.C,LED1*%
X179361100Y-84053600D03*
X177711100Y-84053600D03*
%TD*%
%TO.C,LED2*%
X176111100Y-84053600D03*
X174461100Y-84053600D03*
%TD*%
%TO.C,LED3*%
X177711100Y-82003600D03*
X179361100Y-82003600D03*
%TD*%
M02*
