M48
; DRILL file {KiCad (5.1.10)-1} date 06/25/22 13:40:56
; FORMAT={-:-/ absolute / inch / decimal}
; #@! TF.CreationDate,2022-06-25T13:40:56+09:00
; #@! TF.GenerationSoftware,Kicad,Pcbnew,(5.1.10)-1
FMAT,2
INCH
T1C0.0138
T2C0.0193
T3C0.0197
T4C0.0315
%
G90
G05
T1
X4.6087Y-4.2021
X4.6087Y-4.2643
X4.6087Y-4.7793
X4.6087Y-4.8415
X4.6209Y-4.3155
X4.6209Y-4.3513
X4.6209Y-4.3871
X4.6209Y-4.423
X4.6209Y-4.4588
X4.6209Y-4.4946
X4.6209Y-4.5305
X4.6209Y-4.5663
X4.6209Y-4.6021
X4.6209Y-4.6379
X4.6209Y-4.6738
X4.6209Y-4.7096
X4.6209Y-4.7454
X4.6266Y-4.2332
X4.6266Y-4.8104
X4.6445Y-4.2021
X4.6445Y-4.2643
X4.6445Y-4.7793
X4.6445Y-4.8415
X4.6624Y-4.2332
X4.6624Y-4.8104
X4.6804Y-4.2021
X4.6804Y-4.2643
X4.6804Y-4.7793
X4.6804Y-4.8415
X4.6983Y-4.2332
X4.6983Y-4.8104
X4.7162Y-4.2021
X4.7162Y-4.2643
X4.7162Y-4.7793
X4.7162Y-4.8415
X4.7341Y-4.2332
X4.7341Y-4.8104
X4.752Y-4.2021
X4.752Y-4.2643
X4.752Y-4.7793
X4.752Y-4.8415
X4.7699Y-4.2332
X4.7699Y-4.8104
X4.7878Y-4.2021
X4.7878Y-4.2643
X4.7878Y-4.7793
X4.7878Y-4.8415
X4.8058Y-4.2332
X4.8058Y-4.8104
X4.8237Y-4.2021
X4.8237Y-4.2643
X4.8237Y-4.7793
X4.8237Y-4.8415
X4.8416Y-4.2332
X4.8416Y-4.8104
X4.8595Y-4.2021
X4.8595Y-4.2643
X4.8595Y-4.7793
X4.8595Y-4.8415
X4.8774Y-4.2332
X4.8774Y-4.8104
X4.8953Y-4.2021
X4.8953Y-4.2643
X4.8953Y-4.7793
X4.8953Y-4.8415
X4.9132Y-4.2332
X4.9132Y-4.8104
X4.9311Y-4.2021
X4.9311Y-4.2643
X4.9311Y-4.7793
X4.9311Y-4.8415
X4.9491Y-4.2332
X4.9491Y-4.8104
X4.967Y-4.2021
X4.967Y-4.2643
X4.967Y-4.7793
X4.967Y-4.8415
X4.9849Y-4.2332
X4.9849Y-4.8104
X5.0028Y-4.2021
X5.0028Y-4.2643
X5.0028Y-4.7793
X5.0028Y-4.8415
X5.0207Y-4.2332
X5.0207Y-4.8104
X5.0386Y-4.2021
X5.0386Y-4.2643
X5.0386Y-4.7793
X5.0386Y-4.8415
X5.0565Y-4.2332
X5.0565Y-4.8104
X5.0745Y-4.2021
X5.0745Y-4.2643
X5.0745Y-4.7793
X5.0745Y-4.8415
X5.0924Y-4.2332
X5.0924Y-4.8104
X5.1103Y-4.2021
X5.1103Y-4.2643
X5.1103Y-4.7793
X5.1116Y-4.8402
X5.1282Y-4.2332
X5.1282Y-4.8104
X5.1461Y-4.2021
X5.1461Y-4.2643
X5.1461Y-4.7793
X5.1472Y-4.8412
X5.1626Y-4.3155
X5.1626Y-4.3513
X5.1626Y-4.3871
X5.1626Y-4.423
X5.1626Y-4.4588
X5.1626Y-4.4946
X5.1626Y-4.5305
X5.1626Y-4.5663
X5.1626Y-4.6021
X5.1626Y-4.6379
X5.1626Y-4.6738
X5.1626Y-4.7096
X5.1626Y-4.7454
X5.164Y-4.2332
X5.164Y-4.8104
X5.215Y-4.2037
X5.215Y-4.2659
X5.2178Y-4.7793
X5.2178Y-4.8415
X5.2329Y-4.2348
X5.2357Y-4.8104
X5.2508Y-4.2037
X5.2508Y-4.2659
X5.2536Y-4.7793
X5.2536Y-4.8415
X5.2687Y-4.2348
X5.2715Y-4.8104
X5.2867Y-4.2037
X5.2867Y-4.2659
X5.2894Y-4.7793
X5.2894Y-4.8415
X5.3046Y-4.2348
X5.3073Y-4.8104
X5.3225Y-4.2037
X5.3225Y-4.2659
X5.3252Y-4.7793
X5.3252Y-4.8415
X5.3404Y-4.2348
X5.3432Y-4.8104
X5.3583Y-4.2037
X5.3583Y-4.2659
X5.3611Y-4.7793
X5.3611Y-4.8415
X5.3762Y-4.2348
X5.379Y-4.8104
X5.3941Y-4.2037
X5.3941Y-4.2659
X5.3969Y-4.7793
X5.3969Y-4.8415
X5.4121Y-4.2348
X5.4148Y-4.8104
X5.43Y-4.2037
X5.43Y-4.2659
X5.4327Y-4.7793
X5.4327Y-4.8415
X5.4479Y-4.2348
X5.4506Y-4.8104
X5.4658Y-4.2037
X5.4658Y-4.2659
X5.4685Y-4.7793
X5.4685Y-4.8415
X5.4837Y-4.2348
X5.4865Y-4.8104
X5.5016Y-4.2037
X5.5016Y-4.2659
X5.5044Y-4.7793
X5.5044Y-4.8415
X5.5195Y-4.2348
X5.5223Y-4.8104
X5.5374Y-4.2037
X5.5374Y-4.2659
X5.5402Y-4.7793
X5.5402Y-4.8415
X5.5554Y-4.2348
X5.5581Y-4.8104
X5.5733Y-4.2037
X5.5733Y-4.2659
X5.576Y-4.7793
X5.576Y-4.8415
X5.5912Y-4.2348
X5.5939Y-4.8104
X5.6091Y-4.2037
X5.6091Y-4.2659
X5.6119Y-4.7793
X5.6119Y-4.8415
X5.627Y-4.2348
X5.6298Y-4.8104
X5.6449Y-4.2037
X5.6449Y-4.2659
X5.6477Y-4.7793
X5.6477Y-4.8415
X5.6628Y-4.2348
X5.6656Y-4.8104
X5.6808Y-4.2037
X5.6808Y-4.2659
X5.6835Y-4.7793
X5.6835Y-4.8415
X5.6987Y-4.2348
X5.7014Y-4.8104
X5.7166Y-4.2037
X5.7166Y-4.2659
X5.7193Y-4.7793
X5.7204Y-4.84
X5.7345Y-4.2348
X5.7359Y-4.3155
X5.7359Y-4.3513
X5.7359Y-4.3871
X5.7359Y-4.423
X5.7359Y-4.4588
X5.7359Y-4.4946
X5.7359Y-4.5305
X5.7359Y-4.5663
X5.7359Y-4.6021
X5.7359Y-4.6379
X5.7359Y-4.6738
X5.7359Y-4.7096
X5.7359Y-4.7454
X5.7372Y-4.8104
X5.7524Y-4.2037
X5.7524Y-4.2659
X5.7552Y-4.7793
X5.7552Y-4.8382
X5.7703Y-4.2348
X5.7717Y-4.3155
X5.7717Y-4.3513
X5.7717Y-4.3871
X5.7717Y-4.423
X5.7717Y-4.4588
X5.7717Y-4.4946
X5.7717Y-4.5305
X5.7717Y-4.5663
X5.7717Y-4.6021
X5.7717Y-4.6379
X5.7717Y-4.6738
X5.7717Y-4.7096
X5.7717Y-4.7454
X5.7731Y-4.8104
X5.8434Y-4.4214
X5.8434Y-4.4572
X5.8434Y-4.4931
X5.8434Y-4.5289
X5.8434Y-4.5647
X5.8434Y-4.6005
X5.8434Y-4.6364
X5.8434Y-4.6722
X5.8434Y-4.708
X5.8434Y-4.7438
X5.8434Y-4.7797
X5.8434Y-4.8155
X5.8792Y-4.4214
X5.8792Y-4.4572
X5.8792Y-4.4931
X5.8792Y-4.5289
X5.8792Y-4.5647
X5.8792Y-4.6005
X5.8792Y-4.6364
X5.8792Y-4.6722
X5.8792Y-4.708
X5.8792Y-4.7438
X5.8792Y-4.7797
X5.8792Y-4.8155
X5.915Y-4.4214
X5.915Y-4.4572
X5.915Y-4.4931
X5.915Y-4.5289
X5.915Y-4.5647
X5.915Y-4.6005
X5.915Y-4.6364
X5.915Y-4.6722
X5.915Y-4.708
X5.915Y-4.7438
X5.915Y-4.7797
X5.915Y-4.8155
X5.9508Y-4.4214
X5.9508Y-4.4572
X5.9508Y-4.4931
X5.9508Y-4.5289
X5.9508Y-4.5647
X5.9508Y-4.6005
X5.9508Y-4.6364
X5.9508Y-4.6722
X5.9508Y-4.708
X5.9508Y-4.7438
X5.9508Y-4.7797
X5.9508Y-4.8155
X5.9867Y-4.4214
X5.9867Y-4.4572
X5.9867Y-4.4931
X5.9867Y-4.5289
X5.9867Y-4.5647
X5.9867Y-4.6005
X5.9867Y-4.6364
X5.9867Y-4.6722
X5.9867Y-4.708
X5.9867Y-4.7438
X5.9867Y-4.7797
X5.9867Y-4.8155
X6.0225Y-4.4214
X6.0225Y-4.4572
X6.0225Y-4.4931
X6.0225Y-4.5289
X6.0225Y-4.5647
X6.0225Y-4.6005
X6.0225Y-4.6364
X6.0225Y-4.6722
X6.0225Y-4.708
X6.0225Y-4.7438
X6.0225Y-4.7797
X6.0225Y-4.8155
X6.0583Y-4.4572
X6.0583Y-4.4931
X6.0583Y-4.5289
X6.0583Y-4.5647
X6.0583Y-4.6005
X6.0583Y-4.6364
X6.0583Y-4.6722
X6.0583Y-4.708
X6.0583Y-4.7438
X6.0583Y-4.7797
X6.0583Y-4.8155
X6.0941Y-4.4931
X6.0941Y-4.5289
X6.0941Y-4.5647
X6.0941Y-4.6005
X6.0941Y-4.6364
X6.0941Y-4.6722
X6.0941Y-4.708
X6.0941Y-4.7438
X6.0941Y-4.7797
X6.0941Y-4.8155
X6.13Y-4.5289
X6.13Y-4.5647
X6.13Y-4.6005
X6.13Y-4.6364
X6.13Y-4.6722
X6.13Y-4.708
X6.13Y-4.7438
X6.13Y-4.7797
X6.13Y-4.8155
X6.1658Y-4.4931
X6.1658Y-4.5289
X6.1658Y-4.5647
X6.1658Y-4.6005
X6.1658Y-4.6364
X6.1658Y-4.6722
X6.1658Y-4.708
X6.1658Y-4.7438
X6.1658Y-4.7797
X6.1658Y-4.8155
X6.2016Y-4.4931
X6.2016Y-4.5289
X6.2016Y-4.5647
X6.2016Y-4.6005
X6.2016Y-4.6364
X6.2016Y-4.6722
X6.2016Y-4.708
X6.2016Y-4.7438
X6.2016Y-4.7797
X6.2016Y-4.8155
T2
X6.89Y-3.1885
T3
X5.8075Y-3.7407
X5.8079Y-3.8041
X6.1654Y-3.5173
X6.1699Y-3.4068
X6.2701Y-3.4557
X6.2967Y-3.7423
X6.3032Y-3.5175
X6.3819Y-3.4265
X6.4205Y-3.4856
X6.4646Y-3.6655
X6.4697Y-3.5765
X6.4867Y-3.4648
X6.5599Y-3.6332
X6.6315Y-3.6332
X6.6386Y-3.2214
X6.6872Y-3.5142
X6.7583Y-4.6655
X6.8437Y-3.6627
X6.8496Y-3.71
X6.8603Y-3.4883
X6.9473Y-4.7151
X7.0209Y-4.5761
T4
X4.7918Y-3.971
X4.8934Y-3.9679
X4.9918Y-3.971
X5.0934Y-3.9679
X5.3583Y-3.971
X5.4493Y-3.9679
X5.5583Y-3.971
X5.6493Y-3.9679
X6.0422Y-4.1873
X6.1406Y-4.0168
X6.2566Y-4.58
X6.4534Y-4.58
X6.7969Y-3.9005
X6.8953Y-3.9005
X6.9937Y-3.9005
T0
M30
