%TF.GenerationSoftware,KiCad,Pcbnew,(5.1.10)-1*%
%TF.CreationDate,2022-07-01T20:56:52+09:00*%
%TF.ProjectId,DriveUnit_B-series(ver1.0),44726976-6555-46e6-9974-5f422d736572,rev?*%
%TF.SameCoordinates,Original*%
%TF.FileFunction,Soldermask,Top*%
%TF.FilePolarity,Negative*%
%FSLAX46Y46*%
G04 Gerber Fmt 4.6, Leading zero omitted, Abs format (unit mm)*
G04 Created by KiCad (PCBNEW (5.1.10)-1) date 2022-07-01 20:56:52*
%MOMM*%
%LPD*%
G01*
G04 APERTURE LIST*
%ADD10O,1.511200X2.819200*%
%ADD11C,1.511200*%
G04 APERTURE END LIST*
%TO.C,3813-HA1*%
G36*
G01*
X120379500Y-92757201D02*
X120379500Y-80819199D01*
G75*
G02*
X120481099Y-80717600I101599J0D01*
G01*
X133181101Y-80717600D01*
G75*
G02*
X133282700Y-80819199I0J-101599D01*
G01*
X133282700Y-92757201D01*
G75*
G02*
X133181101Y-92858800I-101599J0D01*
G01*
X120481099Y-92858800D01*
G75*
G02*
X120379500Y-92757201I0J101599D01*
G01*
G37*
D10*
X129371100Y-100783600D03*
X124291100Y-100783600D03*
%TD*%
%TO.C,3813-HB1*%
G36*
G01*
X134499500Y-92757201D02*
X134499500Y-80819199D01*
G75*
G02*
X134601099Y-80717600I101599J0D01*
G01*
X147301101Y-80717600D01*
G75*
G02*
X147402700Y-80819199I0J-101599D01*
G01*
X147402700Y-92757201D01*
G75*
G02*
X147301101Y-92858800I-101599J0D01*
G01*
X134601099Y-92858800D01*
G75*
G02*
X134499500Y-92757201I0J101599D01*
G01*
G37*
X143491100Y-100783600D03*
X138411100Y-100783600D03*
%TD*%
%TO.C,3813-LA1*%
G36*
G01*
X130702700Y-108889999D02*
X130702700Y-120828001D01*
G75*
G02*
X130601101Y-120929600I-101599J0D01*
G01*
X117901099Y-120929600D01*
G75*
G02*
X117799500Y-120828001I0J101599D01*
G01*
X117799500Y-108889999D01*
G75*
G02*
X117901099Y-108788400I101599J0D01*
G01*
X130601101Y-108788400D01*
G75*
G02*
X130702700Y-108889999I0J-101599D01*
G01*
G37*
X121711100Y-100863600D03*
X126791100Y-100863600D03*
%TD*%
%TO.C,3813-LB1*%
G36*
G01*
X145092700Y-108889999D02*
X145092700Y-120828001D01*
G75*
G02*
X144991101Y-120929600I-101599J0D01*
G01*
X132291099Y-120929600D01*
G75*
G02*
X132189500Y-120828001I0J101599D01*
G01*
X132189500Y-108889999D01*
G75*
G02*
X132291099Y-108788400I101599J0D01*
G01*
X144991101Y-108788400D01*
G75*
G02*
X145092700Y-108889999I0J-101599D01*
G01*
G37*
X136101100Y-100863600D03*
X141181100Y-100863600D03*
%TD*%
%TO.C,TR1*%
G36*
G01*
X177991100Y-90265200D02*
X177191100Y-90265200D01*
G75*
G02*
X177089500Y-90163600I0J101600D01*
G01*
X177089500Y-89163600D01*
G75*
G02*
X177191100Y-89062000I101600J0D01*
G01*
X177991100Y-89062000D01*
G75*
G02*
X178092700Y-89163600I0J-101600D01*
G01*
X178092700Y-90163600D01*
G75*
G02*
X177991100Y-90265200I-101600J0D01*
G01*
G37*
G36*
G01*
X177041100Y-92665200D02*
X176241100Y-92665200D01*
G75*
G02*
X176139500Y-92563600I0J101600D01*
G01*
X176139500Y-91563600D01*
G75*
G02*
X176241100Y-91462000I101600J0D01*
G01*
X177041100Y-91462000D01*
G75*
G02*
X177142700Y-91563600I0J-101600D01*
G01*
X177142700Y-92563600D01*
G75*
G02*
X177041100Y-92665200I-101600J0D01*
G01*
G37*
G36*
G01*
X178941100Y-92665200D02*
X178141100Y-92665200D01*
G75*
G02*
X178039500Y-92563600I0J101600D01*
G01*
X178039500Y-91563600D01*
G75*
G02*
X178141100Y-91462000I101600J0D01*
G01*
X178941100Y-91462000D01*
G75*
G02*
X179042700Y-91563600I0J-101600D01*
G01*
X179042700Y-92563600D01*
G75*
G02*
X178941100Y-92665200I-101600J0D01*
G01*
G37*
%TD*%
%TO.C,TR2*%
G36*
G01*
X171261100Y-90455200D02*
X170461100Y-90455200D01*
G75*
G02*
X170359500Y-90353600I0J101600D01*
G01*
X170359500Y-89353600D01*
G75*
G02*
X170461100Y-89252000I101600J0D01*
G01*
X171261100Y-89252000D01*
G75*
G02*
X171362700Y-89353600I0J-101600D01*
G01*
X171362700Y-90353600D01*
G75*
G02*
X171261100Y-90455200I-101600J0D01*
G01*
G37*
G36*
G01*
X170311100Y-92855200D02*
X169511100Y-92855200D01*
G75*
G02*
X169409500Y-92753600I0J101600D01*
G01*
X169409500Y-91753600D01*
G75*
G02*
X169511100Y-91652000I101600J0D01*
G01*
X170311100Y-91652000D01*
G75*
G02*
X170412700Y-91753600I0J-101600D01*
G01*
X170412700Y-92753600D01*
G75*
G02*
X170311100Y-92855200I-101600J0D01*
G01*
G37*
G36*
G01*
X172211100Y-92855200D02*
X171411100Y-92855200D01*
G75*
G02*
X171309500Y-92753600I0J101600D01*
G01*
X171309500Y-91753600D01*
G75*
G02*
X171411100Y-91652000I101600J0D01*
G01*
X172211100Y-91652000D01*
G75*
G02*
X172312700Y-91753600I0J-101600D01*
G01*
X172312700Y-92753600D01*
G75*
G02*
X172211100Y-92855200I-101600J0D01*
G01*
G37*
%TD*%
%TO.C,SW1*%
G36*
G01*
X170451100Y-107317000D02*
X172051100Y-107317000D01*
G75*
G02*
X172152700Y-107418600I0J-101600D01*
G01*
X172152700Y-108468600D01*
G75*
G02*
X172051100Y-108570200I-101600J0D01*
G01*
X170451100Y-108570200D01*
G75*
G02*
X170349500Y-108468600I0J101600D01*
G01*
X170349500Y-107418600D01*
G75*
G02*
X170451100Y-107317000I101600J0D01*
G01*
G37*
G36*
G01*
X170451100Y-102867000D02*
X172051100Y-102867000D01*
G75*
G02*
X172152700Y-102968600I0J-101600D01*
G01*
X172152700Y-104018600D01*
G75*
G02*
X172051100Y-104120200I-101600J0D01*
G01*
X170451100Y-104120200D01*
G75*
G02*
X170349500Y-104018600I0J101600D01*
G01*
X170349500Y-102968600D01*
G75*
G02*
X170451100Y-102867000I101600J0D01*
G01*
G37*
%TD*%
%TO.C,SW2*%
G36*
G01*
X177741100Y-107317000D02*
X179341100Y-107317000D01*
G75*
G02*
X179442700Y-107418600I0J-101600D01*
G01*
X179442700Y-108468600D01*
G75*
G02*
X179341100Y-108570200I-101600J0D01*
G01*
X177741100Y-108570200D01*
G75*
G02*
X177639500Y-108468600I0J101600D01*
G01*
X177639500Y-107418600D01*
G75*
G02*
X177741100Y-107317000I101600J0D01*
G01*
G37*
G36*
G01*
X177741100Y-102867000D02*
X179341100Y-102867000D01*
G75*
G02*
X179442700Y-102968600I0J-101600D01*
G01*
X179442700Y-104018600D01*
G75*
G02*
X179341100Y-104120200I-101600J0D01*
G01*
X177741100Y-104120200D01*
G75*
G02*
X177639500Y-104018600I0J101600D01*
G01*
X177639500Y-102968600D01*
G75*
G02*
X177741100Y-102867000I101600J0D01*
G01*
G37*
%TD*%
%TO.C,R11*%
G36*
G01*
X176676101Y-112625200D02*
X175026099Y-112625200D01*
G75*
G02*
X174924500Y-112523601I0J101599D01*
G01*
X174924500Y-111123599D01*
G75*
G02*
X175026099Y-111022000I101599J0D01*
G01*
X176676101Y-111022000D01*
G75*
G02*
X176777700Y-111123599I0J-101599D01*
G01*
X176777700Y-112523601D01*
G75*
G02*
X176676101Y-112625200I-101599J0D01*
G01*
G37*
G36*
G01*
X176676101Y-115225200D02*
X175026099Y-115225200D01*
G75*
G02*
X174924500Y-115123601I0J101599D01*
G01*
X174924500Y-113723599D01*
G75*
G02*
X175026099Y-113622000I101599J0D01*
G01*
X176676101Y-113622000D01*
G75*
G02*
X176777700Y-113723599I0J-101599D01*
G01*
X176777700Y-115123601D01*
G75*
G02*
X176676101Y-115225200I-101599J0D01*
G01*
G37*
%TD*%
%TO.C,R3*%
G36*
G01*
X171389500Y-84908601D02*
X171389500Y-83258599D01*
G75*
G02*
X171491099Y-83157000I101599J0D01*
G01*
X172891101Y-83157000D01*
G75*
G02*
X172992700Y-83258599I0J-101599D01*
G01*
X172992700Y-84908601D01*
G75*
G02*
X172891101Y-85010200I-101599J0D01*
G01*
X171491099Y-85010200D01*
G75*
G02*
X171389500Y-84908601I0J101599D01*
G01*
G37*
G36*
G01*
X168789500Y-84908601D02*
X168789500Y-83258599D01*
G75*
G02*
X168891099Y-83157000I101599J0D01*
G01*
X170291101Y-83157000D01*
G75*
G02*
X170392700Y-83258599I0J-101599D01*
G01*
X170392700Y-84908601D01*
G75*
G02*
X170291101Y-85010200I-101599J0D01*
G01*
X168891099Y-85010200D01*
G75*
G02*
X168789500Y-84908601I0J101599D01*
G01*
G37*
%TD*%
%TO.C,R22*%
G36*
G01*
X175504500Y-82678601D02*
X175504500Y-81028599D01*
G75*
G02*
X175606099Y-80927000I101599J0D01*
G01*
X177006101Y-80927000D01*
G75*
G02*
X177107700Y-81028599I0J-101599D01*
G01*
X177107700Y-82678601D01*
G75*
G02*
X177006101Y-82780200I-101599J0D01*
G01*
X175606099Y-82780200D01*
G75*
G02*
X175504500Y-82678601I0J101599D01*
G01*
G37*
G36*
G01*
X172904500Y-82678601D02*
X172904500Y-81028599D01*
G75*
G02*
X173006099Y-80927000I101599J0D01*
G01*
X174406101Y-80927000D01*
G75*
G02*
X174507700Y-81028599I0J-101599D01*
G01*
X174507700Y-82678601D01*
G75*
G02*
X174406101Y-82780200I-101599J0D01*
G01*
X173006099Y-82780200D01*
G75*
G02*
X172904500Y-82678601I0J101599D01*
G01*
G37*
%TD*%
%TO.C,R5*%
G36*
G01*
X177869500Y-95688601D02*
X177869500Y-94038599D01*
G75*
G02*
X177971099Y-93937000I101599J0D01*
G01*
X179371101Y-93937000D01*
G75*
G02*
X179472700Y-94038599I0J-101599D01*
G01*
X179472700Y-95688601D01*
G75*
G02*
X179371101Y-95790200I-101599J0D01*
G01*
X177971099Y-95790200D01*
G75*
G02*
X177869500Y-95688601I0J101599D01*
G01*
G37*
G36*
G01*
X175269500Y-95688601D02*
X175269500Y-94038599D01*
G75*
G02*
X175371099Y-93937000I101599J0D01*
G01*
X176771101Y-93937000D01*
G75*
G02*
X176872700Y-94038599I0J-101599D01*
G01*
X176872700Y-95688601D01*
G75*
G02*
X176771101Y-95790200I-101599J0D01*
G01*
X175371099Y-95790200D01*
G75*
G02*
X175269500Y-95688601I0J101599D01*
G01*
G37*
%TD*%
%TO.C,R6*%
G36*
G01*
X170752700Y-94078599D02*
X170752700Y-95728601D01*
G75*
G02*
X170651101Y-95830200I-101599J0D01*
G01*
X169251099Y-95830200D01*
G75*
G02*
X169149500Y-95728601I0J101599D01*
G01*
X169149500Y-94078599D01*
G75*
G02*
X169251099Y-93977000I101599J0D01*
G01*
X170651101Y-93977000D01*
G75*
G02*
X170752700Y-94078599I0J-101599D01*
G01*
G37*
G36*
G01*
X173352700Y-94078599D02*
X173352700Y-95728601D01*
G75*
G02*
X173251101Y-95830200I-101599J0D01*
G01*
X171851099Y-95830200D01*
G75*
G02*
X171749500Y-95728601I0J101599D01*
G01*
X171749500Y-94078599D01*
G75*
G02*
X171851099Y-93977000I101599J0D01*
G01*
X173251101Y-93977000D01*
G75*
G02*
X173352700Y-94078599I0J-101599D01*
G01*
G37*
%TD*%
%TO.C,R7*%
G36*
G01*
X178039500Y-88528601D02*
X178039500Y-86878599D01*
G75*
G02*
X178141099Y-86777000I101599J0D01*
G01*
X179541101Y-86777000D01*
G75*
G02*
X179642700Y-86878599I0J-101599D01*
G01*
X179642700Y-88528601D01*
G75*
G02*
X179541101Y-88630200I-101599J0D01*
G01*
X178141099Y-88630200D01*
G75*
G02*
X178039500Y-88528601I0J101599D01*
G01*
G37*
G36*
G01*
X175439500Y-88528601D02*
X175439500Y-86878599D01*
G75*
G02*
X175541099Y-86777000I101599J0D01*
G01*
X176941101Y-86777000D01*
G75*
G02*
X177042700Y-86878599I0J-101599D01*
G01*
X177042700Y-88528601D01*
G75*
G02*
X176941101Y-88630200I-101599J0D01*
G01*
X175541099Y-88630200D01*
G75*
G02*
X175439500Y-88528601I0J101599D01*
G01*
G37*
%TD*%
%TO.C,R8*%
G36*
G01*
X170382700Y-86878599D02*
X170382700Y-88528601D01*
G75*
G02*
X170281101Y-88630200I-101599J0D01*
G01*
X168881099Y-88630200D01*
G75*
G02*
X168779500Y-88528601I0J101599D01*
G01*
X168779500Y-86878599D01*
G75*
G02*
X168881099Y-86777000I101599J0D01*
G01*
X170281101Y-86777000D01*
G75*
G02*
X170382700Y-86878599I0J-101599D01*
G01*
G37*
G36*
G01*
X172982700Y-86878599D02*
X172982700Y-88528601D01*
G75*
G02*
X172881101Y-88630200I-101599J0D01*
G01*
X171481099Y-88630200D01*
G75*
G02*
X171379500Y-88528601I0J101599D01*
G01*
X171379500Y-86878599D01*
G75*
G02*
X171481099Y-86777000I101599J0D01*
G01*
X172881101Y-86777000D01*
G75*
G02*
X172982700Y-86878599I0J-101599D01*
G01*
G37*
%TD*%
%TO.C,LED4*%
G36*
G01*
X178961100Y-85402000D02*
X179761100Y-85402000D01*
G75*
G02*
X179862700Y-85503600I0J-101600D01*
G01*
X179862700Y-86303600D01*
G75*
G02*
X179761100Y-86405200I-101600J0D01*
G01*
X178961100Y-86405200D01*
G75*
G02*
X178859500Y-86303600I0J101600D01*
G01*
X178859500Y-85503600D01*
G75*
G02*
X178961100Y-85402000I101600J0D01*
G01*
G37*
G36*
G01*
X177311100Y-85402000D02*
X178111100Y-85402000D01*
G75*
G02*
X178212700Y-85503600I0J-101600D01*
G01*
X178212700Y-86303600D01*
G75*
G02*
X178111100Y-86405200I-101600J0D01*
G01*
X177311100Y-86405200D01*
G75*
G02*
X177209500Y-86303600I0J101600D01*
G01*
X177209500Y-85503600D01*
G75*
G02*
X177311100Y-85402000I101600J0D01*
G01*
G37*
%TD*%
%TO.C,LED5*%
G36*
G01*
X175731100Y-85402000D02*
X176531100Y-85402000D01*
G75*
G02*
X176632700Y-85503600I0J-101600D01*
G01*
X176632700Y-86303600D01*
G75*
G02*
X176531100Y-86405200I-101600J0D01*
G01*
X175731100Y-86405200D01*
G75*
G02*
X175629500Y-86303600I0J101600D01*
G01*
X175629500Y-85503600D01*
G75*
G02*
X175731100Y-85402000I101600J0D01*
G01*
G37*
G36*
G01*
X174081100Y-85402000D02*
X174881100Y-85402000D01*
G75*
G02*
X174982700Y-85503600I0J-101600D01*
G01*
X174982700Y-86303600D01*
G75*
G02*
X174881100Y-86405200I-101600J0D01*
G01*
X174081100Y-86405200D01*
G75*
G02*
X173979500Y-86303600I0J101600D01*
G01*
X173979500Y-85503600D01*
G75*
G02*
X174081100Y-85402000I101600J0D01*
G01*
G37*
%TD*%
%TO.C,D8*%
G36*
G01*
X173321100Y-106982000D02*
X174541100Y-106982000D01*
G75*
G02*
X174642700Y-107083600I0J-101600D01*
G01*
X174642700Y-107863600D01*
G75*
G02*
X174541100Y-107965200I-101600J0D01*
G01*
X173321100Y-107965200D01*
G75*
G02*
X173219500Y-107863600I0J101600D01*
G01*
X173219500Y-107083600D01*
G75*
G02*
X173321100Y-106982000I101600J0D01*
G01*
G37*
G36*
G01*
X173321100Y-103502000D02*
X174541100Y-103502000D01*
G75*
G02*
X174642700Y-103603600I0J-101600D01*
G01*
X174642700Y-104383600D01*
G75*
G02*
X174541100Y-104485200I-101600J0D01*
G01*
X173321100Y-104485200D01*
G75*
G02*
X173219500Y-104383600I0J101600D01*
G01*
X173219500Y-103603600D01*
G75*
G02*
X173321100Y-103502000I101600J0D01*
G01*
G37*
%TD*%
%TO.C,D9*%
G36*
G01*
X175361100Y-106982000D02*
X176581100Y-106982000D01*
G75*
G02*
X176682700Y-107083600I0J-101600D01*
G01*
X176682700Y-107863600D01*
G75*
G02*
X176581100Y-107965200I-101600J0D01*
G01*
X175361100Y-107965200D01*
G75*
G02*
X175259500Y-107863600I0J101600D01*
G01*
X175259500Y-107083600D01*
G75*
G02*
X175361100Y-106982000I101600J0D01*
G01*
G37*
G36*
G01*
X175361100Y-103502000D02*
X176581100Y-103502000D01*
G75*
G02*
X176682700Y-103603600I0J-101600D01*
G01*
X176682700Y-104383600D01*
G75*
G02*
X176581100Y-104485200I-101600J0D01*
G01*
X175361100Y-104485200D01*
G75*
G02*
X175259500Y-104383600I0J101600D01*
G01*
X175259500Y-103603600D01*
G75*
G02*
X175361100Y-103502000I101600J0D01*
G01*
G37*
%TD*%
%TO.C,SW3*%
G36*
G01*
X178761100Y-115715200D02*
X177861100Y-115715200D01*
G75*
G02*
X177759500Y-115613600I0J101600D01*
G01*
X177759500Y-114413600D01*
G75*
G02*
X177861100Y-114312000I101600J0D01*
G01*
X178761100Y-114312000D01*
G75*
G02*
X178862700Y-114413600I0J-101600D01*
G01*
X178862700Y-115613600D01*
G75*
G02*
X178761100Y-115715200I-101600J0D01*
G01*
G37*
G36*
G01*
X178761100Y-111715200D02*
X177861100Y-111715200D01*
G75*
G02*
X177759500Y-111613600I0J101600D01*
G01*
X177759500Y-110413600D01*
G75*
G02*
X177861100Y-110312000I101600J0D01*
G01*
X178761100Y-110312000D01*
G75*
G02*
X178862700Y-110413600I0J-101600D01*
G01*
X178862700Y-111613600D01*
G75*
G02*
X178761100Y-111715200I-101600J0D01*
G01*
G37*
G36*
G01*
X180261100Y-111715200D02*
X179361100Y-111715200D01*
G75*
G02*
X179259500Y-111613600I0J101600D01*
G01*
X179259500Y-110413600D01*
G75*
G02*
X179361100Y-110312000I101600J0D01*
G01*
X180261100Y-110312000D01*
G75*
G02*
X180362700Y-110413600I0J-101600D01*
G01*
X180362700Y-111613600D01*
G75*
G02*
X180261100Y-111715200I-101600J0D01*
G01*
G37*
G36*
G01*
X180261100Y-115715200D02*
X179361100Y-115715200D01*
G75*
G02*
X179259500Y-115613600I0J101600D01*
G01*
X179259500Y-114413600D01*
G75*
G02*
X179361100Y-114312000I101600J0D01*
G01*
X180261100Y-114312000D01*
G75*
G02*
X180362700Y-114413600I0J-101600D01*
G01*
X180362700Y-115613600D01*
G75*
G02*
X180261100Y-115715200I-101600J0D01*
G01*
G37*
%TD*%
D11*
%TO.C,SW4*%
X177641100Y-99073600D03*
X172641100Y-99073600D03*
X175141100Y-99073600D03*
%TD*%
%TO.C,C10*%
X155971100Y-102026199D03*
X153471100Y-106356327D03*
%TD*%
%TO.C,C11*%
X163917000Y-116332000D03*
X158917000Y-116332000D03*
%TD*%
%TO.C,EDGE1*%
G36*
G01*
X177879500Y-128803600D02*
X177879500Y-123503600D01*
G75*
G02*
X177981100Y-123402000I101600J0D01*
G01*
X179981100Y-123402000D01*
G75*
G02*
X180082700Y-123503600I0J-101600D01*
G01*
X180082700Y-128803600D01*
G75*
G02*
X179981100Y-128905200I-101600J0D01*
G01*
X177981100Y-128905200D01*
G75*
G02*
X177879500Y-128803600I0J101600D01*
G01*
G37*
G36*
G01*
X175339500Y-128803600D02*
X175339500Y-123503600D01*
G75*
G02*
X175441100Y-123402000I101600J0D01*
G01*
X177441100Y-123402000D01*
G75*
G02*
X177542700Y-123503600I0J-101600D01*
G01*
X177542700Y-128803600D01*
G75*
G02*
X177441100Y-128905200I-101600J0D01*
G01*
X175441100Y-128905200D01*
G75*
G02*
X175339500Y-128803600I0J101600D01*
G01*
G37*
G36*
G01*
X172799500Y-128803600D02*
X172799500Y-123503600D01*
G75*
G02*
X172901100Y-123402000I101600J0D01*
G01*
X174901100Y-123402000D01*
G75*
G02*
X175002700Y-123503600I0J-101600D01*
G01*
X175002700Y-128803600D01*
G75*
G02*
X174901100Y-128905200I-101600J0D01*
G01*
X172901100Y-128905200D01*
G75*
G02*
X172799500Y-128803600I0J101600D01*
G01*
G37*
G36*
G01*
X170259500Y-128803600D02*
X170259500Y-123503600D01*
G75*
G02*
X170361100Y-123402000I101600J0D01*
G01*
X172361100Y-123402000D01*
G75*
G02*
X172462700Y-123503600I0J-101600D01*
G01*
X172462700Y-128803600D01*
G75*
G02*
X172361100Y-128905200I-101600J0D01*
G01*
X170361100Y-128905200D01*
G75*
G02*
X170259500Y-128803600I0J101600D01*
G01*
G37*
G36*
G01*
X167719500Y-128803600D02*
X167719500Y-123503600D01*
G75*
G02*
X167821100Y-123402000I101600J0D01*
G01*
X169821100Y-123402000D01*
G75*
G02*
X169922700Y-123503600I0J-101600D01*
G01*
X169922700Y-128803600D01*
G75*
G02*
X169821100Y-128905200I-101600J0D01*
G01*
X167821100Y-128905200D01*
G75*
G02*
X167719500Y-128803600I0J101600D01*
G01*
G37*
G36*
G01*
X165179500Y-128803600D02*
X165179500Y-123503600D01*
G75*
G02*
X165281100Y-123402000I101600J0D01*
G01*
X167281100Y-123402000D01*
G75*
G02*
X167382700Y-123503600I0J-101600D01*
G01*
X167382700Y-128803600D01*
G75*
G02*
X167281100Y-128905200I-101600J0D01*
G01*
X165281100Y-128905200D01*
G75*
G02*
X165179500Y-128803600I0J101600D01*
G01*
G37*
G36*
G01*
X162639500Y-128803600D02*
X162639500Y-123503600D01*
G75*
G02*
X162741100Y-123402000I101600J0D01*
G01*
X164741100Y-123402000D01*
G75*
G02*
X164842700Y-123503600I0J-101600D01*
G01*
X164842700Y-128803600D01*
G75*
G02*
X164741100Y-128905200I-101600J0D01*
G01*
X162741100Y-128905200D01*
G75*
G02*
X162639500Y-128803600I0J101600D01*
G01*
G37*
G36*
G01*
X160099500Y-128803600D02*
X160099500Y-123503600D01*
G75*
G02*
X160201100Y-123402000I101600J0D01*
G01*
X162201100Y-123402000D01*
G75*
G02*
X162302700Y-123503600I0J-101600D01*
G01*
X162302700Y-128803600D01*
G75*
G02*
X162201100Y-128905200I-101600J0D01*
G01*
X160201100Y-128905200D01*
G75*
G02*
X160099500Y-128803600I0J101600D01*
G01*
G37*
G36*
G01*
X157559500Y-128803600D02*
X157559500Y-123503600D01*
G75*
G02*
X157661100Y-123402000I101600J0D01*
G01*
X159661100Y-123402000D01*
G75*
G02*
X159762700Y-123503600I0J-101600D01*
G01*
X159762700Y-128803600D01*
G75*
G02*
X159661100Y-128905200I-101600J0D01*
G01*
X157661100Y-128905200D01*
G75*
G02*
X157559500Y-128803600I0J101600D01*
G01*
G37*
G36*
G01*
X155019500Y-128803600D02*
X155019500Y-123503600D01*
G75*
G02*
X155121100Y-123402000I101600J0D01*
G01*
X157121100Y-123402000D01*
G75*
G02*
X157222700Y-123503600I0J-101600D01*
G01*
X157222700Y-128803600D01*
G75*
G02*
X157121100Y-128905200I-101600J0D01*
G01*
X155121100Y-128905200D01*
G75*
G02*
X155019500Y-128803600I0J101600D01*
G01*
G37*
G36*
G01*
X152479500Y-128803600D02*
X152479500Y-123503600D01*
G75*
G02*
X152581100Y-123402000I101600J0D01*
G01*
X154581100Y-123402000D01*
G75*
G02*
X154682700Y-123503600I0J-101600D01*
G01*
X154682700Y-128803600D01*
G75*
G02*
X154581100Y-128905200I-101600J0D01*
G01*
X152581100Y-128905200D01*
G75*
G02*
X152479500Y-128803600I0J101600D01*
G01*
G37*
G36*
G01*
X149939500Y-128803600D02*
X149939500Y-123503600D01*
G75*
G02*
X150041100Y-123402000I101600J0D01*
G01*
X152041100Y-123402000D01*
G75*
G02*
X152142700Y-123503600I0J-101600D01*
G01*
X152142700Y-128803600D01*
G75*
G02*
X152041100Y-128905200I-101600J0D01*
G01*
X150041100Y-128905200D01*
G75*
G02*
X149939500Y-128803600I0J101600D01*
G01*
G37*
G36*
G01*
X147399500Y-128803600D02*
X147399500Y-123503600D01*
G75*
G02*
X147501100Y-123402000I101600J0D01*
G01*
X149501100Y-123402000D01*
G75*
G02*
X149602700Y-123503600I0J-101600D01*
G01*
X149602700Y-128803600D01*
G75*
G02*
X149501100Y-128905200I-101600J0D01*
G01*
X147501100Y-128905200D01*
G75*
G02*
X147399500Y-128803600I0J101600D01*
G01*
G37*
G36*
G01*
X144859500Y-128803600D02*
X144859500Y-123503600D01*
G75*
G02*
X144961100Y-123402000I101600J0D01*
G01*
X146961100Y-123402000D01*
G75*
G02*
X147062700Y-123503600I0J-101600D01*
G01*
X147062700Y-128803600D01*
G75*
G02*
X146961100Y-128905200I-101600J0D01*
G01*
X144961100Y-128905200D01*
G75*
G02*
X144859500Y-128803600I0J101600D01*
G01*
G37*
G36*
G01*
X142319500Y-128803600D02*
X142319500Y-123503600D01*
G75*
G02*
X142421100Y-123402000I101600J0D01*
G01*
X144421100Y-123402000D01*
G75*
G02*
X144522700Y-123503600I0J-101600D01*
G01*
X144522700Y-128803600D01*
G75*
G02*
X144421100Y-128905200I-101600J0D01*
G01*
X142421100Y-128905200D01*
G75*
G02*
X142319500Y-128803600I0J101600D01*
G01*
G37*
G36*
G01*
X139779500Y-128803600D02*
X139779500Y-123503600D01*
G75*
G02*
X139881100Y-123402000I101600J0D01*
G01*
X141881100Y-123402000D01*
G75*
G02*
X141982700Y-123503600I0J-101600D01*
G01*
X141982700Y-128803600D01*
G75*
G02*
X141881100Y-128905200I-101600J0D01*
G01*
X139881100Y-128905200D01*
G75*
G02*
X139779500Y-128803600I0J101600D01*
G01*
G37*
G36*
G01*
X137239500Y-128803600D02*
X137239500Y-123503600D01*
G75*
G02*
X137341100Y-123402000I101600J0D01*
G01*
X139341100Y-123402000D01*
G75*
G02*
X139442700Y-123503600I0J-101600D01*
G01*
X139442700Y-128803600D01*
G75*
G02*
X139341100Y-128905200I-101600J0D01*
G01*
X137341100Y-128905200D01*
G75*
G02*
X137239500Y-128803600I0J101600D01*
G01*
G37*
G36*
G01*
X134699500Y-128803600D02*
X134699500Y-123503600D01*
G75*
G02*
X134801100Y-123402000I101600J0D01*
G01*
X136801100Y-123402000D01*
G75*
G02*
X136902700Y-123503600I0J-101600D01*
G01*
X136902700Y-128803600D01*
G75*
G02*
X136801100Y-128905200I-101600J0D01*
G01*
X134801100Y-128905200D01*
G75*
G02*
X134699500Y-128803600I0J101600D01*
G01*
G37*
G36*
G01*
X132159500Y-128803600D02*
X132159500Y-123503600D01*
G75*
G02*
X132261100Y-123402000I101600J0D01*
G01*
X134261100Y-123402000D01*
G75*
G02*
X134362700Y-123503600I0J-101600D01*
G01*
X134362700Y-128803600D01*
G75*
G02*
X134261100Y-128905200I-101600J0D01*
G01*
X132261100Y-128905200D01*
G75*
G02*
X132159500Y-128803600I0J101600D01*
G01*
G37*
G36*
G01*
X129619500Y-128803600D02*
X129619500Y-123503600D01*
G75*
G02*
X129721100Y-123402000I101600J0D01*
G01*
X131721100Y-123402000D01*
G75*
G02*
X131822700Y-123503600I0J-101600D01*
G01*
X131822700Y-128803600D01*
G75*
G02*
X131721100Y-128905200I-101600J0D01*
G01*
X129721100Y-128905200D01*
G75*
G02*
X129619500Y-128803600I0J101600D01*
G01*
G37*
G36*
G01*
X127079500Y-128803600D02*
X127079500Y-123503600D01*
G75*
G02*
X127181100Y-123402000I101600J0D01*
G01*
X129181100Y-123402000D01*
G75*
G02*
X129282700Y-123503600I0J-101600D01*
G01*
X129282700Y-128803600D01*
G75*
G02*
X129181100Y-128905200I-101600J0D01*
G01*
X127181100Y-128905200D01*
G75*
G02*
X127079500Y-128803600I0J101600D01*
G01*
G37*
G36*
G01*
X124539500Y-128803600D02*
X124539500Y-123503600D01*
G75*
G02*
X124641100Y-123402000I101600J0D01*
G01*
X126641100Y-123402000D01*
G75*
G02*
X126742700Y-123503600I0J-101600D01*
G01*
X126742700Y-128803600D01*
G75*
G02*
X126641100Y-128905200I-101600J0D01*
G01*
X124641100Y-128905200D01*
G75*
G02*
X124539500Y-128803600I0J101600D01*
G01*
G37*
G36*
G01*
X121999500Y-128803600D02*
X121999500Y-123503600D01*
G75*
G02*
X122101100Y-123402000I101600J0D01*
G01*
X124101100Y-123402000D01*
G75*
G02*
X124202700Y-123503600I0J-101600D01*
G01*
X124202700Y-128803600D01*
G75*
G02*
X124101100Y-128905200I-101600J0D01*
G01*
X122101100Y-128905200D01*
G75*
G02*
X121999500Y-128803600I0J101600D01*
G01*
G37*
G36*
G01*
X119459500Y-128803600D02*
X119459500Y-123503600D01*
G75*
G02*
X119561100Y-123402000I101600J0D01*
G01*
X121561100Y-123402000D01*
G75*
G02*
X121662700Y-123503600I0J-101600D01*
G01*
X121662700Y-128803600D01*
G75*
G02*
X121561100Y-128905200I-101600J0D01*
G01*
X119561100Y-128905200D01*
G75*
G02*
X119459500Y-128803600I0J101600D01*
G01*
G37*
G36*
G01*
X116919500Y-128803600D02*
X116919500Y-123503600D01*
G75*
G02*
X117021100Y-123402000I101600J0D01*
G01*
X119021100Y-123402000D01*
G75*
G02*
X119122700Y-123503600I0J-101600D01*
G01*
X119122700Y-128803600D01*
G75*
G02*
X119021100Y-128905200I-101600J0D01*
G01*
X117021100Y-128905200D01*
G75*
G02*
X116919500Y-128803600I0J101600D01*
G01*
G37*
%TD*%
%TO.C,LED1*%
G36*
G01*
X178961100Y-83552000D02*
X179761100Y-83552000D01*
G75*
G02*
X179862700Y-83653600I0J-101600D01*
G01*
X179862700Y-84453600D01*
G75*
G02*
X179761100Y-84555200I-101600J0D01*
G01*
X178961100Y-84555200D01*
G75*
G02*
X178859500Y-84453600I0J101600D01*
G01*
X178859500Y-83653600D01*
G75*
G02*
X178961100Y-83552000I101600J0D01*
G01*
G37*
G36*
G01*
X177311100Y-83552000D02*
X178111100Y-83552000D01*
G75*
G02*
X178212700Y-83653600I0J-101600D01*
G01*
X178212700Y-84453600D01*
G75*
G02*
X178111100Y-84555200I-101600J0D01*
G01*
X177311100Y-84555200D01*
G75*
G02*
X177209500Y-84453600I0J101600D01*
G01*
X177209500Y-83653600D01*
G75*
G02*
X177311100Y-83552000I101600J0D01*
G01*
G37*
%TD*%
%TO.C,LED2*%
G36*
G01*
X175711100Y-83552000D02*
X176511100Y-83552000D01*
G75*
G02*
X176612700Y-83653600I0J-101600D01*
G01*
X176612700Y-84453600D01*
G75*
G02*
X176511100Y-84555200I-101600J0D01*
G01*
X175711100Y-84555200D01*
G75*
G02*
X175609500Y-84453600I0J101600D01*
G01*
X175609500Y-83653600D01*
G75*
G02*
X175711100Y-83552000I101600J0D01*
G01*
G37*
G36*
G01*
X174061100Y-83552000D02*
X174861100Y-83552000D01*
G75*
G02*
X174962700Y-83653600I0J-101600D01*
G01*
X174962700Y-84453600D01*
G75*
G02*
X174861100Y-84555200I-101600J0D01*
G01*
X174061100Y-84555200D01*
G75*
G02*
X173959500Y-84453600I0J101600D01*
G01*
X173959500Y-83653600D01*
G75*
G02*
X174061100Y-83552000I101600J0D01*
G01*
G37*
%TD*%
%TO.C,LED3*%
G36*
G01*
X178111100Y-82505200D02*
X177311100Y-82505200D01*
G75*
G02*
X177209500Y-82403600I0J101600D01*
G01*
X177209500Y-81603600D01*
G75*
G02*
X177311100Y-81502000I101600J0D01*
G01*
X178111100Y-81502000D01*
G75*
G02*
X178212700Y-81603600I0J-101600D01*
G01*
X178212700Y-82403600D01*
G75*
G02*
X178111100Y-82505200I-101600J0D01*
G01*
G37*
G36*
G01*
X179761100Y-82505200D02*
X178961100Y-82505200D01*
G75*
G02*
X178859500Y-82403600I0J101600D01*
G01*
X178859500Y-81603600D01*
G75*
G02*
X178961100Y-81502000I101600J0D01*
G01*
X179761100Y-81502000D01*
G75*
G02*
X179862700Y-81603600I0J-101600D01*
G01*
X179862700Y-82403600D01*
G75*
G02*
X179761100Y-82505200I-101600J0D01*
G01*
G37*
%TD*%
M02*
