%TF.GenerationSoftware,KiCad,Pcbnew,(5.1.10)-1*%
%TF.CreationDate,2022-06-25T13:40:01+09:00*%
%TF.ProjectId,DriveUnit_B-series(ver1.0),44726976-6555-46e6-9974-5f422d736572,rev?*%
%TF.SameCoordinates,Original*%
%TF.FileFunction,Copper,L2,Bot*%
%TF.FilePolarity,Positive*%
%FSLAX46Y46*%
G04 Gerber Fmt 4.6, Leading zero omitted, Abs format (unit mm)*
G04 Created by KiCad (PCBNEW (5.1.10)-1) date 2022-06-25 13:40:01*
%MOMM*%
%LPD*%
G01*
G04 APERTURE LIST*
%TA.AperFunction,ComponentPad*%
%ADD10O,1.308000X2.616000*%
%TD*%
%TA.AperFunction,SMDPad,CuDef*%
%ADD11R,0.450000X1.650000*%
%TD*%
%TA.AperFunction,SMDPad,CuDef*%
%ADD12R,1.650000X1.400000*%
%TD*%
%TA.AperFunction,SMDPad,CuDef*%
%ADD13R,1.400000X1.650000*%
%TD*%
%TA.AperFunction,SMDPad,CuDef*%
%ADD14R,0.780000X1.220000*%
%TD*%
%TA.AperFunction,ComponentPad*%
%ADD15C,1.308000*%
%TD*%
%TA.AperFunction,SMDPad,CuDef*%
%ADD16R,0.800000X1.200000*%
%TD*%
%TA.AperFunction,SMDPad,CuDef*%
%ADD17R,0.700000X0.800000*%
%TD*%
%TA.AperFunction,SMDPad,CuDef*%
%ADD18R,1.700000X1.200000*%
%TD*%
%TA.AperFunction,SMDPad,CuDef*%
%ADD19R,0.800000X1.400000*%
%TD*%
%TA.AperFunction,SMDPad,CuDef*%
%ADD20R,1.200000X2.300000*%
%TD*%
%TA.AperFunction,SMDPad,CuDef*%
%ADD21R,2.000000X5.300000*%
%TD*%
%TA.AperFunction,ViaPad*%
%ADD22C,0.906400*%
%TD*%
%TA.AperFunction,ViaPad*%
%ADD23C,0.756400*%
%TD*%
%TA.AperFunction,ViaPad*%
%ADD24C,0.896400*%
%TD*%
%TA.AperFunction,Conductor*%
%ADD25C,0.254000*%
%TD*%
%TA.AperFunction,Conductor*%
%ADD26C,0.152400*%
%TD*%
%TA.AperFunction,Conductor*%
%ADD27C,0.406400*%
%TD*%
%TA.AperFunction,Conductor*%
%ADD28C,0.250000*%
%TD*%
%TA.AperFunction,Conductor*%
%ADD29C,1.200000*%
%TD*%
%TA.AperFunction,Conductor*%
%ADD30C,0.076200*%
%TD*%
%TA.AperFunction,Conductor*%
%ADD31C,0.100000*%
%TD*%
G04 APERTURE END LIST*
D10*
%TO.P,3813-HA1,SOURCE*%
%TO.N,/SA*%
X129371100Y-100783600D03*
%TO.P,3813-HA1,GATE*%
%TO.N,Net-(3813-HA1-PadGATE)*%
X124291100Y-100783600D03*
%TD*%
%TO.P,3813-HB1,SOURCE*%
%TO.N,/SB*%
X143491100Y-100783600D03*
%TO.P,3813-HB1,GATE*%
%TO.N,Net-(3813-HB1-PadGATE)*%
X138411100Y-100783600D03*
%TD*%
%TO.P,3813-LA1,SOURCE*%
%TO.N,GND*%
X121711100Y-100863600D03*
%TO.P,3813-LA1,GATE*%
%TO.N,Net-(3813-LA1-PadGATE)*%
X126791100Y-100863600D03*
%TD*%
%TO.P,3813-LB1,SOURCE*%
%TO.N,GND*%
X136101100Y-100863600D03*
%TO.P,3813-LB1,GATE*%
%TO.N,Net-(3813-LB1-PadGATE)*%
X141181100Y-100863600D03*
%TD*%
D11*
%TO.P,IC1,28*%
%TO.N,Net-(IC1-Pad28)*%
X163241100Y-84683600D03*
%TO.P,IC1,27*%
%TO.N,Net-(IC1-Pad27)*%
X162591100Y-84683600D03*
%TO.P,IC1,26*%
%TO.N,/FF2*%
X161941100Y-84683600D03*
%TO.P,IC1,25*%
%TO.N,/FF1*%
X161291100Y-84683600D03*
%TO.P,IC1,24*%
%TO.N,/RESET*%
X160641100Y-84683600D03*
%TO.P,IC1,23*%
%TO.N,/PWM*%
X159991100Y-84683600D03*
%TO.P,IC1,22*%
%TO.N,/V5*%
X159341100Y-84683600D03*
%TO.P,IC1,21*%
X158691100Y-84683600D03*
%TO.P,IC1,20*%
X158041100Y-84683600D03*
%TO.P,IC1,19*%
%TO.N,/DIR*%
X157391100Y-84683600D03*
%TO.P,IC1,18*%
%TO.N,Net-(IC1-Pad18)*%
X156741100Y-84683600D03*
%TO.P,IC1,17*%
%TO.N,GND*%
X156091100Y-84683600D03*
%TO.P,IC1,16*%
%TO.N,Net-(C6-PadP$2)*%
X155441100Y-84683600D03*
%TO.P,IC1,15*%
%TO.N,Net-(C6-PadP$1)*%
X154791100Y-84683600D03*
%TO.P,IC1,14*%
%TO.N,Net-(IC1-Pad14)*%
X154791100Y-90783600D03*
%TO.P,IC1,13*%
%TO.N,Net-(C5-PadP$2)*%
X155441100Y-90783600D03*
%TO.P,IC1,12*%
%TO.N,/GLA*%
X156091100Y-90783600D03*
%TO.P,IC1,11*%
%TO.N,/SA*%
X156741100Y-90783600D03*
%TO.P,IC1,10*%
%TO.N,/GHA*%
X157391100Y-90783600D03*
%TO.P,IC1,9*%
%TO.N,Net-(C8-PadP$1)*%
X158041100Y-90783600D03*
%TO.P,IC1,8*%
%TO.N,Net-(C4-PadP$2)*%
X158691100Y-90783600D03*
%TO.P,IC1,7*%
%TO.N,Net-(IC1-Pad7)*%
X159341100Y-90783600D03*
%TO.P,IC1,6*%
%TO.N,Net-(C7-PadP$1)*%
X159991100Y-90783600D03*
%TO.P,IC1,5*%
%TO.N,/GHB*%
X160641100Y-90783600D03*
%TO.P,IC1,4*%
%TO.N,/SB*%
X161291100Y-90783600D03*
%TO.P,IC1,3*%
%TO.N,/GLB*%
X161941100Y-90783600D03*
%TO.P,IC1,1*%
%TO.N,VCC*%
X163241100Y-90783600D03*
%TO.P,IC1,2*%
%TO.N,GND*%
X162591100Y-90783600D03*
%TD*%
D12*
%TO.P,R15,RIGHT*%
%TO.N,Net-(3813-LA1-PadGATE)*%
X151941100Y-95103600D03*
%TO.P,R15,LEFT*%
%TO.N,GND*%
X151941100Y-97703600D03*
%TD*%
%TO.P,R16,RIGHT*%
%TO.N,Net-(3813-HA1-PadGATE)*%
X149371100Y-95043600D03*
%TO.P,R16,LEFT*%
%TO.N,/SA*%
X149371100Y-97643600D03*
%TD*%
D13*
%TO.P,R18,RIGHT*%
%TO.N,Net-(3813-LB1-PadGATE)*%
X161211100Y-98483600D03*
%TO.P,R18,LEFT*%
%TO.N,GND*%
X163811100Y-98483600D03*
%TD*%
%TO.P,R19,RIGHT*%
%TO.N,Net-(3813-HB1-PadGATE)*%
X166451100Y-98413600D03*
%TO.P,R19,LEFT*%
%TO.N,/SB*%
X169051100Y-98413600D03*
%TD*%
%TO.P,R1,RIGHT*%
%TO.N,Net-(R1-PadRIGHT)*%
X176891100Y-82303600D03*
%TO.P,R1,LEFT*%
%TO.N,/DIR*%
X179491100Y-82303600D03*
%TD*%
%TO.P,R9,RIGHT*%
%TO.N,Net-(R9-PadRIGHT)*%
X170701100Y-82303600D03*
%TO.P,R9,LEFT*%
%TO.N,/PWM*%
X173301100Y-82303600D03*
%TD*%
%TO.P,R10,RIGHT*%
%TO.N,Net-(3813-LB1-PadGATE)*%
X161211100Y-96173600D03*
%TO.P,R10,LEFT*%
%TO.N,/GLB*%
X163811100Y-96173600D03*
%TD*%
%TO.P,R12,RIGHT*%
%TO.N,Net-(3813-HB1-PadGATE)*%
X166441100Y-96193600D03*
%TO.P,R12,LEFT*%
%TO.N,/GHB*%
X169041100Y-96193600D03*
%TD*%
D12*
%TO.P,R20,RIGHT*%
%TO.N,/GLA*%
X151951100Y-90883600D03*
%TO.P,R20,LEFT*%
%TO.N,Net-(3813-LA1-PadGATE)*%
X151951100Y-93483600D03*
%TD*%
%TO.P,R21,RIGHT*%
%TO.N,/GHA*%
X149381100Y-90883600D03*
%TO.P,R21,LEFT*%
%TO.N,Net-(3813-HA1-PadGATE)*%
X149381100Y-93483600D03*
%TD*%
D13*
%TO.P,R13,RIGHT*%
%TO.N,GND*%
X156541100Y-82503600D03*
%TO.P,R13,LEFT*%
%TO.N,Net-(IC1-Pad27)*%
X159141100Y-82503600D03*
%TD*%
D12*
%TO.P,R2,RIGHT*%
%TO.N,GND*%
X166491100Y-90763600D03*
%TO.P,R2,LEFT*%
%TO.N,Net-(IC1-Pad28)*%
X166491100Y-88163600D03*
%TD*%
%TO.P,R14,RIGHT*%
%TO.N,Net-(IC1-Pad28)*%
X166491100Y-86283600D03*
%TO.P,R14,LEFT*%
%TO.N,/V5*%
X166491100Y-83683600D03*
%TD*%
D14*
%TO.P,D1,A*%
%TO.N,VCC*%
X158921100Y-95713600D03*
%TO.P,D1,C*%
%TO.N,Net-(C5-PadP$2)*%
X155441100Y-95713600D03*
%TD*%
D15*
%TO.P,SW4,L*%
%TO.N,Net-(SW4-PadL)*%
X177641100Y-99073600D03*
%TO.P,SW4,R*%
%TO.N,/PWM*%
X172641100Y-99073600D03*
%TO.P,SW4,C*%
%TO.N,/V5*%
X175141100Y-99073600D03*
%TD*%
D16*
%TO.P,TLP1,5*%
%TO.N,Net-(R1-PadRIGHT)*%
X176891100Y-85653600D03*
%TO.P,TLP1,4*%
%TO.N,GND*%
X175621100Y-85653600D03*
%TO.P,TLP1,3*%
%TO.N,/GND_IN*%
X175621100Y-91953600D03*
%TO.P,TLP1,6*%
%TO.N,/V5*%
X178161100Y-85653600D03*
%TO.P,TLP1,1*%
%TO.N,/DIR_IN*%
X178161100Y-91953600D03*
%TD*%
%TO.P,TLP2,5*%
%TO.N,Net-(R9-PadRIGHT)*%
X170841100Y-85453600D03*
%TO.P,TLP2,4*%
%TO.N,GND*%
X169571100Y-85453600D03*
%TO.P,TLP2,3*%
%TO.N,/PWM_IN*%
X169571100Y-91753600D03*
%TO.P,TLP2,6*%
%TO.N,/V5*%
X172111100Y-85453600D03*
%TO.P,TLP2,1*%
%TO.N,/VCC_IN*%
X172111100Y-91753600D03*
%TD*%
D17*
%TO.P,C1,P$2*%
%TO.N,/V5*%
X177591100Y-83783600D03*
%TO.P,C1,P$1*%
%TO.N,GND*%
X176191100Y-83783600D03*
%TD*%
%TO.P,C2,P$2*%
%TO.N,/V5*%
X171551100Y-83803600D03*
%TO.P,C2,P$1*%
%TO.N,GND*%
X170151100Y-83803600D03*
%TD*%
%TO.P,C3,P$2*%
%TO.N,/V5*%
X157831100Y-81003600D03*
%TO.P,C3,P$1*%
%TO.N,GND*%
X156431100Y-81003600D03*
%TD*%
%TO.P,C4,P$2*%
%TO.N,Net-(C4-PadP$2)*%
X159891100Y-94033600D03*
%TO.P,C4,P$1*%
%TO.N,GND*%
X161291100Y-94033600D03*
%TD*%
%TO.P,C5,P$2*%
%TO.N,Net-(C5-PadP$2)*%
X155431100Y-93503600D03*
%TO.P,C5,P$1*%
%TO.N,GND*%
X154031100Y-93503600D03*
%TD*%
%TO.P,C7,P$2*%
%TO.N,/SB*%
X161301100Y-92503600D03*
%TO.P,C7,P$1*%
%TO.N,Net-(C7-PadP$1)*%
X159901100Y-92503600D03*
%TD*%
%TO.P,C8,P$2*%
%TO.N,/SA*%
X156671100Y-92503600D03*
%TO.P,C8,P$1*%
%TO.N,Net-(C8-PadP$1)*%
X158071100Y-92503600D03*
%TD*%
D18*
%TO.P,C9,P$2*%
%TO.N,GND*%
X151631100Y-85063600D03*
%TO.P,C9,P$1*%
%TO.N,Net-(C4-PadP$2)*%
X151631100Y-88163600D03*
%TD*%
D19*
%TO.P,C6,P$2*%
%TO.N,Net-(C6-PadP$2)*%
X154651100Y-82503600D03*
%TO.P,C6,P$1*%
%TO.N,Net-(C6-PadP$1)*%
X152651100Y-82503600D03*
%TD*%
D15*
%TO.P,C10,C*%
%TO.N,GND*%
X155971100Y-102026199D03*
%TO.P,C10,A*%
%TO.N,VCC*%
X153471100Y-106356327D03*
%TD*%
%TO.P,C11,C*%
%TO.N,GND*%
X163917000Y-116332000D03*
%TO.P,C11,A*%
%TO.N,VCC*%
X158917000Y-116332000D03*
%TD*%
D19*
%TO.P,C13,P$2*%
%TO.N,GND*%
X161851100Y-109773600D03*
%TO.P,C13,P$1*%
%TO.N,VCC*%
X159851100Y-109773600D03*
%TD*%
D20*
%TO.P,C12,P$2*%
%TO.N,GND*%
X162601100Y-112793600D03*
%TO.P,C12,P$1*%
%TO.N,VCC*%
X159201100Y-112793600D03*
%TD*%
D21*
%TO.P,EDGE1,P$50*%
%TO.N,/SA*%
X118021100Y-126153600D03*
%TO.P,EDGE1,P$49*%
X120561100Y-126153600D03*
%TO.P,EDGE1,P$48*%
X123101100Y-126153600D03*
%TO.P,EDGE1,P$47*%
X125641100Y-126153600D03*
%TO.P,EDGE1,P$46*%
X128181100Y-126153600D03*
%TO.P,EDGE1,P$45*%
X130721100Y-126153600D03*
%TO.P,EDGE1,P$44*%
%TO.N,/SB*%
X133261100Y-126153600D03*
%TO.P,EDGE1,P$43*%
X135801100Y-126153600D03*
%TO.P,EDGE1,P$42*%
X138341100Y-126153600D03*
%TO.P,EDGE1,P$41*%
X140881100Y-126153600D03*
%TO.P,EDGE1,P$40*%
X143421100Y-126153600D03*
%TO.P,EDGE1,P$39*%
%TO.N,GND*%
X145961100Y-126153600D03*
%TO.P,EDGE1,P$38*%
X148501100Y-126153600D03*
%TO.P,EDGE1,P$37*%
X151041100Y-126153600D03*
%TO.P,EDGE1,P$36*%
X153581100Y-126153600D03*
%TO.P,EDGE1,P$35*%
X156121100Y-126153600D03*
%TO.P,EDGE1,P$34*%
X158661100Y-126153600D03*
%TO.P,EDGE1,P$33*%
X161201100Y-126153600D03*
%TO.P,EDGE1,P$32*%
X163741100Y-126153600D03*
%TO.P,EDGE1,P$31*%
X166281100Y-126153600D03*
%TO.P,EDGE1,P$30*%
X168821100Y-126153600D03*
%TO.P,EDGE1,P$29*%
X171361100Y-126153600D03*
%TO.P,EDGE1,P$28*%
X173901100Y-126153600D03*
%TO.P,EDGE1,P$27*%
%TO.N,/VCC_IN*%
X176441100Y-126153600D03*
%TO.P,EDGE1,P$26*%
%TO.N,/DIR_IN*%
X178981100Y-126153600D03*
%TD*%
D22*
%TO.N,VCC*%
X164331100Y-90843600D03*
X159935118Y-95054200D03*
D23*
X150241100Y-112303600D03*
X150241100Y-113213600D03*
X150241100Y-114123600D03*
X150241100Y-115033600D03*
X150241100Y-115943600D03*
X150241100Y-116853600D03*
X150241100Y-117763600D03*
X150241100Y-118673600D03*
X150241100Y-119583600D03*
X150241100Y-120493600D03*
X150241100Y-121403600D03*
X150241100Y-122313600D03*
X151151100Y-122313600D03*
X152061100Y-122313600D03*
X152971100Y-122313600D03*
X153881100Y-122313600D03*
X154791100Y-122313600D03*
X155701100Y-122313600D03*
X156611100Y-122313600D03*
X156611100Y-121403600D03*
X155701100Y-121403600D03*
X154791100Y-121403600D03*
X151151100Y-121403600D03*
X151151100Y-120493600D03*
X151151100Y-119583600D03*
X152061100Y-121403600D03*
X152971100Y-121403600D03*
X153881100Y-121403600D03*
X153881100Y-120493600D03*
X152971100Y-120493600D03*
X152061100Y-120493600D03*
X154791100Y-120493600D03*
X155701100Y-120493600D03*
X156611100Y-120493600D03*
X156611100Y-119583600D03*
X152061100Y-119583600D03*
X152971100Y-119583600D03*
X153881100Y-119583600D03*
X154791100Y-119583600D03*
X151151100Y-112303600D03*
X151151100Y-113213600D03*
X151151100Y-114123600D03*
X151151100Y-115033600D03*
X151151100Y-115943600D03*
X151151100Y-116853600D03*
X151151100Y-117763600D03*
X151151100Y-118673600D03*
X152061100Y-118673600D03*
X155701100Y-119583600D03*
X152971100Y-118673600D03*
X153881100Y-118673600D03*
X154791100Y-118673600D03*
X155701100Y-118673600D03*
X156611100Y-118673600D03*
X152061100Y-117763600D03*
X152971100Y-117763600D03*
X152061100Y-116853600D03*
X152971100Y-116853600D03*
X153881100Y-116853600D03*
X153881100Y-117763600D03*
X154791100Y-117763600D03*
X155701100Y-117763600D03*
X156611100Y-117763600D03*
X156611100Y-116853600D03*
X155701100Y-116853600D03*
X154791100Y-116853600D03*
X152061100Y-115943600D03*
X152971100Y-115943600D03*
X153881100Y-115943600D03*
X156611100Y-114123600D03*
X156611100Y-115033600D03*
X156611100Y-115943600D03*
X155701100Y-115943600D03*
X154791100Y-115943600D03*
X155701100Y-115033600D03*
X154791100Y-115033600D03*
X153881100Y-115033600D03*
X152971100Y-115033600D03*
X152061100Y-115033600D03*
X152061100Y-114123600D03*
X152971100Y-114123600D03*
X153881100Y-114123600D03*
X154791100Y-114123600D03*
X153881100Y-113213600D03*
X152971100Y-113213600D03*
X152061100Y-113213600D03*
X152061100Y-112303600D03*
X152971100Y-112303600D03*
X157521100Y-122313600D03*
X157521100Y-121403600D03*
X157521100Y-120493600D03*
X157521100Y-119583600D03*
X157521100Y-118673600D03*
X157521100Y-117763600D03*
X157521100Y-116853600D03*
X157521100Y-114123600D03*
X157521100Y-115033600D03*
X157521100Y-115943600D03*
X149331100Y-112303600D03*
X149331100Y-113213600D03*
X149331100Y-114123600D03*
X149331100Y-115033600D03*
X149331100Y-115943600D03*
X149331100Y-116853600D03*
X149331100Y-117763600D03*
X149331100Y-118673600D03*
X149331100Y-119583600D03*
X149331100Y-120493600D03*
X149331100Y-121403600D03*
X149331100Y-122313600D03*
X148421100Y-112303600D03*
X148421100Y-113213600D03*
X148421100Y-114123600D03*
X148421100Y-115033600D03*
X148421100Y-115943600D03*
X148421100Y-116853600D03*
X148421100Y-117763600D03*
X148421100Y-118673600D03*
X148421100Y-119583600D03*
X148421100Y-120493600D03*
X148421100Y-121403600D03*
X148421100Y-122313600D03*
D24*
%TO.N,GND*%
X175006100Y-80988219D03*
D22*
X168621100Y-81823600D03*
X169856050Y-89260400D03*
X168441100Y-92283600D03*
X166621100Y-92283600D03*
X178331100Y-116233600D03*
%TO.N,/FF2*%
X164761100Y-88006800D03*
%TO.N,/FF1*%
X162101100Y-87033600D03*
%TO.N,/RESET*%
X163081100Y-88533600D03*
%TO.N,/V5*%
X174251100Y-88603600D03*
X173981100Y-94233600D03*
%TO.N,/DIR*%
X173831100Y-93033600D03*
X159261100Y-87773600D03*
%TO.N,/SA*%
X156601100Y-89340400D03*
D23*
X117061100Y-121393600D03*
X117971100Y-121393600D03*
X117516100Y-122183600D03*
X121156100Y-122183600D03*
X118426100Y-122183600D03*
X118881100Y-121393600D03*
X117061100Y-122973600D03*
X117971100Y-122973600D03*
X118881100Y-122973600D03*
X119791100Y-122973600D03*
X128891100Y-122973600D03*
X127981100Y-122973600D03*
X127071100Y-122973600D03*
X126161100Y-122973600D03*
X125251100Y-122973600D03*
X124341100Y-122973600D03*
X123431100Y-122973600D03*
X122521100Y-122973600D03*
X121611100Y-122973600D03*
X120701100Y-122973600D03*
X120246100Y-122183600D03*
X119336100Y-122183600D03*
X119791100Y-121393600D03*
X120701100Y-121393600D03*
X121611100Y-121393600D03*
X122066100Y-122183600D03*
X122976100Y-122183600D03*
X122521100Y-121393600D03*
X123431100Y-121393600D03*
X123886100Y-122183600D03*
X124796100Y-122183600D03*
X124341100Y-121393600D03*
X125706100Y-122183600D03*
X126616100Y-122183600D03*
X125251100Y-121393600D03*
X126161100Y-121393600D03*
X127071100Y-121393600D03*
X127526100Y-122183600D03*
X128436100Y-122183600D03*
X129346100Y-122183600D03*
X130256100Y-122183600D03*
X131166100Y-122183600D03*
X130711100Y-121393600D03*
X128891100Y-121393600D03*
X129801100Y-121393600D03*
X127981100Y-121393600D03*
X117371100Y-120533600D03*
X117371100Y-119623600D03*
X117371100Y-118713600D03*
X117371100Y-117803600D03*
X117061100Y-106733600D03*
X117971100Y-106733600D03*
X117516100Y-107523600D03*
X121156100Y-107523600D03*
X118426100Y-107523600D03*
X118881100Y-106733600D03*
X117061100Y-108313600D03*
X117971100Y-108313600D03*
X118881100Y-108313600D03*
X119791100Y-108313600D03*
X128891100Y-108313600D03*
X127981100Y-108313600D03*
X127071100Y-108313600D03*
X126161100Y-108313600D03*
X125251100Y-108313600D03*
X124341100Y-108313600D03*
X123431100Y-108313600D03*
X122521100Y-108313600D03*
X121611100Y-108313600D03*
X120701100Y-108313600D03*
X120246100Y-107523600D03*
X119336100Y-107523600D03*
X119791100Y-106733600D03*
X120701100Y-106733600D03*
X121611100Y-106733600D03*
X122066100Y-107523600D03*
X122976100Y-107523600D03*
X122521100Y-106733600D03*
X123431100Y-106733600D03*
X123886100Y-107523600D03*
X124796100Y-107523600D03*
X124341100Y-106733600D03*
X125706100Y-107523600D03*
X126616100Y-107523600D03*
X125251100Y-106733600D03*
X126161100Y-106733600D03*
X127071100Y-106733600D03*
X127526100Y-107523600D03*
X128436100Y-107523600D03*
X129346100Y-107523600D03*
X130256100Y-107523600D03*
X131166100Y-107523600D03*
X130711100Y-106733600D03*
X128891100Y-106733600D03*
X129801100Y-106733600D03*
X127981100Y-106733600D03*
X130711100Y-108313600D03*
X129801100Y-108313600D03*
X129834640Y-122941080D03*
X130738880Y-122966480D03*
X117371100Y-116893600D03*
X117371100Y-115983600D03*
X117371100Y-115073600D03*
X117371100Y-114163600D03*
X117371100Y-113253600D03*
X117371100Y-112343600D03*
X117371100Y-111433600D03*
X117371100Y-110523600D03*
X117371100Y-109613600D03*
X131131100Y-120533600D03*
X131131100Y-119623600D03*
X131131100Y-118713600D03*
X131131100Y-117803600D03*
X131131100Y-116893600D03*
X131131100Y-115983600D03*
X131131100Y-115073600D03*
X131131100Y-114163600D03*
X131131100Y-113253600D03*
X131131100Y-112343600D03*
X131131100Y-111433600D03*
X131131100Y-110523600D03*
X131131100Y-109613600D03*
D22*
%TO.N,/GHB*%
X164201100Y-93103600D03*
X160101100Y-89343600D03*
%TO.N,/SB*%
X156714300Y-86533600D03*
D23*
X132461100Y-106773600D03*
X133371100Y-106773600D03*
X132916100Y-107563600D03*
X136556100Y-107563600D03*
X133826100Y-107563600D03*
X134281100Y-106773600D03*
X132461100Y-108353600D03*
X133371100Y-108353600D03*
X134281100Y-108353600D03*
X135191100Y-108353600D03*
X144291100Y-108353600D03*
X143381100Y-108353600D03*
X142471100Y-108353600D03*
X141561100Y-108353600D03*
X140651100Y-108353600D03*
X139741100Y-108353600D03*
X138831100Y-108353600D03*
X137921100Y-108353600D03*
X137011100Y-108353600D03*
X136101100Y-108353600D03*
X135646100Y-107563600D03*
X134736100Y-107563600D03*
X135191100Y-106773600D03*
X136101100Y-106773600D03*
X137011100Y-106773600D03*
X137466100Y-107563600D03*
X138376100Y-107563600D03*
X137921100Y-106773600D03*
X138831100Y-106773600D03*
X139286100Y-107563600D03*
X140196100Y-107563600D03*
X139741100Y-106773600D03*
X141106100Y-107563600D03*
X142016100Y-107563600D03*
X140651100Y-106773600D03*
X141561100Y-106773600D03*
X142471100Y-106773600D03*
X142926100Y-107563600D03*
X143836100Y-107563600D03*
X144746100Y-107563600D03*
X145656100Y-107563600D03*
X146566100Y-107563600D03*
X146111100Y-106773600D03*
X144291100Y-106773600D03*
X145201100Y-106773600D03*
X143381100Y-106773600D03*
X145201100Y-108353600D03*
X146111100Y-108353600D03*
X132531100Y-121393600D03*
X133441100Y-121393600D03*
X132986100Y-122183600D03*
X136626100Y-122183600D03*
X133896100Y-122183600D03*
X134351100Y-121393600D03*
X132531100Y-122973600D03*
X133441100Y-122973600D03*
X134351100Y-122973600D03*
X135261100Y-122973600D03*
X144361100Y-122973600D03*
X143451100Y-122973600D03*
X142541100Y-122973600D03*
X141631100Y-122973600D03*
X140721100Y-122973600D03*
X139811100Y-122973600D03*
X138901100Y-122973600D03*
X137991100Y-122973600D03*
X137081100Y-122973600D03*
X136171100Y-122973600D03*
X135716100Y-122183600D03*
X134806100Y-122183600D03*
X135261100Y-121393600D03*
X136171100Y-121393600D03*
X137081100Y-121393600D03*
X137536100Y-122183600D03*
X138446100Y-122183600D03*
X137991100Y-121393600D03*
X138901100Y-121393600D03*
X139356100Y-122183600D03*
X140266100Y-122183600D03*
X139811100Y-121393600D03*
X141176100Y-122183600D03*
X142086100Y-122183600D03*
X140721100Y-121393600D03*
X141631100Y-121393600D03*
X142541100Y-121393600D03*
X142996100Y-122183600D03*
X143906100Y-122183600D03*
X144816100Y-122183600D03*
X145726100Y-122183600D03*
X146636100Y-122183600D03*
X146181100Y-121393600D03*
X144361100Y-121393600D03*
X145271100Y-121393600D03*
X143451100Y-121393600D03*
X145298160Y-122936000D03*
X146181100Y-122890280D03*
X146601100Y-120533600D03*
X146601100Y-119623600D03*
X146601100Y-118713600D03*
X146601100Y-117803600D03*
X146601100Y-116893600D03*
X146601100Y-115983600D03*
X146601100Y-115073600D03*
X146601100Y-114163600D03*
X146601100Y-113253600D03*
X146601100Y-112343600D03*
X146601100Y-111433600D03*
X146601100Y-110523600D03*
X146601100Y-109613600D03*
X145691100Y-120533600D03*
X145691100Y-119623600D03*
X145691100Y-118713600D03*
X145691100Y-117803600D03*
X145691100Y-116893600D03*
X145691100Y-115983600D03*
X145691100Y-115073600D03*
X145691100Y-114163600D03*
X145691100Y-113253600D03*
X145691100Y-112343600D03*
X145691100Y-111433600D03*
X145691100Y-110523600D03*
X145691100Y-109613600D03*
D22*
%TO.N,/GND_IN*%
X176461100Y-119763600D03*
%TO.N,/PWM_IN*%
X171661100Y-118503600D03*
%TO.N,Net-(3813-HA1-PadGATE)*%
X147511100Y-95013600D03*
%TO.N,Net-(3813-LA1-PadGATE)*%
X147521100Y-96623600D03*
%TD*%
D25*
%TO.N,VCC*%
X163241100Y-90783600D02*
X164271100Y-90783600D01*
D26*
X164271100Y-90783600D02*
X164331100Y-90843600D01*
D25*
X159935118Y-95054200D02*
X159275718Y-95713600D01*
D26*
X159275718Y-95713600D02*
X158921100Y-95713600D01*
D25*
%TO.N,GND*%
X165491100Y-90763600D02*
X163156100Y-93098600D01*
X163156100Y-93098600D02*
X162591100Y-93663600D01*
X162591100Y-93663600D02*
X162221100Y-94033600D01*
X161291100Y-94033600D02*
X162221100Y-94033600D01*
X176191100Y-83783600D02*
X175621100Y-84353600D01*
X175621100Y-84353600D02*
X175621100Y-85653600D01*
D26*
X170151100Y-83803600D02*
X170101100Y-83853600D01*
D25*
X170101100Y-83853600D02*
X169571100Y-84383600D01*
X169571100Y-84383600D02*
X169571100Y-85453600D01*
D26*
X156431100Y-81003600D02*
X156541100Y-81113600D01*
D25*
X156541100Y-81113600D02*
X156541100Y-82503600D01*
X156091100Y-84683600D02*
X156091100Y-82953600D01*
X156091100Y-82953600D02*
X156541100Y-82503600D01*
X165491100Y-90763600D02*
X166491100Y-90763600D01*
D26*
X151761100Y-85193600D02*
X151631100Y-85063600D01*
D25*
X162591100Y-90783600D02*
X162591100Y-93663600D01*
X163811100Y-98483600D02*
X163725146Y-98247841D01*
X163725146Y-98247841D02*
X164939700Y-97033288D01*
X164939700Y-97033288D02*
X164939700Y-94882200D01*
X164939700Y-94882200D02*
X163156100Y-93098600D01*
X176191100Y-83783600D02*
X175191100Y-82783600D01*
X175191100Y-81393219D02*
X175191100Y-82783600D01*
X175191100Y-81393219D02*
X174976100Y-81178219D01*
X174976100Y-80988219D02*
X174976100Y-81178219D01*
D26*
X174976100Y-80988219D02*
X175006100Y-80988219D01*
X169571100Y-85703600D02*
X169571100Y-85453600D01*
X152543437Y-97703600D02*
X151941100Y-97703600D01*
X151941100Y-97703600D02*
X151941100Y-97413600D01*
D25*
X168621100Y-81823600D02*
X168621100Y-82373600D01*
X168621100Y-82373600D02*
X170101100Y-83853600D01*
X151941100Y-97703600D02*
X153026100Y-96618600D01*
X153026100Y-96618600D02*
X154031100Y-95613600D01*
X154031100Y-95613600D02*
X154031100Y-93503600D01*
D26*
X151941100Y-97703600D02*
X151839387Y-97703600D01*
X153036100Y-96618600D02*
X153026100Y-96618600D01*
X166701100Y-90973600D02*
X166491100Y-90763600D01*
X170671100Y-125463600D02*
X171361100Y-126153600D01*
X136101100Y-100863600D02*
X136071100Y-100863600D01*
D25*
X169856050Y-89260400D02*
X168441100Y-90675350D01*
X168441100Y-90675350D02*
X168441100Y-92283600D01*
X166621100Y-92283600D02*
X166621100Y-90893600D01*
D26*
X166621100Y-90893600D02*
X166491100Y-90763600D01*
D25*
%TO.N,Net-(IC1-Pad28)*%
X166491100Y-86283600D02*
X166491100Y-88163600D01*
X166491100Y-86283600D02*
X164841100Y-86283600D01*
X164841100Y-86283600D02*
X163241100Y-84683600D01*
%TO.N,Net-(IC1-Pad27)*%
X159141100Y-82503600D02*
X161461100Y-82503600D01*
X162591100Y-83633600D02*
X162591100Y-84683600D01*
X161461100Y-82503600D02*
X162591100Y-83633600D01*
%TO.N,/FF2*%
X164761100Y-88006800D02*
X163891100Y-87136800D01*
X163891100Y-87136800D02*
X163501100Y-87136800D01*
X163501100Y-87136800D02*
X161941100Y-85576800D01*
X161941100Y-85576800D02*
X161941100Y-84683600D01*
%TO.N,/FF1*%
X162101100Y-87033600D02*
X161291100Y-86223600D01*
X161291100Y-86223600D02*
X161291100Y-84683600D01*
%TO.N,/RESET*%
X163081100Y-88533600D02*
X161971100Y-88533600D01*
X161971100Y-88533600D02*
X160641100Y-87203600D01*
X160641100Y-87203600D02*
X160641100Y-84683600D01*
%TO.N,/PWM*%
X172135787Y-81090000D02*
X168176412Y-81090000D01*
D26*
X173301100Y-82303600D02*
X173292165Y-82246379D01*
D25*
X173292165Y-82246379D02*
X172135787Y-81090000D01*
X168176412Y-81090000D02*
X167621100Y-81645313D01*
X168651100Y-88603600D02*
X167981100Y-89273600D01*
X161851100Y-89273600D02*
X159991100Y-87413600D01*
X159991100Y-87413600D02*
X159991100Y-84683600D01*
X167981100Y-89273600D02*
X161851100Y-89273600D01*
X172641100Y-99073600D02*
X172641100Y-95903600D01*
X170691100Y-93953600D02*
X170691100Y-89033600D01*
X170691100Y-89033600D02*
X170181100Y-88523600D01*
X170181100Y-88523600D02*
X168571100Y-88523600D01*
X172641100Y-95903600D02*
X170691100Y-93953600D01*
X167621100Y-81645313D02*
X167621100Y-87573600D01*
X167621100Y-87573600D02*
X168571100Y-88523600D01*
X168571100Y-88523600D02*
X168651100Y-88603600D01*
D26*
%TO.N,/V5*%
X157831100Y-81003600D02*
X158041100Y-81213600D01*
D25*
X158041100Y-81213600D02*
X158041100Y-84503600D01*
D26*
X158041100Y-84503600D02*
X158041100Y-84683600D01*
D25*
X177591100Y-83783600D02*
X178161100Y-84353600D01*
X178161100Y-84353600D02*
X178161100Y-85653600D01*
X172111100Y-85453600D02*
X172111100Y-84363600D01*
X172111100Y-84363600D02*
X171551100Y-83803600D01*
X166491100Y-83683600D02*
X163851100Y-81003600D01*
X163851100Y-81003600D02*
X157831100Y-81003600D01*
D27*
X159341100Y-84683600D02*
X158221100Y-84683600D01*
D26*
X158221100Y-84683600D02*
X158041100Y-84503600D01*
D25*
X167449500Y-80675200D02*
X166491100Y-81633600D01*
X166491100Y-83683600D02*
X166491100Y-81633600D01*
X167449500Y-80675200D02*
X173650987Y-80675200D01*
X174761100Y-81785313D02*
X174761100Y-82973600D01*
X174761100Y-82973600D02*
X173931100Y-83803600D01*
X173931100Y-83803600D02*
X171551100Y-83803600D01*
X173650987Y-80675200D02*
X174761100Y-81785313D01*
D26*
X172111100Y-85453600D02*
X172361100Y-85453600D01*
D25*
X172361100Y-85453600D02*
X173581100Y-86673600D01*
X178161100Y-85796888D02*
X177284387Y-86673600D01*
D26*
X178161100Y-85796888D02*
X178161100Y-85653600D01*
D25*
X173581100Y-86673600D02*
X177284387Y-86673600D01*
X172111100Y-85453600D02*
X172111100Y-86463600D01*
X172111100Y-86463600D02*
X174251100Y-88603600D01*
X174251100Y-90152544D02*
X174251100Y-88603600D01*
X173981100Y-94233600D02*
X173962950Y-94233600D01*
X173962950Y-94233600D02*
X173054300Y-93324950D01*
X173054300Y-93324950D02*
X173054300Y-91349344D01*
X173054300Y-91349344D02*
X174251100Y-90152544D01*
D27*
X158691100Y-84683600D02*
X159341100Y-84683600D01*
D25*
%TO.N,/DIR*%
X179491100Y-82303600D02*
X179491100Y-85733597D01*
X179491100Y-85733597D02*
X173831100Y-91393600D01*
X173831100Y-91393600D02*
X173831100Y-93033600D01*
X157391100Y-84683600D02*
X157431100Y-84723600D01*
D26*
X157431100Y-84723600D02*
X157461100Y-84753600D01*
D25*
X157461100Y-84753600D02*
X157461100Y-86603600D01*
X157461100Y-86603600D02*
X158631100Y-87773600D01*
X159261100Y-87773600D02*
X158631100Y-87773600D01*
%TO.N,Net-(C6-PadP$2)*%
X154651100Y-82503600D02*
X155441100Y-83293600D01*
X155441100Y-83293600D02*
X155441100Y-84683600D01*
%TO.N,Net-(C6-PadP$1)*%
X152651100Y-82503600D02*
X154791100Y-84643600D01*
D26*
X154791100Y-84643600D02*
X154791100Y-84683600D01*
D25*
%TO.N,Net-(C5-PadP$2)*%
X155431100Y-93503600D02*
X155431100Y-90793600D01*
D26*
X155431100Y-90793600D02*
X155441100Y-90783600D01*
D25*
X155441100Y-95713600D02*
X155441100Y-93513600D01*
D26*
X155441100Y-93513600D02*
X155431100Y-93503600D01*
%TO.N,/GLA*%
X151951100Y-90883600D02*
X152391100Y-90883600D01*
D25*
X153614700Y-89660000D02*
X152391100Y-90883600D01*
X155820787Y-89660000D02*
X156091100Y-89930313D01*
X156091100Y-89930313D02*
X156091100Y-90783600D01*
X153614700Y-89660000D02*
X155820787Y-89660000D01*
D27*
%TO.N,/SA*%
X156741100Y-90783600D02*
X156741100Y-92433600D01*
X156741100Y-92433600D02*
X156671100Y-92503600D01*
D25*
X156601100Y-89340400D02*
X156761100Y-89500400D01*
X156761100Y-89500400D02*
X156761100Y-90763600D01*
X156761100Y-90763600D02*
X156741100Y-90783600D01*
X156671100Y-92503600D02*
X156669700Y-92505000D01*
X156669700Y-92505000D02*
X156669700Y-97738288D01*
X156669700Y-97738288D02*
X154334387Y-100073600D01*
X154334387Y-100073600D02*
X150781100Y-100073600D01*
X150781100Y-100073600D02*
X149371100Y-98663600D01*
X149371100Y-98663600D02*
X149371100Y-97643600D01*
D26*
X149371100Y-97643600D02*
X149356300Y-97628800D01*
D25*
X149356300Y-97628800D02*
X137892656Y-97628800D01*
X131061100Y-102473600D02*
X129371100Y-100783600D01*
D28*
X131061100Y-102475940D02*
X131061100Y-102473600D01*
X131104480Y-102519320D02*
X131061100Y-102475940D01*
X136547300Y-102519320D02*
X131104480Y-102519320D01*
X137054090Y-102012530D02*
X136547300Y-102519320D01*
X137054090Y-98467366D02*
X137054090Y-102012530D01*
X137892656Y-97628800D02*
X137054090Y-98467366D01*
D25*
%TO.N,/GHA*%
X157391100Y-89090313D02*
X157391100Y-90783600D01*
X149381100Y-90883600D02*
X150901100Y-89363600D01*
X152811100Y-89363600D02*
X153881100Y-88293600D01*
X153881100Y-88293600D02*
X156594387Y-88293600D01*
X156594387Y-88293600D02*
X157391100Y-89090313D01*
X150901100Y-89363600D02*
X152811100Y-89363600D01*
D27*
%TO.N,Net-(C8-PadP$1)*%
X158051100Y-90793600D02*
X158051100Y-92483600D01*
X158071100Y-92503600D02*
X158051100Y-92483600D01*
D26*
X158051100Y-90793600D02*
X158041100Y-90783600D01*
D25*
%TO.N,Net-(C4-PadP$2)*%
X159891100Y-94033600D02*
X158701100Y-92823932D01*
X158691100Y-90783600D02*
X158701100Y-90793600D01*
X158701100Y-90793600D02*
X158701100Y-92823932D01*
X156771100Y-87853600D02*
X151941100Y-87853600D01*
X151631100Y-88163600D02*
X151941100Y-87853600D01*
X158691100Y-89773600D02*
X158691100Y-90783600D01*
X156771100Y-87853600D02*
X158691100Y-89773600D01*
D27*
%TO.N,Net-(C7-PadP$1)*%
X159991100Y-90783600D02*
X159991100Y-92413600D01*
D26*
X159991100Y-92413600D02*
X159901100Y-92503600D01*
D25*
%TO.N,/GHB*%
X169041100Y-96193600D02*
X165951100Y-93103600D01*
X165951100Y-93103600D02*
X164201100Y-93103600D01*
X160641100Y-89883600D02*
X160101100Y-89343600D01*
X160641100Y-89883600D02*
X160641100Y-90783600D01*
D27*
%TO.N,/SB*%
X161301100Y-92503600D02*
X161301100Y-90793600D01*
D26*
X161301100Y-90793600D02*
X161291100Y-90783600D01*
D25*
X143491100Y-100783600D02*
X145756162Y-103048663D01*
X164416037Y-103048663D02*
X145756162Y-103048663D01*
D26*
X169051100Y-98413600D02*
X168991100Y-98473600D01*
D25*
X168991100Y-98473600D02*
X164416037Y-103048663D01*
X170239700Y-95423913D02*
X170239700Y-97225000D01*
X170239700Y-97225000D02*
X168991100Y-98473600D01*
X156714300Y-86533600D02*
X157511100Y-87330400D01*
X157511100Y-87330400D02*
X157511100Y-87903600D01*
X159769750Y-88596800D02*
X160482450Y-88596800D01*
X157511100Y-87903600D02*
X158377900Y-88770400D01*
X158377900Y-88770400D02*
X159596150Y-88770400D01*
X159596150Y-88770400D02*
X159769750Y-88596800D01*
X160482450Y-88596800D02*
X161573531Y-89687882D01*
D26*
X141161100Y-126003600D02*
X141161100Y-124003600D01*
X143161100Y-126003600D02*
X143161100Y-124003600D01*
X143161100Y-126003600D02*
X143421100Y-126153600D01*
D25*
X170239700Y-95423913D02*
X167664700Y-92848913D01*
X167664700Y-92848913D02*
X167664700Y-89918913D01*
X161291100Y-90783600D02*
X161291100Y-89970313D01*
D28*
X161573531Y-89687882D02*
X161291100Y-89970313D01*
X161580214Y-89681199D02*
X161573531Y-89687882D01*
X167354399Y-89681199D02*
X161580214Y-89681199D01*
X167592113Y-89918913D02*
X167354399Y-89681199D01*
X167664700Y-89918913D02*
X167592113Y-89918913D01*
D26*
%TO.N,/GLB*%
X163811100Y-96173600D02*
X163711100Y-95918288D01*
D25*
X160786412Y-94722200D02*
X160612500Y-94548288D01*
X160612500Y-94548288D02*
X160612500Y-93518913D01*
X160612500Y-93518913D02*
X160796412Y-93335000D01*
X163811100Y-96173600D02*
X162259700Y-94722200D01*
X162259700Y-94722200D02*
X160786412Y-94722200D01*
X160796412Y-93335000D02*
X161672987Y-93335000D01*
X161672987Y-93335000D02*
X161969700Y-93038288D01*
X161941100Y-90783600D02*
X161969700Y-90812200D01*
X161969700Y-90812200D02*
X161969700Y-93038288D01*
%TO.N,Net-(R1-PadRIGHT)*%
X176891100Y-82303600D02*
X176901100Y-85643600D01*
D26*
X176891100Y-85653600D02*
X176901100Y-85643600D01*
%TO.N,Net-(R9-PadRIGHT)*%
X170701100Y-82303600D02*
X170831100Y-82303600D01*
D25*
X170831100Y-82303600D02*
X170831100Y-85443600D01*
D26*
X170841100Y-85453600D02*
X170831100Y-85443600D01*
D25*
%TO.N,/GND_IN*%
X176461100Y-94303600D02*
X176461100Y-119763600D01*
X175621100Y-93463600D02*
X175621100Y-91953600D01*
X176461100Y-94303600D02*
X175621100Y-93463600D01*
%TO.N,/DIR_IN*%
X178161100Y-91953600D02*
X178161100Y-97163600D01*
X178161100Y-97163600D02*
X179131100Y-98133600D01*
X179131100Y-98133600D02*
X179131100Y-126003600D01*
D26*
X179131100Y-126003600D02*
X178981100Y-126153600D01*
%TO.N,/PWM_IN*%
X169571100Y-91753600D02*
X169631100Y-91813600D01*
D25*
X169631100Y-94003600D02*
X171691100Y-96063600D01*
X171691100Y-96063600D02*
X171691100Y-118473600D01*
D26*
X171691100Y-118473600D02*
X171661100Y-118503600D01*
D25*
X169631100Y-91813600D02*
X169631100Y-94003600D01*
%TO.N,/VCC_IN*%
X172111100Y-91753600D02*
X172111100Y-93853600D01*
X172111100Y-93853600D02*
X173981100Y-95723600D01*
D26*
X176661100Y-125933600D02*
X176441100Y-126153600D01*
D25*
X173981100Y-95723600D02*
X173981100Y-119573600D01*
X173981100Y-119573600D02*
X176661100Y-122253600D01*
X176661100Y-122253600D02*
X176661100Y-125933600D01*
D26*
%TO.N,Net-(3813-HA1-PadGATE)*%
X149381100Y-93483600D02*
X149371100Y-93493600D01*
D29*
X149371100Y-93493600D02*
X149371100Y-95043600D01*
D25*
X149371100Y-95043600D02*
X147541100Y-95043600D01*
D26*
X147541100Y-95043600D02*
X147511100Y-95013600D01*
D29*
%TO.N,Net-(3813-LA1-PadGATE)*%
X151951100Y-93483600D02*
X151951100Y-95093600D01*
D26*
X151951100Y-95093600D02*
X151941100Y-95103600D01*
D25*
X150587500Y-98308288D02*
X151201412Y-98922200D01*
X151201412Y-98922200D02*
X152750787Y-98922200D01*
X150587500Y-98308288D02*
X150587500Y-96831713D01*
X152750787Y-98922200D02*
X154689700Y-96983288D01*
X154689700Y-96983288D02*
X154689700Y-92992200D01*
D26*
X151971100Y-93483600D02*
X151951100Y-93483600D01*
D25*
X153651100Y-91953600D02*
X152351100Y-91953600D01*
X152351100Y-91953600D02*
X151971100Y-92333600D01*
X151971100Y-92333600D02*
X151971100Y-93483600D01*
X154689700Y-92992200D02*
X153651100Y-91953600D01*
X150379387Y-96623600D02*
X147521100Y-96623600D01*
X150587500Y-96831713D02*
X150379387Y-96623600D01*
D26*
%TO.N,Net-(3813-HB1-PadGATE)*%
X166441100Y-96193600D02*
X166451100Y-96203600D01*
D25*
X166451100Y-96203600D02*
X166451100Y-98413600D01*
X166451100Y-98413600D02*
X163911100Y-100953600D01*
X146991100Y-100953600D02*
X145161100Y-99123600D01*
X145161100Y-99123600D02*
X140711100Y-99123600D01*
X140711100Y-99123600D02*
X138951100Y-100883600D01*
X138951100Y-100883600D02*
X138411100Y-100783600D01*
X163911100Y-100953600D02*
X146991100Y-100953600D01*
%TO.N,Net-(3813-LB1-PadGATE)*%
X161211100Y-96173600D02*
X161111100Y-98473600D01*
D26*
X161211100Y-98483600D02*
X161111100Y-98473600D01*
D25*
X161211100Y-98483600D02*
X158601100Y-98483600D01*
X145541100Y-98623600D02*
X147411100Y-100493600D01*
X158601100Y-98483600D02*
X156591100Y-100493600D01*
X156591100Y-100493600D02*
X147411100Y-100493600D01*
X139084500Y-102460200D02*
X138065512Y-102460200D01*
X138065512Y-102460200D02*
X137458500Y-101853188D01*
X137458500Y-101853188D02*
X137458500Y-99554013D01*
X137458500Y-99554013D02*
X138388912Y-98623600D01*
X138388912Y-98623600D02*
X145541100Y-98623600D01*
X141181100Y-100863600D02*
X140681100Y-100863600D01*
X140681100Y-100863600D02*
X139084500Y-102460200D01*
%TD*%
D30*
%TO.N,VCC*%
X160789200Y-108747819D02*
X160789200Y-123312179D01*
X160201100Y-123312179D01*
X160163756Y-123315857D01*
X160127846Y-123326750D01*
X160094752Y-123344439D01*
X160073720Y-123361700D01*
X159788480Y-123361700D01*
X159767448Y-123344439D01*
X159734354Y-123326750D01*
X159698444Y-123315857D01*
X159661100Y-123312179D01*
X157661100Y-123312179D01*
X157623756Y-123315857D01*
X157587846Y-123326750D01*
X157554752Y-123344439D01*
X157533720Y-123361700D01*
X157248480Y-123361700D01*
X157227448Y-123344439D01*
X157194354Y-123326750D01*
X157158444Y-123315857D01*
X157121100Y-123312179D01*
X155121100Y-123312179D01*
X155083756Y-123315857D01*
X155047846Y-123326750D01*
X155014752Y-123344439D01*
X154993720Y-123361700D01*
X154708480Y-123361700D01*
X154687448Y-123344439D01*
X154654354Y-123326750D01*
X154618444Y-123315857D01*
X154581100Y-123312179D01*
X152581100Y-123312179D01*
X152543756Y-123315857D01*
X152507846Y-123326750D01*
X152474752Y-123344439D01*
X152453720Y-123361700D01*
X152168480Y-123361700D01*
X152147448Y-123344439D01*
X152114354Y-123326750D01*
X152078444Y-123315857D01*
X152041100Y-123312179D01*
X150041100Y-123312179D01*
X150003756Y-123315857D01*
X149967846Y-123326750D01*
X149934752Y-123344439D01*
X149913720Y-123361700D01*
X149628480Y-123361700D01*
X149607448Y-123344439D01*
X149574354Y-123326750D01*
X149538444Y-123315857D01*
X149501100Y-123312179D01*
X147501100Y-123312179D01*
X147463756Y-123315857D01*
X147443000Y-123322153D01*
X147443000Y-105485500D01*
X157526881Y-105485500D01*
X160789200Y-108747819D01*
%TA.AperFunction,Conductor*%
D31*
G36*
X160789200Y-108747819D02*
G01*
X160789200Y-123312179D01*
X160201100Y-123312179D01*
X160163756Y-123315857D01*
X160127846Y-123326750D01*
X160094752Y-123344439D01*
X160073720Y-123361700D01*
X159788480Y-123361700D01*
X159767448Y-123344439D01*
X159734354Y-123326750D01*
X159698444Y-123315857D01*
X159661100Y-123312179D01*
X157661100Y-123312179D01*
X157623756Y-123315857D01*
X157587846Y-123326750D01*
X157554752Y-123344439D01*
X157533720Y-123361700D01*
X157248480Y-123361700D01*
X157227448Y-123344439D01*
X157194354Y-123326750D01*
X157158444Y-123315857D01*
X157121100Y-123312179D01*
X155121100Y-123312179D01*
X155083756Y-123315857D01*
X155047846Y-123326750D01*
X155014752Y-123344439D01*
X154993720Y-123361700D01*
X154708480Y-123361700D01*
X154687448Y-123344439D01*
X154654354Y-123326750D01*
X154618444Y-123315857D01*
X154581100Y-123312179D01*
X152581100Y-123312179D01*
X152543756Y-123315857D01*
X152507846Y-123326750D01*
X152474752Y-123344439D01*
X152453720Y-123361700D01*
X152168480Y-123361700D01*
X152147448Y-123344439D01*
X152114354Y-123326750D01*
X152078444Y-123315857D01*
X152041100Y-123312179D01*
X150041100Y-123312179D01*
X150003756Y-123315857D01*
X149967846Y-123326750D01*
X149934752Y-123344439D01*
X149913720Y-123361700D01*
X149628480Y-123361700D01*
X149607448Y-123344439D01*
X149574354Y-123326750D01*
X149538444Y-123315857D01*
X149501100Y-123312179D01*
X147501100Y-123312179D01*
X147463756Y-123315857D01*
X147443000Y-123322153D01*
X147443000Y-105485500D01*
X157526881Y-105485500D01*
X160789200Y-108747819D01*
G37*
%TD.AperFunction*%
%TD*%
D30*
%TO.N,GND*%
X181277999Y-128977463D02*
X179814964Y-130440499D01*
X144977800Y-130440499D01*
X144977800Y-123590300D01*
X147237300Y-123590300D01*
X147274465Y-123586640D01*
X147310201Y-123575799D01*
X147321100Y-123569973D01*
X147331999Y-123575799D01*
X147367735Y-123586640D01*
X147404900Y-123590300D01*
X160827300Y-123590300D01*
X160864465Y-123586640D01*
X160900201Y-123575799D01*
X160933136Y-123558195D01*
X160962004Y-123534504D01*
X160985695Y-123505636D01*
X161003299Y-123472701D01*
X161014140Y-123436965D01*
X161017800Y-123399800D01*
X161017800Y-108732037D01*
X161014140Y-108694872D01*
X161003299Y-108659136D01*
X160985695Y-108626201D01*
X160962004Y-108597333D01*
X157677367Y-105312696D01*
X157648499Y-105289005D01*
X157615564Y-105271401D01*
X157579828Y-105260560D01*
X157542663Y-105256900D01*
X147404900Y-105256900D01*
X147367735Y-105260560D01*
X147331999Y-105271401D01*
X147299064Y-105289005D01*
X147270196Y-105312696D01*
X147246505Y-105341564D01*
X147228901Y-105374499D01*
X147218060Y-105410235D01*
X147214400Y-105447400D01*
X147214400Y-105886900D01*
X131994900Y-105886900D01*
X131957735Y-105890560D01*
X131921999Y-105901401D01*
X131916100Y-105904554D01*
X131910201Y-105901401D01*
X131874465Y-105890560D01*
X131837300Y-105886900D01*
X115724201Y-105886900D01*
X115724201Y-100088114D01*
X123446600Y-100088114D01*
X123446601Y-101479087D01*
X123458820Y-101603151D01*
X123507110Y-101762340D01*
X123585528Y-101909049D01*
X123691060Y-102037641D01*
X123819652Y-102143173D01*
X123966361Y-102221591D01*
X124125550Y-102269881D01*
X124291100Y-102286186D01*
X124456651Y-102269881D01*
X124615840Y-102221591D01*
X124762549Y-102143173D01*
X124891141Y-102037641D01*
X124996673Y-101909049D01*
X125075091Y-101762340D01*
X125123381Y-101603151D01*
X125127720Y-101559086D01*
X125946600Y-101559086D01*
X125958819Y-101683150D01*
X126007109Y-101842339D01*
X126085527Y-101989048D01*
X126191059Y-102117641D01*
X126319651Y-102223173D01*
X126466360Y-102301591D01*
X126625549Y-102349881D01*
X126791100Y-102366186D01*
X126956650Y-102349881D01*
X127115839Y-102301591D01*
X127262548Y-102223173D01*
X127391141Y-102117641D01*
X127496673Y-101989049D01*
X127575091Y-101842340D01*
X127623381Y-101683151D01*
X127635600Y-101559087D01*
X127635600Y-100168113D01*
X127627721Y-100088114D01*
X128526600Y-100088114D01*
X128526601Y-101479087D01*
X128538820Y-101603151D01*
X128587110Y-101762340D01*
X128665528Y-101909049D01*
X128771060Y-102037641D01*
X128899652Y-102143173D01*
X129046361Y-102221591D01*
X129205550Y-102269881D01*
X129371100Y-102286186D01*
X129536651Y-102269881D01*
X129695840Y-102221591D01*
X129842549Y-102143173D01*
X129971141Y-102037641D01*
X130063540Y-101925052D01*
X130829292Y-102690805D01*
X130836929Y-102700111D01*
X130846236Y-102707749D01*
X130847621Y-102709134D01*
X130850354Y-102711377D01*
X130870428Y-102731451D01*
X130880309Y-102743491D01*
X130928350Y-102782917D01*
X130983159Y-102812214D01*
X131042631Y-102830254D01*
X131088987Y-102834820D01*
X131088995Y-102834820D01*
X131104480Y-102836345D01*
X131119965Y-102834820D01*
X136531818Y-102834820D01*
X136547300Y-102836345D01*
X136562782Y-102834820D01*
X136562793Y-102834820D01*
X136609149Y-102830254D01*
X136668621Y-102812214D01*
X136723430Y-102782917D01*
X136771471Y-102743491D01*
X136781351Y-102731452D01*
X137266232Y-102246573D01*
X137278261Y-102236701D01*
X137288132Y-102224673D01*
X137288137Y-102224668D01*
X137317687Y-102188660D01*
X137327187Y-102170887D01*
X137829975Y-102673676D01*
X137839919Y-102685793D01*
X137888264Y-102725468D01*
X137888265Y-102725469D01*
X137943422Y-102754951D01*
X138003271Y-102773106D01*
X138065512Y-102779236D01*
X138081108Y-102777700D01*
X139068904Y-102777700D01*
X139084500Y-102779236D01*
X139100096Y-102777700D01*
X139146741Y-102773106D01*
X139206590Y-102754951D01*
X139261747Y-102725469D01*
X139310093Y-102685793D01*
X139320042Y-102673670D01*
X140345389Y-101648324D01*
X140348819Y-101683150D01*
X140397109Y-101842339D01*
X140475527Y-101989048D01*
X140581059Y-102117641D01*
X140709651Y-102223173D01*
X140856360Y-102301591D01*
X141015549Y-102349881D01*
X141181100Y-102366186D01*
X141346650Y-102349881D01*
X141505839Y-102301591D01*
X141652548Y-102223173D01*
X141781141Y-102117641D01*
X141886673Y-101989049D01*
X141965091Y-101842340D01*
X142013381Y-101683151D01*
X142025600Y-101559087D01*
X142025600Y-100168113D01*
X142013381Y-100044049D01*
X141965091Y-99884860D01*
X141886673Y-99738151D01*
X141781141Y-99609559D01*
X141652549Y-99504027D01*
X141534821Y-99441100D01*
X142998847Y-99441100D01*
X142891059Y-99529559D01*
X142785527Y-99658152D01*
X142707109Y-99804861D01*
X142658819Y-99964050D01*
X142646600Y-100088114D01*
X142646601Y-101479087D01*
X142658820Y-101603151D01*
X142707110Y-101762340D01*
X142785528Y-101909049D01*
X142891060Y-102037641D01*
X143019652Y-102143173D01*
X143166361Y-102221591D01*
X143325550Y-102269881D01*
X143491100Y-102286186D01*
X143656651Y-102269881D01*
X143815840Y-102221591D01*
X143962549Y-102143173D01*
X144091141Y-102037641D01*
X144183540Y-101925052D01*
X145520625Y-103262139D01*
X145530569Y-103274256D01*
X145578915Y-103313932D01*
X145634072Y-103343414D01*
X145693921Y-103361569D01*
X145740566Y-103366163D01*
X145740568Y-103366163D01*
X145756161Y-103367699D01*
X145771757Y-103366163D01*
X164400441Y-103366163D01*
X164416037Y-103367699D01*
X164431633Y-103366163D01*
X164478278Y-103361569D01*
X164538127Y-103343414D01*
X164593284Y-103313932D01*
X164641630Y-103274256D01*
X164651579Y-103262133D01*
X168483692Y-99430021D01*
X169751100Y-99430021D01*
X169788444Y-99426343D01*
X169824354Y-99415450D01*
X169857448Y-99397761D01*
X169886455Y-99373955D01*
X169910261Y-99344948D01*
X169927950Y-99311854D01*
X169938843Y-99275944D01*
X169942521Y-99238600D01*
X169942521Y-97971192D01*
X170453176Y-97460537D01*
X170465293Y-97450593D01*
X170504969Y-97402247D01*
X170534451Y-97347090D01*
X170552606Y-97287241D01*
X170557200Y-97240596D01*
X170558736Y-97225001D01*
X170557200Y-97209405D01*
X170557200Y-95439509D01*
X170558736Y-95423913D01*
X170553966Y-95375478D01*
X171373600Y-96195113D01*
X171373601Y-117925950D01*
X171356194Y-117933160D01*
X171250765Y-118003605D01*
X171161105Y-118093265D01*
X171090660Y-118198694D01*
X171042137Y-118315840D01*
X171017400Y-118440201D01*
X171017400Y-118566999D01*
X171042137Y-118691360D01*
X171090660Y-118808506D01*
X171161105Y-118913935D01*
X171250765Y-119003595D01*
X171356194Y-119074040D01*
X171473340Y-119122563D01*
X171597701Y-119147300D01*
X171724499Y-119147300D01*
X171848860Y-119122563D01*
X171966006Y-119074040D01*
X172071435Y-119003595D01*
X172161095Y-118913935D01*
X172231540Y-118808506D01*
X172280063Y-118691360D01*
X172304800Y-118566999D01*
X172304800Y-118440201D01*
X172280063Y-118315840D01*
X172231540Y-118198694D01*
X172161095Y-118093265D01*
X172071435Y-118003605D01*
X172008600Y-117961620D01*
X172008600Y-99635403D01*
X172102763Y-99729566D01*
X172241079Y-99821986D01*
X172394768Y-99885646D01*
X172557924Y-99918100D01*
X172724276Y-99918100D01*
X172887432Y-99885646D01*
X173041121Y-99821986D01*
X173179437Y-99729566D01*
X173297066Y-99611937D01*
X173389486Y-99473621D01*
X173453146Y-99319932D01*
X173485600Y-99156776D01*
X173485600Y-98990424D01*
X173453146Y-98827268D01*
X173389486Y-98673579D01*
X173297066Y-98535263D01*
X173179437Y-98417634D01*
X173041121Y-98325214D01*
X172958600Y-98291033D01*
X172958600Y-95919192D01*
X172960136Y-95903599D01*
X172958248Y-95884431D01*
X172954006Y-95841359D01*
X172935851Y-95781510D01*
X172906369Y-95726353D01*
X172866693Y-95678007D01*
X172854576Y-95668063D01*
X171008600Y-93822088D01*
X171008600Y-91153600D01*
X171519679Y-91153600D01*
X171519679Y-92353600D01*
X171523357Y-92390944D01*
X171534250Y-92426854D01*
X171551939Y-92459948D01*
X171575745Y-92488955D01*
X171604752Y-92512761D01*
X171637846Y-92530450D01*
X171673756Y-92541343D01*
X171711100Y-92545021D01*
X171793600Y-92545021D01*
X171793601Y-93837994D01*
X171792064Y-93853600D01*
X171798194Y-93915840D01*
X171816349Y-93975689D01*
X171816350Y-93975690D01*
X171845832Y-94030847D01*
X171885508Y-94079193D01*
X171897625Y-94089137D01*
X173663600Y-95855113D01*
X173663601Y-119557994D01*
X173662064Y-119573600D01*
X173668194Y-119635840D01*
X173686349Y-119695689D01*
X173686350Y-119695690D01*
X173715832Y-119750847D01*
X173755508Y-119799193D01*
X173767625Y-119809137D01*
X176343600Y-122385113D01*
X176343600Y-123312179D01*
X175441100Y-123312179D01*
X175403756Y-123315857D01*
X175367846Y-123326750D01*
X175334752Y-123344439D01*
X175305745Y-123368245D01*
X175281939Y-123397252D01*
X175264250Y-123430346D01*
X175253357Y-123466256D01*
X175249679Y-123503600D01*
X175249679Y-128803600D01*
X175253357Y-128840944D01*
X175264250Y-128876854D01*
X175281939Y-128909948D01*
X175305745Y-128938955D01*
X175334752Y-128962761D01*
X175367846Y-128980450D01*
X175403756Y-128991343D01*
X175441100Y-128995021D01*
X177441100Y-128995021D01*
X177478444Y-128991343D01*
X177514354Y-128980450D01*
X177547448Y-128962761D01*
X177576455Y-128938955D01*
X177600261Y-128909948D01*
X177617950Y-128876854D01*
X177628843Y-128840944D01*
X177632521Y-128803600D01*
X177632521Y-123503600D01*
X177628843Y-123466256D01*
X177617950Y-123430346D01*
X177600261Y-123397252D01*
X177576455Y-123368245D01*
X177547448Y-123344439D01*
X177514354Y-123326750D01*
X177478444Y-123315857D01*
X177441100Y-123312179D01*
X176978600Y-123312179D01*
X176978600Y-122269192D01*
X176980136Y-122253599D01*
X176978600Y-122238004D01*
X176974006Y-122191359D01*
X176955851Y-122131510D01*
X176926369Y-122076353D01*
X176886693Y-122028007D01*
X176874577Y-122018064D01*
X174298600Y-119442088D01*
X174298600Y-99166831D01*
X174329054Y-99319932D01*
X174392714Y-99473621D01*
X174485134Y-99611937D01*
X174602763Y-99729566D01*
X174741079Y-99821986D01*
X174894768Y-99885646D01*
X175057924Y-99918100D01*
X175224276Y-99918100D01*
X175387432Y-99885646D01*
X175541121Y-99821986D01*
X175679437Y-99729566D01*
X175797066Y-99611937D01*
X175889486Y-99473621D01*
X175953146Y-99319932D01*
X175985600Y-99156776D01*
X175985600Y-98990424D01*
X175953146Y-98827268D01*
X175889486Y-98673579D01*
X175797066Y-98535263D01*
X175679437Y-98417634D01*
X175541121Y-98325214D01*
X175387432Y-98261554D01*
X175224276Y-98229100D01*
X175057924Y-98229100D01*
X174894768Y-98261554D01*
X174741079Y-98325214D01*
X174602763Y-98417634D01*
X174485134Y-98535263D01*
X174392714Y-98673579D01*
X174329054Y-98827268D01*
X174298600Y-98980369D01*
X174298600Y-95739192D01*
X174300136Y-95723599D01*
X174297605Y-95697900D01*
X174294006Y-95661359D01*
X174275851Y-95601510D01*
X174246369Y-95546353D01*
X174206693Y-95498007D01*
X174194577Y-95488064D01*
X172428600Y-93722088D01*
X172428600Y-92545021D01*
X172511100Y-92545021D01*
X172548444Y-92541343D01*
X172584354Y-92530450D01*
X172617448Y-92512761D01*
X172646455Y-92488955D01*
X172670261Y-92459948D01*
X172687950Y-92426854D01*
X172698843Y-92390944D01*
X172702521Y-92353600D01*
X172702521Y-91153600D01*
X172698843Y-91116256D01*
X172687950Y-91080346D01*
X172670261Y-91047252D01*
X172646455Y-91018245D01*
X172617448Y-90994439D01*
X172584354Y-90976750D01*
X172548444Y-90965857D01*
X172511100Y-90962179D01*
X171711100Y-90962179D01*
X171673756Y-90965857D01*
X171637846Y-90976750D01*
X171604752Y-90994439D01*
X171575745Y-91018245D01*
X171551939Y-91047252D01*
X171534250Y-91080346D01*
X171523357Y-91116256D01*
X171519679Y-91153600D01*
X171008600Y-91153600D01*
X171008600Y-89049196D01*
X171010136Y-89033600D01*
X171004006Y-88971359D01*
X170985851Y-88911510D01*
X170956369Y-88856353D01*
X170942238Y-88839134D01*
X170916693Y-88808007D01*
X170904576Y-88798063D01*
X170416642Y-88310130D01*
X170406693Y-88298007D01*
X170358347Y-88258331D01*
X170303190Y-88228849D01*
X170243341Y-88210694D01*
X170196696Y-88206100D01*
X170181100Y-88204564D01*
X170165504Y-88206100D01*
X168702613Y-88206100D01*
X167938600Y-87442088D01*
X167938600Y-81776825D01*
X168307925Y-81407500D01*
X169823597Y-81407500D01*
X169813357Y-81441256D01*
X169809679Y-81478600D01*
X169809679Y-83128600D01*
X169813357Y-83165944D01*
X169824250Y-83201854D01*
X169841939Y-83234948D01*
X169865745Y-83263955D01*
X169894752Y-83287761D01*
X169927846Y-83305450D01*
X169963756Y-83316343D01*
X170001100Y-83320021D01*
X170513600Y-83320021D01*
X170513601Y-84662179D01*
X170441100Y-84662179D01*
X170403756Y-84665857D01*
X170367846Y-84676750D01*
X170334752Y-84694439D01*
X170305745Y-84718245D01*
X170281939Y-84747252D01*
X170264250Y-84780346D01*
X170253357Y-84816256D01*
X170249679Y-84853600D01*
X170249679Y-86053600D01*
X170253357Y-86090944D01*
X170264250Y-86126854D01*
X170281939Y-86159948D01*
X170305745Y-86188955D01*
X170334752Y-86212761D01*
X170367846Y-86230450D01*
X170403756Y-86241343D01*
X170441100Y-86245021D01*
X171241100Y-86245021D01*
X171278444Y-86241343D01*
X171314354Y-86230450D01*
X171347448Y-86212761D01*
X171376455Y-86188955D01*
X171400261Y-86159948D01*
X171417950Y-86126854D01*
X171428843Y-86090944D01*
X171432521Y-86053600D01*
X171432521Y-84853600D01*
X171428843Y-84816256D01*
X171417950Y-84780346D01*
X171400261Y-84747252D01*
X171376455Y-84718245D01*
X171347448Y-84694439D01*
X171314354Y-84676750D01*
X171278444Y-84665857D01*
X171241100Y-84662179D01*
X171148600Y-84662179D01*
X171148600Y-84386746D01*
X171163756Y-84391343D01*
X171201100Y-84395021D01*
X171693508Y-84395021D01*
X171793601Y-84495114D01*
X171793601Y-84662179D01*
X171711100Y-84662179D01*
X171673756Y-84665857D01*
X171637846Y-84676750D01*
X171604752Y-84694439D01*
X171575745Y-84718245D01*
X171551939Y-84747252D01*
X171534250Y-84780346D01*
X171523357Y-84816256D01*
X171519679Y-84853600D01*
X171519679Y-86053600D01*
X171523357Y-86090944D01*
X171534250Y-86126854D01*
X171551939Y-86159948D01*
X171575745Y-86188955D01*
X171604752Y-86212761D01*
X171637846Y-86230450D01*
X171673756Y-86241343D01*
X171711100Y-86245021D01*
X171793601Y-86245021D01*
X171793601Y-86447995D01*
X171792064Y-86463600D01*
X171798194Y-86525840D01*
X171816349Y-86585689D01*
X171816350Y-86585690D01*
X171845832Y-86640847D01*
X171885508Y-86689193D01*
X171897625Y-86699137D01*
X173629182Y-88430695D01*
X173607400Y-88540201D01*
X173607400Y-88666999D01*
X173632137Y-88791360D01*
X173680660Y-88908506D01*
X173751105Y-89013935D01*
X173840765Y-89103595D01*
X173933601Y-89165625D01*
X173933600Y-90021031D01*
X172840825Y-91113807D01*
X172828708Y-91123751D01*
X172789032Y-91172097D01*
X172784743Y-91180122D01*
X172759549Y-91227255D01*
X172741394Y-91287104D01*
X172735264Y-91349344D01*
X172736801Y-91364950D01*
X172736800Y-93309354D01*
X172735264Y-93324950D01*
X172737387Y-93346506D01*
X172741394Y-93387190D01*
X172759549Y-93447039D01*
X172789031Y-93502196D01*
X172828707Y-93550543D01*
X172840830Y-93560492D01*
X173356171Y-94075833D01*
X173337400Y-94170201D01*
X173337400Y-94296999D01*
X173362137Y-94421360D01*
X173410660Y-94538506D01*
X173481105Y-94643935D01*
X173570765Y-94733595D01*
X173676194Y-94804040D01*
X173793340Y-94852563D01*
X173917701Y-94877300D01*
X174044499Y-94877300D01*
X174168860Y-94852563D01*
X174286006Y-94804040D01*
X174391435Y-94733595D01*
X174481095Y-94643935D01*
X174551540Y-94538506D01*
X174600063Y-94421360D01*
X174624800Y-94296999D01*
X174624800Y-94170201D01*
X174600063Y-94045840D01*
X174551540Y-93928694D01*
X174481095Y-93823265D01*
X174391435Y-93733605D01*
X174286006Y-93663160D01*
X174168860Y-93614637D01*
X174129381Y-93606784D01*
X174136006Y-93604040D01*
X174241435Y-93533595D01*
X174331095Y-93443935D01*
X174401540Y-93338506D01*
X174450063Y-93221360D01*
X174474800Y-93096999D01*
X174474800Y-92970201D01*
X174450063Y-92845840D01*
X174401540Y-92728694D01*
X174331095Y-92623265D01*
X174241435Y-92533605D01*
X174148600Y-92471575D01*
X174148600Y-91525112D01*
X174320111Y-91353600D01*
X175029679Y-91353600D01*
X175029679Y-92553600D01*
X175033357Y-92590944D01*
X175044250Y-92626854D01*
X175061939Y-92659948D01*
X175085745Y-92688955D01*
X175114752Y-92712761D01*
X175147846Y-92730450D01*
X175183756Y-92741343D01*
X175221100Y-92745021D01*
X175303600Y-92745021D01*
X175303600Y-93448004D01*
X175302064Y-93463600D01*
X175303600Y-93479195D01*
X175308194Y-93525840D01*
X175326349Y-93585689D01*
X175355831Y-93640846D01*
X175395507Y-93689193D01*
X175407630Y-93699142D01*
X176143600Y-94435113D01*
X176143601Y-119201574D01*
X176050765Y-119263605D01*
X175961105Y-119353265D01*
X175890660Y-119458694D01*
X175842137Y-119575840D01*
X175817400Y-119700201D01*
X175817400Y-119826999D01*
X175842137Y-119951360D01*
X175890660Y-120068506D01*
X175961105Y-120173935D01*
X176050765Y-120263595D01*
X176156194Y-120334040D01*
X176273340Y-120382563D01*
X176397701Y-120407300D01*
X176524499Y-120407300D01*
X176648860Y-120382563D01*
X176766006Y-120334040D01*
X176871435Y-120263595D01*
X176961095Y-120173935D01*
X177031540Y-120068506D01*
X177080063Y-119951360D01*
X177104800Y-119826999D01*
X177104800Y-119700201D01*
X177080063Y-119575840D01*
X177031540Y-119458694D01*
X176961095Y-119353265D01*
X176871435Y-119263605D01*
X176778600Y-119201575D01*
X176778600Y-98990424D01*
X176796600Y-98990424D01*
X176796600Y-99156776D01*
X176829054Y-99319932D01*
X176892714Y-99473621D01*
X176985134Y-99611937D01*
X177102763Y-99729566D01*
X177241079Y-99821986D01*
X177394768Y-99885646D01*
X177557924Y-99918100D01*
X177724276Y-99918100D01*
X177887432Y-99885646D01*
X178041121Y-99821986D01*
X178179437Y-99729566D01*
X178297066Y-99611937D01*
X178389486Y-99473621D01*
X178453146Y-99319932D01*
X178485600Y-99156776D01*
X178485600Y-98990424D01*
X178453146Y-98827268D01*
X178389486Y-98673579D01*
X178297066Y-98535263D01*
X178179437Y-98417634D01*
X178041121Y-98325214D01*
X177887432Y-98261554D01*
X177724276Y-98229100D01*
X177557924Y-98229100D01*
X177394768Y-98261554D01*
X177241079Y-98325214D01*
X177102763Y-98417634D01*
X176985134Y-98535263D01*
X176892714Y-98673579D01*
X176829054Y-98827268D01*
X176796600Y-98990424D01*
X176778600Y-98990424D01*
X176778600Y-94319192D01*
X176780136Y-94303599D01*
X176777086Y-94272636D01*
X176774006Y-94241359D01*
X176755851Y-94181510D01*
X176726369Y-94126353D01*
X176686693Y-94078007D01*
X176674577Y-94068064D01*
X175938600Y-93332088D01*
X175938600Y-92745021D01*
X176021100Y-92745021D01*
X176058444Y-92741343D01*
X176094354Y-92730450D01*
X176127448Y-92712761D01*
X176156455Y-92688955D01*
X176180261Y-92659948D01*
X176197950Y-92626854D01*
X176208843Y-92590944D01*
X176212521Y-92553600D01*
X176212521Y-91353600D01*
X177569679Y-91353600D01*
X177569679Y-92553600D01*
X177573357Y-92590944D01*
X177584250Y-92626854D01*
X177601939Y-92659948D01*
X177625745Y-92688955D01*
X177654752Y-92712761D01*
X177687846Y-92730450D01*
X177723756Y-92741343D01*
X177761100Y-92745021D01*
X177843600Y-92745021D01*
X177843601Y-97147994D01*
X177842064Y-97163600D01*
X177848194Y-97225840D01*
X177866349Y-97285689D01*
X177866350Y-97285690D01*
X177895832Y-97340847D01*
X177935508Y-97389193D01*
X177947625Y-97399137D01*
X178813600Y-98265113D01*
X178813601Y-123312179D01*
X177981100Y-123312179D01*
X177943756Y-123315857D01*
X177907846Y-123326750D01*
X177874752Y-123344439D01*
X177845745Y-123368245D01*
X177821939Y-123397252D01*
X177804250Y-123430346D01*
X177793357Y-123466256D01*
X177789679Y-123503600D01*
X177789679Y-128803600D01*
X177793357Y-128840944D01*
X177804250Y-128876854D01*
X177821939Y-128909948D01*
X177845745Y-128938955D01*
X177874752Y-128962761D01*
X177907846Y-128980450D01*
X177943756Y-128991343D01*
X177981100Y-128995021D01*
X179981100Y-128995021D01*
X180018444Y-128991343D01*
X180054354Y-128980450D01*
X180087448Y-128962761D01*
X180116455Y-128938955D01*
X180140261Y-128909948D01*
X180157950Y-128876854D01*
X180168843Y-128840944D01*
X180172521Y-128803600D01*
X180172521Y-123503600D01*
X180168843Y-123466256D01*
X180157950Y-123430346D01*
X180140261Y-123397252D01*
X180116455Y-123368245D01*
X180087448Y-123344439D01*
X180054354Y-123326750D01*
X180018444Y-123315857D01*
X179981100Y-123312179D01*
X179448600Y-123312179D01*
X179448600Y-98149192D01*
X179450136Y-98133599D01*
X179446291Y-98094564D01*
X179444006Y-98071359D01*
X179425851Y-98011510D01*
X179396369Y-97956353D01*
X179356693Y-97908007D01*
X179344577Y-97898064D01*
X178478600Y-97032088D01*
X178478600Y-92745021D01*
X178561100Y-92745021D01*
X178598444Y-92741343D01*
X178634354Y-92730450D01*
X178667448Y-92712761D01*
X178696455Y-92688955D01*
X178720261Y-92659948D01*
X178737950Y-92626854D01*
X178748843Y-92590944D01*
X178752521Y-92553600D01*
X178752521Y-91353600D01*
X178748843Y-91316256D01*
X178737950Y-91280346D01*
X178720261Y-91247252D01*
X178696455Y-91218245D01*
X178667448Y-91194439D01*
X178634354Y-91176750D01*
X178598444Y-91165857D01*
X178561100Y-91162179D01*
X177761100Y-91162179D01*
X177723756Y-91165857D01*
X177687846Y-91176750D01*
X177654752Y-91194439D01*
X177625745Y-91218245D01*
X177601939Y-91247252D01*
X177584250Y-91280346D01*
X177573357Y-91316256D01*
X177569679Y-91353600D01*
X176212521Y-91353600D01*
X176208843Y-91316256D01*
X176197950Y-91280346D01*
X176180261Y-91247252D01*
X176156455Y-91218245D01*
X176127448Y-91194439D01*
X176094354Y-91176750D01*
X176058444Y-91165857D01*
X176021100Y-91162179D01*
X175221100Y-91162179D01*
X175183756Y-91165857D01*
X175147846Y-91176750D01*
X175114752Y-91194439D01*
X175085745Y-91218245D01*
X175061939Y-91247252D01*
X175044250Y-91280346D01*
X175033357Y-91316256D01*
X175029679Y-91353600D01*
X174320111Y-91353600D01*
X179704576Y-85969134D01*
X179716693Y-85959190D01*
X179756369Y-85910844D01*
X179785851Y-85855687D01*
X179804006Y-85795838D01*
X179808600Y-85749193D01*
X179810136Y-85733597D01*
X179808600Y-85718001D01*
X179808600Y-83320021D01*
X180191100Y-83320021D01*
X180228444Y-83316343D01*
X180264354Y-83305450D01*
X180297448Y-83287761D01*
X180326455Y-83263955D01*
X180350261Y-83234948D01*
X180367950Y-83201854D01*
X180378843Y-83165944D01*
X180382521Y-83128600D01*
X180382521Y-81478600D01*
X180378843Y-81441256D01*
X180367950Y-81405346D01*
X180350261Y-81372252D01*
X180326455Y-81343245D01*
X180297448Y-81319439D01*
X180264354Y-81301750D01*
X180228444Y-81290857D01*
X180191100Y-81287179D01*
X178791100Y-81287179D01*
X178753756Y-81290857D01*
X178717846Y-81301750D01*
X178684752Y-81319439D01*
X178655745Y-81343245D01*
X178631939Y-81372252D01*
X178614250Y-81405346D01*
X178603357Y-81441256D01*
X178599679Y-81478600D01*
X178599679Y-83128600D01*
X178603357Y-83165944D01*
X178614250Y-83201854D01*
X178631939Y-83234948D01*
X178655745Y-83263955D01*
X178684752Y-83287761D01*
X178717846Y-83305450D01*
X178753756Y-83316343D01*
X178791100Y-83320021D01*
X179173600Y-83320021D01*
X179173601Y-85602083D01*
X178752521Y-86023163D01*
X178752521Y-85053600D01*
X178748843Y-85016256D01*
X178737950Y-84980346D01*
X178720261Y-84947252D01*
X178696455Y-84918245D01*
X178667448Y-84894439D01*
X178634354Y-84876750D01*
X178598444Y-84865857D01*
X178561100Y-84862179D01*
X178478600Y-84862179D01*
X178478600Y-84369196D01*
X178480136Y-84353600D01*
X178474006Y-84291359D01*
X178455851Y-84231510D01*
X178426369Y-84176353D01*
X178404841Y-84150121D01*
X178386693Y-84128007D01*
X178374577Y-84118064D01*
X178132521Y-83876008D01*
X178132521Y-83383600D01*
X178128843Y-83346256D01*
X178117950Y-83310346D01*
X178100261Y-83277252D01*
X178076455Y-83248245D01*
X178047448Y-83224439D01*
X178014354Y-83206750D01*
X177978444Y-83195857D01*
X177941100Y-83192179D01*
X177770885Y-83192179D01*
X177778843Y-83165944D01*
X177782521Y-83128600D01*
X177782521Y-81478600D01*
X177778843Y-81441256D01*
X177767950Y-81405346D01*
X177750261Y-81372252D01*
X177726455Y-81343245D01*
X177697448Y-81319439D01*
X177664354Y-81301750D01*
X177628444Y-81290857D01*
X177591100Y-81287179D01*
X176191100Y-81287179D01*
X176153756Y-81290857D01*
X176117846Y-81301750D01*
X176084752Y-81319439D01*
X176055745Y-81343245D01*
X176031939Y-81372252D01*
X176014250Y-81405346D01*
X176003357Y-81441256D01*
X175999679Y-81478600D01*
X175999679Y-83128600D01*
X176003357Y-83165944D01*
X176014250Y-83201854D01*
X176031939Y-83234948D01*
X176055745Y-83263955D01*
X176084752Y-83287761D01*
X176117846Y-83305450D01*
X176153756Y-83316343D01*
X176191100Y-83320021D01*
X176576642Y-83320021D01*
X176581260Y-84862179D01*
X176491100Y-84862179D01*
X176453756Y-84865857D01*
X176417846Y-84876750D01*
X176384752Y-84894439D01*
X176355745Y-84918245D01*
X176331939Y-84947252D01*
X176314250Y-84980346D01*
X176303357Y-85016256D01*
X176299679Y-85053600D01*
X176299679Y-86253600D01*
X176303357Y-86290944D01*
X176314250Y-86326854D01*
X176329882Y-86356100D01*
X173712613Y-86356100D01*
X172702521Y-85346009D01*
X172702521Y-84853600D01*
X172698843Y-84816256D01*
X172687950Y-84780346D01*
X172670261Y-84747252D01*
X172646455Y-84718245D01*
X172617448Y-84694439D01*
X172584354Y-84676750D01*
X172548444Y-84665857D01*
X172511100Y-84662179D01*
X172428600Y-84662179D01*
X172428600Y-84379196D01*
X172430136Y-84363600D01*
X172424006Y-84301359D01*
X172405851Y-84241510D01*
X172376369Y-84186353D01*
X172368162Y-84176353D01*
X172336693Y-84138007D01*
X172324576Y-84128063D01*
X172317613Y-84121100D01*
X173915504Y-84121100D01*
X173931100Y-84122636D01*
X173946696Y-84121100D01*
X173993341Y-84116506D01*
X174053190Y-84098351D01*
X174108347Y-84068869D01*
X174156693Y-84029193D01*
X174166642Y-84017070D01*
X174974576Y-83209137D01*
X174986693Y-83199193D01*
X175026369Y-83150847D01*
X175055851Y-83095690D01*
X175074006Y-83035841D01*
X175078600Y-82989196D01*
X175078600Y-82989194D01*
X175080136Y-82973601D01*
X175078600Y-82958008D01*
X175078600Y-81800909D01*
X175080136Y-81785313D01*
X175074006Y-81723072D01*
X175055851Y-81663223D01*
X175026369Y-81608066D01*
X175003705Y-81580450D01*
X174986693Y-81559720D01*
X174974577Y-81549777D01*
X173886529Y-80461730D01*
X173876580Y-80449607D01*
X173828234Y-80409931D01*
X173773077Y-80380449D01*
X173713228Y-80362294D01*
X173666583Y-80357700D01*
X173650987Y-80356164D01*
X173635391Y-80357700D01*
X167465092Y-80357700D01*
X167449499Y-80356164D01*
X167433906Y-80357700D01*
X167433904Y-80357700D01*
X167387259Y-80362294D01*
X167327410Y-80380449D01*
X167272253Y-80409931D01*
X167223907Y-80449607D01*
X167213963Y-80461724D01*
X166277625Y-81398063D01*
X166265508Y-81408007D01*
X166225832Y-81456353D01*
X166219571Y-81468067D01*
X166196349Y-81511511D01*
X166178194Y-81571360D01*
X166172064Y-81633600D01*
X166173601Y-81649206D01*
X166173600Y-82792179D01*
X166058658Y-82792179D01*
X164087402Y-80791056D01*
X164076693Y-80778007D01*
X164053327Y-80758832D01*
X164030336Y-80739672D01*
X164029282Y-80739099D01*
X164028347Y-80738331D01*
X164001709Y-80724093D01*
X163975402Y-80709776D01*
X163974257Y-80709419D01*
X163973190Y-80708849D01*
X163944325Y-80700093D01*
X163915691Y-80691171D01*
X163914495Y-80691044D01*
X163913341Y-80690694D01*
X163883384Y-80687744D01*
X163853498Y-80684573D01*
X163836700Y-80686100D01*
X158372521Y-80686100D01*
X158372521Y-80603600D01*
X158368843Y-80566256D01*
X158357950Y-80530346D01*
X158340261Y-80497252D01*
X158316455Y-80468245D01*
X158287448Y-80444439D01*
X158254354Y-80426750D01*
X158218444Y-80415857D01*
X158181100Y-80412179D01*
X157481100Y-80412179D01*
X157443756Y-80415857D01*
X157407846Y-80426750D01*
X157374752Y-80444439D01*
X157345745Y-80468245D01*
X157321939Y-80497252D01*
X157304250Y-80530346D01*
X157293357Y-80566256D01*
X157289679Y-80603600D01*
X157289679Y-81403600D01*
X157293357Y-81440944D01*
X157304250Y-81476854D01*
X157321939Y-81509948D01*
X157345745Y-81538955D01*
X157374752Y-81562761D01*
X157407846Y-81580450D01*
X157443756Y-81591343D01*
X157481100Y-81595021D01*
X157723600Y-81595021D01*
X157723601Y-83692037D01*
X157716100Y-83696046D01*
X157689354Y-83681750D01*
X157653444Y-83670857D01*
X157616100Y-83667179D01*
X157166100Y-83667179D01*
X157128756Y-83670857D01*
X157092846Y-83681750D01*
X157066100Y-83696046D01*
X157039354Y-83681750D01*
X157003444Y-83670857D01*
X156966100Y-83667179D01*
X156516100Y-83667179D01*
X156478756Y-83670857D01*
X156442846Y-83681750D01*
X156409752Y-83699439D01*
X156380745Y-83723245D01*
X156356939Y-83752252D01*
X156339250Y-83785346D01*
X156328357Y-83821256D01*
X156324679Y-83858600D01*
X156324679Y-85508600D01*
X156328357Y-85545944D01*
X156339250Y-85581854D01*
X156356939Y-85614948D01*
X156380745Y-85643955D01*
X156409752Y-85667761D01*
X156442846Y-85685450D01*
X156478756Y-85696343D01*
X156516100Y-85700021D01*
X156966100Y-85700021D01*
X157003444Y-85696343D01*
X157039354Y-85685450D01*
X157066100Y-85671154D01*
X157092846Y-85685450D01*
X157128756Y-85696343D01*
X157143601Y-85697805D01*
X157143601Y-86052571D01*
X157124635Y-86033605D01*
X157019206Y-85963160D01*
X156902060Y-85914637D01*
X156777699Y-85889900D01*
X156650901Y-85889900D01*
X156526540Y-85914637D01*
X156409394Y-85963160D01*
X156303965Y-86033605D01*
X156214305Y-86123265D01*
X156143860Y-86228694D01*
X156095337Y-86345840D01*
X156070600Y-86470201D01*
X156070600Y-86596999D01*
X156095337Y-86721360D01*
X156143860Y-86838506D01*
X156214305Y-86943935D01*
X156303965Y-87033595D01*
X156409394Y-87104040D01*
X156526540Y-87152563D01*
X156650901Y-87177300D01*
X156777699Y-87177300D01*
X156887205Y-87155518D01*
X157193600Y-87461913D01*
X157193601Y-87827089D01*
X157006642Y-87640130D01*
X156996693Y-87628007D01*
X156948347Y-87588331D01*
X156893190Y-87558849D01*
X156833341Y-87540694D01*
X156786696Y-87536100D01*
X156771100Y-87534564D01*
X156755504Y-87536100D01*
X152669813Y-87536100D01*
X152668843Y-87526256D01*
X152657950Y-87490346D01*
X152640261Y-87457252D01*
X152616455Y-87428245D01*
X152587448Y-87404439D01*
X152554354Y-87386750D01*
X152518444Y-87375857D01*
X152481100Y-87372179D01*
X150781100Y-87372179D01*
X150743756Y-87375857D01*
X150707846Y-87386750D01*
X150674752Y-87404439D01*
X150645745Y-87428245D01*
X150621939Y-87457252D01*
X150604250Y-87490346D01*
X150593357Y-87526256D01*
X150589679Y-87563600D01*
X150589679Y-88763600D01*
X150593357Y-88800944D01*
X150604250Y-88836854D01*
X150621939Y-88869948D01*
X150645745Y-88898955D01*
X150674752Y-88922761D01*
X150707846Y-88940450D01*
X150743756Y-88951343D01*
X150781100Y-88955021D01*
X152481100Y-88955021D01*
X152518444Y-88951343D01*
X152554354Y-88940450D01*
X152587448Y-88922761D01*
X152616455Y-88898955D01*
X152640261Y-88869948D01*
X152657950Y-88836854D01*
X152668843Y-88800944D01*
X152672521Y-88763600D01*
X152672521Y-88171100D01*
X153554587Y-88171100D01*
X152679588Y-89046100D01*
X150916696Y-89046100D01*
X150901100Y-89044564D01*
X150885504Y-89046100D01*
X150838859Y-89050694D01*
X150779010Y-89068849D01*
X150723853Y-89098331D01*
X150675507Y-89138007D01*
X150665565Y-89150122D01*
X149823509Y-89992179D01*
X148556100Y-89992179D01*
X148518756Y-89995857D01*
X148482846Y-90006750D01*
X148449752Y-90024439D01*
X148420745Y-90048245D01*
X148396939Y-90077252D01*
X148379250Y-90110346D01*
X148368357Y-90146256D01*
X148364679Y-90183600D01*
X148364679Y-91583600D01*
X148368357Y-91620944D01*
X148379250Y-91656854D01*
X148396939Y-91689948D01*
X148420745Y-91718955D01*
X148449752Y-91742761D01*
X148482846Y-91760450D01*
X148518756Y-91771343D01*
X148556100Y-91775021D01*
X150206100Y-91775021D01*
X150243444Y-91771343D01*
X150279354Y-91760450D01*
X150312448Y-91742761D01*
X150341455Y-91718955D01*
X150365261Y-91689948D01*
X150382950Y-91656854D01*
X150393843Y-91620944D01*
X150397521Y-91583600D01*
X150397521Y-90316192D01*
X151032613Y-89681100D01*
X152795504Y-89681100D01*
X152811100Y-89682636D01*
X152826696Y-89681100D01*
X152873341Y-89676506D01*
X152933190Y-89658351D01*
X152988347Y-89628869D01*
X153036693Y-89589193D01*
X153046642Y-89577070D01*
X154012613Y-88611100D01*
X156462875Y-88611100D01*
X156548475Y-88696700D01*
X156537701Y-88696700D01*
X156413340Y-88721437D01*
X156296194Y-88769960D01*
X156190765Y-88840405D01*
X156101105Y-88930065D01*
X156030660Y-89035494D01*
X155982137Y-89152640D01*
X155957400Y-89277001D01*
X155957400Y-89373012D01*
X155942877Y-89365249D01*
X155883028Y-89347094D01*
X155836383Y-89342500D01*
X155820787Y-89340964D01*
X155805191Y-89342500D01*
X153630296Y-89342500D01*
X153614700Y-89340964D01*
X153599104Y-89342500D01*
X153552459Y-89347094D01*
X153492610Y-89365249D01*
X153437453Y-89394731D01*
X153389107Y-89434407D01*
X153379163Y-89446524D01*
X152826017Y-89999671D01*
X152813444Y-89995857D01*
X152776100Y-89992179D01*
X151126100Y-89992179D01*
X151088756Y-89995857D01*
X151052846Y-90006750D01*
X151019752Y-90024439D01*
X150990745Y-90048245D01*
X150966939Y-90077252D01*
X150949250Y-90110346D01*
X150938357Y-90146256D01*
X150934679Y-90183600D01*
X150934679Y-91583600D01*
X150938357Y-91620944D01*
X150949250Y-91656854D01*
X150966939Y-91689948D01*
X150990745Y-91718955D01*
X151019752Y-91742761D01*
X151052846Y-91760450D01*
X151088756Y-91771343D01*
X151126100Y-91775021D01*
X152080666Y-91775021D01*
X151757629Y-92098059D01*
X151745507Y-92108007D01*
X151705831Y-92156354D01*
X151687476Y-92190694D01*
X151676349Y-92211511D01*
X151658194Y-92271360D01*
X151652064Y-92333600D01*
X151653600Y-92349196D01*
X151653600Y-92592179D01*
X151126100Y-92592179D01*
X151088756Y-92595857D01*
X151052846Y-92606750D01*
X151019752Y-92624439D01*
X150990745Y-92648245D01*
X150966939Y-92677252D01*
X150949250Y-92710346D01*
X150938357Y-92746256D01*
X150934679Y-92783600D01*
X150934679Y-94183600D01*
X150938357Y-94220944D01*
X150949250Y-94256854D01*
X150965359Y-94286992D01*
X150956939Y-94297252D01*
X150939250Y-94330346D01*
X150928357Y-94366256D01*
X150924679Y-94403600D01*
X150924679Y-95803600D01*
X150928357Y-95840944D01*
X150939250Y-95876854D01*
X150956939Y-95909948D01*
X150980745Y-95938955D01*
X151009752Y-95962761D01*
X151042846Y-95980450D01*
X151078756Y-95991343D01*
X151116100Y-95995021D01*
X152766100Y-95995021D01*
X152803444Y-95991343D01*
X152839354Y-95980450D01*
X152872448Y-95962761D01*
X152901455Y-95938955D01*
X152925261Y-95909948D01*
X152942950Y-95876854D01*
X152953843Y-95840944D01*
X152957521Y-95803600D01*
X152957521Y-94403600D01*
X152953843Y-94366256D01*
X152942950Y-94330346D01*
X152926841Y-94300208D01*
X152935261Y-94289948D01*
X152952950Y-94256854D01*
X152963843Y-94220944D01*
X152967521Y-94183600D01*
X152967521Y-92783600D01*
X152963843Y-92746256D01*
X152952950Y-92710346D01*
X152935261Y-92677252D01*
X152911455Y-92648245D01*
X152882448Y-92624439D01*
X152849354Y-92606750D01*
X152813444Y-92595857D01*
X152776100Y-92592179D01*
X152288600Y-92592179D01*
X152288600Y-92465112D01*
X152482613Y-92271100D01*
X153519588Y-92271100D01*
X154372201Y-93123714D01*
X154372200Y-96851775D01*
X152619275Y-98604700D01*
X151332925Y-98604700D01*
X150905000Y-98176776D01*
X150905000Y-96847305D01*
X150906536Y-96831712D01*
X150904531Y-96811360D01*
X150900406Y-96769472D01*
X150882251Y-96709623D01*
X150852769Y-96654466D01*
X150813093Y-96606120D01*
X150800970Y-96596171D01*
X150614929Y-96410130D01*
X150604980Y-96398007D01*
X150556634Y-96358331D01*
X150501477Y-96328849D01*
X150441628Y-96310694D01*
X150394983Y-96306100D01*
X150379387Y-96304564D01*
X150363791Y-96306100D01*
X148083125Y-96306100D01*
X148021095Y-96213265D01*
X147931435Y-96123605D01*
X147826006Y-96053160D01*
X147708860Y-96004637D01*
X147584499Y-95979900D01*
X147457701Y-95979900D01*
X147333340Y-96004637D01*
X147216194Y-96053160D01*
X147110765Y-96123605D01*
X147021105Y-96213265D01*
X146950660Y-96318694D01*
X146902137Y-96435840D01*
X146877400Y-96560201D01*
X146877400Y-96686999D01*
X146902137Y-96811360D01*
X146950660Y-96928506D01*
X147021105Y-97033935D01*
X147110765Y-97123595D01*
X147216194Y-97194040D01*
X147333340Y-97242563D01*
X147457701Y-97267300D01*
X147584499Y-97267300D01*
X147708860Y-97242563D01*
X147826006Y-97194040D01*
X147931435Y-97123595D01*
X148021095Y-97033935D01*
X148083125Y-96941100D01*
X148354925Y-96941100D01*
X148354679Y-96943600D01*
X148354679Y-97311300D01*
X137877060Y-97311300D01*
X137830415Y-97315894D01*
X137770566Y-97334049D01*
X137715409Y-97363531D01*
X137667063Y-97403207D01*
X137644177Y-97431094D01*
X136841958Y-98233315D01*
X136829919Y-98243195D01*
X136790493Y-98291237D01*
X136761196Y-98346046D01*
X136743156Y-98405518D01*
X136738590Y-98451874D01*
X136738590Y-98451884D01*
X136737065Y-98467366D01*
X136738590Y-98482848D01*
X136738591Y-101881844D01*
X136416617Y-102203820D01*
X131240333Y-102203820D01*
X130215600Y-101179088D01*
X130215600Y-100088113D01*
X130203381Y-99964049D01*
X130155091Y-99804860D01*
X130076673Y-99658151D01*
X129971141Y-99529559D01*
X129842548Y-99424027D01*
X129695839Y-99345609D01*
X129536650Y-99297319D01*
X129371100Y-99281014D01*
X129205549Y-99297319D01*
X129046360Y-99345609D01*
X128899651Y-99424027D01*
X128771059Y-99529559D01*
X128665527Y-99658152D01*
X128587109Y-99804861D01*
X128538819Y-99964050D01*
X128526600Y-100088114D01*
X127627721Y-100088114D01*
X127623381Y-100044049D01*
X127575091Y-99884860D01*
X127496673Y-99738151D01*
X127391141Y-99609559D01*
X127262549Y-99504027D01*
X127115840Y-99425609D01*
X126956651Y-99377319D01*
X126791100Y-99361014D01*
X126625550Y-99377319D01*
X126466361Y-99425609D01*
X126319652Y-99504027D01*
X126191060Y-99609559D01*
X126085528Y-99738151D01*
X126007110Y-99884860D01*
X125958820Y-100044049D01*
X125946601Y-100168113D01*
X125946600Y-101559086D01*
X125127720Y-101559086D01*
X125135600Y-101479087D01*
X125135600Y-100088113D01*
X125123381Y-99964049D01*
X125075091Y-99804860D01*
X124996673Y-99658151D01*
X124891141Y-99529559D01*
X124762548Y-99424027D01*
X124615839Y-99345609D01*
X124456650Y-99297319D01*
X124291100Y-99281014D01*
X124125549Y-99297319D01*
X123966360Y-99345609D01*
X123819651Y-99424027D01*
X123691059Y-99529559D01*
X123585527Y-99658152D01*
X123507109Y-99804861D01*
X123458819Y-99964050D01*
X123446600Y-100088114D01*
X115724201Y-100088114D01*
X115724201Y-94950201D01*
X146867400Y-94950201D01*
X146867400Y-95076999D01*
X146892137Y-95201360D01*
X146940660Y-95318506D01*
X147011105Y-95423935D01*
X147100765Y-95513595D01*
X147206194Y-95584040D01*
X147323340Y-95632563D01*
X147447701Y-95657300D01*
X147574499Y-95657300D01*
X147698860Y-95632563D01*
X147816006Y-95584040D01*
X147921435Y-95513595D01*
X148011095Y-95423935D01*
X148053080Y-95361100D01*
X148354679Y-95361100D01*
X148354679Y-95743600D01*
X148358357Y-95780944D01*
X148369250Y-95816854D01*
X148386939Y-95849948D01*
X148410745Y-95878955D01*
X148439752Y-95902761D01*
X148472846Y-95920450D01*
X148508756Y-95931343D01*
X148546100Y-95935021D01*
X150196100Y-95935021D01*
X150233444Y-95931343D01*
X150269354Y-95920450D01*
X150302448Y-95902761D01*
X150331455Y-95878955D01*
X150355261Y-95849948D01*
X150372950Y-95816854D01*
X150383843Y-95780944D01*
X150387521Y-95743600D01*
X150387521Y-94343600D01*
X150383843Y-94306256D01*
X150373960Y-94273674D01*
X150382950Y-94256854D01*
X150393843Y-94220944D01*
X150397521Y-94183600D01*
X150397521Y-92783600D01*
X150393843Y-92746256D01*
X150382950Y-92710346D01*
X150365261Y-92677252D01*
X150341455Y-92648245D01*
X150312448Y-92624439D01*
X150279354Y-92606750D01*
X150243444Y-92595857D01*
X150206100Y-92592179D01*
X148556100Y-92592179D01*
X148518756Y-92595857D01*
X148482846Y-92606750D01*
X148449752Y-92624439D01*
X148420745Y-92648245D01*
X148396939Y-92677252D01*
X148379250Y-92710346D01*
X148368357Y-92746256D01*
X148364679Y-92783600D01*
X148364679Y-94183600D01*
X148368357Y-94220944D01*
X148378240Y-94253526D01*
X148369250Y-94270346D01*
X148358357Y-94306256D01*
X148354679Y-94343600D01*
X148354679Y-94726100D01*
X148088750Y-94726100D01*
X148081540Y-94708694D01*
X148011095Y-94603265D01*
X147921435Y-94513605D01*
X147816006Y-94443160D01*
X147698860Y-94394637D01*
X147574499Y-94369900D01*
X147447701Y-94369900D01*
X147323340Y-94394637D01*
X147206194Y-94443160D01*
X147100765Y-94513605D01*
X147011105Y-94603265D01*
X146940660Y-94708694D01*
X146892137Y-94825840D01*
X146867400Y-94950201D01*
X115724201Y-94950201D01*
X115724201Y-81803600D01*
X152059679Y-81803600D01*
X152059679Y-83203600D01*
X152063357Y-83240944D01*
X152074250Y-83276854D01*
X152091939Y-83309948D01*
X152115745Y-83338955D01*
X152144752Y-83362761D01*
X152177846Y-83380450D01*
X152213756Y-83391343D01*
X152251100Y-83395021D01*
X153051100Y-83395021D01*
X153088444Y-83391343D01*
X153089508Y-83391020D01*
X154374679Y-84676192D01*
X154374679Y-85508600D01*
X154378357Y-85545944D01*
X154389250Y-85581854D01*
X154406939Y-85614948D01*
X154430745Y-85643955D01*
X154459752Y-85667761D01*
X154492846Y-85685450D01*
X154528756Y-85696343D01*
X154566100Y-85700021D01*
X155016100Y-85700021D01*
X155053444Y-85696343D01*
X155089354Y-85685450D01*
X155116100Y-85671154D01*
X155142846Y-85685450D01*
X155178756Y-85696343D01*
X155216100Y-85700021D01*
X155666100Y-85700021D01*
X155703444Y-85696343D01*
X155739354Y-85685450D01*
X155772448Y-85667761D01*
X155801455Y-85643955D01*
X155825261Y-85614948D01*
X155842950Y-85581854D01*
X155853843Y-85545944D01*
X155857521Y-85508600D01*
X155857521Y-83858600D01*
X155853843Y-83821256D01*
X155842950Y-83785346D01*
X155825261Y-83752252D01*
X155801455Y-83723245D01*
X155772448Y-83699439D01*
X155758600Y-83692037D01*
X155758600Y-83309196D01*
X155760136Y-83293600D01*
X155754006Y-83231359D01*
X155735851Y-83171510D01*
X155706369Y-83116353D01*
X155666693Y-83068007D01*
X155654577Y-83058064D01*
X155242521Y-82646009D01*
X155242521Y-81803600D01*
X155238843Y-81766256D01*
X155227950Y-81730346D01*
X155210261Y-81697252D01*
X155186455Y-81668245D01*
X155157448Y-81644439D01*
X155124354Y-81626750D01*
X155088444Y-81615857D01*
X155051100Y-81612179D01*
X154251100Y-81612179D01*
X154213756Y-81615857D01*
X154177846Y-81626750D01*
X154144752Y-81644439D01*
X154115745Y-81668245D01*
X154091939Y-81697252D01*
X154074250Y-81730346D01*
X154063357Y-81766256D01*
X154059679Y-81803600D01*
X154059679Y-83203600D01*
X154063357Y-83240944D01*
X154074250Y-83276854D01*
X154091939Y-83309948D01*
X154115745Y-83338955D01*
X154144752Y-83362761D01*
X154177846Y-83380450D01*
X154213756Y-83391343D01*
X154251100Y-83395021D01*
X155051100Y-83395021D01*
X155088444Y-83391343D01*
X155089508Y-83391020D01*
X155123600Y-83425113D01*
X155123600Y-83692037D01*
X155116100Y-83696046D01*
X155089354Y-83681750D01*
X155053444Y-83670857D01*
X155016100Y-83667179D01*
X154566100Y-83667179D01*
X154528756Y-83670857D01*
X154492846Y-83681750D01*
X154459752Y-83699439D01*
X154430745Y-83723245D01*
X154406939Y-83752252D01*
X154389250Y-83785346D01*
X154387530Y-83791017D01*
X153242521Y-82646009D01*
X153242521Y-81803600D01*
X153238843Y-81766256D01*
X153227950Y-81730346D01*
X153210261Y-81697252D01*
X153186455Y-81668245D01*
X153157448Y-81644439D01*
X153124354Y-81626750D01*
X153088444Y-81615857D01*
X153051100Y-81612179D01*
X152251100Y-81612179D01*
X152213756Y-81615857D01*
X152177846Y-81626750D01*
X152144752Y-81644439D01*
X152115745Y-81668245D01*
X152091939Y-81697252D01*
X152074250Y-81730346D01*
X152063357Y-81766256D01*
X152059679Y-81803600D01*
X115724201Y-81803600D01*
X115724201Y-79566701D01*
X181278000Y-79566701D01*
X181277999Y-128977463D01*
%TA.AperFunction,Conductor*%
D31*
G36*
X181277999Y-128977463D02*
G01*
X179814964Y-130440499D01*
X144977800Y-130440499D01*
X144977800Y-123590300D01*
X147237300Y-123590300D01*
X147274465Y-123586640D01*
X147310201Y-123575799D01*
X147321100Y-123569973D01*
X147331999Y-123575799D01*
X147367735Y-123586640D01*
X147404900Y-123590300D01*
X160827300Y-123590300D01*
X160864465Y-123586640D01*
X160900201Y-123575799D01*
X160933136Y-123558195D01*
X160962004Y-123534504D01*
X160985695Y-123505636D01*
X161003299Y-123472701D01*
X161014140Y-123436965D01*
X161017800Y-123399800D01*
X161017800Y-108732037D01*
X161014140Y-108694872D01*
X161003299Y-108659136D01*
X160985695Y-108626201D01*
X160962004Y-108597333D01*
X157677367Y-105312696D01*
X157648499Y-105289005D01*
X157615564Y-105271401D01*
X157579828Y-105260560D01*
X157542663Y-105256900D01*
X147404900Y-105256900D01*
X147367735Y-105260560D01*
X147331999Y-105271401D01*
X147299064Y-105289005D01*
X147270196Y-105312696D01*
X147246505Y-105341564D01*
X147228901Y-105374499D01*
X147218060Y-105410235D01*
X147214400Y-105447400D01*
X147214400Y-105886900D01*
X131994900Y-105886900D01*
X131957735Y-105890560D01*
X131921999Y-105901401D01*
X131916100Y-105904554D01*
X131910201Y-105901401D01*
X131874465Y-105890560D01*
X131837300Y-105886900D01*
X115724201Y-105886900D01*
X115724201Y-100088114D01*
X123446600Y-100088114D01*
X123446601Y-101479087D01*
X123458820Y-101603151D01*
X123507110Y-101762340D01*
X123585528Y-101909049D01*
X123691060Y-102037641D01*
X123819652Y-102143173D01*
X123966361Y-102221591D01*
X124125550Y-102269881D01*
X124291100Y-102286186D01*
X124456651Y-102269881D01*
X124615840Y-102221591D01*
X124762549Y-102143173D01*
X124891141Y-102037641D01*
X124996673Y-101909049D01*
X125075091Y-101762340D01*
X125123381Y-101603151D01*
X125127720Y-101559086D01*
X125946600Y-101559086D01*
X125958819Y-101683150D01*
X126007109Y-101842339D01*
X126085527Y-101989048D01*
X126191059Y-102117641D01*
X126319651Y-102223173D01*
X126466360Y-102301591D01*
X126625549Y-102349881D01*
X126791100Y-102366186D01*
X126956650Y-102349881D01*
X127115839Y-102301591D01*
X127262548Y-102223173D01*
X127391141Y-102117641D01*
X127496673Y-101989049D01*
X127575091Y-101842340D01*
X127623381Y-101683151D01*
X127635600Y-101559087D01*
X127635600Y-100168113D01*
X127627721Y-100088114D01*
X128526600Y-100088114D01*
X128526601Y-101479087D01*
X128538820Y-101603151D01*
X128587110Y-101762340D01*
X128665528Y-101909049D01*
X128771060Y-102037641D01*
X128899652Y-102143173D01*
X129046361Y-102221591D01*
X129205550Y-102269881D01*
X129371100Y-102286186D01*
X129536651Y-102269881D01*
X129695840Y-102221591D01*
X129842549Y-102143173D01*
X129971141Y-102037641D01*
X130063540Y-101925052D01*
X130829292Y-102690805D01*
X130836929Y-102700111D01*
X130846236Y-102707749D01*
X130847621Y-102709134D01*
X130850354Y-102711377D01*
X130870428Y-102731451D01*
X130880309Y-102743491D01*
X130928350Y-102782917D01*
X130983159Y-102812214D01*
X131042631Y-102830254D01*
X131088987Y-102834820D01*
X131088995Y-102834820D01*
X131104480Y-102836345D01*
X131119965Y-102834820D01*
X136531818Y-102834820D01*
X136547300Y-102836345D01*
X136562782Y-102834820D01*
X136562793Y-102834820D01*
X136609149Y-102830254D01*
X136668621Y-102812214D01*
X136723430Y-102782917D01*
X136771471Y-102743491D01*
X136781351Y-102731452D01*
X137266232Y-102246573D01*
X137278261Y-102236701D01*
X137288132Y-102224673D01*
X137288137Y-102224668D01*
X137317687Y-102188660D01*
X137327187Y-102170887D01*
X137829975Y-102673676D01*
X137839919Y-102685793D01*
X137888264Y-102725468D01*
X137888265Y-102725469D01*
X137943422Y-102754951D01*
X138003271Y-102773106D01*
X138065512Y-102779236D01*
X138081108Y-102777700D01*
X139068904Y-102777700D01*
X139084500Y-102779236D01*
X139100096Y-102777700D01*
X139146741Y-102773106D01*
X139206590Y-102754951D01*
X139261747Y-102725469D01*
X139310093Y-102685793D01*
X139320042Y-102673670D01*
X140345389Y-101648324D01*
X140348819Y-101683150D01*
X140397109Y-101842339D01*
X140475527Y-101989048D01*
X140581059Y-102117641D01*
X140709651Y-102223173D01*
X140856360Y-102301591D01*
X141015549Y-102349881D01*
X141181100Y-102366186D01*
X141346650Y-102349881D01*
X141505839Y-102301591D01*
X141652548Y-102223173D01*
X141781141Y-102117641D01*
X141886673Y-101989049D01*
X141965091Y-101842340D01*
X142013381Y-101683151D01*
X142025600Y-101559087D01*
X142025600Y-100168113D01*
X142013381Y-100044049D01*
X141965091Y-99884860D01*
X141886673Y-99738151D01*
X141781141Y-99609559D01*
X141652549Y-99504027D01*
X141534821Y-99441100D01*
X142998847Y-99441100D01*
X142891059Y-99529559D01*
X142785527Y-99658152D01*
X142707109Y-99804861D01*
X142658819Y-99964050D01*
X142646600Y-100088114D01*
X142646601Y-101479087D01*
X142658820Y-101603151D01*
X142707110Y-101762340D01*
X142785528Y-101909049D01*
X142891060Y-102037641D01*
X143019652Y-102143173D01*
X143166361Y-102221591D01*
X143325550Y-102269881D01*
X143491100Y-102286186D01*
X143656651Y-102269881D01*
X143815840Y-102221591D01*
X143962549Y-102143173D01*
X144091141Y-102037641D01*
X144183540Y-101925052D01*
X145520625Y-103262139D01*
X145530569Y-103274256D01*
X145578915Y-103313932D01*
X145634072Y-103343414D01*
X145693921Y-103361569D01*
X145740566Y-103366163D01*
X145740568Y-103366163D01*
X145756161Y-103367699D01*
X145771757Y-103366163D01*
X164400441Y-103366163D01*
X164416037Y-103367699D01*
X164431633Y-103366163D01*
X164478278Y-103361569D01*
X164538127Y-103343414D01*
X164593284Y-103313932D01*
X164641630Y-103274256D01*
X164651579Y-103262133D01*
X168483692Y-99430021D01*
X169751100Y-99430021D01*
X169788444Y-99426343D01*
X169824354Y-99415450D01*
X169857448Y-99397761D01*
X169886455Y-99373955D01*
X169910261Y-99344948D01*
X169927950Y-99311854D01*
X169938843Y-99275944D01*
X169942521Y-99238600D01*
X169942521Y-97971192D01*
X170453176Y-97460537D01*
X170465293Y-97450593D01*
X170504969Y-97402247D01*
X170534451Y-97347090D01*
X170552606Y-97287241D01*
X170557200Y-97240596D01*
X170558736Y-97225001D01*
X170557200Y-97209405D01*
X170557200Y-95439509D01*
X170558736Y-95423913D01*
X170553966Y-95375478D01*
X171373600Y-96195113D01*
X171373601Y-117925950D01*
X171356194Y-117933160D01*
X171250765Y-118003605D01*
X171161105Y-118093265D01*
X171090660Y-118198694D01*
X171042137Y-118315840D01*
X171017400Y-118440201D01*
X171017400Y-118566999D01*
X171042137Y-118691360D01*
X171090660Y-118808506D01*
X171161105Y-118913935D01*
X171250765Y-119003595D01*
X171356194Y-119074040D01*
X171473340Y-119122563D01*
X171597701Y-119147300D01*
X171724499Y-119147300D01*
X171848860Y-119122563D01*
X171966006Y-119074040D01*
X172071435Y-119003595D01*
X172161095Y-118913935D01*
X172231540Y-118808506D01*
X172280063Y-118691360D01*
X172304800Y-118566999D01*
X172304800Y-118440201D01*
X172280063Y-118315840D01*
X172231540Y-118198694D01*
X172161095Y-118093265D01*
X172071435Y-118003605D01*
X172008600Y-117961620D01*
X172008600Y-99635403D01*
X172102763Y-99729566D01*
X172241079Y-99821986D01*
X172394768Y-99885646D01*
X172557924Y-99918100D01*
X172724276Y-99918100D01*
X172887432Y-99885646D01*
X173041121Y-99821986D01*
X173179437Y-99729566D01*
X173297066Y-99611937D01*
X173389486Y-99473621D01*
X173453146Y-99319932D01*
X173485600Y-99156776D01*
X173485600Y-98990424D01*
X173453146Y-98827268D01*
X173389486Y-98673579D01*
X173297066Y-98535263D01*
X173179437Y-98417634D01*
X173041121Y-98325214D01*
X172958600Y-98291033D01*
X172958600Y-95919192D01*
X172960136Y-95903599D01*
X172958248Y-95884431D01*
X172954006Y-95841359D01*
X172935851Y-95781510D01*
X172906369Y-95726353D01*
X172866693Y-95678007D01*
X172854576Y-95668063D01*
X171008600Y-93822088D01*
X171008600Y-91153600D01*
X171519679Y-91153600D01*
X171519679Y-92353600D01*
X171523357Y-92390944D01*
X171534250Y-92426854D01*
X171551939Y-92459948D01*
X171575745Y-92488955D01*
X171604752Y-92512761D01*
X171637846Y-92530450D01*
X171673756Y-92541343D01*
X171711100Y-92545021D01*
X171793600Y-92545021D01*
X171793601Y-93837994D01*
X171792064Y-93853600D01*
X171798194Y-93915840D01*
X171816349Y-93975689D01*
X171816350Y-93975690D01*
X171845832Y-94030847D01*
X171885508Y-94079193D01*
X171897625Y-94089137D01*
X173663600Y-95855113D01*
X173663601Y-119557994D01*
X173662064Y-119573600D01*
X173668194Y-119635840D01*
X173686349Y-119695689D01*
X173686350Y-119695690D01*
X173715832Y-119750847D01*
X173755508Y-119799193D01*
X173767625Y-119809137D01*
X176343600Y-122385113D01*
X176343600Y-123312179D01*
X175441100Y-123312179D01*
X175403756Y-123315857D01*
X175367846Y-123326750D01*
X175334752Y-123344439D01*
X175305745Y-123368245D01*
X175281939Y-123397252D01*
X175264250Y-123430346D01*
X175253357Y-123466256D01*
X175249679Y-123503600D01*
X175249679Y-128803600D01*
X175253357Y-128840944D01*
X175264250Y-128876854D01*
X175281939Y-128909948D01*
X175305745Y-128938955D01*
X175334752Y-128962761D01*
X175367846Y-128980450D01*
X175403756Y-128991343D01*
X175441100Y-128995021D01*
X177441100Y-128995021D01*
X177478444Y-128991343D01*
X177514354Y-128980450D01*
X177547448Y-128962761D01*
X177576455Y-128938955D01*
X177600261Y-128909948D01*
X177617950Y-128876854D01*
X177628843Y-128840944D01*
X177632521Y-128803600D01*
X177632521Y-123503600D01*
X177628843Y-123466256D01*
X177617950Y-123430346D01*
X177600261Y-123397252D01*
X177576455Y-123368245D01*
X177547448Y-123344439D01*
X177514354Y-123326750D01*
X177478444Y-123315857D01*
X177441100Y-123312179D01*
X176978600Y-123312179D01*
X176978600Y-122269192D01*
X176980136Y-122253599D01*
X176978600Y-122238004D01*
X176974006Y-122191359D01*
X176955851Y-122131510D01*
X176926369Y-122076353D01*
X176886693Y-122028007D01*
X176874577Y-122018064D01*
X174298600Y-119442088D01*
X174298600Y-99166831D01*
X174329054Y-99319932D01*
X174392714Y-99473621D01*
X174485134Y-99611937D01*
X174602763Y-99729566D01*
X174741079Y-99821986D01*
X174894768Y-99885646D01*
X175057924Y-99918100D01*
X175224276Y-99918100D01*
X175387432Y-99885646D01*
X175541121Y-99821986D01*
X175679437Y-99729566D01*
X175797066Y-99611937D01*
X175889486Y-99473621D01*
X175953146Y-99319932D01*
X175985600Y-99156776D01*
X175985600Y-98990424D01*
X175953146Y-98827268D01*
X175889486Y-98673579D01*
X175797066Y-98535263D01*
X175679437Y-98417634D01*
X175541121Y-98325214D01*
X175387432Y-98261554D01*
X175224276Y-98229100D01*
X175057924Y-98229100D01*
X174894768Y-98261554D01*
X174741079Y-98325214D01*
X174602763Y-98417634D01*
X174485134Y-98535263D01*
X174392714Y-98673579D01*
X174329054Y-98827268D01*
X174298600Y-98980369D01*
X174298600Y-95739192D01*
X174300136Y-95723599D01*
X174297605Y-95697900D01*
X174294006Y-95661359D01*
X174275851Y-95601510D01*
X174246369Y-95546353D01*
X174206693Y-95498007D01*
X174194577Y-95488064D01*
X172428600Y-93722088D01*
X172428600Y-92545021D01*
X172511100Y-92545021D01*
X172548444Y-92541343D01*
X172584354Y-92530450D01*
X172617448Y-92512761D01*
X172646455Y-92488955D01*
X172670261Y-92459948D01*
X172687950Y-92426854D01*
X172698843Y-92390944D01*
X172702521Y-92353600D01*
X172702521Y-91153600D01*
X172698843Y-91116256D01*
X172687950Y-91080346D01*
X172670261Y-91047252D01*
X172646455Y-91018245D01*
X172617448Y-90994439D01*
X172584354Y-90976750D01*
X172548444Y-90965857D01*
X172511100Y-90962179D01*
X171711100Y-90962179D01*
X171673756Y-90965857D01*
X171637846Y-90976750D01*
X171604752Y-90994439D01*
X171575745Y-91018245D01*
X171551939Y-91047252D01*
X171534250Y-91080346D01*
X171523357Y-91116256D01*
X171519679Y-91153600D01*
X171008600Y-91153600D01*
X171008600Y-89049196D01*
X171010136Y-89033600D01*
X171004006Y-88971359D01*
X170985851Y-88911510D01*
X170956369Y-88856353D01*
X170942238Y-88839134D01*
X170916693Y-88808007D01*
X170904576Y-88798063D01*
X170416642Y-88310130D01*
X170406693Y-88298007D01*
X170358347Y-88258331D01*
X170303190Y-88228849D01*
X170243341Y-88210694D01*
X170196696Y-88206100D01*
X170181100Y-88204564D01*
X170165504Y-88206100D01*
X168702613Y-88206100D01*
X167938600Y-87442088D01*
X167938600Y-81776825D01*
X168307925Y-81407500D01*
X169823597Y-81407500D01*
X169813357Y-81441256D01*
X169809679Y-81478600D01*
X169809679Y-83128600D01*
X169813357Y-83165944D01*
X169824250Y-83201854D01*
X169841939Y-83234948D01*
X169865745Y-83263955D01*
X169894752Y-83287761D01*
X169927846Y-83305450D01*
X169963756Y-83316343D01*
X170001100Y-83320021D01*
X170513600Y-83320021D01*
X170513601Y-84662179D01*
X170441100Y-84662179D01*
X170403756Y-84665857D01*
X170367846Y-84676750D01*
X170334752Y-84694439D01*
X170305745Y-84718245D01*
X170281939Y-84747252D01*
X170264250Y-84780346D01*
X170253357Y-84816256D01*
X170249679Y-84853600D01*
X170249679Y-86053600D01*
X170253357Y-86090944D01*
X170264250Y-86126854D01*
X170281939Y-86159948D01*
X170305745Y-86188955D01*
X170334752Y-86212761D01*
X170367846Y-86230450D01*
X170403756Y-86241343D01*
X170441100Y-86245021D01*
X171241100Y-86245021D01*
X171278444Y-86241343D01*
X171314354Y-86230450D01*
X171347448Y-86212761D01*
X171376455Y-86188955D01*
X171400261Y-86159948D01*
X171417950Y-86126854D01*
X171428843Y-86090944D01*
X171432521Y-86053600D01*
X171432521Y-84853600D01*
X171428843Y-84816256D01*
X171417950Y-84780346D01*
X171400261Y-84747252D01*
X171376455Y-84718245D01*
X171347448Y-84694439D01*
X171314354Y-84676750D01*
X171278444Y-84665857D01*
X171241100Y-84662179D01*
X171148600Y-84662179D01*
X171148600Y-84386746D01*
X171163756Y-84391343D01*
X171201100Y-84395021D01*
X171693508Y-84395021D01*
X171793601Y-84495114D01*
X171793601Y-84662179D01*
X171711100Y-84662179D01*
X171673756Y-84665857D01*
X171637846Y-84676750D01*
X171604752Y-84694439D01*
X171575745Y-84718245D01*
X171551939Y-84747252D01*
X171534250Y-84780346D01*
X171523357Y-84816256D01*
X171519679Y-84853600D01*
X171519679Y-86053600D01*
X171523357Y-86090944D01*
X171534250Y-86126854D01*
X171551939Y-86159948D01*
X171575745Y-86188955D01*
X171604752Y-86212761D01*
X171637846Y-86230450D01*
X171673756Y-86241343D01*
X171711100Y-86245021D01*
X171793601Y-86245021D01*
X171793601Y-86447995D01*
X171792064Y-86463600D01*
X171798194Y-86525840D01*
X171816349Y-86585689D01*
X171816350Y-86585690D01*
X171845832Y-86640847D01*
X171885508Y-86689193D01*
X171897625Y-86699137D01*
X173629182Y-88430695D01*
X173607400Y-88540201D01*
X173607400Y-88666999D01*
X173632137Y-88791360D01*
X173680660Y-88908506D01*
X173751105Y-89013935D01*
X173840765Y-89103595D01*
X173933601Y-89165625D01*
X173933600Y-90021031D01*
X172840825Y-91113807D01*
X172828708Y-91123751D01*
X172789032Y-91172097D01*
X172784743Y-91180122D01*
X172759549Y-91227255D01*
X172741394Y-91287104D01*
X172735264Y-91349344D01*
X172736801Y-91364950D01*
X172736800Y-93309354D01*
X172735264Y-93324950D01*
X172737387Y-93346506D01*
X172741394Y-93387190D01*
X172759549Y-93447039D01*
X172789031Y-93502196D01*
X172828707Y-93550543D01*
X172840830Y-93560492D01*
X173356171Y-94075833D01*
X173337400Y-94170201D01*
X173337400Y-94296999D01*
X173362137Y-94421360D01*
X173410660Y-94538506D01*
X173481105Y-94643935D01*
X173570765Y-94733595D01*
X173676194Y-94804040D01*
X173793340Y-94852563D01*
X173917701Y-94877300D01*
X174044499Y-94877300D01*
X174168860Y-94852563D01*
X174286006Y-94804040D01*
X174391435Y-94733595D01*
X174481095Y-94643935D01*
X174551540Y-94538506D01*
X174600063Y-94421360D01*
X174624800Y-94296999D01*
X174624800Y-94170201D01*
X174600063Y-94045840D01*
X174551540Y-93928694D01*
X174481095Y-93823265D01*
X174391435Y-93733605D01*
X174286006Y-93663160D01*
X174168860Y-93614637D01*
X174129381Y-93606784D01*
X174136006Y-93604040D01*
X174241435Y-93533595D01*
X174331095Y-93443935D01*
X174401540Y-93338506D01*
X174450063Y-93221360D01*
X174474800Y-93096999D01*
X174474800Y-92970201D01*
X174450063Y-92845840D01*
X174401540Y-92728694D01*
X174331095Y-92623265D01*
X174241435Y-92533605D01*
X174148600Y-92471575D01*
X174148600Y-91525112D01*
X174320111Y-91353600D01*
X175029679Y-91353600D01*
X175029679Y-92553600D01*
X175033357Y-92590944D01*
X175044250Y-92626854D01*
X175061939Y-92659948D01*
X175085745Y-92688955D01*
X175114752Y-92712761D01*
X175147846Y-92730450D01*
X175183756Y-92741343D01*
X175221100Y-92745021D01*
X175303600Y-92745021D01*
X175303600Y-93448004D01*
X175302064Y-93463600D01*
X175303600Y-93479195D01*
X175308194Y-93525840D01*
X175326349Y-93585689D01*
X175355831Y-93640846D01*
X175395507Y-93689193D01*
X175407630Y-93699142D01*
X176143600Y-94435113D01*
X176143601Y-119201574D01*
X176050765Y-119263605D01*
X175961105Y-119353265D01*
X175890660Y-119458694D01*
X175842137Y-119575840D01*
X175817400Y-119700201D01*
X175817400Y-119826999D01*
X175842137Y-119951360D01*
X175890660Y-120068506D01*
X175961105Y-120173935D01*
X176050765Y-120263595D01*
X176156194Y-120334040D01*
X176273340Y-120382563D01*
X176397701Y-120407300D01*
X176524499Y-120407300D01*
X176648860Y-120382563D01*
X176766006Y-120334040D01*
X176871435Y-120263595D01*
X176961095Y-120173935D01*
X177031540Y-120068506D01*
X177080063Y-119951360D01*
X177104800Y-119826999D01*
X177104800Y-119700201D01*
X177080063Y-119575840D01*
X177031540Y-119458694D01*
X176961095Y-119353265D01*
X176871435Y-119263605D01*
X176778600Y-119201575D01*
X176778600Y-98990424D01*
X176796600Y-98990424D01*
X176796600Y-99156776D01*
X176829054Y-99319932D01*
X176892714Y-99473621D01*
X176985134Y-99611937D01*
X177102763Y-99729566D01*
X177241079Y-99821986D01*
X177394768Y-99885646D01*
X177557924Y-99918100D01*
X177724276Y-99918100D01*
X177887432Y-99885646D01*
X178041121Y-99821986D01*
X178179437Y-99729566D01*
X178297066Y-99611937D01*
X178389486Y-99473621D01*
X178453146Y-99319932D01*
X178485600Y-99156776D01*
X178485600Y-98990424D01*
X178453146Y-98827268D01*
X178389486Y-98673579D01*
X178297066Y-98535263D01*
X178179437Y-98417634D01*
X178041121Y-98325214D01*
X177887432Y-98261554D01*
X177724276Y-98229100D01*
X177557924Y-98229100D01*
X177394768Y-98261554D01*
X177241079Y-98325214D01*
X177102763Y-98417634D01*
X176985134Y-98535263D01*
X176892714Y-98673579D01*
X176829054Y-98827268D01*
X176796600Y-98990424D01*
X176778600Y-98990424D01*
X176778600Y-94319192D01*
X176780136Y-94303599D01*
X176777086Y-94272636D01*
X176774006Y-94241359D01*
X176755851Y-94181510D01*
X176726369Y-94126353D01*
X176686693Y-94078007D01*
X176674577Y-94068064D01*
X175938600Y-93332088D01*
X175938600Y-92745021D01*
X176021100Y-92745021D01*
X176058444Y-92741343D01*
X176094354Y-92730450D01*
X176127448Y-92712761D01*
X176156455Y-92688955D01*
X176180261Y-92659948D01*
X176197950Y-92626854D01*
X176208843Y-92590944D01*
X176212521Y-92553600D01*
X176212521Y-91353600D01*
X177569679Y-91353600D01*
X177569679Y-92553600D01*
X177573357Y-92590944D01*
X177584250Y-92626854D01*
X177601939Y-92659948D01*
X177625745Y-92688955D01*
X177654752Y-92712761D01*
X177687846Y-92730450D01*
X177723756Y-92741343D01*
X177761100Y-92745021D01*
X177843600Y-92745021D01*
X177843601Y-97147994D01*
X177842064Y-97163600D01*
X177848194Y-97225840D01*
X177866349Y-97285689D01*
X177866350Y-97285690D01*
X177895832Y-97340847D01*
X177935508Y-97389193D01*
X177947625Y-97399137D01*
X178813600Y-98265113D01*
X178813601Y-123312179D01*
X177981100Y-123312179D01*
X177943756Y-123315857D01*
X177907846Y-123326750D01*
X177874752Y-123344439D01*
X177845745Y-123368245D01*
X177821939Y-123397252D01*
X177804250Y-123430346D01*
X177793357Y-123466256D01*
X177789679Y-123503600D01*
X177789679Y-128803600D01*
X177793357Y-128840944D01*
X177804250Y-128876854D01*
X177821939Y-128909948D01*
X177845745Y-128938955D01*
X177874752Y-128962761D01*
X177907846Y-128980450D01*
X177943756Y-128991343D01*
X177981100Y-128995021D01*
X179981100Y-128995021D01*
X180018444Y-128991343D01*
X180054354Y-128980450D01*
X180087448Y-128962761D01*
X180116455Y-128938955D01*
X180140261Y-128909948D01*
X180157950Y-128876854D01*
X180168843Y-128840944D01*
X180172521Y-128803600D01*
X180172521Y-123503600D01*
X180168843Y-123466256D01*
X180157950Y-123430346D01*
X180140261Y-123397252D01*
X180116455Y-123368245D01*
X180087448Y-123344439D01*
X180054354Y-123326750D01*
X180018444Y-123315857D01*
X179981100Y-123312179D01*
X179448600Y-123312179D01*
X179448600Y-98149192D01*
X179450136Y-98133599D01*
X179446291Y-98094564D01*
X179444006Y-98071359D01*
X179425851Y-98011510D01*
X179396369Y-97956353D01*
X179356693Y-97908007D01*
X179344577Y-97898064D01*
X178478600Y-97032088D01*
X178478600Y-92745021D01*
X178561100Y-92745021D01*
X178598444Y-92741343D01*
X178634354Y-92730450D01*
X178667448Y-92712761D01*
X178696455Y-92688955D01*
X178720261Y-92659948D01*
X178737950Y-92626854D01*
X178748843Y-92590944D01*
X178752521Y-92553600D01*
X178752521Y-91353600D01*
X178748843Y-91316256D01*
X178737950Y-91280346D01*
X178720261Y-91247252D01*
X178696455Y-91218245D01*
X178667448Y-91194439D01*
X178634354Y-91176750D01*
X178598444Y-91165857D01*
X178561100Y-91162179D01*
X177761100Y-91162179D01*
X177723756Y-91165857D01*
X177687846Y-91176750D01*
X177654752Y-91194439D01*
X177625745Y-91218245D01*
X177601939Y-91247252D01*
X177584250Y-91280346D01*
X177573357Y-91316256D01*
X177569679Y-91353600D01*
X176212521Y-91353600D01*
X176208843Y-91316256D01*
X176197950Y-91280346D01*
X176180261Y-91247252D01*
X176156455Y-91218245D01*
X176127448Y-91194439D01*
X176094354Y-91176750D01*
X176058444Y-91165857D01*
X176021100Y-91162179D01*
X175221100Y-91162179D01*
X175183756Y-91165857D01*
X175147846Y-91176750D01*
X175114752Y-91194439D01*
X175085745Y-91218245D01*
X175061939Y-91247252D01*
X175044250Y-91280346D01*
X175033357Y-91316256D01*
X175029679Y-91353600D01*
X174320111Y-91353600D01*
X179704576Y-85969134D01*
X179716693Y-85959190D01*
X179756369Y-85910844D01*
X179785851Y-85855687D01*
X179804006Y-85795838D01*
X179808600Y-85749193D01*
X179810136Y-85733597D01*
X179808600Y-85718001D01*
X179808600Y-83320021D01*
X180191100Y-83320021D01*
X180228444Y-83316343D01*
X180264354Y-83305450D01*
X180297448Y-83287761D01*
X180326455Y-83263955D01*
X180350261Y-83234948D01*
X180367950Y-83201854D01*
X180378843Y-83165944D01*
X180382521Y-83128600D01*
X180382521Y-81478600D01*
X180378843Y-81441256D01*
X180367950Y-81405346D01*
X180350261Y-81372252D01*
X180326455Y-81343245D01*
X180297448Y-81319439D01*
X180264354Y-81301750D01*
X180228444Y-81290857D01*
X180191100Y-81287179D01*
X178791100Y-81287179D01*
X178753756Y-81290857D01*
X178717846Y-81301750D01*
X178684752Y-81319439D01*
X178655745Y-81343245D01*
X178631939Y-81372252D01*
X178614250Y-81405346D01*
X178603357Y-81441256D01*
X178599679Y-81478600D01*
X178599679Y-83128600D01*
X178603357Y-83165944D01*
X178614250Y-83201854D01*
X178631939Y-83234948D01*
X178655745Y-83263955D01*
X178684752Y-83287761D01*
X178717846Y-83305450D01*
X178753756Y-83316343D01*
X178791100Y-83320021D01*
X179173600Y-83320021D01*
X179173601Y-85602083D01*
X178752521Y-86023163D01*
X178752521Y-85053600D01*
X178748843Y-85016256D01*
X178737950Y-84980346D01*
X178720261Y-84947252D01*
X178696455Y-84918245D01*
X178667448Y-84894439D01*
X178634354Y-84876750D01*
X178598444Y-84865857D01*
X178561100Y-84862179D01*
X178478600Y-84862179D01*
X178478600Y-84369196D01*
X178480136Y-84353600D01*
X178474006Y-84291359D01*
X178455851Y-84231510D01*
X178426369Y-84176353D01*
X178404841Y-84150121D01*
X178386693Y-84128007D01*
X178374577Y-84118064D01*
X178132521Y-83876008D01*
X178132521Y-83383600D01*
X178128843Y-83346256D01*
X178117950Y-83310346D01*
X178100261Y-83277252D01*
X178076455Y-83248245D01*
X178047448Y-83224439D01*
X178014354Y-83206750D01*
X177978444Y-83195857D01*
X177941100Y-83192179D01*
X177770885Y-83192179D01*
X177778843Y-83165944D01*
X177782521Y-83128600D01*
X177782521Y-81478600D01*
X177778843Y-81441256D01*
X177767950Y-81405346D01*
X177750261Y-81372252D01*
X177726455Y-81343245D01*
X177697448Y-81319439D01*
X177664354Y-81301750D01*
X177628444Y-81290857D01*
X177591100Y-81287179D01*
X176191100Y-81287179D01*
X176153756Y-81290857D01*
X176117846Y-81301750D01*
X176084752Y-81319439D01*
X176055745Y-81343245D01*
X176031939Y-81372252D01*
X176014250Y-81405346D01*
X176003357Y-81441256D01*
X175999679Y-81478600D01*
X175999679Y-83128600D01*
X176003357Y-83165944D01*
X176014250Y-83201854D01*
X176031939Y-83234948D01*
X176055745Y-83263955D01*
X176084752Y-83287761D01*
X176117846Y-83305450D01*
X176153756Y-83316343D01*
X176191100Y-83320021D01*
X176576642Y-83320021D01*
X176581260Y-84862179D01*
X176491100Y-84862179D01*
X176453756Y-84865857D01*
X176417846Y-84876750D01*
X176384752Y-84894439D01*
X176355745Y-84918245D01*
X176331939Y-84947252D01*
X176314250Y-84980346D01*
X176303357Y-85016256D01*
X176299679Y-85053600D01*
X176299679Y-86253600D01*
X176303357Y-86290944D01*
X176314250Y-86326854D01*
X176329882Y-86356100D01*
X173712613Y-86356100D01*
X172702521Y-85346009D01*
X172702521Y-84853600D01*
X172698843Y-84816256D01*
X172687950Y-84780346D01*
X172670261Y-84747252D01*
X172646455Y-84718245D01*
X172617448Y-84694439D01*
X172584354Y-84676750D01*
X172548444Y-84665857D01*
X172511100Y-84662179D01*
X172428600Y-84662179D01*
X172428600Y-84379196D01*
X172430136Y-84363600D01*
X172424006Y-84301359D01*
X172405851Y-84241510D01*
X172376369Y-84186353D01*
X172368162Y-84176353D01*
X172336693Y-84138007D01*
X172324576Y-84128063D01*
X172317613Y-84121100D01*
X173915504Y-84121100D01*
X173931100Y-84122636D01*
X173946696Y-84121100D01*
X173993341Y-84116506D01*
X174053190Y-84098351D01*
X174108347Y-84068869D01*
X174156693Y-84029193D01*
X174166642Y-84017070D01*
X174974576Y-83209137D01*
X174986693Y-83199193D01*
X175026369Y-83150847D01*
X175055851Y-83095690D01*
X175074006Y-83035841D01*
X175078600Y-82989196D01*
X175078600Y-82989194D01*
X175080136Y-82973601D01*
X175078600Y-82958008D01*
X175078600Y-81800909D01*
X175080136Y-81785313D01*
X175074006Y-81723072D01*
X175055851Y-81663223D01*
X175026369Y-81608066D01*
X175003705Y-81580450D01*
X174986693Y-81559720D01*
X174974577Y-81549777D01*
X173886529Y-80461730D01*
X173876580Y-80449607D01*
X173828234Y-80409931D01*
X173773077Y-80380449D01*
X173713228Y-80362294D01*
X173666583Y-80357700D01*
X173650987Y-80356164D01*
X173635391Y-80357700D01*
X167465092Y-80357700D01*
X167449499Y-80356164D01*
X167433906Y-80357700D01*
X167433904Y-80357700D01*
X167387259Y-80362294D01*
X167327410Y-80380449D01*
X167272253Y-80409931D01*
X167223907Y-80449607D01*
X167213963Y-80461724D01*
X166277625Y-81398063D01*
X166265508Y-81408007D01*
X166225832Y-81456353D01*
X166219571Y-81468067D01*
X166196349Y-81511511D01*
X166178194Y-81571360D01*
X166172064Y-81633600D01*
X166173601Y-81649206D01*
X166173600Y-82792179D01*
X166058658Y-82792179D01*
X164087402Y-80791056D01*
X164076693Y-80778007D01*
X164053327Y-80758832D01*
X164030336Y-80739672D01*
X164029282Y-80739099D01*
X164028347Y-80738331D01*
X164001709Y-80724093D01*
X163975402Y-80709776D01*
X163974257Y-80709419D01*
X163973190Y-80708849D01*
X163944325Y-80700093D01*
X163915691Y-80691171D01*
X163914495Y-80691044D01*
X163913341Y-80690694D01*
X163883384Y-80687744D01*
X163853498Y-80684573D01*
X163836700Y-80686100D01*
X158372521Y-80686100D01*
X158372521Y-80603600D01*
X158368843Y-80566256D01*
X158357950Y-80530346D01*
X158340261Y-80497252D01*
X158316455Y-80468245D01*
X158287448Y-80444439D01*
X158254354Y-80426750D01*
X158218444Y-80415857D01*
X158181100Y-80412179D01*
X157481100Y-80412179D01*
X157443756Y-80415857D01*
X157407846Y-80426750D01*
X157374752Y-80444439D01*
X157345745Y-80468245D01*
X157321939Y-80497252D01*
X157304250Y-80530346D01*
X157293357Y-80566256D01*
X157289679Y-80603600D01*
X157289679Y-81403600D01*
X157293357Y-81440944D01*
X157304250Y-81476854D01*
X157321939Y-81509948D01*
X157345745Y-81538955D01*
X157374752Y-81562761D01*
X157407846Y-81580450D01*
X157443756Y-81591343D01*
X157481100Y-81595021D01*
X157723600Y-81595021D01*
X157723601Y-83692037D01*
X157716100Y-83696046D01*
X157689354Y-83681750D01*
X157653444Y-83670857D01*
X157616100Y-83667179D01*
X157166100Y-83667179D01*
X157128756Y-83670857D01*
X157092846Y-83681750D01*
X157066100Y-83696046D01*
X157039354Y-83681750D01*
X157003444Y-83670857D01*
X156966100Y-83667179D01*
X156516100Y-83667179D01*
X156478756Y-83670857D01*
X156442846Y-83681750D01*
X156409752Y-83699439D01*
X156380745Y-83723245D01*
X156356939Y-83752252D01*
X156339250Y-83785346D01*
X156328357Y-83821256D01*
X156324679Y-83858600D01*
X156324679Y-85508600D01*
X156328357Y-85545944D01*
X156339250Y-85581854D01*
X156356939Y-85614948D01*
X156380745Y-85643955D01*
X156409752Y-85667761D01*
X156442846Y-85685450D01*
X156478756Y-85696343D01*
X156516100Y-85700021D01*
X156966100Y-85700021D01*
X157003444Y-85696343D01*
X157039354Y-85685450D01*
X157066100Y-85671154D01*
X157092846Y-85685450D01*
X157128756Y-85696343D01*
X157143601Y-85697805D01*
X157143601Y-86052571D01*
X157124635Y-86033605D01*
X157019206Y-85963160D01*
X156902060Y-85914637D01*
X156777699Y-85889900D01*
X156650901Y-85889900D01*
X156526540Y-85914637D01*
X156409394Y-85963160D01*
X156303965Y-86033605D01*
X156214305Y-86123265D01*
X156143860Y-86228694D01*
X156095337Y-86345840D01*
X156070600Y-86470201D01*
X156070600Y-86596999D01*
X156095337Y-86721360D01*
X156143860Y-86838506D01*
X156214305Y-86943935D01*
X156303965Y-87033595D01*
X156409394Y-87104040D01*
X156526540Y-87152563D01*
X156650901Y-87177300D01*
X156777699Y-87177300D01*
X156887205Y-87155518D01*
X157193600Y-87461913D01*
X157193601Y-87827089D01*
X157006642Y-87640130D01*
X156996693Y-87628007D01*
X156948347Y-87588331D01*
X156893190Y-87558849D01*
X156833341Y-87540694D01*
X156786696Y-87536100D01*
X156771100Y-87534564D01*
X156755504Y-87536100D01*
X152669813Y-87536100D01*
X152668843Y-87526256D01*
X152657950Y-87490346D01*
X152640261Y-87457252D01*
X152616455Y-87428245D01*
X152587448Y-87404439D01*
X152554354Y-87386750D01*
X152518444Y-87375857D01*
X152481100Y-87372179D01*
X150781100Y-87372179D01*
X150743756Y-87375857D01*
X150707846Y-87386750D01*
X150674752Y-87404439D01*
X150645745Y-87428245D01*
X150621939Y-87457252D01*
X150604250Y-87490346D01*
X150593357Y-87526256D01*
X150589679Y-87563600D01*
X150589679Y-88763600D01*
X150593357Y-88800944D01*
X150604250Y-88836854D01*
X150621939Y-88869948D01*
X150645745Y-88898955D01*
X150674752Y-88922761D01*
X150707846Y-88940450D01*
X150743756Y-88951343D01*
X150781100Y-88955021D01*
X152481100Y-88955021D01*
X152518444Y-88951343D01*
X152554354Y-88940450D01*
X152587448Y-88922761D01*
X152616455Y-88898955D01*
X152640261Y-88869948D01*
X152657950Y-88836854D01*
X152668843Y-88800944D01*
X152672521Y-88763600D01*
X152672521Y-88171100D01*
X153554587Y-88171100D01*
X152679588Y-89046100D01*
X150916696Y-89046100D01*
X150901100Y-89044564D01*
X150885504Y-89046100D01*
X150838859Y-89050694D01*
X150779010Y-89068849D01*
X150723853Y-89098331D01*
X150675507Y-89138007D01*
X150665565Y-89150122D01*
X149823509Y-89992179D01*
X148556100Y-89992179D01*
X148518756Y-89995857D01*
X148482846Y-90006750D01*
X148449752Y-90024439D01*
X148420745Y-90048245D01*
X148396939Y-90077252D01*
X148379250Y-90110346D01*
X148368357Y-90146256D01*
X148364679Y-90183600D01*
X148364679Y-91583600D01*
X148368357Y-91620944D01*
X148379250Y-91656854D01*
X148396939Y-91689948D01*
X148420745Y-91718955D01*
X148449752Y-91742761D01*
X148482846Y-91760450D01*
X148518756Y-91771343D01*
X148556100Y-91775021D01*
X150206100Y-91775021D01*
X150243444Y-91771343D01*
X150279354Y-91760450D01*
X150312448Y-91742761D01*
X150341455Y-91718955D01*
X150365261Y-91689948D01*
X150382950Y-91656854D01*
X150393843Y-91620944D01*
X150397521Y-91583600D01*
X150397521Y-90316192D01*
X151032613Y-89681100D01*
X152795504Y-89681100D01*
X152811100Y-89682636D01*
X152826696Y-89681100D01*
X152873341Y-89676506D01*
X152933190Y-89658351D01*
X152988347Y-89628869D01*
X153036693Y-89589193D01*
X153046642Y-89577070D01*
X154012613Y-88611100D01*
X156462875Y-88611100D01*
X156548475Y-88696700D01*
X156537701Y-88696700D01*
X156413340Y-88721437D01*
X156296194Y-88769960D01*
X156190765Y-88840405D01*
X156101105Y-88930065D01*
X156030660Y-89035494D01*
X155982137Y-89152640D01*
X155957400Y-89277001D01*
X155957400Y-89373012D01*
X155942877Y-89365249D01*
X155883028Y-89347094D01*
X155836383Y-89342500D01*
X155820787Y-89340964D01*
X155805191Y-89342500D01*
X153630296Y-89342500D01*
X153614700Y-89340964D01*
X153599104Y-89342500D01*
X153552459Y-89347094D01*
X153492610Y-89365249D01*
X153437453Y-89394731D01*
X153389107Y-89434407D01*
X153379163Y-89446524D01*
X152826017Y-89999671D01*
X152813444Y-89995857D01*
X152776100Y-89992179D01*
X151126100Y-89992179D01*
X151088756Y-89995857D01*
X151052846Y-90006750D01*
X151019752Y-90024439D01*
X150990745Y-90048245D01*
X150966939Y-90077252D01*
X150949250Y-90110346D01*
X150938357Y-90146256D01*
X150934679Y-90183600D01*
X150934679Y-91583600D01*
X150938357Y-91620944D01*
X150949250Y-91656854D01*
X150966939Y-91689948D01*
X150990745Y-91718955D01*
X151019752Y-91742761D01*
X151052846Y-91760450D01*
X151088756Y-91771343D01*
X151126100Y-91775021D01*
X152080666Y-91775021D01*
X151757629Y-92098059D01*
X151745507Y-92108007D01*
X151705831Y-92156354D01*
X151687476Y-92190694D01*
X151676349Y-92211511D01*
X151658194Y-92271360D01*
X151652064Y-92333600D01*
X151653600Y-92349196D01*
X151653600Y-92592179D01*
X151126100Y-92592179D01*
X151088756Y-92595857D01*
X151052846Y-92606750D01*
X151019752Y-92624439D01*
X150990745Y-92648245D01*
X150966939Y-92677252D01*
X150949250Y-92710346D01*
X150938357Y-92746256D01*
X150934679Y-92783600D01*
X150934679Y-94183600D01*
X150938357Y-94220944D01*
X150949250Y-94256854D01*
X150965359Y-94286992D01*
X150956939Y-94297252D01*
X150939250Y-94330346D01*
X150928357Y-94366256D01*
X150924679Y-94403600D01*
X150924679Y-95803600D01*
X150928357Y-95840944D01*
X150939250Y-95876854D01*
X150956939Y-95909948D01*
X150980745Y-95938955D01*
X151009752Y-95962761D01*
X151042846Y-95980450D01*
X151078756Y-95991343D01*
X151116100Y-95995021D01*
X152766100Y-95995021D01*
X152803444Y-95991343D01*
X152839354Y-95980450D01*
X152872448Y-95962761D01*
X152901455Y-95938955D01*
X152925261Y-95909948D01*
X152942950Y-95876854D01*
X152953843Y-95840944D01*
X152957521Y-95803600D01*
X152957521Y-94403600D01*
X152953843Y-94366256D01*
X152942950Y-94330346D01*
X152926841Y-94300208D01*
X152935261Y-94289948D01*
X152952950Y-94256854D01*
X152963843Y-94220944D01*
X152967521Y-94183600D01*
X152967521Y-92783600D01*
X152963843Y-92746256D01*
X152952950Y-92710346D01*
X152935261Y-92677252D01*
X152911455Y-92648245D01*
X152882448Y-92624439D01*
X152849354Y-92606750D01*
X152813444Y-92595857D01*
X152776100Y-92592179D01*
X152288600Y-92592179D01*
X152288600Y-92465112D01*
X152482613Y-92271100D01*
X153519588Y-92271100D01*
X154372201Y-93123714D01*
X154372200Y-96851775D01*
X152619275Y-98604700D01*
X151332925Y-98604700D01*
X150905000Y-98176776D01*
X150905000Y-96847305D01*
X150906536Y-96831712D01*
X150904531Y-96811360D01*
X150900406Y-96769472D01*
X150882251Y-96709623D01*
X150852769Y-96654466D01*
X150813093Y-96606120D01*
X150800970Y-96596171D01*
X150614929Y-96410130D01*
X150604980Y-96398007D01*
X150556634Y-96358331D01*
X150501477Y-96328849D01*
X150441628Y-96310694D01*
X150394983Y-96306100D01*
X150379387Y-96304564D01*
X150363791Y-96306100D01*
X148083125Y-96306100D01*
X148021095Y-96213265D01*
X147931435Y-96123605D01*
X147826006Y-96053160D01*
X147708860Y-96004637D01*
X147584499Y-95979900D01*
X147457701Y-95979900D01*
X147333340Y-96004637D01*
X147216194Y-96053160D01*
X147110765Y-96123605D01*
X147021105Y-96213265D01*
X146950660Y-96318694D01*
X146902137Y-96435840D01*
X146877400Y-96560201D01*
X146877400Y-96686999D01*
X146902137Y-96811360D01*
X146950660Y-96928506D01*
X147021105Y-97033935D01*
X147110765Y-97123595D01*
X147216194Y-97194040D01*
X147333340Y-97242563D01*
X147457701Y-97267300D01*
X147584499Y-97267300D01*
X147708860Y-97242563D01*
X147826006Y-97194040D01*
X147931435Y-97123595D01*
X148021095Y-97033935D01*
X148083125Y-96941100D01*
X148354925Y-96941100D01*
X148354679Y-96943600D01*
X148354679Y-97311300D01*
X137877060Y-97311300D01*
X137830415Y-97315894D01*
X137770566Y-97334049D01*
X137715409Y-97363531D01*
X137667063Y-97403207D01*
X137644177Y-97431094D01*
X136841958Y-98233315D01*
X136829919Y-98243195D01*
X136790493Y-98291237D01*
X136761196Y-98346046D01*
X136743156Y-98405518D01*
X136738590Y-98451874D01*
X136738590Y-98451884D01*
X136737065Y-98467366D01*
X136738590Y-98482848D01*
X136738591Y-101881844D01*
X136416617Y-102203820D01*
X131240333Y-102203820D01*
X130215600Y-101179088D01*
X130215600Y-100088113D01*
X130203381Y-99964049D01*
X130155091Y-99804860D01*
X130076673Y-99658151D01*
X129971141Y-99529559D01*
X129842548Y-99424027D01*
X129695839Y-99345609D01*
X129536650Y-99297319D01*
X129371100Y-99281014D01*
X129205549Y-99297319D01*
X129046360Y-99345609D01*
X128899651Y-99424027D01*
X128771059Y-99529559D01*
X128665527Y-99658152D01*
X128587109Y-99804861D01*
X128538819Y-99964050D01*
X128526600Y-100088114D01*
X127627721Y-100088114D01*
X127623381Y-100044049D01*
X127575091Y-99884860D01*
X127496673Y-99738151D01*
X127391141Y-99609559D01*
X127262549Y-99504027D01*
X127115840Y-99425609D01*
X126956651Y-99377319D01*
X126791100Y-99361014D01*
X126625550Y-99377319D01*
X126466361Y-99425609D01*
X126319652Y-99504027D01*
X126191060Y-99609559D01*
X126085528Y-99738151D01*
X126007110Y-99884860D01*
X125958820Y-100044049D01*
X125946601Y-100168113D01*
X125946600Y-101559086D01*
X125127720Y-101559086D01*
X125135600Y-101479087D01*
X125135600Y-100088113D01*
X125123381Y-99964049D01*
X125075091Y-99804860D01*
X124996673Y-99658151D01*
X124891141Y-99529559D01*
X124762548Y-99424027D01*
X124615839Y-99345609D01*
X124456650Y-99297319D01*
X124291100Y-99281014D01*
X124125549Y-99297319D01*
X123966360Y-99345609D01*
X123819651Y-99424027D01*
X123691059Y-99529559D01*
X123585527Y-99658152D01*
X123507109Y-99804861D01*
X123458819Y-99964050D01*
X123446600Y-100088114D01*
X115724201Y-100088114D01*
X115724201Y-94950201D01*
X146867400Y-94950201D01*
X146867400Y-95076999D01*
X146892137Y-95201360D01*
X146940660Y-95318506D01*
X147011105Y-95423935D01*
X147100765Y-95513595D01*
X147206194Y-95584040D01*
X147323340Y-95632563D01*
X147447701Y-95657300D01*
X147574499Y-95657300D01*
X147698860Y-95632563D01*
X147816006Y-95584040D01*
X147921435Y-95513595D01*
X148011095Y-95423935D01*
X148053080Y-95361100D01*
X148354679Y-95361100D01*
X148354679Y-95743600D01*
X148358357Y-95780944D01*
X148369250Y-95816854D01*
X148386939Y-95849948D01*
X148410745Y-95878955D01*
X148439752Y-95902761D01*
X148472846Y-95920450D01*
X148508756Y-95931343D01*
X148546100Y-95935021D01*
X150196100Y-95935021D01*
X150233444Y-95931343D01*
X150269354Y-95920450D01*
X150302448Y-95902761D01*
X150331455Y-95878955D01*
X150355261Y-95849948D01*
X150372950Y-95816854D01*
X150383843Y-95780944D01*
X150387521Y-95743600D01*
X150387521Y-94343600D01*
X150383843Y-94306256D01*
X150373960Y-94273674D01*
X150382950Y-94256854D01*
X150393843Y-94220944D01*
X150397521Y-94183600D01*
X150397521Y-92783600D01*
X150393843Y-92746256D01*
X150382950Y-92710346D01*
X150365261Y-92677252D01*
X150341455Y-92648245D01*
X150312448Y-92624439D01*
X150279354Y-92606750D01*
X150243444Y-92595857D01*
X150206100Y-92592179D01*
X148556100Y-92592179D01*
X148518756Y-92595857D01*
X148482846Y-92606750D01*
X148449752Y-92624439D01*
X148420745Y-92648245D01*
X148396939Y-92677252D01*
X148379250Y-92710346D01*
X148368357Y-92746256D01*
X148364679Y-92783600D01*
X148364679Y-94183600D01*
X148368357Y-94220944D01*
X148378240Y-94253526D01*
X148369250Y-94270346D01*
X148358357Y-94306256D01*
X148354679Y-94343600D01*
X148354679Y-94726100D01*
X148088750Y-94726100D01*
X148081540Y-94708694D01*
X148011095Y-94603265D01*
X147921435Y-94513605D01*
X147816006Y-94443160D01*
X147698860Y-94394637D01*
X147574499Y-94369900D01*
X147447701Y-94369900D01*
X147323340Y-94394637D01*
X147206194Y-94443160D01*
X147100765Y-94513605D01*
X147011105Y-94603265D01*
X146940660Y-94708694D01*
X146892137Y-94825840D01*
X146867400Y-94950201D01*
X115724201Y-94950201D01*
X115724201Y-81803600D01*
X152059679Y-81803600D01*
X152059679Y-83203600D01*
X152063357Y-83240944D01*
X152074250Y-83276854D01*
X152091939Y-83309948D01*
X152115745Y-83338955D01*
X152144752Y-83362761D01*
X152177846Y-83380450D01*
X152213756Y-83391343D01*
X152251100Y-83395021D01*
X153051100Y-83395021D01*
X153088444Y-83391343D01*
X153089508Y-83391020D01*
X154374679Y-84676192D01*
X154374679Y-85508600D01*
X154378357Y-85545944D01*
X154389250Y-85581854D01*
X154406939Y-85614948D01*
X154430745Y-85643955D01*
X154459752Y-85667761D01*
X154492846Y-85685450D01*
X154528756Y-85696343D01*
X154566100Y-85700021D01*
X155016100Y-85700021D01*
X155053444Y-85696343D01*
X155089354Y-85685450D01*
X155116100Y-85671154D01*
X155142846Y-85685450D01*
X155178756Y-85696343D01*
X155216100Y-85700021D01*
X155666100Y-85700021D01*
X155703444Y-85696343D01*
X155739354Y-85685450D01*
X155772448Y-85667761D01*
X155801455Y-85643955D01*
X155825261Y-85614948D01*
X155842950Y-85581854D01*
X155853843Y-85545944D01*
X155857521Y-85508600D01*
X155857521Y-83858600D01*
X155853843Y-83821256D01*
X155842950Y-83785346D01*
X155825261Y-83752252D01*
X155801455Y-83723245D01*
X155772448Y-83699439D01*
X155758600Y-83692037D01*
X155758600Y-83309196D01*
X155760136Y-83293600D01*
X155754006Y-83231359D01*
X155735851Y-83171510D01*
X155706369Y-83116353D01*
X155666693Y-83068007D01*
X155654577Y-83058064D01*
X155242521Y-82646009D01*
X155242521Y-81803600D01*
X155238843Y-81766256D01*
X155227950Y-81730346D01*
X155210261Y-81697252D01*
X155186455Y-81668245D01*
X155157448Y-81644439D01*
X155124354Y-81626750D01*
X155088444Y-81615857D01*
X155051100Y-81612179D01*
X154251100Y-81612179D01*
X154213756Y-81615857D01*
X154177846Y-81626750D01*
X154144752Y-81644439D01*
X154115745Y-81668245D01*
X154091939Y-81697252D01*
X154074250Y-81730346D01*
X154063357Y-81766256D01*
X154059679Y-81803600D01*
X154059679Y-83203600D01*
X154063357Y-83240944D01*
X154074250Y-83276854D01*
X154091939Y-83309948D01*
X154115745Y-83338955D01*
X154144752Y-83362761D01*
X154177846Y-83380450D01*
X154213756Y-83391343D01*
X154251100Y-83395021D01*
X155051100Y-83395021D01*
X155088444Y-83391343D01*
X155089508Y-83391020D01*
X155123600Y-83425113D01*
X155123600Y-83692037D01*
X155116100Y-83696046D01*
X155089354Y-83681750D01*
X155053444Y-83670857D01*
X155016100Y-83667179D01*
X154566100Y-83667179D01*
X154528756Y-83670857D01*
X154492846Y-83681750D01*
X154459752Y-83699439D01*
X154430745Y-83723245D01*
X154406939Y-83752252D01*
X154389250Y-83785346D01*
X154387530Y-83791017D01*
X153242521Y-82646009D01*
X153242521Y-81803600D01*
X153238843Y-81766256D01*
X153227950Y-81730346D01*
X153210261Y-81697252D01*
X153186455Y-81668245D01*
X153157448Y-81644439D01*
X153124354Y-81626750D01*
X153088444Y-81615857D01*
X153051100Y-81612179D01*
X152251100Y-81612179D01*
X152213756Y-81615857D01*
X152177846Y-81626750D01*
X152144752Y-81644439D01*
X152115745Y-81668245D01*
X152091939Y-81697252D01*
X152074250Y-81730346D01*
X152063357Y-81766256D01*
X152059679Y-81803600D01*
X115724201Y-81803600D01*
X115724201Y-79566701D01*
X181278000Y-79566701D01*
X181277999Y-128977463D01*
G37*
%TD.AperFunction*%
D30*
X162824679Y-91608600D02*
X162828357Y-91645944D01*
X162839250Y-91681854D01*
X162856939Y-91714948D01*
X162880745Y-91743955D01*
X162909752Y-91767761D01*
X162942846Y-91785450D01*
X162978756Y-91796343D01*
X163016100Y-91800021D01*
X163466100Y-91800021D01*
X163503444Y-91796343D01*
X163539354Y-91785450D01*
X163572448Y-91767761D01*
X163601455Y-91743955D01*
X163625261Y-91714948D01*
X163642950Y-91681854D01*
X163653843Y-91645944D01*
X163657521Y-91608600D01*
X163657521Y-91101100D01*
X163741024Y-91101100D01*
X163760660Y-91148506D01*
X163831105Y-91253935D01*
X163920765Y-91343595D01*
X164026194Y-91414040D01*
X164143340Y-91462563D01*
X164267701Y-91487300D01*
X164394499Y-91487300D01*
X164518860Y-91462563D01*
X164636006Y-91414040D01*
X164741435Y-91343595D01*
X164831095Y-91253935D01*
X164901540Y-91148506D01*
X164950063Y-91031360D01*
X164974800Y-90906999D01*
X164974800Y-90780201D01*
X164950063Y-90655840D01*
X164901540Y-90538694D01*
X164831095Y-90433265D01*
X164741435Y-90343605D01*
X164636006Y-90273160D01*
X164518860Y-90224637D01*
X164394499Y-90199900D01*
X164267701Y-90199900D01*
X164143340Y-90224637D01*
X164026194Y-90273160D01*
X163920765Y-90343605D01*
X163831105Y-90433265D01*
X163809165Y-90466100D01*
X163657521Y-90466100D01*
X163657521Y-89996699D01*
X167223715Y-89996699D01*
X167347201Y-90120186D01*
X167347200Y-92833317D01*
X167345664Y-92848913D01*
X167347200Y-92864508D01*
X167351794Y-92911153D01*
X167369949Y-92971002D01*
X167399431Y-93026159D01*
X167439107Y-93074506D01*
X167451230Y-93084455D01*
X169543953Y-95177179D01*
X168473692Y-95177179D01*
X166186642Y-92890130D01*
X166176693Y-92878007D01*
X166128347Y-92838331D01*
X166073190Y-92808849D01*
X166013341Y-92790694D01*
X165966696Y-92786100D01*
X165951100Y-92784564D01*
X165935504Y-92786100D01*
X164763125Y-92786100D01*
X164701095Y-92693265D01*
X164611435Y-92603605D01*
X164506006Y-92533160D01*
X164388860Y-92484637D01*
X164264499Y-92459900D01*
X164137701Y-92459900D01*
X164013340Y-92484637D01*
X163896194Y-92533160D01*
X163790765Y-92603605D01*
X163701105Y-92693265D01*
X163630660Y-92798694D01*
X163582137Y-92915840D01*
X163557400Y-93040201D01*
X163557400Y-93166999D01*
X163582137Y-93291360D01*
X163630660Y-93408506D01*
X163701105Y-93513935D01*
X163790765Y-93603595D01*
X163896194Y-93674040D01*
X164013340Y-93722563D01*
X164137701Y-93747300D01*
X164264499Y-93747300D01*
X164388860Y-93722563D01*
X164506006Y-93674040D01*
X164611435Y-93603595D01*
X164701095Y-93513935D01*
X164763125Y-93421100D01*
X165819588Y-93421100D01*
X168149679Y-95751192D01*
X168149679Y-97018600D01*
X168153357Y-97055944D01*
X168164250Y-97091854D01*
X168181939Y-97124948D01*
X168205745Y-97153955D01*
X168234752Y-97177761D01*
X168267846Y-97195450D01*
X168303756Y-97206343D01*
X168341100Y-97210021D01*
X169741100Y-97210021D01*
X169778444Y-97206343D01*
X169814354Y-97195450D01*
X169826993Y-97188695D01*
X169618508Y-97397179D01*
X168351100Y-97397179D01*
X168313756Y-97400857D01*
X168277846Y-97411750D01*
X168244752Y-97429439D01*
X168215745Y-97453245D01*
X168191939Y-97482252D01*
X168174250Y-97515346D01*
X168163357Y-97551256D01*
X168159679Y-97588600D01*
X168159679Y-98856008D01*
X164284525Y-102731163D01*
X145887675Y-102731163D01*
X144335600Y-101179088D01*
X144335600Y-100088113D01*
X144323381Y-99964049D01*
X144275091Y-99804860D01*
X144196673Y-99658151D01*
X144091141Y-99529559D01*
X143983352Y-99441100D01*
X145029588Y-99441100D01*
X146755563Y-101167076D01*
X146765507Y-101179193D01*
X146789193Y-101198631D01*
X146813853Y-101218869D01*
X146869010Y-101248351D01*
X146928859Y-101266506D01*
X146991100Y-101272636D01*
X147006696Y-101271100D01*
X163895504Y-101271100D01*
X163911100Y-101272636D01*
X163926696Y-101271100D01*
X163973341Y-101266506D01*
X164033190Y-101248351D01*
X164088347Y-101218869D01*
X164136693Y-101179193D01*
X164146642Y-101167070D01*
X165883692Y-99430021D01*
X167151100Y-99430021D01*
X167188444Y-99426343D01*
X167224354Y-99415450D01*
X167257448Y-99397761D01*
X167286455Y-99373955D01*
X167310261Y-99344948D01*
X167327950Y-99311854D01*
X167338843Y-99275944D01*
X167342521Y-99238600D01*
X167342521Y-97588600D01*
X167338843Y-97551256D01*
X167327950Y-97515346D01*
X167310261Y-97482252D01*
X167286455Y-97453245D01*
X167257448Y-97429439D01*
X167224354Y-97411750D01*
X167188444Y-97400857D01*
X167151100Y-97397179D01*
X166768600Y-97397179D01*
X166768600Y-97210021D01*
X167141100Y-97210021D01*
X167178444Y-97206343D01*
X167214354Y-97195450D01*
X167247448Y-97177761D01*
X167276455Y-97153955D01*
X167300261Y-97124948D01*
X167317950Y-97091854D01*
X167328843Y-97055944D01*
X167332521Y-97018600D01*
X167332521Y-95368600D01*
X167328843Y-95331256D01*
X167317950Y-95295346D01*
X167300261Y-95262252D01*
X167276455Y-95233245D01*
X167247448Y-95209439D01*
X167214354Y-95191750D01*
X167178444Y-95180857D01*
X167141100Y-95177179D01*
X165741100Y-95177179D01*
X165703756Y-95180857D01*
X165667846Y-95191750D01*
X165634752Y-95209439D01*
X165605745Y-95233245D01*
X165581939Y-95262252D01*
X165564250Y-95295346D01*
X165553357Y-95331256D01*
X165549679Y-95368600D01*
X165549679Y-97018600D01*
X165553357Y-97055944D01*
X165564250Y-97091854D01*
X165581939Y-97124948D01*
X165605745Y-97153955D01*
X165634752Y-97177761D01*
X165667846Y-97195450D01*
X165703756Y-97206343D01*
X165741100Y-97210021D01*
X166133600Y-97210021D01*
X166133601Y-97397179D01*
X165751100Y-97397179D01*
X165713756Y-97400857D01*
X165677846Y-97411750D01*
X165644752Y-97429439D01*
X165615745Y-97453245D01*
X165591939Y-97482252D01*
X165574250Y-97515346D01*
X165563357Y-97551256D01*
X165559679Y-97588600D01*
X165559679Y-98856008D01*
X163779588Y-100636100D01*
X156897612Y-100636100D01*
X158732613Y-98801100D01*
X160319679Y-98801100D01*
X160319679Y-99308600D01*
X160323357Y-99345944D01*
X160334250Y-99381854D01*
X160351939Y-99414948D01*
X160375745Y-99443955D01*
X160404752Y-99467761D01*
X160437846Y-99485450D01*
X160473756Y-99496343D01*
X160511100Y-99500021D01*
X161911100Y-99500021D01*
X161948444Y-99496343D01*
X161984354Y-99485450D01*
X162017448Y-99467761D01*
X162046455Y-99443955D01*
X162070261Y-99414948D01*
X162087950Y-99381854D01*
X162098843Y-99345944D01*
X162102521Y-99308600D01*
X162102521Y-97658600D01*
X162098843Y-97621256D01*
X162087950Y-97585346D01*
X162070261Y-97552252D01*
X162046455Y-97523245D01*
X162017448Y-97499439D01*
X161984354Y-97481750D01*
X161948444Y-97470857D01*
X161911100Y-97467179D01*
X161472657Y-97467179D01*
X161484707Y-97190021D01*
X161911100Y-97190021D01*
X161948444Y-97186343D01*
X161984354Y-97175450D01*
X162017448Y-97157761D01*
X162046455Y-97133955D01*
X162070261Y-97104948D01*
X162087950Y-97071854D01*
X162098843Y-97035944D01*
X162102521Y-96998600D01*
X162102521Y-95348600D01*
X162098843Y-95311256D01*
X162087950Y-95275346D01*
X162070261Y-95242252D01*
X162046455Y-95213245D01*
X162017448Y-95189439D01*
X161984354Y-95171750D01*
X161948444Y-95160857D01*
X161911100Y-95157179D01*
X160570945Y-95157179D01*
X160578818Y-95117599D01*
X160578818Y-94990801D01*
X160572106Y-94957056D01*
X160609165Y-94987469D01*
X160627468Y-94997252D01*
X160664322Y-95016951D01*
X160724171Y-95035106D01*
X160786412Y-95041236D01*
X160802008Y-95039700D01*
X162134338Y-95039700D01*
X162919679Y-95774420D01*
X162919679Y-96998600D01*
X162923357Y-97035944D01*
X162934250Y-97071854D01*
X162951939Y-97104948D01*
X162975745Y-97133955D01*
X163004752Y-97157761D01*
X163037846Y-97175450D01*
X163073756Y-97186343D01*
X163111100Y-97190021D01*
X164511100Y-97190021D01*
X164548444Y-97186343D01*
X164584354Y-97175450D01*
X164617448Y-97157761D01*
X164646455Y-97133955D01*
X164670261Y-97104948D01*
X164687950Y-97071854D01*
X164698843Y-97035944D01*
X164702521Y-96998600D01*
X164702521Y-95348600D01*
X164698843Y-95311256D01*
X164687950Y-95275346D01*
X164670261Y-95242252D01*
X164646455Y-95213245D01*
X164617448Y-95189439D01*
X164584354Y-95171750D01*
X164548444Y-95160857D01*
X164511100Y-95157179D01*
X163189387Y-95157179D01*
X162491877Y-94504630D01*
X162485293Y-94496607D01*
X162469074Y-94483297D01*
X162465220Y-94479691D01*
X162457057Y-94473435D01*
X162436947Y-94456931D01*
X162432244Y-94454417D01*
X162428019Y-94451179D01*
X162404726Y-94439708D01*
X162381790Y-94427449D01*
X162376688Y-94425901D01*
X162371911Y-94423549D01*
X162346822Y-94416842D01*
X162321941Y-94409294D01*
X162316636Y-94408772D01*
X162311491Y-94407396D01*
X162285568Y-94405712D01*
X162275296Y-94404700D01*
X162269998Y-94404700D01*
X162249082Y-94403341D01*
X162238804Y-94404700D01*
X160930000Y-94404700D01*
X160930000Y-93652500D01*
X161657394Y-93652500D01*
X161672987Y-93654036D01*
X161688583Y-93652500D01*
X161735228Y-93647906D01*
X161795077Y-93629751D01*
X161850234Y-93600269D01*
X161898580Y-93560593D01*
X161908532Y-93548466D01*
X162183175Y-93273826D01*
X162195293Y-93263881D01*
X162234969Y-93215535D01*
X162259604Y-93169446D01*
X162264451Y-93160379D01*
X162282606Y-93100530D01*
X162288736Y-93038289D01*
X162287200Y-93022693D01*
X162287200Y-91755654D01*
X162301455Y-91743955D01*
X162325261Y-91714948D01*
X162342950Y-91681854D01*
X162353843Y-91645944D01*
X162357521Y-91608600D01*
X162357521Y-89996699D01*
X162824679Y-89996699D01*
X162824679Y-91608600D01*
%TA.AperFunction,Conductor*%
D31*
G36*
X162824679Y-91608600D02*
G01*
X162828357Y-91645944D01*
X162839250Y-91681854D01*
X162856939Y-91714948D01*
X162880745Y-91743955D01*
X162909752Y-91767761D01*
X162942846Y-91785450D01*
X162978756Y-91796343D01*
X163016100Y-91800021D01*
X163466100Y-91800021D01*
X163503444Y-91796343D01*
X163539354Y-91785450D01*
X163572448Y-91767761D01*
X163601455Y-91743955D01*
X163625261Y-91714948D01*
X163642950Y-91681854D01*
X163653843Y-91645944D01*
X163657521Y-91608600D01*
X163657521Y-91101100D01*
X163741024Y-91101100D01*
X163760660Y-91148506D01*
X163831105Y-91253935D01*
X163920765Y-91343595D01*
X164026194Y-91414040D01*
X164143340Y-91462563D01*
X164267701Y-91487300D01*
X164394499Y-91487300D01*
X164518860Y-91462563D01*
X164636006Y-91414040D01*
X164741435Y-91343595D01*
X164831095Y-91253935D01*
X164901540Y-91148506D01*
X164950063Y-91031360D01*
X164974800Y-90906999D01*
X164974800Y-90780201D01*
X164950063Y-90655840D01*
X164901540Y-90538694D01*
X164831095Y-90433265D01*
X164741435Y-90343605D01*
X164636006Y-90273160D01*
X164518860Y-90224637D01*
X164394499Y-90199900D01*
X164267701Y-90199900D01*
X164143340Y-90224637D01*
X164026194Y-90273160D01*
X163920765Y-90343605D01*
X163831105Y-90433265D01*
X163809165Y-90466100D01*
X163657521Y-90466100D01*
X163657521Y-89996699D01*
X167223715Y-89996699D01*
X167347201Y-90120186D01*
X167347200Y-92833317D01*
X167345664Y-92848913D01*
X167347200Y-92864508D01*
X167351794Y-92911153D01*
X167369949Y-92971002D01*
X167399431Y-93026159D01*
X167439107Y-93074506D01*
X167451230Y-93084455D01*
X169543953Y-95177179D01*
X168473692Y-95177179D01*
X166186642Y-92890130D01*
X166176693Y-92878007D01*
X166128347Y-92838331D01*
X166073190Y-92808849D01*
X166013341Y-92790694D01*
X165966696Y-92786100D01*
X165951100Y-92784564D01*
X165935504Y-92786100D01*
X164763125Y-92786100D01*
X164701095Y-92693265D01*
X164611435Y-92603605D01*
X164506006Y-92533160D01*
X164388860Y-92484637D01*
X164264499Y-92459900D01*
X164137701Y-92459900D01*
X164013340Y-92484637D01*
X163896194Y-92533160D01*
X163790765Y-92603605D01*
X163701105Y-92693265D01*
X163630660Y-92798694D01*
X163582137Y-92915840D01*
X163557400Y-93040201D01*
X163557400Y-93166999D01*
X163582137Y-93291360D01*
X163630660Y-93408506D01*
X163701105Y-93513935D01*
X163790765Y-93603595D01*
X163896194Y-93674040D01*
X164013340Y-93722563D01*
X164137701Y-93747300D01*
X164264499Y-93747300D01*
X164388860Y-93722563D01*
X164506006Y-93674040D01*
X164611435Y-93603595D01*
X164701095Y-93513935D01*
X164763125Y-93421100D01*
X165819588Y-93421100D01*
X168149679Y-95751192D01*
X168149679Y-97018600D01*
X168153357Y-97055944D01*
X168164250Y-97091854D01*
X168181939Y-97124948D01*
X168205745Y-97153955D01*
X168234752Y-97177761D01*
X168267846Y-97195450D01*
X168303756Y-97206343D01*
X168341100Y-97210021D01*
X169741100Y-97210021D01*
X169778444Y-97206343D01*
X169814354Y-97195450D01*
X169826993Y-97188695D01*
X169618508Y-97397179D01*
X168351100Y-97397179D01*
X168313756Y-97400857D01*
X168277846Y-97411750D01*
X168244752Y-97429439D01*
X168215745Y-97453245D01*
X168191939Y-97482252D01*
X168174250Y-97515346D01*
X168163357Y-97551256D01*
X168159679Y-97588600D01*
X168159679Y-98856008D01*
X164284525Y-102731163D01*
X145887675Y-102731163D01*
X144335600Y-101179088D01*
X144335600Y-100088113D01*
X144323381Y-99964049D01*
X144275091Y-99804860D01*
X144196673Y-99658151D01*
X144091141Y-99529559D01*
X143983352Y-99441100D01*
X145029588Y-99441100D01*
X146755563Y-101167076D01*
X146765507Y-101179193D01*
X146789193Y-101198631D01*
X146813853Y-101218869D01*
X146869010Y-101248351D01*
X146928859Y-101266506D01*
X146991100Y-101272636D01*
X147006696Y-101271100D01*
X163895504Y-101271100D01*
X163911100Y-101272636D01*
X163926696Y-101271100D01*
X163973341Y-101266506D01*
X164033190Y-101248351D01*
X164088347Y-101218869D01*
X164136693Y-101179193D01*
X164146642Y-101167070D01*
X165883692Y-99430021D01*
X167151100Y-99430021D01*
X167188444Y-99426343D01*
X167224354Y-99415450D01*
X167257448Y-99397761D01*
X167286455Y-99373955D01*
X167310261Y-99344948D01*
X167327950Y-99311854D01*
X167338843Y-99275944D01*
X167342521Y-99238600D01*
X167342521Y-97588600D01*
X167338843Y-97551256D01*
X167327950Y-97515346D01*
X167310261Y-97482252D01*
X167286455Y-97453245D01*
X167257448Y-97429439D01*
X167224354Y-97411750D01*
X167188444Y-97400857D01*
X167151100Y-97397179D01*
X166768600Y-97397179D01*
X166768600Y-97210021D01*
X167141100Y-97210021D01*
X167178444Y-97206343D01*
X167214354Y-97195450D01*
X167247448Y-97177761D01*
X167276455Y-97153955D01*
X167300261Y-97124948D01*
X167317950Y-97091854D01*
X167328843Y-97055944D01*
X167332521Y-97018600D01*
X167332521Y-95368600D01*
X167328843Y-95331256D01*
X167317950Y-95295346D01*
X167300261Y-95262252D01*
X167276455Y-95233245D01*
X167247448Y-95209439D01*
X167214354Y-95191750D01*
X167178444Y-95180857D01*
X167141100Y-95177179D01*
X165741100Y-95177179D01*
X165703756Y-95180857D01*
X165667846Y-95191750D01*
X165634752Y-95209439D01*
X165605745Y-95233245D01*
X165581939Y-95262252D01*
X165564250Y-95295346D01*
X165553357Y-95331256D01*
X165549679Y-95368600D01*
X165549679Y-97018600D01*
X165553357Y-97055944D01*
X165564250Y-97091854D01*
X165581939Y-97124948D01*
X165605745Y-97153955D01*
X165634752Y-97177761D01*
X165667846Y-97195450D01*
X165703756Y-97206343D01*
X165741100Y-97210021D01*
X166133600Y-97210021D01*
X166133601Y-97397179D01*
X165751100Y-97397179D01*
X165713756Y-97400857D01*
X165677846Y-97411750D01*
X165644752Y-97429439D01*
X165615745Y-97453245D01*
X165591939Y-97482252D01*
X165574250Y-97515346D01*
X165563357Y-97551256D01*
X165559679Y-97588600D01*
X165559679Y-98856008D01*
X163779588Y-100636100D01*
X156897612Y-100636100D01*
X158732613Y-98801100D01*
X160319679Y-98801100D01*
X160319679Y-99308600D01*
X160323357Y-99345944D01*
X160334250Y-99381854D01*
X160351939Y-99414948D01*
X160375745Y-99443955D01*
X160404752Y-99467761D01*
X160437846Y-99485450D01*
X160473756Y-99496343D01*
X160511100Y-99500021D01*
X161911100Y-99500021D01*
X161948444Y-99496343D01*
X161984354Y-99485450D01*
X162017448Y-99467761D01*
X162046455Y-99443955D01*
X162070261Y-99414948D01*
X162087950Y-99381854D01*
X162098843Y-99345944D01*
X162102521Y-99308600D01*
X162102521Y-97658600D01*
X162098843Y-97621256D01*
X162087950Y-97585346D01*
X162070261Y-97552252D01*
X162046455Y-97523245D01*
X162017448Y-97499439D01*
X161984354Y-97481750D01*
X161948444Y-97470857D01*
X161911100Y-97467179D01*
X161472657Y-97467179D01*
X161484707Y-97190021D01*
X161911100Y-97190021D01*
X161948444Y-97186343D01*
X161984354Y-97175450D01*
X162017448Y-97157761D01*
X162046455Y-97133955D01*
X162070261Y-97104948D01*
X162087950Y-97071854D01*
X162098843Y-97035944D01*
X162102521Y-96998600D01*
X162102521Y-95348600D01*
X162098843Y-95311256D01*
X162087950Y-95275346D01*
X162070261Y-95242252D01*
X162046455Y-95213245D01*
X162017448Y-95189439D01*
X161984354Y-95171750D01*
X161948444Y-95160857D01*
X161911100Y-95157179D01*
X160570945Y-95157179D01*
X160578818Y-95117599D01*
X160578818Y-94990801D01*
X160572106Y-94957056D01*
X160609165Y-94987469D01*
X160627468Y-94997252D01*
X160664322Y-95016951D01*
X160724171Y-95035106D01*
X160786412Y-95041236D01*
X160802008Y-95039700D01*
X162134338Y-95039700D01*
X162919679Y-95774420D01*
X162919679Y-96998600D01*
X162923357Y-97035944D01*
X162934250Y-97071854D01*
X162951939Y-97104948D01*
X162975745Y-97133955D01*
X163004752Y-97157761D01*
X163037846Y-97175450D01*
X163073756Y-97186343D01*
X163111100Y-97190021D01*
X164511100Y-97190021D01*
X164548444Y-97186343D01*
X164584354Y-97175450D01*
X164617448Y-97157761D01*
X164646455Y-97133955D01*
X164670261Y-97104948D01*
X164687950Y-97071854D01*
X164698843Y-97035944D01*
X164702521Y-96998600D01*
X164702521Y-95348600D01*
X164698843Y-95311256D01*
X164687950Y-95275346D01*
X164670261Y-95242252D01*
X164646455Y-95213245D01*
X164617448Y-95189439D01*
X164584354Y-95171750D01*
X164548444Y-95160857D01*
X164511100Y-95157179D01*
X163189387Y-95157179D01*
X162491877Y-94504630D01*
X162485293Y-94496607D01*
X162469074Y-94483297D01*
X162465220Y-94479691D01*
X162457057Y-94473435D01*
X162436947Y-94456931D01*
X162432244Y-94454417D01*
X162428019Y-94451179D01*
X162404726Y-94439708D01*
X162381790Y-94427449D01*
X162376688Y-94425901D01*
X162371911Y-94423549D01*
X162346822Y-94416842D01*
X162321941Y-94409294D01*
X162316636Y-94408772D01*
X162311491Y-94407396D01*
X162285568Y-94405712D01*
X162275296Y-94404700D01*
X162269998Y-94404700D01*
X162249082Y-94403341D01*
X162238804Y-94404700D01*
X160930000Y-94404700D01*
X160930000Y-93652500D01*
X161657394Y-93652500D01*
X161672987Y-93654036D01*
X161688583Y-93652500D01*
X161735228Y-93647906D01*
X161795077Y-93629751D01*
X161850234Y-93600269D01*
X161898580Y-93560593D01*
X161908532Y-93548466D01*
X162183175Y-93273826D01*
X162195293Y-93263881D01*
X162234969Y-93215535D01*
X162259604Y-93169446D01*
X162264451Y-93160379D01*
X162282606Y-93100530D01*
X162288736Y-93038289D01*
X162287200Y-93022693D01*
X162287200Y-91755654D01*
X162301455Y-91743955D01*
X162325261Y-91714948D01*
X162342950Y-91681854D01*
X162353843Y-91645944D01*
X162357521Y-91608600D01*
X162357521Y-89996699D01*
X162824679Y-89996699D01*
X162824679Y-91608600D01*
G37*
%TD.AperFunction*%
D30*
X170373601Y-89165114D02*
X170373600Y-93938004D01*
X170372064Y-93953600D01*
X170373600Y-93969195D01*
X170378194Y-94015840D01*
X170396349Y-94075689D01*
X170425831Y-94130846D01*
X170465507Y-94179193D01*
X170477630Y-94189142D01*
X172323601Y-96035114D01*
X172323600Y-98291033D01*
X172241079Y-98325214D01*
X172102763Y-98417634D01*
X172008600Y-98511797D01*
X172008600Y-96079196D01*
X172010136Y-96063600D01*
X172004006Y-96001359D01*
X171985851Y-95941510D01*
X171956369Y-95886353D01*
X171945132Y-95872661D01*
X171916693Y-95838007D01*
X171904577Y-95828064D01*
X169948600Y-93872088D01*
X169948600Y-92545021D01*
X169971100Y-92545021D01*
X170008444Y-92541343D01*
X170044354Y-92530450D01*
X170077448Y-92512761D01*
X170106455Y-92488955D01*
X170130261Y-92459948D01*
X170147950Y-92426854D01*
X170158843Y-92390944D01*
X170162521Y-92353600D01*
X170162521Y-91153600D01*
X170158843Y-91116256D01*
X170147950Y-91080346D01*
X170130261Y-91047252D01*
X170106455Y-91018245D01*
X170077448Y-90994439D01*
X170044354Y-90976750D01*
X170008444Y-90965857D01*
X169971100Y-90962179D01*
X169171100Y-90962179D01*
X169133756Y-90965857D01*
X169097846Y-90976750D01*
X169064752Y-90994439D01*
X169035745Y-91018245D01*
X169011939Y-91047252D01*
X168994250Y-91080346D01*
X168983357Y-91116256D01*
X168979679Y-91153600D01*
X168979679Y-92353600D01*
X168983357Y-92390944D01*
X168994250Y-92426854D01*
X169011939Y-92459948D01*
X169035745Y-92488955D01*
X169064752Y-92512761D01*
X169097846Y-92530450D01*
X169133756Y-92541343D01*
X169171100Y-92545021D01*
X169313600Y-92545021D01*
X169313601Y-93987994D01*
X169312064Y-94003600D01*
X169316834Y-94052035D01*
X167982200Y-92717401D01*
X167982200Y-89903317D01*
X167977606Y-89856672D01*
X167959451Y-89796823D01*
X167929969Y-89741666D01*
X167890293Y-89693320D01*
X167841947Y-89653644D01*
X167786790Y-89624162D01*
X167726941Y-89606007D01*
X167725222Y-89605838D01*
X167710484Y-89591100D01*
X167965504Y-89591100D01*
X167981100Y-89592636D01*
X167996696Y-89591100D01*
X168043341Y-89586506D01*
X168103190Y-89568351D01*
X168158347Y-89538869D01*
X168206693Y-89499193D01*
X168216642Y-89487070D01*
X168862613Y-88841100D01*
X170049588Y-88841100D01*
X170373601Y-89165114D01*
%TA.AperFunction,Conductor*%
D31*
G36*
X170373601Y-89165114D02*
G01*
X170373600Y-93938004D01*
X170372064Y-93953600D01*
X170373600Y-93969195D01*
X170378194Y-94015840D01*
X170396349Y-94075689D01*
X170425831Y-94130846D01*
X170465507Y-94179193D01*
X170477630Y-94189142D01*
X172323601Y-96035114D01*
X172323600Y-98291033D01*
X172241079Y-98325214D01*
X172102763Y-98417634D01*
X172008600Y-98511797D01*
X172008600Y-96079196D01*
X172010136Y-96063600D01*
X172004006Y-96001359D01*
X171985851Y-95941510D01*
X171956369Y-95886353D01*
X171945132Y-95872661D01*
X171916693Y-95838007D01*
X171904577Y-95828064D01*
X169948600Y-93872088D01*
X169948600Y-92545021D01*
X169971100Y-92545021D01*
X170008444Y-92541343D01*
X170044354Y-92530450D01*
X170077448Y-92512761D01*
X170106455Y-92488955D01*
X170130261Y-92459948D01*
X170147950Y-92426854D01*
X170158843Y-92390944D01*
X170162521Y-92353600D01*
X170162521Y-91153600D01*
X170158843Y-91116256D01*
X170147950Y-91080346D01*
X170130261Y-91047252D01*
X170106455Y-91018245D01*
X170077448Y-90994439D01*
X170044354Y-90976750D01*
X170008444Y-90965857D01*
X169971100Y-90962179D01*
X169171100Y-90962179D01*
X169133756Y-90965857D01*
X169097846Y-90976750D01*
X169064752Y-90994439D01*
X169035745Y-91018245D01*
X169011939Y-91047252D01*
X168994250Y-91080346D01*
X168983357Y-91116256D01*
X168979679Y-91153600D01*
X168979679Y-92353600D01*
X168983357Y-92390944D01*
X168994250Y-92426854D01*
X169011939Y-92459948D01*
X169035745Y-92488955D01*
X169064752Y-92512761D01*
X169097846Y-92530450D01*
X169133756Y-92541343D01*
X169171100Y-92545021D01*
X169313600Y-92545021D01*
X169313601Y-93987994D01*
X169312064Y-94003600D01*
X169316834Y-94052035D01*
X167982200Y-92717401D01*
X167982200Y-89903317D01*
X167977606Y-89856672D01*
X167959451Y-89796823D01*
X167929969Y-89741666D01*
X167890293Y-89693320D01*
X167841947Y-89653644D01*
X167786790Y-89624162D01*
X167726941Y-89606007D01*
X167725222Y-89605838D01*
X167710484Y-89591100D01*
X167965504Y-89591100D01*
X167981100Y-89592636D01*
X167996696Y-89591100D01*
X168043341Y-89586506D01*
X168103190Y-89568351D01*
X168158347Y-89538869D01*
X168206693Y-89499193D01*
X168216642Y-89487070D01*
X168862613Y-88841100D01*
X170049588Y-88841100D01*
X170373601Y-89165114D01*
G37*
%TD.AperFunction*%
%TD*%
D30*
%TO.N,/SB*%
X147199200Y-123361700D02*
X147088480Y-123361700D01*
X147067448Y-123344439D01*
X147034354Y-123326750D01*
X146998444Y-123315857D01*
X146961100Y-123312179D01*
X144961100Y-123312179D01*
X144923756Y-123315857D01*
X144887846Y-123326750D01*
X144854752Y-123344439D01*
X144833720Y-123361700D01*
X144787300Y-123361700D01*
X144779867Y-123362432D01*
X144772720Y-123364600D01*
X144766133Y-123368121D01*
X144760359Y-123372859D01*
X144755621Y-123378633D01*
X144752100Y-123385220D01*
X144749932Y-123392367D01*
X144749200Y-123399800D01*
X144749200Y-130440499D01*
X132033000Y-130440499D01*
X132033000Y-106115500D01*
X147199200Y-106115500D01*
X147199200Y-123361700D01*
%TA.AperFunction,Conductor*%
D31*
G36*
X147199200Y-123361700D02*
G01*
X147088480Y-123361700D01*
X147067448Y-123344439D01*
X147034354Y-123326750D01*
X146998444Y-123315857D01*
X146961100Y-123312179D01*
X144961100Y-123312179D01*
X144923756Y-123315857D01*
X144887846Y-123326750D01*
X144854752Y-123344439D01*
X144833720Y-123361700D01*
X144787300Y-123361700D01*
X144779867Y-123362432D01*
X144772720Y-123364600D01*
X144766133Y-123368121D01*
X144760359Y-123372859D01*
X144755621Y-123378633D01*
X144752100Y-123385220D01*
X144749932Y-123392367D01*
X144749200Y-123399800D01*
X144749200Y-130440499D01*
X132033000Y-130440499D01*
X132033000Y-106115500D01*
X147199200Y-106115500D01*
X147199200Y-123361700D01*
G37*
%TD.AperFunction*%
%TD*%
D30*
%TO.N,/SA*%
X131799200Y-130440499D02*
X117187237Y-130440499D01*
X115724201Y-128977464D01*
X115724201Y-106115500D01*
X131799200Y-106115500D01*
X131799200Y-130440499D01*
%TA.AperFunction,Conductor*%
D31*
G36*
X131799200Y-130440499D02*
G01*
X117187237Y-130440499D01*
X115724201Y-128977464D01*
X115724201Y-106115500D01*
X131799200Y-106115500D01*
X131799200Y-130440499D01*
G37*
%TD.AperFunction*%
%TD*%
M02*
