%TF.GenerationSoftware,KiCad,Pcbnew,(5.1.10)-1*%
%TF.CreationDate,2022-06-25T13:40:01+09:00*%
%TF.ProjectId,DriveUnit_B-series(ver1.0),44726976-6555-46e6-9974-5f422d736572,rev?*%
%TF.SameCoordinates,Original*%
%TF.FileFunction,Paste,Bot*%
%TF.FilePolarity,Positive*%
%FSLAX46Y46*%
G04 Gerber Fmt 4.6, Leading zero omitted, Abs format (unit mm)*
G04 Created by KiCad (PCBNEW (5.1.10)-1) date 2022-06-25 13:40:01*
%MOMM*%
%LPD*%
G01*
G04 APERTURE LIST*
%ADD10R,0.450000X1.650000*%
%ADD11R,1.650000X1.400000*%
%ADD12R,1.400000X1.650000*%
%ADD13R,0.780000X1.220000*%
%ADD14R,0.800000X1.200000*%
%ADD15R,0.700000X0.800000*%
%ADD16R,1.700000X1.200000*%
%ADD17R,0.800000X1.400000*%
%ADD18R,1.200000X2.300000*%
%ADD19R,2.000000X5.300000*%
G04 APERTURE END LIST*
D10*
%TO.C,IC1*%
X163241100Y-84683600D03*
X162591100Y-84683600D03*
X161941100Y-84683600D03*
X161291100Y-84683600D03*
X160641100Y-84683600D03*
X159991100Y-84683600D03*
X159341100Y-84683600D03*
X158691100Y-84683600D03*
X158041100Y-84683600D03*
X157391100Y-84683600D03*
X156741100Y-84683600D03*
X156091100Y-84683600D03*
X155441100Y-84683600D03*
X154791100Y-84683600D03*
X154791100Y-90783600D03*
X155441100Y-90783600D03*
X156091100Y-90783600D03*
X156741100Y-90783600D03*
X157391100Y-90783600D03*
X158041100Y-90783600D03*
X158691100Y-90783600D03*
X159341100Y-90783600D03*
X159991100Y-90783600D03*
X160641100Y-90783600D03*
X161291100Y-90783600D03*
X161941100Y-90783600D03*
X163241100Y-90783600D03*
X162591100Y-90783600D03*
%TD*%
D11*
%TO.C,R15*%
X151941100Y-95103600D03*
X151941100Y-97703600D03*
%TD*%
%TO.C,R16*%
X149371100Y-95043600D03*
X149371100Y-97643600D03*
%TD*%
D12*
%TO.C,R18*%
X161211100Y-98483600D03*
X163811100Y-98483600D03*
%TD*%
%TO.C,R19*%
X166451100Y-98413600D03*
X169051100Y-98413600D03*
%TD*%
%TO.C,R1*%
X176891100Y-82303600D03*
X179491100Y-82303600D03*
%TD*%
%TO.C,R9*%
X170701100Y-82303600D03*
X173301100Y-82303600D03*
%TD*%
%TO.C,R10*%
X161211100Y-96173600D03*
X163811100Y-96173600D03*
%TD*%
%TO.C,R12*%
X166441100Y-96193600D03*
X169041100Y-96193600D03*
%TD*%
D11*
%TO.C,R20*%
X151951100Y-90883600D03*
X151951100Y-93483600D03*
%TD*%
%TO.C,R21*%
X149381100Y-90883600D03*
X149381100Y-93483600D03*
%TD*%
D12*
%TO.C,R13*%
X156541100Y-82503600D03*
X159141100Y-82503600D03*
%TD*%
D11*
%TO.C,R2*%
X166491100Y-90763600D03*
X166491100Y-88163600D03*
%TD*%
%TO.C,R14*%
X166491100Y-86283600D03*
X166491100Y-83683600D03*
%TD*%
D13*
%TO.C,D1*%
X158921100Y-95713600D03*
X155441100Y-95713600D03*
%TD*%
D14*
%TO.C,TLP1*%
X176891100Y-85653600D03*
X175621100Y-85653600D03*
X175621100Y-91953600D03*
X178161100Y-85653600D03*
X178161100Y-91953600D03*
%TD*%
%TO.C,TLP2*%
X170841100Y-85453600D03*
X169571100Y-85453600D03*
X169571100Y-91753600D03*
X172111100Y-85453600D03*
X172111100Y-91753600D03*
%TD*%
D15*
%TO.C,C1*%
X177591100Y-83783600D03*
X176191100Y-83783600D03*
%TD*%
%TO.C,C2*%
X171551100Y-83803600D03*
X170151100Y-83803600D03*
%TD*%
%TO.C,C3*%
X157831100Y-81003600D03*
X156431100Y-81003600D03*
%TD*%
%TO.C,C4*%
X159891100Y-94033600D03*
X161291100Y-94033600D03*
%TD*%
%TO.C,C5*%
X155431100Y-93503600D03*
X154031100Y-93503600D03*
%TD*%
%TO.C,C7*%
X161301100Y-92503600D03*
X159901100Y-92503600D03*
%TD*%
%TO.C,C8*%
X156671100Y-92503600D03*
X158071100Y-92503600D03*
%TD*%
D16*
%TO.C,C9*%
X151631100Y-85063600D03*
X151631100Y-88163600D03*
%TD*%
D17*
%TO.C,C6*%
X154651100Y-82503600D03*
X152651100Y-82503600D03*
%TD*%
%TO.C,C13*%
X161851100Y-109773600D03*
X159851100Y-109773600D03*
%TD*%
D18*
%TO.C,C12*%
X162601100Y-112793600D03*
X159201100Y-112793600D03*
%TD*%
D19*
%TO.C,EDGE1*%
X118021100Y-126153600D03*
X120561100Y-126153600D03*
X123101100Y-126153600D03*
X125641100Y-126153600D03*
X128181100Y-126153600D03*
X130721100Y-126153600D03*
X133261100Y-126153600D03*
X135801100Y-126153600D03*
X138341100Y-126153600D03*
X140881100Y-126153600D03*
X143421100Y-126153600D03*
X145961100Y-126153600D03*
X148501100Y-126153600D03*
X151041100Y-126153600D03*
X153581100Y-126153600D03*
X156121100Y-126153600D03*
X158661100Y-126153600D03*
X161201100Y-126153600D03*
X163741100Y-126153600D03*
X166281100Y-126153600D03*
X168821100Y-126153600D03*
X171361100Y-126153600D03*
X173901100Y-126153600D03*
X176441100Y-126153600D03*
X178981100Y-126153600D03*
%TD*%
M02*
