M48
; DRILL file {KiCad (5.1.10)-1} date 07/06/22 07:53:38
; FORMAT={-:-/ absolute / inch / decimal}
; #@! TF.CreationDate,2022-07-06T07:53:38+09:00
; #@! TF.GenerationSoftware,Kicad,Pcbnew,(5.1.10)-1
FMAT,2
INCH
T1C0.0138
T2C0.0193
T3C0.0197
T4C0.0315
%
G90
G05
T1
X4.6087Y-4.7793
X4.6087Y-4.8415
X4.6209Y-4.3155
X4.6209Y-4.3513
X4.6209Y-4.3871
X4.6209Y-4.423
X4.6209Y-4.4588
X4.6209Y-4.4946
X4.6209Y-4.5305
X4.6209Y-4.5663
X4.6209Y-4.6021
X4.6209Y-4.6379
X4.6209Y-4.6738
X4.6209Y-4.7096
X4.6209Y-4.7454
X4.6266Y-4.8104
X4.6445Y-4.7793
X4.6445Y-4.8415
X4.6624Y-4.8104
X4.6804Y-4.7793
X4.6804Y-4.8415
X4.6983Y-4.8104
X4.7162Y-4.7793
X4.7162Y-4.8415
X4.7341Y-4.8104
X4.752Y-4.7793
X4.752Y-4.8415
X4.7699Y-4.8104
X4.7878Y-4.7793
X4.7878Y-4.8415
X4.8058Y-4.8104
X4.8237Y-4.7793
X4.8237Y-4.8415
X4.8416Y-4.8104
X4.8595Y-4.7793
X4.8595Y-4.8415
X4.8774Y-4.8104
X4.8953Y-4.7793
X4.8953Y-4.8415
X4.9132Y-4.8104
X4.9311Y-4.7793
X4.9311Y-4.8415
X4.9491Y-4.8104
X4.967Y-4.7793
X4.967Y-4.8415
X4.9849Y-4.8104
X5.0028Y-4.7793
X5.0028Y-4.8415
X5.0207Y-4.8104
X5.0386Y-4.7793
X5.0386Y-4.8415
X5.0565Y-4.8104
X5.0745Y-4.7793
X5.0745Y-4.8415
X5.0924Y-4.8104
X5.1103Y-4.7793
X5.1104Y-4.8408
X5.1282Y-4.8104
X5.1461Y-4.7793
X5.1466Y-4.839
X5.1626Y-4.3155
X5.1626Y-4.3513
X5.1626Y-4.3871
X5.1626Y-4.423
X5.1626Y-4.4588
X5.1626Y-4.4946
X5.1626Y-4.5305
X5.1626Y-4.5663
X5.1626Y-4.6021
X5.1626Y-4.6379
X5.1626Y-4.6738
X5.1626Y-4.7096
X5.1626Y-4.7454
X5.164Y-4.8104
X5.2178Y-4.7793
X5.2178Y-4.8415
X5.2357Y-4.8104
X5.2536Y-4.7793
X5.2536Y-4.8415
X5.2715Y-4.8104
X5.2894Y-4.7793
X5.2894Y-4.8415
X5.3073Y-4.8104
X5.3252Y-4.7793
X5.3252Y-4.8415
X5.3432Y-4.8104
X5.3611Y-4.7793
X5.3611Y-4.8415
X5.379Y-4.8104
X5.3969Y-4.7793
X5.3969Y-4.8415
X5.4148Y-4.8104
X5.4327Y-4.7793
X5.4327Y-4.8415
X5.4506Y-4.8104
X5.4685Y-4.7793
X5.4685Y-4.8415
X5.4865Y-4.8104
X5.5044Y-4.7793
X5.5044Y-4.8415
X5.5223Y-4.8104
X5.5402Y-4.7793
X5.5402Y-4.8415
X5.5581Y-4.8104
X5.576Y-4.7793
X5.576Y-4.8415
X5.5939Y-4.8104
X5.6119Y-4.7793
X5.6119Y-4.8415
X5.6298Y-4.8104
X5.6477Y-4.7793
X5.6477Y-4.8415
X5.6656Y-4.8104
X5.6835Y-4.7793
X5.6835Y-4.8415
X5.7014Y-4.8104
X5.7193Y-4.7793
X5.721Y-4.8394
X5.7359Y-4.3155
X5.7359Y-4.3513
X5.7359Y-4.3871
X5.7359Y-4.423
X5.7359Y-4.4588
X5.7359Y-4.4946
X5.7359Y-4.5305
X5.7359Y-4.5663
X5.7359Y-4.6021
X5.7359Y-4.6379
X5.7359Y-4.6738
X5.7359Y-4.7096
X5.7359Y-4.7454
X5.7372Y-4.8104
X5.7552Y-4.7793
X5.7566Y-4.8406
X5.7717Y-4.3155
X5.7717Y-4.3513
X5.7717Y-4.3871
X5.7717Y-4.423
X5.7717Y-4.4588
X5.7717Y-4.4946
X5.7717Y-4.5305
X5.7717Y-4.5663
X5.7717Y-4.6021
X5.7717Y-4.6379
X5.7717Y-4.6738
X5.7717Y-4.7096
X5.7717Y-4.7454
X5.7731Y-4.8104
X5.8326Y-4.4446
X5.8326Y-4.4804
X5.8326Y-4.5163
X5.8326Y-4.5521
X5.8326Y-4.5879
X5.8326Y-4.6237
X5.8326Y-4.6596
X5.8326Y-4.6954
X5.8326Y-4.7312
X5.8326Y-4.767
X5.8326Y-4.8029
X5.8326Y-4.8387
X5.8684Y-4.4446
X5.8684Y-4.4804
X5.8684Y-4.5163
X5.8684Y-4.5521
X5.8684Y-4.5879
X5.8684Y-4.6237
X5.8684Y-4.6596
X5.8684Y-4.6954
X5.8684Y-4.7312
X5.8684Y-4.767
X5.8684Y-4.8029
X5.8684Y-4.8387
X5.9042Y-4.4446
X5.9042Y-4.4804
X5.9042Y-4.5163
X5.9042Y-4.5521
X5.9042Y-4.5879
X5.9042Y-4.6237
X5.9042Y-4.6596
X5.9042Y-4.6954
X5.9042Y-4.7312
X5.9042Y-4.767
X5.9042Y-4.8029
X5.9042Y-4.8387
X5.94Y-4.4446
X5.94Y-4.4804
X5.94Y-4.5163
X5.94Y-4.5521
X5.94Y-4.5879
X5.94Y-4.6237
X5.94Y-4.6596
X5.94Y-4.6954
X5.94Y-4.7312
X5.94Y-4.767
X5.94Y-4.8029
X5.94Y-4.8387
X5.9759Y-4.4446
X5.9759Y-4.4804
X5.9759Y-4.5163
X5.9759Y-4.5521
X5.9759Y-4.5879
X5.9759Y-4.6237
X5.9759Y-4.6596
X5.9759Y-4.6954
X5.9759Y-4.7312
X5.9759Y-4.767
X5.9759Y-4.8029
X5.9759Y-4.8387
X6.0117Y-4.4446
X6.0117Y-4.4804
X6.0117Y-4.5163
X6.0117Y-4.5521
X6.0117Y-4.5879
X6.0117Y-4.6237
X6.0117Y-4.6596
X6.0117Y-4.6954
X6.0117Y-4.7312
X6.0117Y-4.767
X6.0117Y-4.8029
X6.0117Y-4.8387
X6.0475Y-4.4804
X6.0475Y-4.5163
X6.0475Y-4.5521
X6.0475Y-4.5879
X6.0475Y-4.6237
X6.0475Y-4.6596
X6.0475Y-4.6954
X6.0475Y-4.7312
X6.0475Y-4.767
X6.0475Y-4.8029
X6.0475Y-4.8387
X6.0833Y-4.5163
X6.0833Y-4.5521
X6.0833Y-4.5879
X6.0833Y-4.6237
X6.0833Y-4.6596
X6.0833Y-4.6954
X6.0833Y-4.7312
X6.0833Y-4.767
X6.0833Y-4.8029
X6.0833Y-4.8387
X6.1192Y-4.5521
X6.1192Y-4.5879
X6.1192Y-4.6237
X6.1192Y-4.6596
X6.1192Y-4.6954
X6.1192Y-4.7312
X6.1192Y-4.767
X6.1192Y-4.8029
X6.1192Y-4.8387
X6.155Y-4.5163
X6.155Y-4.5521
X6.155Y-4.5879
X6.155Y-4.6237
X6.155Y-4.6596
X6.155Y-4.6954
X6.155Y-4.7312
X6.155Y-4.767
X6.155Y-4.8029
X6.155Y-4.8387
X6.1908Y-4.5163
X6.1908Y-4.5521
X6.1908Y-4.5879
X6.1908Y-4.6237
X6.1908Y-4.6596
X6.1908Y-4.6954
X6.1908Y-4.7312
X6.1908Y-4.767
X6.1908Y-4.8029
X6.1908Y-4.8387
T2
X6.89Y-3.1885
T3
X6.1002Y-3.4049
X6.104Y-3.4988
X6.2701Y-3.4557
X6.2841Y-3.8187
X6.2953Y-3.762
X6.3884Y-3.6554
X6.4111Y-3.4253
X6.4205Y-3.4856
X6.4233Y-3.7027
X6.4646Y-3.6655
X6.4697Y-3.5765
X6.4867Y-3.4648
X6.5599Y-3.6332
X6.6315Y-3.6332
X6.6386Y-3.2214
X6.6872Y-3.5142
X6.7583Y-4.6655
X6.8437Y-3.6627
X6.8496Y-3.71
X6.8603Y-3.4883
X6.9473Y-4.7151
X7.0209Y-4.5761
T4
X4.7918Y-3.971
X4.8934Y-3.9679
X4.9918Y-3.971
X5.0934Y-3.9679
X5.3583Y-3.971
X5.4493Y-3.9679
X5.5583Y-3.971
X5.6493Y-3.9679
X5.9317Y-4.336
X6.0583Y-4.1852
X6.2828Y-4.6094
X6.4796Y-4.6094
X6.7969Y-3.9005
X6.8953Y-3.9005
X6.9937Y-3.9005
T0
M30
